<svg id="Ebene_1" data-name="Ebene 1" xmlns="http://www.w3.org/2000/svg" xmlns:xlink="http://www.w3.org/1999/xlink" viewBox="0 0 1440 646.5"><defs><style>.cls-1{fill:none;}.cls-2{clip-path:url(#clip-path);}.cls-3{fill:#fff857;}.cls-4{fill:#666;}.cls-5{fill:#8c8c8c;}.cls-6{fill:#fff;}</style><clipPath id="clip-path" transform="translate(533 37.5)"><rect class="cls-1" x="-533" y="-8" width="1440" height="617"/></clipPath></defs><title>Hero-Bilder</title><g class="cls-2"><polygon class="cls-3" points="0 29.5 0 646.5 1440 646.5 1440 29.5 0 29.5 0 29.5"/><polygon class="cls-3" points="0 0 0 338 1440 338 1440 0 0 0 0 0"/></g><path d="M-156.58,73.11h30.17q29,0,46.11,12.49t17.09,37.21q0,36.48-34.48,47.4,41.09,11.78,41.09,46,0,59.47-74.7,59.47h-90.49v-25q7.18-2.6,21.55-7.18V107l-21.55-8.62V74.54Zm0,33.9v48.83h16.66q32.17,0,32.18-26.71,0-10.92-6.75-16.52t-17.67-5.6Zm16.66,79h-16.66v56h23.85q14.92,0,22.84-6.9t7.9-19q0-15.51-9.2-22.84T-139.92,186Z" transform="translate(533 37.5)"/><path d="M-34.48,122.81l65.21-2.3v125l20.11,7.18v23H-34.48v-23l23-7.18V151.54l-23-5.75ZM-17,73.11q0-11.77,7.33-18.82a24.23,24.23,0,0,1,17.38-7q24.12,0,24.13,25.86,0,12.06-7.33,19.1a23.52,23.52,0,0,1-16.8,7Q-4,99.25-10.5,92.5T-17,73.11Z" transform="translate(533 37.5)"/><path d="M131.56,278.51q-23.85,0-32.75-15.37T89.9,209.57V155.84H63.19V128.55l26.71-3.73V85.17l42.23-7.75v47.4h40.22v31H132.13v64.93q0,14.37,3.16,20.11t12.07,5.75q10.33,0,22.7-6.61L180.4,260.7Q155.11,278.52,131.56,278.51Z" transform="translate(533 37.5)"/><path d="M257.1,278.51q-23.85,0-32.75-15.37t-8.91-53.57V155.84H188.73V128.55l26.71-3.73V85.17l42.23-7.75v47.4h40.22v31H257.67v64.93q0,14.37,3.16,20.11t12.07,5.75q10.34,0,22.7-6.61l10.34,20.68Q280.65,278.52,257.1,278.51Z" transform="translate(533 37.5)"/><path d="M459.92,206.69l-95.38.87q1.14,17.81,10.49,27.57t24,9.77a86.18,86.18,0,0,0,22.69-3.3q12.06-3.3,18.67-6.75l6.9-3.45,12.35,23q-3.17,2.6-8.9,6.61t-23,10.77a91.82,91.82,0,0,1-33.61,6.75q-36.48,0-55.59-20.25T319.44,201q0-38.2,20.4-60.76t56.3-22.55q31.61,0,48.55,18.1t16.95,49.41Zm-66.65-55.44q-11.79,0-19.1,8t-9.05,21.55h51.71Q416.83,151.25,393.27,151.25Z" transform="translate(533 37.5)"/><path d="M479.45,122.81l59.47-2.3,2.58,19.82q2.29-2.58,6.32-6.32t14.51-10q10.49-6.31,19.11-6.32a68,68,0,0,1,13.35,1.29,46.93,46.93,0,0,1,9.63,2.73l2.87,1.15L605,177.39H580L575.69,153a33,33,0,0,0-15.23,4,48.2,48.2,0,0,0-11.77,8l-4,4v76.42l27.3,7.18v23H479.45v-23l23-7.18V151.54l-23-5.75Z" transform="translate(533 37.5)"/><path class="cls-4" d="M-182.67,407.75A23,23,0,0,0-190,406.7q-10.87,0-10.88,16.14,0,15.15,11.21,15.15a17.31,17.31,0,0,0,6-1.15,22.44,22.44,0,0,0,4.85-2.34l1.64-1.12,3.63,5.93-.79.76c-.36.33-1.11.91-2.28,1.75a24.55,24.55,0,0,1-3.65,2.17,27.91,27.91,0,0,1-4.78,1.71,21.45,21.45,0,0,1-5.76.79q-10.09,0-15.59-6t-5.5-17.36q0-11.54,6-18.12t16.21-6.59a37.43,37.43,0,0,1,7.37.76,36.25,36.25,0,0,1,5.87,1.55l2.11.79-.33,12.52h-6.46Z" transform="translate(533 37.5)"/><path class="cls-4" d="M-147.55,398.46q9.88,0,15.32,6.16t5.44,17.23q0,11.14-6.1,17.92t-16,6.79q-9.88,0-15.16-6.06t-5.27-17.66q0-11.32,5.83-17.86T-147.55,398.46Zm-.33,8.24a9,9,0,0,0-7.77,3.65q-2.64,3.66-2.64,12.16,0,8.1,2.41,12a8.05,8.05,0,0,0,7.34,3.85,9.19,9.19,0,0,0,7.94-3.78q2.74-3.8,2.74-12.36,0-8-2.51-11.76A8.45,8.45,0,0,0-147.88,406.7Z" transform="translate(533 37.5)"/><path class="cls-4" d="M-103.27,440v5.73H-122V440l4.94-1.65V407l-4.94-2v-5.47l17-.33,9.88,21.94,10.35-21.61,15.81-.33v5.8l-4.74,2v31.29l4.94,1.65v5.73H-88.45V440l5.14-1.65v-25q-1.18,3.11-2.73,6.43c-1,2.22-2.2,4.63-3.49,7.24s-2.3,4.67-3,6.16l-7.12.33-7.57-15.61-1.12-3.43v23.85Z" transform="translate(533 37.5)"/><path class="cls-4" d="M-41.2,440v5.73H-62.42V440q1.65-.59,4.94-1.65V407l-4.94-2v-5.47l15.16-.33h18.45v12.52h-6.13L-36.59,407H-47.26v11.66h13.64v7.25H-47.26v12.38Z" transform="translate(533 37.5)"/><path class="cls-4" d="M-3.12,398.46q9.89,0,15.32,6.16t5.44,17.23q0,11.14-6.1,17.92t-16,6.79q-9.88,0-15.15-6.06t-5.27-17.66q0-11.32,5.83-17.86T-3.12,398.46Zm-.33,8.24a9,9,0,0,0-7.77,3.65q-2.64,3.66-2.64,12.16,0,8.1,2.41,12a8.05,8.05,0,0,0,7.34,3.85,9.19,9.19,0,0,0,7.94-3.78q2.73-3.8,2.74-12.36,0-8-2.51-11.76A8.45,8.45,0,0,0-3.45,406.7Z" transform="translate(533 37.5)"/><path class="cls-4" d="M41.16,440v5.73H21.26V440l4.94-1.65V407l-4.94-2v-5.47l15.15-.33h5q8.23,0,12.69,3.4t4.44,10q0,8.78-7.44,12.46a18.83,18.83,0,0,1,2.77,4.28l4.41,9L62.77,440v5.73H50.58l-5.53-12.19a20.68,20.68,0,0,0-2.8-5,4.79,4.79,0,0,0-3.53-1.06H36.41v10.87ZM36.41,407v13.5h3.76a9.19,9.19,0,0,0,6.06-1.81,6.28,6.28,0,0,0,2.18-5.1,6.55,6.55,0,0,0-1.78-4.78A6.43,6.43,0,0,0,41.82,407Z" transform="translate(533 37.5)"/><path class="cls-4" d="M72.65,445.7V440l5.41-1.65V407H71.8l-1.65,6.26H64.09V399.45l38.21-.2v14H96.17L94.53,407H88.27v31.29L93.74,440v5.73Z" transform="translate(533 37.5)"/><path class="cls-4" d="M129.65,399.25l14.17,39.21,4.61,1.51v5.73h-21V440l4.94-1.51-1.58-4.95H116.21l-1.64,4.88L119.7,440v5.73H99.81V440l4.81-1.51,14.49-39Zm-5.93,11.6-5.2,15.61h10.15Z" transform="translate(533 37.5)"/><path class="cls-4" d="M166.81,399.25h6.92q6.66,0,10.58,2.87t3.92,8.53q0,8.37-7.91,10.87,9.42,2.7,9.42,10.54,0,13.65-17.13,13.64H151.86V440q1.63-.59,4.94-1.65V407l-4.94-2v-5.47Zm0,7.78v11.2h3.83q7.37,0,7.37-6.13a4.65,4.65,0,0,0-1.54-3.79,6.21,6.21,0,0,0-4.06-1.28Zm3.83,18.12h-3.83V438h5.47a7.7,7.7,0,0,0,5.24-1.58,5.45,5.45,0,0,0,1.81-4.35q0-3.56-2.11-5.23C175.82,425.71,173.62,425.15,170.64,425.15Z" transform="translate(533 37.5)"/><path class="cls-4" d="M209.77,407v31h10.08l1.45-7.44h6.26V445.7H194.62V440l4.94-1.65V407l-4.94-2v-5.47l20.09-.33v5.8Z" transform="translate(533 37.5)"/><path class="cls-4" d="M257.4,440v5.73H237.3V440l4.95-1.65v-8.69l-12.06-22.8-4.28-1.78v-5.47l18.64-.33v5.8l-3.36,1.38,6.59,14.3,7-14.23-3.63-1.45v-5.47l17.79-.33v5.8l-4.55,1.78-11.92,22.73v8.76Z" transform="translate(533 37.5)"/><path class="cls-4" d="M307.41,440v5.73h-19.9V440l4.94-1.65V407l-4.94-2v-5.47l15.16-.33h5q8.24,0,12.69,3.4t4.44,10q0,8.78-7.44,12.46a18.46,18.46,0,0,1,2.76,4.28l4.42,9L329,440v5.73H316.83l-5.53-12.19a20.68,20.68,0,0,0-2.8-5,4.79,4.79,0,0,0-3.53-1.06h-2.3v10.87ZM302.67,407v13.5h3.75a9.19,9.19,0,0,0,6.06-1.81,6.28,6.28,0,0,0,2.18-5.1,6.55,6.55,0,0,0-1.78-4.78,6.43,6.43,0,0,0-4.81-1.81Z" transform="translate(533 37.5)"/><path class="cls-4" d="M348.46,407v11h13.31v7.25H348.46V438h11.66l1.51-5.46h6.07V445.7H333.3V440l4.94-1.65V407l-4.94-2v-5.47l15.16-.33H366.9V412h-6.12L359.13,407Z" transform="translate(533 37.5)"/><path class="cls-4" d="M401.63,399.25l14.17,39.21,4.61,1.51v5.73h-21V440l4.94-1.51-1.58-4.95H388.19l-1.65,4.88,5.14,1.58v5.73h-19.9V440l4.81-1.51,14.5-39Zm-5.93,11.6-5.2,15.61h10.14Z" transform="translate(533 37.5)"/><path class="cls-4" d="M423.31,445.7V440l4.94-1.65V407l-4.94-2v-5.47l15.15-.33h6.26q10,0,15.48,5.8t5.47,16.8q0,11.07-5.93,17.46t-16,6.39ZM438.46,407v31h5.47a9.32,9.32,0,0,0,7.91-3.65q2.76-3.66,2.76-12.16,0-8-2.6-11.6a8.83,8.83,0,0,0-7.61-3.55Z" transform="translate(533 37.5)"/><path class="cls-4" d="M489.06,440v5.73H469V440l4.94-1.65V407l-4.94-2v-5.47l20.09-.33v5.8l-4.94,2v31.29Z" transform="translate(533 37.5)"/><path class="cls-4" d="M512.78,440v5.73H493.67V440l4.95-1.65V407l-4.95-2v-5.47l15.82-.33,17.79,30.44V407l-4.81-2v-5.47l18.77-.33v5.8l-4.94,2V445.7h-11l-17.66-29.84v22.46Z" transform="translate(533 37.5)"/><path class="cls-4" d="M573.86,413.42l-1.65-5.67a23.29,23.29,0,0,0-7.44-1.05q-11,0-11,16.14,0,15.29,11.2,15.29a20.54,20.54,0,0,0,3.33-.3c1.21-.2,2.16-.38,2.87-.56l1.05-.33v-8.3l-4.94-1.52v-5.4l19-.33v5.73l-4.49,1.52v13.44a22.25,22.25,0,0,1-2.2,1.25,36.31,36.31,0,0,1-6.1,1.94,37.64,37.64,0,0,1-9.62,1.22q-10.08,0-15.58-6t-5.5-17.36q0-11.54,6-18.12T565,398.46a37.6,37.6,0,0,1,7.38.76,38.5,38.5,0,0,1,5.93,1.55l2,.79L580,413.42Z" transform="translate(533 37.5)"/><path class="cls-5" d="M-165.58,518.3a10.29,10.29,0,0,1-7.86-3.12,11.58,11.58,0,0,1-2.94-8.28q0-9.6,5-15.6a16.16,16.16,0,0,1,13-6,10.69,10.69,0,0,1,8.13,3.12,11.26,11.26,0,0,1,3,8.1q0,9.9-5.13,15.84A16.61,16.61,0,0,1-165.58,518.3Zm9.27-9.39q3-4.59,3-11.7t-6.3-7.11q-5,0-7.89,4.83a22.21,22.21,0,0,0-2.91,11.67,7.4,7.4,0,0,0,1.59,5.19,5.73,5.73,0,0,0,4.41,1.71A9.26,9.26,0,0,0-156.31,508.91Z" transform="translate(533 37.5)"/><path class="cls-5" d="M-121.36,517.7-118,497a22.34,22.34,0,0,0,.24-2.64q0-4-3.12-4a6.84,6.84,0,0,0-4.29,1.71,15.34,15.34,0,0,0-3.57,4.11,46.38,46.38,0,0,0-4.44,9l-.54,1.68-1.74,10.8h-5.7l4.32-27-5-1.2.54-3.3,11-.3-2.7,11.64a29.66,29.66,0,0,1,2.49-4.32,26.7,26.7,0,0,1,3.12-3.87,15.91,15.91,0,0,1,4-2.79,10.76,10.76,0,0,1,5-1.26q6.66,0,6.66,7.38a23.29,23.29,0,0,1-.3,3.42l-2.76,16.8,5.1.9-.54,3.3Z" transform="translate(533 37.5)"/><path class="cls-5" d="M-64.3,512.9l5.22.9-.54,3.3-11.16.6,2.4-11a29.73,29.73,0,0,1-5.4,7.8,15.89,15.89,0,0,1-3.63,2.64,9.1,9.1,0,0,1-4.41,1.2,6.78,6.78,0,0,1-5.61-3,12.15,12.15,0,0,1-2.25-7.5q0-10.44,5.31-16.47t12.57-6a13.16,13.16,0,0,1,3.42.45,14.16,14.16,0,0,1,2.52.87l.78.48,1.8-1.2H-60ZM-67.6,497l1.2-6.3a14.68,14.68,0,0,0-5.4-.9q-4.8,0-8.34,4.35t-3.54,12.75a8.83,8.83,0,0,0,1,4.68,3.2,3.2,0,0,0,2.85,1.62A6.11,6.11,0,0,0-76,511.52a16.38,16.38,0,0,0,3.45-4,45.72,45.72,0,0,0,4.38-8.82Z" transform="translate(533 37.5)"/><path class="cls-5" d="M-33.76,517.7-30.4,497a22.34,22.34,0,0,0,.24-2.64q0-4-3.12-4a6.84,6.84,0,0,0-4.29,1.71,15.34,15.34,0,0,0-3.57,4.11,46.38,46.38,0,0,0-4.44,9l-.54,1.68-1.74,10.8h-5.7l4.32-27-5-1.2.54-3.3,11-.3-2.7,11.64A29.66,29.66,0,0,1-43,493.22a26.7,26.7,0,0,1,3.12-3.87,15.91,15.91,0,0,1,4-2.79,10.76,10.76,0,0,1,5-1.26q6.66,0,6.66,7.38a23.29,23.29,0,0,1-.3,3.42l-2.76,16.8,5.1.9-.54,3.3Z" transform="translate(533 37.5)"/><path class="cls-5" d="M12.31,489.5l-3.36,1L-1.73,515.72q-4.08,9.66-6.78,13a8.77,8.77,0,0,1-7.2,3.36,23.68,23.68,0,0,1-5.88-.72l-.9-.24,1.2-3.84a40.14,40.14,0,0,0,5,.3A5.78,5.78,0,0,0-12.08,526,19.49,19.49,0,0,0-8.57,520l-7.8-29.4L-21,489.5l.54-3.3,9.66-.3,5,22,.54,4.08,8.88-21.42-4.5-1.08.54-3.3,13.2-.3Z" transform="translate(533 37.5)"/><path class="cls-5" d="M49.39,495.8l-.18-5.1a10.36,10.36,0,0,0-3.9-.6q-4.92,0-7.86,4.95a22.49,22.49,0,0,0-2.94,11.7q0,6.75,5.7,6.75a14.71,14.71,0,0,0,4.11-.66,18.54,18.54,0,0,0,3.57-1.38l1.32-.66,1.8,3q-.66.48-1.83,1.23a28.89,28.89,0,0,1-4.35,2A15.94,15.94,0,0,1,39,518.3a10.21,10.21,0,0,1-7.59-2.94q-2.91-2.94-2.91-8.16,0-9.78,5-15.84a15.74,15.74,0,0,1,12.72-6.06,15.43,15.43,0,0,1,4.26.6,14.13,14.13,0,0,1,3.12,1.2l1,.6-1.32,8.1Z" transform="translate(533 37.5)"/><path class="cls-5" d="M66.91,518.3a10.29,10.29,0,0,1-7.86-3.12,11.58,11.58,0,0,1-2.94-8.28q0-9.6,5-15.6a16.16,16.16,0,0,1,13-6,10.69,10.69,0,0,1,8.13,3.12,11.26,11.26,0,0,1,3,8.1q0,9.9-5.13,15.84A16.61,16.61,0,0,1,66.91,518.3Zm9.27-9.39q3-4.59,3-11.7t-6.3-7.11q-5,0-7.89,4.83a22.21,22.21,0,0,0-2.91,11.67,7.4,7.4,0,0,0,1.59,5.19,5.73,5.73,0,0,0,4.41,1.71A9.26,9.26,0,0,0,76.18,508.91Z" transform="translate(533 37.5)"/><path class="cls-5" d="M116.6,507.32,115,517.7h-5.7l3.36-20.7a22.34,22.34,0,0,0,.24-2.64q0-4-3.12-4a6.43,6.43,0,0,0-4.14,1.71,15.18,15.18,0,0,0-3.42,4.11,40.3,40.3,0,0,0-4.08,9l-.54,1.68-1.74,10.8h-5.7l4.32-27-5-1.2.54-3.3,10.92-.3L98.3,497.54a25.12,25.12,0,0,1,5.1-8.16,15.41,15.41,0,0,1,3.84-2.82,10.23,10.23,0,0,1,4.92-1.26q6.42,0,6.42,7.32a28.62,28.62,0,0,1-.3,3.72,27.24,27.24,0,0,1,4.2-6.84,12.06,12.06,0,0,1,3.93-3.06,11,11,0,0,1,5-1.14q6.6,0,6.6,7.38a23.29,23.29,0,0,1-.3,3.42l-2.76,16.8,5.1.9-.54,3.3-11,.6,3.42-20.7a22.32,22.32,0,0,0,.24-2.58q0-4-3.12-4a6.55,6.55,0,0,0-4.23,1.74,15,15,0,0,0-3.45,4.2,45.61,45.61,0,0,0-4.14,9.24Z" transform="translate(533 37.5)"/><path class="cls-5" d="M157,485.9l-2.4,11a29.89,29.89,0,0,1,3.48-6,14.93,14.93,0,0,1,4.35-4,11.29,11.29,0,0,1,6.06-1.65,6.29,6.29,0,0,1,5.46,3.12,13.59,13.59,0,0,1,2.07,7.68q0,9.9-5.34,16t-12.78,6.15a12.08,12.08,0,0,1-5.88-1.44l-1.56,9.84,4.56,1.5-.6,3.3h-15.3l.54-3.3,5.1-1.5,5.76-36-4.92-1.2.54-3.3Zm-3.12,20.7-1.2,6.3a16.31,16.31,0,0,0,5.52.9q4.32,0,8.07-4.44T170.06,497a10.12,10.12,0,0,0-1-4.68A3.24,3.24,0,0,0,166,490.4a6.35,6.35,0,0,0-4.08,1.68,15.35,15.35,0,0,0-3.39,4,47.17,47.17,0,0,0-4.14,8.82Z" transform="translate(533 37.5)"/><path class="cls-5" d="M200.47,517.7l2.46-11.64a21.82,21.82,0,0,1-2.37,4.29,30.89,30.89,0,0,1-3.12,3.9,14.55,14.55,0,0,1-4,2.82,10.85,10.85,0,0,1-4.95,1.23q-6.66,0-6.66-7.32a25.47,25.47,0,0,1,.3-3.48l2.76-16.8-5.1-1.2.54-3.3,11-.3-3.3,20.7a25.55,25.55,0,0,0-.24,2.64q0,4,3.12,4a7,7,0,0,0,4.38-1.71,15.11,15.11,0,0,0,3.6-4.11,46.16,46.16,0,0,0,4.26-9l.54-1.68,1.8-10.8h5.7l-4.32,27,5.16.9-.54,3.3Z" transform="translate(533 37.5)"/><path class="cls-5" d="M233.05,512.3l1,3.24q-4.5,2.76-7.86,2.76-6.06,0-6.06-7.14a22.88,22.88,0,0,1,.36-3.84l2.64-16.62h-5.94l.66-3.9,6-.6,1.2-7.56,5.94-1.2-1.44,8.76h8.28l-.72,4.5h-8.28l-2.58,16a26.37,26.37,0,0,0-.36,3.87,3.62,3.62,0,0,0,.54,2.22,1.8,1.8,0,0,0,1.5.69,13.22,13.22,0,0,0,4.32-.9Z" transform="translate(533 37.5)"/><path class="cls-5" d="M265,493.1q0,5.16-5.85,8.37T244,504.68a19.09,19.09,0,0,0-.18,2.58q0,6.24,6.6,6.24a17.13,17.13,0,0,0,4.38-.66,23.38,23.38,0,0,0,4-1.38l1.5-.66,1.8,3.06q-.72.48-2,1.23a30.18,30.18,0,0,1-4.8,2,20.33,20.33,0,0,1-6.66,1.23,10.75,10.75,0,0,1-7.86-2.88,10.19,10.19,0,0,1-2.94-7.62q0-9.48,5.07-16t12.27-6.51a11.28,11.28,0,0,1,7.23,2.13A6.89,6.89,0,0,1,265,493.1Zm-20.52,7.38a25.6,25.6,0,0,0,10.62-1.92q4.2-1.92,4.2-4.86,0-3.9-4.5-3.9a8.7,8.7,0,0,0-6.24,3A16.18,16.18,0,0,0,244.51,500.48Z" transform="translate(533 37.5)"/><path class="cls-5" d="M294.07,485.9l-1.8,9h-3.9v-4.2a5.59,5.59,0,0,0-3.69,1.62,14.55,14.55,0,0,0-3.09,3.9,51.09,51.09,0,0,0-3.84,8.46l-.48,1.62-1.92,11.4h-5.7l4.38-27-5.1-1.2.54-3.3,11-.3-2.34,10.44a23.56,23.56,0,0,1,4.74-7.44,12.84,12.84,0,0,1,3.51-2.49,10.15,10.15,0,0,1,4.65-1.11A9.05,9.05,0,0,1,294.07,485.9Z" transform="translate(533 37.5)"/><path class="cls-5" d="M320.47,518.3a10.29,10.29,0,0,1-7.86-3.12,11.58,11.58,0,0,1-2.94-8.28q0-9.6,5-15.6a16.16,16.16,0,0,1,13-6,10.69,10.69,0,0,1,8.13,3.12,11.26,11.26,0,0,1,3,8.1q0,9.9-5.13,15.84A16.61,16.61,0,0,1,320.47,518.3Zm9.27-9.39c2-3.06,3-7,3-11.7s-2.1-7.11-6.3-7.11c-3.33,0-6,1.61-7.89,4.83a22.12,22.12,0,0,0-2.91,11.67,7.4,7.4,0,0,0,1.59,5.19,5.73,5.73,0,0,0,4.41,1.71A9.28,9.28,0,0,0,329.74,508.91Z" transform="translate(533 37.5)"/><path class="cls-5" d="M369.31,485.9l-1.81,9h-3.89v-4.2a5.57,5.57,0,0,0-3.69,1.62,14.36,14.36,0,0,0-3.09,3.9,50.27,50.27,0,0,0-3.84,8.46l-.49,1.62-1.92,11.4h-5.7l4.39-27-5.1-1.2.54-3.3,11-.3-2.34,10.44a23.21,23.21,0,0,1,4.74-7.44,12.53,12.53,0,0,1,3.51-2.49,10.15,10.15,0,0,1,4.65-1.11A9.15,9.15,0,0,1,369.31,485.9Z" transform="translate(533 37.5)"/><path class="cls-5" d="M408.43,512.9l5.16.9-.54,3.3-11,.6,2.64-11a27.44,27.44,0,0,1-5.28,7.8,15.5,15.5,0,0,1-3.69,2.67,9.28,9.28,0,0,1-4.41,1.17,6.82,6.82,0,0,1-5.7-3,12.23,12.23,0,0,1-2.22-7.53q0-10.38,5.25-16.44t12.51-6.06a12.23,12.23,0,0,1,5.76,1.32l1.68-10.32-5.1-1.2.54-3.3,11.1-.3ZM405.31,497l1-6.3a12.93,12.93,0,0,0-5.1-.9q-5.16,0-8.46,4.77t-3.3,12a9.87,9.87,0,0,0,1,4.89,3.15,3.15,0,0,0,2.88,1.71,6.06,6.06,0,0,0,3.87-1.68,15.64,15.64,0,0,0,3.36-4,44.38,44.38,0,0,0,4.2-8.82Z" transform="translate(533 37.5)"/><path class="cls-5" d="M445.39,493.1q0,5.16-5.85,8.37t-15.21,3.21a19.09,19.09,0,0,0-.18,2.58q0,6.24,6.6,6.24a17.13,17.13,0,0,0,4.38-.66,23.38,23.38,0,0,0,4-1.38l1.5-.66,1.8,3.06q-.72.48-2,1.23a30.18,30.18,0,0,1-4.8,2A20.33,20.33,0,0,1,429,518.3a10.75,10.75,0,0,1-7.86-2.88,10.19,10.19,0,0,1-2.94-7.62q0-9.48,5.07-16t12.27-6.51a11.28,11.28,0,0,1,7.23,2.13A6.89,6.89,0,0,1,445.39,493.1Zm-20.52,7.38a25.6,25.6,0,0,0,10.62-1.92q4.2-1.92,4.2-4.86,0-3.9-4.5-3.9a8.7,8.7,0,0,0-6.24,3A16.18,16.18,0,0,0,424.87,500.48Z" transform="translate(533 37.5)"/><path class="cls-5" d="M479.77,489.5l-3.24,1L463.15,517.7h-6.48L451,490.64l-4.74-1.14.54-3.3,9.66-.3,4,21.6.6,4.5,9.9-21.42-4.38-1.08.54-3.3,13.26-.3Z" transform="translate(533 37.5)"/><path class="cls-5" d="M481.75,517.7l4.32-27-5.1-1.2.6-3.3,11-.3-4.32,27,5.1.9-.54,3.3Zm12.6-42.45a5.73,5.73,0,0,1-1.11,3.39,3.37,3.37,0,0,1-2.85,1.56,3.83,3.83,0,0,1-2.64-.81,3.4,3.4,0,0,1-.9-2.64,5.73,5.73,0,0,1,1.11-3.39,3.37,3.37,0,0,1,2.85-1.56,3.83,3.83,0,0,1,2.64.81A3.4,3.4,0,0,1,494.35,475.25Z" transform="translate(533 37.5)"/><path class="cls-5" d="M518.23,495.8l-.18-5.1a10.36,10.36,0,0,0-3.9-.6q-4.92,0-7.86,4.95a22.49,22.49,0,0,0-2.94,11.7q0,6.75,5.7,6.75a14.71,14.71,0,0,0,4.11-.66,18.54,18.54,0,0,0,3.57-1.38l1.32-.66,1.8,3q-.66.48-1.83,1.23a28.89,28.89,0,0,1-4.35,2,15.94,15.94,0,0,1-5.82,1.26,10.21,10.21,0,0,1-7.59-2.94q-2.91-2.94-2.91-8.16,0-9.78,5-15.84a15.74,15.74,0,0,1,12.72-6.06,15.43,15.43,0,0,1,4.26.6,14.13,14.13,0,0,1,3.12,1.2l1,.6-1.32,8.1Z" transform="translate(533 37.5)"/><path class="cls-5" d="M551.59,493.1q0,5.16-5.85,8.37t-15.21,3.21a19.09,19.09,0,0,0-.18,2.58q0,6.24,6.6,6.24a17.13,17.13,0,0,0,4.38-.66,23.38,23.38,0,0,0,4-1.38l1.5-.66,1.8,3.06q-.72.48-2,1.23a30.18,30.18,0,0,1-4.8,2,20.33,20.33,0,0,1-6.66,1.23,10.75,10.75,0,0,1-7.86-2.88,10.19,10.19,0,0,1-2.94-7.62q0-9.48,5.07-16t12.27-6.51a11.28,11.28,0,0,1,7.23,2.13A6.89,6.89,0,0,1,551.59,493.1Zm-20.52,7.38a25.6,25.6,0,0,0,10.62-1.92q4.2-1.92,4.2-4.86,0-3.9-4.5-3.9a8.7,8.7,0,0,0-6.24,3A16.18,16.18,0,0,0,531.07,500.48Z" transform="translate(533 37.5)"/><rect class="cls-6" x="170" y="378.21" width="1100" height="6"/></svg>