<?xml version="1.0" encoding="UTF-8"?>
<svg width="375px" height="600px" viewBox="0 0 375 600" version="1.1" xmlns="http://www.w3.org/2000/svg" xmlns:xlink="http://www.w3.org/1999/xlink">
    <!-- Generator: Sketch 50.2 (55047) - http://www.bohemiancoding.com/sketch -->
    <title>hochformat_Text_Ubuntu@3x</title>
    <desc>Created with Sketch.</desc>
    <defs>
        <linearGradient x1="-1.03812118%" y1="93.344833%" x2="101.03812%" y2="6.65516281%" id="linearGradient-1">
            <stop stop-color="#E8541F" offset="0%"></stop>
            <stop stop-color="#5D2650" offset="100%"></stop>
        </linearGradient>
    </defs>
    <g id="hochformat_Text_Ubuntu" stroke="none" stroke-width="1" fill="none" fill-rule="evenodd">
        <polygon id="Fill-1" fill="url(#linearGradient-1)" points="0 600 375 600 375 0 0 0"></polygon>
        <path d="M55.272,96.008 C51.7679825,96.008 48.7440127,95.5160049 46.2,94.532 C43.6559873,93.5479951 41.5560083,92.1800088 39.9,90.428 C38.2439917,88.6759912 37.020004,86.5880121 36.228,84.164 C35.435996,81.7399879 35.04,79.0640146 35.04,76.136 L35.04,45.104 L46.272,45.104 L46.272,75.2 C46.272,77.2160101 46.4999977,78.9319929 46.956,80.348 C47.4120023,81.7640071 48.035996,82.9159956 48.828,83.804 C49.620004,84.6920044 50.5799944,85.3279981 51.708,85.712 C52.8360056,86.0960019 54.0719933,86.288 55.416,86.288 C58.1520137,86.288 60.3719915,85.4480084 62.076,83.768 C63.7800085,82.0879916 64.632,79.2320202 64.632,75.2 L64.632,45.104 L75.864,45.104 L75.864,76.136 C75.864,79.0640146 75.4560041,81.7519878 74.64,84.2 C73.8239959,86.6480122 72.5760084,88.7479912 70.896,90.5 C69.2159916,92.2520088 67.080013,93.6079952 64.488,94.568 C61.895987,95.5280048 58.8240178,96.008 55.272,96.008 Z M110.208,75.776 C110.208,68.8639654 107.664025,65.408 102.576,65.408 C101.471994,65.408 100.380005,65.5519986 99.3,65.84 C98.2199946,66.1280014 97.3440034,66.4879978 96.672,66.92 L96.672,86.432 C97.2000026,86.5280005 97.8719959,86.6119996 98.688,86.684 C99.5040041,86.7560004 100.391995,86.792 101.352,86.792 C104.280015,86.792 106.487993,85.7840101 107.976,83.768 C109.464007,81.7519899 110.208,79.0880166 110.208,75.776 Z M121.152,76.064 C121.152,79.0880151 120.708004,81.8239878 119.82,84.272 C118.931996,86.7200122 117.648008,88.8079914 115.968,90.536 C114.287992,92.2640086 112.224012,93.5959953 109.776,94.532 C107.327988,95.4680047 104.544016,95.936 101.424,95.936 C100.127994,95.936 98.7720071,95.8760006 97.356,95.756 C95.9399929,95.6359994 94.5480068,95.480001 93.18,95.288 C91.8119932,95.095999 90.5040062,94.8680013 89.256,94.604 C88.0079938,94.3399987 86.9040048,94.0640014 85.944,93.776 L85.944,40.856 L96.672,39.128 L96.672,57.992 C97.872006,57.4639974 99.1199935,57.0560014 100.416,56.768 C101.712006,56.4799986 103.103993,56.336 104.592,56.336 C107.280013,56.336 109.65599,56.8039953 111.72,57.74 C113.78401,58.6760047 115.511993,60.0079914 116.904,61.736 C118.296007,63.4640086 119.351996,65.5399879 120.072,67.964 C120.792004,70.3880121 121.152,73.0879851 121.152,76.064 Z M161.76,93.704 C159.935991,94.2320026 157.584014,94.7239977 154.704,95.18 C151.823986,95.6360023 148.800016,95.864 145.632,95.864 C142.415984,95.864 139.740011,95.4320043 137.604,94.568 C135.467989,93.7039957 133.776006,92.4920078 132.528,90.932 C131.279994,89.3719922 130.392003,87.5120108 129.864,85.352 C129.335997,83.1919892 129.072,80.816013 129.072,78.224 L129.072,57.128 L139.8,57.128 L139.8,76.928 C139.8,80.3840173 140.255995,82.8799923 141.168,84.416 C142.080005,85.9520077 143.783988,86.72 146.28,86.72 C147.048004,86.72 147.863996,86.6840004 148.728,86.612 C149.592004,86.5399996 150.359997,86.4560005 151.032,86.36 L151.032,57.128 L161.76,57.128 L161.76,93.704 Z M171.84,58.424 C173.664009,57.8959974 176.015986,57.4040023 178.896,56.948 C181.776014,56.4919977 184.799984,56.264 187.968,56.264 C191.184016,56.264 193.859989,56.6839958 195.996,57.524 C198.132011,58.3640042 199.823994,59.5519923 201.072,61.088 C202.320006,62.6240077 203.207997,64.4479894 203.736,66.56 C204.264003,68.6720106 204.528,71.023987 204.528,73.616 L204.528,95 L193.8,95 L193.8,74.912 C193.8,71.4559827 193.344005,69.0080072 192.432,67.568 C191.519995,66.1279928 189.816012,65.408 187.32,65.408 C186.551996,65.408 185.736004,65.4439996 184.872,65.516 C184.007996,65.5880004 183.240003,65.6719995 182.568,65.768 L182.568,95 L171.84,95 L171.84,58.424 Z M213.888,47.696 L224.616,45.968 L224.616,57.128 L237.504,57.128 L237.504,66.056 L224.616,66.056 L224.616,79.376 C224.616,81.6320113 225.011996,83.4319933 225.804,84.776 C226.596004,86.1200067 228.191988,86.792 230.592,86.792 C231.744006,86.792 232.931994,86.6840011 234.156,86.468 C235.380006,86.2519989 236.495995,85.9520019 237.504,85.568 L239.016,93.92 C237.719994,94.4480026 236.280008,94.9039981 234.696,95.288 C233.111992,95.6720019 231.168012,95.864 228.864,95.864 C225.935985,95.864 223.51201,95.468004 221.592,94.676 C219.67199,93.883996 218.136006,92.7800071 216.984,91.364 C215.831994,89.9479929 215.028002,88.2320101 214.572,86.216 C214.115998,84.1999899 213.888,81.9680122 213.888,79.52 L213.888,47.696 Z M278.544,93.704 C276.719991,94.2320026 274.368014,94.7239977 271.488,95.18 C268.607986,95.6360023 265.584016,95.864 262.416,95.864 C259.199984,95.864 256.524011,95.4320043 254.388,94.568 C252.251989,93.7039957 250.560006,92.4920078 249.312,90.932 C248.063994,89.3719922 247.176003,87.5120108 246.648,85.352 C246.119997,83.1919892 245.856,80.816013 245.856,78.224 L245.856,57.128 L256.584,57.128 L256.584,76.928 C256.584,80.3840173 257.039995,82.8799923 257.952,84.416 C258.864005,85.9520077 260.567988,86.72 263.064,86.72 C263.832004,86.72 264.647996,86.6840004 265.512,86.612 C266.376004,86.5399996 267.143997,86.4560005 267.816,86.36 L267.816,57.128 L278.544,57.128 L278.544,93.704 Z" id="Ubuntu" fill="#FFFFFF"></path>
        <path d="M40.868,161.964 C45.326689,161.964 47.556,160.438682 47.556,157.388 C47.556,156.449329 47.358002,155.650003 46.962,154.99 C46.565998,154.329997 46.03067,153.758002 45.356,153.274 C44.68133,152.789998 43.9113377,152.372002 43.046,152.02 C42.1806623,151.667998 41.2640048,151.316002 40.296,150.964 C39.1813278,150.582665 38.1253383,150.150002 37.128,149.666 C36.1306617,149.181998 35.265337,148.610003 34.532,147.95 C33.798663,147.289997 33.2193355,146.505338 32.794,145.596 C32.3686645,144.686662 32.156,143.586673 32.156,142.296 C32.156,139.626653 33.0653242,137.544007 34.884,136.048 C36.7026758,134.551993 39.2106507,133.804 42.408,133.804 C44.2560092,133.804 45.9353258,134.001998 47.446,134.398 C48.9566742,134.794002 50.0639965,135.226664 50.768,135.696 L49.404,139.172 C48.7879969,138.790665 47.8713394,138.416669 46.654,138.05 C45.4366606,137.683332 44.0213414,137.5 42.408,137.5 C41.5866626,137.5 40.8240035,137.587999 40.12,137.764 C39.4159965,137.940001 38.8000026,138.203998 38.272,138.556 C37.7439974,138.908002 37.3260015,139.355331 37.018,139.898 C36.7099985,140.440669 36.556,141.078663 36.556,141.812 C36.556,142.633337 36.7173317,143.322664 37.04,143.88 C37.3626683,144.437336 37.8173304,144.928665 38.404,145.354 C38.9906696,145.779335 39.6726628,146.167998 40.45,146.52 C41.2273372,146.872002 42.0853286,147.223998 43.024,147.576 C44.3440066,148.104003 45.5539945,148.631997 46.654,149.16 C47.7540055,149.688003 48.7073293,150.318663 49.514,151.052 C50.3206707,151.785337 50.9439978,152.657995 51.384,153.67 C51.8240022,154.682005 52.044,155.906659 52.044,157.344 C52.044,160.013347 51.0686764,162.066659 49.118,163.504 C47.1673236,164.941341 44.4173511,165.66 40.868,165.66 C39.6653273,165.66 38.5580051,165.579334 37.546,165.418 C36.5339949,165.256666 35.632004,165.066001 34.84,164.846 C34.047996,164.625999 33.3660029,164.391335 32.794,164.142 C32.2219971,163.892665 31.7746683,163.680001 31.452,163.504 L32.728,159.984 C33.40267,160.365335 34.4293264,160.790664 35.808,161.26 C37.1866736,161.729336 38.8733234,161.964 40.868,161.964 Z M72.812,153.604 C72.812,150.934653 72.1520066,148.881341 70.832,147.444 C69.5119934,146.006659 67.752011,145.288 65.552,145.288 C64.3199938,145.288 63.3593368,145.332 62.67,145.42 C61.9806632,145.508 61.4306687,145.610666 61.02,145.728 L61.02,160.16 C61.5186692,160.570669 62.2373286,160.966665 63.176,161.348 C64.1146714,161.729335 65.1413278,161.92 66.256,161.92 C67.4293392,161.92 68.4339958,161.707335 69.27,161.282 C70.1060042,160.856665 70.7879974,160.270004 71.316,159.522 C71.8440026,158.773996 72.2253322,157.894005 72.46,156.882 C72.6946678,155.869995 72.812,154.777339 72.812,153.604 Z M77.08,153.604 C77.08,155.334675 76.8526689,156.933326 76.398,158.4 C75.9433311,159.866674 75.2760044,161.127995 74.396,162.184 C73.5159956,163.240005 72.4380064,164.06133 71.162,164.648 C69.8859936,165.23467 68.4266749,165.528 66.784,165.528 C65.4639934,165.528 64.2980051,165.352002 63.286,165 C62.2739949,164.647998 61.5186692,164.310668 61.02,163.988 L61.02,173.14 L56.928,173.14 L56.928,142.824 C57.8960048,142.589332 59.1059927,142.332668 60.558,142.054 C62.0100073,141.775332 63.6893238,141.636 65.596,141.636 C67.3560088,141.636 68.939993,141.914664 70.348,142.472 C71.756007,143.029336 72.9586617,143.821328 73.956,144.848 C74.9533383,145.874672 75.7233306,147.128659 76.266,148.61 C76.8086694,150.091341 77.08,151.755991 77.08,153.604 Z M91.292,141.636 C91.6440018,141.636 92.0473311,141.658 92.502,141.702 C92.9566689,141.746 93.4039978,141.804666 93.844,141.878 C94.2840022,141.951334 94.6873315,142.024666 95.054,142.098 C95.4206685,142.171334 95.6919991,142.237333 95.868,142.296 L95.164,145.86 C94.8413317,145.742666 94.3060037,145.603334 93.558,145.442 C92.8099963,145.280666 91.8493392,145.2 90.676,145.2 C89.9133295,145.2 89.1580037,145.280666 88.41,145.442 C87.6619963,145.603334 87.1706678,145.713333 86.936,145.772 L86.936,165 L82.844,165 L82.844,143.088 C83.8120048,142.735998 85.0146595,142.406002 86.452,142.098 C87.8893405,141.789998 89.5026577,141.636 91.292,141.636 Z M107.572,162.052 C108.540005,162.052 109.397996,162.03 110.146,161.986 C110.894004,161.942 111.517331,161.861334 112.016,161.744 L112.016,154.924 C111.722665,154.777333 111.246003,154.652667 110.586,154.55 C109.925997,154.447333 109.126671,154.396 108.188,154.396 C107.571997,154.396 106.919337,154.44 106.23,154.528 C105.540663,154.616 104.910003,154.799332 104.338,155.078 C103.765997,155.356668 103.289335,155.737998 102.908,156.222 C102.526665,156.706002 102.336,157.343996 102.336,158.136 C102.336,159.602674 102.805329,160.621997 103.744,161.194 C104.682671,161.766003 105.958659,162.052 107.572,162.052 Z M107.22,141.548 C108.862675,141.548 110.248661,141.760665 111.378,142.186 C112.507339,142.611335 113.416663,143.212663 114.106,143.99 C114.795337,144.767337 115.286665,145.691328 115.58,146.762 C115.873335,147.832672 116.02,149.013327 116.02,150.304 L116.02,164.604 C115.667998,164.662667 115.17667,164.743333 114.546,164.846 C113.91533,164.948667 113.204004,165.044 112.412,165.132 C111.619996,165.22 110.762005,165.300666 109.838,165.374 C108.913995,165.447334 107.997338,165.484 107.088,165.484 C105.797327,165.484 104.609339,165.352001 103.524,165.088 C102.438661,164.823999 101.500004,164.406003 100.708,163.834 C99.915996,163.261997 99.3000022,162.506671 98.86,161.568 C98.4199978,160.629329 98.2,159.500007 98.2,158.18 C98.2,156.91866 98.4566641,155.833338 98.97,154.924 C99.4833359,154.014662 100.179996,153.281336 101.06,152.724 C101.940004,152.166664 102.966661,151.756001 104.14,151.492 C105.313339,151.227999 106.545327,151.096 107.836,151.096 C108.246669,151.096 108.671998,151.118 109.112,151.162 C109.552002,151.206 109.969998,151.264666 110.366,151.338 C110.762002,151.411334 111.106665,151.477333 111.4,151.536 C111.693335,151.594667 111.898666,151.638667 112.016,151.668 L112.016,150.524 C112.016,149.84933 111.942667,149.182003 111.796,148.522 C111.649333,147.861997 111.385335,147.275336 111.004,146.762 C110.622665,146.248664 110.102003,145.838002 109.442,145.53 C108.781997,145.221998 107.924005,145.068 106.868,145.068 C105.51866,145.068 104.338005,145.163332 103.326,145.354 C102.313995,145.544668 101.558669,145.742666 101.06,145.948 L100.576,142.56 C101.104003,142.325332 101.983994,142.098001 103.216,141.878 C104.448006,141.657999 105.782659,141.548 107.22,141.548 Z M132.74,165.528 C130.891991,165.528 129.27134,165.23467 127.878,164.648 C126.48466,164.06133 125.311338,163.240005 124.358,162.184 C123.404662,161.127995 122.693336,159.874007 122.224,158.422 C121.754664,156.969993 121.52,155.364009 121.52,153.604 C121.52,151.843991 121.776664,150.230674 122.29,148.764 C122.803336,147.297326 123.529329,146.028672 124.468,144.958 C125.406671,143.887328 126.557993,143.051336 127.922,142.45 C129.286007,141.848664 130.803992,141.548 132.476,141.548 C133.502672,141.548 134.529328,141.635999 135.556,141.812 C136.582672,141.988001 137.565329,142.266665 138.504,142.648 L137.58,146.124 C136.963997,145.830665 136.252671,145.596001 135.446,145.42 C134.639329,145.243999 133.781338,145.156 132.872,145.156 C130.583989,145.156 128.831339,145.874659 127.614,147.312 C126.396661,148.749341 125.788,150.846653 125.788,153.604 C125.788,154.836006 125.927332,155.965328 126.206,156.992 C126.484668,158.018672 126.924664,158.898663 127.526,159.632 C128.127336,160.365337 128.897329,160.929998 129.836,161.326 C130.774671,161.722002 131.91866,161.92 133.268,161.92 C134.353339,161.92 135.335996,161.817334 136.216,161.612 C137.096004,161.406666 137.785331,161.186668 138.284,160.952 L138.856,164.384 C138.621332,164.530667 138.284002,164.669999 137.844,164.802 C137.403998,164.934001 136.905336,165.051333 136.348,165.154 C135.790664,165.256667 135.19667,165.344666 134.566,165.418 C133.93533,165.491334 133.32667,165.528 132.74,165.528 Z M143.256,165 L143.256,131.56 L147.348,130.856 L147.348,142.56 C148.11067,142.266665 148.924662,142.039334 149.79,141.878 C150.655338,141.716666 151.513329,141.636 152.364,141.636 C154.182676,141.636 155.693327,141.892664 156.896,142.406 C158.098673,142.919336 159.05933,143.637995 159.778,144.562 C160.49667,145.486005 161.002665,146.593327 161.296,147.884 C161.589335,149.174673 161.736,150.597326 161.736,152.152 L161.736,165 L157.644,165 L157.644,153.032 C157.644,151.623993 157.548668,150.421338 157.358,149.424 C157.167332,148.426662 156.852002,147.620003 156.412,147.004 C155.971998,146.387997 155.385337,145.940668 154.652,145.662 C153.918663,145.383332 153.009339,145.244 151.924,145.244 C151.483998,145.244 151.029336,145.273333 150.56,145.332 C150.090664,145.390667 149.643335,145.456666 149.218,145.53 C148.792665,145.603334 148.411335,145.684 148.074,145.772 C147.736665,145.86 147.494667,145.933333 147.348,145.992 L147.348,165 L143.256,165 Z M167.104,153.604 C167.104,151.57999 167.39733,149.812674 167.984,148.302 C168.57067,146.791326 169.347995,145.537338 170.316,144.54 C171.284005,143.542662 172.39866,142.794669 173.66,142.296 C174.92134,141.797331 176.211993,141.548 177.532,141.548 C180.612015,141.548 182.973325,142.508657 184.616,144.43 C186.258675,146.351343 187.08,149.277314 187.08,153.208 L187.08,153.89 C187.08,154.168668 187.065333,154.425332 187.036,154.66 L171.372,154.66 C171.548001,157.036012 172.237327,158.839994 173.44,160.072 C174.642673,161.304006 176.519987,161.92 179.072,161.92 C180.509341,161.92 181.719328,161.795335 182.702,161.546 C183.684672,161.296665 184.425331,161.054668 184.924,160.82 L185.496,164.252 C184.997331,164.516001 184.124673,164.794665 182.878,165.088 C181.631327,165.381335 180.216008,165.528 178.632,165.528 C176.637323,165.528 174.914007,165.227336 173.462,164.626 C172.009993,164.024664 170.814671,163.196005 169.876,162.14 C168.937329,161.083995 168.240669,159.830007 167.786,158.378 C167.331331,156.925993 167.104,155.334675 167.104,153.604 Z M182.812,151.36 C182.841333,149.511991 182.379338,147.994006 181.426,146.806 C180.472662,145.617994 179.160008,145.024 177.488,145.024 C176.549329,145.024 175.72067,145.207332 175.002,145.574 C174.28333,145.940668 173.674669,146.41733 173.176,147.004 C172.677331,147.59067 172.288668,148.26533 172.01,149.028 C171.731332,149.79067 171.548,150.567996 171.46,151.36 L182.812,151.36 Z M51.384,191.12 C50.2399943,195.402688 48.8980077,199.509314 47.358,203.44 C45.8179923,207.370686 44.3293405,210.890651 42.892,214 L39.196,214 C37.7586595,210.890651 36.2700077,207.370686 34.73,203.44 C33.1899923,199.509314 31.8480057,195.402688 30.704,191.12 L35.104,191.12 C35.4560018,192.557341 35.8739976,194.089992 36.358,195.718 C36.8420024,197.346008 37.3553306,198.959325 37.898,200.558 C38.4406694,202.156675 38.9906639,203.703993 39.548,205.2 C40.1053361,206.696007 40.6333308,208.030661 41.132,209.204 C41.6306692,208.030661 42.1586639,206.696007 42.716,205.2 C43.2733361,203.703993 43.8233306,202.156675 44.366,200.558 C44.9086694,198.959325 45.4219976,197.346008 45.906,195.718 C46.3900024,194.089992 46.8079982,192.557341 47.16,191.12 L51.384,191.12 Z M53.716,202.604 C53.716,200.57999 54.0093304,198.812674 54.596,197.302 C55.1826696,195.791326 55.9599952,194.537338 56.928,193.54 C57.8960048,192.542662 59.0106604,191.794669 60.272,191.296 C61.5333396,190.797331 62.8239934,190.548 64.144,190.548 C67.2240154,190.548 69.5853251,191.508657 71.228,193.43 C72.8706749,195.351343 73.692,198.277314 73.692,202.208 L73.692,202.89 C73.692,203.168668 73.6773335,203.425332 73.648,203.66 L57.984,203.66 C58.1600009,206.036012 58.8493273,207.839994 60.052,209.072 C61.2546727,210.304006 63.1319872,210.92 65.684,210.92 C67.1213405,210.92 68.3313284,210.795335 69.314,210.546 C70.2966716,210.296665 71.0373308,210.054668 71.536,209.82 L72.108,213.252 C71.6093308,213.516001 70.7366729,213.794665 69.49,214.088 C68.2433271,214.381335 66.8280079,214.528 65.244,214.528 C63.2493234,214.528 61.5260073,214.227336 60.074,213.626 C58.6219927,213.024664 57.4266714,212.196005 56.488,211.14 C55.5493286,210.083995 54.8526689,208.830007 54.398,207.378 C53.9433311,205.925993 53.716,204.334675 53.716,202.604 Z M69.424,200.36 C69.4533335,198.511991 68.9913381,196.994006 68.038,195.806 C67.0846619,194.617994 65.7720084,194.024 64.1,194.024 C63.1613286,194.024 62.3326703,194.207332 61.614,194.574 C60.8953297,194.940669 60.2866692,195.41733 59.788,196.004 C59.2893308,196.59067 58.9006681,197.26533 58.622,198.028 C58.3433319,198.79067 58.1600004,199.567996 58.072,200.36 L69.424,200.36 Z M88.036,190.636 C88.3880018,190.636 88.7913311,190.658 89.246,190.702 C89.7006689,190.746 90.1479978,190.804666 90.588,190.878 C91.0280022,190.951334 91.4313315,191.024666 91.798,191.098 C92.1646685,191.171334 92.4359991,191.237333 92.612,191.296 L91.908,194.86 C91.5853317,194.742666 91.0500037,194.603334 90.302,194.442 C89.5539963,194.280666 88.5933392,194.2 87.42,194.2 C86.6573295,194.2 85.9020037,194.280666 85.154,194.442 C84.4059963,194.603334 83.9146678,194.713333 83.68,194.772 L83.68,214 L79.588,214 L79.588,192.088 C80.5560048,191.735998 81.7586595,191.406002 83.196,191.098 C84.6333405,190.789998 86.2466577,190.636 88.036,190.636 Z M100.664,192.132 C101.162669,191.809332 101.917995,191.472002 102.93,191.12 C103.942005,190.767998 105.107993,190.592 106.428,190.592 C108.070675,190.592 109.529994,190.88533 110.806,191.472 C112.082006,192.05867 113.159996,192.879995 114.04,193.936 C114.920004,194.992005 115.587331,196.253326 116.042,197.72 C116.496669,199.186674 116.724,200.799991 116.724,202.56 C116.724,204.408009 116.452669,206.072659 115.91,207.554 C115.367331,209.035341 114.597338,210.289328 113.6,211.316 C112.602662,212.342672 111.400007,213.134664 109.992,213.692 C108.583993,214.249336 107.000009,214.528 105.24,214.528 C103.333324,214.528 101.646674,214.396001 100.18,214.132 C98.713326,213.867999 97.5106714,213.604001 96.572,213.34 L96.572,180.56 L100.664,179.856 L100.664,192.132 Z M100.664,210.436 C101.074669,210.553334 101.653996,210.663333 102.402,210.766 C103.150004,210.868667 104.081328,210.92 105.196,210.92 C107.396011,210.92 109.155993,210.194007 110.476,208.742 C111.796007,207.289993 112.456,205.229347 112.456,202.56 C112.456,201.386661 112.338668,200.286672 112.104,199.26 C111.869332,198.233328 111.488003,197.346004 110.96,196.598 C110.431997,195.849996 109.750004,195.263335 108.914,194.838 C108.077996,194.412665 107.073339,194.2 105.9,194.2 C104.785328,194.2 103.758671,194.390665 102.82,194.772 C101.881329,195.153335 101.162669,195.549331 100.664,195.96 L100.664,210.436 Z M126.58,214 L122.488,214 L122.488,191.12 L126.58,191.12 L126.58,214 Z M124.512,186.984 C123.778663,186.984 123.155336,186.742002 122.642,186.258 C122.128664,185.773998 121.872,185.121337 121.872,184.3 C121.872,183.478663 122.128664,182.826002 122.642,182.342 C123.155336,181.857998 123.778663,181.616 124.512,181.616 C125.245337,181.616 125.868664,181.857998 126.382,182.342 C126.895336,182.826002 127.152,183.478663 127.152,184.3 C127.152,185.121337 126.895336,185.773998 126.382,186.258 C125.868664,186.742002 125.245337,186.984 124.512,186.984 Z M133.62,191.78 C134.558671,191.545332 135.805326,191.296001 137.36,191.032 C138.914674,190.767999 140.70399,190.636 142.728,190.636 C144.546676,190.636 146.057327,190.892664 147.26,191.406 C148.462673,191.919336 149.42333,192.637995 150.142,193.562 C150.86067,194.486005 151.366665,195.593327 151.66,196.884 C151.953335,198.174673 152.1,199.597326 152.1,201.152 L152.1,214 L148.008,214 L148.008,202.032 C148.008,200.623993 147.912668,199.421338 147.722,198.424 C147.531332,197.426662 147.216002,196.620003 146.776,196.004 C146.335998,195.387997 145.749337,194.940668 145.016,194.662 C144.282663,194.383332 143.373339,194.244 142.288,194.244 C141.847998,194.244 141.393336,194.258667 140.924,194.288 C140.454664,194.317333 140.007335,194.354 139.582,194.398 C139.156665,194.442 138.775335,194.493333 138.438,194.552 C138.100665,194.610667 137.858667,194.654667 137.712,194.684 L137.712,214 L133.62,214 L133.62,191.78 Z M173.66,195.96 C173.161331,195.549331 172.442671,195.153335 171.504,194.772 C170.565329,194.390665 169.538672,194.2 168.424,194.2 C167.250661,194.2 166.246004,194.412665 165.41,194.838 C164.573996,195.263335 163.892003,195.849996 163.364,196.598 C162.835997,197.346004 162.454668,198.233328 162.22,199.26 C161.985332,200.286672 161.868,201.386661 161.868,202.56 C161.868,205.229347 162.527993,207.289993 163.848,208.742 C165.168007,210.194007 166.927989,210.92 169.128,210.92 C170.242672,210.92 171.173996,210.868667 171.922,210.766 C172.670004,210.663333 173.249331,210.553334 173.66,210.436 L173.66,195.96 Z M173.66,180.56 L177.752,179.856 L177.752,213.34 C176.813329,213.604001 175.610674,213.867999 174.144,214.132 C172.677326,214.396001 170.990676,214.528 169.084,214.528 C167.323991,214.528 165.740007,214.249336 164.332,213.692 C162.923993,213.134664 161.721338,212.342672 160.724,211.316 C159.726662,210.289328 158.956669,209.035341 158.414,207.554 C157.871331,206.072659 157.6,204.408009 157.6,202.56 C157.6,200.799991 157.827331,199.186674 158.282,197.72 C158.736669,196.253326 159.403996,194.992005 160.284,193.936 C161.164004,192.879995 162.241994,192.05867 163.518,191.472 C164.794006,190.88533 166.253325,190.592 167.896,190.592 C169.216007,190.592 170.381995,190.767998 171.394,191.12 C172.406005,191.472002 173.161331,191.809332 173.66,192.132 L173.66,180.56 Z M183.516,202.604 C183.516,200.57999 183.80933,198.812674 184.396,197.302 C184.98267,195.791326 185.759995,194.537338 186.728,193.54 C187.696005,192.542662 188.81066,191.794669 190.072,191.296 C191.33334,190.797331 192.623993,190.548 193.944,190.548 C197.024015,190.548 199.385325,191.508657 201.028,193.43 C202.670675,195.351343 203.492,198.277314 203.492,202.208 L203.492,202.89 C203.492,203.168668 203.477333,203.425332 203.448,203.66 L187.784,203.66 C187.960001,206.036012 188.649327,207.839994 189.852,209.072 C191.054673,210.304006 192.931987,210.92 195.484,210.92 C196.921341,210.92 198.131328,210.795335 199.114,210.546 C200.096672,210.296665 200.837331,210.054668 201.336,209.82 L201.908,213.252 C201.409331,213.516001 200.536673,213.794665 199.29,214.088 C198.043327,214.381335 196.628008,214.528 195.044,214.528 C193.049323,214.528 191.326007,214.227336 189.874,213.626 C188.421993,213.024664 187.226671,212.196005 186.288,211.14 C185.349329,210.083995 184.652669,208.830007 184.198,207.378 C183.743331,205.925993 183.516,204.334675 183.516,202.604 Z M199.224,200.36 C199.253333,198.511991 198.791338,196.994006 197.838,195.806 C196.884662,194.617994 195.572008,194.024 193.9,194.024 C192.961329,194.024 192.13267,194.207332 191.414,194.574 C190.69533,194.940669 190.086669,195.41733 189.588,196.004 C189.089331,196.59067 188.700668,197.26533 188.422,198.028 C188.143332,198.79067 187.96,199.567996 187.872,200.36 L199.224,200.36 Z M213.216,191.12 L221.884,191.12 L221.884,194.552 L213.216,194.552 L213.216,205.112 C213.216,206.256006 213.303999,207.201996 213.48,207.95 C213.656001,208.698004 213.919998,209.284665 214.272,209.71 C214.624002,210.135335 215.063997,210.435999 215.592,210.612 C216.120003,210.788001 216.735996,210.876 217.44,210.876 C218.672006,210.876 219.661996,210.736668 220.41,210.458 C221.158004,210.179332 221.678665,209.981334 221.972,209.864 L222.764,213.252 C222.353331,213.457334 221.634672,213.713998 220.608,214.022 C219.581328,214.330002 218.408007,214.484 217.088,214.484 C215.533326,214.484 214.250005,214.286002 213.238,213.89 C212.225995,213.493998 211.412003,212.900004 210.796,212.108 C210.179997,211.315996 209.747335,210.340672 209.498,209.182 C209.248665,208.023328 209.124,206.681341 209.124,205.156 L209.124,184.74 L213.216,184.036 L213.216,191.12 Z M232.4,211.624 C232.4,212.416004 232.136003,213.10533 231.608,213.692 C231.079997,214.27867 230.361338,214.572 229.452,214.572 C228.542662,214.572 227.824003,214.27867 227.296,213.692 C226.767997,213.10533 226.504,212.416004 226.504,211.624 C226.504,210.831996 226.767997,210.14267 227.296,209.556 C227.824003,208.96933 228.542662,208.676 229.452,208.676 C230.361338,208.676 231.079997,208.96933 231.608,209.556 C232.136003,210.14267 232.4,210.831996 232.4,211.624 Z" id="Sprache-verbindet." fill="#FFFFFF"></path>
        <path d="M36.88,271.3 C35.9733288,271.3 35.18667,271.160001 34.52,270.88 C33.85333,270.599999 33.3066688,270.216669 32.88,269.73 C32.4533312,269.243331 32.1366677,268.66667 31.93,268 C31.7233323,267.33333 31.62,266.613337 31.62,265.84 L31.62,257.14 L33.56,257.14 L33.56,265.62 C33.56,267.006674 33.8666636,268.01333 34.48,268.64 C35.0933364,269.26667 35.8933284,269.58 36.88,269.58 C37.3733358,269.58 37.8233313,269.503334 38.23,269.35 C38.6366687,269.196666 38.9866652,268.960002 39.28,268.64 C39.5733348,268.319998 39.7999992,267.910003 39.96,267.41 C40.1200008,266.909998 40.2,266.313337 40.2,265.62 L40.2,257.14 L42.14,257.14 L42.14,265.84 C42.14,266.613337 42.0366677,267.33333 41.83,268 C41.6233323,268.66667 41.3033355,269.243331 40.87,269.73 C40.4366645,270.216669 39.8900033,270.599999 39.23,270.88 C38.5699967,271.160001 37.7866712,271.3 36.88,271.3 Z M45.36,260.9 C45.7866688,260.793333 46.3533298,260.680001 47.06,260.56 C47.7666702,260.439999 48.5799954,260.38 49.5,260.38 C50.3266708,260.38 51.0133306,260.496666 51.56,260.73 C52.1066694,260.963334 52.5433317,261.289998 52.87,261.71 C53.1966683,262.130002 53.426666,262.63333 53.56,263.22 C53.693334,263.80667 53.76,264.45333 53.76,265.16 L53.76,271 L51.9,271 L51.9,265.56 C51.9,264.919997 51.8566671,264.373336 51.77,263.92 C51.6833329,263.466664 51.540001,263.100001 51.34,262.82 C51.139999,262.539999 50.873335,262.336667 50.54,262.21 C50.206665,262.083333 49.7933358,262.02 49.3,262.02 C49.099999,262.02 48.8933344,262.026667 48.68,262.04 C48.4666656,262.053333 48.2633343,262.07 48.07,262.09 C47.8766657,262.11 47.7033341,262.133333 47.55,262.16 C47.3966659,262.186667 47.286667,262.206667 47.22,262.22 L47.22,271 L45.36,271 L45.36,260.9 Z M63.74,262 C63.4599986,262.306668 63.0900023,262.739997 62.63,263.3 C62.1699977,263.860003 61.6766693,264.479997 61.15,265.16 C60.6233307,265.840003 60.0966693,266.55333 59.57,267.3 C59.0433307,268.04667 58.580002,268.759997 58.18,269.44 L63.9,269.44 L63.9,271 L55.96,271 L55.96,269.76 C56.2800016,269.17333 56.673331,268.52667 57.14,267.82 C57.606669,267.11333 58.0966641,266.410004 58.61,265.71 C59.1233359,265.009996 59.6233309,264.350003 60.11,263.73 C60.5966691,263.109997 61.0199982,262.586669 61.38,262.16 L56.24,262.16 L56.24,260.6 L63.74,260.6 L63.74,262 Z M69.78,269.66 C70.2200022,269.66 70.6099983,269.65 70.95,269.63 C71.2900017,269.61 71.5733322,269.573334 71.8,269.52 L71.8,266.42 C71.666666,266.353333 71.4500015,266.296667 71.15,266.25 C70.8499985,266.203333 70.4866688,266.18 70.06,266.18 C69.7799986,266.18 69.4833349,266.2 69.17,266.24 C68.8566651,266.28 68.5700013,266.363333 68.31,266.49 C68.0499987,266.616667 67.8333342,266.789999 67.66,267.01 C67.4866658,267.230001 67.4,267.519998 67.4,267.88 C67.4,268.54667 67.6133312,269.009999 68.04,269.27 C68.4666688,269.530001 69.046663,269.66 69.78,269.66 Z M69.62,260.34 C70.3666704,260.34 70.9966641,260.436666 71.51,260.63 C72.0233359,260.823334 72.4366651,261.096665 72.75,261.45 C73.0633349,261.803335 73.286666,262.223331 73.42,262.71 C73.553334,263.196669 73.62,263.73333 73.62,264.32 L73.62,270.82 C73.4599992,270.846667 73.2366681,270.883333 72.95,270.93 C72.6633319,270.976667 72.3400018,271.02 71.98,271.06 C71.6199982,271.1 71.2300021,271.136666 70.81,271.17 C70.3899979,271.203333 69.9733354,271.22 69.56,271.22 C68.9733304,271.22 68.4333358,271.160001 67.94,271.04 C67.4466642,270.919999 67.0200018,270.730001 66.66,270.47 C66.2999982,270.209999 66.020001,269.866669 65.82,269.44 C65.619999,269.013331 65.52,268.500003 65.52,267.9 C65.52,267.326664 65.6366655,266.833335 65.87,266.42 C66.1033345,266.006665 66.419998,265.673335 66.82,265.42 C67.220002,265.166665 67.686664,264.980001 68.22,264.86 C68.753336,264.739999 69.3133304,264.68 69.9,264.68 C70.0866676,264.68 70.279999,264.69 70.48,264.71 C70.680001,264.73 70.8699991,264.756666 71.05,264.79 C71.2300009,264.823333 71.386666,264.853333 71.52,264.88 C71.653334,264.906667 71.7466664,264.926667 71.8,264.94 L71.8,264.42 C71.8,264.113332 71.766667,263.810001 71.7,263.51 C71.633333,263.209998 71.5133342,262.943334 71.34,262.71 C71.1666658,262.476665 70.9300015,262.290001 70.63,262.15 C70.3299985,262.009999 69.9400024,261.94 69.46,261.94 C68.8466636,261.94 68.3100023,261.983333 67.85,262.07 C67.3899977,262.156667 67.0466678,262.246666 66.82,262.34 L66.6,260.8 C66.8400012,260.693333 67.2399972,260.59 67.8,260.49 C68.3600028,260.389999 68.9666634,260.34 69.62,260.34 Z M68.02,258.68 C67.7133318,258.68 67.4433345,258.570001 67.21,258.35 C66.9766655,258.129999 66.86,257.846668 66.86,257.5 C66.86,257.153332 66.9766655,256.870001 67.21,256.65 C67.4433345,256.429999 67.7133318,256.32 68.02,256.32 C68.3266682,256.32 68.5966655,256.429999 68.83,256.65 C69.0633345,256.870001 69.18,257.153332 69.18,257.5 C69.18,257.846668 69.0633345,258.129999 68.83,258.35 C68.5966655,258.570001 68.3266682,258.68 68.02,258.68 Z M71.82,258.68 C71.5133318,258.68 71.2433345,258.570001 71.01,258.35 C70.7766655,258.129999 70.66,257.846668 70.66,257.5 C70.66,257.153332 70.7766655,256.870001 71.01,256.65 C71.2433345,256.429999 71.5133318,256.32 71.82,256.32 C72.1266682,256.32 72.3966655,256.429999 72.63,256.65 C72.8633345,256.870001 72.98,257.153332 72.98,257.5 C72.98,257.846668 72.8633345,258.129999 72.63,258.35 C72.3966655,258.570001 72.1266682,258.68 71.82,258.68 Z M76.7,271 L76.7,255.8 L78.56,255.48 L78.56,260.8 C78.9066684,260.666666 79.2766647,260.563334 79.67,260.49 C80.0633353,260.416666 80.4533314,260.38 80.84,260.38 C81.6666708,260.38 82.3533306,260.496666 82.9,260.73 C83.4466694,260.963334 83.8833317,261.289998 84.21,261.71 C84.5366683,262.130002 84.766666,262.63333 84.9,263.22 C85.033334,263.80667 85.1,264.45333 85.1,265.16 L85.1,271 L83.24,271 L83.24,265.56 C83.24,264.919997 83.1966671,264.373336 83.11,263.92 C83.0233329,263.466664 82.880001,263.100001 82.68,262.82 C82.479999,262.539999 82.213335,262.336667 81.88,262.21 C81.546665,262.083333 81.1333358,262.02 80.64,262.02 C80.439999,262.02 80.2333344,262.033333 80.02,262.06 C79.8066656,262.086667 79.6033343,262.116667 79.41,262.15 C79.2166657,262.183334 79.0433341,262.22 78.89,262.26 C78.7366659,262.3 78.626667,262.333333 78.56,262.36 L78.56,271 L76.7,271 Z M91.24,271.2 C90.0933276,271.173333 89.2800024,270.926669 88.8,270.46 C88.3199976,269.993331 88.08,269.266672 88.08,268.28 L88.08,255.8 L89.94,255.48 L89.94,267.98 C89.94,268.286668 89.9666664,268.539999 90.02,268.74 C90.0733336,268.940001 90.1599994,269.099999 90.28,269.22 C90.4000006,269.340001 90.559999,269.43 90.76,269.49 C90.960001,269.55 91.2066652,269.6 91.5,269.64 L91.24,271.2 Z M95.44,271 L93.58,271 L93.58,260.6 L95.44,260.6 L95.44,271 Z M94.5,258.72 C94.166665,258.72 93.8833345,258.610001 93.65,258.39 C93.4166655,258.169999 93.3,257.873335 93.3,257.5 C93.3,257.126665 93.4166655,256.830001 93.65,256.61 C93.8833345,256.389999 94.166665,256.28 94.5,256.28 C94.833335,256.28 95.1166655,256.389999 95.35,256.61 C95.5833345,256.830001 95.7,257.126665 95.7,257.5 C95.7,257.873335 95.5833345,258.169999 95.35,258.39 C95.1166655,258.610001 94.833335,258.72 94.5,258.72 Z M105.16,269.96 C104.999999,270.066667 104.690002,270.203332 104.23,270.37 C103.769998,270.536668 103.233336,270.62 102.62,270.62 C101.99333,270.62 101.403336,270.520001 100.85,270.32 C100.296664,270.119999 99.8133354,269.810002 99.4,269.39 C98.9866646,268.969998 98.6600012,268.44667 98.42,267.82 C98.1799988,267.19333 98.06,266.446671 98.06,265.58 C98.06,264.819996 98.1733322,264.123336 98.4,263.49 C98.6266678,262.856663 98.9566645,262.310002 99.39,261.85 C99.8233355,261.389998 100.35333,261.030001 100.98,260.77 C101.60667,260.509999 102.313329,260.38 103.1,260.38 C103.966671,260.38 104.72333,260.443333 105.37,260.57 C106.01667,260.696667 106.559998,260.813333 107,260.92 L107,270.2 C107,271.800008 106.586671,272.959996 105.76,273.68 C104.933329,274.400004 103.680008,274.76 102,274.76 C101.346663,274.76 100.730003,274.706667 100.15,274.6 C99.5699971,274.493333 99.0666688,274.366667 98.64,274.22 L98.98,272.6 C99.3533352,272.746667 99.8099973,272.876666 100.35,272.99 C100.890003,273.103334 101.45333,273.16 102.04,273.16 C103.146672,273.16 103.943331,272.940002 104.43,272.5 C104.916669,272.059998 105.16,271.360005 105.16,270.4 L105.16,269.96 Z M105.14,262.24 C104.953332,262.186666 104.703335,262.136667 104.39,262.09 C104.076665,262.043333 103.653336,262.02 103.12,262.02 C102.119995,262.02 101.350003,262.346663 100.81,263 C100.269997,263.653337 100,264.519995 100,265.6 C100,266.200003 100.076666,266.713331 100.23,267.14 C100.383334,267.566669 100.589999,267.919999 100.85,268.2 C101.110001,268.480001 101.409998,268.686666 101.75,268.82 C102.090002,268.953334 102.439998,269.02 102.8,269.02 C103.293336,269.02 103.746665,268.950001 104.16,268.81 C104.573335,268.669999 104.899999,268.506668 105.14,268.32 L105.14,262.24 Z M109.62,265.82 C109.62,264.899995 109.753332,264.09667 110.02,263.41 C110.286668,262.72333 110.639998,262.153336 111.08,261.7 C111.520002,261.246664 112.026664,260.906668 112.6,260.68 C113.173336,260.453332 113.759997,260.34 114.36,260.34 C115.760007,260.34 116.83333,260.776662 117.58,261.65 C118.32667,262.523338 118.7,263.853324 118.7,265.64 L118.7,265.95 C118.7,266.076667 118.693333,266.193333 118.68,266.3 L111.56,266.3 C111.64,267.380005 111.953331,268.199997 112.5,268.76 C113.046669,269.320003 113.899994,269.6 115.06,269.6 C115.713337,269.6 116.263331,269.543334 116.71,269.43 C117.156669,269.316666 117.493332,269.206667 117.72,269.1 L117.98,270.66 C117.753332,270.780001 117.35667,270.906666 116.79,271.04 C116.223331,271.173334 115.580004,271.24 114.86,271.24 C113.953329,271.24 113.170003,271.103335 112.51,270.83 C111.849997,270.556665 111.306669,270.180002 110.88,269.7 C110.453331,269.219998 110.136668,268.650003 109.93,267.99 C109.723332,267.329997 109.62,266.606671 109.62,265.82 Z M116.76,264.8 C116.773333,263.959996 116.563336,263.270003 116.13,262.73 C115.696665,262.189997 115.100004,261.92 114.34,261.92 C113.913331,261.92 113.536668,262.003332 113.21,262.17 C112.883332,262.336667 112.606668,262.553332 112.38,262.82 C112.153332,263.086668 111.976667,263.393332 111.85,263.74 C111.723333,264.086668 111.64,264.439998 111.6,264.8 L116.76,264.8 Z M131.28,271.3 C130.373329,271.3 129.58667,271.160001 128.92,270.88 C128.25333,270.599999 127.706669,270.216669 127.28,269.73 C126.853331,269.243331 126.536668,268.66667 126.33,268 C126.123332,267.33333 126.02,266.613337 126.02,265.84 L126.02,257.14 L127.96,257.14 L127.96,265.62 C127.96,267.006674 128.266664,268.01333 128.88,268.64 C129.493336,269.26667 130.293328,269.58 131.28,269.58 C131.773336,269.58 132.223331,269.503334 132.63,269.35 C133.036669,269.196666 133.386665,268.960002 133.68,268.64 C133.973335,268.319998 134.199999,267.910003 134.36,267.41 C134.520001,266.909998 134.6,266.313337 134.6,265.62 L134.6,257.14 L136.54,257.14 L136.54,265.84 C136.54,266.613337 136.436668,267.33333 136.23,268 C136.023332,268.66667 135.703336,269.243331 135.27,269.73 C134.836664,270.216669 134.290003,270.599999 133.63,270.88 C132.969997,271.160001 132.186671,271.3 131.28,271.3 Z M142.18,269.66 C142.940004,269.66 143.503332,269.560001 143.87,269.36 C144.236669,269.159999 144.42,268.840002 144.42,268.4 C144.42,267.946664 144.240002,267.586668 143.88,267.32 C143.519998,267.053332 142.926671,266.753335 142.1,266.42 C141.699998,266.259999 141.316669,266.096668 140.95,265.93 C140.583332,265.763333 140.266668,265.566668 140,265.34 C139.733332,265.113332 139.520001,264.840002 139.36,264.52 C139.199999,264.199998 139.12,263.806669 139.12,263.34 C139.12,262.419995 139.459997,261.690003 140.14,261.15 C140.820003,260.609997 141.746661,260.34 142.92,260.34 C143.213335,260.34 143.506665,260.356667 143.8,260.39 C144.093335,260.423334 144.366665,260.463333 144.62,260.51 C144.873335,260.556667 145.096666,260.606666 145.29,260.66 C145.483334,260.713334 145.633333,260.76 145.74,260.8 L145.4,262.4 C145.199999,262.293333 144.886669,262.183334 144.46,262.07 C144.033331,261.956666 143.520003,261.9 142.92,261.9 C142.399997,261.9 141.946669,262.003332 141.56,262.21 C141.173331,262.416668 140.98,262.739998 140.98,263.18 C140.98,263.406668 141.023333,263.606666 141.11,263.78 C141.196667,263.953334 141.329999,264.109999 141.51,264.25 C141.690001,264.390001 141.913332,264.519999 142.18,264.64 C142.446668,264.760001 142.766665,264.886666 143.14,265.02 C143.633336,265.206668 144.073331,265.389999 144.46,265.57 C144.846669,265.750001 145.176665,265.959999 145.45,266.2 C145.723335,266.440001 145.933333,266.729998 146.08,267.07 C146.226667,267.410002 146.3,267.826664 146.3,268.32 C146.3,269.280005 145.943337,270.006664 145.23,270.5 C144.516663,270.993336 143.500007,271.24 142.18,271.24 C141.259995,271.24 140.540003,271.163334 140.02,271.01 C139.499997,270.856666 139.146668,270.74 138.96,270.66 L139.3,269.06 C139.513334,269.14 139.853331,269.259999 140.32,269.42 C140.786669,269.580001 141.406663,269.66 142.18,269.66 Z M148.1,265.82 C148.1,264.899995 148.233332,264.09667 148.5,263.41 C148.766668,262.72333 149.119998,262.153336 149.56,261.7 C150.000002,261.246664 150.506664,260.906668 151.08,260.68 C151.653336,260.453332 152.239997,260.34 152.84,260.34 C154.240007,260.34 155.31333,260.776662 156.06,261.65 C156.80667,262.523338 157.18,263.853324 157.18,265.64 L157.18,265.95 C157.18,266.076667 157.173333,266.193333 157.16,266.3 L150.04,266.3 C150.12,267.380005 150.433331,268.199997 150.98,268.76 C151.526669,269.320003 152.379994,269.6 153.54,269.6 C154.193337,269.6 154.743331,269.543334 155.19,269.43 C155.636669,269.316666 155.973332,269.206667 156.2,269.1 L156.46,270.66 C156.233332,270.780001 155.83667,270.906666 155.27,271.04 C154.70333,271.173334 154.060004,271.24 153.34,271.24 C152.433329,271.24 151.650003,271.103335 150.99,270.83 C150.329997,270.556665 149.786669,270.180002 149.36,269.7 C148.933331,269.219998 148.616668,268.650003 148.41,267.99 C148.203332,267.329997 148.1,266.606671 148.1,265.82 Z M155.24,264.8 C155.253333,263.959996 155.043336,263.270003 154.61,262.73 C154.176665,262.189997 153.580004,261.92 152.82,261.92 C152.393331,261.92 152.016668,262.003332 151.69,262.17 C151.363332,262.336667 151.086668,262.553332 150.86,262.82 C150.633332,263.086668 150.456667,263.393332 150.33,263.74 C150.203333,264.086668 150.12,264.439998 150.08,264.8 L155.24,264.8 Z M163.7,260.38 C163.860001,260.38 164.043332,260.39 164.25,260.41 C164.456668,260.43 164.659999,260.456666 164.86,260.49 C165.060001,260.523333 165.243333,260.556667 165.41,260.59 C165.576667,260.623334 165.7,260.653333 165.78,260.68 L165.46,262.3 C165.313333,262.246666 165.070002,262.183334 164.73,262.11 C164.389998,262.036666 163.953336,262 163.42,262 C163.073332,262 162.730002,262.036666 162.39,262.11 C162.049998,262.183334 161.826667,262.233333 161.72,262.26 L161.72,271 L159.86,271 L159.86,261.04 C160.300002,260.879999 160.846663,260.730001 161.5,260.59 C162.153337,260.449999 162.886663,260.38 163.7,260.38 Z M168.44,268.72 C168.453333,268.826667 168.46,268.93 168.46,269.03 L168.46,269.34 C168.46,270.180004 168.336668,271.009996 168.09,271.83 C167.843332,272.650004 167.506669,273.43333 167.08,274.18 L165.64,273.72 C165.973335,273.039997 166.193333,272.350004 166.3,271.65 C166.406667,270.949996 166.46,270.293336 166.46,269.68 C166.46,269.506666 166.456667,269.340001 166.45,269.18 C166.443333,269.019999 166.433333,268.866667 166.42,268.72 L168.44,268.72 Z M29.9,297.74 C29.7399992,297.74 29.5333346,297.72 29.28,297.68 C29.0266654,297.64 28.8133342,297.586667 28.64,297.52 L28.88,296 C29.013334,296.04 29.1666658,296.073333 29.34,296.1 C29.5133342,296.126667 29.6733326,296.14 29.82,296.14 C30.4600032,296.14 30.9166653,295.943335 31.19,295.55 C31.4633347,295.156665 31.6,294.580004 31.6,293.82 L31.6,283.6 L33.46,283.6 L33.46,293.8 C33.46,295.13334 33.1566697,296.12333 32.55,296.77 C31.9433303,297.41667 31.0600058,297.74 29.9,297.74 Z M32.52,281.72 C32.186665,281.72 31.9033345,281.610001 31.67,281.39 C31.4366655,281.169999 31.32,280.873335 31.32,280.5 C31.32,280.126665 31.4366655,279.830001 31.67,279.61 C31.9033345,279.389999 32.186665,279.28 32.52,279.28 C32.853335,279.28 33.1366655,279.389999 33.37,279.61 C33.6033345,279.830001 33.72,280.126665 33.72,280.5 C33.72,280.873335 33.6033345,281.169999 33.37,281.39 C33.1366655,281.610001 32.853335,281.72 32.52,281.72 Z M36.08,288.82 C36.08,287.899995 36.213332,287.09667 36.48,286.41 C36.746668,285.72333 37.0999978,285.153336 37.54,284.7 C37.9800022,284.246664 38.4866638,283.906668 39.06,283.68 C39.6333362,283.453332 40.219997,283.34 40.82,283.34 C42.220007,283.34 43.2933296,283.776662 44.04,284.65 C44.7866704,285.523338 45.16,286.853324 45.16,288.64 L45.16,288.95 C45.16,289.076667 45.1533334,289.193333 45.14,289.3 L38.02,289.3 C38.1000004,290.380005 38.4133306,291.199997 38.96,291.76 C39.5066694,292.320003 40.3599942,292.6 41.52,292.6 C42.1733366,292.6 42.7233311,292.543334 43.17,292.43 C43.6166689,292.316666 43.9533322,292.206667 44.18,292.1 L44.44,293.66 C44.2133322,293.780001 43.8166695,293.906666 43.25,294.04 C42.6833305,294.173334 42.0400036,294.24 41.32,294.24 C40.4133288,294.24 39.6300033,294.103335 38.97,293.83 C38.3099967,293.556665 37.7666688,293.180002 37.34,292.7 C36.9133312,292.219998 36.5966677,291.650003 36.39,290.99 C36.1833323,290.329997 36.08,289.606671 36.08,288.82 Z M43.22,287.8 C43.2333334,286.959996 43.0233355,286.270003 42.59,285.73 C42.1566645,285.189997 41.5600038,284.92 40.8,284.92 C40.3733312,284.92 39.9966683,285.003332 39.67,285.17 C39.3433317,285.336667 39.0666678,285.553332 38.84,285.82 C38.6133322,286.086668 38.4366673,286.393332 38.31,286.74 C38.1833327,287.086668 38.1000002,287.439998 38.06,287.8 L43.22,287.8 Z M54.56,285.8 C54.3333322,285.613332 54.0066688,285.433334 53.58,285.26 C53.1533312,285.086666 52.6866692,285 52.18,285 C51.646664,285 51.1900019,285.096666 50.81,285.29 C50.4299981,285.483334 50.1200012,285.749998 49.88,286.09 C49.6399988,286.430002 49.4666672,286.833331 49.36,287.3 C49.2533328,287.766669 49.2,288.266664 49.2,288.8 C49.2,290.013339 49.499997,290.949997 50.1,291.61 C50.700003,292.270003 51.499995,292.6 52.5,292.6 C53.0066692,292.6 53.4299983,292.576667 53.77,292.53 C54.1100017,292.483333 54.3733324,292.433334 54.56,292.38 L54.56,285.8 Z M54.56,278.8 L56.42,278.48 L56.42,293.7 C55.9933312,293.820001 55.44667,293.939999 54.78,294.06 C54.11333,294.180001 53.346671,294.24 52.48,294.24 C51.679996,294.24 50.9600032,294.113335 50.32,293.86 C49.6799968,293.606665 49.1333356,293.246669 48.68,292.78 C48.2266644,292.313331 47.8766679,291.743337 47.63,291.07 C47.3833321,290.396663 47.26,289.640004 47.26,288.8 C47.26,287.999996 47.3633323,287.26667 47.57,286.6 C47.7766677,285.93333 48.079998,285.360002 48.48,284.88 C48.880002,284.399998 49.3699971,284.026668 49.95,283.76 C50.5300029,283.493332 51.1933296,283.36 51.94,283.36 C52.540003,283.36 53.0699977,283.439999 53.53,283.6 C53.9900023,283.760001 54.3333322,283.913333 54.56,284.06 L54.56,278.8 Z M59.04,288.82 C59.04,287.899995 59.173332,287.09667 59.44,286.41 C59.706668,285.72333 60.0599978,285.153336 60.5,284.7 C60.9400022,284.246664 61.4466638,283.906668 62.02,283.68 C62.5933362,283.453332 63.179997,283.34 63.78,283.34 C65.180007,283.34 66.2533296,283.776662 67,284.65 C67.7466704,285.523338 68.12,286.853324 68.12,288.64 L68.12,288.95 C68.12,289.076667 68.1133334,289.193333 68.1,289.3 L60.98,289.3 C61.0600004,290.380005 61.3733306,291.199997 61.92,291.76 C62.4666694,292.320003 63.3199942,292.6 64.48,292.6 C65.1333366,292.6 65.6833311,292.543334 66.13,292.43 C66.5766689,292.316666 66.9133322,292.206667 67.14,292.1 L67.4,293.66 C67.1733322,293.780001 66.7766695,293.906666 66.21,294.04 C65.6433305,294.173334 65.0000036,294.24 64.28,294.24 C63.3733288,294.24 62.5900033,294.103335 61.93,293.83 C61.2699967,293.556665 60.7266688,293.180002 60.3,292.7 C59.8733312,292.219998 59.5566677,291.650003 59.35,290.99 C59.1433323,290.329997 59.04,289.606671 59.04,288.82 Z M66.18,287.8 C66.1933334,286.959996 65.9833355,286.270003 65.55,285.73 C65.1166645,285.189997 64.5200038,284.92 63.76,284.92 C63.3333312,284.92 62.9566683,285.003332 62.63,285.17 C62.3033317,285.336667 62.0266678,285.553332 61.8,285.82 C61.5733322,286.086668 61.3966673,286.393332 61.27,286.74 C61.1433327,287.086668 61.0600002,287.439998 61.02,287.8 L66.18,287.8 Z M74.64,283.38 C74.8000008,283.38 74.9833323,283.39 75.19,283.41 C75.3966677,283.43 75.599999,283.456666 75.8,283.49 C76.000001,283.523334 76.1833325,283.556667 76.35,283.59 C76.5166675,283.623334 76.6399996,283.653333 76.72,283.68 L76.4,285.3 C76.2533326,285.246666 76.0100017,285.183334 75.67,285.11 C75.3299983,285.036666 74.893336,285 74.36,285 C74.0133316,285 73.6700017,285.036666 73.33,285.11 C72.9899983,285.183334 72.7666672,285.233333 72.66,285.26 L72.66,294 L70.8,294 L70.8,284.04 C71.2400022,283.879999 71.7866634,283.730001 72.44,283.59 C73.0933366,283.449999 73.8266626,283.38 74.64,283.38 Z M89.48,292.08 C89.346666,291.759998 89.1700011,291.353336 88.95,290.86 C88.7299989,290.366664 88.4933346,289.833336 88.24,289.26 C87.9866654,288.686664 87.7166681,288.09667 87.43,287.49 C87.1433319,286.88333 86.8733346,286.310003 86.62,285.77 C86.3666654,285.229997 86.1300011,284.746669 85.91,284.32 C85.6899989,283.893331 85.513334,283.566668 85.38,283.34 C85.2333326,284.913341 85.1133338,286.616657 85.02,288.45 C84.9266662,290.283343 84.846667,292.133324 84.78,294 L82.88,294 C82.9333336,292.799994 82.993333,291.590006 83.06,290.37 C83.126667,289.149994 83.2033329,287.950006 83.29,286.77 C83.3766671,285.589994 83.4699995,284.440006 83.57,283.32 C83.6700005,282.199994 83.7799994,281.140005 83.9,280.14 L85.6,280.14 C85.9600018,280.72667 86.3466646,281.419996 86.76,282.22 C87.1733354,283.020004 87.5866646,283.856662 88,284.73 C88.4133354,285.603338 88.8133314,286.476662 89.2,287.35 C89.5866686,288.223338 89.9399984,289.019996 90.26,289.74 C90.5800016,289.019996 90.9333314,288.223338 91.32,287.35 C91.7066686,286.476662 92.1066646,285.603338 92.52,284.73 C92.9333354,283.856662 93.3466646,283.020004 93.76,282.22 C94.1733354,281.419996 94.5599982,280.72667 94.92,280.14 L96.62,280.14 C97.0733356,284.606689 97.4133322,289.226643 97.64,294 L95.74,294 C95.673333,292.133324 95.5933338,290.283343 95.5,288.45 C95.4066662,286.616657 95.2866674,284.913341 95.14,283.34 C95.006666,283.566668 94.8300011,283.893331 94.61,284.32 C94.3899989,284.746669 94.1533346,285.229997 93.9,285.77 C93.6466654,286.310003 93.3766681,286.88333 93.09,287.49 C92.8033319,288.09667 92.5333346,288.686664 92.28,289.26 C92.0266654,289.833336 91.7900011,290.366664 91.57,290.86 C91.3499989,291.353336 91.173334,291.759998 91.04,292.08 L89.48,292.08 Z M99.98,288.82 C99.98,287.899995 100.113332,287.09667 100.38,286.41 C100.646668,285.72333 100.999998,285.153336 101.44,284.7 C101.880002,284.246664 102.386664,283.906668 102.96,283.68 C103.533336,283.453332 104.119997,283.34 104.72,283.34 C106.120007,283.34 107.19333,283.776662 107.94,284.65 C108.68667,285.523338 109.06,286.853324 109.06,288.64 L109.06,288.95 C109.06,289.076667 109.053333,289.193333 109.04,289.3 L101.92,289.3 C102,290.380005 102.313331,291.199997 102.86,291.76 C103.406669,292.320003 104.259994,292.6 105.42,292.6 C106.073337,292.6 106.623331,292.543334 107.07,292.43 C107.516669,292.316666 107.853332,292.206667 108.08,292.1 L108.34,293.66 C108.113332,293.780001 107.71667,293.906666 107.15,294.04 C106.583331,294.173334 105.940004,294.24 105.22,294.24 C104.313329,294.24 103.530003,294.103335 102.87,293.83 C102.209997,293.556665 101.666669,293.180002 101.24,292.7 C100.813331,292.219998 100.496668,291.650003 100.29,290.99 C100.083332,290.329997 99.98,289.606671 99.98,288.82 Z M107.12,287.8 C107.133333,286.959996 106.923336,286.270003 106.49,285.73 C106.056665,285.189997 105.460004,284.92 104.7,284.92 C104.273331,284.92 103.896668,285.003332 103.57,285.17 C103.243332,285.336667 102.966668,285.553332 102.74,285.82 C102.513332,286.086668 102.336667,286.393332 102.21,286.74 C102.083333,287.086668 102,287.439998 101.96,287.8 L107.12,287.8 Z M111.74,283.9 C112.166669,283.793333 112.73333,283.680001 113.44,283.56 C114.14667,283.439999 114.959995,283.38 115.88,283.38 C116.706671,283.38 117.393331,283.496666 117.94,283.73 C118.486669,283.963334 118.923332,284.289998 119.25,284.71 C119.576668,285.130002 119.806666,285.63333 119.94,286.22 C120.073334,286.80667 120.14,287.45333 120.14,288.16 L120.14,294 L118.28,294 L118.28,288.56 C118.28,287.919997 118.236667,287.373336 118.15,286.92 C118.063333,286.466664 117.920001,286.100001 117.72,285.82 C117.519999,285.539999 117.253335,285.336667 116.92,285.21 C116.586665,285.083333 116.173336,285.02 115.68,285.02 C115.479999,285.02 115.273334,285.026667 115.06,285.04 C114.846666,285.053333 114.643334,285.07 114.45,285.09 C114.256666,285.11 114.083334,285.133333 113.93,285.16 C113.776666,285.186667 113.666667,285.206667 113.6,285.22 L113.6,294 L111.74,294 L111.74,283.9 Z M125.64,292.66 C126.400004,292.66 126.963332,292.560001 127.33,292.36 C127.696669,292.159999 127.88,291.840002 127.88,291.4 C127.88,290.946664 127.700002,290.586668 127.34,290.32 C126.979998,290.053332 126.386671,289.753335 125.56,289.42 C125.159998,289.259999 124.776669,289.096667 124.41,288.93 C124.043332,288.763332 123.726668,288.566668 123.46,288.34 C123.193332,288.113332 122.980001,287.840002 122.82,287.52 C122.659999,287.199998 122.58,286.806669 122.58,286.34 C122.58,285.419995 122.919997,284.690003 123.6,284.15 C124.280003,283.609997 125.206661,283.34 126.38,283.34 C126.673335,283.34 126.966665,283.356667 127.26,283.39 C127.553335,283.423334 127.826665,283.463333 128.08,283.51 C128.333335,283.556667 128.556666,283.606666 128.75,283.66 C128.943334,283.713334 129.093333,283.76 129.2,283.8 L128.86,285.4 C128.659999,285.293333 128.346669,285.183334 127.92,285.07 C127.493331,284.956666 126.980003,284.9 126.38,284.9 C125.859997,284.9 125.406669,285.003332 125.02,285.21 C124.633331,285.416668 124.44,285.739998 124.44,286.18 C124.44,286.406668 124.483333,286.606666 124.57,286.78 C124.656667,286.953334 124.789999,287.109999 124.97,287.25 C125.150001,287.390001 125.373332,287.519999 125.64,287.64 C125.906668,287.760001 126.226665,287.886666 126.6,288.02 C127.093336,288.206668 127.533331,288.389999 127.92,288.57 C128.306669,288.750001 128.636665,288.959999 128.91,289.2 C129.183335,289.440001 129.393333,289.729998 129.54,290.07 C129.686667,290.410002 129.76,290.826664 129.76,291.32 C129.76,292.280005 129.403337,293.006664 128.69,293.5 C127.976663,293.993336 126.960007,294.24 125.64,294.24 C124.719995,294.24 124.000003,294.163334 123.48,294.01 C122.959997,293.856666 122.606668,293.74 122.42,293.66 L122.76,292.06 C122.973334,292.14 123.313331,292.259999 123.78,292.42 C124.246669,292.580001 124.866663,292.66 125.64,292.66 Z M136.66,294.24 C135.819996,294.24 135.083337,294.106668 134.45,293.84 C133.816664,293.573332 133.283336,293.200002 132.85,292.72 C132.416665,292.239998 132.093334,291.670003 131.88,291.01 C131.666666,290.349997 131.56,289.620004 131.56,288.82 C131.56,288.019996 131.676666,287.28667 131.91,286.62 C132.143335,285.95333 132.473331,285.376669 132.9,284.89 C133.326669,284.403331 133.849997,284.023335 134.47,283.75 C135.090003,283.476665 135.779996,283.34 136.54,283.34 C137.006669,283.34 137.473331,283.38 137.94,283.46 C138.406669,283.54 138.853331,283.666666 139.28,283.84 L138.86,285.42 C138.579999,285.286666 138.256669,285.18 137.89,285.1 C137.523332,285.02 137.133335,284.98 136.72,284.98 C135.679995,284.98 134.883336,285.306663 134.33,285.96 C133.776664,286.613337 133.5,287.56666 133.5,288.82 C133.5,289.380003 133.563333,289.893331 133.69,290.36 C133.816667,290.826669 134.016665,291.226665 134.29,291.56 C134.563335,291.893335 134.913331,292.149999 135.34,292.33 C135.766669,292.510001 136.286664,292.6 136.9,292.6 C137.393336,292.6 137.839998,292.553334 138.24,292.46 C138.640002,292.366666 138.953332,292.266667 139.18,292.16 L139.44,293.72 C139.333333,293.786667 139.180001,293.85 138.98,293.91 C138.779999,293.97 138.553335,294.023333 138.3,294.07 C138.046665,294.116667 137.776668,294.156667 137.49,294.19 C137.203332,294.223334 136.926668,294.24 136.66,294.24 Z M141.44,294 L141.44,278.8 L143.3,278.48 L143.3,283.8 C143.646668,283.666666 144.016665,283.563334 144.41,283.49 C144.803335,283.416666 145.193331,283.38 145.58,283.38 C146.406671,283.38 147.093331,283.496666 147.64,283.73 C148.186669,283.963334 148.623332,284.289998 148.95,284.71 C149.276668,285.130002 149.506666,285.63333 149.64,286.22 C149.773334,286.80667 149.84,287.45333 149.84,288.16 L149.84,294 L147.98,294 L147.98,288.56 C147.98,287.919997 147.936667,287.373336 147.85,286.92 C147.763333,286.466664 147.620001,286.100001 147.42,285.82 C147.219999,285.539999 146.953335,285.336667 146.62,285.21 C146.286665,285.083333 145.873336,285.02 145.38,285.02 C145.179999,285.02 144.973334,285.033333 144.76,285.06 C144.546666,285.086667 144.343334,285.116667 144.15,285.15 C143.956666,285.183334 143.783334,285.22 143.63,285.26 C143.476666,285.3 143.366667,285.333333 143.3,285.36 L143.3,294 L141.44,294 Z M156.9,288.82 C156.9,287.899995 157.033332,287.09667 157.3,286.41 C157.566668,285.72333 157.919998,285.153336 158.36,284.7 C158.800002,284.246664 159.306664,283.906668 159.88,283.68 C160.453336,283.453332 161.039997,283.34 161.64,283.34 C163.040007,283.34 164.11333,283.776662 164.86,284.65 C165.60667,285.523338 165.98,286.853324 165.98,288.64 L165.98,288.95 C165.98,289.076667 165.973333,289.193333 165.96,289.3 L158.84,289.3 C158.92,290.380005 159.233331,291.199997 159.78,291.76 C160.326669,292.320003 161.179994,292.6 162.34,292.6 C162.993337,292.6 163.543331,292.543334 163.99,292.43 C164.436669,292.316666 164.773332,292.206667 165,292.1 L165.26,293.66 C165.033332,293.780001 164.63667,293.906666 164.07,294.04 C163.503331,294.173334 162.860004,294.24 162.14,294.24 C161.233329,294.24 160.450003,294.103335 159.79,293.83 C159.129997,293.556665 158.586669,293.180002 158.16,292.7 C157.733331,292.219998 157.416668,291.650003 157.21,290.99 C157.003332,290.329997 156.9,289.606671 156.9,288.82 Z M164.04,287.8 C164.053333,286.959996 163.843336,286.270003 163.41,285.73 C162.976665,285.189997 162.380004,284.92 161.62,284.92 C161.193331,284.92 160.816668,285.003332 160.49,285.17 C160.163332,285.336667 159.886668,285.553332 159.66,285.82 C159.433332,286.086668 159.256667,286.393332 159.13,286.74 C159.003333,287.086668 158.92,287.439998 158.88,287.8 L164.04,287.8 Z M170.52,294 L168.66,294 L168.66,283.6 L170.52,283.6 L170.52,294 Z M169.58,281.72 C169.246665,281.72 168.963335,281.610001 168.73,281.39 C168.496666,281.169999 168.38,280.873335 168.38,280.5 C168.38,280.126665 168.496666,279.830001 168.73,279.61 C168.963335,279.389999 169.246665,279.28 169.58,279.28 C169.913335,279.28 170.196666,279.389999 170.43,279.61 C170.663335,279.830001 170.78,280.126665 170.78,280.5 C170.78,280.873335 170.663335,281.169999 170.43,281.39 C170.196666,281.610001 169.913335,281.72 169.58,281.72 Z M173.72,283.9 C174.146669,283.793333 174.71333,283.680001 175.42,283.56 C176.12667,283.439999 176.939995,283.38 177.86,283.38 C178.686671,283.38 179.373331,283.496666 179.92,283.73 C180.466669,283.963334 180.903332,284.289998 181.23,284.71 C181.556668,285.130002 181.786666,285.63333 181.92,286.22 C182.053334,286.80667 182.12,287.45333 182.12,288.16 L182.12,294 L180.26,294 L180.26,288.56 C180.26,287.919997 180.216667,287.373336 180.13,286.92 C180.043333,286.466664 179.900001,286.100001 179.7,285.82 C179.499999,285.539999 179.233335,285.336667 178.9,285.21 C178.566665,285.083333 178.153336,285.02 177.66,285.02 C177.459999,285.02 177.253334,285.026667 177.04,285.04 C176.826666,285.053333 176.623334,285.07 176.43,285.09 C176.236666,285.11 176.063334,285.133333 175.91,285.16 C175.756666,285.186667 175.646667,285.206667 175.58,285.22 L175.58,294 L173.72,294 L173.72,283.9 Z M189.94,280.14 L191.88,280.14 L191.88,294 L189.94,294 L189.94,280.14 Z M195.2,283.9 C195.626669,283.793333 196.19333,283.680001 196.9,283.56 C197.60667,283.439999 198.419995,283.38 199.34,283.38 C200.166671,283.38 200.853331,283.496666 201.4,283.73 C201.946669,283.963334 202.383332,284.289998 202.71,284.71 C203.036668,285.130002 203.266666,285.63333 203.4,286.22 C203.533334,286.80667 203.6,287.45333 203.6,288.16 L203.6,294 L201.74,294 L201.74,288.56 C201.74,287.919997 201.696667,287.373336 201.61,286.92 C201.523333,286.466664 201.380001,286.100001 201.18,285.82 C200.979999,285.539999 200.713335,285.336667 200.38,285.21 C200.046665,285.083333 199.633336,285.02 199.14,285.02 C198.939999,285.02 198.733334,285.026667 198.52,285.04 C198.306666,285.053333 198.103334,285.07 197.91,285.09 C197.716666,285.11 197.543334,285.133333 197.39,285.16 C197.236666,285.186667 197.126667,285.206667 197.06,285.22 L197.06,294 L195.2,294 L195.2,283.9 Z M213.4,285.8 C213.173332,285.613332 212.846669,285.433334 212.42,285.26 C211.993331,285.086666 211.526669,285 211.02,285 C210.486664,285 210.030002,285.096666 209.65,285.29 C209.269998,285.483334 208.960001,285.749998 208.72,286.09 C208.479999,286.430002 208.306667,286.833331 208.2,287.3 C208.093333,287.766669 208.04,288.266664 208.04,288.8 C208.04,290.013339 208.339997,290.949997 208.94,291.61 C209.540003,292.270003 210.339995,292.6 211.34,292.6 C211.846669,292.6 212.269998,292.576667 212.61,292.53 C212.950002,292.483333 213.213332,292.433334 213.4,292.38 L213.4,285.8 Z M213.4,278.8 L215.26,278.48 L215.26,293.7 C214.833331,293.820001 214.28667,293.939999 213.62,294.06 C212.95333,294.180001 212.186671,294.24 211.32,294.24 C210.519996,294.24 209.800003,294.113335 209.16,293.86 C208.519997,293.606665 207.973336,293.246669 207.52,292.78 C207.066664,292.313331 206.716668,291.743337 206.47,291.07 C206.223332,290.396663 206.1,289.640004 206.1,288.8 C206.1,287.999996 206.203332,287.26667 206.41,286.6 C206.616668,285.93333 206.919998,285.360002 207.32,284.88 C207.720002,284.399998 208.209997,284.026668 208.79,283.76 C209.370003,283.493332 210.03333,283.36 210.78,283.36 C211.380003,283.36 211.909998,283.439999 212.37,283.6 C212.830002,283.760001 213.173332,283.913333 213.4,284.06 L213.4,278.8 Z M220.32,294 L218.46,294 L218.46,283.6 L220.32,283.6 L220.32,294 Z M219.38,281.72 C219.046665,281.72 218.763334,281.610001 218.53,281.39 C218.296666,281.169999 218.18,280.873335 218.18,280.5 C218.18,280.126665 218.296666,279.830001 218.53,279.61 C218.763334,279.389999 219.046665,279.28 219.38,279.28 C219.713335,279.28 219.996666,279.389999 220.23,279.61 C220.463335,279.830001 220.58,280.126665 220.58,280.5 C220.58,280.873335 220.463335,281.169999 220.23,281.39 C219.996666,281.610001 219.713335,281.72 219.38,281.72 Z M231.64,283.6 C231.119997,285.546676 230.510003,287.413324 229.81,289.2 C229.109997,290.986676 228.433337,292.58666 227.78,294 L226.1,294 C225.446663,292.58666 224.770003,290.986676 224.07,289.2 C223.369997,287.413324 222.760003,285.546676 222.24,283.6 L224.24,283.6 C224.400001,284.253337 224.589999,284.949996 224.81,285.69 C225.030001,286.430004 225.263332,287.16333 225.51,287.89 C225.756668,288.61667 226.006665,289.319997 226.26,290 C226.513335,290.680003 226.753332,291.286664 226.98,291.82 C227.206668,291.286664 227.446665,290.680003 227.7,290 C227.953335,289.319997 228.203332,288.61667 228.45,287.89 C228.696668,287.16333 228.929999,286.430004 229.15,285.69 C229.370001,284.949996 229.559999,284.253337 229.72,283.6 L231.64,283.6 Z M235.42,294 L233.56,294 L233.56,283.6 L235.42,283.6 L235.42,294 Z M234.48,281.72 C234.146665,281.72 233.863335,281.610001 233.63,281.39 C233.396665,281.169999 233.28,280.873335 233.28,280.5 C233.28,280.126665 233.396665,279.830001 233.63,279.61 C233.863335,279.389999 234.146665,279.28 234.48,279.28 C234.813335,279.28 235.096666,279.389999 235.33,279.61 C235.563334,279.830001 235.68,280.126665 235.68,280.5 C235.68,280.873335 235.563334,281.169999 235.33,281.39 C235.096666,281.610001 234.813335,281.72 234.48,281.72 Z M245.34,285.8 C245.113332,285.613332 244.786669,285.433334 244.36,285.26 C243.933331,285.086666 243.466669,285 242.96,285 C242.426664,285 241.970002,285.096666 241.59,285.29 C241.209998,285.483334 240.900001,285.749998 240.66,286.09 C240.419999,286.430002 240.246667,286.833331 240.14,287.3 C240.033333,287.766669 239.98,288.266664 239.98,288.8 C239.98,290.013339 240.279997,290.949997 240.88,291.61 C241.480003,292.270003 242.279995,292.6 243.28,292.6 C243.786669,292.6 244.209998,292.576667 244.55,292.53 C244.890002,292.483333 245.153332,292.433334 245.34,292.38 L245.34,285.8 Z M245.34,278.8 L247.2,278.48 L247.2,293.7 C246.773331,293.820001 246.22667,293.939999 245.56,294.06 C244.89333,294.180001 244.126671,294.24 243.26,294.24 C242.459996,294.24 241.740003,294.113335 241.1,293.86 C240.459997,293.606665 239.913336,293.246669 239.46,292.78 C239.006664,292.313331 238.656668,291.743337 238.41,291.07 C238.163332,290.396663 238.04,289.640004 238.04,288.8 C238.04,287.999996 238.143332,287.26667 238.35,286.6 C238.556668,285.93333 238.859998,285.360002 239.26,284.88 C239.660002,284.399998 240.149997,284.026668 240.73,283.76 C241.310003,283.493332 241.97333,283.36 242.72,283.36 C243.320003,283.36 243.849998,283.439999 244.31,283.6 C244.770002,283.760001 245.113332,283.913333 245.34,284.06 L245.34,278.8 Z M258.68,293.7 C258.253331,293.806667 257.690003,293.919999 256.99,294.04 C256.289996,294.160001 255.480005,294.22 254.56,294.22 C253.759996,294.22 253.086669,294.103335 252.54,293.87 C251.993331,293.636665 251.553335,293.306669 251.22,292.88 C250.886665,292.453331 250.646667,291.950003 250.5,291.37 C250.353333,290.789997 250.28,290.14667 250.28,289.44 L250.28,283.6 L252.14,283.6 L252.14,289.04 C252.14,290.306673 252.339998,291.213331 252.74,291.76 C253.140002,292.306669 253.813329,292.58 254.76,292.58 C254.960001,292.58 255.166666,292.573333 255.38,292.56 C255.593334,292.546667 255.793332,292.53 255.98,292.51 C256.166668,292.49 256.336666,292.47 256.49,292.45 C256.643334,292.43 256.753333,292.406667 256.82,292.38 L256.82,283.6 L258.68,283.6 L258.68,293.7 Z M270.16,293.7 C269.733331,293.806667 269.170004,293.919999 268.47,294.04 C267.769996,294.160001 266.960005,294.22 266.04,294.22 C265.239996,294.22 264.566669,294.103335 264.02,293.87 C263.473331,293.636665 263.033335,293.306669 262.7,292.88 C262.366665,292.453331 262.126667,291.950003 261.98,291.37 C261.833333,290.789997 261.76,290.14667 261.76,289.44 L261.76,283.6 L263.62,283.6 L263.62,289.04 C263.62,290.306673 263.819998,291.213331 264.22,291.76 C264.620002,292.306669 265.293329,292.58 266.24,292.58 C266.440001,292.58 266.646666,292.573333 266.86,292.56 C267.073334,292.546667 267.273332,292.53 267.46,292.51 C267.646668,292.49 267.816666,292.47 267.97,292.45 C268.123334,292.43 268.233333,292.406667 268.3,292.38 L268.3,283.6 L270.16,283.6 L270.16,293.7 Z M273.36,283.9 C273.786669,283.793333 274.349996,283.680001 275.05,283.56 C275.750003,283.439999 276.559995,283.38 277.48,283.38 C278.14667,283.38 278.706664,283.469999 279.16,283.65 C279.613336,283.830001 279.993332,284.093332 280.3,284.44 C280.393334,284.373333 280.539999,284.280001 280.74,284.16 C280.940001,284.039999 281.186665,283.923334 281.48,283.81 C281.773335,283.696666 282.099998,283.596667 282.46,283.51 C282.820002,283.423333 283.206665,283.38 283.62,283.38 C284.420004,283.38 285.073331,283.496666 285.58,283.73 C286.086669,283.963334 286.483332,284.293331 286.77,284.72 C287.056668,285.146669 287.25,285.65333 287.35,286.24 C287.45,286.82667 287.5,287.466663 287.5,288.16 L287.5,294 L285.64,294 L285.64,288.56 C285.64,287.946664 285.61,287.420002 285.55,286.98 C285.49,286.539998 285.376667,286.173335 285.21,285.88 C285.043332,285.586665 284.816668,285.370001 284.53,285.23 C284.243332,285.089999 283.873336,285.02 283.42,285.02 C282.79333,285.02 282.276669,285.103332 281.87,285.27 C281.463331,285.436667 281.186667,285.586666 281.04,285.72 C281.146667,286.066668 281.226666,286.446665 281.28,286.86 C281.333334,287.273335 281.36,287.706664 281.36,288.16 L281.36,294 L279.5,294 L279.5,288.56 C279.5,287.946664 279.466667,287.420002 279.4,286.98 C279.333333,286.539998 279.216667,286.173335 279.05,285.88 C278.883332,285.586665 278.656668,285.370001 278.37,285.23 C278.083332,285.089999 277.720002,285.02 277.28,285.02 C277.093332,285.02 276.893334,285.026667 276.68,285.04 C276.466666,285.053333 276.263334,285.07 276.07,285.09 C275.876666,285.11 275.700001,285.133333 275.54,285.16 C275.379999,285.186667 275.273334,285.206667 275.22,285.22 L275.22,294 L273.36,294 L273.36,283.9 Z M39.88,316.7 C39.4533312,316.806667 38.8900035,316.919999 38.19,317.04 C37.4899965,317.160001 36.6800046,317.22 35.76,317.22 C34.959996,317.22 34.2866694,317.103335 33.74,316.87 C33.1933306,316.636665 32.753335,316.306669 32.42,315.88 C32.086665,315.453331 31.8466674,314.950003 31.7,314.37 C31.5533326,313.789997 31.48,313.14667 31.48,312.44 L31.48,306.6 L33.34,306.6 L33.34,312.04 C33.34,313.306673 33.539998,314.213331 33.94,314.76 C34.340002,315.306669 35.0133286,315.58 35.96,315.58 C36.160001,315.58 36.3666656,315.573333 36.58,315.56 C36.7933344,315.546667 36.9933324,315.53 37.18,315.51 C37.3666676,315.49 37.5366659,315.47 37.69,315.45 C37.8433341,315.43 37.953333,315.406667 38.02,315.38 L38.02,306.6 L39.88,306.6 L39.88,316.7 Z M43.08,306.9 C43.5066688,306.793333 44.0733298,306.680001 44.78,306.56 C45.4866702,306.439999 46.2999954,306.38 47.22,306.38 C48.0466708,306.38 48.7333306,306.496666 49.28,306.73 C49.8266694,306.963334 50.2633317,307.289998 50.59,307.71 C50.9166683,308.130002 51.146666,308.63333 51.28,309.22 C51.413334,309.80667 51.48,310.45333 51.48,311.16 L51.48,317 L49.62,317 L49.62,311.56 C49.62,310.919997 49.5766671,310.373336 49.49,309.92 C49.4033329,309.466664 49.260001,309.100001 49.06,308.82 C48.859999,308.539999 48.593335,308.336667 48.26,308.21 C47.926665,308.083333 47.5133358,308.02 47.02,308.02 C46.819999,308.02 46.6133344,308.026667 46.4,308.04 C46.1866656,308.053333 45.9833343,308.07 45.79,308.09 C45.5966657,308.11 45.4233341,308.133333 45.27,308.16 C45.1166659,308.186667 45.006667,308.206667 44.94,308.22 L44.94,317 L43.08,317 L43.08,306.9 Z M61.28,308.8 C61.0533322,308.613332 60.7266688,308.433334 60.3,308.26 C59.8733312,308.086666 59.4066692,308 58.9,308 C58.366664,308 57.9100019,308.096666 57.53,308.29 C57.1499981,308.483334 56.8400012,308.749998 56.6,309.09 C56.3599988,309.430002 56.1866672,309.833331 56.08,310.3 C55.9733328,310.766669 55.92,311.266664 55.92,311.8 C55.92,313.013339 56.219997,313.949997 56.82,314.61 C57.420003,315.270003 58.219995,315.6 59.22,315.6 C59.7266692,315.6 60.1499983,315.576667 60.49,315.53 C60.8300017,315.483333 61.0933324,315.433334 61.28,315.38 L61.28,308.8 Z M61.28,301.8 L63.14,301.48 L63.14,316.7 C62.7133312,316.820001 62.16667,316.939999 61.5,317.06 C60.83333,317.180001 60.066671,317.24 59.2,317.24 C58.399996,317.24 57.6800032,317.113335 57.04,316.86 C56.3999968,316.606665 55.8533356,316.246669 55.4,315.78 C54.9466644,315.313331 54.5966679,314.743337 54.35,314.07 C54.1033321,313.396663 53.98,312.640004 53.98,311.8 C53.98,310.999996 54.0833323,310.26667 54.29,309.6 C54.4966677,308.93333 54.799998,308.360002 55.2,307.88 C55.600002,307.399998 56.0899971,307.026668 56.67,306.76 C57.2500029,306.493332 57.9133296,306.36 58.66,306.36 C59.260003,306.36 59.7899977,306.439999 60.25,306.6 C60.7100023,306.760001 61.0533322,306.913333 61.28,307.06 L61.28,301.8 Z M70.96,306.9 C71.3866688,306.793333 71.9533298,306.680001 72.66,306.56 C73.3666702,306.439999 74.1799954,306.38 75.1,306.38 C75.9266708,306.38 76.6133306,306.496666 77.16,306.73 C77.7066694,306.963334 78.1433317,307.289998 78.47,307.71 C78.7966683,308.130002 79.026666,308.63333 79.16,309.22 C79.293334,309.80667 79.36,310.45333 79.36,311.16 L79.36,317 L77.5,317 L77.5,311.56 C77.5,310.919997 77.4566671,310.373336 77.37,309.92 C77.2833329,309.466664 77.140001,309.100001 76.94,308.82 C76.739999,308.539999 76.473335,308.336667 76.14,308.21 C75.806665,308.083333 75.3933358,308.02 74.9,308.02 C74.699999,308.02 74.4933344,308.026667 74.28,308.04 C74.0666656,308.053333 73.8633343,308.07 73.67,308.09 C73.4766657,308.11 73.3033341,308.133333 73.15,308.16 C72.9966659,308.186667 72.886667,308.206667 72.82,308.22 L72.82,317 L70.96,317 L70.96,306.9 Z M90.72,316.7 C90.2933312,316.806667 89.7300035,316.919999 89.03,317.04 C88.3299965,317.160001 87.5200046,317.22 86.6,317.22 C85.799996,317.22 85.1266694,317.103335 84.58,316.87 C84.0333306,316.636665 83.593335,316.306669 83.26,315.88 C82.926665,315.453331 82.6866674,314.950003 82.54,314.37 C82.3933326,313.789997 82.32,313.14667 82.32,312.44 L82.32,306.6 L84.18,306.6 L84.18,312.04 C84.18,313.306673 84.379998,314.213331 84.78,314.76 C85.180002,315.306669 85.8533286,315.58 86.8,315.58 C87.000001,315.58 87.2066656,315.573333 87.42,315.56 C87.6333344,315.546667 87.8333324,315.53 88.02,315.51 C88.2066676,315.49 88.3766659,315.47 88.53,315.45 C88.6833341,315.43 88.793333,315.406667 88.86,315.38 L88.86,306.6 L90.72,306.6 L90.72,316.7 Z M97.76,306.38 C97.9200008,306.38 98.1033323,306.39 98.31,306.41 C98.5166677,306.43 98.719999,306.456666 98.92,306.49 C99.120001,306.523333 99.3033325,306.556667 99.47,306.59 C99.6366675,306.623334 99.7599996,306.653333 99.84,306.68 L99.52,308.3 C99.3733326,308.246666 99.1300017,308.183334 98.79,308.11 C98.4499983,308.036666 98.013336,308 97.48,308 C97.1333316,308 96.7900017,308.036666 96.45,308.11 C96.1099983,308.183334 95.8866672,308.233333 95.78,308.26 L95.78,317 L93.92,317 L93.92,307.04 C94.3600022,306.879999 94.9066634,306.730001 95.56,306.59 C96.2133366,306.449999 96.9466626,306.38 97.76,306.38 Z M105.68,311.82 C105.68,310.899995 105.813332,310.09667 106.08,309.41 C106.346668,308.72333 106.699998,308.153336 107.14,307.7 C107.580002,307.246664 108.086664,306.906668 108.66,306.68 C109.233336,306.453332 109.819997,306.34 110.42,306.34 C111.820007,306.34 112.89333,306.776662 113.64,307.65 C114.38667,308.523338 114.76,309.853324 114.76,311.64 L114.76,311.95 C114.76,312.076667 114.753333,312.193333 114.74,312.3 L107.62,312.3 C107.7,313.380005 108.013331,314.199997 108.56,314.76 C109.106669,315.320003 109.959994,315.6 111.12,315.6 C111.773337,315.6 112.323331,315.543334 112.77,315.43 C113.216669,315.316666 113.553332,315.206667 113.78,315.1 L114.04,316.66 C113.813332,316.780001 113.41667,316.906666 112.85,317.04 C112.283331,317.173334 111.640004,317.24 110.92,317.24 C110.013329,317.24 109.230003,317.103335 108.57,316.83 C107.909997,316.556665 107.366669,316.180002 106.94,315.7 C106.513331,315.219998 106.196668,314.650003 105.99,313.99 C105.783332,313.329997 105.68,312.606671 105.68,311.82 Z M112.82,310.8 C112.833333,309.959996 112.623336,309.270003 112.19,308.73 C111.756664,308.189997 111.160004,307.92 110.4,307.92 C109.973331,307.92 109.596668,308.003332 109.27,308.17 C108.943332,308.336667 108.666668,308.553332 108.44,308.82 C108.213332,309.086668 108.036667,309.393332 107.91,309.74 C107.783333,310.086668 107.7,310.439998 107.66,310.8 L112.82,310.8 Z M119.3,317 L117.44,317 L117.44,306.6 L119.3,306.6 L119.3,317 Z M118.36,304.72 C118.026665,304.72 117.743335,304.610001 117.51,304.39 C117.276666,304.169999 117.16,303.873335 117.16,303.5 C117.16,303.126665 117.276666,302.830001 117.51,302.61 C117.743335,302.389999 118.026665,302.28 118.36,302.28 C118.693335,302.28 118.976665,302.389999 119.21,302.61 C119.443335,302.830001 119.56,303.126665 119.56,303.5 C119.56,303.873335 119.443335,304.169999 119.21,304.39 C118.976665,304.610001 118.693335,304.72 118.36,304.72 Z M122.5,306.9 C122.926669,306.793333 123.49333,306.680001 124.2,306.56 C124.90667,306.439999 125.719995,306.38 126.64,306.38 C127.466671,306.38 128.153331,306.496666 128.7,306.73 C129.246669,306.963334 129.683332,307.289998 130.01,307.71 C130.336668,308.130002 130.566666,308.63333 130.7,309.22 C130.833334,309.80667 130.9,310.45333 130.9,311.16 L130.9,317 L129.04,317 L129.04,311.56 C129.04,310.919997 128.996667,310.373336 128.91,309.92 C128.823333,309.466664 128.680001,309.100001 128.48,308.82 C128.279999,308.539999 128.013335,308.336667 127.68,308.21 C127.346665,308.083333 126.933336,308.02 126.44,308.02 C126.239999,308.02 126.033334,308.026667 125.82,308.04 C125.606666,308.053333 125.403334,308.07 125.21,308.09 C125.016666,308.11 124.843334,308.133333 124.69,308.16 C124.536666,308.186667 124.426667,308.206667 124.36,308.22 L124.36,317 L122.5,317 L122.5,306.9 Z M133.4,311.82 C133.4,310.899995 133.533332,310.09667 133.8,309.41 C134.066668,308.72333 134.419998,308.153336 134.86,307.7 C135.300002,307.246664 135.806664,306.906668 136.38,306.68 C136.953336,306.453332 137.539997,306.34 138.14,306.34 C139.540007,306.34 140.61333,306.776662 141.36,307.65 C142.10667,308.523338 142.48,309.853324 142.48,311.64 L142.48,311.95 C142.48,312.076667 142.473333,312.193333 142.46,312.3 L135.34,312.3 C135.42,313.380005 135.733331,314.199997 136.28,314.76 C136.826669,315.320003 137.679994,315.6 138.84,315.6 C139.493337,315.6 140.043331,315.543334 140.49,315.43 C140.936669,315.316666 141.273332,315.206667 141.5,315.1 L141.76,316.66 C141.533332,316.780001 141.13667,316.906666 140.57,317.04 C140.003331,317.173334 139.360004,317.24 138.64,317.24 C137.733329,317.24 136.950003,317.103335 136.29,316.83 C135.629997,316.556665 135.086669,316.180002 134.66,315.7 C134.233331,315.219998 133.916668,314.650003 133.71,313.99 C133.503332,313.329997 133.4,312.606671 133.4,311.82 Z M140.54,310.8 C140.553333,309.959996 140.343335,309.270003 139.91,308.73 C139.476664,308.189997 138.880004,307.92 138.12,307.92 C137.693331,307.92 137.316668,308.003332 136.99,308.17 C136.663332,308.336667 136.386668,308.553332 136.16,308.82 C135.933332,309.086668 135.756667,309.393332 135.63,309.74 C135.503333,310.086668 135.42,310.439998 135.38,310.8 L140.54,310.8 Z M153.12,315.62 C155.146677,315.62 156.16,314.926674 156.16,313.54 C156.16,313.113331 156.070001,312.750001 155.89,312.45 C155.709999,312.149998 155.466668,311.890001 155.16,311.67 C154.853332,311.449999 154.503335,311.260001 154.11,311.1 C153.716665,310.939999 153.300002,310.780001 152.86,310.62 C152.353331,310.446666 151.873336,310.250001 151.42,310.03 C150.966664,309.809999 150.573335,309.550002 150.24,309.25 C149.906665,308.949998 149.643334,308.593335 149.45,308.18 C149.256666,307.766665 149.16,307.26667 149.16,306.68 C149.16,305.466661 149.573329,304.520003 150.4,303.84 C151.226671,303.159997 152.366659,302.82 153.82,302.82 C154.660004,302.82 155.42333,302.909999 156.11,303.09 C156.79667,303.270001 157.299998,303.466666 157.62,303.68 L157,305.26 C156.719999,305.086666 156.303336,304.916668 155.75,304.75 C155.196664,304.583332 154.553337,304.5 153.82,304.5 C153.446665,304.5 153.100002,304.54 152.78,304.62 C152.459998,304.7 152.180001,304.819999 151.94,304.98 C151.699999,305.140001 151.510001,305.343332 151.37,305.59 C151.229999,305.836668 151.16,306.126665 151.16,306.46 C151.16,306.833335 151.233333,307.146665 151.38,307.4 C151.526667,307.653335 151.733332,307.876666 152,308.07 C152.266668,308.263334 152.576665,308.439999 152.93,308.6 C153.283335,308.760001 153.673331,308.919999 154.1,309.08 C154.700003,309.320001 155.249998,309.559999 155.75,309.8 C156.250002,310.040001 156.683332,310.326665 157.05,310.66 C157.416669,310.993335 157.699999,311.389998 157.9,311.85 C158.100001,312.310002 158.2,312.866663 158.2,313.52 C158.2,314.733339 157.756671,315.666663 156.87,316.32 C155.983329,316.973337 154.733341,317.3 153.12,317.3 C152.573331,317.3 152.070002,317.263334 151.61,317.19 C151.149998,317.116666 150.740002,317.030001 150.38,316.93 C150.019998,316.829999 149.710001,316.723334 149.45,316.61 C149.189999,316.496666 148.986667,316.4 148.84,316.32 L149.42,314.72 C149.726668,314.893334 150.19333,315.086666 150.82,315.3 C151.44667,315.513334 152.213329,315.62 153.12,315.62 Z M167.64,311.82 C167.64,310.606661 167.340003,309.673337 166.74,309.02 C166.139997,308.366663 165.340005,308.04 164.34,308.04 C163.779997,308.04 163.343335,308.06 163.03,308.1 C162.716665,308.14 162.466668,308.186666 162.28,308.24 L162.28,314.8 C162.506668,314.986668 162.833331,315.166666 163.26,315.34 C163.686669,315.513334 164.153331,315.6 164.66,315.6 C165.193336,315.6 165.649998,315.503334 166.03,315.31 C166.410002,315.116666 166.719999,314.850002 166.96,314.51 C167.200001,314.169998 167.373333,313.770002 167.48,313.31 C167.586667,312.849998 167.64,312.353336 167.64,311.82 Z M169.58,311.82 C169.58,312.606671 169.476668,313.33333 169.27,314 C169.063332,314.66667 168.760002,315.239998 168.36,315.72 C167.959998,316.200002 167.470003,316.573332 166.89,316.84 C166.309997,317.106668 165.64667,317.24 164.9,317.24 C164.299997,317.24 163.770002,317.160001 163.31,317 C162.849998,316.839999 162.506668,316.686667 162.28,316.54 L162.28,320.7 L160.42,320.7 L160.42,306.92 C160.860002,306.813333 161.409997,306.696667 162.07,306.57 C162.730003,306.443333 163.493329,306.38 164.36,306.38 C165.160004,306.38 165.879997,306.506665 166.52,306.76 C167.160003,307.013335 167.706664,307.373331 168.16,307.84 C168.613336,308.306669 168.963332,308.876663 169.21,309.55 C169.456668,310.223337 169.58,310.979996 169.58,311.82 Z M176.04,306.38 C176.200001,306.38 176.383332,306.39 176.59,306.41 C176.796668,306.43 176.999999,306.456666 177.2,306.49 C177.400001,306.523333 177.583332,306.556667 177.75,306.59 C177.916667,306.623334 178.04,306.653333 178.12,306.68 L177.8,308.3 C177.653333,308.246666 177.410002,308.183334 177.07,308.11 C176.729998,308.036666 176.293336,308 175.76,308 C175.413332,308 175.070002,308.036666 174.73,308.11 C174.389998,308.183334 174.166667,308.233333 174.06,308.26 L174.06,317 L172.2,317 L172.2,307.04 C172.640002,306.879999 173.186663,306.730001 173.84,306.59 C174.493337,306.449999 175.226663,306.38 176.04,306.38 Z M183.44,315.66 C183.880002,315.66 184.269998,315.65 184.61,315.63 C184.950002,315.61 185.233332,315.573334 185.46,315.52 L185.46,312.42 C185.326666,312.353333 185.110002,312.296667 184.81,312.25 C184.509998,312.203333 184.146669,312.18 183.72,312.18 C183.439999,312.18 183.143335,312.2 182.83,312.24 C182.516665,312.28 182.230001,312.363333 181.97,312.49 C181.709999,312.616667 181.493334,312.789999 181.32,313.01 C181.146666,313.230001 181.06,313.519998 181.06,313.88 C181.06,314.54667 181.273331,315.009999 181.7,315.27 C182.126669,315.530001 182.706663,315.66 183.44,315.66 Z M183.28,306.34 C184.02667,306.34 184.656664,306.436666 185.17,306.63 C185.683336,306.823334 186.096665,307.096665 186.41,307.45 C186.723335,307.803335 186.946666,308.223331 187.08,308.71 C187.213334,309.196669 187.28,309.73333 187.28,310.32 L187.28,316.82 C187.119999,316.846667 186.896668,316.883333 186.61,316.93 C186.323332,316.976667 186.000002,317.02 185.64,317.06 C185.279998,317.1 184.890002,317.136666 184.47,317.17 C184.049998,317.203333 183.633335,317.22 183.22,317.22 C182.63333,317.22 182.093336,317.160001 181.6,317.04 C181.106664,316.919999 180.680002,316.730001 180.32,316.47 C179.959998,316.209999 179.680001,315.866669 179.48,315.44 C179.279999,315.013331 179.18,314.500003 179.18,313.9 C179.18,313.326664 179.296666,312.833335 179.53,312.42 C179.763334,312.006665 180.079998,311.673335 180.48,311.42 C180.880002,311.166665 181.346664,310.980001 181.88,310.86 C182.413336,310.739999 182.97333,310.68 183.56,310.68 C183.746668,310.68 183.939999,310.69 184.14,310.71 C184.340001,310.73 184.529999,310.756666 184.71,310.79 C184.890001,310.823333 185.046666,310.853333 185.18,310.88 C185.313334,310.906667 185.406666,310.926667 185.46,310.94 L185.46,310.42 C185.46,310.113332 185.426667,309.810001 185.36,309.51 C185.293333,309.209998 185.173334,308.943334 185,308.71 C184.826666,308.476665 184.590001,308.290001 184.29,308.15 C183.989999,308.009999 183.600002,307.94 183.12,307.94 C182.506664,307.94 181.970002,307.983333 181.51,308.07 C181.049998,308.156667 180.706668,308.246666 180.48,308.34 L180.26,306.8 C180.500001,306.693333 180.899997,306.59 181.46,306.49 C182.020003,306.389999 182.626663,306.34 183.28,306.34 Z M194.88,317.24 C194.039996,317.24 193.303337,317.106668 192.67,316.84 C192.036663,316.573332 191.503335,316.200002 191.07,315.72 C190.636664,315.239998 190.313334,314.670003 190.1,314.01 C189.886666,313.349997 189.78,312.620004 189.78,311.82 C189.78,311.019996 189.896665,310.28667 190.13,309.62 C190.363335,308.95333 190.693331,308.376669 191.12,307.89 C191.546669,307.403331 192.069997,307.023335 192.69,306.75 C193.310003,306.476665 193.999996,306.34 194.76,306.34 C195.226669,306.34 195.693331,306.38 196.16,306.46 C196.626669,306.54 197.073331,306.666666 197.5,306.84 L197.08,308.42 C196.799999,308.286666 196.476668,308.18 196.11,308.1 C195.743332,308.02 195.353335,307.98 194.94,307.98 C193.899995,307.98 193.103336,308.306663 192.55,308.96 C191.996664,309.613337 191.72,310.56666 191.72,311.82 C191.72,312.380003 191.783333,312.893331 191.91,313.36 C192.036667,313.826669 192.236665,314.226665 192.51,314.56 C192.783335,314.893335 193.133331,315.149999 193.56,315.33 C193.986669,315.510001 194.506664,315.6 195.12,315.6 C195.613336,315.6 196.059998,315.553334 196.46,315.46 C196.860002,315.366666 197.173332,315.266667 197.4,315.16 L197.66,316.72 C197.553333,316.786667 197.400001,316.85 197.2,316.91 C196.999999,316.97 196.773335,317.023333 196.52,317.07 C196.266665,317.116667 195.996668,317.156667 195.71,317.19 C195.423332,317.223333 195.146668,317.24 194.88,317.24 Z M199.66,317 L199.66,301.8 L201.52,301.48 L201.52,306.8 C201.866668,306.666666 202.236665,306.563334 202.63,306.49 C203.023335,306.416666 203.413331,306.38 203.8,306.38 C204.626671,306.38 205.313331,306.496666 205.86,306.73 C206.406669,306.963334 206.843332,307.289998 207.17,307.71 C207.496668,308.130002 207.726666,308.63333 207.86,309.22 C207.993334,309.80667 208.06,310.45333 208.06,311.16 L208.06,317 L206.2,317 L206.2,311.56 C206.2,310.919997 206.156667,310.373336 206.07,309.92 C205.983333,309.466664 205.840001,309.100001 205.64,308.82 C205.439999,308.539999 205.173335,308.336667 204.84,308.21 C204.506665,308.083333 204.093336,308.02 203.6,308.02 C203.399999,308.02 203.193334,308.033333 202.98,308.06 C202.766666,308.086667 202.563334,308.116667 202.37,308.15 C202.176666,308.183334 202.003334,308.22 201.85,308.26 C201.696666,308.3 201.586667,308.333333 201.52,308.36 L201.52,317 L199.66,317 Z M210.5,311.82 C210.5,310.899995 210.633332,310.09667 210.9,309.41 C211.166668,308.72333 211.519998,308.153336 211.96,307.7 C212.400002,307.246664 212.906664,306.906668 213.48,306.68 C214.053336,306.453332 214.639997,306.34 215.24,306.34 C216.640007,306.34 217.71333,306.776662 218.46,307.65 C219.20667,308.523338 219.58,309.853324 219.58,311.64 L219.58,311.95 C219.58,312.076667 219.573333,312.193333 219.56,312.3 L212.44,312.3 C212.52,313.380005 212.833331,314.199997 213.38,314.76 C213.926669,315.320003 214.779994,315.6 215.94,315.6 C216.593337,315.6 217.143331,315.543334 217.59,315.43 C218.036669,315.316666 218.373332,315.206667 218.6,315.1 L218.86,316.66 C218.633332,316.780001 218.23667,316.906666 217.67,317.04 C217.10333,317.173334 216.460004,317.24 215.74,317.24 C214.833329,317.24 214.050003,317.103335 213.39,316.83 C212.729997,316.556665 212.186669,316.180002 211.76,315.7 C211.333331,315.219998 211.016668,314.650003 210.81,313.99 C210.603332,313.329997 210.5,312.606671 210.5,311.82 Z M217.64,310.8 C217.653333,309.959996 217.443335,309.270003 217.01,308.73 C216.576664,308.189997 215.980004,307.92 215.22,307.92 C214.793331,307.92 214.416668,308.003332 214.09,308.17 C213.763332,308.336667 213.486668,308.553332 213.26,308.82 C213.033332,309.086668 212.856667,309.393332 212.73,309.74 C212.603333,310.086668 212.52,310.439998 212.48,310.8 L217.64,310.8 Z M224.46,315.92 C224.46,316.280002 224.340001,316.593332 224.1,316.86 C223.859999,317.126668 223.533335,317.26 223.12,317.26 C222.706665,317.26 222.380001,317.126668 222.14,316.86 C221.899999,316.593332 221.78,316.280002 221.78,315.92 C221.78,315.559998 221.899999,315.246668 222.14,314.98 C222.380001,314.713332 222.706665,314.58 223.12,314.58 C223.533335,314.58 223.859999,314.713332 224.1,314.98 C224.340001,315.246668 224.46,315.559998 224.46,315.92 Z M31.72,326.14 L33.66,326.14 L33.66,340 L31.72,340 L31.72,326.14 Z M36.98,340 L36.98,324.8 L38.84,324.48 L38.84,329.8 C39.1866684,329.666666 39.5566647,329.563334 39.95,329.49 C40.3433353,329.416666 40.7333314,329.38 41.12,329.38 C41.9466708,329.38 42.6333306,329.496666 43.18,329.73 C43.7266694,329.963334 44.1633317,330.289998 44.49,330.71 C44.8166683,331.130002 45.046666,331.63333 45.18,332.22 C45.313334,332.80667 45.38,333.45333 45.38,334.16 L45.38,340 L43.52,340 L43.52,334.56 C43.52,333.919997 43.4766671,333.373336 43.39,332.92 C43.3033329,332.466664 43.160001,332.100001 42.96,331.82 C42.759999,331.539999 42.493335,331.336667 42.16,331.21 C41.826665,331.083333 41.4133358,331.02 40.92,331.02 C40.719999,331.02 40.5133344,331.033333 40.3,331.06 C40.0866656,331.086667 39.8833343,331.116667 39.69,331.15 C39.4966657,331.183334 39.3233341,331.22 39.17,331.26 C39.0166659,331.3 38.906667,331.333333 38.84,331.36 L38.84,340 L36.98,340 Z M52.24,329.38 C52.4000008,329.38 52.5833323,329.39 52.79,329.41 C52.9966677,329.43 53.199999,329.456666 53.4,329.49 C53.600001,329.523334 53.7833325,329.556667 53.95,329.59 C54.1166675,329.623334 54.2399996,329.653333 54.32,329.68 L54,331.3 C53.8533326,331.246666 53.6100017,331.183334 53.27,331.11 C52.9299983,331.036666 52.493336,331 51.96,331 C51.6133316,331 51.2700017,331.036666 50.93,331.11 C50.5899983,331.183334 50.3666672,331.233333 50.26,331.26 L50.26,340 L48.4,340 L48.4,330.04 C48.8400022,329.879999 49.3866634,329.730001 50.04,329.59 C50.6933366,329.449999 51.4266626,329.38 52.24,329.38 Z M55.54,334.82 C55.54,333.899995 55.673332,333.09667 55.94,332.41 C56.206668,331.72333 56.5599978,331.153336 57,330.7 C57.4400022,330.246664 57.9466638,329.906668 58.52,329.68 C59.0933362,329.453332 59.679997,329.34 60.28,329.34 C61.680007,329.34 62.7533296,329.776662 63.5,330.65 C64.2466704,331.523338 64.62,332.853324 64.62,334.64 L64.62,334.95 C64.62,335.076667 64.6133334,335.193333 64.6,335.3 L57.48,335.3 C57.5600004,336.380005 57.8733306,337.199997 58.42,337.76 C58.9666694,338.320003 59.8199942,338.6 60.98,338.6 C61.6333366,338.6 62.1833311,338.543334 62.63,338.43 C63.0766689,338.316666 63.4133322,338.206667 63.64,338.1 L63.9,339.66 C63.6733322,339.780001 63.2766695,339.906666 62.71,340.04 C62.1433305,340.173334 61.5000036,340.24 60.78,340.24 C59.8733288,340.24 59.0900033,340.103335 58.43,339.83 C57.7699967,339.556665 57.2266688,339.180002 56.8,338.7 C56.3733312,338.219998 56.0566677,337.650003 55.85,336.99 C55.6433323,336.329997 55.54,335.606671 55.54,334.82 Z M62.68,333.8 C62.6933334,332.959996 62.4833355,332.270003 62.05,331.73 C61.6166645,331.189997 61.0200038,330.92 60.26,330.92 C59.8333312,330.92 59.4566683,331.003332 59.13,331.17 C58.8033317,331.336667 58.5266678,331.553332 58.3,331.82 C58.0733322,332.086668 57.8966673,332.393332 57.77,332.74 C57.6433327,333.086668 57.5600002,333.439998 57.52,333.8 L62.68,333.8 Z M71.34,334.82 C71.34,333.899995 71.473332,333.09667 71.74,332.41 C72.006668,331.72333 72.3599978,331.153336 72.8,330.7 C73.2400022,330.246664 73.7466638,329.906668 74.32,329.68 C74.8933362,329.453332 75.479997,329.34 76.08,329.34 C77.480007,329.34 78.5533296,329.776662 79.3,330.65 C80.0466704,331.523338 80.42,332.853324 80.42,334.64 L80.42,334.95 C80.42,335.076667 80.4133334,335.193333 80.4,335.3 L73.28,335.3 C73.3600004,336.380005 73.6733306,337.199997 74.22,337.76 C74.7666694,338.320003 75.6199942,338.6 76.78,338.6 C77.4333366,338.6 77.9833311,338.543334 78.43,338.43 C78.8766689,338.316666 79.2133322,338.206667 79.44,338.1 L79.7,339.66 C79.4733322,339.780001 79.0766695,339.906666 78.51,340.04 C77.9433305,340.173334 77.3000036,340.24 76.58,340.24 C75.6733288,340.24 74.8900033,340.103335 74.23,339.83 C73.5699967,339.556665 73.0266688,339.180002 72.6,338.7 C72.1733312,338.219998 71.8566677,337.650003 71.65,336.99 C71.4433323,336.329997 71.34,335.606671 71.34,334.82 Z M78.48,333.8 C78.4933334,332.959996 78.2833355,332.270003 77.85,331.73 C77.4166645,331.189997 76.8200038,330.92 76.06,330.92 C75.6333312,330.92 75.2566683,331.003332 74.93,331.17 C74.6033317,331.336667 74.3266678,331.553332 74.1,331.82 C73.8733322,332.086668 73.6966673,332.393332 73.57,332.74 C73.4433327,333.086668 73.3600002,333.439998 73.32,333.8 L78.48,333.8 Z M84.96,340 L83.1,340 L83.1,329.6 L84.96,329.6 L84.96,340 Z M84.02,327.72 C83.686665,327.72 83.4033345,327.610001 83.17,327.39 C82.9366655,327.169999 82.82,326.873335 82.82,326.5 C82.82,326.126665 82.9366655,325.830001 83.17,325.61 C83.4033345,325.389999 83.686665,325.28 84.02,325.28 C84.353335,325.28 84.6366655,325.389999 84.87,325.61 C85.1033345,325.830001 85.22,326.126665 85.22,326.5 C85.22,326.873335 85.1033345,327.169999 84.87,327.39 C84.6366655,327.610001 84.353335,327.72 84.02,327.72 Z M94.68,338.96 C94.5199992,339.066667 94.2100023,339.203332 93.75,339.37 C93.2899977,339.536668 92.7533364,339.62 92.14,339.62 C91.5133302,339.62 90.9233361,339.520001 90.37,339.32 C89.8166639,339.119999 89.3333354,338.810002 88.92,338.39 C88.5066646,337.969998 88.1800012,337.44667 87.94,336.82 C87.6999988,336.19333 87.58,335.446671 87.58,334.58 C87.58,333.819996 87.6933322,333.123336 87.92,332.49 C88.1466678,331.856663 88.4766645,331.310002 88.91,330.85 C89.3433355,330.389998 89.8733302,330.030001 90.5,329.77 C91.1266698,329.509999 91.8333294,329.38 92.62,329.38 C93.486671,329.38 94.2433301,329.443333 94.89,329.57 C95.5366699,329.696667 96.0799978,329.813333 96.52,329.92 L96.52,339.2 C96.52,340.800008 96.1066708,341.959996 95.28,342.68 C94.4533292,343.400004 93.2000084,343.76 91.52,343.76 C90.8666634,343.76 90.2500029,343.706667 89.67,343.6 C89.0899971,343.493333 88.5866688,343.366667 88.16,343.22 L88.5,341.6 C88.8733352,341.746667 89.3299973,341.876666 89.87,341.99 C90.4100027,342.103334 90.9733304,342.16 91.56,342.16 C92.6666722,342.16 93.4633309,341.940002 93.95,341.5 C94.4366691,341.059998 94.68,340.360005 94.68,339.4 L94.68,338.96 Z M94.66,331.24 C94.4733324,331.186666 94.2233349,331.136667 93.91,331.09 C93.5966651,331.043333 93.173336,331.02 92.64,331.02 C91.639995,331.02 90.8700027,331.346663 90.33,332 C89.7899973,332.653337 89.52,333.519995 89.52,334.6 C89.52,335.200003 89.5966659,335.713331 89.75,336.14 C89.9033341,336.566669 90.1099987,336.919999 90.37,337.2 C90.6300013,337.480001 90.9299983,337.686666 91.27,337.82 C91.6100017,337.953334 91.9599982,338.02 92.32,338.02 C92.8133358,338.02 93.2666646,337.950001 93.68,337.81 C94.0933354,337.669999 94.4199988,337.506668 94.66,337.32 L94.66,331.24 Z M99.14,334.82 C99.14,333.899995 99.273332,333.09667 99.54,332.41 C99.806668,331.72333 100.159998,331.153336 100.6,330.7 C101.040002,330.246664 101.546664,329.906668 102.12,329.68 C102.693336,329.453332 103.279997,329.34 103.88,329.34 C105.280007,329.34 106.35333,329.776662 107.1,330.65 C107.84667,331.523338 108.22,332.853324 108.22,334.64 L108.22,334.95 C108.22,335.076667 108.213333,335.193333 108.2,335.3 L101.08,335.3 C101.16,336.380005 101.473331,337.199997 102.02,337.76 C102.566669,338.320003 103.419994,338.6 104.58,338.6 C105.233337,338.6 105.783331,338.543334 106.23,338.43 C106.676669,338.316666 107.013332,338.206667 107.24,338.1 L107.5,339.66 C107.273332,339.780001 106.87667,339.906666 106.31,340.04 C105.743331,340.173334 105.100004,340.24 104.38,340.24 C103.473329,340.24 102.690003,340.103335 102.03,339.83 C101.369997,339.556665 100.826669,339.180002 100.4,338.7 C99.9733312,338.219998 99.6566677,337.650003 99.45,336.99 C99.2433323,336.329997 99.14,335.606671 99.14,334.82 Z M106.28,333.8 C106.293333,332.959996 106.083336,332.270003 105.65,331.73 C105.216665,331.189997 104.620004,330.92 103.86,330.92 C103.433331,330.92 103.056668,331.003332 102.73,331.17 C102.403332,331.336667 102.126668,331.553332 101.9,331.82 C101.673332,332.086668 101.496667,332.393332 101.37,332.74 C101.243333,333.086668 101.16,333.439998 101.12,333.8 L106.28,333.8 Z M110.9,329.9 C111.326669,329.793333 111.89333,329.680001 112.6,329.56 C113.30667,329.439999 114.119995,329.38 115.04,329.38 C115.866671,329.38 116.553331,329.496666 117.1,329.73 C117.646669,329.963334 118.083332,330.289998 118.41,330.71 C118.736668,331.130002 118.966666,331.63333 119.1,332.22 C119.233334,332.80667 119.3,333.45333 119.3,334.16 L119.3,340 L117.44,340 L117.44,334.56 C117.44,333.919997 117.396667,333.373336 117.31,332.92 C117.223333,332.466664 117.080001,332.100001 116.88,331.82 C116.679999,331.539999 116.413335,331.336667 116.08,331.21 C115.746665,331.083333 115.333336,331.02 114.84,331.02 C114.639999,331.02 114.433334,331.026667 114.22,331.04 C114.006666,331.053333 113.803334,331.07 113.61,331.09 C113.416666,331.11 113.243334,331.133333 113.09,331.16 C112.936666,331.186667 112.826667,331.206667 112.76,331.22 L112.76,340 L110.9,340 L110.9,329.9 Z M121.8,334.82 C121.8,333.899995 121.933332,333.09667 122.2,332.41 C122.466668,331.72333 122.819998,331.153336 123.26,330.7 C123.700002,330.246664 124.206664,329.906668 124.78,329.68 C125.353336,329.453332 125.939997,329.34 126.54,329.34 C127.940007,329.34 129.01333,329.776662 129.76,330.65 C130.50667,331.523338 130.88,332.853324 130.88,334.64 L130.88,334.95 C130.88,335.076667 130.873333,335.193333 130.86,335.3 L123.74,335.3 C123.82,336.380005 124.133331,337.199997 124.68,337.76 C125.226669,338.320003 126.079994,338.6 127.24,338.6 C127.893337,338.6 128.443331,338.543334 128.89,338.43 C129.336669,338.316666 129.673332,338.206667 129.9,338.1 L130.16,339.66 C129.933332,339.780001 129.53667,339.906666 128.97,340.04 C128.403331,340.173334 127.760004,340.24 127.04,340.24 C126.133329,340.24 125.350003,340.103335 124.69,339.83 C124.029997,339.556665 123.486669,339.180002 123.06,338.7 C122.633331,338.219998 122.316668,337.650003 122.11,336.99 C121.903332,336.329997 121.8,335.606671 121.8,334.82 Z M128.94,333.8 C128.953333,332.959996 128.743336,332.270003 128.31,331.73 C127.876665,331.189997 127.280004,330.92 126.52,330.92 C126.093331,330.92 125.716668,331.003332 125.39,331.17 C125.063332,331.336667 124.786668,331.553332 124.56,331.82 C124.333332,332.086668 124.156667,332.393332 124.03,332.74 C123.903333,333.086668 123.82,333.439998 123.78,333.8 L128.94,333.8 Z M135.76,338.92 C135.76,339.280002 135.640001,339.593332 135.4,339.86 C135.159999,340.126668 134.833335,340.26 134.42,340.26 C134.006665,340.26 133.680001,340.126668 133.44,339.86 C133.199999,339.593332 133.08,339.280002 133.08,338.92 C133.08,338.559998 133.199999,338.246668 133.44,337.98 C133.680001,337.713332 134.006665,337.58 134.42,337.58 C134.833335,337.58 135.159999,337.713332 135.4,337.98 C135.640001,338.246668 135.76,338.559998 135.76,338.92 Z" id="Unzhlige-User,-jede" fill="#FFFFFF"></path>
    </g>
</svg>