<svg id="Ebene_1" data-name="Ebene 1" xmlns="http://www.w3.org/2000/svg" viewBox="0 0 1540 1080"><title>querformat_Text</title><path d="M179.27,277.16q-17.25,0-29.64-5a54.58,54.58,0,0,1-20.53-14,56.8,56.8,0,0,1-12-21.14,87.09,87.09,0,0,1-3.89-26.73V105.12H144v102.3A65.84,65.84,0,0,0,146.59,227a34.1,34.1,0,0,0,7.29,13.25,29.06,29.06,0,0,0,11.18,7.53,40.68,40.68,0,0,0,14.46,2.43,41.76,41.76,0,0,0,14.58-2.43,29,29,0,0,0,11.3-7.53A34.1,34.1,0,0,0,212.69,227a65.84,65.84,0,0,0,2.55-19.56V105.12H246.1V210.34a85,85,0,0,1-4,26.73,58.17,58.17,0,0,1-12.15,21.14,54.38,54.38,0,0,1-20.78,14Q196.53,277.16,179.27,277.16Z"/><path d="M398.21,210.1a79.94,79.94,0,0,1-4.49,27.58,59.67,59.67,0,0,1-12.88,21,55.35,55.35,0,0,1-20.29,13.36,74.12,74.12,0,0,1-27,4.62,170.52,170.52,0,0,1-27.83-2.19,173,173,0,0,1-22-4.86V89.81L313.16,85V150.8a70.35,70.35,0,0,1,12.52-4.86A62.81,62.81,0,0,1,366,148.5,46.94,46.94,0,0,1,383.63,162a62.31,62.31,0,0,1,10.82,21A92.13,92.13,0,0,1,398.21,210.1Zm-30.13-.49q0-18.71-7.41-29.65T337.22,169a45.11,45.11,0,0,0-24.06,7.05v73.14a81.22,81.22,0,0,0,8.15,1.34,102.33,102.33,0,0,0,12,.6q16.29,0,25.52-11T368.08,209.61Z"/><path d="M532.83,269.63q-8.51,2.19-22.11,4.5a180.19,180.19,0,0,1-29.89,2.31q-15.3,0-25.63-4.38a41,41,0,0,1-16.53-12.15,47.74,47.74,0,0,1-8.87-18.59,98.67,98.67,0,0,1-2.67-23.69v-71.2h29.4V213q0,20.42,6,29.16t20.77,8.75q5.34,0,11.3-.49a58.74,58.74,0,0,0,8.87-1.21V146.43h29.4Z"/><path d="M570.25,150.56a197.13,197.13,0,0,1,22.12-4.62,191.58,191.58,0,0,1,30.13-2.18q15.56,0,26,4.25a40.6,40.6,0,0,1,16.65,11.91,45.45,45.45,0,0,1,8.74,18.47,102.6,102.6,0,0,1,2.56,23.69v71.44H647V206.69a97.57,97.57,0,0,0-1.33-17.37,30.85,30.85,0,0,0-4.38-11.66,17.43,17.43,0,0,0-8.26-6.56A34.77,34.77,0,0,0,620.31,169a97,97,0,0,0-11.66.73c-4,.48-7,.89-9,1.21V273.52H570.25Z"/><path d="M711,112.9l29.4-4.86v38.39h45.2V171h-45.2v51.76q0,15.32,4.86,21.87t16.53,6.56a53.59,53.59,0,0,0,14.21-1.7,93.14,93.14,0,0,0,9.84-3.16l4.86,23.33a110.26,110.26,0,0,1-13.36,4.5,73.08,73.08,0,0,1-19.44,2.31q-13.62,0-22.72-3.65a33.43,33.43,0,0,1-14.46-10.57,41.74,41.74,0,0,1-7.53-16.77A104,104,0,0,1,711,223Z"/><path d="M918.23,269.63q-8.51,2.19-22.11,4.5a180.28,180.28,0,0,1-29.89,2.31q-15.32,0-25.64-4.38a41,41,0,0,1-16.52-12.15,47.6,47.6,0,0,1-8.87-18.59,98.15,98.15,0,0,1-2.68-23.69v-71.2h29.41V213q0,20.42,6,29.16t20.78,8.75c3.56,0,7.32-.16,11.3-.49a59.13,59.13,0,0,0,8.87-1.21V146.43h29.4Z"/><path d="M130.92,440.17q9.72,0,15.12-3.55t5.4-11.49a15.31,15.31,0,0,0-1.74-7.64,16.43,16.43,0,0,0-4.62-5.17,30.07,30.07,0,0,0-6.6-3.59l-7.8-3.16a92.62,92.62,0,0,1-9.24-4.18,31.59,31.59,0,0,1-7-4.84,18.39,18.39,0,0,1-4.38-6.18,20.49,20.49,0,0,1-1.5-8.16q0-10.68,7.08-16.2t19.68-5.52a45,45,0,0,1,6.6.48,50.52,50.52,0,0,1,6.06,1.26,45.75,45.75,0,0,1,5.16,1.74,20.65,20.65,0,0,1,3.9,2l-2.88,6.84a29,29,0,0,0-8.46-3.84A38.51,38.51,0,0,0,135,367.57a31.57,31.57,0,0,0-7.26.78,15.77,15.77,0,0,0-5.7,2.52,12.47,12.47,0,0,0-3.78,4.38,13.58,13.58,0,0,0-1.38,6.36,13.38,13.38,0,0,0,1.44,6.48,14,14,0,0,0,4,4.56,32.15,32.15,0,0,0,6.06,3.48q3.48,1.56,7.56,3.24,4.92,2,9.3,4.08a33.44,33.44,0,0,1,7.62,4.8A20.41,20.41,0,0,1,158,415a22.16,22.16,0,0,1,1.92,9.72q0,11.28-7.86,16.92t-21.3,5.64a60.09,60.09,0,0,1-8.76-.6,57.72,57.72,0,0,1-7.08-1.5,41.51,41.51,0,0,1-5.28-1.86,32.35,32.35,0,0,1-3.36-1.68l2.64-7.08q1.2.72,3.24,1.68a41.79,41.79,0,0,0,4.8,1.86,44.72,44.72,0,0,0,6.24,1.5A45.35,45.35,0,0,0,130.92,440.17Z"/><path d="M182.4,467.65h-7.8V385.57a70.16,70.16,0,0,1,8.88-2.28,71.66,71.66,0,0,1,13.68-1.08,33.33,33.33,0,0,1,12.42,2.22,26.85,26.85,0,0,1,9.6,6.42,29.18,29.18,0,0,1,6.24,10.2,38.88,38.88,0,0,1,2.22,13.56,43.39,43.39,0,0,1-1.86,13,29,29,0,0,1-5.46,10.2,25.13,25.13,0,0,1-8.82,6.66,28.44,28.44,0,0,1-11.94,2.4,29.62,29.62,0,0,1-10.62-1.74,27.76,27.76,0,0,1-6.54-3.3Zm0-33.36a26.22,26.22,0,0,0,2.7,1.8,25.71,25.71,0,0,0,3.78,1.8,30.58,30.58,0,0,0,4.68,1.38,25.14,25.14,0,0,0,5.28.54,21.2,21.2,0,0,0,9.66-2,16.89,16.89,0,0,0,6.3-5.4,22.92,22.92,0,0,0,3.48-8,42.86,42.86,0,0,0,1.08-9.78q0-12.24-6.12-18.78T197,389.29a64.17,64.17,0,0,0-9.3.54A34.54,34.54,0,0,0,182.4,391Z"/><path d="M265.68,382.21a42,42,0,0,1,7.26.6,22.26,22.26,0,0,1,4.74,1.2l-1.56,6.72a17.35,17.35,0,0,0-3.9-1,44.52,44.52,0,0,0-7.74-.54,36.65,36.65,0,0,0-8.1.72,22.33,22.33,0,0,0-4,1.2v54.36h-7.8V386.29a57.53,57.53,0,0,1,8.28-2.7A51.47,51.47,0,0,1,265.68,382.21Z"/><path d="M308.28,382a27.48,27.48,0,0,1,10.38,1.74,17.82,17.82,0,0,1,6.9,4.8,18.89,18.89,0,0,1,3.84,7.26,33.09,33.09,0,0,1,1.2,9.12V444a35,35,0,0,1-3.48.78q-2.28.42-5.28.9t-6.66.78c-2.44.19-4.94.3-7.5.3a35.84,35.84,0,0,1-9.06-1.08,20,20,0,0,1-7.2-3.42,16.14,16.14,0,0,1-4.8-6,20.72,20.72,0,0,1-1.74-8.94,18.13,18.13,0,0,1,1.92-8.64,16.35,16.35,0,0,1,5.4-5.94,24.22,24.22,0,0,1,8.28-3.42,47.54,47.54,0,0,1,10.44-1.08q1.68,0,3.54.18t3.6.48q1.74.3,3,.6a9.15,9.15,0,0,1,1.74.54v-3.84a40.6,40.6,0,0,0-.48-6.3,13.8,13.8,0,0,0-2.1-5.52,11.66,11.66,0,0,0-4.56-4,17.09,17.09,0,0,0-7.74-1.5,40,40,0,0,0-10.2,1q-3.36,1-4.92,1.56l-1.08-6.84a28.93,28.93,0,0,1,6.3-1.8A53.88,53.88,0,0,1,308.28,382Zm.72,57.84q4.56,0,8-.3a54.58,54.58,0,0,0,5.82-.78V416.89a23.92,23.92,0,0,0-4.2-1.26,37.18,37.18,0,0,0-7.92-.66,45,45,0,0,0-6,.42,17.32,17.32,0,0,0-5.76,1.8A11.94,11.94,0,0,0,294.6,421a10.88,10.88,0,0,0-1.68,6.36,13.64,13.64,0,0,0,1.14,5.88,9.5,9.5,0,0,0,3.24,3.84,14.39,14.39,0,0,0,5,2.1A30.53,30.53,0,0,0,309,439.81Z"/><path d="M376.2,446.77a33.3,33.3,0,0,1-12.72-2.28A23.93,23.93,0,0,1,354.3,438a29.24,29.24,0,0,1-5.58-10.2,45.86,45.86,0,0,1,.06-26.46,30,30,0,0,1,5.7-10.32,25.19,25.19,0,0,1,9-6.66A29,29,0,0,1,375.36,382a50,50,0,0,1,9.42.84,23.7,23.7,0,0,1,6.78,2.16l-2,6.72a25.19,25.19,0,0,0-5.4-1.92,35.81,35.81,0,0,0-8-.72q-10.32,0-15.66,6.66t-5.34,18.9a40.29,40.29,0,0,0,1.2,10.14,20.43,20.43,0,0,0,3.9,7.92,18.25,18.25,0,0,0,7,5.16,25.9,25.9,0,0,0,10.38,1.86,27,27,0,0,0,8.46-1.14,34.18,34.18,0,0,0,5-2l1.68,6.72a29.27,29.27,0,0,1-6.78,2.34A40.69,40.69,0,0,1,376.2,446.77Z"/><path d="M405.72,445.45V353.77l7.8-1.44v32.88a49,49,0,0,1,7.8-2.22,40.89,40.89,0,0,1,7.92-.78,30.82,30.82,0,0,1,12,2,18.6,18.6,0,0,1,7.68,5.82,22.73,22.73,0,0,1,4,9.06,55.89,55.89,0,0,1,1.14,11.64v34.68h-7.8V413.29a58.75,58.75,0,0,0-.9-11.16,18.76,18.76,0,0,0-3-7.44,11.68,11.68,0,0,0-5.58-4.14,26.11,26.11,0,0,0-8.76-1.26,28.79,28.79,0,0,0-4.38.36c-1.56.24-3,.5-4.38.78s-2.58.58-3.66.9a15.56,15.56,0,0,0-2.1.72v53.4Z"/><path d="M470.27,414.37a39.39,39.39,0,0,1,2.34-14.22A31.32,31.32,0,0,1,478.73,390a24.09,24.09,0,0,1,8.64-6.06,26.32,26.32,0,0,1,10-2q11.4,0,18.18,7.44t6.78,22.92q0,1-.06,1.92t-.18,1.8H478.55q.36,11.4,5.64,17.52t16.8,6.12a34,34,0,0,0,10.08-1.2,42.07,42.07,0,0,0,5.4-2l1.44,6.72a32.42,32.42,0,0,1-6.3,2.28,40.15,40.15,0,0,1-10.86,1.32,36.34,36.34,0,0,1-13.92-2.4,24.92,24.92,0,0,1-9.48-6.72,26.57,26.57,0,0,1-5.4-10.26A47.72,47.72,0,0,1,470.27,414.37Zm44-4.92q-.24-9.72-4.56-15.12t-12.24-5.4a16.3,16.3,0,0,0-7.5,1.68,19,19,0,0,0-5.76,4.5,20.9,20.9,0,0,0-3.84,6.54,26.83,26.83,0,0,0-1.62,7.8Z"/><path d="M585.89,437.05q2.54-5.16,5.18-11.82t5.11-13.8q2.48-7.14,4.58-14.4t3.55-13.62h7.8q-2.18,8.52-4.83,16.8t-5.61,16.2q-3,7.92-6.16,15.24t-6.22,13.8H582q-3.15-6.48-6.28-13.8t-6.1-15.24q-3-7.92-5.62-16.2t-4.83-16.8h8.28q1.46,6.36,3.55,13.62t4.58,14.4q2.46,7.14,5.12,13.8T585.89,437.05Z"/><path d="M621,414.37a39.39,39.39,0,0,1,2.34-14.22A31.32,31.32,0,0,1,629.45,390a24.09,24.09,0,0,1,8.64-6.06,26.32,26.32,0,0,1,10-2q11.4,0,18.18,7.44t6.78,22.92q0,1-.06,1.92t-.18,1.8H629.27q.36,11.4,5.64,17.52t16.8,6.12a34,34,0,0,0,10.08-1.2,42.07,42.07,0,0,0,5.4-2l1.44,6.72a32.42,32.42,0,0,1-6.3,2.28,40.15,40.15,0,0,1-10.86,1.32,36.34,36.34,0,0,1-13.92-2.4,24.92,24.92,0,0,1-9.48-6.72,26.57,26.57,0,0,1-5.4-10.26A47.72,47.72,0,0,1,621,414.37Zm44-4.92q-.24-9.72-4.56-15.12t-12.24-5.4a16.3,16.3,0,0,0-7.5,1.68,19,19,0,0,0-5.76,4.5,20.9,20.9,0,0,0-3.84,6.54,26.83,26.83,0,0,0-1.62,7.8Z"/><path d="M711.59,382.21a42,42,0,0,1,7.26.6,22.26,22.26,0,0,1,4.74,1.2L722,390.73a17.35,17.35,0,0,0-3.9-1,44.52,44.52,0,0,0-7.74-.54,36.65,36.65,0,0,0-8.1.72,22.33,22.33,0,0,0-4,1.2v54.36h-7.8V386.29a57.53,57.53,0,0,1,8.28-2.7A51.47,51.47,0,0,1,711.59,382.21Z"/><path d="M743.15,387.13a27.76,27.76,0,0,1,6.54-3.3,29.4,29.4,0,0,1,10.62-1.74,28.29,28.29,0,0,1,11.94,2.4,24.81,24.81,0,0,1,8.82,6.72,29.67,29.67,0,0,1,5.46,10.26,43.39,43.39,0,0,1,1.86,13,38.88,38.88,0,0,1-2.22,13.56,29.18,29.18,0,0,1-6.24,10.2,26.85,26.85,0,0,1-9.6,6.42,33.53,33.53,0,0,1-12.42,2.22,71.66,71.66,0,0,1-13.68-1.08,70.16,70.16,0,0,1-8.88-2.28V353.77l7.8-1.44Zm0,51a34.54,34.54,0,0,0,5.34,1.14,64.17,64.17,0,0,0,9.3.54q10.08,0,16.2-6.54t6.12-18.78a42.86,42.86,0,0,0-1.08-9.78,22.92,22.92,0,0,0-3.48-8,17.41,17.41,0,0,0-6.3-5.46,20.67,20.67,0,0,0-9.66-2,25.14,25.14,0,0,0-5.28.54,30.58,30.58,0,0,0-4.68,1.38,25.71,25.71,0,0,0-3.78,1.8,26.22,26.22,0,0,0-2.7,1.8Z"/><path d="M814.91,364.69a5.8,5.8,0,0,1-1.68,4.38,5.95,5.95,0,0,1-8.16,0,6.55,6.55,0,0,1,0-8.76,5.95,5.95,0,0,1,8.16,0A5.8,5.8,0,0,1,814.91,364.69Zm-1.8,80.76h-7.8v-62h7.8Z"/><path d="M833.75,385.57q3.48-1,9.36-2.16a73.39,73.39,0,0,1,14.4-1.2,30,30,0,0,1,11.82,2,18.16,18.16,0,0,1,7.56,5.82,23.74,23.74,0,0,1,4,9.06,52.56,52.56,0,0,1,1.2,11.64v34.68h-7.8V413.29a58.75,58.75,0,0,0-.9-11.16,18.61,18.61,0,0,0-3-7.44,11.66,11.66,0,0,0-5.52-4.14,25.07,25.07,0,0,0-8.58-1.26,65.63,65.63,0,0,0-9.54.6,29.23,29.23,0,0,0-5.22,1.08v54.48h-7.8Z"/><path d="M951.35,443.53a70.16,70.16,0,0,1-8.88,2.28,71.66,71.66,0,0,1-13.68,1.08,33.53,33.53,0,0,1-12.42-2.22,26.85,26.85,0,0,1-9.6-6.42,29.18,29.18,0,0,1-6.24-10.2,38.88,38.88,0,0,1-2.22-13.56,43.39,43.39,0,0,1,1.86-13,29.67,29.67,0,0,1,5.46-10.26,24.81,24.81,0,0,1,8.82-6.72,28.29,28.29,0,0,1,11.94-2.4A29.4,29.4,0,0,1,937,383.83a27.76,27.76,0,0,1,6.54,3.3V353.77l7.8-1.44Zm-7.8-48.84a26.22,26.22,0,0,0-2.7-1.8,25.71,25.71,0,0,0-3.78-1.8,30.58,30.58,0,0,0-4.68-1.38,25.14,25.14,0,0,0-5.28-.54,20.67,20.67,0,0,0-9.66,2,17.41,17.41,0,0,0-6.3,5.46,22.92,22.92,0,0,0-3.48,8,42.86,42.86,0,0,0-1.08,9.78q0,12.24,6.12,18.78t16.2,6.54a64.17,64.17,0,0,0,9.3-.54,34.54,34.54,0,0,0,5.34-1.14Z"/><path d="M968.27,414.37a39.39,39.39,0,0,1,2.34-14.22A31.32,31.32,0,0,1,976.73,390a24.09,24.09,0,0,1,8.64-6.06,26.32,26.32,0,0,1,10-2q11.4,0,18.18,7.44t6.78,22.92q0,1-.06,1.92c0,.64-.11,1.24-.18,1.8H976.55q.36,11.4,5.64,17.52t16.8,6.12a34,34,0,0,0,10.08-1.2,43.3,43.3,0,0,0,5.4-2l1.44,6.72a32.69,32.69,0,0,1-6.3,2.28,40.2,40.2,0,0,1-10.86,1.32,36.31,36.31,0,0,1-13.92-2.4,24.92,24.92,0,0,1-9.48-6.72,26.57,26.57,0,0,1-5.4-10.26A47.72,47.72,0,0,1,968.27,414.37Zm44-4.92q-.25-9.72-4.56-15.12t-12.24-5.4a16.3,16.3,0,0,0-7.5,1.68,18.81,18.81,0,0,0-5.76,4.5,20.9,20.9,0,0,0-3.84,6.54,26.83,26.83,0,0,0-1.62,7.8Z"/><path d="M1045.06,383.41h24.73V390h-24.73v33a34,34,0,0,0,.9,8.58,12,12,0,0,0,2.58,5.1,8.18,8.18,0,0,0,4.08,2.4,21.78,21.78,0,0,0,5.29.6,22.82,22.82,0,0,0,7.92-1.14,34.84,34.84,0,0,0,4.67-2.1l1.92,6.48a28.22,28.22,0,0,1-5.88,2.46,29.35,29.35,0,0,1-9.12,1.38,27.3,27.3,0,0,1-9.66-1.5,14,14,0,0,1-6.24-4.56,18.7,18.7,0,0,1-3.3-7.62,53.05,53.05,0,0,1-1-10.8V365.17l7.8-1.44Z"/><path d="M122.64,626.79a17.7,17.7,0,0,1-7-1.26,12.15,12.15,0,0,1-4.71-3.48,14,14,0,0,1-2.61-5.19,24.21,24.21,0,0,1-.81-6.39V584.31h4.08v25.62a19.18,19.18,0,0,0,.81,5.91A11.41,11.41,0,0,0,114.6,620a8.79,8.79,0,0,0,3.48,2.4,13.72,13.72,0,0,0,9.12,0,8.79,8.79,0,0,0,3.48-2.4,11.41,11.41,0,0,0,2.25-4.11,19.18,19.18,0,0,0,.81-5.91V584.31h4.08v26.16a24.21,24.21,0,0,1-.81,6.39,14,14,0,0,1-2.61,5.19,12.15,12.15,0,0,1-4.71,3.48A17.7,17.7,0,0,1,122.64,626.79Z"/><path d="M148.2,596q1.74-.48,4.68-1.08a36.69,36.69,0,0,1,7.2-.6,15,15,0,0,1,5.91,1,9.08,9.08,0,0,1,3.78,2.91,11.87,11.87,0,0,1,2,4.53,26.28,26.28,0,0,1,.6,5.82v17.34h-3.9V609.81a29.38,29.38,0,0,0-.45-5.58,9.31,9.31,0,0,0-1.5-3.72,5.83,5.83,0,0,0-2.76-2.07,12.54,12.54,0,0,0-4.29-.63,32.82,32.82,0,0,0-4.77.3,14.62,14.62,0,0,0-2.61.54v27.24h-3.9Z"/><path d="M201.6,598.05c-.94,1-2.14,2.46-3.62,4.31s-3,3.89-4.73,6.15-3.33,4.63-5,7.09-3.09,4.79-4.33,7h18.2v3.3H179.46v-2.82q1.54-2.94,3.85-6.5t4.77-7q2.49-3.44,4.84-6.45c1.57-2,2.89-3.67,3.94-5h-16.5v-3.3H201.6Z"/><path d="M219.06,594.15a13.74,13.74,0,0,1,5.19.87,8.91,8.91,0,0,1,3.45,2.4,9.45,9.45,0,0,1,1.92,3.63,16.54,16.54,0,0,1,.6,4.56v19.56a17.51,17.51,0,0,1-1.74.39q-1.14.21-2.64.45t-3.33.39q-1.83.15-3.75.15a17.92,17.92,0,0,1-4.53-.54,10,10,0,0,1-3.6-1.71,8.07,8.07,0,0,1-2.4-3,10.36,10.36,0,0,1-.87-4.47,9.07,9.07,0,0,1,1-4.32,8.17,8.17,0,0,1,2.7-3,12.11,12.11,0,0,1,4.14-1.71,23.77,23.77,0,0,1,5.22-.54q.84,0,1.77.09t1.8.24q.87.15,1.5.3a4.57,4.57,0,0,1,.87.27v-1.92a20.3,20.3,0,0,0-.24-3.15,6.9,6.9,0,0,0-1.05-2.76,5.83,5.83,0,0,0-2.28-2,8.54,8.54,0,0,0-3.87-.75,20,20,0,0,0-5.1.48q-1.68.48-2.46.78l-.54-3.42a14.47,14.47,0,0,1,3.15-.9A26.94,26.94,0,0,1,219.06,594.15Zm.36,28.92q2.28,0,4-.15a27.29,27.29,0,0,0,2.91-.39V611.61a12,12,0,0,0-2.1-.63,18.59,18.59,0,0,0-4-.33,22.5,22.5,0,0,0-3,.21,8.66,8.66,0,0,0-2.88.9,6,6,0,0,0-2.16,1.89,5.44,5.44,0,0,0-.84,3.18,6.82,6.82,0,0,0,.57,2.94,4.75,4.75,0,0,0,1.62,1.92,7.2,7.2,0,0,0,2.52,1A15.27,15.27,0,0,0,219.42,623.07Zm-1.8-37.56a2.84,2.84,0,0,1-.78,2.1,2.9,2.9,0,0,1-4,0,3.22,3.22,0,0,1,0-4.2,2.9,2.9,0,0,1,4,0A2.84,2.84,0,0,1,217.62,585.51Zm10.32,0a2.84,2.84,0,0,1-.78,2.1,2.9,2.9,0,0,1-4,0,3.22,3.22,0,0,1,0-4.2,2.9,2.9,0,0,1,4,0A2.84,2.84,0,0,1,227.94,585.51Z"/><path d="M240.18,625.89V580.05l3.9-.72v16.44a24.67,24.67,0,0,1,3.9-1.11,20.45,20.45,0,0,1,4-.39,15.39,15.39,0,0,1,6,1,9.27,9.27,0,0,1,3.84,2.91,11.3,11.3,0,0,1,2,4.53,27.61,27.61,0,0,1,.57,5.82v17.34h-3.9V609.81a29.38,29.38,0,0,0-.45-5.58,9.31,9.31,0,0,0-1.5-3.72,5.82,5.82,0,0,0-2.79-2.07,13,13,0,0,0-4.38-.63,14.45,14.45,0,0,0-2.19.18q-1.17.18-2.19.39t-1.83.45a8.06,8.06,0,0,0-1,.36v26.7Z"/><path d="M282.18,626.43a13.21,13.21,0,0,1-3.45-.51,6.16,6.16,0,0,1-2.46-1.38,5.86,5.86,0,0,1-1.5-2.4,11.4,11.4,0,0,1-.51-3.69v-38.4l3.9-.72v39a8,8,0,0,0,.27,2.31,3.13,3.13,0,0,0,.81,1.38,3.28,3.28,0,0,0,1.41.75,17.85,17.85,0,0,0,2.07.42Z"/><path d="M294.42,585.51a2.9,2.9,0,0,1-.84,2.19,3,3,0,0,1-4.08,0,3.27,3.27,0,0,1,0-4.38,3,3,0,0,1,4.08,0A2.9,2.9,0,0,1,294.42,585.51Zm-.9,40.38h-3.9v-31h3.9Z"/><path d="M324.06,622.29A6.85,6.85,0,0,1,323,623a17.12,17.12,0,0,1-1.77.81,13.73,13.73,0,0,1-2.4.69,15.51,15.51,0,0,1-3,.27,16.4,16.4,0,0,1-5.22-.84,11.66,11.66,0,0,1-4.41-2.64,13,13,0,0,1-3-4.65,18.69,18.69,0,0,1-1.14-6.93,17.63,17.63,0,0,1,1-6.12,14.45,14.45,0,0,1,2.91-4.89,13.21,13.21,0,0,1,4.62-3.24,15.47,15.47,0,0,1,6.15-1.17,33.74,33.74,0,0,1,6.93.57q2.61.57,4.29,1.11v28.32q0,7-3.6,9.93t-10.86,3a30,30,0,0,1-5.43-.45,29.33,29.33,0,0,1-4.17-1.05l.78-3.54a17.8,17.8,0,0,0,3.93,1.14,26.41,26.41,0,0,0,5,.48q5.52,0,8-2.13t2.49-7.29ZM324,598.65a23.63,23.63,0,0,0-2.64-.57,30,30,0,0,0-4.62-.27,10.84,10.84,0,0,0-4.47.87,9.45,9.45,0,0,0-3.33,2.46,10.87,10.87,0,0,0-2.1,3.78,15.4,15.4,0,0,0-.72,4.83A14.67,14.67,0,0,0,307,615a10.3,10.3,0,0,0,2.19,3.57,8.18,8.18,0,0,0,3.09,2,10.33,10.33,0,0,0,3.54.63,14.31,14.31,0,0,0,4.83-.78,10.87,10.87,0,0,0,3.39-1.8Z"/><path d="M336.36,610.35a19.69,19.69,0,0,1,1.17-7.11,15.66,15.66,0,0,1,3.06-5.07,12,12,0,0,1,4.32-3,13.16,13.16,0,0,1,5-1,11.7,11.7,0,0,1,9.09,3.72q3.39,3.72,3.39,11.46,0,.48,0,1c0,.32-.06.62-.09.9H340.5q.18,5.7,2.82,8.76t8.4,3.06a17,17,0,0,0,5-.6,21,21,0,0,0,2.7-1l.72,3.36a16.48,16.48,0,0,1-3.15,1.14,19.93,19.93,0,0,1-5.43.66,18.08,18.08,0,0,1-7-1.2A12.46,12.46,0,0,1,339.9,622a13.28,13.28,0,0,1-2.7-5.13A23.86,23.86,0,0,1,336.36,610.35Zm22-2.46c-.09-3.24-.84-5.76-2.28-7.56a7.39,7.39,0,0,0-6.12-2.7,8.15,8.15,0,0,0-3.75.84,9.4,9.4,0,0,0-2.88,2.25,10.45,10.45,0,0,0-1.92,3.27,13.41,13.41,0,0,0-.81,3.9Z"/><path d="M400,626.79a17.7,17.7,0,0,1-7.05-1.26,12.15,12.15,0,0,1-4.71-3.48,14,14,0,0,1-2.61-5.19,24.21,24.21,0,0,1-.81-6.39V584.31h4.08v25.62a19.18,19.18,0,0,0,.81,5.91A11.41,11.41,0,0,0,392,620a8.79,8.79,0,0,0,3.48,2.4,13.72,13.72,0,0,0,9.12,0,8.79,8.79,0,0,0,3.48-2.4,11.41,11.41,0,0,0,2.25-4.11,19.18,19.18,0,0,0,.81-5.91V584.31h4.08v26.16a24.21,24.21,0,0,1-.81,6.39,14,14,0,0,1-2.61,5.19,12.15,12.15,0,0,1-4.71,3.48A17.7,17.7,0,0,1,400,626.79Z"/><path d="M431.93,623.13a12.24,12.24,0,0,0,5.55-1.11,3.87,3.87,0,0,0,2.19-3.75,5.41,5.41,0,0,0-.39-2.16,4.25,4.25,0,0,0-1.29-1.62,11.07,11.07,0,0,0-2.37-1.38q-1.47-.66-3.63-1.56-1.74-.72-3.3-1.47a13.51,13.51,0,0,1-2.76-1.74A7.6,7.6,0,0,1,424,606a7.19,7.19,0,0,1-.72-3.36,7.54,7.54,0,0,1,2.85-6.12q2.85-2.34,7.83-2.34a21.27,21.27,0,0,1,5.25.54,16.67,16.67,0,0,1,2.91,1l-.9,3.48a23.4,23.4,0,0,0-2.43-1,16,16,0,0,0-5-.6,11.05,11.05,0,0,0-2.49.27,6.62,6.62,0,0,0-2.07.84,4.43,4.43,0,0,0-1.44,1.45,4,4,0,0,0-.54,2.13,4.53,4.53,0,0,0,.48,2.16,4.73,4.73,0,0,0,1.41,1.6,12,12,0,0,0,2.28,1.29c.9.4,1.93.83,3.09,1.31s2.35,1,3.45,1.46a12.77,12.77,0,0,1,2.91,1.8,8.33,8.33,0,0,1,2,2.52,7.82,7.82,0,0,1,.78,3.69,7.22,7.22,0,0,1-3.15,6.36q-3.15,2.16-8.61,2.16a21.62,21.62,0,0,1-6.24-.69,24.21,24.21,0,0,1-2.88-1l1-3.54a6.64,6.64,0,0,0,.78.39,16.42,16.42,0,0,0,1.62.6,17.56,17.56,0,0,0,2.43.57A19.69,19.69,0,0,0,431.93,623.13Z"/><path d="M449.39,610.35a19.69,19.69,0,0,1,1.17-7.11,15.66,15.66,0,0,1,3.06-5.07,12,12,0,0,1,4.32-3,13.16,13.16,0,0,1,5-1,11.7,11.7,0,0,1,9.09,3.72q3.39,3.72,3.39,11.46,0,.48,0,1t-.09.9H453.53q.18,5.7,2.82,8.76t8.4,3.06a17,17,0,0,0,5-.6,21,21,0,0,0,2.7-1l.72,3.36a16.21,16.21,0,0,1-3.15,1.14,19.88,19.88,0,0,1-5.43.66,18.08,18.08,0,0,1-7-1.2,12.46,12.46,0,0,1-4.74-3.36,13.28,13.28,0,0,1-2.7-5.13A23.86,23.86,0,0,1,449.39,610.35Zm22-2.46q-.12-4.86-2.28-7.56a7.39,7.39,0,0,0-6.12-2.7,8.15,8.15,0,0,0-3.75.84,9.52,9.52,0,0,0-2.88,2.25,10.45,10.45,0,0,0-1.92,3.27,13.41,13.41,0,0,0-.81,3.9Z"/><path d="M494.69,594.27a21,21,0,0,1,3.63.3,11.13,11.13,0,0,1,2.37.6l-.78,3.36a8.68,8.68,0,0,0-2-.51,22.26,22.26,0,0,0-3.87-.27,18.33,18.33,0,0,0-4,.36,11.17,11.17,0,0,0-2,.6v27.18h-3.9V596.31a28.76,28.76,0,0,1,4.14-1.35A25.73,25.73,0,0,1,494.69,594.27Z"/><path d="M508.49,620.19a8.8,8.8,0,0,1,.06,1v.72A24.19,24.19,0,0,1,507.5,629a27.38,27.38,0,0,1-2.91,6.42l-2.88-1.32a20.37,20.37,0,0,0,2-5.55,31.3,31.3,0,0,0,.57-6q0-.72,0-1.2t-.09-1.14Z"/><path d="M526.55,637.11a9.54,9.54,0,0,1-1.65-.18,5.79,5.79,0,0,1-1.47-.42l.54-3.18a10.81,10.81,0,0,0,1.14.24,8.4,8.4,0,0,0,1.38.12q3.54,0,4.71-2a11.93,11.93,0,0,0,1.17-5.94v-30.9h3.9v30.72q0,5.88-2.22,8.7T526.55,637.11Zm10.62-51.6a2.9,2.9,0,0,1-.84,2.19,3,3,0,0,1-4.08,0,3.27,3.27,0,0,1,0-4.38,3,3,0,0,1,4.08,0A2.9,2.9,0,0,1,537.17,585.51Z"/><path d="M544.73,610.35a19.69,19.69,0,0,1,1.17-7.11,15.66,15.66,0,0,1,3.06-5.07,12,12,0,0,1,4.32-3,13.16,13.16,0,0,1,5-1,11.7,11.7,0,0,1,9.09,3.72q3.39,3.72,3.39,11.46,0,.48,0,1t-.09.9H548.87q.18,5.7,2.82,8.76t8.4,3.06a17,17,0,0,0,5-.6,21,21,0,0,0,2.7-1l.72,3.36a16.21,16.21,0,0,1-3.15,1.14,19.88,19.88,0,0,1-5.43.66,18.08,18.08,0,0,1-7-1.2,12.46,12.46,0,0,1-4.74-3.36,13.28,13.28,0,0,1-2.7-5.13A23.86,23.86,0,0,1,544.73,610.35Zm22-2.46q-.12-4.86-2.28-7.56a7.39,7.39,0,0,0-6.12-2.7,8.15,8.15,0,0,0-3.75.84,9.52,9.52,0,0,0-2.88,2.25A10.45,10.45,0,0,0,549.8,604a13.41,13.41,0,0,0-.81,3.9Z"/><path d="M604.13,624.93a35.08,35.08,0,0,1-4.44,1.14,35.83,35.83,0,0,1-6.84.54,16.67,16.67,0,0,1-6.21-1.11,13.42,13.42,0,0,1-4.8-3.21,14.59,14.59,0,0,1-3.12-5.1,19.44,19.44,0,0,1-1.11-6.78,21.7,21.7,0,0,1,.93-6.51,14.83,14.83,0,0,1,2.73-5.13,12.41,12.41,0,0,1,4.41-3.36,14.14,14.14,0,0,1,6-1.2,14.7,14.7,0,0,1,5.31.87,13.88,13.88,0,0,1,3.27,1.65V580.05l3.9-.72Zm-3.9-24.42a13.11,13.11,0,0,0-1.35-.9,12.86,12.86,0,0,0-1.89-.9,15.29,15.29,0,0,0-2.34-.69,12.57,12.57,0,0,0-2.64-.27,10.34,10.34,0,0,0-4.83,1A8.7,8.7,0,0,0,584,601.5a11.46,11.46,0,0,0-1.74,4,21.43,21.43,0,0,0-.54,4.89q0,6.12,3.06,9.39a10.57,10.57,0,0,0,8.1,3.27,32.08,32.08,0,0,0,4.65-.27,17.27,17.27,0,0,0,2.67-.57Z"/><path d="M612.59,610.35a19.69,19.69,0,0,1,1.17-7.11,15.66,15.66,0,0,1,3.06-5.07,12,12,0,0,1,4.32-3,13.16,13.16,0,0,1,5-1,11.7,11.7,0,0,1,9.09,3.72q3.39,3.72,3.39,11.46,0,.48,0,1t-.09.9H616.73q.18,5.7,2.82,8.76T628,623a17,17,0,0,0,5-.6,21,21,0,0,0,2.7-1l.72,3.36a16.21,16.21,0,0,1-3.15,1.14,19.88,19.88,0,0,1-5.43.66,18.08,18.08,0,0,1-7-1.2,12.46,12.46,0,0,1-4.74-3.36,13.28,13.28,0,0,1-2.7-5.13A23.86,23.86,0,0,1,612.59,610.35Zm22-2.46q-.12-4.86-2.28-7.56a7.39,7.39,0,0,0-6.12-2.7,8.15,8.15,0,0,0-3.75.84,9.52,9.52,0,0,0-2.88,2.25,10.45,10.45,0,0,0-1.92,3.27,13.41,13.41,0,0,0-.81,3.9Z"/><path d="M657.89,594.27a21,21,0,0,1,3.63.3,11.13,11.13,0,0,1,2.37.6l-.78,3.36a8.68,8.68,0,0,0-2-.51,22.26,22.26,0,0,0-3.87-.27,18.33,18.33,0,0,0-4,.36,11.17,11.17,0,0,0-2,.6v27.18h-3.9V596.31a28.76,28.76,0,0,1,4.14-1.35A25.73,25.73,0,0,1,657.89,594.27Z"/><path d="M702.41,619.89c-.4-1-1-2.32-1.72-4s-1.58-3.43-2.5-5.37-1.87-3.94-2.83-6-1.89-4-2.77-5.79-1.67-3.38-2.35-4.74-1.19-2.32-1.51-2.88q-.78,7.5-1.23,16.29t-.81,18.45h-4q.54-11.34,1.23-21.72t1.71-19.86h3.6q1.8,3,3.85,6.93t4.05,8.16q2,4.23,3.91,8.34c1.26,2.74,2.38,5.21,3.34,7.41q1.44-3.3,3.34-7.41t3.9-8.34q2-4.23,4.06-8.16c1.36-2.62,2.65-4.93,3.85-6.93h3.42q1,9.48,1.71,19.86t1.23,21.72h-4.14q-.36-9.66-.81-18.45t-1.23-16.29q-.48.84-1.5,2.88t-2.34,4.74q-1.32,2.7-2.76,5.79t-2.82,6q-1.38,2.91-2.49,5.37t-1.71,4Z"/><path d="M733.49,610.35a19.69,19.69,0,0,1,1.17-7.11,15.66,15.66,0,0,1,3.06-5.07,12,12,0,0,1,4.32-3,13.16,13.16,0,0,1,5-1,11.7,11.7,0,0,1,9.09,3.72q3.39,3.72,3.39,11.46,0,.48,0,1t-.09.9H737.63q.18,5.7,2.82,8.76t8.4,3.06a17,17,0,0,0,5-.6,21,21,0,0,0,2.7-1l.72,3.36a16.21,16.21,0,0,1-3.15,1.14,19.88,19.88,0,0,1-5.43.66,18.08,18.08,0,0,1-7-1.2A12.46,12.46,0,0,1,737,622a13.28,13.28,0,0,1-2.7-5.13A23.86,23.86,0,0,1,733.49,610.35Zm22-2.46q-.12-4.86-2.28-7.56a7.39,7.39,0,0,0-6.12-2.7,8.15,8.15,0,0,0-3.75.84,9.52,9.52,0,0,0-2.88,2.25,10.45,10.45,0,0,0-1.92,3.27,13.41,13.41,0,0,0-.81,3.9Z"/><path d="M768.23,596q1.74-.48,4.68-1.08a36.69,36.69,0,0,1,7.2-.6,15,15,0,0,1,5.91,1,9.08,9.08,0,0,1,3.78,2.91,11.87,11.87,0,0,1,2,4.53,26.28,26.28,0,0,1,.6,5.82v17.34h-3.9V609.81a29.38,29.38,0,0,0-.45-5.58,9.31,9.31,0,0,0-1.5-3.72,5.83,5.83,0,0,0-2.76-2.07,12.54,12.54,0,0,0-4.29-.63,32.82,32.82,0,0,0-4.77.3,14.62,14.62,0,0,0-2.61.54v27.24h-3.9Z"/><path d="M808.73,623.13a12.24,12.24,0,0,0,5.55-1.11,3.87,3.87,0,0,0,2.19-3.75,5.41,5.41,0,0,0-.39-2.16,4.25,4.25,0,0,0-1.29-1.62,11.07,11.07,0,0,0-2.37-1.38q-1.47-.66-3.63-1.56-1.74-.72-3.3-1.47a13.51,13.51,0,0,1-2.76-1.74,7.6,7.6,0,0,1-1.92-2.37,7.19,7.19,0,0,1-.72-3.36,7.54,7.54,0,0,1,2.85-6.12q2.85-2.34,7.83-2.34a21.27,21.27,0,0,1,5.25.54,16.67,16.67,0,0,1,2.91,1l-.9,3.48a23.4,23.4,0,0,0-2.43-1,16,16,0,0,0-5-.6,11.05,11.05,0,0,0-2.49.27,6.62,6.62,0,0,0-2.07.84,4.43,4.43,0,0,0-1.44,1.45,4,4,0,0,0-.54,2.13,4.53,4.53,0,0,0,.48,2.16,4.73,4.73,0,0,0,1.41,1.6,12,12,0,0,0,2.28,1.29c.9.4,1.93.83,3.09,1.31s2.35,1,3.45,1.46a12.77,12.77,0,0,1,2.91,1.8,8.33,8.33,0,0,1,2,2.52,7.82,7.82,0,0,1,.78,3.69,7.22,7.22,0,0,1-3.15,6.36q-3.15,2.16-8.61,2.16a21.62,21.62,0,0,1-6.24-.69,24.21,24.21,0,0,1-2.88-1l1-3.54a6.64,6.64,0,0,0,.78.39,16.42,16.42,0,0,0,1.62.6,17.56,17.56,0,0,0,2.43.57A19.69,19.69,0,0,0,808.73,623.13Z"/><path d="M840.89,626.55a16.55,16.55,0,0,1-6.36-1.14,12,12,0,0,1-4.59-3.27,14.62,14.62,0,0,1-2.79-5.1,22.93,22.93,0,0,1,0-13.23,15,15,0,0,1,2.85-5.16,12.6,12.6,0,0,1,4.5-3.33,14.51,14.51,0,0,1,5.94-1.17,25,25,0,0,1,4.71.42,11.85,11.85,0,0,1,3.39,1.08l-1,3.36a12.6,12.6,0,0,0-2.7-1,17.91,17.91,0,0,0-4-.36q-5.16,0-7.83,3.33t-2.67,9.45a20.14,20.14,0,0,0,.6,5.07,10.21,10.21,0,0,0,2,4,9.12,9.12,0,0,0,3.48,2.58,13,13,0,0,0,5.19.93,13.52,13.52,0,0,0,4.23-.57,17.09,17.09,0,0,0,2.49-1l.84,3.36a14.64,14.64,0,0,1-3.39,1.17A20.09,20.09,0,0,1,840.89,626.55Z"/><path d="M855.65,625.89V580.05l3.9-.72v16.44a24.67,24.67,0,0,1,3.9-1.11,20.45,20.45,0,0,1,4-.39,15.39,15.39,0,0,1,6,1,9.27,9.27,0,0,1,3.84,2.91,11.3,11.3,0,0,1,2,4.53,27.61,27.61,0,0,1,.57,5.82v17.34h-3.9V609.81a29.38,29.38,0,0,0-.45-5.58,9.31,9.31,0,0,0-1.5-3.72,5.82,5.82,0,0,0-2.79-2.07,13,13,0,0,0-4.38-.63,14.45,14.45,0,0,0-2.19.18q-1.17.18-2.19.39t-1.83.45a8.06,8.06,0,0,0-1.05.36v26.7Z"/><path d="M105.54,682.35a19.69,19.69,0,0,1,1.17-7.11,15.66,15.66,0,0,1,3.06-5.07,12,12,0,0,1,4.32-3,13.16,13.16,0,0,1,5-1,11.7,11.7,0,0,1,9.09,3.72q3.39,3.72,3.39,11.46,0,.48,0,1t-.09.9H109.68q.18,5.7,2.82,8.76t8.4,3.06a17,17,0,0,0,5-.6,21,21,0,0,0,2.7-1l.72,3.36a16.21,16.21,0,0,1-3.15,1.14,19.88,19.88,0,0,1-5.43.66,18.08,18.08,0,0,1-7-1.2,12.46,12.46,0,0,1-4.74-3.36,13.28,13.28,0,0,1-2.7-5.13A23.86,23.86,0,0,1,105.54,682.35Zm22-2.46q-.12-4.86-2.28-7.56a7.39,7.39,0,0,0-6.12-2.7,8.15,8.15,0,0,0-3.75.84,9.52,9.52,0,0,0-2.88,2.25,10.45,10.45,0,0,0-1.92,3.27,13.41,13.41,0,0,0-.81,3.9Z"/><path d="M145.08,657.51a2.9,2.9,0,0,1-.84,2.19,3,3,0,0,1-4.08,0,3.27,3.27,0,0,1,0-4.38,3,3,0,0,1,4.08,0A2.9,2.9,0,0,1,145.08,657.51Zm-.9,40.38h-3.9v-31h3.9Z"/><path d="M154.5,668q1.74-.48,4.68-1.08a36.69,36.69,0,0,1,7.2-.6,15,15,0,0,1,5.91,1,9.08,9.08,0,0,1,3.78,2.91,11.87,11.87,0,0,1,2,4.53,26.28,26.28,0,0,1,.6,5.82v17.34h-3.9V681.81a29.38,29.38,0,0,0-.45-5.58,9.31,9.31,0,0,0-1.5-3.72,5.83,5.83,0,0,0-2.76-2.07,12.54,12.54,0,0,0-4.29-.63,32.82,32.82,0,0,0-4.77.3,14.62,14.62,0,0,0-2.61.54v27.24h-3.9Z"/><path d="M202.56,656.31h4.08v41.58h-4.08Z"/><path d="M217.2,668q1.74-.48,4.68-1.08a36.69,36.69,0,0,1,7.2-.6,15,15,0,0,1,5.91,1,9.08,9.08,0,0,1,3.78,2.91,11.87,11.87,0,0,1,2,4.53,26.28,26.28,0,0,1,.6,5.82v17.34h-3.9V681.81a29.38,29.38,0,0,0-.45-5.58,9.31,9.31,0,0,0-1.5-3.72,5.83,5.83,0,0,0-2.76-2.07,12.54,12.54,0,0,0-4.29-.63,32.82,32.82,0,0,0-4.77.3,14.62,14.62,0,0,0-2.61.54v27.24h-3.9Z"/><path d="M276,696.93a35.08,35.08,0,0,1-4.44,1.14,35.83,35.83,0,0,1-6.84.54,16.67,16.67,0,0,1-6.21-1.11,13.42,13.42,0,0,1-4.8-3.21,14.59,14.59,0,0,1-3.12-5.1,19.44,19.44,0,0,1-1.11-6.78,21.7,21.7,0,0,1,.93-6.51,14.83,14.83,0,0,1,2.73-5.13,12.41,12.41,0,0,1,4.41-3.36,14.14,14.14,0,0,1,6-1.2,14.7,14.7,0,0,1,5.31.87,13.88,13.88,0,0,1,3.27,1.65V652.05l3.9-.72Zm-3.9-24.42a13.11,13.11,0,0,0-1.35-.9,12.86,12.86,0,0,0-1.89-.9,15.29,15.29,0,0,0-2.34-.69,12.57,12.57,0,0,0-2.64-.27,10.34,10.34,0,0,0-4.83,1,8.7,8.7,0,0,0-3.15,2.73,11.46,11.46,0,0,0-1.74,4,21.43,21.43,0,0,0-.54,4.89q0,6.12,3.06,9.39a10.57,10.57,0,0,0,8.1,3.27,32.08,32.08,0,0,0,4.65-.27,17.27,17.27,0,0,0,2.67-.57Z"/><path d="M291.12,657.51a2.9,2.9,0,0,1-.84,2.19,3,3,0,0,1-4.08,0,3.27,3.27,0,0,1,0-4.38,3,3,0,0,1,4.08,0A2.9,2.9,0,0,1,291.12,657.51Zm-.9,40.38h-3.9v-31h3.9Z"/><path d="M309.93,693.69q1.26-2.58,2.58-5.91t2.56-6.9q1.24-3.57,2.29-7.2t1.78-6.81H323c-.73,2.84-1.53,5.64-2.42,8.4s-1.82,5.46-2.81,8.1-2,5.18-3.08,7.62-2.1,4.74-3.1,6.9H308c-1.05-2.16-2.09-4.46-3.14-6.9s-2.06-5-3.05-7.62-1.92-5.34-2.81-8.1-1.69-5.56-2.41-8.4h4.14q.72,3.18,1.77,6.81c.7,2.42,1.47,4.82,2.29,7.2s1.68,4.68,2.56,6.9S309.08,692,309.93,693.69Z"/><path d="M334.14,657.51a2.9,2.9,0,0,1-.84,2.19,3,3,0,0,1-4.08,0,3.27,3.27,0,0,1,0-4.38,3,3,0,0,1,4.08,0A2.9,2.9,0,0,1,334.14,657.51Zm-.9,40.38h-3.9v-31h3.9Z"/><path d="M368.22,696.93a35.08,35.08,0,0,1-4.44,1.14,35.83,35.83,0,0,1-6.84.54,16.67,16.67,0,0,1-6.21-1.11,13.42,13.42,0,0,1-4.8-3.21,14.59,14.59,0,0,1-3.12-5.1,19.44,19.44,0,0,1-1.11-6.78,21.7,21.7,0,0,1,.93-6.51,14.83,14.83,0,0,1,2.73-5.13,12.41,12.41,0,0,1,4.41-3.36,14.14,14.14,0,0,1,6-1.2,14.7,14.7,0,0,1,5.31.87,13.88,13.88,0,0,1,3.27,1.65V652.05l3.9-.72Zm-3.9-24.42a13.11,13.11,0,0,0-1.35-.9,12.86,12.86,0,0,0-1.89-.9,15.29,15.29,0,0,0-2.34-.69,12.57,12.57,0,0,0-2.64-.27,10.34,10.34,0,0,0-4.83,1,8.7,8.7,0,0,0-3.15,2.73,11.46,11.46,0,0,0-1.74,4,21.43,21.43,0,0,0-.54,4.89q0,6.12,3.06,9.39a10.57,10.57,0,0,0,8.1,3.27,32.08,32.08,0,0,0,4.65-.27,17.27,17.27,0,0,0,2.67-.57Z"/><path d="M402.36,696.81q-1.74.48-4.68,1.08a36.69,36.69,0,0,1-7.2.6,14.59,14.59,0,0,1-5.82-1,9.45,9.45,0,0,1-3.78-2.88,11.67,11.67,0,0,1-2.07-4.5,25.08,25.08,0,0,1-.63-5.82v-17.4h3.9V683a27.59,27.59,0,0,0,.48,5.58,9.07,9.07,0,0,0,1.56,3.69,6.09,6.09,0,0,0,2.79,2,12.12,12.12,0,0,0,4.17.63,33.45,33.45,0,0,0,4.8-.3,12.91,12.91,0,0,0,2.58-.54V666.87h3.9Z"/><path d="M436.5,696.81c-1.17.32-2.73.68-4.69,1.08a36.66,36.66,0,0,1-7.19.6,14.61,14.61,0,0,1-5.83-1,9.49,9.49,0,0,1-3.77-2.88,11.67,11.67,0,0,1-2.07-4.5,24.53,24.53,0,0,1-.64-5.82v-17.4h3.91V683a26.88,26.88,0,0,0,.48,5.58,8.94,8.94,0,0,0,1.56,3.69,6.11,6.11,0,0,0,2.78,2,12.18,12.18,0,0,0,4.18.63,33.65,33.65,0,0,0,4.8-.3,13.09,13.09,0,0,0,2.58-.54V666.87h3.9Z"/><path d="M446.81,668q1.74-.48,4.53-1.08a35.49,35.49,0,0,1,7.23-.6q5.88,0,8.52,3.42.3-.24,1.17-.81a16.52,16.52,0,0,1,2.19-1.17,17,17,0,0,1,7-1.44,13.33,13.33,0,0,1,5.73,1.05,8,8,0,0,1,3.39,2.94,11.82,11.82,0,0,1,1.62,4.53,36.75,36.75,0,0,1,.42,5.76v17.34h-3.9V681.81a45.26,45.26,0,0,0-.27-5.31,10.22,10.22,0,0,0-1.08-3.72,5.27,5.27,0,0,0-2.31-2.22,8.74,8.74,0,0,0-3.9-.75,15,15,0,0,0-3.27.33,13.69,13.69,0,0,0-2.55.81,10.85,10.85,0,0,0-1.77,1q-.69.48-1,.72a18.5,18.5,0,0,1,.81,3.51,30,30,0,0,1,.27,4.11v17.64h-3.9V681.81a45.26,45.26,0,0,0-.27-5.31,9.84,9.84,0,0,0-1.11-3.72,5.41,5.41,0,0,0-2.37-2.22,9.26,9.26,0,0,0-4-.75,32.05,32.05,0,0,0-4.77.3,12.54,12.54,0,0,0-2.49.54v27.24h-3.9Z"/><path d="M536.09,696.81q-1.74.48-4.68,1.08a36.69,36.69,0,0,1-7.2.6,14.59,14.59,0,0,1-5.82-1,9.45,9.45,0,0,1-3.78-2.88,11.67,11.67,0,0,1-2.07-4.5,25.08,25.08,0,0,1-.63-5.82v-17.4h3.9V683a27.59,27.59,0,0,0,.48,5.58,9.07,9.07,0,0,0,1.56,3.69,6.09,6.09,0,0,0,2.79,2,12.12,12.12,0,0,0,4.17.63,33.45,33.45,0,0,0,4.8-.3,12.91,12.91,0,0,0,2.58-.54V666.87h3.9Z"/><path d="M546.41,668q1.74-.48,4.68-1.08a36.69,36.69,0,0,1,7.2-.6,15,15,0,0,1,5.91,1A9.08,9.08,0,0,1,568,670.2a11.87,11.87,0,0,1,2,4.53,26.28,26.28,0,0,1,.6,5.82v17.34h-3.9V681.81a29.38,29.38,0,0,0-.45-5.58,9.31,9.31,0,0,0-1.5-3.72,5.83,5.83,0,0,0-2.76-2.07,12.54,12.54,0,0,0-4.29-.63,32.82,32.82,0,0,0-4.77.3,14.62,14.62,0,0,0-2.61.54v27.24h-3.9Z"/><path d="M605.21,696.93a35.08,35.08,0,0,1-4.44,1.14,35.83,35.83,0,0,1-6.84.54,16.67,16.67,0,0,1-6.21-1.11,13.42,13.42,0,0,1-4.8-3.21,14.59,14.59,0,0,1-3.12-5.1,19.44,19.44,0,0,1-1.11-6.78,21.7,21.7,0,0,1,.93-6.51,14.83,14.83,0,0,1,2.73-5.13,12.41,12.41,0,0,1,4.41-3.36,14.14,14.14,0,0,1,6-1.2,14.7,14.7,0,0,1,5.31.87,13.88,13.88,0,0,1,3.27,1.65V652.05l3.9-.72Zm-3.9-24.42a13.11,13.11,0,0,0-1.35-.9,12.86,12.86,0,0,0-1.89-.9,15.29,15.29,0,0,0-2.34-.69,12.57,12.57,0,0,0-2.64-.27,10.34,10.34,0,0,0-4.83,1,8.7,8.7,0,0,0-3.15,2.73,11.46,11.46,0,0,0-1.74,4,21.43,21.43,0,0,0-.54,4.89q0,6.12,3.06,9.39a10.57,10.57,0,0,0,8.1,3.27,32.08,32.08,0,0,0,4.65-.27,17.27,17.27,0,0,0,2.67-.57Z"/><path d="M629.21,668q1.74-.48,4.68-1.08a36.69,36.69,0,0,1,7.2-.6,15,15,0,0,1,5.91,1,9.08,9.08,0,0,1,3.78,2.91,11.87,11.87,0,0,1,2,4.53,26.28,26.28,0,0,1,.6,5.82v17.34h-3.9V681.81a29.38,29.38,0,0,0-.45-5.58,9.31,9.31,0,0,0-1.5-3.72,5.83,5.83,0,0,0-2.76-2.07,12.54,12.54,0,0,0-4.29-.63,32.82,32.82,0,0,0-4.77.3,14.62,14.62,0,0,0-2.61.54v27.24h-3.9Z"/><path d="M687.17,696.81q-1.74.48-4.68,1.08a36.69,36.69,0,0,1-7.2.6,14.59,14.59,0,0,1-5.82-1,9.45,9.45,0,0,1-3.78-2.88,11.67,11.67,0,0,1-2.07-4.5,25.08,25.08,0,0,1-.63-5.82v-17.4h3.9V683a27.59,27.59,0,0,0,.48,5.58,9.07,9.07,0,0,0,1.56,3.69,6.09,6.09,0,0,0,2.79,2,12.12,12.12,0,0,0,4.17.63,33.45,33.45,0,0,0,4.8-.3,12.91,12.91,0,0,0,2.58-.54V666.87h3.9Z"/><path d="M708.05,666.27a21,21,0,0,1,3.63.3,11.13,11.13,0,0,1,2.37.6l-.78,3.36a8.68,8.68,0,0,0-1.95-.51,22.26,22.26,0,0,0-3.87-.27,18.33,18.33,0,0,0-4.05.36,11.17,11.17,0,0,0-2,.6v27.18h-3.9V668.31a28.76,28.76,0,0,1,4.14-1.35A25.73,25.73,0,0,1,708.05,666.27Z"/><path d="M105.54,754.35a19.69,19.69,0,0,1,1.17-7.11,15.66,15.66,0,0,1,3.06-5.07,12,12,0,0,1,4.32-3,13.16,13.16,0,0,1,5-1,11.7,11.7,0,0,1,9.09,3.72q3.39,3.72,3.39,11.46,0,.48,0,1t-.09.9H109.68q.18,5.7,2.82,8.76t8.4,3.06a17,17,0,0,0,5-.6,21,21,0,0,0,2.7-1l.72,3.36a16.21,16.21,0,0,1-3.15,1.14,19.88,19.88,0,0,1-5.43.66,18.08,18.08,0,0,1-7-1.2,12.46,12.46,0,0,1-4.74-3.36,13.28,13.28,0,0,1-2.7-5.13A23.86,23.86,0,0,1,105.54,754.35Zm22-2.46q-.12-4.86-2.28-7.56a7.39,7.39,0,0,0-6.12-2.7,8.15,8.15,0,0,0-3.75.84,9.52,9.52,0,0,0-2.88,2.25,10.45,10.45,0,0,0-1.92,3.27,13.41,13.41,0,0,0-.81,3.9Z"/><path d="M145.08,729.51a2.9,2.9,0,0,1-.84,2.19,3,3,0,0,1-4.08,0,3.27,3.27,0,0,1,0-4.38,3,3,0,0,1,4.08,0A2.9,2.9,0,0,1,145.08,729.51Zm-.9,40.38h-3.9v-31h3.9Z"/><path d="M154.5,740q1.74-.48,4.68-1.08a36.69,36.69,0,0,1,7.2-.6,15,15,0,0,1,5.91,1,9.08,9.08,0,0,1,3.78,2.91,11.87,11.87,0,0,1,2,4.53,26.28,26.28,0,0,1,.6,5.82v17.34h-3.9V753.81a29.38,29.38,0,0,0-.45-5.58,9.31,9.31,0,0,0-1.5-3.72,5.83,5.83,0,0,0-2.76-2.07,12.54,12.54,0,0,0-4.29-.63,32.82,32.82,0,0,0-4.77.3,14.62,14.62,0,0,0-2.61.54v27.24h-3.9Z"/><path d="M186.78,754.35a19.69,19.69,0,0,1,1.17-7.11,15.66,15.66,0,0,1,3.06-5.07,12,12,0,0,1,4.32-3,13.16,13.16,0,0,1,5-1,11.7,11.7,0,0,1,9.09,3.72q3.39,3.72,3.39,11.46,0,.48,0,1t-.09.9H190.92q.18,5.7,2.82,8.76t8.4,3.06a17,17,0,0,0,5-.6,21,21,0,0,0,2.7-1l.72,3.36a16.21,16.21,0,0,1-3.15,1.14,19.88,19.88,0,0,1-5.43.66,18.08,18.08,0,0,1-7-1.2,12.46,12.46,0,0,1-4.74-3.36,13.28,13.28,0,0,1-2.7-5.13A23.86,23.86,0,0,1,186.78,754.35Zm22-2.46q-.12-4.86-2.28-7.56a7.39,7.39,0,0,0-6.12-2.7,8.15,8.15,0,0,0-3.75.84,9.52,9.52,0,0,0-2.88,2.25,10.45,10.45,0,0,0-1.92,3.27,13.41,13.41,0,0,0-.81,3.9Z"/><path d="M244.38,767.25q4.86,0,7.56-1.77c1.8-1.19,2.7-3.1,2.7-5.75a7.62,7.62,0,0,0-.87-3.81,8.07,8.07,0,0,0-2.31-2.59,15.25,15.25,0,0,0-3.3-1.8c-1.24-.49-2.54-1-3.9-1.58a44.14,44.14,0,0,1-4.62-2.09,15.63,15.63,0,0,1-3.48-2.42,9.19,9.19,0,0,1-2.19-3.09,10.25,10.25,0,0,1-.75-4.08q0-5.34,3.54-8.1t9.84-2.76a22.49,22.49,0,0,1,3.3.24,25.26,25.26,0,0,1,3,.63,22.87,22.87,0,0,1,2.58.87,10.33,10.33,0,0,1,1.95,1L256,733.59a14.5,14.5,0,0,0-4.23-1.92,19.26,19.26,0,0,0-5.37-.72,15.78,15.78,0,0,0-3.63.39,7.89,7.89,0,0,0-2.85,1.26,6.24,6.24,0,0,0-1.89,2.19,6.79,6.79,0,0,0-.69,3.18,6.69,6.69,0,0,0,.72,3.24,7,7,0,0,0,2,2.28,16.07,16.07,0,0,0,3,1.74q1.74.78,3.78,1.62,2.46,1,4.65,2a16.72,16.72,0,0,1,3.81,2.4,10.2,10.2,0,0,1,2.58,3.36,11.08,11.08,0,0,1,1,4.86q0,5.64-3.93,8.46t-10.65,2.82a29.36,29.36,0,0,1-4.38-.3,28,28,0,0,1-3.54-.75,20.75,20.75,0,0,1-2.64-.93,16.18,16.18,0,0,1-1.68-.84l1.32-3.54q.6.36,1.62.84a20.89,20.89,0,0,0,2.4.93,22.36,22.36,0,0,0,3.12.75A22.67,22.67,0,0,0,244.38,767.25Z"/><path d="M270.12,781h-3.9V740a35.08,35.08,0,0,1,4.44-1.14,35.83,35.83,0,0,1,6.84-.54,16.67,16.67,0,0,1,6.21,1.11,13.42,13.42,0,0,1,4.8,3.21,14.59,14.59,0,0,1,3.12,5.1,19.44,19.44,0,0,1,1.11,6.78,21.7,21.7,0,0,1-.93,6.51,14.51,14.51,0,0,1-2.73,5.1,12.56,12.56,0,0,1-4.41,3.33,14.14,14.14,0,0,1-6,1.2,14.7,14.7,0,0,1-5.31-.87,13.88,13.88,0,0,1-3.27-1.65Zm0-16.68a13.11,13.11,0,0,0,1.35.9,12.86,12.86,0,0,0,1.89.9,15.29,15.29,0,0,0,2.34.69,12.57,12.57,0,0,0,2.64.27,10.6,10.6,0,0,0,4.83-1,8.45,8.45,0,0,0,3.15-2.7,11.46,11.46,0,0,0,1.74-4,21.43,21.43,0,0,0,.54-4.89q0-6.12-3.06-9.39a10.57,10.57,0,0,0-8.1-3.27,32.08,32.08,0,0,0-4.65.27,17.27,17.27,0,0,0-2.67.57Z"/><path d="M311.76,738.27a21,21,0,0,1,3.63.3,11.13,11.13,0,0,1,2.37.6l-.78,3.36a8.68,8.68,0,0,0-2-.51,22.26,22.26,0,0,0-3.87-.27,18.33,18.33,0,0,0-4.05.36,11.17,11.17,0,0,0-2,.6v27.18h-3.9V740.31a28.76,28.76,0,0,1,4.14-1.35A25.73,25.73,0,0,1,311.76,738.27Z"/><path d="M333.06,738.15a13.74,13.74,0,0,1,5.19.87,8.91,8.91,0,0,1,3.45,2.4,9.45,9.45,0,0,1,1.92,3.63,16.54,16.54,0,0,1,.6,4.56v19.56a17.51,17.51,0,0,1-1.74.39q-1.14.21-2.64.45t-3.33.39q-1.83.15-3.75.15a17.92,17.92,0,0,1-4.53-.54,10,10,0,0,1-3.6-1.71,8.07,8.07,0,0,1-2.4-3,10.36,10.36,0,0,1-.87-4.47,9.07,9.07,0,0,1,1-4.32,8.17,8.17,0,0,1,2.7-3,12.11,12.11,0,0,1,4.14-1.71,23.77,23.77,0,0,1,5.22-.54q.84,0,1.77.09t1.8.24q.87.15,1.5.3a4.57,4.57,0,0,1,.87.27v-1.92a20.3,20.3,0,0,0-.24-3.15,6.9,6.9,0,0,0-1.05-2.76,5.83,5.83,0,0,0-2.28-2,8.54,8.54,0,0,0-3.87-.75,20,20,0,0,0-5.1.48q-1.68.48-2.46.78l-.54-3.42a14.47,14.47,0,0,1,3.15-.9A26.94,26.94,0,0,1,333.06,738.15Zm.36,28.92q2.28,0,4-.15a27.29,27.29,0,0,0,2.91-.39V755.61a12,12,0,0,0-2.1-.63,18.59,18.59,0,0,0-4-.33,22.5,22.5,0,0,0-3,.21,8.66,8.66,0,0,0-2.88.9,6,6,0,0,0-2.16,1.89,5.44,5.44,0,0,0-.84,3.18,6.82,6.82,0,0,0,.57,2.94,4.75,4.75,0,0,0,1.62,1.92,7.2,7.2,0,0,0,2.52,1A15.27,15.27,0,0,0,333.42,767.07Z"/><path d="M367,770.55a16.55,16.55,0,0,1-6.36-1.14,12,12,0,0,1-4.59-3.27,14.62,14.62,0,0,1-2.79-5.1,22.93,22.93,0,0,1,0-13.23,15,15,0,0,1,2.85-5.16,12.6,12.6,0,0,1,4.5-3.33,14.51,14.51,0,0,1,5.94-1.17,25,25,0,0,1,4.71.42,11.85,11.85,0,0,1,3.39,1.08l-1,3.36a12.6,12.6,0,0,0-2.7-1,17.91,17.91,0,0,0-4-.36q-5.16,0-7.83,3.33t-2.67,9.45a20.14,20.14,0,0,0,.6,5.07,10.21,10.21,0,0,0,1.95,4,9.12,9.12,0,0,0,3.48,2.58,13,13,0,0,0,5.19.93,13.52,13.52,0,0,0,4.23-.57,17.09,17.09,0,0,0,2.49-1l.84,3.36a14.64,14.64,0,0,1-3.39,1.17A20.09,20.09,0,0,1,367,770.55Z"/><path d="M381.78,769.89V724.05l3.9-.72v16.44a24.67,24.67,0,0,1,3.9-1.11,20.45,20.45,0,0,1,4-.39,15.39,15.39,0,0,1,6,1,9.27,9.27,0,0,1,3.84,2.91,11.43,11.43,0,0,1,2,4.53,27.61,27.61,0,0,1,.57,5.82v17.34h-3.9V753.81a29.38,29.38,0,0,0-.45-5.58,9.31,9.31,0,0,0-1.5-3.72,5.82,5.82,0,0,0-2.79-2.07,13,13,0,0,0-4.38-.63,14.35,14.35,0,0,0-2.19.18q-1.17.18-2.19.39t-1.83.45a7.52,7.52,0,0,0-1.05.36v26.7Z"/><path d="M414.05,754.35a19.47,19.47,0,0,1,1.18-7.11,15.47,15.47,0,0,1,3-5.07,12,12,0,0,1,4.32-3,13.2,13.2,0,0,1,5-1,11.73,11.73,0,0,1,9.1,3.72q3.38,3.72,3.38,11.46,0,.48,0,1c0,.32-.05.62-.08.9H418.19q.18,5.7,2.82,8.76t8.41,3.06a17.07,17.07,0,0,0,5-.6,21.37,21.37,0,0,0,2.69-1l.73,3.36a16.76,16.76,0,0,1-3.15,1.14,20,20,0,0,1-5.44.66,18.08,18.08,0,0,1-7-1.2,12.54,12.54,0,0,1-4.74-3.36,13.13,13.13,0,0,1-2.69-5.13A23.47,23.47,0,0,1,414.05,754.35Zm22-2.46q-.12-4.86-2.28-7.56a7.39,7.39,0,0,0-6.12-2.7,8.15,8.15,0,0,0-3.75.84,9.52,9.52,0,0,0-2.88,2.25,10.45,10.45,0,0,0-1.92,3.27,13.41,13.41,0,0,0-.81,3.9Z"/><path d="M454.31,767.31a3.36,3.36,0,0,1-.87,2.34,3.56,3.56,0,0,1-4.86,0,3.58,3.58,0,0,1,0-4.68,3.56,3.56,0,0,1,4.86,0A3.36,3.36,0,0,1,454.31,767.31Z"/><path d="M477.47,728.31h4.08v41.58h-4.08Z"/><path d="M492.11,769.89V724.05l3.9-.72v16.44a24.67,24.67,0,0,1,3.9-1.11,20.45,20.45,0,0,1,4-.39,15.39,15.39,0,0,1,6,1,9.27,9.27,0,0,1,3.84,2.91,11.3,11.3,0,0,1,2,4.53,27.61,27.61,0,0,1,.57,5.82v17.34h-3.9V753.81a29.38,29.38,0,0,0-.45-5.58,9.31,9.31,0,0,0-1.5-3.72,5.82,5.82,0,0,0-2.79-2.07,13,13,0,0,0-4.38-.63,14.45,14.45,0,0,0-2.19.18q-1.17.18-2.19.39t-1.83.45a8.06,8.06,0,0,0-1.05.36v26.7Z"/><path d="M536.81,738.27a21,21,0,0,1,3.63.3,11.13,11.13,0,0,1,2.37.6l-.78,3.36a8.68,8.68,0,0,0-1.95-.51,22.26,22.26,0,0,0-3.87-.27,18.33,18.33,0,0,0-4.05.36,11.17,11.17,0,0,0-2,.6v27.18h-3.9V740.31a28.76,28.76,0,0,1,4.14-1.35A25.73,25.73,0,0,1,536.81,738.27Z"/><path d="M546.83,754.35a19.69,19.69,0,0,1,1.17-7.11,15.66,15.66,0,0,1,3.06-5.07,12,12,0,0,1,4.32-3,13.16,13.16,0,0,1,5-1,11.7,11.7,0,0,1,9.09,3.72q3.39,3.72,3.39,11.46,0,.48,0,1t-.09.9H551q.18,5.7,2.82,8.76t8.4,3.06a17,17,0,0,0,5-.6,21,21,0,0,0,2.7-1l.72,3.36a16.21,16.21,0,0,1-3.15,1.14,19.88,19.88,0,0,1-5.43.66,18.08,18.08,0,0,1-7-1.2,12.46,12.46,0,0,1-4.74-3.36,13.28,13.28,0,0,1-2.7-5.13A23.86,23.86,0,0,1,546.83,754.35Zm22-2.46q-.12-4.86-2.28-7.56a7.39,7.39,0,0,0-6.12-2.7,8.15,8.15,0,0,0-3.75.84,9.52,9.52,0,0,0-2.88,2.25A10.45,10.45,0,0,0,551.9,748a13.41,13.41,0,0,0-.81,3.9Z"/><path d="M593.39,754.35a19.69,19.69,0,0,1,1.17-7.11,15.66,15.66,0,0,1,3.06-5.07,12,12,0,0,1,4.32-3,13.16,13.16,0,0,1,5-1,11.7,11.7,0,0,1,9.09,3.72q3.39,3.72,3.39,11.46,0,.48,0,1t-.09.9H597.53q.18,5.7,2.82,8.76t8.4,3.06a17,17,0,0,0,5-.6,21,21,0,0,0,2.7-1l.72,3.36a16.21,16.21,0,0,1-3.15,1.14,19.88,19.88,0,0,1-5.43.66,18.08,18.08,0,0,1-7-1.2,12.46,12.46,0,0,1-4.74-3.36,13.28,13.28,0,0,1-2.7-5.13A23.86,23.86,0,0,1,593.39,754.35Zm22-2.46q-.12-4.86-2.28-7.56a7.39,7.39,0,0,0-6.12-2.7,8.15,8.15,0,0,0-3.75.84,9.52,9.52,0,0,0-2.88,2.25,10.45,10.45,0,0,0-1.92,3.27,13.41,13.41,0,0,0-.81,3.9Z"/><path d="M632.93,729.51a2.9,2.9,0,0,1-.84,2.19,3,3,0,0,1-4.08,0,3.27,3.27,0,0,1,0-4.38,3,3,0,0,1,4.08,0A2.9,2.9,0,0,1,632.93,729.51Zm-.9,40.38h-3.9v-31H632Z"/><path d="M662.57,766.29a6.85,6.85,0,0,1-1.08.69,17.12,17.12,0,0,1-1.77.81,13.73,13.73,0,0,1-2.4.69,15.51,15.51,0,0,1-3,.27,16.4,16.4,0,0,1-5.22-.84,11.66,11.66,0,0,1-4.41-2.64,13,13,0,0,1-3-4.65,18.69,18.69,0,0,1-1.14-6.93,17.86,17.86,0,0,1,1-6.12,14.45,14.45,0,0,1,2.91-4.89,13.21,13.21,0,0,1,4.62-3.24,15.47,15.47,0,0,1,6.15-1.17,33.74,33.74,0,0,1,6.93.57q2.61.57,4.29,1.11v28.32q0,7-3.6,9.93t-10.86,3a30,30,0,0,1-5.43-.45,29.33,29.33,0,0,1-4.17-1.05l.78-3.54a17.8,17.8,0,0,0,3.93,1.14,26.41,26.41,0,0,0,5,.48q5.52,0,8-2.13t2.49-7.29Zm-.06-23.64a23.14,23.14,0,0,0-2.64-.57,30,30,0,0,0-4.62-.27,10.87,10.87,0,0,0-4.47.87,9.45,9.45,0,0,0-3.33,2.46,10.87,10.87,0,0,0-2.1,3.78,15.4,15.4,0,0,0-.72,4.83,14.67,14.67,0,0,0,.84,5.25,10.3,10.3,0,0,0,2.19,3.57,8.18,8.18,0,0,0,3.09,2,10.33,10.33,0,0,0,3.54.63,14.31,14.31,0,0,0,4.83-.78,10.87,10.87,0,0,0,3.39-1.8Z"/><path d="M674.87,754.35a19.69,19.69,0,0,1,1.17-7.11,15.66,15.66,0,0,1,3.06-5.07,12,12,0,0,1,4.32-3,13.16,13.16,0,0,1,5-1,11.7,11.7,0,0,1,9.09,3.72q3.39,3.72,3.39,11.46,0,.48,0,1t-.09.9H679q.18,5.7,2.82,8.76t8.4,3.06a17,17,0,0,0,5-.6,21,21,0,0,0,2.7-1l.72,3.36a16.21,16.21,0,0,1-3.15,1.14,19.88,19.88,0,0,1-5.43.66,18.08,18.08,0,0,1-7-1.2,12.46,12.46,0,0,1-4.74-3.36,13.28,13.28,0,0,1-2.7-5.13A23.86,23.86,0,0,1,674.87,754.35Zm22-2.46q-.12-4.86-2.28-7.56a7.39,7.39,0,0,0-6.12-2.7,8.15,8.15,0,0,0-3.75.84,9.52,9.52,0,0,0-2.88,2.25,10.45,10.45,0,0,0-1.92,3.27,13.41,13.41,0,0,0-.81,3.9Z"/><path d="M709.61,740q1.74-.48,4.68-1.08a36.69,36.69,0,0,1,7.2-.6,15,15,0,0,1,5.91,1,9.08,9.08,0,0,1,3.78,2.91,11.87,11.87,0,0,1,2,4.53,26.28,26.28,0,0,1,.6,5.82v17.34h-3.9V753.81a29.38,29.38,0,0,0-.45-5.58,9.31,9.31,0,0,0-1.5-3.72,5.83,5.83,0,0,0-2.76-2.07,12.54,12.54,0,0,0-4.29-.63,32.82,32.82,0,0,0-4.77.3,14.62,14.62,0,0,0-2.61.54v27.24h-3.9Z"/><path d="M741.89,754.35a19.69,19.69,0,0,1,1.17-7.11,15.66,15.66,0,0,1,3.06-5.07,12,12,0,0,1,4.32-3,13.16,13.16,0,0,1,5-1,11.7,11.7,0,0,1,9.09,3.72q3.39,3.72,3.39,11.46,0,.48,0,1t-.09.9H746q.18,5.7,2.82,8.76t8.4,3.06a17,17,0,0,0,5-.6,21,21,0,0,0,2.7-1l.72,3.36a16.21,16.21,0,0,1-3.15,1.14,19.88,19.88,0,0,1-5.43.66,18.08,18.08,0,0,1-7-1.2,12.46,12.46,0,0,1-4.74-3.36,13.28,13.28,0,0,1-2.7-5.13A23.86,23.86,0,0,1,741.89,754.35Zm22-2.46q-.12-4.86-2.28-7.56a7.39,7.39,0,0,0-6.12-2.7,8.15,8.15,0,0,0-3.75.84,9.52,9.52,0,0,0-2.88,2.25A10.45,10.45,0,0,0,747,748a13.41,13.41,0,0,0-.81,3.9Z"/><path d="M782.15,767.31a3.36,3.36,0,0,1-.87,2.34,3.56,3.56,0,0,1-4.86,0,3.58,3.58,0,0,1,0-4.68,3.56,3.56,0,0,1,4.86,0A3.36,3.36,0,0,1,782.15,767.31Z"/></svg>