<?xml version="1.0" encoding="UTF-8"?>
<svg width="1540px" height="1080px" viewBox="0 0 1540 1080" version="1.1" xmlns="http://www.w3.org/2000/svg" xmlns:xlink="http://www.w3.org/1999/xlink">
    <!-- Generator: Sketch 50.2 (55047) - http://www.bohemiancoding.com/sketch -->
    <title>querformat_Text_Ubuntu</title>
    <desc>Created with Sketch.</desc>
    <defs>
        <linearGradient x1="-1.03812118%" y1="93.344833%" x2="101.03812%" y2="6.65516281%" id="linearGradient-1">
            <stop stop-color="#E8541F" offset="0%"></stop>
            <stop stop-color="#5D2650" offset="100%"></stop>
        </linearGradient>
    </defs>
    <g id="querformat_Text_Ubuntu" stroke="none" stroke-width="1" fill="none" fill-rule="evenodd">
        <polygon id="Fill-1" fill="url(#linearGradient-1)" points="0 1080 1540 1080 1540 0 0 0"></polygon>
        <path d="M155.69,279.66 C146.443287,279.66 138.463367,278.36168 131.75,275.765 C125.036633,273.16832 119.495022,269.558356 115.125,264.935 C110.754978,260.311644 107.52501,254.801699 105.435,248.405 C103.34499,242.008301 102.3,234.946705 102.3,227.22 L102.3,145.33 L131.94,145.33 L131.94,224.75 C131.94,230.070027 132.541661,234.598315 133.745,238.335 C134.948339,242.071685 136.59499,245.111655 138.685,247.455 C140.77501,249.798345 143.308318,251.476662 146.285,252.49 C149.261682,253.503338 152.523316,254.01 156.07,254.01 C163.290036,254.01 169.148311,251.793356 173.645,247.36 C178.141689,242.926645 180.39,235.390053 180.39,224.75 L180.39,145.33 L210.03,145.33 L210.03,227.22 C210.03,234.946705 208.953344,242.039968 206.8,248.5 C204.646656,254.960032 201.353356,260.501644 196.92,265.125 C192.486645,269.748356 186.850034,273.326654 180.01,275.86 C173.169966,278.393346 165.06338,279.66 155.69,279.66 Z M300.66,226.27 C300.66,208.029909 293.946734,198.91 280.52,198.91 C277.606652,198.91 274.725014,199.289996 271.875,200.05 C269.024986,200.810004 266.713342,201.759994 264.94,202.9 L264.94,254.39 C266.33334,254.643335 268.106656,254.864999 270.26,255.055 C272.413344,255.245001 274.756654,255.34 277.29,255.34 C285.016705,255.34 290.843314,252.680027 294.77,247.36 C298.696686,242.039973 300.66,235.010044 300.66,226.27 Z M329.54,227.03 C329.54,235.01004 328.368345,242.229968 326.025,248.69 C323.681655,255.150032 320.293356,260.659977 315.86,265.22 C311.426645,269.780023 305.980032,273.294988 299.52,275.765 C293.059968,278.235012 285.713374,279.47 277.48,279.47 C274.059983,279.47 270.481685,279.311668 266.745,278.995 C263.008315,278.678332 259.335018,278.266669 255.725,277.76 C252.114982,277.253331 248.66335,276.65167 245.37,275.955 C242.07665,275.25833 239.163346,274.530004 236.63,273.77 L236.63,134.12 L264.94,129.56 L264.94,179.34 C268.106682,177.94666 271.399983,176.870004 274.82,176.11 C278.240017,175.349996 281.913314,174.97 285.84,174.97 C292.933369,174.97 299.203306,176.204988 304.65,178.675 C310.096694,181.145012 314.656648,184.659977 318.33,189.22 C322.003352,193.780023 324.789991,199.258301 326.69,205.655 C328.59001,212.051699 329.54,219.176627 329.54,227.03 Z M436.7,273.58 C431.886643,274.97334 425.680038,276.271661 418.08,277.475 C410.479962,278.678339 402.500042,279.28 394.14,279.28 C385.653291,279.28 378.591695,278.140011 372.955,275.86 C367.318305,273.579989 362.85335,270.381687 359.56,266.265 C356.26665,262.148313 353.92334,257.240028 352.53,251.54 C351.13666,245.839971 350.44,239.570034 350.44,232.73 L350.44,177.06 L378.75,177.06 L378.75,229.31 C378.75,238.430046 379.953321,245.016646 382.36,249.07 C384.766679,253.123354 389.2633,255.15 395.85,255.15 C397.876677,255.15 400.029989,255.055001 402.31,254.865 C404.590011,254.674999 406.616658,254.453335 408.39,254.2 L408.39,177.06 L436.7,177.06 L436.7,273.58 Z M463.3,180.48 C468.113357,179.08666 474.319962,177.788339 481.92,176.585 C489.520038,175.381661 497.499958,174.78 505.86,174.78 C514.346709,174.78 521.408305,175.888322 527.045,178.105 C532.681695,180.321678 537.14665,183.456646 540.44,187.51 C543.73335,191.563354 546.07666,196.376639 547.47,201.95 C548.86334,207.523361 549.56,213.729966 549.56,220.57 L549.56,277 L521.25,277 L521.25,223.99 C521.25,214.869954 520.046679,208.410019 517.64,204.61 C515.233321,200.809981 510.7367,198.91 504.15,198.91 C502.123323,198.91 499.970011,199.004999 497.69,199.195 C495.409989,199.385001 493.383342,199.606665 491.61,199.86 L491.61,277 L463.3,277 L463.3,180.48 Z M574.26,152.17 L602.57,147.61 L602.57,177.06 L636.58,177.06 L636.58,200.62 L602.57,200.62 L602.57,235.77 C602.57,241.723363 603.61499,246.473316 605.705,250.02 C607.79501,253.566684 612.006635,255.34 618.34,255.34 C621.380015,255.34 624.514984,255.055003 627.745,254.485 C630.975016,253.914997 633.919987,253.123338 636.58,252.11 L640.57,274.15 C637.149983,275.54334 633.350021,276.746662 629.17,277.76 C624.989979,278.773338 619.86003,279.28 613.78,279.28 C606.053295,279.28 599.656692,278.23501 594.59,276.145 C589.523308,274.05499 585.470015,271.141685 582.43,267.405 C579.389985,263.668315 577.268339,259.140027 576.065,253.82 C574.861661,248.499973 574.26,242.610032 574.26,236.15 L574.26,152.17 Z M744.88,273.58 C740.066643,274.97334 733.860038,276.271661 726.26,277.475 C718.659962,278.678339 710.680042,279.28 702.32,279.28 C693.833291,279.28 686.771695,278.140011 681.135,275.86 C675.498305,273.579989 671.03335,270.381687 667.74,266.265 C664.44665,262.148313 662.10334,257.240028 660.71,251.54 C659.31666,245.839971 658.62,239.570034 658.62,232.73 L658.62,177.06 L686.93,177.06 L686.93,229.31 C686.93,238.430046 688.133321,245.016646 690.54,249.07 C692.946679,253.123354 697.4433,255.15 704.03,255.15 C706.056677,255.15 708.209989,255.055001 710.49,254.865 C712.770011,254.674999 714.796658,254.453335 716.57,254.2 L716.57,177.06 L744.88,177.06 L744.88,273.58 Z" id="Ubuntu-Copy" fill="#FFFFFF"></path>
        <path d="M110.868,365.964 C115.326689,365.964 117.556,364.438682 117.556,361.388 C117.556,360.449329 117.358002,359.650003 116.962,358.99 C116.565998,358.329997 116.03067,357.758002 115.356,357.274 C114.68133,356.789998 113.911338,356.372002 113.046,356.02 C112.180662,355.667998 111.264005,355.316002 110.296,354.964 C109.181328,354.582665 108.125338,354.150002 107.128,353.666 C106.130662,353.181998 105.265337,352.610003 104.532,351.95 C103.798663,351.289997 103.219335,350.505338 102.794,349.596 C102.368665,348.686662 102.156,347.586673 102.156,346.296 C102.156,343.626653 103.065324,341.544007 104.884,340.048 C106.702676,338.551993 109.210651,337.804 112.408,337.804 C114.256009,337.804 115.935326,338.001998 117.446,338.398 C118.956674,338.794002 120.063996,339.226664 120.768,339.696 L119.404,343.172 C118.787997,342.790665 117.871339,342.416669 116.654,342.05 C115.436661,341.683332 114.021341,341.5 112.408,341.5 C111.586663,341.5 110.824004,341.587999 110.12,341.764 C109.415996,341.940001 108.800003,342.203998 108.272,342.556 C107.743997,342.908002 107.326002,343.355331 107.018,343.898 C106.709998,344.440669 106.556,345.078663 106.556,345.812 C106.556,346.633337 106.717332,347.322664 107.04,347.88 C107.362668,348.437336 107.81733,348.928665 108.404,349.354 C108.99067,349.779335 109.672663,350.167998 110.45,350.52 C111.227337,350.872002 112.085329,351.223998 113.024,351.576 C114.344007,352.104003 115.553995,352.631997 116.654,353.16 C117.754006,353.688003 118.707329,354.318663 119.514,355.052 C120.320671,355.785337 120.943998,356.657995 121.384,357.67 C121.824002,358.682005 122.044,359.906659 122.044,361.344 C122.044,364.013347 121.068676,366.066659 119.118,367.504 C117.167324,368.941341 114.417351,369.66 110.868,369.66 C109.665327,369.66 108.558005,369.579334 107.546,369.418 C106.533995,369.256666 105.632004,369.066001 104.84,368.846 C104.047996,368.625999 103.366003,368.391335 102.794,368.142 C102.221997,367.892665 101.774668,367.680001 101.452,367.504 L102.728,363.984 C103.40267,364.365335 104.429326,364.790664 105.808,365.26 C107.186674,365.729336 108.873323,365.964 110.868,365.964 Z M142.812,357.604 C142.812,354.934653 142.152007,352.881341 140.832,351.444 C139.511993,350.006659 137.752011,349.288 135.552,349.288 C134.319994,349.288 133.359337,349.332 132.67,349.42 C131.980663,349.508 131.430669,349.610666 131.02,349.728 L131.02,364.16 C131.518669,364.570669 132.237329,364.966665 133.176,365.348 C134.114671,365.729335 135.141328,365.92 136.256,365.92 C137.429339,365.92 138.433996,365.707335 139.27,365.282 C140.106004,364.856665 140.787997,364.270004 141.316,363.522 C141.844003,362.773996 142.225332,361.894005 142.46,360.882 C142.694668,359.869995 142.812,358.777339 142.812,357.604 Z M147.08,357.604 C147.08,359.334675 146.852669,360.933326 146.398,362.4 C145.943331,363.866674 145.276004,365.127995 144.396,366.184 C143.515996,367.240005 142.438006,368.06133 141.162,368.648 C139.885994,369.23467 138.426675,369.528 136.784,369.528 C135.463993,369.528 134.298005,369.352002 133.286,369 C132.273995,368.647998 131.518669,368.310668 131.02,367.988 L131.02,377.14 L126.928,377.14 L126.928,346.824 C127.896005,346.589332 129.105993,346.332668 130.558,346.054 C132.010007,345.775332 133.689324,345.636 135.596,345.636 C137.356009,345.636 138.939993,345.914664 140.348,346.472 C141.756007,347.029336 142.958662,347.821328 143.956,348.848 C144.953338,349.874672 145.723331,351.128659 146.266,352.61 C146.808669,354.091341 147.08,355.755991 147.08,357.604 Z M161.292,345.636 C161.644002,345.636 162.047331,345.658 162.502,345.702 C162.956669,345.746 163.403998,345.804666 163.844,345.878 C164.284002,345.951334 164.687331,346.024666 165.054,346.098 C165.420669,346.171334 165.691999,346.237333 165.868,346.296 L165.164,349.86 C164.841332,349.742666 164.306004,349.603334 163.558,349.442 C162.809996,349.280666 161.849339,349.2 160.676,349.2 C159.91333,349.2 159.158004,349.280666 158.41,349.442 C157.661996,349.603334 157.170668,349.713333 156.936,349.772 L156.936,369 L152.844,369 L152.844,347.088 C153.812005,346.735998 155.014659,346.406002 156.452,346.098 C157.889341,345.789998 159.502658,345.636 161.292,345.636 Z M177.572,366.052 C178.540005,366.052 179.397996,366.03 180.146,365.986 C180.894004,365.942 181.517331,365.861334 182.016,365.744 L182.016,358.924 C181.722665,358.777333 181.246003,358.652667 180.586,358.55 C179.925997,358.447333 179.126671,358.396 178.188,358.396 C177.571997,358.396 176.919337,358.44 176.23,358.528 C175.540663,358.616 174.910003,358.799332 174.338,359.078 C173.765997,359.356668 173.289335,359.737998 172.908,360.222 C172.526665,360.706002 172.336,361.343996 172.336,362.136 C172.336,363.602674 172.805329,364.621997 173.744,365.194 C174.682671,365.766003 175.958659,366.052 177.572,366.052 Z M177.22,345.548 C178.862675,345.548 180.248661,345.760665 181.378,346.186 C182.507339,346.611335 183.416663,347.212663 184.106,347.99 C184.795337,348.767337 185.286665,349.691328 185.58,350.762 C185.873335,351.832672 186.02,353.013327 186.02,354.304 L186.02,368.604 C185.667998,368.662667 185.17667,368.743333 184.546,368.846 C183.91533,368.948667 183.204004,369.044 182.412,369.132 C181.619996,369.22 180.762005,369.300666 179.838,369.374 C178.913995,369.447334 177.997338,369.484 177.088,369.484 C175.797327,369.484 174.609339,369.352001 173.524,369.088 C172.438661,368.823999 171.500004,368.406003 170.708,367.834 C169.915996,367.261997 169.300002,366.506671 168.86,365.568 C168.419998,364.629329 168.2,363.500007 168.2,362.18 C168.2,360.91866 168.456664,359.833338 168.97,358.924 C169.483336,358.014662 170.179996,357.281336 171.06,356.724 C171.940004,356.166664 172.966661,355.756001 174.14,355.492 C175.313339,355.227999 176.545327,355.096 177.836,355.096 C178.246669,355.096 178.671998,355.118 179.112,355.162 C179.552002,355.206 179.969998,355.264666 180.366,355.338 C180.762002,355.411334 181.106665,355.477333 181.4,355.536 C181.693335,355.594667 181.898666,355.638667 182.016,355.668 L182.016,354.524 C182.016,353.84933 181.942667,353.182003 181.796,352.522 C181.649333,351.861997 181.385335,351.275336 181.004,350.762 C180.622665,350.248664 180.102003,349.838002 179.442,349.53 C178.781997,349.221998 177.924005,349.068 176.868,349.068 C175.51866,349.068 174.338005,349.163332 173.326,349.354 C172.313995,349.544668 171.558669,349.742666 171.06,349.948 L170.576,346.56 C171.104003,346.325332 171.983994,346.098001 173.216,345.878 C174.448006,345.657999 175.782659,345.548 177.22,345.548 Z M202.74,369.528 C200.891991,369.528 199.27134,369.23467 197.878,368.648 C196.48466,368.06133 195.311338,367.240005 194.358,366.184 C193.404662,365.127995 192.693336,363.874007 192.224,362.422 C191.754664,360.969993 191.52,359.364009 191.52,357.604 C191.52,355.843991 191.776664,354.230674 192.29,352.764 C192.803336,351.297326 193.529329,350.028672 194.468,348.958 C195.406671,347.887328 196.557993,347.051336 197.922,346.45 C199.286007,345.848664 200.803992,345.548 202.476,345.548 C203.502672,345.548 204.529328,345.635999 205.556,345.812 C206.582672,345.988001 207.565329,346.266665 208.504,346.648 L207.58,350.124 C206.963997,349.830665 206.252671,349.596001 205.446,349.42 C204.639329,349.243999 203.781338,349.156 202.872,349.156 C200.583989,349.156 198.831339,349.874659 197.614,351.312 C196.396661,352.749341 195.788,354.846653 195.788,357.604 C195.788,358.836006 195.927332,359.965328 196.206,360.992 C196.484668,362.018672 196.924664,362.898663 197.526,363.632 C198.127336,364.365337 198.897329,364.929998 199.836,365.326 C200.774671,365.722002 201.91866,365.92 203.268,365.92 C204.353339,365.92 205.335996,365.817334 206.216,365.612 C207.096004,365.406666 207.785331,365.186668 208.284,364.952 L208.856,368.384 C208.621332,368.530667 208.284002,368.669999 207.844,368.802 C207.403998,368.934001 206.905336,369.051333 206.348,369.154 C205.790664,369.256667 205.19667,369.344666 204.566,369.418 C203.93533,369.491334 203.32667,369.528 202.74,369.528 Z M213.256,369 L213.256,335.56 L217.348,334.856 L217.348,346.56 C218.11067,346.266665 218.924662,346.039334 219.79,345.878 C220.655338,345.716666 221.513329,345.636 222.364,345.636 C224.182676,345.636 225.693327,345.892664 226.896,346.406 C228.098673,346.919336 229.05933,347.637995 229.778,348.562 C230.49667,349.486005 231.002665,350.593327 231.296,351.884 C231.589335,353.174673 231.736,354.597326 231.736,356.152 L231.736,369 L227.644,369 L227.644,357.032 C227.644,355.623993 227.548668,354.421338 227.358,353.424 C227.167332,352.426662 226.852002,351.620003 226.412,351.004 C225.971998,350.387997 225.385337,349.940668 224.652,349.662 C223.918663,349.383332 223.009339,349.244 221.924,349.244 C221.483998,349.244 221.029336,349.273333 220.56,349.332 C220.090664,349.390667 219.643335,349.456666 219.218,349.53 C218.792665,349.603334 218.411335,349.684 218.074,349.772 C217.736665,349.86 217.494667,349.933333 217.348,349.992 L217.348,369 L213.256,369 Z M237.104,357.604 C237.104,355.57999 237.39733,353.812674 237.984,352.302 C238.57067,350.791326 239.347995,349.537338 240.316,348.54 C241.284005,347.542662 242.39866,346.794669 243.66,346.296 C244.92134,345.797331 246.211993,345.548 247.532,345.548 C250.612015,345.548 252.973325,346.508657 254.616,348.43 C256.258675,350.351343 257.08,353.277314 257.08,357.208 L257.08,357.89 C257.08,358.168668 257.065333,358.425332 257.036,358.66 L241.372,358.66 C241.548001,361.036012 242.237327,362.839994 243.44,364.072 C244.642673,365.304006 246.519987,365.92 249.072,365.92 C250.509341,365.92 251.719328,365.795335 252.702,365.546 C253.684672,365.296665 254.425331,365.054668 254.924,364.82 L255.496,368.252 C254.997331,368.516001 254.124673,368.794665 252.878,369.088 C251.631327,369.381335 250.216008,369.528 248.632,369.528 C246.637323,369.528 244.914007,369.227336 243.462,368.626 C242.009993,368.024664 240.814671,367.196005 239.876,366.14 C238.937329,365.083995 238.240669,363.830007 237.786,362.378 C237.331331,360.925993 237.104,359.334675 237.104,357.604 Z M252.812,355.36 C252.841333,353.511991 252.379338,351.994006 251.426,350.806 C250.472662,349.617994 249.160008,349.024 247.488,349.024 C246.549329,349.024 245.72067,349.207332 245.002,349.574 C244.28333,349.940669 243.674669,350.41733 243.176,351.004 C242.677331,351.59067 242.288668,352.26533 242.01,353.028 C241.731332,353.79067 241.548,354.567996 241.46,355.36 L252.812,355.36 Z M291.004,346.12 C289.859994,350.402688 288.518008,354.509314 286.978,358.44 C285.437992,362.370686 283.949341,365.890651 282.512,369 L278.816,369 C277.378659,365.890651 275.890008,362.370686 274.35,358.44 C272.809992,354.509314 271.468006,350.402688 270.324,346.12 L274.724,346.12 C275.076002,347.557341 275.493998,349.089992 275.978,350.718 C276.462002,352.346008 276.975331,353.959325 277.518,355.558 C278.060669,357.156675 278.610664,358.703993 279.168,360.2 C279.725336,361.696007 280.253331,363.030661 280.752,364.204 C281.250669,363.030661 281.778664,361.696007 282.336,360.2 C282.893336,358.703993 283.443331,357.156675 283.986,355.558 C284.528669,353.959325 285.041998,352.346008 285.526,350.718 C286.010002,349.089992 286.427998,347.557341 286.78,346.12 L291.004,346.12 Z M293.336,357.604 C293.336,355.57999 293.62933,353.812674 294.216,352.302 C294.80267,350.791326 295.579995,349.537338 296.548,348.54 C297.516005,347.542662 298.63066,346.794669 299.892,346.296 C301.15334,345.797331 302.443993,345.548 303.764,345.548 C306.844015,345.548 309.205325,346.508657 310.848,348.43 C312.490675,350.351343 313.312,353.277314 313.312,357.208 L313.312,357.89 C313.312,358.168668 313.297333,358.425332 313.268,358.66 L297.604,358.66 C297.780001,361.036012 298.469327,362.839994 299.672,364.072 C300.874673,365.304006 302.751987,365.92 305.304,365.92 C306.741341,365.92 307.951328,365.795335 308.934,365.546 C309.916672,365.296665 310.657331,365.054668 311.156,364.82 L311.728,368.252 C311.229331,368.516001 310.356673,368.794665 309.11,369.088 C307.863327,369.381335 306.448008,369.528 304.864,369.528 C302.869323,369.528 301.146007,369.227336 299.694,368.626 C298.241993,368.024664 297.046671,367.196005 296.108,366.14 C295.169329,365.083995 294.472669,363.830007 294.018,362.378 C293.563331,360.925993 293.336,359.334675 293.336,357.604 Z M309.044,355.36 C309.073333,353.511991 308.611338,351.994006 307.658,350.806 C306.704662,349.617994 305.392008,349.024 303.72,349.024 C302.781329,349.024 301.95267,349.207332 301.234,349.574 C300.51533,349.940669 299.906669,350.41733 299.408,351.004 C298.909331,351.59067 298.520668,352.26533 298.242,353.028 C297.963332,353.79067 297.78,354.567996 297.692,355.36 L309.044,355.36 Z M327.656,345.636 C328.008002,345.636 328.411331,345.658 328.866,345.702 C329.320669,345.746 329.767998,345.804666 330.208,345.878 C330.648002,345.951334 331.051332,346.024666 331.418,346.098 C331.784669,346.171334 332.055999,346.237333 332.232,346.296 L331.528,349.86 C331.205332,349.742666 330.670004,349.603334 329.922,349.442 C329.173996,349.280666 328.213339,349.2 327.04,349.2 C326.27733,349.2 325.522004,349.280666 324.774,349.442 C324.025996,349.603334 323.534668,349.713333 323.3,349.772 L323.3,369 L319.208,369 L319.208,347.088 C320.176005,346.735998 321.378659,346.406002 322.816,346.098 C324.253341,345.789998 325.866658,345.636 327.656,345.636 Z M340.284,347.132 C340.782669,346.809332 341.537995,346.472002 342.55,346.12 C343.562005,345.767998 344.727993,345.592 346.048,345.592 C347.690675,345.592 349.149994,345.88533 350.426,346.472 C351.702006,347.05867 352.779996,347.879995 353.66,348.936 C354.540004,349.992005 355.207331,351.253326 355.662,352.72 C356.116669,354.186674 356.344,355.799991 356.344,357.56 C356.344,359.408009 356.072669,361.072659 355.53,362.554 C354.987331,364.035341 354.217338,365.289328 353.22,366.316 C352.222662,367.342672 351.020007,368.134664 349.612,368.692 C348.203993,369.249336 346.620009,369.528 344.86,369.528 C342.953324,369.528 341.266674,369.396001 339.8,369.132 C338.333326,368.867999 337.130671,368.604001 336.192,368.34 L336.192,335.56 L340.284,334.856 L340.284,347.132 Z M340.284,365.436 C340.694669,365.553334 341.273996,365.663333 342.022,365.766 C342.770004,365.868667 343.701328,365.92 344.816,365.92 C347.016011,365.92 348.775993,365.194007 350.096,363.742 C351.416007,362.289993 352.076,360.229347 352.076,357.56 C352.076,356.386661 351.958668,355.286672 351.724,354.26 C351.489332,353.233328 351.108003,352.346004 350.58,351.598 C350.051997,350.849996 349.370004,350.263335 348.534,349.838 C347.697996,349.412665 346.693339,349.2 345.52,349.2 C344.405328,349.2 343.378671,349.390665 342.44,349.772 C341.501329,350.153335 340.782669,350.549331 340.284,350.96 L340.284,365.436 Z M366.2,369 L362.108,369 L362.108,346.12 L366.2,346.12 L366.2,369 Z M364.132,341.984 C363.398663,341.984 362.775336,341.742002 362.262,341.258 C361.748664,340.773998 361.492,340.121337 361.492,339.3 C361.492,338.478663 361.748664,337.826002 362.262,337.342 C362.775336,336.857998 363.398663,336.616 364.132,336.616 C364.865337,336.616 365.488664,336.857998 366.002,337.342 C366.515336,337.826002 366.772,338.478663 366.772,339.3 C366.772,340.121337 366.515336,340.773998 366.002,341.258 C365.488664,341.742002 364.865337,341.984 364.132,341.984 Z M373.24,346.78 C374.178671,346.545332 375.425326,346.296001 376.98,346.032 C378.534674,345.767999 380.32399,345.636 382.348,345.636 C384.166676,345.636 385.677327,345.892664 386.88,346.406 C388.082673,346.919336 389.04333,347.637995 389.762,348.562 C390.48067,349.486005 390.986665,350.593327 391.28,351.884 C391.573335,353.174673 391.72,354.597326 391.72,356.152 L391.72,369 L387.628,369 L387.628,357.032 C387.628,355.623993 387.532668,354.421338 387.342,353.424 C387.151332,352.426662 386.836002,351.620003 386.396,351.004 C385.955998,350.387997 385.369337,349.940668 384.636,349.662 C383.902663,349.383332 382.993339,349.244 381.908,349.244 C381.467998,349.244 381.013336,349.258667 380.544,349.288 C380.074664,349.317333 379.627335,349.354 379.202,349.398 C378.776665,349.442 378.395335,349.493333 378.058,349.552 C377.720665,349.610667 377.478667,349.654667 377.332,349.684 L377.332,369 L373.24,369 L373.24,346.78 Z M413.28,350.96 C412.781331,350.549331 412.062671,350.153335 411.124,349.772 C410.185329,349.390665 409.158672,349.2 408.044,349.2 C406.870661,349.2 405.866004,349.412665 405.03,349.838 C404.193996,350.263335 403.512003,350.849996 402.984,351.598 C402.455997,352.346004 402.074668,353.233328 401.84,354.26 C401.605332,355.286672 401.488,356.386661 401.488,357.56 C401.488,360.229347 402.147993,362.289993 403.468,363.742 C404.788007,365.194007 406.547989,365.92 408.748,365.92 C409.862672,365.92 410.793996,365.868667 411.542,365.766 C412.290004,365.663333 412.869331,365.553334 413.28,365.436 L413.28,350.96 Z M413.28,335.56 L417.372,334.856 L417.372,368.34 C416.433329,368.604001 415.230674,368.867999 413.764,369.132 C412.297326,369.396001 410.610676,369.528 408.704,369.528 C406.943991,369.528 405.360007,369.249336 403.952,368.692 C402.543993,368.134664 401.341338,367.342672 400.344,366.316 C399.346662,365.289328 398.576669,364.035341 398.034,362.554 C397.491331,361.072659 397.22,359.408009 397.22,357.56 C397.22,355.799991 397.447331,354.186674 397.902,352.72 C398.356669,351.253326 399.023996,349.992005 399.904,348.936 C400.784004,347.879995 401.861994,347.05867 403.138,346.472 C404.414006,345.88533 405.873325,345.592 407.516,345.592 C408.836007,345.592 410.001995,345.767998 411.014,346.12 C412.026005,346.472002 412.781331,346.809332 413.28,347.132 L413.28,335.56 Z M423.136,357.604 C423.136,355.57999 423.42933,353.812674 424.016,352.302 C424.60267,350.791326 425.379995,349.537338 426.348,348.54 C427.316005,347.542662 428.43066,346.794669 429.692,346.296 C430.95334,345.797331 432.243993,345.548 433.564,345.548 C436.644015,345.548 439.005325,346.508657 440.648,348.43 C442.290675,350.351343 443.112,353.277314 443.112,357.208 L443.112,357.89 C443.112,358.168668 443.097333,358.425332 443.068,358.66 L427.404,358.66 C427.580001,361.036012 428.269327,362.839994 429.472,364.072 C430.674673,365.304006 432.551987,365.92 435.104,365.92 C436.541341,365.92 437.751328,365.795335 438.734,365.546 C439.716672,365.296665 440.457331,365.054668 440.956,364.82 L441.528,368.252 C441.029331,368.516001 440.156673,368.794665 438.91,369.088 C437.663327,369.381335 436.248008,369.528 434.664,369.528 C432.669323,369.528 430.946007,369.227336 429.494,368.626 C428.041993,368.024664 426.846671,367.196005 425.908,366.14 C424.969329,365.083995 424.272669,363.830007 423.818,362.378 C423.363331,360.925993 423.136,359.334675 423.136,357.604 Z M438.844,355.36 C438.873333,353.511991 438.411338,351.994006 437.458,350.806 C436.504662,349.617994 435.192008,349.024 433.52,349.024 C432.581329,349.024 431.75267,349.207332 431.034,349.574 C430.31533,349.940669 429.706669,350.41733 429.208,351.004 C428.709331,351.59067 428.320668,352.26533 428.042,353.028 C427.763332,353.79067 427.58,354.567996 427.492,355.36 L438.844,355.36 Z M452.836,346.12 L461.504,346.12 L461.504,349.552 L452.836,349.552 L452.836,360.112 C452.836,361.256006 452.923999,362.201996 453.1,362.95 C453.276001,363.698004 453.539998,364.284665 453.892,364.71 C454.244002,365.135335 454.683997,365.435999 455.212,365.612 C455.740003,365.788001 456.355996,365.876 457.06,365.876 C458.292006,365.876 459.281996,365.736668 460.03,365.458 C460.778004,365.179332 461.298665,364.981334 461.592,364.864 L462.384,368.252 C461.973331,368.457334 461.254672,368.713998 460.228,369.022 C459.201328,369.330002 458.028007,369.484 456.708,369.484 C455.153326,369.484 453.870005,369.286002 452.858,368.89 C451.845995,368.493998 451.032003,367.900004 450.416,367.108 C449.799997,366.315996 449.367335,365.340672 449.118,364.182 C448.868665,363.023328 448.744,361.681341 448.744,360.156 L448.744,339.74 L452.836,339.036 L452.836,346.12 Z M472.02,366.624 C472.02,367.416004 471.756003,368.10533 471.228,368.692 C470.699997,369.27867 469.981338,369.572 469.072,369.572 C468.162662,369.572 467.444003,369.27867 466.916,368.692 C466.387997,368.10533 466.124,367.416004 466.124,366.624 C466.124,365.831996 466.387997,365.14267 466.916,364.556 C467.444003,363.96933 468.162662,363.676 469.072,363.676 C469.981338,363.676 470.699997,363.96933 471.228,364.556 C471.756003,365.14267 472.02,365.831996 472.02,366.624 Z" id="Sprache-verbindet." fill="#FFFFFF"></path>
        <path d="M106.88,426.3 C105.973329,426.3 105.18667,426.160001 104.52,425.88 C103.85333,425.599999 103.306669,425.216669 102.88,424.73 C102.453331,424.243331 102.136668,423.66667 101.93,423 C101.723332,422.33333 101.62,421.613337 101.62,420.84 L101.62,412.14 L103.56,412.14 L103.56,420.62 C103.56,422.006674 103.866664,423.01333 104.48,423.64 C105.093336,424.26667 105.893328,424.58 106.88,424.58 C107.373336,424.58 107.823331,424.503334 108.23,424.35 C108.636669,424.196666 108.986665,423.960002 109.28,423.64 C109.573335,423.319998 109.799999,422.910003 109.96,422.41 C110.120001,421.909997 110.2,421.313337 110.2,420.62 L110.2,412.14 L112.14,412.14 L112.14,420.84 C112.14,421.613337 112.036668,422.33333 111.83,423 C111.623332,423.66667 111.303336,424.243331 110.87,424.73 C110.436665,425.216669 109.890003,425.599999 109.23,425.88 C108.569997,426.160001 107.786671,426.3 106.88,426.3 Z M115.36,415.9 C115.786669,415.793333 116.35333,415.680001 117.06,415.56 C117.76667,415.439999 118.579995,415.38 119.5,415.38 C120.326671,415.38 121.013331,415.496666 121.56,415.73 C122.106669,415.963334 122.543332,416.289998 122.87,416.71 C123.196668,417.130002 123.426666,417.63333 123.56,418.22 C123.693334,418.80667 123.76,419.45333 123.76,420.16 L123.76,426 L121.9,426 L121.9,420.56 C121.9,419.919997 121.856667,419.373336 121.77,418.92 C121.683333,418.466664 121.540001,418.100001 121.34,417.82 C121.139999,417.539999 120.873335,417.336667 120.54,417.21 C120.206665,417.083333 119.793336,417.02 119.3,417.02 C119.099999,417.02 118.893334,417.026667 118.68,417.04 C118.466666,417.053333 118.263334,417.07 118.07,417.09 C117.876666,417.11 117.703334,417.133333 117.55,417.16 C117.396666,417.186667 117.286667,417.206667 117.22,417.22 L117.22,426 L115.36,426 L115.36,415.9 Z M133.74,417 C133.459999,417.306668 133.090002,417.739997 132.63,418.3 C132.169998,418.860003 131.676669,419.479997 131.15,420.16 C130.623331,420.840003 130.096669,421.55333 129.57,422.3 C129.043331,423.04667 128.580002,423.759997 128.18,424.44 L133.9,424.44 L133.9,426 L125.96,426 L125.96,424.76 C126.280002,424.17333 126.673331,423.52667 127.14,422.82 C127.606669,422.11333 128.096664,421.410004 128.61,420.71 C129.123336,420.009996 129.623331,419.350003 130.11,418.73 C130.596669,418.109997 131.019998,417.586669 131.38,417.16 L126.24,417.16 L126.24,415.6 L133.74,415.6 L133.74,417 Z M139.78,424.66 C140.220002,424.66 140.609998,424.65 140.95,424.63 C141.290002,424.61 141.573332,424.573334 141.8,424.52 L141.8,421.42 C141.666666,421.353333 141.450001,421.296667 141.15,421.25 C140.849998,421.203333 140.486669,421.18 140.06,421.18 C139.779999,421.18 139.483335,421.2 139.17,421.24 C138.856665,421.28 138.570001,421.363333 138.31,421.49 C138.049999,421.616667 137.833334,421.789999 137.66,422.01 C137.486666,422.230001 137.4,422.519998 137.4,422.88 C137.4,423.54667 137.613331,424.009999 138.04,424.27 C138.466669,424.530001 139.046663,424.66 139.78,424.66 Z M139.62,415.34 C140.36667,415.34 140.996664,415.436666 141.51,415.63 C142.023336,415.823334 142.436665,416.096665 142.75,416.45 C143.063335,416.803335 143.286666,417.223331 143.42,417.71 C143.553334,418.196669 143.62,418.73333 143.62,419.32 L143.62,425.82 C143.459999,425.846667 143.236668,425.883333 142.95,425.93 C142.663332,425.976667 142.340002,426.02 141.98,426.06 C141.619998,426.1 141.230002,426.136666 140.81,426.17 C140.389998,426.203333 139.973335,426.22 139.56,426.22 C138.97333,426.22 138.433336,426.160001 137.94,426.04 C137.446664,425.919999 137.020002,425.730001 136.66,425.47 C136.299998,425.209999 136.020001,424.866669 135.82,424.44 C135.619999,424.013331 135.52,423.500003 135.52,422.9 C135.52,422.326664 135.636665,421.833335 135.87,421.42 C136.103335,421.006665 136.419998,420.673335 136.82,420.42 C137.220002,420.166665 137.686664,419.980001 138.22,419.86 C138.753336,419.739999 139.31333,419.68 139.9,419.68 C140.086668,419.68 140.279999,419.69 140.48,419.71 C140.680001,419.73 140.869999,419.756666 141.05,419.79 C141.230001,419.823333 141.386666,419.853333 141.52,419.88 C141.653334,419.906667 141.746666,419.926667 141.8,419.94 L141.8,419.42 C141.8,419.113332 141.766667,418.810001 141.7,418.51 C141.633333,418.209998 141.513334,417.943334 141.34,417.71 C141.166666,417.476665 140.930002,417.290001 140.63,417.15 C140.329998,417.009999 139.940002,416.94 139.46,416.94 C138.846664,416.94 138.310002,416.983333 137.85,417.07 C137.389998,417.156667 137.046668,417.246666 136.82,417.34 L136.6,415.8 C136.840001,415.693333 137.239997,415.59 137.8,415.49 C138.360003,415.389999 138.966663,415.34 139.62,415.34 Z M138.02,413.68 C137.713332,413.68 137.443334,413.570001 137.21,413.35 C136.976665,413.129999 136.86,412.846668 136.86,412.5 C136.86,412.153332 136.976665,411.870001 137.21,411.65 C137.443334,411.429999 137.713332,411.32 138.02,411.32 C138.326668,411.32 138.596666,411.429999 138.83,411.65 C139.063334,411.870001 139.18,412.153332 139.18,412.5 C139.18,412.846668 139.063334,413.129999 138.83,413.35 C138.596666,413.570001 138.326668,413.68 138.02,413.68 Z M141.82,413.68 C141.513332,413.68 141.243335,413.570001 141.01,413.35 C140.776666,413.129999 140.66,412.846668 140.66,412.5 C140.66,412.153332 140.776666,411.870001 141.01,411.65 C141.243335,411.429999 141.513332,411.32 141.82,411.32 C142.126668,411.32 142.396666,411.429999 142.63,411.65 C142.863335,411.870001 142.98,412.153332 142.98,412.5 C142.98,412.846668 142.863335,413.129999 142.63,413.35 C142.396666,413.570001 142.126668,413.68 141.82,413.68 Z M146.7,426 L146.7,410.8 L148.56,410.48 L148.56,415.8 C148.906668,415.666666 149.276665,415.563334 149.67,415.49 C150.063335,415.416666 150.453331,415.38 150.84,415.38 C151.666671,415.38 152.353331,415.496666 152.9,415.73 C153.446669,415.963334 153.883332,416.289998 154.21,416.71 C154.536668,417.130002 154.766666,417.63333 154.9,418.22 C155.033334,418.80667 155.1,419.45333 155.1,420.16 L155.1,426 L153.24,426 L153.24,420.56 C153.24,419.919997 153.196667,419.373336 153.11,418.92 C153.023333,418.466664 152.880001,418.100001 152.68,417.82 C152.479999,417.539999 152.213335,417.336667 151.88,417.21 C151.546665,417.083333 151.133336,417.02 150.64,417.02 C150.439999,417.02 150.233334,417.033333 150.02,417.06 C149.806666,417.086667 149.603334,417.116667 149.41,417.15 C149.216666,417.183334 149.043334,417.22 148.89,417.26 C148.736666,417.3 148.626667,417.333333 148.56,417.36 L148.56,426 L146.7,426 Z M161.24,426.2 C160.093328,426.173333 159.280002,425.926669 158.8,425.46 C158.319998,424.993331 158.08,424.266672 158.08,423.28 L158.08,410.8 L159.94,410.48 L159.94,422.98 C159.94,423.286668 159.966666,423.539999 160.02,423.74 C160.073334,423.940001 160.159999,424.099999 160.28,424.22 C160.400001,424.340001 160.559999,424.43 160.76,424.49 C160.960001,424.55 161.206665,424.6 161.5,424.64 L161.24,426.2 Z M165.44,426 L163.58,426 L163.58,415.6 L165.44,415.6 L165.44,426 Z M164.5,413.72 C164.166665,413.72 163.883334,413.610001 163.65,413.39 C163.416666,413.169999 163.3,412.873335 163.3,412.5 C163.3,412.126665 163.416666,411.830001 163.65,411.61 C163.883334,411.389999 164.166665,411.28 164.5,411.28 C164.833335,411.28 165.116666,411.389999 165.35,411.61 C165.583335,411.830001 165.7,412.126665 165.7,412.5 C165.7,412.873335 165.583335,413.169999 165.35,413.39 C165.116666,413.610001 164.833335,413.72 164.5,413.72 Z M175.16,424.96 C174.999999,425.066667 174.690002,425.203332 174.23,425.37 C173.769998,425.536668 173.233336,425.62 172.62,425.62 C171.99333,425.62 171.403336,425.520001 170.85,425.32 C170.296664,425.119999 169.813335,424.810002 169.4,424.39 C168.986665,423.969998 168.660001,423.44667 168.42,422.82 C168.179999,422.19333 168.06,421.446671 168.06,420.58 C168.06,419.819996 168.173332,419.123336 168.4,418.49 C168.626668,417.856663 168.956664,417.310002 169.39,416.85 C169.823336,416.389998 170.35333,416.030001 170.98,415.77 C171.60667,415.509999 172.313329,415.38 173.1,415.38 C173.966671,415.38 174.72333,415.443333 175.37,415.57 C176.01667,415.696667 176.559998,415.813333 177,415.92 L177,425.2 C177,426.800008 176.586671,427.959996 175.76,428.68 C174.933329,429.400004 173.680008,429.76 172,429.76 C171.346663,429.76 170.730003,429.706667 170.15,429.6 C169.569997,429.493333 169.066669,429.366667 168.64,429.22 L168.98,427.6 C169.353335,427.746667 169.809997,427.876666 170.35,427.99 C170.890003,428.103334 171.45333,428.16 172.04,428.16 C173.146672,428.16 173.943331,427.940002 174.43,427.5 C174.916669,427.059998 175.16,426.360005 175.16,425.4 L175.16,424.96 Z M175.14,417.24 C174.953332,417.186666 174.703335,417.136667 174.39,417.09 C174.076665,417.043333 173.653336,417.02 173.12,417.02 C172.119995,417.02 171.350003,417.346663 170.81,418 C170.269997,418.653337 170,419.519995 170,420.6 C170,421.200003 170.076666,421.713331 170.23,422.14 C170.383334,422.566669 170.589999,422.919999 170.85,423.2 C171.110001,423.480001 171.409998,423.686666 171.75,423.82 C172.090002,423.953334 172.439998,424.02 172.8,424.02 C173.293336,424.02 173.746665,423.950001 174.16,423.81 C174.573335,423.669999 174.899999,423.506668 175.14,423.32 L175.14,417.24 Z M179.62,420.82 C179.62,419.899995 179.753332,419.09667 180.02,418.41 C180.286668,417.72333 180.639998,417.153336 181.08,416.7 C181.520002,416.246664 182.026664,415.906668 182.6,415.68 C183.173336,415.453332 183.759997,415.34 184.36,415.34 C185.760007,415.34 186.83333,415.776662 187.58,416.65 C188.32667,417.523338 188.7,418.853324 188.7,420.64 L188.7,420.95 C188.7,421.076667 188.693333,421.193333 188.68,421.3 L181.56,421.3 C181.64,422.380005 181.953331,423.199997 182.5,423.76 C183.046669,424.320003 183.899994,424.6 185.06,424.6 C185.713337,424.6 186.263331,424.543334 186.71,424.43 C187.156669,424.316666 187.493332,424.206667 187.72,424.1 L187.98,425.66 C187.753332,425.780001 187.35667,425.906666 186.79,426.04 C186.223331,426.173334 185.580004,426.24 184.86,426.24 C183.953329,426.24 183.170003,426.103335 182.51,425.83 C181.849997,425.556665 181.306669,425.180002 180.88,424.7 C180.453331,424.219998 180.136668,423.650003 179.93,422.99 C179.723332,422.329997 179.62,421.606671 179.62,420.82 Z M186.76,419.8 C186.773333,418.959996 186.563335,418.270003 186.13,417.73 C185.696664,417.189997 185.100004,416.92 184.34,416.92 C183.913331,416.92 183.536668,417.003332 183.21,417.17 C182.883332,417.336667 182.606668,417.553332 182.38,417.82 C182.153332,418.086668 181.976667,418.393332 181.85,418.74 C181.723333,419.086668 181.64,419.439998 181.6,419.8 L186.76,419.8 Z M201.28,426.3 C200.373329,426.3 199.58667,426.160001 198.92,425.88 C198.25333,425.599999 197.706669,425.216669 197.28,424.73 C196.853331,424.243331 196.536668,423.66667 196.33,423 C196.123332,422.33333 196.02,421.613337 196.02,420.84 L196.02,412.14 L197.96,412.14 L197.96,420.62 C197.96,422.006674 198.266664,423.01333 198.88,423.64 C199.493336,424.26667 200.293328,424.58 201.28,424.58 C201.773336,424.58 202.223331,424.503334 202.63,424.35 C203.036669,424.196666 203.386665,423.960002 203.68,423.64 C203.973335,423.319998 204.199999,422.910003 204.36,422.41 C204.520001,421.909997 204.6,421.313337 204.6,420.62 L204.6,412.14 L206.54,412.14 L206.54,420.84 C206.54,421.613337 206.436668,422.33333 206.23,423 C206.023332,423.66667 205.703336,424.243331 205.27,424.73 C204.836664,425.216669 204.290003,425.599999 203.63,425.88 C202.969997,426.160001 202.186671,426.3 201.28,426.3 Z M212.18,424.66 C212.940004,424.66 213.503332,424.560001 213.87,424.36 C214.236669,424.159999 214.42,423.840002 214.42,423.4 C214.42,422.946664 214.240002,422.586668 213.88,422.32 C213.519998,422.053332 212.926671,421.753335 212.1,421.42 C211.699998,421.259999 211.316669,421.096668 210.95,420.93 C210.583332,420.763332 210.266668,420.566668 210,420.34 C209.733332,420.113332 209.520001,419.840002 209.36,419.52 C209.199999,419.199998 209.12,418.806669 209.12,418.34 C209.12,417.419995 209.459997,416.690003 210.14,416.15 C210.820003,415.609997 211.746661,415.34 212.92,415.34 C213.213335,415.34 213.506665,415.356667 213.8,415.39 C214.093335,415.423334 214.366665,415.463333 214.62,415.51 C214.873335,415.556667 215.096666,415.606666 215.29,415.66 C215.483334,415.713334 215.633333,415.76 215.74,415.8 L215.4,417.4 C215.199999,417.293333 214.886669,417.183334 214.46,417.07 C214.033331,416.956666 213.520003,416.9 212.92,416.9 C212.399997,416.9 211.946669,417.003332 211.56,417.21 C211.173331,417.416668 210.98,417.739998 210.98,418.18 C210.98,418.406668 211.023333,418.606666 211.11,418.78 C211.196667,418.953334 211.329999,419.109999 211.51,419.25 C211.690001,419.390001 211.913332,419.519999 212.18,419.64 C212.446668,419.760001 212.766665,419.886666 213.14,420.02 C213.633336,420.206668 214.073331,420.389999 214.46,420.57 C214.846669,420.750001 215.176665,420.959999 215.45,421.2 C215.723335,421.440001 215.933333,421.729998 216.08,422.07 C216.226667,422.410002 216.3,422.826664 216.3,423.32 C216.3,424.280005 215.943337,425.006664 215.23,425.5 C214.516663,425.993336 213.500007,426.24 212.18,426.24 C211.259995,426.24 210.540003,426.163334 210.02,426.01 C209.499997,425.856666 209.146668,425.74 208.96,425.66 L209.3,424.06 C209.513334,424.14 209.853331,424.259999 210.32,424.42 C210.786669,424.580001 211.406663,424.66 212.18,424.66 Z M218.1,420.82 C218.1,419.899995 218.233332,419.09667 218.5,418.41 C218.766668,417.72333 219.119998,417.153336 219.56,416.7 C220.000002,416.246664 220.506664,415.906668 221.08,415.68 C221.653336,415.453332 222.239997,415.34 222.84,415.34 C224.240007,415.34 225.31333,415.776662 226.06,416.65 C226.80667,417.523338 227.18,418.853324 227.18,420.64 L227.18,420.95 C227.18,421.076667 227.173333,421.193333 227.16,421.3 L220.04,421.3 C220.12,422.380005 220.433331,423.199997 220.98,423.76 C221.526669,424.320003 222.379994,424.6 223.54,424.6 C224.193337,424.6 224.743331,424.543334 225.19,424.43 C225.636669,424.316666 225.973332,424.206667 226.2,424.1 L226.46,425.66 C226.233332,425.780001 225.83667,425.906666 225.27,426.04 C224.70333,426.173334 224.060004,426.24 223.34,426.24 C222.433329,426.24 221.650003,426.103335 220.99,425.83 C220.329997,425.556665 219.786669,425.180002 219.36,424.7 C218.933331,424.219998 218.616668,423.650003 218.41,422.99 C218.203332,422.329997 218.1,421.606671 218.1,420.82 Z M225.24,419.8 C225.253333,418.959996 225.043336,418.270003 224.61,417.73 C224.176665,417.189997 223.580004,416.92 222.82,416.92 C222.393331,416.92 222.016668,417.003332 221.69,417.17 C221.363332,417.336667 221.086668,417.553332 220.86,417.82 C220.633332,418.086668 220.456667,418.393332 220.33,418.74 C220.203333,419.086668 220.12,419.439998 220.08,419.8 L225.24,419.8 Z M233.7,415.38 C233.860001,415.38 234.043332,415.39 234.25,415.41 C234.456668,415.43 234.659999,415.456666 234.86,415.49 C235.060001,415.523333 235.243333,415.556667 235.41,415.59 C235.576668,415.623334 235.7,415.653333 235.78,415.68 L235.46,417.3 C235.313333,417.246666 235.070002,417.183334 234.73,417.11 C234.389998,417.036666 233.953336,417 233.42,417 C233.073332,417 232.730002,417.036666 232.39,417.11 C232.049998,417.183334 231.826667,417.233333 231.72,417.26 L231.72,426 L229.86,426 L229.86,416.04 C230.300002,415.879999 230.846663,415.730001 231.5,415.59 C232.153337,415.449999 232.886663,415.38 233.7,415.38 Z M238.44,423.72 C238.453333,423.826667 238.46,423.93 238.46,424.03 L238.46,424.34 C238.46,425.180004 238.336668,426.009996 238.09,426.83 C237.843332,427.650004 237.506669,428.43333 237.08,429.18 L235.64,428.72 C235.973335,428.039997 236.193333,427.350004 236.3,426.65 C236.406667,425.949996 236.46,425.293336 236.46,424.68 C236.46,424.506666 236.456667,424.340001 236.45,424.18 C236.443333,424.019999 236.433333,423.866667 236.42,423.72 L238.44,423.72 Z M248.94,429.74 C248.779999,429.74 248.573335,429.72 248.32,429.68 C248.066665,429.64 247.853334,429.586667 247.68,429.52 L247.92,428 C248.053334,428.04 248.206666,428.073333 248.38,428.1 C248.553334,428.126667 248.713333,428.14 248.86,428.14 C249.500003,428.14 249.956665,427.943335 250.23,427.55 C250.503335,427.156665 250.64,426.580004 250.64,425.82 L250.64,415.6 L252.5,415.6 L252.5,425.8 C252.5,427.13334 252.19667,428.12333 251.59,428.77 C250.98333,429.41667 250.100006,429.74 248.94,429.74 Z M251.56,413.72 C251.226665,413.72 250.943335,413.610001 250.71,413.39 C250.476666,413.169999 250.36,412.873335 250.36,412.5 C250.36,412.126665 250.476666,411.830001 250.71,411.61 C250.943335,411.389999 251.226665,411.28 251.56,411.28 C251.893335,411.28 252.176666,411.389999 252.41,411.61 C252.643335,411.830001 252.76,412.126665 252.76,412.5 C252.76,412.873335 252.643335,413.169999 252.41,413.39 C252.176666,413.610001 251.893335,413.72 251.56,413.72 Z M255.12,420.82 C255.12,419.899995 255.253332,419.09667 255.52,418.41 C255.786668,417.72333 256.139998,417.153336 256.58,416.7 C257.020002,416.246664 257.526664,415.906668 258.1,415.68 C258.673336,415.453332 259.259997,415.34 259.86,415.34 C261.260007,415.34 262.33333,415.776662 263.08,416.65 C263.82667,417.523338 264.2,418.853324 264.2,420.64 L264.2,420.95 C264.2,421.076667 264.193333,421.193333 264.18,421.3 L257.06,421.3 C257.14,422.380005 257.453331,423.199997 258,423.76 C258.546669,424.320003 259.399994,424.6 260.56,424.6 C261.213337,424.6 261.763331,424.543334 262.21,424.43 C262.656669,424.316666 262.993332,424.206667 263.22,424.1 L263.48,425.66 C263.253332,425.780001 262.85667,425.906666 262.29,426.04 C261.723331,426.173334 261.080004,426.24 260.36,426.24 C259.453329,426.24 258.670003,426.103335 258.01,425.83 C257.349997,425.556665 256.806669,425.180002 256.38,424.7 C255.953331,424.219998 255.636668,423.650003 255.43,422.99 C255.223332,422.329997 255.12,421.606671 255.12,420.82 Z M262.26,419.8 C262.273333,418.959996 262.063335,418.270003 261.63,417.73 C261.196664,417.189997 260.600004,416.92 259.84,416.92 C259.413331,416.92 259.036668,417.003332 258.71,417.17 C258.383332,417.336667 258.106668,417.553332 257.88,417.82 C257.653332,418.086668 257.476667,418.393332 257.35,418.74 C257.223333,419.086668 257.14,419.439998 257.1,419.8 L262.26,419.8 Z M273.6,417.8 C273.373332,417.613332 273.046669,417.433334 272.62,417.26 C272.193331,417.086666 271.726669,417 271.22,417 C270.686664,417 270.230002,417.096666 269.85,417.29 C269.469998,417.483334 269.160001,417.749998 268.92,418.09 C268.679999,418.430002 268.506667,418.833331 268.4,419.3 C268.293333,419.766669 268.24,420.266664 268.24,420.8 C268.24,422.013339 268.539997,422.949997 269.14,423.61 C269.740003,424.270003 270.539995,424.6 271.54,424.6 C272.046669,424.6 272.469998,424.576667 272.81,424.53 C273.150002,424.483333 273.413332,424.433334 273.6,424.38 L273.6,417.8 Z M273.6,410.8 L275.46,410.48 L275.46,425.7 C275.033331,425.820001 274.48667,425.939999 273.82,426.06 C273.15333,426.180001 272.386671,426.24 271.52,426.24 C270.719996,426.24 270.000003,426.113335 269.36,425.86 C268.719997,425.606665 268.173336,425.246669 267.72,424.78 C267.266664,424.313331 266.916668,423.743337 266.67,423.07 C266.423332,422.396663 266.3,421.640004 266.3,420.8 C266.3,419.999996 266.403332,419.26667 266.61,418.6 C266.816668,417.93333 267.119998,417.360002 267.52,416.88 C267.920002,416.399998 268.409997,416.026668 268.99,415.76 C269.570003,415.493332 270.23333,415.36 270.98,415.36 C271.580003,415.36 272.109998,415.439999 272.57,415.6 C273.030002,415.760001 273.373332,415.913333 273.6,416.06 L273.6,410.8 Z M278.08,420.82 C278.08,419.899995 278.213332,419.09667 278.48,418.41 C278.746668,417.72333 279.099998,417.153336 279.54,416.7 C279.980002,416.246664 280.486664,415.906668 281.06,415.68 C281.633336,415.453332 282.219997,415.34 282.82,415.34 C284.220007,415.34 285.29333,415.776662 286.04,416.65 C286.78667,417.523338 287.16,418.853324 287.16,420.64 L287.16,420.95 C287.16,421.076667 287.153333,421.193333 287.14,421.3 L280.02,421.3 C280.1,422.380005 280.413331,423.199997 280.96,423.76 C281.506669,424.320003 282.359994,424.6 283.52,424.6 C284.173337,424.6 284.723331,424.543334 285.17,424.43 C285.616669,424.316666 285.953332,424.206667 286.18,424.1 L286.44,425.66 C286.213332,425.780001 285.816669,425.906666 285.25,426.04 C284.683331,426.173334 284.040004,426.24 283.32,426.24 C282.413329,426.24 281.630003,426.103335 280.97,425.83 C280.309997,425.556665 279.766669,425.180002 279.34,424.7 C278.913331,424.219998 278.596668,423.650003 278.39,422.99 C278.183332,422.329997 278.08,421.606671 278.08,420.82 Z M285.22,419.8 C285.233333,418.959996 285.023336,418.270003 284.59,417.73 C284.156665,417.189997 283.560004,416.92 282.8,416.92 C282.373331,416.92 281.996668,417.003332 281.67,417.17 C281.343332,417.336667 281.066668,417.553332 280.84,417.82 C280.613332,418.086668 280.436667,418.393332 280.31,418.74 C280.183333,419.086668 280.1,419.439998 280.06,419.8 L285.22,419.8 Z M293.68,415.38 C293.840001,415.38 294.023332,415.39 294.23,415.41 C294.436668,415.43 294.639999,415.456666 294.84,415.49 C295.040001,415.523333 295.223333,415.556667 295.39,415.59 C295.556668,415.623334 295.68,415.653333 295.76,415.68 L295.44,417.3 C295.293333,417.246666 295.050002,417.183334 294.71,417.11 C294.369998,417.036666 293.933336,417 293.4,417 C293.053332,417 292.710002,417.036666 292.37,417.11 C292.029998,417.183334 291.806667,417.233333 291.7,417.26 L291.7,426 L289.84,426 L289.84,416.04 C290.280002,415.879999 290.826663,415.730001 291.48,415.59 C292.133337,415.449999 292.866663,415.38 293.68,415.38 Z M308.52,424.08 C308.386666,423.759998 308.210001,423.353336 307.99,422.86 C307.769999,422.366664 307.533335,421.833336 307.28,421.26 C307.026665,420.686664 306.756668,420.09667 306.47,419.49 C306.183332,418.88333 305.913335,418.310003 305.66,417.77 C305.406665,417.229997 305.170001,416.746669 304.95,416.32 C304.729999,415.893331 304.553334,415.566668 304.42,415.34 C304.273333,416.913341 304.153334,418.616657 304.06,420.45 C303.966666,422.283343 303.886667,424.133324 303.82,426 L301.92,426 C301.973334,424.799994 302.033333,423.590006 302.1,422.37 C302.166667,421.149994 302.243333,419.950006 302.33,418.77 C302.416667,417.589994 302.51,416.440006 302.61,415.32 C302.710001,414.199994 302.819999,413.140005 302.94,412.14 L304.64,412.14 C305.000002,412.72667 305.386665,413.419996 305.8,414.22 C306.213335,415.020004 306.626665,415.856662 307.04,416.73 C307.453335,417.603338 307.853331,418.476662 308.24,419.35 C308.626669,420.223338 308.979998,421.019996 309.3,421.74 C309.620002,421.019996 309.973331,420.223338 310.36,419.35 C310.746669,418.476662 311.146665,417.603338 311.56,416.73 C311.973335,415.856662 312.386665,415.020004 312.8,414.22 C313.213335,413.419996 313.599998,412.72667 313.96,412.14 L315.66,412.14 C316.113336,416.606689 316.453332,421.226643 316.68,426 L314.78,426 C314.713333,424.133324 314.633334,422.283343 314.54,420.45 C314.446666,418.616657 314.326667,416.913341 314.18,415.34 C314.046666,415.566668 313.870001,415.893331 313.65,416.32 C313.429999,416.746669 313.193335,417.229997 312.94,417.77 C312.686665,418.310003 312.416668,418.88333 312.13,419.49 C311.843332,420.09667 311.573335,420.686664 311.32,421.26 C311.066665,421.833336 310.830001,422.366664 310.61,422.86 C310.389999,423.353336 310.213334,423.759998 310.08,424.08 L308.52,424.08 Z M319.02,420.82 C319.02,419.899995 319.153332,419.09667 319.42,418.41 C319.686668,417.72333 320.039998,417.153336 320.48,416.7 C320.920002,416.246664 321.426664,415.906668 322,415.68 C322.573336,415.453332 323.159997,415.34 323.76,415.34 C325.160007,415.34 326.23333,415.776662 326.98,416.65 C327.72667,417.523338 328.1,418.853324 328.1,420.64 L328.1,420.95 C328.1,421.076667 328.093333,421.193333 328.08,421.3 L320.96,421.3 C321.04,422.380005 321.353331,423.199997 321.9,423.76 C322.446669,424.320003 323.299994,424.6 324.46,424.6 C325.113337,424.6 325.663331,424.543334 326.11,424.43 C326.556669,424.316666 326.893332,424.206667 327.12,424.1 L327.38,425.66 C327.153332,425.780001 326.75667,425.906666 326.19,426.04 C325.623331,426.173334 324.980004,426.24 324.26,426.24 C323.353329,426.24 322.570003,426.103335 321.91,425.83 C321.249997,425.556665 320.706669,425.180002 320.28,424.7 C319.853331,424.219998 319.536668,423.650003 319.33,422.99 C319.123332,422.329997 319.02,421.606671 319.02,420.82 Z M326.16,419.8 C326.173333,418.959996 325.963336,418.270003 325.53,417.73 C325.096665,417.189997 324.500004,416.92 323.74,416.92 C323.313331,416.92 322.936668,417.003332 322.61,417.17 C322.283332,417.336667 322.006668,417.553332 321.78,417.82 C321.553332,418.086668 321.376667,418.393332 321.25,418.74 C321.123333,419.086668 321.04,419.439998 321,419.8 L326.16,419.8 Z M330.78,415.9 C331.206669,415.793333 331.77333,415.680001 332.48,415.56 C333.18667,415.439999 333.999995,415.38 334.92,415.38 C335.746671,415.38 336.433331,415.496666 336.98,415.73 C337.526669,415.963334 337.963332,416.289998 338.29,416.71 C338.616668,417.130002 338.846666,417.63333 338.98,418.22 C339.113334,418.80667 339.18,419.45333 339.18,420.16 L339.18,426 L337.32,426 L337.32,420.56 C337.32,419.919997 337.276667,419.373336 337.19,418.92 C337.103333,418.466664 336.960001,418.100001 336.76,417.82 C336.559999,417.539999 336.293335,417.336667 335.96,417.21 C335.626665,417.083333 335.213336,417.02 334.72,417.02 C334.519999,417.02 334.313334,417.026667 334.1,417.04 C333.886666,417.053333 333.683334,417.07 333.49,417.09 C333.296666,417.11 333.123334,417.133333 332.97,417.16 C332.816666,417.186667 332.706667,417.206667 332.64,417.22 L332.64,426 L330.78,426 L330.78,415.9 Z M344.68,424.66 C345.440004,424.66 346.003332,424.560001 346.37,424.36 C346.736669,424.159999 346.92,423.840002 346.92,423.4 C346.92,422.946664 346.740002,422.586668 346.38,422.32 C346.019998,422.053332 345.426671,421.753335 344.6,421.42 C344.199998,421.259999 343.816669,421.096668 343.45,420.93 C343.083332,420.763332 342.766668,420.566668 342.5,420.34 C342.233332,420.113332 342.020001,419.840002 341.86,419.52 C341.699999,419.199998 341.62,418.806669 341.62,418.34 C341.62,417.419995 341.959997,416.690003 342.64,416.15 C343.320003,415.609997 344.246661,415.34 345.42,415.34 C345.713335,415.34 346.006665,415.356667 346.3,415.39 C346.593335,415.423334 346.866665,415.463333 347.12,415.51 C347.373335,415.556667 347.596666,415.606666 347.79,415.66 C347.983334,415.713334 348.133333,415.76 348.24,415.8 L347.9,417.4 C347.699999,417.293333 347.386669,417.183334 346.96,417.07 C346.533331,416.956666 346.020003,416.9 345.42,416.9 C344.899997,416.9 344.446669,417.003332 344.06,417.21 C343.673331,417.416668 343.48,417.739998 343.48,418.18 C343.48,418.406668 343.523333,418.606666 343.61,418.78 C343.696667,418.953334 343.829999,419.109999 344.01,419.25 C344.190001,419.390001 344.413332,419.519999 344.68,419.64 C344.946668,419.760001 345.266665,419.886666 345.64,420.02 C346.133336,420.206668 346.573331,420.389999 346.96,420.57 C347.346669,420.750001 347.676665,420.959999 347.95,421.2 C348.223335,421.440001 348.433333,421.729998 348.58,422.07 C348.726667,422.410002 348.8,422.826664 348.8,423.32 C348.8,424.280005 348.443337,425.006664 347.73,425.5 C347.016663,425.993336 346.000007,426.24 344.68,426.24 C343.759995,426.24 343.040003,426.163334 342.52,426.01 C341.999997,425.856666 341.646668,425.74 341.46,425.66 L341.8,424.06 C342.013334,424.14 342.353331,424.259999 342.82,424.42 C343.286669,424.580001 343.906663,424.66 344.68,424.66 Z M355.7,426.24 C354.859996,426.24 354.123337,426.106668 353.49,425.84 C352.856664,425.573332 352.323336,425.200002 351.89,424.72 C351.456665,424.239998 351.133334,423.670003 350.92,423.01 C350.706666,422.349997 350.6,421.620004 350.6,420.82 C350.6,420.019996 350.716666,419.28667 350.95,418.62 C351.183335,417.95333 351.513331,417.376669 351.94,416.89 C352.366669,416.403331 352.889997,416.023335 353.51,415.75 C354.130003,415.476665 354.819996,415.34 355.58,415.34 C356.046669,415.34 356.513331,415.38 356.98,415.46 C357.446669,415.54 357.893331,415.666666 358.32,415.84 L357.9,417.42 C357.619999,417.286666 357.296669,417.18 356.93,417.1 C356.563332,417.02 356.173335,416.98 355.76,416.98 C354.719995,416.98 353.923336,417.306663 353.37,417.96 C352.816664,418.613337 352.54,419.56666 352.54,420.82 C352.54,421.380003 352.603333,421.893331 352.73,422.36 C352.856667,422.826669 353.056665,423.226665 353.33,423.56 C353.603335,423.893335 353.953331,424.149999 354.38,424.33 C354.806669,424.510001 355.326664,424.6 355.94,424.6 C356.433336,424.6 356.879998,424.553334 357.28,424.46 C357.680002,424.366666 357.993332,424.266667 358.22,424.16 L358.48,425.72 C358.373333,425.786667 358.220001,425.85 358.02,425.91 C357.819999,425.97 357.593335,426.023333 357.34,426.07 C357.086665,426.116667 356.816668,426.156667 356.53,426.19 C356.243332,426.223334 355.966668,426.24 355.7,426.24 Z M360.48,426 L360.48,410.8 L362.34,410.48 L362.34,415.8 C362.686668,415.666666 363.056665,415.563334 363.45,415.49 C363.843335,415.416666 364.233331,415.38 364.62,415.38 C365.446671,415.38 366.133331,415.496666 366.68,415.73 C367.226669,415.963334 367.663332,416.289998 367.99,416.71 C368.316668,417.130002 368.546666,417.63333 368.68,418.22 C368.813334,418.80667 368.88,419.45333 368.88,420.16 L368.88,426 L367.02,426 L367.02,420.56 C367.02,419.919997 366.976667,419.373336 366.89,418.92 C366.803333,418.466664 366.660001,418.100001 366.46,417.82 C366.259999,417.539999 365.993335,417.336667 365.66,417.21 C365.326665,417.083333 364.913336,417.02 364.42,417.02 C364.219999,417.02 364.013334,417.033333 363.8,417.06 C363.586666,417.086667 363.383334,417.116667 363.19,417.15 C362.996666,417.183334 362.823334,417.22 362.67,417.26 C362.516666,417.3 362.406667,417.333333 362.34,417.36 L362.34,426 L360.48,426 Z M375.94,420.82 C375.94,419.899995 376.073332,419.09667 376.34,418.41 C376.606668,417.72333 376.959998,417.153336 377.4,416.7 C377.840002,416.246664 378.346664,415.906668 378.92,415.68 C379.493336,415.453332 380.079997,415.34 380.68,415.34 C382.080007,415.34 383.15333,415.776662 383.9,416.65 C384.64667,417.523338 385.02,418.853324 385.02,420.64 L385.02,420.95 C385.02,421.076667 385.013333,421.193333 385,421.3 L377.88,421.3 C377.96,422.380005 378.273331,423.199997 378.82,423.76 C379.366669,424.320003 380.219994,424.6 381.38,424.6 C382.033337,424.6 382.583331,424.543334 383.03,424.43 C383.476669,424.316666 383.813332,424.206667 384.04,424.1 L384.3,425.66 C384.073332,425.780001 383.67667,425.906666 383.11,426.04 C382.543331,426.173334 381.900004,426.24 381.18,426.24 C380.273329,426.24 379.490003,426.103335 378.83,425.83 C378.169997,425.556665 377.626669,425.180002 377.2,424.7 C376.773331,424.219998 376.456668,423.650003 376.25,422.99 C376.043332,422.329997 375.94,421.606671 375.94,420.82 Z M383.08,419.8 C383.093333,418.959996 382.883336,418.270003 382.45,417.73 C382.016665,417.189997 381.420004,416.92 380.66,416.92 C380.233331,416.92 379.856668,417.003332 379.53,417.17 C379.203332,417.336667 378.926668,417.553332 378.7,417.82 C378.473332,418.086668 378.296667,418.393332 378.17,418.74 C378.043333,419.086668 377.96,419.439998 377.92,419.8 L383.08,419.8 Z M389.56,426 L387.7,426 L387.7,415.6 L389.56,415.6 L389.56,426 Z M388.62,413.72 C388.286665,413.72 388.003335,413.610001 387.77,413.39 C387.536666,413.169999 387.42,412.873335 387.42,412.5 C387.42,412.126665 387.536666,411.830001 387.77,411.61 C388.003335,411.389999 388.286665,411.28 388.62,411.28 C388.953335,411.28 389.236666,411.389999 389.47,411.61 C389.703335,411.830001 389.82,412.126665 389.82,412.5 C389.82,412.873335 389.703335,413.169999 389.47,413.39 C389.236666,413.610001 388.953335,413.72 388.62,413.72 Z M392.76,415.9 C393.186669,415.793333 393.75333,415.680001 394.46,415.56 C395.16667,415.439999 395.979995,415.38 396.9,415.38 C397.726671,415.38 398.413331,415.496666 398.96,415.73 C399.506669,415.963334 399.943332,416.289998 400.27,416.71 C400.596668,417.130002 400.826666,417.63333 400.96,418.22 C401.093334,418.80667 401.16,419.45333 401.16,420.16 L401.16,426 L399.3,426 L399.3,420.56 C399.3,419.919997 399.256667,419.373336 399.17,418.92 C399.083333,418.466664 398.940001,418.100001 398.74,417.82 C398.539999,417.539999 398.273335,417.336667 397.94,417.21 C397.606665,417.083333 397.193336,417.02 396.7,417.02 C396.499999,417.02 396.293334,417.026667 396.08,417.04 C395.866666,417.053333 395.663334,417.07 395.47,417.09 C395.276666,417.11 395.103334,417.133333 394.95,417.16 C394.796666,417.186667 394.686667,417.206667 394.62,417.22 L394.62,426 L392.76,426 L392.76,415.9 Z M408.98,412.14 L410.92,412.14 L410.92,426 L408.98,426 L408.98,412.14 Z M414.24,415.9 C414.666669,415.793333 415.23333,415.680001 415.94,415.56 C416.64667,415.439999 417.459995,415.38 418.38,415.38 C419.206671,415.38 419.893331,415.496666 420.44,415.73 C420.986669,415.963334 421.423332,416.289998 421.75,416.71 C422.076668,417.130002 422.306666,417.63333 422.44,418.22 C422.573334,418.80667 422.64,419.45333 422.64,420.16 L422.64,426 L420.78,426 L420.78,420.56 C420.78,419.919997 420.736667,419.373336 420.65,418.92 C420.563333,418.466664 420.420001,418.100001 420.22,417.82 C420.019999,417.539999 419.753335,417.336667 419.42,417.21 C419.086665,417.083333 418.673336,417.02 418.18,417.02 C417.979999,417.02 417.773334,417.026667 417.56,417.04 C417.346666,417.053333 417.143334,417.07 416.95,417.09 C416.756666,417.11 416.583334,417.133333 416.43,417.16 C416.276666,417.186667 416.166667,417.206667 416.1,417.22 L416.1,426 L414.24,426 L414.24,415.9 Z M432.44,417.8 C432.213332,417.613332 431.886669,417.433334 431.46,417.26 C431.033331,417.086666 430.566669,417 430.06,417 C429.526664,417 429.070002,417.096666 428.69,417.29 C428.309998,417.483334 428.000001,417.749998 427.76,418.09 C427.519999,418.430002 427.346667,418.833331 427.24,419.3 C427.133333,419.766669 427.08,420.266664 427.08,420.8 C427.08,422.013339 427.379997,422.949997 427.98,423.61 C428.580003,424.270003 429.379995,424.6 430.38,424.6 C430.886669,424.6 431.309998,424.576667 431.65,424.53 C431.990002,424.483333 432.253332,424.433334 432.44,424.38 L432.44,417.8 Z M432.44,410.8 L434.3,410.48 L434.3,425.7 C433.873331,425.820001 433.32667,425.939999 432.66,426.06 C431.99333,426.180001 431.226671,426.24 430.36,426.24 C429.559996,426.24 428.840003,426.113335 428.2,425.86 C427.559997,425.606665 427.013336,425.246669 426.56,424.78 C426.106664,424.313331 425.756668,423.743337 425.51,423.07 C425.263332,422.396663 425.14,421.640004 425.14,420.8 C425.14,419.999996 425.243332,419.26667 425.45,418.6 C425.656668,417.93333 425.959998,417.360002 426.36,416.88 C426.760002,416.399998 427.249997,416.026668 427.83,415.76 C428.410003,415.493332 429.07333,415.36 429.82,415.36 C430.420003,415.36 430.949998,415.439999 431.41,415.6 C431.870002,415.760001 432.213332,415.913333 432.44,416.06 L432.44,410.8 Z M439.36,426 L437.5,426 L437.5,415.6 L439.36,415.6 L439.36,426 Z M438.42,413.72 C438.086665,413.72 437.803335,413.610001 437.57,413.39 C437.336666,413.169999 437.22,412.873335 437.22,412.5 C437.22,412.126665 437.336666,411.830001 437.57,411.61 C437.803335,411.389999 438.086665,411.28 438.42,411.28 C438.753335,411.28 439.036666,411.389999 439.27,411.61 C439.503335,411.830001 439.62,412.126665 439.62,412.5 C439.62,412.873335 439.503335,413.169999 439.27,413.39 C439.036666,413.610001 438.753335,413.72 438.42,413.72 Z M450.68,415.6 C450.159997,417.546676 449.550004,419.413324 448.85,421.2 C448.149997,422.986676 447.473337,424.58666 446.82,426 L445.14,426 C444.486663,424.58666 443.810004,422.986676 443.11,421.2 C442.409997,419.413324 441.800003,417.546676 441.28,415.6 L443.28,415.6 C443.440001,416.253337 443.629999,416.949996 443.85,417.69 C444.070001,418.430004 444.303332,419.16333 444.55,419.89 C444.796668,420.61667 445.046665,421.319997 445.3,422 C445.553335,422.680003 445.793332,423.286664 446.02,423.82 C446.246668,423.286664 446.486665,422.680003 446.74,422 C446.993335,421.319997 447.243332,420.61667 447.49,419.89 C447.736668,419.16333 447.969999,418.430004 448.19,417.69 C448.410001,416.949996 448.599999,416.253337 448.76,415.6 L450.68,415.6 Z M454.46,426 L452.6,426 L452.6,415.6 L454.46,415.6 L454.46,426 Z M453.52,413.72 C453.186665,413.72 452.903335,413.610001 452.67,413.39 C452.436666,413.169999 452.32,412.873335 452.32,412.5 C452.32,412.126665 452.436666,411.830001 452.67,411.61 C452.903335,411.389999 453.186665,411.28 453.52,411.28 C453.853335,411.28 454.136666,411.389999 454.37,411.61 C454.603335,411.830001 454.72,412.126665 454.72,412.5 C454.72,412.873335 454.603335,413.169999 454.37,413.39 C454.136666,413.610001 453.853335,413.72 453.52,413.72 Z M464.38,417.8 C464.153332,417.613332 463.826669,417.433334 463.4,417.26 C462.973331,417.086666 462.506669,417 462,417 C461.466664,417 461.010002,417.096666 460.63,417.29 C460.249998,417.483334 459.940001,417.749998 459.7,418.09 C459.459999,418.430002 459.286667,418.833331 459.18,419.3 C459.073333,419.766669 459.02,420.266664 459.02,420.8 C459.02,422.013339 459.319997,422.949997 459.92,423.61 C460.520003,424.270003 461.319995,424.6 462.32,424.6 C462.826669,424.6 463.249998,424.576667 463.59,424.53 C463.930002,424.483333 464.193332,424.433334 464.38,424.38 L464.38,417.8 Z M464.38,410.8 L466.24,410.48 L466.24,425.7 C465.813331,425.820001 465.26667,425.939999 464.6,426.06 C463.93333,426.180001 463.166671,426.24 462.3,426.24 C461.499996,426.24 460.780003,426.113335 460.14,425.86 C459.499997,425.606665 458.953336,425.246669 458.5,424.78 C458.046664,424.313331 457.696668,423.743337 457.45,423.07 C457.203332,422.396663 457.08,421.640004 457.08,420.8 C457.08,419.999996 457.183332,419.26667 457.39,418.6 C457.596668,417.93333 457.899998,417.360002 458.3,416.88 C458.700002,416.399998 459.189997,416.026668 459.77,415.76 C460.350003,415.493332 461.01333,415.36 461.76,415.36 C462.360003,415.36 462.889998,415.439999 463.35,415.6 C463.810002,415.760001 464.153332,415.913333 464.38,416.06 L464.38,410.8 Z M477.72,425.7 C477.293331,425.806667 476.730004,425.919999 476.03,426.04 C475.329997,426.160001 474.520005,426.22 473.6,426.22 C472.799996,426.22 472.126669,426.103335 471.58,425.87 C471.033331,425.636665 470.593335,425.306669 470.26,424.88 C469.926665,424.453331 469.686667,423.950003 469.54,423.37 C469.393333,422.789997 469.32,422.14667 469.32,421.44 L469.32,415.6 L471.18,415.6 L471.18,421.04 C471.18,422.306673 471.379998,423.213331 471.78,423.76 C472.180002,424.306669 472.853329,424.58 473.8,424.58 C474.000001,424.58 474.206666,424.573333 474.42,424.56 C474.633334,424.546667 474.833332,424.53 475.02,424.51 C475.206668,424.49 475.376666,424.47 475.53,424.45 C475.683334,424.43 475.793333,424.406667 475.86,424.38 L475.86,415.6 L477.72,415.6 L477.72,425.7 Z M489.2,425.7 C488.773331,425.806667 488.210004,425.919999 487.51,426.04 C486.809997,426.160001 486.000005,426.22 485.08,426.22 C484.279996,426.22 483.606669,426.103335 483.06,425.87 C482.513331,425.636665 482.073335,425.306669 481.74,424.88 C481.406665,424.453331 481.166667,423.950003 481.02,423.37 C480.873333,422.789997 480.8,422.14667 480.8,421.44 L480.8,415.6 L482.66,415.6 L482.66,421.04 C482.66,422.306673 482.859998,423.213331 483.26,423.76 C483.660002,424.306669 484.333329,424.58 485.28,424.58 C485.480001,424.58 485.686666,424.573333 485.9,424.56 C486.113334,424.546667 486.313332,424.53 486.5,424.51 C486.686668,424.49 486.856666,424.47 487.01,424.45 C487.163334,424.43 487.273333,424.406667 487.34,424.38 L487.34,415.6 L489.2,415.6 L489.2,425.7 Z M492.4,415.9 C492.826669,415.793333 493.389997,415.680001 494.09,415.56 C494.790004,415.439999 495.599995,415.38 496.52,415.38 C497.18667,415.38 497.746664,415.469999 498.2,415.65 C498.653336,415.830001 499.033332,416.093332 499.34,416.44 C499.433334,416.373333 499.579999,416.280001 499.78,416.16 C499.980001,416.039999 500.226665,415.923334 500.52,415.81 C500.813335,415.696666 501.139998,415.596667 501.5,415.51 C501.860002,415.423333 502.246665,415.38 502.66,415.38 C503.460004,415.38 504.113331,415.496666 504.62,415.73 C505.126669,415.963334 505.523332,416.293331 505.81,416.72 C506.096668,417.146669 506.29,417.65333 506.39,418.24 C506.490001,418.82667 506.54,419.466663 506.54,420.16 L506.54,426 L504.68,426 L504.68,420.56 C504.68,419.946664 504.65,419.420002 504.59,418.98 C504.53,418.539998 504.416668,418.173335 504.25,417.88 C504.083333,417.586665 503.856668,417.370001 503.57,417.23 C503.283332,417.089999 502.913336,417.02 502.46,417.02 C501.83333,417.02 501.316669,417.103332 500.91,417.27 C500.503331,417.436667 500.226667,417.586666 500.08,417.72 C500.186667,418.066668 500.266666,418.446665 500.32,418.86 C500.373334,419.273335 500.4,419.706664 500.4,420.16 L500.4,426 L498.54,426 L498.54,420.56 C498.54,419.946664 498.506667,419.420002 498.44,418.98 C498.373333,418.539998 498.256668,418.173335 498.09,417.88 C497.923333,417.586665 497.696668,417.370001 497.41,417.23 C497.123332,417.089999 496.760002,417.02 496.32,417.02 C496.133332,417.02 495.933334,417.026667 495.72,417.04 C495.506666,417.053333 495.303334,417.07 495.11,417.09 C494.916666,417.11 494.740001,417.133333 494.58,417.16 C494.419999,417.186667 494.313334,417.206667 494.26,417.22 L494.26,426 L492.4,426 L492.4,415.9 Z M109.88,448.7 C109.453331,448.806667 108.890004,448.919999 108.19,449.04 C107.489997,449.160001 106.680005,449.22 105.76,449.22 C104.959996,449.22 104.286669,449.103335 103.74,448.87 C103.193331,448.636665 102.753335,448.306669 102.42,447.88 C102.086665,447.453331 101.846667,446.950003 101.7,446.37 C101.553333,445.789997 101.48,445.14667 101.48,444.44 L101.48,438.6 L103.34,438.6 L103.34,444.04 C103.34,445.306673 103.539998,446.213331 103.94,446.76 C104.340002,447.306669 105.013329,447.58 105.96,447.58 C106.160001,447.58 106.366666,447.573333 106.58,447.56 C106.793334,447.546667 106.993332,447.53 107.18,447.51 C107.366668,447.49 107.536666,447.47 107.69,447.45 C107.843334,447.43 107.953333,447.406667 108.02,447.38 L108.02,438.6 L109.88,438.6 L109.88,448.7 Z M113.08,438.9 C113.506669,438.793333 114.07333,438.680001 114.78,438.56 C115.48667,438.439999 116.299995,438.38 117.22,438.38 C118.046671,438.38 118.733331,438.496666 119.28,438.73 C119.826669,438.963334 120.263332,439.289998 120.59,439.71 C120.916668,440.130002 121.146666,440.63333 121.28,441.22 C121.413334,441.80667 121.48,442.45333 121.48,443.16 L121.48,449 L119.62,449 L119.62,443.56 C119.62,442.919997 119.576667,442.373336 119.49,441.92 C119.403333,441.466664 119.260001,441.100001 119.06,440.82 C118.859999,440.539999 118.593335,440.336667 118.26,440.21 C117.926665,440.083333 117.513336,440.02 117.02,440.02 C116.819999,440.02 116.613334,440.026667 116.4,440.04 C116.186666,440.053333 115.983334,440.07 115.79,440.09 C115.596666,440.11 115.423334,440.133333 115.27,440.16 C115.116666,440.186667 115.006667,440.206667 114.94,440.22 L114.94,449 L113.08,449 L113.08,438.9 Z M131.28,440.8 C131.053332,440.613332 130.726669,440.433334 130.3,440.26 C129.873331,440.086666 129.406669,440 128.9,440 C128.366664,440 127.910002,440.096666 127.53,440.29 C127.149998,440.483334 126.840001,440.749998 126.6,441.09 C126.359999,441.430002 126.186667,441.833331 126.08,442.3 C125.973333,442.766669 125.92,443.266664 125.92,443.8 C125.92,445.013339 126.219997,445.949997 126.82,446.61 C127.420003,447.270003 128.219995,447.6 129.22,447.6 C129.726669,447.6 130.149998,447.576667 130.49,447.53 C130.830002,447.483333 131.093332,447.433334 131.28,447.38 L131.28,440.8 Z M131.28,433.8 L133.14,433.48 L133.14,448.7 C132.713331,448.820001 132.16667,448.939999 131.5,449.06 C130.83333,449.180001 130.066671,449.24 129.2,449.24 C128.399996,449.24 127.680003,449.113335 127.04,448.86 C126.399997,448.606665 125.853336,448.246669 125.4,447.78 C124.946664,447.313331 124.596668,446.743337 124.35,446.07 C124.103332,445.396663 123.98,444.640004 123.98,443.8 C123.98,442.999996 124.083332,442.26667 124.29,441.6 C124.496668,440.93333 124.799998,440.360002 125.2,439.88 C125.600002,439.399998 126.089997,439.026668 126.67,438.76 C127.250003,438.493332 127.91333,438.36 128.66,438.36 C129.260003,438.36 129.789998,438.439999 130.25,438.6 C130.710002,438.760001 131.053332,438.913333 131.28,439.06 L131.28,433.8 Z M140.96,438.9 C141.386669,438.793333 141.95333,438.680001 142.66,438.56 C143.36667,438.439999 144.179995,438.38 145.1,438.38 C145.926671,438.38 146.613331,438.496666 147.16,438.73 C147.706669,438.963334 148.143332,439.289998 148.47,439.71 C148.796668,440.130002 149.026666,440.63333 149.16,441.22 C149.293334,441.80667 149.36,442.45333 149.36,443.16 L149.36,449 L147.5,449 L147.5,443.56 C147.5,442.919997 147.456667,442.373336 147.37,441.92 C147.283333,441.466664 147.140001,441.100001 146.94,440.82 C146.739999,440.539999 146.473335,440.336667 146.14,440.21 C145.806665,440.083333 145.393336,440.02 144.9,440.02 C144.699999,440.02 144.493334,440.026667 144.28,440.04 C144.066666,440.053333 143.863334,440.07 143.67,440.09 C143.476666,440.11 143.303334,440.133333 143.15,440.16 C142.996666,440.186667 142.886667,440.206667 142.82,440.22 L142.82,449 L140.96,449 L140.96,438.9 Z M160.72,448.7 C160.293331,448.806667 159.730004,448.919999 159.03,449.04 C158.329996,449.160001 157.520005,449.22 156.6,449.22 C155.799996,449.22 155.126669,449.103335 154.58,448.87 C154.033331,448.636665 153.593335,448.306669 153.26,447.88 C152.926665,447.453331 152.686667,446.950003 152.54,446.37 C152.393333,445.789997 152.32,445.14667 152.32,444.44 L152.32,438.6 L154.18,438.6 L154.18,444.04 C154.18,445.306673 154.379998,446.213331 154.78,446.76 C155.180002,447.306669 155.853329,447.58 156.8,447.58 C157.000001,447.58 157.206666,447.573333 157.42,447.56 C157.633334,447.546667 157.833332,447.53 158.02,447.51 C158.206668,447.49 158.376666,447.47 158.53,447.45 C158.683334,447.43 158.793333,447.406667 158.86,447.38 L158.86,438.6 L160.72,438.6 L160.72,448.7 Z M167.76,438.38 C167.920001,438.38 168.103332,438.39 168.31,438.41 C168.516668,438.43 168.719999,438.456666 168.92,438.49 C169.120001,438.523333 169.303333,438.556667 169.47,438.59 C169.636668,438.623334 169.76,438.653333 169.84,438.68 L169.52,440.3 C169.373333,440.246666 169.130002,440.183334 168.79,440.11 C168.449998,440.036666 168.013336,440 167.48,440 C167.133332,440 166.790002,440.036666 166.45,440.11 C166.109998,440.183334 165.886667,440.233333 165.78,440.26 L165.78,449 L163.92,449 L163.92,439.04 C164.360002,438.879999 164.906663,438.730001 165.56,438.59 C166.213337,438.449999 166.946663,438.38 167.76,438.38 Z M175.68,443.82 C175.68,442.899995 175.813332,442.09667 176.08,441.41 C176.346668,440.72333 176.699998,440.153336 177.14,439.7 C177.580002,439.246664 178.086664,438.906668 178.66,438.68 C179.233336,438.453332 179.819997,438.34 180.42,438.34 C181.820007,438.34 182.89333,438.776662 183.64,439.65 C184.38667,440.523338 184.76,441.853324 184.76,443.64 L184.76,443.95 C184.76,444.076667 184.753333,444.193333 184.74,444.3 L177.62,444.3 C177.7,445.380005 178.013331,446.199997 178.56,446.76 C179.106669,447.320003 179.959994,447.6 181.12,447.6 C181.773337,447.6 182.323331,447.543334 182.77,447.43 C183.216669,447.316666 183.553332,447.206667 183.78,447.1 L184.04,448.66 C183.813332,448.780001 183.41667,448.906666 182.85,449.04 C182.283331,449.173334 181.640004,449.24 180.92,449.24 C180.013329,449.24 179.230003,449.103335 178.57,448.83 C177.909997,448.556665 177.366669,448.180002 176.94,447.7 C176.513331,447.219998 176.196668,446.650003 175.99,445.99 C175.783332,445.329997 175.68,444.606671 175.68,443.82 Z M182.82,442.8 C182.833333,441.959996 182.623335,441.270003 182.19,440.73 C181.756664,440.189997 181.160004,439.92 180.4,439.92 C179.973331,439.92 179.596668,440.003332 179.27,440.17 C178.943332,440.336667 178.666668,440.553332 178.44,440.82 C178.213332,441.086668 178.036667,441.393332 177.91,441.74 C177.783333,442.086668 177.7,442.439998 177.66,442.8 L182.82,442.8 Z M189.3,449 L187.44,449 L187.44,438.6 L189.3,438.6 L189.3,449 Z M188.36,436.72 C188.026665,436.72 187.743335,436.610001 187.51,436.39 C187.276666,436.169999 187.16,435.873335 187.16,435.5 C187.16,435.126665 187.276666,434.830001 187.51,434.61 C187.743335,434.389999 188.026665,434.28 188.36,434.28 C188.693335,434.28 188.976665,434.389999 189.21,434.61 C189.443334,434.830001 189.56,435.126665 189.56,435.5 C189.56,435.873335 189.443334,436.169999 189.21,436.39 C188.976665,436.610001 188.693335,436.72 188.36,436.72 Z M192.5,438.9 C192.926669,438.793333 193.49333,438.680001 194.2,438.56 C194.90667,438.439999 195.719995,438.38 196.64,438.38 C197.466671,438.38 198.153331,438.496666 198.7,438.73 C199.246669,438.963334 199.683332,439.289998 200.01,439.71 C200.336668,440.130002 200.566666,440.63333 200.7,441.22 C200.833334,441.80667 200.9,442.45333 200.9,443.16 L200.9,449 L199.04,449 L199.04,443.56 C199.04,442.919997 198.996667,442.373336 198.91,441.92 C198.823333,441.466664 198.680001,441.100001 198.48,440.82 C198.279999,440.539999 198.013335,440.336667 197.68,440.21 C197.346665,440.083333 196.933336,440.02 196.44,440.02 C196.239999,440.02 196.033334,440.026667 195.82,440.04 C195.606666,440.053333 195.403334,440.07 195.21,440.09 C195.016666,440.11 194.843334,440.133333 194.69,440.16 C194.536666,440.186667 194.426667,440.206667 194.36,440.22 L194.36,449 L192.5,449 L192.5,438.9 Z M203.4,443.82 C203.4,442.899995 203.533332,442.09667 203.8,441.41 C204.066668,440.72333 204.419998,440.153336 204.86,439.7 C205.300002,439.246664 205.806664,438.906668 206.38,438.68 C206.953336,438.453332 207.539997,438.34 208.14,438.34 C209.540007,438.34 210.61333,438.776662 211.36,439.65 C212.10667,440.523338 212.48,441.853324 212.48,443.64 L212.48,443.95 C212.48,444.076667 212.473333,444.193333 212.46,444.3 L205.34,444.3 C205.42,445.380005 205.733331,446.199997 206.28,446.76 C206.826669,447.320003 207.679994,447.6 208.84,447.6 C209.493337,447.6 210.043331,447.543334 210.49,447.43 C210.936669,447.316666 211.273332,447.206667 211.5,447.1 L211.76,448.66 C211.533332,448.780001 211.13667,448.906666 210.57,449.04 C210.003331,449.173334 209.360004,449.24 208.64,449.24 C207.733329,449.24 206.950003,449.103335 206.29,448.83 C205.629997,448.556665 205.086669,448.180002 204.66,447.7 C204.233331,447.219998 203.916668,446.650003 203.71,445.99 C203.503332,445.329997 203.4,444.606671 203.4,443.82 Z M210.54,442.8 C210.553333,441.959996 210.343335,441.270003 209.91,440.73 C209.476664,440.189997 208.880004,439.92 208.12,439.92 C207.693331,439.92 207.316668,440.003332 206.99,440.17 C206.663332,440.336667 206.386668,440.553332 206.16,440.82 C205.933332,441.086668 205.756667,441.393332 205.63,441.74 C205.503333,442.086668 205.42,442.439998 205.38,442.8 L210.54,442.8 Z M223.12,447.62 C225.146677,447.62 226.16,446.926674 226.16,445.54 C226.16,445.113331 226.070001,444.750001 225.89,444.45 C225.709999,444.149998 225.466668,443.890001 225.16,443.67 C224.853332,443.449999 224.503335,443.260001 224.11,443.1 C223.716665,442.939999 223.300002,442.780001 222.86,442.62 C222.353331,442.446666 221.873336,442.250001 221.42,442.03 C220.966664,441.809999 220.573335,441.550002 220.24,441.25 C219.906665,440.949998 219.643334,440.593335 219.45,440.18 C219.256666,439.766665 219.16,439.26667 219.16,438.68 C219.16,437.466661 219.573329,436.520003 220.4,435.84 C221.226671,435.159997 222.366659,434.82 223.82,434.82 C224.660004,434.82 225.42333,434.909999 226.11,435.09 C226.79667,435.270001 227.299998,435.466666 227.62,435.68 L227,437.26 C226.719999,437.086666 226.303336,436.916668 225.75,436.75 C225.196664,436.583332 224.553337,436.5 223.82,436.5 C223.446665,436.5 223.100002,436.54 222.78,436.62 C222.459998,436.7 222.180001,436.819999 221.94,436.98 C221.699999,437.140001 221.510001,437.343332 221.37,437.59 C221.229999,437.836668 221.16,438.126665 221.16,438.46 C221.16,438.833335 221.233333,439.146665 221.38,439.4 C221.526667,439.653335 221.733332,439.876666 222,440.07 C222.266668,440.263334 222.576665,440.439999 222.93,440.6 C223.283335,440.760001 223.673331,440.919999 224.1,441.08 C224.700003,441.320001 225.249998,441.559999 225.75,441.8 C226.250002,442.040001 226.683332,442.326665 227.05,442.66 C227.416669,442.993335 227.699999,443.389998 227.9,443.85 C228.100001,444.310002 228.2,444.866663 228.2,445.52 C228.2,446.733339 227.756671,447.666663 226.87,448.32 C225.983329,448.973337 224.733341,449.3 223.12,449.3 C222.573331,449.3 222.070002,449.263334 221.61,449.19 C221.149998,449.116666 220.740002,449.030001 220.38,448.93 C220.019998,448.829999 219.710001,448.723334 219.45,448.61 C219.189999,448.496666 218.986667,448.4 218.84,448.32 L219.42,446.72 C219.726668,446.893334 220.19333,447.086666 220.82,447.3 C221.44667,447.513334 222.213329,447.62 223.12,447.62 Z M237.64,443.82 C237.64,442.606661 237.340003,441.673337 236.74,441.02 C236.139997,440.366663 235.340005,440.04 234.34,440.04 C233.779997,440.04 233.343335,440.06 233.03,440.1 C232.716665,440.14 232.466668,440.186666 232.28,440.24 L232.28,446.8 C232.506668,446.986668 232.833331,447.166666 233.26,447.34 C233.686669,447.513334 234.153331,447.6 234.66,447.6 C235.193336,447.6 235.649998,447.503334 236.03,447.31 C236.410002,447.116666 236.719999,446.850002 236.96,446.51 C237.200001,446.169998 237.373333,445.770002 237.48,445.31 C237.586667,444.849998 237.64,444.353336 237.64,443.82 Z M239.58,443.82 C239.58,444.606671 239.476668,445.33333 239.27,446 C239.063332,446.66667 238.760002,447.239998 238.36,447.72 C237.959998,448.200002 237.470003,448.573332 236.89,448.84 C236.309997,449.106668 235.64667,449.24 234.9,449.24 C234.299997,449.24 233.770002,449.160001 233.31,449 C232.849998,448.839999 232.506668,448.686667 232.28,448.54 L232.28,452.7 L230.42,452.7 L230.42,438.92 C230.860002,438.813333 231.409997,438.696667 232.07,438.57 C232.730003,438.443333 233.493329,438.38 234.36,438.38 C235.160004,438.38 235.879997,438.506665 236.52,438.76 C237.160003,439.013335 237.706664,439.373331 238.16,439.84 C238.613336,440.306669 238.963332,440.876663 239.21,441.55 C239.456668,442.223337 239.58,442.979996 239.58,443.82 Z M246.04,438.38 C246.200001,438.38 246.383332,438.39 246.59,438.41 C246.796668,438.43 246.999999,438.456666 247.2,438.49 C247.400001,438.523333 247.583333,438.556667 247.75,438.59 C247.916668,438.623334 248.04,438.653333 248.12,438.68 L247.8,440.3 C247.653333,440.246666 247.410002,440.183334 247.07,440.11 C246.729998,440.036666 246.293336,440 245.76,440 C245.413332,440 245.070002,440.036666 244.73,440.11 C244.389998,440.183334 244.166667,440.233333 244.06,440.26 L244.06,449 L242.2,449 L242.2,439.04 C242.640002,438.879999 243.186663,438.730001 243.84,438.59 C244.493337,438.449999 245.226663,438.38 246.04,438.38 Z M253.44,447.66 C253.880002,447.66 254.269998,447.65 254.61,447.63 C254.950002,447.61 255.233332,447.573334 255.46,447.52 L255.46,444.42 C255.326666,444.353333 255.110002,444.296667 254.81,444.25 C254.509998,444.203333 254.146669,444.18 253.72,444.18 C253.439999,444.18 253.143335,444.2 252.83,444.24 C252.516665,444.28 252.230001,444.363333 251.97,444.49 C251.709999,444.616667 251.493334,444.789999 251.32,445.01 C251.146666,445.230001 251.06,445.519998 251.06,445.88 C251.06,446.54667 251.273331,447.009999 251.7,447.27 C252.126669,447.530001 252.706663,447.66 253.44,447.66 Z M253.28,438.34 C254.02667,438.34 254.656664,438.436666 255.17,438.63 C255.683336,438.823334 256.096665,439.096665 256.41,439.45 C256.723335,439.803335 256.946666,440.223331 257.08,440.71 C257.213334,441.196669 257.28,441.73333 257.28,442.32 L257.28,448.82 C257.119999,448.846667 256.896668,448.883333 256.61,448.93 C256.323332,448.976667 256.000002,449.02 255.64,449.06 C255.279998,449.1 254.890002,449.136666 254.47,449.17 C254.049998,449.203333 253.633335,449.22 253.22,449.22 C252.63333,449.22 252.093336,449.160001 251.6,449.04 C251.106664,448.919999 250.680002,448.730001 250.32,448.47 C249.959998,448.209999 249.680001,447.866669 249.48,447.44 C249.279999,447.013331 249.18,446.500003 249.18,445.9 C249.18,445.326664 249.296666,444.833335 249.53,444.42 C249.763334,444.006665 250.079998,443.673335 250.48,443.42 C250.880002,443.166665 251.346664,442.980001 251.88,442.86 C252.413336,442.739999 252.97333,442.68 253.56,442.68 C253.746668,442.68 253.939999,442.69 254.14,442.71 C254.340001,442.73 254.529999,442.756666 254.71,442.79 C254.890001,442.823333 255.046666,442.853333 255.18,442.88 C255.313334,442.906667 255.406666,442.926667 255.46,442.94 L255.46,442.42 C255.46,442.113332 255.426667,441.810001 255.36,441.51 C255.293333,441.209998 255.173334,440.943334 255,440.71 C254.826666,440.476665 254.590001,440.290001 254.29,440.15 C253.989999,440.009999 253.600002,439.94 253.12,439.94 C252.506664,439.94 251.970002,439.983333 251.51,440.07 C251.049998,440.156667 250.706668,440.246666 250.48,440.34 L250.26,438.8 C250.500001,438.693333 250.899997,438.59 251.46,438.49 C252.020003,438.389999 252.626663,438.34 253.28,438.34 Z M264.88,449.24 C264.039996,449.24 263.303337,449.106668 262.67,448.84 C262.036663,448.573332 261.503335,448.200002 261.07,447.72 C260.636664,447.239998 260.313334,446.670003 260.1,446.01 C259.886666,445.349997 259.78,444.620004 259.78,443.82 C259.78,443.019996 259.896665,442.28667 260.13,441.62 C260.363335,440.95333 260.693331,440.376669 261.12,439.89 C261.546669,439.403331 262.069997,439.023335 262.69,438.75 C263.310003,438.476665 263.999996,438.34 264.76,438.34 C265.226669,438.34 265.693331,438.38 266.16,438.46 C266.626669,438.54 267.073331,438.666666 267.5,438.84 L267.08,440.42 C266.799999,440.286666 266.476668,440.18 266.11,440.1 C265.743332,440.02 265.353335,439.98 264.94,439.98 C263.899995,439.98 263.103336,440.306663 262.55,440.96 C261.996664,441.613337 261.72,442.56666 261.72,443.82 C261.72,444.380003 261.783333,444.893331 261.91,445.36 C262.036667,445.826669 262.236665,446.226665 262.51,446.56 C262.783335,446.893335 263.133331,447.149999 263.56,447.33 C263.986669,447.510001 264.506664,447.6 265.12,447.6 C265.613336,447.6 266.059998,447.553334 266.46,447.46 C266.860002,447.366666 267.173332,447.266667 267.4,447.16 L267.66,448.72 C267.553333,448.786667 267.400001,448.85 267.2,448.91 C266.999999,448.97 266.773335,449.023333 266.52,449.07 C266.266665,449.116667 265.996668,449.156667 265.71,449.19 C265.423332,449.223334 265.146668,449.24 264.88,449.24 Z M269.66,449 L269.66,433.8 L271.52,433.48 L271.52,438.8 C271.866668,438.666666 272.236665,438.563334 272.63,438.49 C273.023335,438.416666 273.413331,438.38 273.8,438.38 C274.626671,438.38 275.313331,438.496666 275.86,438.73 C276.406669,438.963334 276.843332,439.289998 277.17,439.71 C277.496668,440.130002 277.726666,440.63333 277.86,441.22 C277.993334,441.80667 278.06,442.45333 278.06,443.16 L278.06,449 L276.2,449 L276.2,443.56 C276.2,442.919997 276.156667,442.373336 276.07,441.92 C275.983333,441.466664 275.840001,441.100001 275.64,440.82 C275.439999,440.539999 275.173335,440.336667 274.84,440.21 C274.506665,440.083333 274.093336,440.02 273.6,440.02 C273.399999,440.02 273.193334,440.033333 272.98,440.06 C272.766666,440.086667 272.563334,440.116667 272.37,440.15 C272.176666,440.183334 272.003334,440.22 271.85,440.26 C271.696666,440.3 271.586667,440.333333 271.52,440.36 L271.52,449 L269.66,449 Z M280.5,443.82 C280.5,442.899995 280.633332,442.09667 280.9,441.41 C281.166668,440.72333 281.519998,440.153336 281.96,439.7 C282.400002,439.246664 282.906664,438.906668 283.48,438.68 C284.053336,438.453332 284.639997,438.34 285.24,438.34 C286.640007,438.34 287.71333,438.776662 288.46,439.65 C289.20667,440.523338 289.58,441.853324 289.58,443.64 L289.58,443.95 C289.58,444.076667 289.573333,444.193333 289.56,444.3 L282.44,444.3 C282.52,445.380005 282.833331,446.199997 283.38,446.76 C283.926669,447.320003 284.779994,447.6 285.94,447.6 C286.593337,447.6 287.143331,447.543334 287.59,447.43 C288.036669,447.316666 288.373332,447.206667 288.6,447.1 L288.86,448.66 C288.633332,448.780001 288.23667,448.906666 287.67,449.04 C287.10333,449.173334 286.460004,449.24 285.74,449.24 C284.833329,449.24 284.050003,449.103335 283.39,448.83 C282.729997,448.556665 282.186669,448.180002 281.76,447.7 C281.333331,447.219998 281.016668,446.650003 280.81,445.99 C280.603332,445.329997 280.5,444.606671 280.5,443.82 Z M287.64,442.8 C287.653333,441.959996 287.443335,441.270003 287.01,440.73 C286.576664,440.189997 285.980004,439.92 285.22,439.92 C284.793331,439.92 284.416668,440.003332 284.09,440.17 C283.763332,440.336667 283.486668,440.553332 283.26,440.82 C283.033332,441.086668 282.856667,441.393332 282.73,441.74 C282.603333,442.086668 282.52,442.439998 282.48,442.8 L287.64,442.8 Z M294.46,447.92 C294.46,448.280002 294.340001,448.593332 294.1,448.86 C293.859999,449.126668 293.533335,449.26 293.12,449.26 C292.706665,449.26 292.380001,449.126668 292.14,448.86 C291.899999,448.593332 291.78,448.280002 291.78,447.92 C291.78,447.559998 291.899999,447.246668 292.14,446.98 C292.380001,446.713332 292.706665,446.58 293.12,446.58 C293.533335,446.58 293.859999,446.713332 294.1,446.98 C294.340001,447.246668 294.46,447.559998 294.46,447.92 Z M301.92,435.14 L303.86,435.14 L303.86,449 L301.92,449 L301.92,435.14 Z M307.18,449 L307.18,433.8 L309.04,433.48 L309.04,438.8 C309.386668,438.666666 309.756665,438.563334 310.15,438.49 C310.543335,438.416666 310.933331,438.38 311.32,438.38 C312.146671,438.38 312.833331,438.496666 313.38,438.73 C313.926669,438.963334 314.363332,439.289998 314.69,439.71 C315.016668,440.130002 315.246666,440.63333 315.38,441.22 C315.513334,441.80667 315.58,442.45333 315.58,443.16 L315.58,449 L313.72,449 L313.72,443.56 C313.72,442.919997 313.676667,442.373336 313.59,441.92 C313.503333,441.466664 313.360001,441.100001 313.16,440.82 C312.959999,440.539999 312.693335,440.336667 312.36,440.21 C312.026665,440.083333 311.613336,440.02 311.12,440.02 C310.919999,440.02 310.713334,440.033333 310.5,440.06 C310.286666,440.086667 310.083334,440.116667 309.89,440.15 C309.696666,440.183334 309.523334,440.22 309.37,440.26 C309.216666,440.3 309.106667,440.333333 309.04,440.36 L309.04,449 L307.18,449 Z M322.44,438.38 C322.600001,438.38 322.783332,438.39 322.99,438.41 C323.196668,438.43 323.399999,438.456666 323.6,438.49 C323.800001,438.523333 323.983332,438.556667 324.15,438.59 C324.316667,438.623334 324.44,438.653333 324.52,438.68 L324.2,440.3 C324.053333,440.246666 323.810002,440.183334 323.47,440.11 C323.129998,440.036666 322.693336,440 322.16,440 C321.813332,440 321.470002,440.036666 321.13,440.11 C320.789998,440.183334 320.566667,440.233333 320.46,440.26 L320.46,449 L318.6,449 L318.6,439.04 C319.040002,438.879999 319.586663,438.730001 320.24,438.59 C320.893337,438.449999 321.626663,438.38 322.44,438.38 Z M325.74,443.82 C325.74,442.899995 325.873332,442.09667 326.14,441.41 C326.406668,440.72333 326.759998,440.153336 327.2,439.7 C327.640002,439.246664 328.146664,438.906668 328.72,438.68 C329.293336,438.453332 329.879997,438.34 330.48,438.34 C331.880007,438.34 332.95333,438.776662 333.7,439.65 C334.44667,440.523338 334.82,441.853324 334.82,443.64 L334.82,443.95 C334.82,444.076667 334.813333,444.193333 334.8,444.3 L327.68,444.3 C327.76,445.380005 328.073331,446.199997 328.62,446.76 C329.166669,447.320003 330.019994,447.6 331.18,447.6 C331.833337,447.6 332.383331,447.543334 332.83,447.43 C333.276669,447.316666 333.613332,447.206667 333.84,447.1 L334.1,448.66 C333.873332,448.780001 333.476669,448.906666 332.91,449.04 C332.34333,449.173334 331.700004,449.24 330.98,449.24 C330.073329,449.24 329.290003,449.103335 328.63,448.83 C327.969997,448.556665 327.426669,448.180002 327,447.7 C326.573331,447.219998 326.256668,446.650003 326.05,445.99 C325.843332,445.329997 325.74,444.606671 325.74,443.82 Z M332.88,442.8 C332.893333,441.959996 332.683335,441.270003 332.25,440.73 C331.816664,440.189997 331.220004,439.92 330.46,439.92 C330.033331,439.92 329.656668,440.003332 329.33,440.17 C329.003332,440.336667 328.726668,440.553332 328.5,440.82 C328.273332,441.086668 328.096667,441.393332 327.97,441.74 C327.843333,442.086668 327.76,442.439998 327.72,442.8 L332.88,442.8 Z M341.54,443.82 C341.54,442.899995 341.673332,442.09667 341.94,441.41 C342.206668,440.72333 342.559998,440.153336 343,439.7 C343.440002,439.246664 343.946664,438.906668 344.52,438.68 C345.093336,438.453332 345.679997,438.34 346.28,438.34 C347.680007,438.34 348.75333,438.776662 349.5,439.65 C350.24667,440.523338 350.62,441.853324 350.62,443.64 L350.62,443.95 C350.62,444.076667 350.613333,444.193333 350.6,444.3 L343.48,444.3 C343.56,445.380005 343.873331,446.199997 344.42,446.76 C344.966669,447.320003 345.819994,447.6 346.98,447.6 C347.633337,447.6 348.183331,447.543334 348.63,447.43 C349.076669,447.316666 349.413332,447.206667 349.64,447.1 L349.9,448.66 C349.673332,448.780001 349.276669,448.906666 348.71,449.04 C348.14333,449.173334 347.500004,449.24 346.78,449.24 C345.873329,449.24 345.090003,449.103335 344.43,448.83 C343.769997,448.556665 343.226669,448.180002 342.8,447.7 C342.373331,447.219998 342.056668,446.650003 341.85,445.99 C341.643332,445.329997 341.54,444.606671 341.54,443.82 Z M348.68,442.8 C348.693333,441.959996 348.483336,441.270003 348.05,440.73 C347.616664,440.189997 347.020004,439.92 346.26,439.92 C345.833331,439.92 345.456668,440.003332 345.13,440.17 C344.803332,440.336667 344.526668,440.553332 344.3,440.82 C344.073332,441.086668 343.896667,441.393332 343.77,441.74 C343.643333,442.086668 343.56,442.439998 343.52,442.8 L348.68,442.8 Z M355.16,449 L353.3,449 L353.3,438.6 L355.16,438.6 L355.16,449 Z M354.22,436.72 C353.886665,436.72 353.603334,436.610001 353.37,436.39 C353.136665,436.169999 353.02,435.873335 353.02,435.5 C353.02,435.126665 353.136665,434.830001 353.37,434.61 C353.603334,434.389999 353.886665,434.28 354.22,434.28 C354.553335,434.28 354.836665,434.389999 355.07,434.61 C355.303335,434.830001 355.42,435.126665 355.42,435.5 C355.42,435.873335 355.303335,436.169999 355.07,436.39 C354.836665,436.610001 354.553335,436.72 354.22,436.72 Z M364.88,447.96 C364.719999,448.066667 364.410002,448.203332 363.95,448.37 C363.489998,448.536668 362.953336,448.62 362.34,448.62 C361.71333,448.62 361.123336,448.520001 360.57,448.32 C360.016664,448.119999 359.533335,447.810002 359.12,447.39 C358.706665,446.969998 358.380001,446.44667 358.14,445.82 C357.899999,445.19333 357.78,444.446671 357.78,443.58 C357.78,442.819996 357.893332,442.123336 358.12,441.49 C358.346668,440.856663 358.676665,440.310002 359.11,439.85 C359.543336,439.389998 360.07333,439.030001 360.7,438.77 C361.32667,438.509999 362.033329,438.38 362.82,438.38 C363.686671,438.38 364.44333,438.443333 365.09,438.57 C365.73667,438.696667 366.279998,438.813333 366.72,438.92 L366.72,448.2 C366.72,449.800008 366.306671,450.959996 365.48,451.68 C364.653329,452.400004 363.400008,452.76 361.72,452.76 C361.066663,452.76 360.450003,452.706667 359.87,452.6 C359.289997,452.493333 358.786669,452.366667 358.36,452.22 L358.7,450.6 C359.073335,450.746667 359.529997,450.876666 360.07,450.99 C360.610003,451.103334 361.17333,451.16 361.76,451.16 C362.866672,451.16 363.663331,450.940002 364.15,450.5 C364.636669,450.059998 364.88,449.360005 364.88,448.4 L364.88,447.96 Z M364.86,440.24 C364.673332,440.186666 364.423335,440.136667 364.11,440.09 C363.796665,440.043333 363.373336,440.02 362.84,440.02 C361.839995,440.02 361.070003,440.346663 360.53,441 C359.989997,441.653337 359.72,442.519995 359.72,443.6 C359.72,444.200003 359.796666,444.713331 359.95,445.14 C360.103334,445.566669 360.309999,445.919999 360.57,446.2 C360.830001,446.480001 361.129998,446.686666 361.47,446.82 C361.810002,446.953334 362.159998,447.02 362.52,447.02 C363.013336,447.02 363.466665,446.950001 363.88,446.81 C364.293335,446.669999 364.619999,446.506668 364.86,446.32 L364.86,440.24 Z M369.34,443.82 C369.34,442.899995 369.473332,442.09667 369.74,441.41 C370.006668,440.72333 370.359998,440.153336 370.8,439.7 C371.240002,439.246664 371.746664,438.906668 372.32,438.68 C372.893336,438.453332 373.479997,438.34 374.08,438.34 C375.480007,438.34 376.55333,438.776662 377.3,439.65 C378.04667,440.523338 378.42,441.853324 378.42,443.64 L378.42,443.95 C378.42,444.076667 378.413333,444.193333 378.4,444.3 L371.28,444.3 C371.36,445.380005 371.673331,446.199997 372.22,446.76 C372.766669,447.320003 373.619994,447.6 374.78,447.6 C375.433337,447.6 375.983331,447.543334 376.43,447.43 C376.876669,447.316666 377.213332,447.206667 377.44,447.1 L377.7,448.66 C377.473332,448.780001 377.076669,448.906666 376.51,449.04 C375.943331,449.173334 375.300004,449.24 374.58,449.24 C373.673329,449.24 372.890003,449.103335 372.23,448.83 C371.569997,448.556665 371.026669,448.180002 370.6,447.7 C370.173331,447.219998 369.856668,446.650003 369.65,445.99 C369.443332,445.329997 369.34,444.606671 369.34,443.82 Z M376.48,442.8 C376.493333,441.959996 376.283335,441.270003 375.85,440.73 C375.416664,440.189997 374.820004,439.92 374.06,439.92 C373.633331,439.92 373.256668,440.003332 372.93,440.17 C372.603332,440.336667 372.326668,440.553332 372.1,440.82 C371.873332,441.086668 371.696667,441.393332 371.57,441.74 C371.443333,442.086668 371.36,442.439998 371.32,442.8 L376.48,442.8 Z M381.1,438.9 C381.526669,438.793333 382.09333,438.680001 382.8,438.56 C383.50667,438.439999 384.319995,438.38 385.24,438.38 C386.066671,438.38 386.753331,438.496666 387.3,438.73 C387.846669,438.963334 388.283332,439.289998 388.61,439.71 C388.936668,440.130002 389.166666,440.63333 389.3,441.22 C389.433334,441.80667 389.5,442.45333 389.5,443.16 L389.5,449 L387.64,449 L387.64,443.56 C387.64,442.919997 387.596667,442.373336 387.51,441.92 C387.423333,441.466664 387.280001,441.100001 387.08,440.82 C386.879999,440.539999 386.613335,440.336667 386.28,440.21 C385.946665,440.083333 385.533336,440.02 385.04,440.02 C384.839999,440.02 384.633334,440.026667 384.42,440.04 C384.206666,440.053333 384.003334,440.07 383.81,440.09 C383.616666,440.11 383.443334,440.133333 383.29,440.16 C383.136666,440.186667 383.026667,440.206667 382.96,440.22 L382.96,449 L381.1,449 L381.1,438.9 Z M392,443.82 C392,442.899995 392.133332,442.09667 392.4,441.41 C392.666668,440.72333 393.019998,440.153336 393.46,439.7 C393.900002,439.246664 394.406664,438.906668 394.98,438.68 C395.553336,438.453332 396.139997,438.34 396.74,438.34 C398.140007,438.34 399.21333,438.776662 399.96,439.65 C400.70667,440.523338 401.08,441.853324 401.08,443.64 L401.08,443.95 C401.08,444.076667 401.073333,444.193333 401.06,444.3 L393.94,444.3 C394.02,445.380005 394.333331,446.199997 394.88,446.76 C395.426669,447.320003 396.279994,447.6 397.44,447.6 C398.093337,447.6 398.643331,447.543334 399.09,447.43 C399.536669,447.316666 399.873332,447.206667 400.1,447.1 L400.36,448.66 C400.133332,448.780001 399.73667,448.906666 399.17,449.04 C398.60333,449.173334 397.960004,449.24 397.24,449.24 C396.333329,449.24 395.550003,449.103335 394.89,448.83 C394.229997,448.556665 393.686669,448.180002 393.26,447.7 C392.833331,447.219998 392.516668,446.650003 392.31,445.99 C392.103332,445.329997 392,444.606671 392,443.82 Z M399.14,442.8 C399.153333,441.959996 398.943335,441.270003 398.51,440.73 C398.076664,440.189997 397.480004,439.92 396.72,439.92 C396.293331,439.92 395.916668,440.003332 395.59,440.17 C395.263332,440.336667 394.986668,440.553332 394.76,440.82 C394.533332,441.086668 394.356667,441.393332 394.23,441.74 C394.103333,442.086668 394.02,442.439998 393.98,442.8 L399.14,442.8 Z M405.96,447.92 C405.96,448.280002 405.840001,448.593332 405.6,448.86 C405.359999,449.126668 405.033335,449.26 404.62,449.26 C404.206665,449.26 403.880001,449.126668 403.64,448.86 C403.399999,448.593332 403.28,448.280002 403.28,447.92 C403.28,447.559998 403.399999,447.246668 403.64,446.98 C403.880001,446.713332 404.206665,446.58 404.62,446.58 C405.033335,446.58 405.359999,446.713332 405.6,446.98 C405.840001,447.246668 405.96,447.559998 405.96,447.92 Z" id="Unzhlige-User,-jede" fill="#FFFFFF"></path>
    </g>
</svg>