<svg xmlns="http://www.w3.org/2000/svg" xmlns:xlink="http://www.w3.org/1999/xlink" viewBox="0 0 2100 900"><defs><style>.cls-1{fill:#5e2750;}.cls-2{opacity:0.3;fill:url(#Unbenannter_Verlauf_130);}.cls-3{fill:#fff;}</style><linearGradient id="Unbenannter_Verlauf_130" x1="386.53" y1="452.23" x2="1759.47" y2="452.23" gradientUnits="userSpaceOnUse"><stop offset="0" stop-color="#e95420"/><stop offset="0.16" stop-color="#e55322"/><stop offset="0.33" stop-color="#d74e26"/><stop offset="0.51" stop-color="#c1472e"/><stop offset="0.69" stop-color="#a33d38"/><stop offset="0.88" stop-color="#7c3146"/><stop offset="1" stop-color="#5e2750"/></linearGradient></defs><title>ubuntu_spezifikation</title><g id="verlauf"><rect class="cls-1" width="2100" height="900"/><path class="cls-2" d="M873.16,679c-113.46,89.76-279.09,82.37-383.76-22.3-112.78-112.79-112.78-296.31,0-409.09,106.25-106.24,275.27-112.18,388.8-18.12h.06l.91-.91,32.91,32.91h.06l113,113.21-49.94,50L862.14,311.42l-13.76-13.76h-.06l-11.88-11.93L834.68,284l-.6.6C748.32,212.7,620,217,539.41,297.54c-85.21,85.22-85.21,224,0,309.22,80.55,80.55,208.91,84.85,294.67,13l.54.61h.06l27.46-27.46.06.06L975.29,479.67l27.39-27.51,49.94-50,13.7-13.75,13.7-13.7,113-113.21,32.73-32.73.9.91c113.52-94.3,282.74-88.36,389,17.94,112.79,112.78,112.79,296.31,0,409.09-105.46,105.45-272.85,112.12-386.36,20.12l-1.15,1.15-7.76-7.76-13.7-13.64-7.4-7.45-6.24-6.24H1193L1080,529.66l49.94-50L1243,592.94l6.24,6.24v-.06l7.45,7.45h.06l13.7,13.7.55-.61c85.75,71.88,214.18,67.58,294.66-13,85.27-85.27,85.27-223.94,0-309.21-80.54-80.55-208.91-84.85-294.66-13l-.55-.55-13.7,13.7h-.06L1243,311.36,1129.89,424.63l-13.7,13.7-13.7,13.75-49.94,50-13.7,13.76-13.69,13.7-113,113.21h-.06l-13.64,13.82h-.06M1281,328.2l3-3c70.12-70.12,184.12-70.18,254.18-.18s70.12,184.18,0,254.37-184,70-254.18-.18l-3-3-123.76-124Zm-457,248-3,3c-70.12,70.12-184.12,70.18-254.19.18s-70.12-184.18,0-254.37,184.06-69.94,254.19.18l3,3,123.82,124Zm87.64-369C783,92.69,585.22,97,462,220.27,334.08,348.2,334.08,556.32,462,684.2c123.21,123.27,321,127.58,449.69,13.09q7.18-6.36,14-13.15l13.82-13.82,113-113.21,113,113.21,13.76,13.82c4.54,4.54,9.27,8.91,14,13.15C1322,811.78,1519.77,807.47,1643,684.2,1771,556.26,1771,348.14,1643.1,220.27h0c-123.27-123.22-321-127.58-449.69-13.1l-.43-.42-13.57,13.58c-.06,0-.06.06-.12.06l-13.7,13.69v.06l-113,113.22-113-113.22v-.06l-13.7-13.69c-.06,0-.06-.06-.12-.06"/></g><g id="font"><path class="cls-3" d="M513.44,326.74l-24.07-18.2,10.51-13.9,2.05,1.55-8.72,11.54,8.37,6.33,7.77-10.28,2,1.52-7.78,10.28,9.59,7.25,9.4-12.43,2,1.55Z"/><path class="cls-3" d="M529.81,301.86c-.5-1.29-1.13-2.72-1.87-4.29s-1.56-3.15-2.42-4.76-1.77-3.2-2.71-4.77-1.86-3-2.75-4.3l1.92-2.08c1.16,1.79,2.25,3.59,3.29,5.43s2,3.66,2.93,5.49,1.77,3.62,2.54,5.39,1.49,3.46,2.14,5.06L531.09,305c-1.66-.51-3.41-1.09-5.22-1.73s-3.67-1.36-5.56-2.13-3.8-1.61-5.71-2.5-3.79-1.84-5.66-2.85l2-2.21q2.06,1.18,4.5,2.41c1.64.82,3.29,1.6,5,2.33s3.32,1.42,4.93,2S528.48,301.47,529.81,301.86Z"/><path class="cls-3" d="M532.82,286.75a14.29,14.29,0,0,1-2.8-4.42,11.33,11.33,0,0,1-.79-4.22,8.63,8.63,0,0,1,.87-3.73,9.62,9.62,0,0,1,2.24-3,8.48,8.48,0,0,1,6.72-2.37q3.63.38,7.37,4.56.24.27.45.54c.14.18.27.36.39.53l-11.8,10.52a10,10,0,0,0,5.76,3.39q2.91.38,6-2.41a12.14,12.14,0,0,0,2.44-2.76,15.1,15.1,0,0,0,1-1.85l2,1.47a11.88,11.88,0,0,1-1.15,2.14,14.83,14.83,0,0,1-2.63,3,13,13,0,0,1-4.35,2.71,9,9,0,0,1-4.19.47,9.68,9.68,0,0,1-3.94-1.47A17.2,17.2,0,0,1,532.82,286.75Zm10.74-12a9,9,0,0,0-4.89-3,5.35,5.35,0,0,0-4.62,1.5,5.83,5.83,0,0,0-1.62,2.27,6.79,6.79,0,0,0-.48,2.61,7.54,7.54,0,0,0,.54,2.69,9.88,9.88,0,0,0,1.45,2.51Z"/><path class="cls-3" d="M551.37,256.19a14.83,14.83,0,0,1,2.24-1.41,8.15,8.15,0,0,1,1.64-.68l1,2.29a6.51,6.51,0,0,0-1.35.55,16.49,16.49,0,0,0-2.37,1.53,13.37,13.37,0,0,0-2.2,2,8.32,8.32,0,0,0-.91,1.22l11.81,15.8-2.27,1.7L546.11,262a21.08,21.08,0,0,1,1.82-2.58A18.37,18.37,0,0,1,551.37,256.19Z"/><path class="cls-3" d="M577.84,266.6q-2.61-1.52-5.26-3.25c-1.76-1.16-3.49-2.36-5.18-3.62s-3.32-2.55-4.9-3.87-3.06-2.67-4.45-4l2.56-1.58c1,1,2.14,2.08,3.41,3.19s2.62,2.22,4.05,3.35,2.95,2.26,4.54,3.39,3.22,2.2,4.89,3.21q-.59-2.81-1.22-5.23c-.41-1.62-.86-3.21-1.33-4.78s-1-3.16-1.51-4.77-1.14-3.35-1.81-5.21L574,241.9q2.13,6.12,3.77,12.12a102.45,102.45,0,0,1,2.48,11.32,24.55,24.55,0,0,1,.33,3.76,9.44,9.44,0,0,1-.42,3,6.82,6.82,0,0,1-1.4,2.46,11.71,11.71,0,0,1-2.62,2.14,7,7,0,0,1-1.83.82,5.83,5.83,0,0,1-1.15.26l-.76-2.3a4.07,4.07,0,0,0,1-.2,6.32,6.32,0,0,0,1.56-.68,8.62,8.62,0,0,0,1.73-1.39,4.61,4.61,0,0,0,1-1.69,6.49,6.49,0,0,0,.35-2.14A15.47,15.47,0,0,0,577.84,266.6Z"/><path class="cls-3" d="M613.52,247.24c-.68.55-1.62,1.24-2.81,2.07a26.71,26.71,0,0,1-4.63,2.46,10.46,10.46,0,0,1-4.17,1,6.82,6.82,0,0,1-3.35-.83,8.52,8.52,0,0,1-2.67-2.41,18.07,18.07,0,0,1-2.09-3.7l-5-11.6,2.6-1.12L596,243.86a19.72,19.72,0,0,0,1.92,3.58,6.53,6.53,0,0,0,2.1,2,4.47,4.47,0,0,0,2.44.56,8.87,8.87,0,0,0,3-.78,23.65,23.65,0,0,0,3.12-1.58,8.83,8.83,0,0,0,1.56-1.1l-7.81-18.16,2.6-1.12Z"/><path class="cls-3" d="M624,242.46a8.92,8.92,0,0,0,3.6-2,2.81,2.81,0,0,0,.7-3.08,3.91,3.91,0,0,0-.74-1.41,3.17,3.17,0,0,0-1.25-.84,8,8,0,0,0-1.94-.43c-.77-.09-1.72-.19-2.85-.29q-1.37-.12-2.61-.3a10,10,0,0,1-2.29-.6,5.43,5.43,0,0,1-1.84-1.22,5.19,5.19,0,0,1-1.24-2.17,5.49,5.49,0,0,1,.64-4.86A8.76,8.76,0,0,1,619.1,222a15.5,15.5,0,0,1,3.75-.77,12.48,12.48,0,0,1,2.23,0l.13,2.6a17.92,17.92,0,0,0-1.89-.13,11.52,11.52,0,0,0-3.6.68,7.58,7.58,0,0,0-1.66.73,4.75,4.75,0,0,0-1.25,1,3.33,3.33,0,0,0-.68,1.32,2.74,2.74,0,0,0,.09,1.59,3.35,3.35,0,0,0,.8,1.4,3.59,3.59,0,0,0,1.33.79,8.32,8.32,0,0,0,1.86.39c.71.08,1.51.16,2.42.24s1.84.16,2.71.26a9.16,9.16,0,0,1,2.41.61,6,6,0,0,1,2,1.3,5.66,5.66,0,0,1,1.34,2.38,5.21,5.21,0,0,1-.79,5.09,10.92,10.92,0,0,1-5.49,3.38,15.9,15.9,0,0,1-4.47.88,17,17,0,0,1-2.22-.1L618,243a5.15,5.15,0,0,0,.63.1,10.4,10.4,0,0,0,1.25.06,12.49,12.49,0,0,0,1.81-.13A14.88,14.88,0,0,0,624,242.46Z"/><path class="cls-3" d="M633.72,229.81a14.29,14.29,0,0,1-.23-5.23,11.41,11.41,0,0,1,1.41-4.06,8.69,8.69,0,0,1,2.62-2.8,9.57,9.57,0,0,1,3.4-1.45,8.51,8.51,0,0,1,7,1.28c2,1.42,3.35,4,4.12,7.63q.08.34.12.69a5.35,5.35,0,0,1,.07.65l-15.46,3.26a10,10,0,0,0,3.31,5.8c1.56,1.19,3.7,1.49,6.43.92a12.57,12.57,0,0,0,3.49-1.18,16,16,0,0,0,1.76-1.13l1,2.28a12.08,12.08,0,0,1-2.06,1.28A14.5,14.5,0,0,1,647,239a13.07,13.07,0,0,1-5.12.19,8.94,8.94,0,0,1-3.87-1.68,9.54,9.54,0,0,1-2.69-3.24A17.34,17.34,0,0,1,633.72,229.81ZM649,224.76a9,9,0,0,0-2.75-5,5.39,5.39,0,0,0-4.75-1,5.94,5.94,0,0,0-2.54,1.16,6.83,6.83,0,0,0-1.71,2,7.59,7.59,0,0,0-.87,2.61,9.66,9.66,0,0,0,0,2.89Z"/><path class="cls-3" d="M665.07,212.55a14.82,14.82,0,0,1,2.64-.09,8,8,0,0,1,1.76.23l-.27,2.49a6,6,0,0,0-1.45-.2,16.41,16.41,0,0,0-2.82.13,13.52,13.52,0,0,0-2.88.61,8,8,0,0,0-1.4.6l2.32,19.6-2.81.33-2.53-21.32a20.72,20.72,0,0,1,2.87-1.33A19,19,0,0,1,665.07,212.55Z"/><path class="cls-3" d="M690,232.15a8.79,8.79,0,0,0,4-.81,2.82,2.82,0,0,0,1.59-2.73,3.93,3.93,0,0,0-.29-1.57,3.1,3.1,0,0,0-.94-1.17,7.89,7.89,0,0,0-1.72-1c-.71-.31-1.59-.69-2.64-1.12-.84-.35-1.64-.7-2.4-1.06a10.17,10.17,0,0,1-2-1.26,5.41,5.41,0,0,1-1.4-1.72,5.21,5.21,0,0,1-.53-2.44,5.45,5.45,0,0,1,2.06-4.44,8.69,8.69,0,0,1,5.68-1.72,15.49,15.49,0,0,1,3.81.39,12.21,12.21,0,0,1,2.11.69l-.64,2.53A15.68,15.68,0,0,0,695,214a11.7,11.7,0,0,0-3.64-.42,7.94,7.94,0,0,0-1.8.2,4.74,4.74,0,0,0-1.51.61,3.36,3.36,0,0,0-1,1.05,2.9,2.9,0,0,0-.39,1.55,3.31,3.31,0,0,0,.36,1.57,3.48,3.48,0,0,0,1,1.16,9.09,9.09,0,0,0,1.66.93c.65.29,1.4.6,2.25,1s1.7.69,2.5,1a9.11,9.11,0,0,1,2.12,1.3A6.12,6.12,0,0,1,698,225.8a5.61,5.61,0,0,1,.57,2.67,5.2,5.2,0,0,1-2.27,4.62,10.92,10.92,0,0,1-6.25,1.59,16,16,0,0,1-4.53-.49,18.23,18.23,0,0,1-2.09-.76l.74-2.57a3.89,3.89,0,0,0,.56.28,10.45,10.45,0,0,0,1.18.43,11.81,11.81,0,0,0,1.76.41A14.06,14.06,0,0,0,690,232.15Z"/><path class="cls-3" d="M703.45,234.3l2.74-33.16,2.87-.29-1,11.89a18.23,18.23,0,0,1,2.89-.57,14.7,14.7,0,0,1,2.89,0,11.3,11.3,0,0,1,4.28,1.09,6.79,6.79,0,0,1,2.6,2.34,8.19,8.19,0,0,1,1.18,3.4,19.75,19.75,0,0,1,.07,4.24l-1,12.54-2.82-.23,1-11.63a21.22,21.22,0,0,0,0-4.07,6.85,6.85,0,0,0-.86-2.78,4.22,4.22,0,0,0-1.9-1.66,9.57,9.57,0,0,0-3.13-.72,10.53,10.53,0,0,0-1.59,0c-.57,0-1.11.09-1.61.15s-1,.14-1.35.22a5,5,0,0,0-.78.2l-1.6,19.31Z"/><path class="cls-3" d="M748.29,228.8a14.77,14.77,0,0,1-1.58,4.64,10.71,10.71,0,0,1-2.74,3.28,9.65,9.65,0,0,1-3.6,1.78,10.51,10.51,0,0,1-8.15-1.41,9.61,9.61,0,0,1-2.79-2.89,10.73,10.73,0,0,1-1.47-4,15.61,15.61,0,0,1,1.65-9.52,11,11,0,0,1,2.74-3.31,9.66,9.66,0,0,1,3.61-1.8,9.77,9.77,0,0,1,4.22-.13,10,10,0,0,1,3.93,1.54,9.72,9.72,0,0,1,2.79,2.92,11,11,0,0,1,1.46,4A14.67,14.67,0,0,1,748.29,228.8Zm-3-.51a10.58,10.58,0,0,0-.79-7,6.87,6.87,0,0,0-10.46-1.82A10.64,10.64,0,0,0,731,225.8a10.53,10.53,0,0,0,.79,6.95,6.93,6.93,0,0,0,10.47,1.81A10.54,10.54,0,0,0,745.33,228.29Z"/><path class="cls-3" d="M768.33,245.1c-.87,0-2-.1-3.48-.23a27.11,27.11,0,0,1-5.13-1.1,10.73,10.73,0,0,1-3.83-1.93,6.87,6.87,0,0,1-2-2.8,8.53,8.53,0,0,1-.49-3.56,18,18,0,0,1,.79-4.17l3.66-12.09,2.71.82-3.4,11.21a20.36,20.36,0,0,0-.84,4,6.74,6.74,0,0,0,.31,2.89,4.43,4.43,0,0,0,1.51,2,8.87,8.87,0,0,0,2.76,1.32,25.72,25.72,0,0,0,3.4.8,9.36,9.36,0,0,0,1.91.16l5.73-18.92,2.7.82Z"/><path class="cls-3" d="M779.54,251a9.43,9.43,0,0,1-2.18-1.28,4.41,4.41,0,0,1-1.28-1.61,4.27,4.27,0,0,1-.35-2,8.21,8.21,0,0,1,.67-2.62l10.51-25.81,2.82.58-10.68,26.22a6,6,0,0,0-.45,1.62,2.22,2.22,0,0,0,.17,1.15,2.2,2.2,0,0,0,.74.89,12.1,12.1,0,0,0,1.27.85Z"/><path class="cls-3" d="M800.4,259.88a25.13,25.13,0,0,1-3.25-.72,25.66,25.66,0,0,1-4.6-1.89,12.22,12.22,0,0,1-3.66-2.75,9.8,9.8,0,0,1-2.06-3.66,10.64,10.64,0,0,1-.35-4.32,14.39,14.39,0,0,1,1.5-4.76,16.12,16.12,0,0,1,2.74-3.91,10.76,10.76,0,0,1,3.45-2.43,9.18,9.18,0,0,1,4-.73,10.45,10.45,0,0,1,4.26,1.18,10.63,10.63,0,0,1,3.15,2.31,10,10,0,0,1,1.58,2.14l5.46-10.81,2.77.82Zm5.48-17.09a9.68,9.68,0,0,0-.58-1,10.71,10.71,0,0,0-2.22-2.42,8.81,8.81,0,0,0-1.62-1,7.54,7.54,0,0,0-3.46-.92,6.34,6.34,0,0,0-2.94.74,8.24,8.24,0,0,0-2.44,2,15.41,15.41,0,0,0-2,3q-2,4-1.1,7.08a7.68,7.68,0,0,0,4.17,4.78,23.75,23.75,0,0,0,3.1,1.35,11.92,11.92,0,0,0,1.92.5Z"/><path class="cls-3" d="M828.75,253.56a10,10,0,0,1,2.62.44,10.62,10.62,0,0,1,3.48,1.77,10.36,10.36,0,0,1,3,3.26,9.17,9.17,0,0,1,1.14,3.86,10.83,10.83,0,0,1-.61,4.18,16,16,0,0,1-2.25,4.21,14.13,14.13,0,0,1-3.56,3.49,10.56,10.56,0,0,1-4,1.64,9.59,9.59,0,0,1-4.19-.18,11.91,11.91,0,0,1-4.11-2,24.63,24.63,0,0,1-3.77-3.25,24.27,24.27,0,0,1-2.11-2.57l19.26-26.27,2.6,1.26Zm-11,14.92a11.09,11.09,0,0,0,1.32,1.48,24,24,0,0,0,2.6,2.16,7.69,7.69,0,0,0,6.15,1.56q3.2-.6,5.82-4.18a15.67,15.67,0,0,0,1.78-3.09,8.33,8.33,0,0,0,.71-3.1,6.28,6.28,0,0,0-.67-2.95,7.48,7.48,0,0,0-2.39-2.67,8.6,8.6,0,0,0-1.66-1,10.22,10.22,0,0,0-1.67-.6,9.48,9.48,0,0,0-1.49-.29,10.31,10.31,0,0,0-1.18,0Z"/><path class="cls-3" d="M840.2,274.67a14.24,14.24,0,0,1,4.17-3.15,11.5,11.5,0,0,1,4.15-1.14,8.9,8.9,0,0,1,3.79.57,9.57,9.57,0,0,1,3.13,2,8.53,8.53,0,0,1,2.92,6.51c-.06,2.43-1.37,5-4,7.72-.16.17-.33.33-.5.49s-.34.3-.5.43L842,277.18a9.94,9.94,0,0,0-2.9,6c-.1,2,.87,3.89,2.89,5.81a12.32,12.32,0,0,0,2.95,2.21,14.25,14.25,0,0,0,1.93.81l-1.3,2.13a11.52,11.52,0,0,1-2.23-1,14.25,14.25,0,0,1-3.19-2.36,13.28,13.28,0,0,1-3.06-4.12,9,9,0,0,1-.81-4.14,9.6,9.6,0,0,1,1.15-4A16.94,16.94,0,0,1,840.2,274.67ZM853,284.39a9,9,0,0,0,2.59-5.11,5.38,5.38,0,0,0-1.87-4.49,6,6,0,0,0-2.4-1.43,6.9,6.9,0,0,0-2.64-.26,7.73,7.73,0,0,0-2.64.76,9.58,9.58,0,0,0-2.38,1.65Z"/><path class="cls-3" d="M878.48,295.9A10,10,0,0,1,880.7,299a6.53,6.53,0,0,1,.54,3,6.71,6.71,0,0,1-.88,2.84,11.78,11.78,0,0,1-2,2.65l-10,10a10.76,10.76,0,0,1-1.09-.69l-1.59-1.12c-.59-.44-1.23-.94-1.91-1.51s-1.34-1.19-2-1.85a13.35,13.35,0,0,1-2.05-2.6,7.48,7.48,0,0,1-1-2.73,5.87,5.87,0,0,1,.31-2.77,7.59,7.59,0,0,1,1.85-2.74,6.6,6.6,0,0,1,2.71-1.73,6,6,0,0,1,2.91-.13,8.78,8.78,0,0,1,3,1.24,17.31,17.31,0,0,1,3,2.41,11.65,11.65,0,0,1,.86.95c.29.35.55.7.8,1.05s.45.65.62.92a3.23,3.23,0,0,1,.3.59l1-1a14.29,14.29,0,0,0,1.49-1.74,5,5,0,0,0,.88-2,4.32,4.32,0,0,0-.15-2.18,6.24,6.24,0,0,0-1.6-2.37,14.45,14.45,0,0,0-2.87-2.37c-.74-.41-1.29-.7-1.66-.87l1.48-2a10.91,10.91,0,0,1,2.08,1.16A19.32,19.32,0,0,1,878.48,295.9Zm-14.65,15c.78.78,1.48,1.44,2.12,2a20.07,20.07,0,0,0,1.69,1.3l5.61-5.61a8.66,8.66,0,0,0-.76-1.4,13.3,13.3,0,0,0-1.86-2.2,15.7,15.7,0,0,0-1.65-1.43,6.13,6.13,0,0,0-1.94-1,4.28,4.28,0,0,0-2.07-.14,3.93,3.93,0,0,0-2.07,1.2,5,5,0,0,0-1.21,1.8,3.45,3.45,0,0,0-.16,1.82,5.1,5.1,0,0,0,.76,1.83A10.9,10.9,0,0,0,863.83,310.93Z"/><path class="cls-3" d="M890,310.06a10.26,10.26,0,0,1,2.52.84,10.59,10.59,0,0,1,3.17,2.27,10.27,10.27,0,0,1,2.45,3.68,9.12,9.12,0,0,1,.54,4,10.7,10.7,0,0,1-1.23,4,15.63,15.63,0,0,1-2.87,3.81,13.86,13.86,0,0,1-4,2.91,10.57,10.57,0,0,1-4.22,1,9.79,9.79,0,0,1-4.11-.81,12.14,12.14,0,0,1-3.76-2.62,25.3,25.3,0,0,1-3.23-3.79,25.67,25.67,0,0,1-1.7-2.86l23-23,2.37,1.63Zm-13.09,13.09a11.07,11.07,0,0,0,1.08,1.66,23.54,23.54,0,0,0,2.24,2.53,7.71,7.71,0,0,0,5.84,2.48c2.17-.07,4.3-1.16,6.39-3.25a15.17,15.17,0,0,0,2.23-2.79,8.13,8.13,0,0,0,1.17-2.95,6.36,6.36,0,0,0-.21-3,7.42,7.42,0,0,0-2-3,8.85,8.85,0,0,0-1.49-1.22,11.47,11.47,0,0,0-1.56-.85,9.47,9.47,0,0,0-1.43-.5,10.39,10.39,0,0,0-1.15-.24Z"/><path class="cls-3" d="M894.74,345.3a9.88,9.88,0,0,1-1.51-2,4.41,4.41,0,0,1-.55-2,4.25,4.25,0,0,1,.46-2,8.23,8.23,0,0,1,1.63-2.15l19.71-19.71,2.37,1.63-20,20a5.45,5.45,0,0,0-1.05,1.32,2.2,2.2,0,0,0-.29,1.12,2.34,2.34,0,0,0,.34,1.11,11.5,11.5,0,0,0,.84,1.28Z"/><path class="cls-3" d="M905.87,339.92a14,14,0,0,1,4.25-3.05,11.42,11.42,0,0,1,4.17-1,8.66,8.66,0,0,1,3.77.67,9.52,9.52,0,0,1,3.08,2.06,8.5,8.5,0,0,1,2.76,6.57q-.18,3.66-4.15,7.63l-.5.47q-.27.24-.51.42l-11.18-11.18a10,10,0,0,0-3,5.94c-.14,1.95.77,3.92,2.74,5.89a12.89,12.89,0,0,0,2.9,2.28,15.6,15.6,0,0,0,1.91.86l-1.36,2.09a12,12,0,0,1-2.2-1,14.52,14.52,0,0,1-3.13-2.45,13,13,0,0,1-3-4.19,9,9,0,0,1-.71-4.15,9.56,9.56,0,0,1,1.25-4A17.2,17.2,0,0,1,905.87,339.92Zm12.56,10a8.89,8.89,0,0,0,2.71-5.05,5.34,5.34,0,0,0-1.75-4.52,6,6,0,0,0-2.36-1.5,7.08,7.08,0,0,0-2.63-.32,7.54,7.54,0,0,0-2.67.69,9.5,9.5,0,0,0-2.41,1.59Z"/><path class="cls-3" d="M940.54,358.7l6.34,6.34-1.69,1.7-6.34-6.35-8.47,8.47a11.77,11.77,0,0,0-2,2.43,4.38,4.38,0,0,0-.65,2,3,3,0,0,0,.43,1.67,8.44,8.44,0,0,0,1.2,1.51,8.29,8.29,0,0,0,2.33,1.74,13.71,13.71,0,0,0,1.74.66L932.29,381a9.84,9.84,0,0,1-2.14-.87,10.68,10.68,0,0,1-2.7-2,10,10,0,0,1-2.09-2.86,5,5,0,0,1-.43-2.78,6.73,6.73,0,0,1,1.11-2.8,19,19,0,0,1,2.52-3L943.22,352l2.37,1.63Z"/><path class="cls-3" d="M956.19,390.3a14.58,14.58,0,0,1-4,2.88,10.67,10.67,0,0,1-4.12,1.11,9.84,9.84,0,0,1-4-.62,10.51,10.51,0,0,1-5.85-5.85,9.78,9.78,0,0,1-.61-4,10.71,10.71,0,0,1,1.11-4.13,15.79,15.79,0,0,1,6.83-6.83,11,11,0,0,1,4.14-1.13,9.65,9.65,0,0,1,4,.6,9.91,9.91,0,0,1,3.53,2.33,9.76,9.76,0,0,1,2.32,3.52,9.38,9.38,0,0,1,.6,4,10.86,10.86,0,0,1-1.12,4.14A14.58,14.58,0,0,1,956.19,390.3Zm-2.12-2.12a10.67,10.67,0,0,0,3.37-6.15,6.89,6.89,0,0,0-7.52-7.51,12.5,12.5,0,0,0-9.5,9.5,6.94,6.94,0,0,0,7.52,7.51A10.53,10.53,0,0,0,954.07,388.18Z"/><path class="cls-3" d="M964.22,415a8.93,8.93,0,0,1-1.88-2.55,4.82,4.82,0,0,1-.47-2.36,5.11,5.11,0,0,1,.66-2.17,8.86,8.86,0,0,1,1.54-2,16.41,16.41,0,0,1,2-1.74c.77-.57,1.57-1.11,2.41-1.62l9.83-6,2,2-8.71,5.33c-.89.55-1.82,1.13-2.8,1.72a13.84,13.84,0,0,0-2.56,2,6.45,6.45,0,0,0-1,1.28,3.25,3.25,0,0,0-.45,1.4,3,3,0,0,0,.28,1.51,5.76,5.76,0,0,0,1.2,1.64,8,8,0,0,0,3.19,2,10.61,10.61,0,0,0,3.81.42,12.29,12.29,0,0,1,2.16-1.67q1.32-.83,2.4-1.47l10.38-6.25,2,2L978,415.82c-.63.39-1.22.77-1.75,1.14a10,10,0,0,0-1.42,1.17,10.54,10.54,0,0,0-1.41,1.72,11.17,11.17,0,0,0-1.08,2.19l-2.37-1.75a7.37,7.37,0,0,1,.53-1.17,8.14,8.14,0,0,1,.77-1.17,9.68,9.68,0,0,1-3.82-.77A10.31,10.31,0,0,1,964.22,415Z"/><path class="cls-3" d="M977.88,422.83a12.62,12.62,0,0,0,1.18,2.83,11,11,0,0,0,1.73,2.15,8.88,8.88,0,0,0,1.65,1.31,5.36,5.36,0,0,0,1.74.72,3.46,3.46,0,0,0,1.72-.07,3.63,3.63,0,0,0,1.6-1,2.78,2.78,0,0,0,.88-1.78,5.87,5.87,0,0,0-.21-2c-.18-.7-.41-1.43-.68-2.19a11.8,11.8,0,0,1-.57-2.29,5.8,5.8,0,0,1,.12-2.34,5.1,5.1,0,0,1,1.45-2.36,6.75,6.75,0,0,1,2.76-1.78,6.19,6.19,0,0,1,2.86-.22,7.83,7.83,0,0,1,2.79,1,12.47,12.47,0,0,1,2.5,1.93,18.08,18.08,0,0,1,1.79,2.12,15.59,15.59,0,0,1,1.36,2.37l-2.59,1a11.38,11.38,0,0,0-1-1.92,12.63,12.63,0,0,0-1.56-1.89,10,10,0,0,0-1.59-1.28,5.09,5.09,0,0,0-1.73-.7,4.09,4.09,0,0,0-1.74,0,3.51,3.51,0,0,0-1.63,1,2.77,2.77,0,0,0-.87,1.77,6.71,6.71,0,0,0,.17,2,20,20,0,0,0,.68,2.18,10.08,10.08,0,0,1,.59,2.28,6.48,6.48,0,0,1-.08,2.28,4.66,4.66,0,0,1-1.32,2.22A7.24,7.24,0,0,1,987,432.1a6.31,6.31,0,0,1-2.94.26,8.07,8.07,0,0,1-2.82-1,11.87,11.87,0,0,1-2.51-1.92,16.35,16.35,0,0,1-2.15-2.66,10.91,10.91,0,0,1-1.37-3Z"/><path class="cls-3" d="M1014.18,439.68a6.28,6.28,0,0,1-3.65,2,8.07,8.07,0,0,1-4.08-.65,20.47,20.47,0,0,1-4.58-2.75q-2.42-1.86-5.16-4.35l-.65.65a10.19,10.19,0,0,0-1.47,1.85,4.43,4.43,0,0,0-.66,2,4.78,4.78,0,0,0,.46,2.28,9.22,9.22,0,0,0,1.93,2.6,11.36,11.36,0,0,0,2.49,1.85,10.78,10.78,0,0,0,3,1.15l-1.63,2.07A13.88,13.88,0,0,1,997,447a14.59,14.59,0,0,1-2.88-2.23,11.77,11.77,0,0,1-2.43-3.28,6.88,6.88,0,0,1-.68-3.07,6.33,6.33,0,0,1,.81-2.89,12.41,12.41,0,0,1,2.06-2.68,18.87,18.87,0,0,1,4.5-3.32,16,16,0,0,1,5.25-1.72,12.8,12.8,0,0,1,5.36.39,11.18,11.18,0,0,1,4.84,2.95,6.46,6.46,0,0,1,2.2,4.43A5.62,5.62,0,0,1,1014.18,439.68Zm-2.39-6.93A7.66,7.66,0,0,0,1009,431a9.48,9.48,0,0,0-3.31-.56,12.49,12.49,0,0,0-3.49.51,13.47,13.47,0,0,0-3.34,1.47,50.05,50.05,0,0,0,4.75,4.06,16.08,16.08,0,0,0,3.65,2.1,5,5,0,0,0,2.74.36,3.92,3.92,0,0,0,2-1.13,3.11,3.11,0,0,0,1.07-2.52A4.05,4.05,0,0,0,1011.79,432.75Z"/><path class="cls-3" d="M1035.46,444.1l2.46,1.71-6.23,3.88,5.63,5.6-2.13,1.33-5.67-5.65-9.65,5.93c-.47.27-1,.58-1.45.93a10.7,10.7,0,0,0-1.35,1.14,3.4,3.4,0,0,0-1.26,2.62,3.72,3.72,0,0,0,1.15,2.26,9,9,0,0,0,1.94,1.49,15,15,0,0,0,2.12.94l-1.63,2a17.58,17.58,0,0,1-2.45-1.28,12.11,12.11,0,0,1-2.31-1.8,8.66,8.66,0,0,1-1.33-1.69,4.84,4.84,0,0,1-.64-1.87,4.41,4.41,0,0,1,.27-2,6.24,6.24,0,0,1,1.46-2.11,17.9,17.9,0,0,1,3.48-2.63Z"/><path class="cls-3" d="M1023.78,473.58l-2-2,29.09-18,2.46,1.72-10.43,6.39a13.43,13.43,0,0,1,4.47,2.85,8.36,8.36,0,0,1,1.64,2.24,6.31,6.31,0,0,1,.65,2.5,6,6,0,0,1-.49,2.61,8.36,8.36,0,0,1-1.84,2.63,15.64,15.64,0,0,1-1.77,1.52,22.76,22.76,0,0,1-2,1.38l-9.82,6-2-2,8.76-5.41c.84-.51,1.68-1.05,2.52-1.6a15.08,15.08,0,0,0,2.22-1.79,5.44,5.44,0,0,0,1.26-1.85,4,4,0,0,0,.24-1.79,4.32,4.32,0,0,0-.58-1.68,7.37,7.37,0,0,0-1.19-1.52,12.67,12.67,0,0,0-2-1.62,19.31,19.31,0,0,0-2.17-1.24Z"/><path class="cls-3" d="M1064.85,490.16a6.23,6.23,0,0,1-3.64,2,8,8,0,0,1-4.08-.66,20.18,20.18,0,0,1-4.58-2.74q-2.43-1.86-5.17-4.35l-.64.65a9.93,9.93,0,0,0-1.48,1.85,4.43,4.43,0,0,0-.66,2,4.82,4.82,0,0,0,.47,2.28,8.87,8.87,0,0,0,1.93,2.59,11.39,11.39,0,0,0,5.49,3l-1.63,2.07a13.51,13.51,0,0,1-3.22-1.4,14.2,14.2,0,0,1-2.89-2.23,11.54,11.54,0,0,1-2.42-3.27,6.92,6.92,0,0,1-.68-3.08,6.33,6.33,0,0,1,.81-2.88,11.87,11.87,0,0,1,2.06-2.68A18.6,18.6,0,0,1,1049,480a15.65,15.65,0,0,1,5.25-1.72,12.81,12.81,0,0,1,5.36.39,11.24,11.24,0,0,1,4.84,3,6.41,6.41,0,0,1,2.19,4.43A5.6,5.6,0,0,1,1064.85,490.16Zm-2.38-6.93a7.48,7.48,0,0,0-2.82-1.79,9.76,9.76,0,0,0-3.31-.57,13,13,0,0,0-3.5.52,13.64,13.64,0,0,0-3.34,1.47,49.54,49.54,0,0,0,4.75,4.05,15.58,15.58,0,0,0,3.66,2.1,5.07,5.07,0,0,0,2.74.37,3.93,3.93,0,0,0,2-1.13,3.13,3.13,0,0,0,1.08-2.53A4.11,4.11,0,0,0,1062.47,483.23Z"/><path class="cls-3" d="M1073.4,491.23l2,2-19.75,12.11-2-2Zm5.43-3.88a2.23,2.23,0,0,1,1.66-.77,2,2,0,0,1,1.39.55,1.71,1.71,0,0,1,.57,1.34,2.06,2.06,0,0,1-.66,1.34,1.94,1.94,0,0,1-1.63.65,2.2,2.2,0,0,1-1.39-.58,1.65,1.65,0,0,1-.57-1.28A2,2,0,0,1,1078.83,487.35Z"/><path class="cls-3" d="M1079.74,499a22.84,22.84,0,0,1,3.34,1.79,17.59,17.59,0,0,1,3.06,2.43,15.15,15.15,0,0,1,1.27,1.45,8.63,8.63,0,0,1,.92,1.53l-2.34,1.3a11.73,11.73,0,0,0-2.09-2.82,14.37,14.37,0,0,0-1.73-1.48,15.11,15.11,0,0,0-2-1.22l-17.29,10.62-2-2Z"/><path class="cls-3" d="M1081.66,526.19a12.75,12.75,0,0,0,1.17,2.84,12,12,0,0,0,1.73,2.15,9.52,9.52,0,0,0,1.65,1.3,5.5,5.5,0,0,0,1.75.72,3.46,3.46,0,0,0,1.72-.06,3.81,3.81,0,0,0,1.6-1,2.81,2.81,0,0,0,.87-1.77,6.17,6.17,0,0,0-.2-2c-.19-.7-.41-1.43-.68-2.19a12.4,12.4,0,0,1-.58-2.29,6.18,6.18,0,0,1,.12-2.34,5.13,5.13,0,0,1,1.46-2.36,6.86,6.86,0,0,1,2.75-1.77,6.11,6.11,0,0,1,2.87-.22,7.88,7.88,0,0,1,2.78,1,12.25,12.25,0,0,1,2.5,1.94,15.1,15.1,0,0,1,1.79,2.12,14.07,14.07,0,0,1,1.36,2.37l-2.58,1a11.17,11.17,0,0,0-1-1.93,12.42,12.42,0,0,0-1.56-1.89,9.14,9.14,0,0,0-1.59-1.27,5.07,5.07,0,0,0-1.72-.71,4.08,4.08,0,0,0-1.74,0,3.58,3.58,0,0,0-1.63,1,2.83,2.83,0,0,0-.88,1.77,6.42,6.42,0,0,0,.18,2,16.48,16.48,0,0,0,.68,2.19,10.71,10.71,0,0,1,.59,2.27,6.73,6.73,0,0,1-.09,2.28,4.5,4.5,0,0,1-1.32,2.22,7.1,7.1,0,0,1-2.84,1.84,6.48,6.48,0,0,1-2.94.27,8,8,0,0,1-2.82-1,11.68,11.68,0,0,1-2.52-1.92,15.88,15.88,0,0,1-2.14-2.66,10.94,10.94,0,0,1-1.38-3Z"/><path class="cls-3" d="M1117.26,544.88a19.93,19.93,0,0,1-5.83,4.21,15.42,15.42,0,0,1-5.61,1.44,11.79,11.79,0,0,1-4.92-.74,10.72,10.72,0,0,1-3.74-2.38,9,9,0,0,1-1.72-2.38,7.07,7.07,0,0,1-.7-2.73,6.89,6.89,0,0,1,.51-2.85,8.12,8.12,0,0,1,1.89-2.76,19.77,19.77,0,0,1,5.82-4.21,15.39,15.39,0,0,1,5.6-1.43,12.05,12.05,0,0,1,4.9.76,10.85,10.85,0,0,1,3.75,2.38,8.71,8.71,0,0,1,1.71,2.38,6.78,6.78,0,0,1,.2,5.58A8.3,8.3,0,0,1,1117.26,544.88Zm-18-6.28a4.73,4.73,0,0,0-.2,7.11,7.3,7.3,0,0,0,2.86,1.71,9.32,9.32,0,0,0,3.86.4,13.25,13.25,0,0,0,4.51-1.31,17.33,17.33,0,0,0,4.75-3.51,4.71,4.71,0,0,0,.2-7.11,7.34,7.34,0,0,0-2.85-1.71,9.36,9.36,0,0,0-3.87-.4,13.2,13.2,0,0,0-4.5,1.31A17.57,17.57,0,0,0,1099.29,538.6Z"/><path class="cls-3" d="M1113.77,557c-1.23.74-2.38,1.41-3.44,2a29.77,29.77,0,0,1-3.12,1.53,20,20,0,0,1-3.07,1,20.41,20.41,0,0,1-3.26.5l-1.48-2c1.21-.19,2.29-.4,3.23-.62a19.59,19.59,0,0,0,2.65-.84c.82-.33,1.61-.7,2.38-1.1s1.59-.87,2.45-1.41l19.65-12.07A15,15,0,0,1,1134,542a9.77,9.77,0,0,1,3.54-.28,8,8,0,0,1,3,1,11.37,11.37,0,0,1,2.42,1.82,10.74,10.74,0,0,1,1.62,2,16.29,16.29,0,0,1,1,1.83l-2.55.65c-.29-.58-.59-1.1-.88-1.56a9.81,9.81,0,0,0-1.22-1.46,6.76,6.76,0,0,0-1.7-1.25,4.65,4.65,0,0,0-2-.51,7.28,7.28,0,0,0-2.44.38,14.29,14.29,0,0,0-3,1.41l-2.1,1.23,5.34,5.31-2.09,1.36-5.4-5.37Z"/><path class="cls-3" d="M1144.2,552.41l2.46,1.71-6.23,3.88,5.63,5.6-2.13,1.33-5.67-5.65-9.65,5.93a16,16,0,0,0-1.45.93,10.7,10.7,0,0,0-1.35,1.14,3.4,3.4,0,0,0-1.26,2.62,3.72,3.72,0,0,0,1.15,2.26,8.77,8.77,0,0,0,1.94,1.49,16.21,16.21,0,0,0,2.12.94l-1.63,2a19.46,19.46,0,0,1-2.46-1.28,12.36,12.36,0,0,1-2.3-1.8,8.3,8.3,0,0,1-1.33-1.69,4.68,4.68,0,0,1-.64-1.87,4.39,4.39,0,0,1,.27-2,6.13,6.13,0,0,1,1.46-2.12,17.89,17.89,0,0,1,3.48-2.62Z"/><path class="cls-3" d="M1135.54,584.91l-2.09-2.09q2.73-4,6.37-8.47t8-9l2,2q-1.61,1.67-3.43,3.68t-3.58,4.09c-1.17,1.38-2.25,2.69-3.26,4a38.16,38.16,0,0,0-2.39,3.27q2.37-.4,5.09-1.08t5.5-1.56q2.76-.9,5.43-1.94a52.65,52.65,0,0,0,4.91-2.18l2.06,2.06q-1.5,1.51-3.21,3.38t-3.42,3.84q-1.72,2-3.34,3.93t-2.87,3.66a28.82,28.82,0,0,0,4.31-.72q2.74-.62,5.8-1.53c2-.61,4-1.29,6-2a36.52,36.52,0,0,0,5-2.24l2,2a50,50,0,0,1-6.51,2.83q-3.53,1.25-6.94,2.12t-6.45,1.38a41.35,41.35,0,0,1-5,.61l-2.09-2.08c1.59-2,3.34-4.17,5.25-6.45s3.84-4.46,5.83-6.54q-2.05.83-4.52,1.67t-5,1.53q-2.55.71-5,1.21A39.12,39.12,0,0,1,1135.54,584.91Z"/><path class="cls-3" d="M1164.57,614.19a7.27,7.27,0,0,1,.52-1.17,9.08,9.08,0,0,1,.77-1.17,10.34,10.34,0,0,1-3.81-.72,8.91,8.91,0,0,1-3-2,7.49,7.49,0,0,1-1.55-2.21,6,6,0,0,1-.53-2.62,7.43,7.43,0,0,1,.73-2.93,10.8,10.8,0,0,1,2.25-3.09,16.81,16.81,0,0,1,5.25-3.67,13.7,13.7,0,0,1,5.64-1.18,14.21,14.21,0,0,1,5.56,1.21,16.27,16.27,0,0,1,5,3.49,15.11,15.11,0,0,1,3,4.3l-11.94,7.23c-.63.39-1.22.77-1.75,1.15a10.54,10.54,0,0,0-1.42,1.17,10.26,10.26,0,0,0-2.48,3.91Zm16.14-12.63c-.29-.45-.56-.85-.83-1.2a11.53,11.53,0,0,0-5-3.66,11.13,11.13,0,0,0-4.44-.55,12.18,12.18,0,0,0-4.29,1.19,13.36,13.36,0,0,0-3.68,2.61,10.81,10.81,0,0,0-1.86,2.36,5.13,5.13,0,0,0-.67,2,3.63,3.63,0,0,0,.27,1.74,4.8,4.8,0,0,0,1,1.45,7,7,0,0,0,3,1.77,11.33,11.33,0,0,0,3.81.38,12.18,12.18,0,0,1,2.15-1.67c.88-.55,1.68-1,2.4-1.48Z"/><path class="cls-3" d="M1189,607.78a23.78,23.78,0,0,1,3.34,1.79,18.2,18.2,0,0,1,3.07,2.44,13.81,13.81,0,0,1,1.26,1.44,8.76,8.76,0,0,1,.93,1.54l-2.34,1.3a11.38,11.38,0,0,0-2.1-2.83,15.15,15.15,0,0,0-1.72-1.47,17.15,17.15,0,0,0-2-1.23l-17.29,10.63-2-2Z"/><path class="cls-3" d="M1207.73,632.47a6.2,6.2,0,0,1-3.64,2,8,8,0,0,1-4.08-.65,20.25,20.25,0,0,1-4.58-2.75q-2.43-1.86-5.17-4.34l-.64.64a10.26,10.26,0,0,0-1.48,1.85,4.43,4.43,0,0,0-.66,2,4.79,4.79,0,0,0,.47,2.28,8.9,8.9,0,0,0,1.93,2.6,11.25,11.25,0,0,0,2.48,1.86,11.65,11.65,0,0,0,3,1.15l-1.63,2.06a13.46,13.46,0,0,1-3.22-1.39,15,15,0,0,1-2.89-2.23,11.63,11.63,0,0,1-2.42-3.27,7,7,0,0,1-.68-3.08,6.14,6.14,0,0,1,.81-2.88,12.16,12.16,0,0,1,2.05-2.69,19.13,19.13,0,0,1,4.51-3.32,15.88,15.88,0,0,1,5.25-1.72,13,13,0,0,1,5.36.39,11.34,11.34,0,0,1,4.84,2.95,6.41,6.41,0,0,1,2.19,4.43A5.6,5.6,0,0,1,1207.73,632.47Zm-2.38-6.92a7.63,7.63,0,0,0-2.82-1.8,9.77,9.77,0,0,0-3.32-.56,12.6,12.6,0,0,0-3.49.51,13.64,13.64,0,0,0-3.34,1.47,51.34,51.34,0,0,0,4.75,4.06,16.33,16.33,0,0,0,3.66,2.1,5,5,0,0,0,2.74.36,3.91,3.91,0,0,0,2-1.12,3.16,3.16,0,0,0,1.08-2.53A4.11,4.11,0,0,0,1205.35,625.55Z"/><path class="cls-3" d="M1223.43,640.67l2,2-19.74,12.11-2-2Zm5.44-3.87a2.23,2.23,0,0,1,1.66-.77,2,2,0,0,1,1.38.55,1.68,1.68,0,0,1,.58,1.34,2.06,2.06,0,0,1-.66,1.34,2,2,0,0,1-1.63.65,2.25,2.25,0,0,1-1.39-.58,1.65,1.65,0,0,1-.57-1.28A2,2,0,0,1,1228.87,636.8Z"/><path class="cls-3" d="M1230,648.27c1,.57,2.07,1.22,3.15,1.94a19.88,19.88,0,0,1,2.94,2.41,12.86,12.86,0,0,1,1.87,2.32,6.1,6.1,0,0,1,.91,2.53,5.84,5.84,0,0,1-.36,2.71,8.24,8.24,0,0,1-1.94,2.81,16.79,16.79,0,0,1-1.77,1.53c-.64.48-1.33.94-2,1.37l-9.81,6-2-2,8.76-5.4c.84-.52,1.68-1.06,2.51-1.62a18.71,18.71,0,0,0,2.23-1.78,5.18,5.18,0,0,0,1.27-1.87,3.43,3.43,0,0,0,.18-1.78,4.46,4.46,0,0,0-.66-1.71,9.2,9.2,0,0,0-1.27-1.57,16,16,0,0,0-1.75-1.5q-1-.71-2-1.32L1212.94,662l-2-2Z"/><path class="cls-3" d="M1254.37,668.45l7.09,4.84-1.92,2.8-7.08-4.84-5.9,8.63a12.18,12.18,0,0,0-1.37,2.47,4.11,4.11,0,0,0-.34,1.88,2.77,2.77,0,0,0,.58,1.47,5.74,5.74,0,0,0,1.36,1.25,8.47,8.47,0,0,0,2.66,1.32c.76.19,1.3.31,1.61.38l-1.25,3.21a14.84,14.84,0,0,1-2.19-.57,11.86,11.86,0,0,1-3.13-1.59,10.53,10.53,0,0,1-2.82-2.64,5.6,5.6,0,0,1-1-2.82,7,7,0,0,1,.58-3.11,19,19,0,0,1,1.94-3.5l11.4-16.68,3.74,1.71Z"/><path class="cls-3" d="M1254.24,695.54l16.49-28.7,3.86,1.41-5.77,10a14.32,14.32,0,0,1,4.76,1.68,11.27,11.27,0,0,1,3.5,2.89,7.17,7.17,0,0,1,1.42,3.27,8.34,8.34,0,0,1-.34,3.6,18.92,18.92,0,0,1-1.73,3.88l-6.33,11-3.52-2,5.91-10.27a19.86,19.86,0,0,0,1.53-3.24,5.89,5.89,0,0,0,.38-2.54,3.68,3.68,0,0,0-.85-2,7.53,7.53,0,0,0-2.13-1.7,10.48,10.48,0,0,0-1.21-.6c-.44-.18-.85-.35-1.25-.49s-.77-.27-1.11-.36a6.12,6.12,0,0,0-.73-.17l-9.37,16.31Z"/><path class="cls-3" d="M1281,697.64a14.29,14.29,0,0,1,3-4.38,11,11,0,0,1,3.67-2.4,9.35,9.35,0,0,1,3.94-.6,10.33,10.33,0,0,1,3.78,1,8.75,8.75,0,0,1,5.14,5.56c.66,2.42.17,5.38-1.48,8.91-.08.15-.17.36-.29.61a5.94,5.94,0,0,1-.36.67l-14-6.58a8.3,8.3,0,0,0-.42,5.72q.84,2.42,4.27,4a15.19,15.19,0,0,0,3.41,1.19,13,13,0,0,0,2.3.28l-.93,3.32a12.53,12.53,0,0,1-2.7-.35,19.26,19.26,0,0,1-4-1.39,13.47,13.47,0,0,1-4.25-3,9.59,9.59,0,0,1-2.17-3.74,9.89,9.89,0,0,1-.29-4.25A15.55,15.55,0,0,1,1281,697.64Zm15,4.59a6.8,6.8,0,0,0,.67-4.67,4.71,4.71,0,0,0-2.78-3.25,5.35,5.35,0,0,0-2.46-.55,5.92,5.92,0,0,0-2.23.51,6.47,6.47,0,0,0-1.9,1.33,9.41,9.41,0,0,0-1.47,1.86Z"/><path class="cls-3" d="M1316.82,725.36q-3.49-1.35-4.46-3.31a6.39,6.39,0,0,1,.12-5l9.16-25.59,4,.71-9.17,25.63a6.92,6.92,0,0,0-.39,1.62,2.2,2.2,0,0,0,.18,1.17,2.4,2.4,0,0,0,.79.91,10.85,10.85,0,0,0,1.41.85Z"/><path class="cls-3" d="M1336.37,706.73a11.71,11.71,0,0,1,3.77,1.76,6.64,6.64,0,0,1,2.09,2.47,6.88,6.88,0,0,1,.64,3,13.22,13.22,0,0,1-.57,3.49l-4,13.59-1.47-.18c-.63-.08-1.33-.18-2.11-.32l-2.51-.48q-1.35-.29-2.64-.66a15.11,15.11,0,0,1-3.28-1.37,8,8,0,0,1-2.33-2,5.73,5.73,0,0,1-1.13-2.66,8,8,0,0,1,.32-3.41,6.54,6.54,0,0,1,1.63-2.88,6.15,6.15,0,0,1,2.6-1.51,9.56,9.56,0,0,1,3.26-.31,16.89,16.89,0,0,1,3.63.64c.39.12.78.26,1.19.42a12.14,12.14,0,0,1,1.14.52l.93.47.55.3.32-1.09a9.36,9.36,0,0,0,.34-2,4.41,4.41,0,0,0-.26-1.89,4,4,0,0,0-1.14-1.61,6.2,6.2,0,0,0-2.32-1.15,18.6,18.6,0,0,0-3.45-.71,11.8,11.8,0,0,0-2.31-.06l.48-3.36a12.46,12.46,0,0,1,2.69.09A22.3,22.3,0,0,1,1336.37,706.73ZM1331,726.31c.92.27,1.74.49,2.46.65a11.13,11.13,0,0,0,1.85.29l1.89-6.48A5.27,5.27,0,0,0,1336,720a15.84,15.84,0,0,0-2.23-.81,16.18,16.18,0,0,0-1.9-.42,5.8,5.8,0,0,0-1.95,0,3.9,3.9,0,0,0-1.68.69,3,3,0,0,0-1.07,1.66,3.22,3.22,0,0,0,.49,3.29A7.18,7.18,0,0,0,1331,726.31Z"/><path class="cls-3" d="M1350.62,711.92c1,0,2.22,0,3.78,0a31.74,31.74,0,0,1,5.28.67,11.61,11.61,0,0,1,4.25,1.63,7.13,7.13,0,0,1,2.37,2.66,8.18,8.18,0,0,1,.82,3.52,18.89,18.89,0,0,1-.41,4.23l-2.52,12.46-4-.8,2.35-11.61a19,19,0,0,0,.43-3.56,6.13,6.13,0,0,0-.44-2.53,3.78,3.78,0,0,0-1.45-1.65,7.84,7.84,0,0,0-2.56-.94c-.43-.08-.87-.16-1.34-.22s-.9-.12-1.32-.16-.8-.06-1.14-.07l-.73,0-3.79,18.74-4-.8Z"/><path class="cls-3" d="M1386.9,737.67a11,11,0,0,1-5.66.83,11.18,11.18,0,0,1-3.76-1.06,8.43,8.43,0,0,1-2.92-2.35,9.74,9.74,0,0,1-1.75-3.63,13.8,13.8,0,0,1-.26-4.94,13.47,13.47,0,0,1,1.23-4.44,10.11,10.11,0,0,1,2.53-3.32,9.85,9.85,0,0,1,3.69-2,11.77,11.77,0,0,1,4.68-.35,26.16,26.16,0,0,1,4.87.94q2.06.65,3.45,1.14l-2.18,20.09c-.37,3.47-1.54,5.88-3.5,7.25s-4.75,1.84-8.39,1.45a21.64,21.64,0,0,1-4-.78,23.15,23.15,0,0,1-3.18-1.18l1.12-3.42a19.1,19.1,0,0,0,2.87,1.16,18.31,18.31,0,0,0,3.62.77c2.4.26,4.17,0,5.33-.87a5.86,5.86,0,0,0,2.07-4.38Zm1.77-16.72a15.52,15.52,0,0,0-1.59-.5,21.28,21.28,0,0,0-2.74-.45,6.2,6.2,0,0,0-5.23,1.58,8.6,8.6,0,0,0-2.36,5.44,9.77,9.77,0,0,0,.14,3.39,6.58,6.58,0,0,0,1.09,2.44,5.21,5.21,0,0,0,1.8,1.55,6.14,6.14,0,0,0,2.23.68,9.22,9.22,0,0,0,3-.13,7.68,7.68,0,0,0,2.24-.83Z"/><path class="cls-3" d="M1417.38,740.5q-1.41.33-3.69.69a31.56,31.56,0,0,1-5.3.31,11.26,11.26,0,0,1-4.39-.83,7,7,0,0,1-2.84-2.19,8.8,8.8,0,0,1-1.52-3.32,17.23,17.23,0,0,1-.42-4.2l.19-12.72,4,.06-.17,11.84c0,2.76.36,4.74,1.22,6s2.31,1.82,4.37,1.85l1.35,0c.46,0,.9,0,1.31-.09l1.11-.11a3.94,3.94,0,0,0,.72-.14l.28-19.12,4,.06Z"/><path class="cls-3" d="M1431.56,717.16a11.91,11.91,0,0,1,4.15.32,6.44,6.44,0,0,1,4.49,4.21,13.86,13.86,0,0,1,.69,3.47l1,14.11-1.44.35c-.62.15-1.31.29-2.09.44s-1.61.28-2.52.42-1.81.25-2.71.31a14.64,14.64,0,0,1-3.54-.13,7.78,7.78,0,0,1-2.87-1,5.52,5.52,0,0,1-2-2.1,7.62,7.62,0,0,1-.9-3.29,6.41,6.41,0,0,1,.52-3.28,6,6,0,0,1,1.9-2.32,9.55,9.55,0,0,1,3-1.44,16.11,16.11,0,0,1,3.62-.66c.4,0,.83,0,1.26,0s.86,0,1.25.08l1,.12.62.09-.09-1.13a9.28,9.28,0,0,0-.36-2,4.56,4.56,0,0,0-.91-1.68,4,4,0,0,0-1.63-1.1,6,6,0,0,0-2.58-.27,19.35,19.35,0,0,0-3.47.54,12.09,12.09,0,0,0-2.2.75l-.72-3.31a12,12,0,0,1,2.55-.86A21.85,21.85,0,0,1,1431.56,717.16Zm1.85,20.21c1-.07,1.8-.15,2.54-.25a11.83,11.83,0,0,0,1.83-.38l-.5-6.73a5.23,5.23,0,0,0-1.44-.26,14.7,14.7,0,0,0-2.38,0,15.52,15.52,0,0,0-1.92.27,6.14,6.14,0,0,0-1.83.68,4,4,0,0,0-1.33,1.24,3,3,0,0,0-.42,1.93,3.21,3.21,0,0,0,1.61,2.91A7.19,7.19,0,0,0,1433.41,737.37Z"/><path class="cls-3" d="M1463.94,734.19a11.44,11.44,0,0,1-1.86,1.21,10.35,10.35,0,0,1-3.37,1.1,11.39,11.39,0,0,1-3.91,0,8.48,8.48,0,0,1-3.44-1.49,9.85,9.85,0,0,1-2.66-3,14,14,0,0,1-1.56-4.69,13.21,13.21,0,0,1,0-4.61,10,10,0,0,1,1.55-3.87,9.88,9.88,0,0,1,3-2.88,11.73,11.73,0,0,1,4.42-1.58,25.12,25.12,0,0,1,4.94-.39q2.15.06,3.63.18l3.26,19.94c.56,3.44.08,6.07-1.45,7.91s-4.09,3-7.7,3.64a22.71,22.71,0,0,1-4,.31,23,23,0,0,1-3.38-.29l.16-3.6a18.93,18.93,0,0,0,3.09.36,17.9,17.9,0,0,0,3.69-.23c2.37-.39,4-1.14,4.9-2.26s1.17-2.7.83-4.77Zm-2.76-16.58a13,13,0,0,0-1.66-.06,20.89,20.89,0,0,0-2.76.29,6.2,6.2,0,0,0-4.62,2.92,8.6,8.6,0,0,0-.82,5.87,9.9,9.9,0,0,0,1,3.23,6.65,6.65,0,0,0,1.71,2.06,5.27,5.27,0,0,0,2.15,1,6.52,6.52,0,0,0,2.33.06,9.58,9.58,0,0,0,2.84-.93,7.31,7.31,0,0,0,1.94-1.4Z"/><path class="cls-3" d="M1472.66,723.38a14.45,14.45,0,0,1-.46-5.3,10.93,10.93,0,0,1,1.32-4.18,9.16,9.16,0,0,1,2.66-3,10.14,10.14,0,0,1,3.53-1.67,8.74,8.74,0,0,1,7.5,1q3.06,2.16,4.51,7.82c0,.17.1.39.16.65a6.21,6.21,0,0,1,.15.75l-15,3.83a8.28,8.28,0,0,0,3.31,4.69q2.17,1.34,5.85.39a14.72,14.72,0,0,0,3.39-1.24,13.54,13.54,0,0,0,2-1.24l1.39,3.15a12.25,12.25,0,0,1-2.31,1.44,18.22,18.22,0,0,1-4,1.46,13.32,13.32,0,0,1-5.18.4,9.46,9.46,0,0,1-4-1.51,10,10,0,0,1-2.92-3.09A15.65,15.65,0,0,1,1472.66,723.38Zm14.51-6a6.81,6.81,0,0,0-2.44-4,4.74,4.74,0,0,0-4.21-.74,5.31,5.31,0,0,0-2.25,1.13,5.81,5.81,0,0,0-1.4,1.82,6.44,6.44,0,0,0-.63,2.23,9.87,9.87,0,0,0,0,2.37Z"/><path class="cls-3" d="M1526.42,706.15a14.15,14.15,0,0,1,1,4.83,11.31,11.31,0,0,1-.71,4.29,9.65,9.65,0,0,1-2.29,3.46,11.07,11.07,0,0,1-8,3.06,9.59,9.59,0,0,1-4-1,11.11,11.11,0,0,1-3.4-2.7,14.46,14.46,0,0,1-2.48-4.28,14.28,14.28,0,0,1-1-4.81,11,11,0,0,1,.7-4.31,9.65,9.65,0,0,1,2.29-3.46,11.18,11.18,0,0,1,8-3.06,9.59,9.59,0,0,1,4,1,11.07,11.07,0,0,1,3.4,2.73A14.14,14.14,0,0,1,1526.42,706.15Zm-3.94,1.51a9.68,9.68,0,0,0-3.78-5A6,6,0,0,0,1510,706a11.58,11.58,0,0,0,4.35,11.34,6,6,0,0,0,8.74-3.35A9.69,9.69,0,0,0,1522.48,707.66Z"/><path class="cls-3" d="M1530.12,679.48a15.09,15.09,0,0,1,2.86-1.15,11.27,11.27,0,0,1,1.83-.39l.9,3.45a7.19,7.19,0,0,0-1.55.22,9.5,9.5,0,0,0-2.2.84q-2.54,1.27-2.85,3.16a7,7,0,0,0,.86,4.23l.88,1.75,7.78-3.92,1.53,3-7.78,3.92,8.66,17.19-3.62,1.82-11.1-22a9.75,9.75,0,0,1-1.13-7Q1526,681.53,1530.12,679.48Z"/><path class="cls-3" d="M1553.51,678.49l7.17-4.72,1.87,2.84-7.17,4.71,5.74,8.74a12.65,12.65,0,0,0,1.76,2.2,4.14,4.14,0,0,0,1.61,1,2.83,2.83,0,0,0,1.58,0,6.16,6.16,0,0,0,1.68-.79,8.52,8.52,0,0,0,2.22-2c.47-.64.8-1.08,1-1.34l2.5,2.37a15.28,15.28,0,0,1-1.36,1.81,12.53,12.53,0,0,1-2.66,2.3,10.88,10.88,0,0,1-3.51,1.6,5.58,5.58,0,0,1-3-.15,7,7,0,0,1-2.66-1.71,19.35,19.35,0,0,1-2.5-3.13l-11.1-16.89,3-2.8Z"/><path class="cls-3" d="M1578.42,689l-20.11-26.28,2.8-3,7,9.2a14.31,14.31,0,0,1,3.39-3.74,11.51,11.51,0,0,1,4-2.12,7.05,7.05,0,0,1,3.56,0,8.2,8.2,0,0,1,3.19,1.7,18.87,18.87,0,0,1,2.91,3.09l7.73,10.1-3.21,2.46-7.2-9.41a19.31,19.31,0,0,0-2.4-2.66,6,6,0,0,0-2.2-1.34,3.72,3.72,0,0,0-2.19,0,7.65,7.65,0,0,0-2.39,1.31,9.28,9.28,0,0,0-1,.89c-.34.33-.65.65-.94,1s-.54.61-.75.88a5.74,5.74,0,0,0-.44.61l11.43,14.94Z"/><path class="cls-3" d="M1590.68,665.15a14.22,14.22,0,0,1-2.88-4.47,11,11,0,0,1-.78-4.31,9.33,9.33,0,0,1,1-3.87,10.34,10.34,0,0,1,2.35-3.12,8.73,8.73,0,0,1,7.11-2.59q3.72.48,7.64,4.81c.11.13.26.3.45.5s.34.4.48.59l-11.5,10.41a8.29,8.29,0,0,0,5.11,2.59q2.55.16,5.36-2.38a14.89,14.89,0,0,0,2.42-2.68,13,13,0,0,0,1.15-2l2.7,2.14a12.13,12.13,0,0,1-1.37,2.35,18.52,18.52,0,0,1-2.82,3.14,13.22,13.22,0,0,1-4.4,2.77,9.45,9.45,0,0,1-4.28.56,10,10,0,0,1-4-1.37A15.93,15.93,0,0,1,1590.68,665.15Zm10-12.07a6.82,6.82,0,0,0-4-2.43,4.76,4.76,0,0,0-4.07,1.31,5.36,5.36,0,0,0-1.46,2.06,5.92,5.92,0,0,0-.39,2.26,6.51,6.51,0,0,0,.49,2.26,10.25,10.25,0,0,0,1.14,2.08Z"/><path class="cls-3" d="M1600.07,635.12a2.65,2.65,0,0,1-1.81.82,2.57,2.57,0,0,1-1.92-.82,2.5,2.5,0,0,1-.85-1.9,2.58,2.58,0,0,1,.78-1.82,2.61,2.61,0,0,1,1.81-.82,2.84,2.84,0,0,1,2.77,2.71A2.67,2.67,0,0,1,1600.07,635.12Zm20.53,17.24-2.83,2.89-16.18-15.84,2.83-2.89Z"/><path class="cls-3" d="M1614.29,625c.23-.26.51-.54.84-.85s.67-.6,1-.88.66-.53.95-.75a7.89,7.89,0,0,1,.69-.47l2.17,2.86a14.28,14.28,0,0,0-1.36.91,14.06,14.06,0,0,0-2.08,2,10.35,10.35,0,0,0-1.3,1.84c-.38.66-.62,1.09-.73,1.3l14.24,12.63-2.69,3-16.22-14.39a27.59,27.59,0,0,1,1.63-3.32A23.58,23.58,0,0,1,1614.29,625Z"/><path class="cls-3" d="M1650.63,616.79a12.24,12.24,0,0,1-3.5,3.41,9.63,9.63,0,0,1-4,1.42,10.1,10.1,0,0,1-4.26-.45,15.43,15.43,0,0,1-4.28-2.2,14.58,14.58,0,0,1-3.46-3.41,11.39,11.39,0,0,1-1.81-3.94,9.73,9.73,0,0,1,0-4.23,11,11,0,0,1,1.89-4.18,17.63,17.63,0,0,1,2-2.33,13.81,13.81,0,0,1,2.37-1.9l2.27,2.75A10,10,0,0,0,1636,603a12.21,12.21,0,0,0-1.69,1.92,6.43,6.43,0,0,0-1.29,5.48c.45,1.81,1.79,3.5,4,5.09a12.4,12.4,0,0,0,3,1.61,6.92,6.92,0,0,0,2.89.46,5.8,5.8,0,0,0,2.69-.89,8.48,8.48,0,0,0,2.45-2.42,12.36,12.36,0,0,0,1.45-2.55,10.88,10.88,0,0,0,.66-2l3.09,1.51a4.16,4.16,0,0,1-.24,1.06,13.56,13.56,0,0,1-.58,1.4q-.36.76-.81,1.59A16.05,16.05,0,0,1,1650.63,616.79Z"/><path class="cls-3" d="M1657,606.53l-28.5-16.84,1.46-3.84,10,5.9a13.29,13.29,0,0,1,.65-2.43,12.88,12.88,0,0,1,1.09-2.31,11.5,11.5,0,0,1,2.93-3.48,7.14,7.14,0,0,1,3.29-1.37,8.23,8.23,0,0,1,3.6.38,18.81,18.81,0,0,1,3.86,1.78l10.94,6.47-2.06,3.48-10.19-6a19.61,19.61,0,0,0-3.22-1.58,6.11,6.11,0,0,0-2.54-.41,3.7,3.7,0,0,0-2,.82,7.7,7.7,0,0,0-1.73,2.12,10.37,10.37,0,0,0-.61,1.2c-.19.43-.36.85-.51,1.25s-.27.76-.37,1.09-.15.58-.18.73l16.2,9.57Z"/><path class="cls-3" d="M1668.37,560.38a14,14,0,0,1,4.1,2.76,11.17,11.17,0,0,1,2.48,3.57,9.6,9.6,0,0,1,.77,4.08,10.42,10.42,0,0,1-1,4.22,10.7,10.7,0,0,1-2.56,3.52,9.78,9.78,0,0,1-3.61,2.05,11.06,11.06,0,0,1-4.33.42,14.31,14.31,0,0,1-4.75-1.33,14.68,14.68,0,0,1-4.08-2.75,11.14,11.14,0,0,1-2.49-3.58,9.51,9.51,0,0,1-.78-4.08,10.5,10.5,0,0,1,1-4.23,10.7,10.7,0,0,1,2.56-3.52,9.78,9.78,0,0,1,3.61-2,11.34,11.34,0,0,1,4.35-.41A14.12,14.12,0,0,1,1668.37,560.38Zm-1.77,3.83a9.79,9.79,0,0,0-6.24-1,6,6,0,0,0-3.93,8.5,11.59,11.59,0,0,0,11,5.1,6,6,0,0,0,3.93-8.5A9.83,9.83,0,0,0,1666.6,564.21Z"/><path class="cls-3" d="M1656.76,547.21a2.71,2.71,0,0,1-5,.11,2.74,2.74,0,0,1,1.31-3.46,2.84,2.84,0,0,1,3.62,1.36A2.59,2.59,0,0,1,1656.76,547.21Zm25.75,7.5-1.42,3.79-21.2-8,1.43-3.79Z"/><path class="cls-3" d="M1688.66,537.77a12.1,12.1,0,0,1-2.24,4.34,9.65,9.65,0,0,1-3.35,2.62,10,10,0,0,1-4.18.93,15.5,15.5,0,0,1-4.76-.73,14.41,14.41,0,0,1-4.36-2.13,11.37,11.37,0,0,1-3-3.16,9.78,9.78,0,0,1-1.38-4,11.18,11.18,0,0,1,.47-4.57,18.71,18.71,0,0,1,1.14-2.84,14.65,14.65,0,0,1,1.65-2.55l3,1.88a10.21,10.21,0,0,0-1.28,1.82,11.71,11.71,0,0,0-1,2.36,6.44,6.44,0,0,0,.52,5.6q1.5,2.35,5.42,3.55a12.58,12.58,0,0,0,3.33.59,6.93,6.93,0,0,0,2.88-.49,5.72,5.72,0,0,0,2.27-1.69,8.63,8.63,0,0,0,1.56-3.08,12.91,12.91,0,0,0,.56-2.88,10.52,10.52,0,0,0,0-2.14l3.41.45a4,4,0,0,1,.1,1.08,12.32,12.32,0,0,1-.1,1.52c-.06.55-.15,1.14-.26,1.76A17.43,17.43,0,0,1,1688.66,537.77Z"/><path class="cls-3" d="M1680.11,524.9a14.48,14.48,0,0,1-4.95-1.95,10.81,10.81,0,0,1-3.16-3,9.22,9.22,0,0,1-1.48-3.7,10.22,10.22,0,0,1,.07-3.9,8.69,8.69,0,0,1,4.25-6.26c2.19-1.2,5.2-1.39,9-.58l.66.14a4.66,4.66,0,0,1,.74.2L1682,521a8.24,8.24,0,0,0,5.67-.89q2.16-1.37,3-5.07a15.07,15.07,0,0,0,.38-3.59,13.61,13.61,0,0,0-.24-2.3l3.44.15a12.43,12.43,0,0,1,.27,2.71,18.58,18.58,0,0,1-.45,4.2,13.34,13.34,0,0,1-1.94,4.82,9.58,9.58,0,0,1-3.14,3,10,10,0,0,1-4.07,1.25A16,16,0,0,1,1680.11,524.9Zm1.06-15.67a6.83,6.83,0,0,0-4.69.4,4.74,4.74,0,0,0-2.54,3.45,5.48,5.48,0,0,0,0,2.52,5.92,5.92,0,0,0,1,2.06,6.74,6.74,0,0,0,1.72,1.55,10.52,10.52,0,0,0,2.15,1Z"/><path class="cls-3" d="M1694.59,495.8a2.94,2.94,0,0,1,1.91,1.07,3,3,0,0,1-.6,4.22,3,3,0,0,1-2.14.49,3,3,0,0,1-1.92-1.07,3.07,3.07,0,0,1,.61-4.23A3,3,0,0,1,1694.59,495.8Z"/><path class="cls-3" d="M1696.16,470.82a12.76,12.76,0,0,0-.16-2.69,7.53,7.53,0,0,0-.83-2.42,5.23,5.23,0,0,0-1.64-1.77,4.87,4.87,0,0,0-2.6-.77,3.93,3.93,0,0,0-1.92.33,4.87,4.87,0,0,0-1.48,1.06,9.94,9.94,0,0,0-1.25,1.64c-.4.64-.81,1.34-1.25,2.11s-.79,1.3-1.23,2a7.76,7.76,0,0,1-1.58,1.76,7.25,7.25,0,0,1-2.17,1.21,7.86,7.86,0,0,1-2.94.36,8.46,8.46,0,0,1-3.57-.92,7.9,7.9,0,0,1-2.75-2.37,10.44,10.44,0,0,1-1.69-3.72,17.19,17.19,0,0,1-.43-5,15.87,15.87,0,0,1,.31-2.47,17,17,0,0,1,.6-2.13,16.6,16.6,0,0,1,.71-1.69,5.81,5.81,0,0,1,.64-1.06l3.21,2.11a7.2,7.2,0,0,0-1.21,2.32,13.06,13.06,0,0,0-.68,3.83,11.49,11.49,0,0,0,.17,2.6,6.09,6.09,0,0,0,.79,2.11,4.83,4.83,0,0,0,1.49,1.46,4.56,4.56,0,0,0,2.21.62,4.45,4.45,0,0,0,1.91-.26,4.37,4.37,0,0,0,1.39-.9,6.66,6.66,0,0,0,1.14-1.45c.34-.58.71-1.21,1.09-1.89q.7-1.27,1.44-2.4a9.55,9.55,0,0,1,1.67-1.95,7,7,0,0,1,2.2-1.27,7.78,7.78,0,0,1,3-.37,9.1,9.1,0,0,1,4.16,1.13,8.65,8.65,0,0,1,2.88,2.7,11.67,11.67,0,0,1,1.63,4,18.27,18.27,0,0,1,.39,4.87,19,19,0,0,1-.38,3.15,19.4,19.4,0,0,1-.7,2.45,13.81,13.81,0,0,1-.8,1.77,6.29,6.29,0,0,1-.73,1.1l-3.35-2.11a14.11,14.11,0,0,0,1.41-2.55A12.27,12.27,0,0,0,1696.16,470.82Z"/><path class="cls-3" d="M1700.46,446.26a7.4,7.4,0,0,1-2.22,5.56,8,8,0,0,1-5.85,1.91,21.41,21.41,0,0,1-5.3-.81,17.06,17.06,0,0,1-5.09-2.38,12.94,12.94,0,0,1-3.8-4.12,11.29,11.29,0,0,1-1.42-6,7.44,7.44,0,0,1,2.22-5.56,8,8,0,0,1,5.85-1.91,21.41,21.41,0,0,1,5.3.81,16.71,16.71,0,0,1,5.09,2.38,12.94,12.94,0,0,1,3.8,4.12A11.29,11.29,0,0,1,1700.46,446.26Zm-3.43-.76A5.8,5.8,0,0,0,1696,442a9.8,9.8,0,0,0-2.84-2.66,15.38,15.38,0,0,0-3.87-1.71,16.53,16.53,0,0,0-4.13-.64,5.82,5.82,0,0,0-3.54.89,3.84,3.84,0,0,0-1.37,3.29,5.8,5.8,0,0,0,1.07,3.53,9.8,9.8,0,0,0,2.84,2.66A15.38,15.38,0,0,0,1688,449a16.53,16.53,0,0,0,4.13.64,5.82,5.82,0,0,0,3.54-.89A3.84,3.84,0,0,0,1697,445.5Z"/><path class="cls-3" d="M1698.36,410.36c.26,2.16,0,3.81-.85,4.93a5.48,5.48,0,0,1-4,2,21.75,21.75,0,0,1-4.61-.05l-19.8-2.3-1.2-4.11,7.16.84-.92-7.65,3.47.41.93,7.65,10.23,1.18a14.92,14.92,0,0,0,3.61.09,2.46,2.46,0,0,0,1.95-1,4.17,4.17,0,0,0,.32-2.66,7.66,7.66,0,0,0-.71-2.42,14,14,0,0,0-1-1.77l3.38-.71a10.46,10.46,0,0,1,1.11,2.1A13.1,13.1,0,0,1,1698.36,410.36Z"/><path class="cls-3" d="M1696.29,399.87l-34-1.26-1.52-4,11.78.47a16.25,16.25,0,0,1-1-2,11.71,11.71,0,0,1-.66-2.16,9.56,9.56,0,0,1-.14-3.41,6.16,6.16,0,0,1,1-2.54,6,6,0,0,1,2-1.71,9.62,9.62,0,0,1,2.75-1,17.68,17.68,0,0,1,4.39-.27l11.91.44.8,4-11-.4c-.83,0-1.68-.06-2.55-.08a10.82,10.82,0,0,0-2.4.19,4.39,4.39,0,0,0-2.65,1.52c-.63.77-.77,2-.42,3.72a11.17,11.17,0,0,0,.62,2.08,7.13,7.13,0,0,0,.9,1.71l19.42.69Z"/><path class="cls-3" d="M1688.59,365.27a10.45,10.45,0,0,1,.48,3.85,7.73,7.73,0,0,1-.9,3.09,7,7,0,0,1-2,2.28,9.39,9.39,0,0,1-2.86,1.39,19.12,19.12,0,0,1-5.89.8,16.31,16.31,0,0,1-5.55-1.08,12.73,12.73,0,0,1-4.49-3,11.65,11.65,0,0,1-2.81-4.93,9.38,9.38,0,0,1-.43-3.08,5.81,5.81,0,0,1,.59-2.35,5,5,0,0,1,1.4-1.67,5.75,5.75,0,0,1,1.91-1,7.45,7.45,0,0,1,3.53-.28,7.3,7.3,0,0,1,2.83,1.21,8.79,8.79,0,0,1,2.23,2.31,24.85,24.85,0,0,1,1.76,3,31.33,31.33,0,0,1,1.41,3.31c.42,1.13.8,2.21,1.16,3.22a5.14,5.14,0,0,0,.56-.12l.33-.1a6.93,6.93,0,0,0,1.75-.77,3.47,3.47,0,0,0,1.25-1.3,4.37,4.37,0,0,0,.51-2,9.82,9.82,0,0,0-.48-3,10.07,10.07,0,0,0-.64-1.6,14.68,14.68,0,0,0-.86-1.52c-.3-.47-.59-.88-.87-1.24a3.3,3.3,0,0,0-.69-.73l3.2-1.31a14.47,14.47,0,0,1,1.78,2.4A17,17,0,0,1,1688.59,365.27Zm-10.77,7.51c-.53-1.6-1.07-3-1.62-4.33a14.69,14.69,0,0,0-1.82-3.23,5.72,5.72,0,0,0-2.2-1.83,4,4,0,0,0-2.75-.07,2.42,2.42,0,0,0-.75.38,2.12,2.12,0,0,0-.62.73,2.74,2.74,0,0,0-.3,1.16,4.73,4.73,0,0,0,.23,1.61,6.45,6.45,0,0,0,1.44,2.55,8.59,8.59,0,0,0,2.32,1.78,10.1,10.1,0,0,0,2.89,1A13.52,13.52,0,0,0,1677.82,372.78Z"/><path class="cls-3" d="M1675.66,330.8a10.17,10.17,0,0,1,1,3.85,7.64,7.64,0,0,1-.52,3.25,7.29,7.29,0,0,1-1.83,2.61,10.87,10.87,0,0,1-2.89,1.89,14.66,14.66,0,0,1-2,.73c-.76.22-1.47.4-2.14.54l-18,3.52-1.75-3.84,18.29-3.55a14.77,14.77,0,0,0,1.81-.44,15.48,15.48,0,0,0,1.76-.66,8.08,8.08,0,0,0,1.79-1.1,4.34,4.34,0,0,0,1.16-1.51,4.29,4.29,0,0,0,.35-2,6.43,6.43,0,0,0-.64-2.39,7.72,7.72,0,0,0-4.26-4.37,13.64,13.64,0,0,0-7.29-.08l-18.64,3.62-1.75-3.85,19.11-3.73a44.1,44.1,0,0,1,4.83-.65,11.19,11.19,0,0,1,4.38.52,10.36,10.36,0,0,1,3.89,2.46A16.64,16.64,0,0,1,1675.66,330.8Z"/><path class="cls-3" d="M1642.93,316.4a11.3,11.3,0,0,1-2.08-1.46,8.68,8.68,0,0,1-1.79-2.17,8.38,8.38,0,0,1-1.14-3.15,6.14,6.14,0,0,1,.26-2.85,7,7,0,0,1,1.49-2.48,10.72,10.72,0,0,1,2.51-2,17.8,17.8,0,0,1,5.49-2.13,14.52,14.52,0,0,1,5.8,0,14.37,14.37,0,0,1,5.53,2.43,16.57,16.57,0,0,1,4.65,5.27c.22.37.44.79.67,1.27a11.58,11.58,0,0,1,.6,1.49,12.6,12.6,0,0,1,.43,1.57,7.85,7.85,0,0,1,.15,1.45l-31.68,9.74-2.74-3.28Zm-.4-4.52a7.93,7.93,0,0,0,1.71,2,9.59,9.59,0,0,0,2.34,1.43l14.51-4.47c-.1-.28-.22-.59-.36-.95a8,8,0,0,0-.5-1,10,10,0,0,0-3.13-3.36,10.42,10.42,0,0,0-4-1.6,11.85,11.85,0,0,0-4.32,0,12.87,12.87,0,0,0-4.2,1.59,8.82,8.82,0,0,0-1.51,1.12,4.3,4.3,0,0,0-1,1.42,3.63,3.63,0,0,0-.27,1.72A5,5,0,0,0,1642.53,311.88Z"/><path class="cls-3" d="M1648.4,284.16a8,8,0,0,1,1.42,2.93,5.62,5.62,0,0,1,0,2.58,5.75,5.75,0,0,1-1.15,2.27,10.78,10.78,0,0,1-2.05,1.92,13.52,13.52,0,0,1-1.93,1.16c-.68.33-1.37.65-2.08,1l-11,4.56-2.38-3.28,10.17-4.22c.63-.28,1.37-.59,2.24-.93a10.82,10.82,0,0,0,2.39-1.3,7.8,7.8,0,0,0,1.12-1,3,3,0,0,0,.69-1.2,2.9,2.9,0,0,0,.05-1.41,4.14,4.14,0,0,0-.76-1.6,6.52,6.52,0,0,0-2.58-2.19,9.38,9.38,0,0,0-2.93-.8c-.4.25-.81.49-1.24.74a14.78,14.78,0,0,1-1.48.7l-13.28,5.51-2.39-3.28,13.62-5.64c.62-.28,1.22-.56,1.78-.84a12.56,12.56,0,0,0,1.66-1,11.15,11.15,0,0,0,1.52-1.32,12.28,12.28,0,0,0,1.4-1.77l2.52,2.58c-.17.3-.38.64-.62,1a9.09,9.09,0,0,1-.85,1.05c.42.09.89.22,1.4.38a8.39,8.39,0,0,1,1.59.7,11.41,11.41,0,0,1,1.63,1.13A9.48,9.48,0,0,1,1648.4,284.16Z"/><path class="cls-3" d="M1634.7,267.6l2.68,3-19.8,10.48a32.72,32.72,0,0,1-3.59-2.61,25.91,25.91,0,0,1-3-2.87,9.56,9.56,0,0,1-1.83-2.89,6.11,6.11,0,0,1-.4-2.7,5.89,5.89,0,0,1,.85-2.46,10,10,0,0,1,1.9-2.22,12.75,12.75,0,0,1,1.7-1.27c.63-.4,1.29-.79,2-1.16l10.54-5.56,2.67,3-9.73,5.16q-1.12.57-2.25,1.2a10.72,10.72,0,0,0-2,1.37,4.43,4.43,0,0,0-1.54,2.63q-.22,1.49,1.5,3.45a16.55,16.55,0,0,0,1.51,1.51,9.69,9.69,0,0,0,1.41,1.08Z"/><path class="cls-3" d="M1615.07,246a6.81,6.81,0,0,1,2.43,4.37,5.45,5.45,0,0,1-1.82,4.06,21.79,21.79,0,0,1-3.62,2.86l-16.85,10.65-3.51-2.44,6.1-3.85-5.53-5.37,3-1.86,5.53,5.37,8.7-5.51a14.88,14.88,0,0,0,2.86-2.2,2.5,2.5,0,0,0,.88-2,4.2,4.2,0,0,0-1.43-2.27,7.84,7.84,0,0,0-2.07-1.44,13.11,13.11,0,0,0-1.88-.75l2.18-2.68a9.91,9.91,0,0,1,2.19.93A12.89,12.89,0,0,1,1615.07,246Z"/><path class="cls-3" d="M1601,233.45a8,8,0,0,1,2.09,2.49,5.57,5.57,0,0,1,.06,5,11.11,11.11,0,0,1-1.52,2.36,13.27,13.27,0,0,1-1.59,1.59c-.58.49-1.18,1-1.79,1.43l-9.57,7.1-3.11-2.6,8.84-6.57q.81-.63,2-1.44a11,11,0,0,0,2-1.85,7.6,7.6,0,0,0,.84-1.25,3.11,3.11,0,0,0,.38-1.33,3,3,0,0,0-.29-1.38,4.2,4.2,0,0,0-1.13-1.37,6.51,6.51,0,0,0-3-1.49,9.19,9.19,0,0,0-3-.07q-.48.51-1,1a12.94,12.94,0,0,1-1.26,1l-11.55,8.57-3.1-2.6,11.83-8.78c.54-.42,1-.84,1.53-1.25a12.81,12.81,0,0,0,1.36-1.39,11.58,11.58,0,0,0,2.08-3.71l3.07,1.89c-.09.34-.21.71-.36,1.12a8.86,8.86,0,0,1-.57,1.22,12.12,12.12,0,0,1,1.45,0,8.5,8.5,0,0,1,1.71.29,11.27,11.27,0,0,1,1.86.7A9.72,9.72,0,0,1,1601,233.45Z"/><path class="cls-3" d="M1578.35,216.78,1555.68,238,1541,228.26l2.63-2.49,11.23,7.42,6.94-6.48-10-6.58,2.58-2.41,9.92,6.55,10.51-9.81Z"/><path class="cls-3" d="M1551.43,199.35a7.36,7.36,0,0,1,3.84,4.59,8.08,8.08,0,0,1-1.09,6.06,21.5,21.5,0,0,1-3.24,4.27,16.71,16.71,0,0,1-4.51,3.35A12.82,12.82,0,0,1,1541,219a11.32,11.32,0,0,1-6-1.62,7.42,7.42,0,0,1-3.84-4.59,8,8,0,0,1,1.1-6.06,21.11,21.11,0,0,1,3.23-4.28,16.76,16.76,0,0,1,4.52-3.35,13.07,13.07,0,0,1,5.43-1.39A11.25,11.25,0,0,1,1551.43,199.35Zm-2.29,2.65a5.75,5.75,0,0,0-3.61-.73,9.71,9.71,0,0,0-3.7,1.24,14.51,14.51,0,0,0-3.34,2.59,16.15,16.15,0,0,0-2.53,3.32,5.88,5.88,0,0,0-.89,3.55,3.81,3.81,0,0,0,2.24,2.76,5.81,5.81,0,0,0,3.61.74,10.13,10.13,0,0,0,3.7-1.24,14.79,14.79,0,0,0,3.33-2.6,16.15,16.15,0,0,0,2.53-3.32,5.88,5.88,0,0,0,.9-3.54A3.85,3.85,0,0,0,1549.14,202Z"/><path class="cls-3" d="M1532.4,189.87l3.7,1.66-13.69,17.72a31.65,31.65,0,0,1-4.35-.88,27,27,0,0,1-4-1.36,9.41,9.41,0,0,1-2.85-1.88,5.87,5.87,0,0,1-1.48-2.29,5.72,5.72,0,0,1-.25-2.59,9.58,9.58,0,0,1,.81-2.81,14.38,14.38,0,0,1,1-1.86c.41-.62.85-1.25,1.32-1.86l7.28-9.43,3.7,1.66-6.73,8.72c-.52.66-1,1.33-1.55,2a10.8,10.8,0,0,0-1.24,2.07,4.35,4.35,0,0,0-.31,3c.26,1,1.19,1.8,2.78,2.51a17.42,17.42,0,0,0,2,.76,11,11,0,0,0,1.73.39Z"/><path class="cls-3" d="M1505.24,178.47q3.09,1.07,4.07,2.91a5.49,5.49,0,0,1,.09,4.45,22.24,22.24,0,0,1-2.05,4.13l-10.68,16.83-4.22-.7,3.87-6.09-7.29-2.49,1.88-2.95,7.29,2.49,5.51-8.7a14.89,14.89,0,0,0,1.65-3.21,2.49,2.49,0,0,0-.08-2.21,4.12,4.12,0,0,0-2.26-1.44,7.75,7.75,0,0,0-2.49-.42,13.27,13.27,0,0,0-2,.12l.83-3.35a10,10,0,0,1,2.37-.09A12.82,12.82,0,0,1,1505.24,178.47Z"/><path class="cls-3" d="M1484.19,172.89l-6.51,29.47-18.63-4.11,1-4.55,13.27,2.93,1.67-7.53-11.78-2.6,1-4.55,11.78,2.6,2.84-12.84Z"/><path class="cls-3" d="M1450.7,190.18a13,13,0,0,1-4.26-1.27,7.13,7.13,0,0,1-2.57-2.21,6.86,6.86,0,0,1-1.1-3,13.66,13.66,0,0,1,.06-3.71l2-13.67c.83-.05,2.07-.09,3.73-.1a36.66,36.66,0,0,1,5.55.41,16.93,16.93,0,0,1,3.65.92,7.92,7.92,0,0,1,2.69,1.66,5.85,5.85,0,0,1,1.53,2.5,7.81,7.81,0,0,1,.19,3.5,6.68,6.68,0,0,1-1.22,3.17,6.31,6.31,0,0,1-2.36,1.89,8.85,8.85,0,0,1-3.17.78,17,17,0,0,1-3.61-.14,14.28,14.28,0,0,1-1.79-.37,17.5,17.5,0,0,1-2-.65l-.12.86a6.51,6.51,0,0,0,0,1.76,3.7,3.7,0,0,0,.55,1.55,3.55,3.55,0,0,0,1.28,1.17,6,6,0,0,0,2.17.66,20.12,20.12,0,0,0,3.36.22,14.88,14.88,0,0,0,2.55-.26l0,4.32a20.09,20.09,0,0,1-3,.28A23.33,23.33,0,0,1,1450.7,190.18Zm2.34-19.51a19,19,0,0,0-3.7-.26l-.83,5.78a11.2,11.2,0,0,0,1.22.43,10.57,10.57,0,0,0,1.79.39,12.69,12.69,0,0,0,1.76.12,5.52,5.52,0,0,0,1.67-.25,2.92,2.92,0,0,0,1.28-.81,2.69,2.69,0,0,0,.65-1.51,2.77,2.77,0,0,0-.8-2.73A6.08,6.08,0,0,0,1453,170.67Z"/><path class="cls-3" d="M1423.05,176.18a11.09,11.09,0,0,0,.72,5.19,3.47,3.47,0,0,0,3.27,1.7A14.36,14.36,0,0,0,1429,183c.7-.06,1.23-.12,1.58-.16l.61-18.37,5.27.18-.74,22a36.23,36.23,0,0,1-9.22.91,10.35,10.35,0,0,1-3.84-.74,7.42,7.42,0,0,1-2.44-1.69,12,12,0,0,1-1.25.7,13.38,13.38,0,0,1-1.68.66,13.9,13.9,0,0,1-2,.48,10.35,10.35,0,0,1-2.08.15,10.72,10.72,0,0,1-4.34-.91,6.41,6.41,0,0,1-2.63-2.22,8.34,8.34,0,0,1-1.24-3.35,23.12,23.12,0,0,1-.23-4.26l.43-12.8,5.27.18-.4,12a11.44,11.44,0,0,0,.69,5.19,3.51,3.51,0,0,0,3.3,1.7,7.14,7.14,0,0,0,2.41-.34,7.61,7.61,0,0,0,1.72-.75,12.08,12.08,0,0,1-.4-2.32,24.77,24.77,0,0,1,0-2.61l.42-12.58,5.27.17Z"/><path class="cls-3" d="M1391.78,164.58l5.26-.3,1.28,22.74-5.26.3Zm1.09,29.42a3,3,0,0,1,.82-2.4,3.27,3.27,0,0,1,2.21-1,3.35,3.35,0,0,1,2.36.74,3.41,3.41,0,0,1,.26,4.74,3.43,3.43,0,0,1-4.56.26A3.06,3.06,0,0,1,1392.87,194Z"/><path class="cls-3" d="M1376.34,165.53a14.45,14.45,0,0,1,3.93.12,6.06,6.06,0,0,1,2.58,1.12,4.86,4.86,0,0,1,1.51,2.08,11.3,11.3,0,0,1,.67,3l2.66,26.08-5.16,1.41-2.64-26a7.23,7.23,0,0,0-.31-1.58,2.55,2.55,0,0,0-.66-1.05,2.4,2.4,0,0,0-1.13-.59,8.19,8.19,0,0,0-1.75-.19Z"/><path class="cls-3" d="M1355.63,192.23a164.75,164.75,0,0,1,4.17-24.54,23.81,23.81,0,0,1,1.2-3.61,10.27,10.27,0,0,1,1.64-2.61,7.41,7.41,0,0,1,2.28-1.73,11.17,11.17,0,0,1,3.11-.94,11,11,0,0,1,2.43-.14,8.45,8.45,0,0,1,1.88.25l-.25,4.33a8.46,8.46,0,0,0-3.16-.09,4.86,4.86,0,0,0-3,1.5,8,8,0,0,0-1.51,3.32q3.25,4.32,6.46,9.52a116.2,116.2,0,0,1,6,11.17l-5.54.93c-.49-1.15-1.06-2.39-1.71-3.73s-1.35-2.68-2.08-4-1.49-2.72-2.27-4.06-1.56-2.58-2.31-3.72q-.74,4.05-1.2,8.57t-.78,8.72Z"/><path class="cls-3" d="M1319.41,190.35a16.23,16.23,0,0,1-.72-4.78,11.07,11.07,0,0,1,.78-4.15,8.69,8.69,0,0,1,2.32-3.24,10.21,10.21,0,0,1,3.86-2.06,10.67,10.67,0,0,1,2.95-.48,11.55,11.55,0,0,1,2.38.2l-2.53-8.47,5-1.51,8.62,28.83c-.94.59-2.13,1.23-3.55,1.93a30.38,30.38,0,0,1-4.65,1.8,13.43,13.43,0,0,1-4.87.59,10,10,0,0,1-4.16-1.23,10.49,10.49,0,0,1-3.29-2.93A14.52,14.52,0,0,1,1319.41,190.35Zm5.15-1.63a8.54,8.54,0,0,0,3.1,4.8c1.39.95,3.21,1.08,5.46.41.48-.14,1-.31,1.47-.51a8.07,8.07,0,0,0,1.44-.72l-3.74-12.48a8.07,8.07,0,0,0-2-.32,7.05,7.05,0,0,0-2.47.31,4.72,4.72,0,0,0-3.47,3.08A9.32,9.32,0,0,0,1324.56,188.72Z"/><path class="cls-3" d="M1304.07,203.38a18.49,18.49,0,0,0,1.85-.22,13.76,13.76,0,0,0,2.58-.74,10.79,10.79,0,0,0,1.67-.83,9.49,9.49,0,0,0,1.17-.78l-6.56-17,4.92-1.89,7.79,20.24a28.61,28.61,0,0,1-3.17,2.37,24.24,24.24,0,0,1-4.56,2.29c-.32.12-.71.25-1.16.37s-.9.24-1.36.34-.91.18-1.35.24-.81.1-1.08.11Z"/><path class="cls-3" d="M1278.33,208a15,15,0,0,1-1.39-4.79,10.86,10.86,0,0,1,.39-4.37,10,10,0,0,1,2.09-3.69,11.19,11.19,0,0,1,3.66-2.69,10.91,10.91,0,0,1,4.39-1.11,10.1,10.1,0,0,1,4.16.73,11.25,11.25,0,0,1,3.64,2.47,14.33,14.33,0,0,1,2.83,4.11,14.1,14.1,0,0,1,1.37,4.77,11.05,11.05,0,0,1-.44,4.37,9.84,9.84,0,0,1-2.1,3.67,11.83,11.83,0,0,1-8,3.77,9.79,9.79,0,0,1-4.17-.71,11.2,11.2,0,0,1-3.63-2.45A14.17,14.17,0,0,1,1278.33,208Zm4.89-2.31a8.91,8.91,0,0,0,3.61,4.24,5.18,5.18,0,0,0,7.37-3.48,8.92,8.92,0,0,0-1-5.49,9.13,9.13,0,0,0-3.64-4.3,5.15,5.15,0,0,0-7.37,3.48A9.08,9.08,0,0,0,1283.22,205.64Z"/><path class="cls-3" d="M1266.33,192.37c.34-.18.82-.41,1.45-.67a6.73,6.73,0,0,1,1.78-.51l1.47,4.11a7.51,7.51,0,0,0-2.17.85,2.89,2.89,0,0,0-1.74,2.17,5.6,5.6,0,0,0,.9,3.16l10.64,19.35-4.62,2.54L1263.36,204q-2.14-3.9-1.32-6.78A8.17,8.17,0,0,1,1266.33,192.37Zm10.43,37.11a3,3,0,0,1-.29-2.52,3.26,3.26,0,0,1,1.56-1.86,3.33,3.33,0,0,1,2.44-.35,3,3,0,0,1,2,1.6,3.07,3.07,0,0,1,.31,2.56,3.32,3.32,0,0,1-1.6,1.88,3.22,3.22,0,0,1-2.41.32A3.08,3.08,0,0,1,1276.76,229.48Z"/><path class="cls-3" d="M1263.34,216.08a14.5,14.5,0,0,1,2,4.94,11.09,11.09,0,0,1,0,4.45,9.79,9.79,0,0,1-1.68,3.73,10.6,10.6,0,0,1-2.91,2.72,9.4,9.4,0,0,1-7.77,1.43q-3.78-1.08-6.86-6c-.15-.25-.32-.53-.5-.85s-.34-.6-.47-.86l12.74-8a6,6,0,0,0-3.9-2.57,7.33,7.33,0,0,0-5,1.38,16,16,0,0,0-2.79,2.15,14.57,14.57,0,0,0-1.73,2l-2.88-3.28a9.33,9.33,0,0,1,.77-1c.35-.4.76-.83,1.25-1.29s1-.92,1.61-1.4a21.31,21.31,0,0,1,1.89-1.33,13.83,13.83,0,0,1,4.9-2,9.62,9.62,0,0,1,4.42.16,10.19,10.19,0,0,1,3.8,2A15.45,15.45,0,0,1,1263.34,216.08Zm-11.71,10.11a6.8,6.8,0,0,0,1.36,1.59,5,5,0,0,0,1.66,1,4.14,4.14,0,0,0,1.82.19,4.42,4.42,0,0,0,1.93-.72,4.77,4.77,0,0,0,1.57-1.52,4.88,4.88,0,0,0,.67-1.84,5.41,5.41,0,0,0-.07-2,9.1,9.1,0,0,0-.63-1.91Z"/><path class="cls-3" d="M1242.06,229.81a14.07,14.07,0,0,1,2.12,4.29,11.15,11.15,0,0,1,.41,4.41,10.17,10.17,0,0,1-1.41,4.12,11.61,11.61,0,0,1-3.28,3.49,16.1,16.1,0,0,1-5.64,2.61l-1.59-4.17a12.58,12.58,0,0,0,2.06-.67,11.48,11.48,0,0,0,2.15-1.23,5.76,5.76,0,0,0,2.68-4.32,8.34,8.34,0,0,0-1.88-5.38,8.7,8.7,0,0,0-4.38-3.47q-2.4-.72-5.33,1.39a14.15,14.15,0,0,0-2,1.77,12.11,12.11,0,0,0-1.45,1.85l-3.15-3.1a11.64,11.64,0,0,1,1.68-2.18,19.38,19.38,0,0,1,2.75-2.41,13.21,13.21,0,0,1,4.64-2.23,9.57,9.57,0,0,1,4.35-.08,10.32,10.32,0,0,1,3.93,1.85A15.57,15.57,0,0,1,1242.06,229.81Z"/><path class="cls-3" d="M1237.08,256.72l-3.09,4.36-4.89-4.84-5.7,5.76-3.13-3.1,5.7-5.76-6.59-6.52a6.76,6.76,0,0,0-3.4-2.14,3.45,3.45,0,0,0-2.92,1.28,10.15,10.15,0,0,0-1.58,2,16.89,16.89,0,0,0-.83,1.66l-3.59-2.32a18.33,18.33,0,0,1,1.11-2.27,13,13,0,0,1,2.16-2.77,10.93,10.93,0,0,1,3.33-2.44,6.15,6.15,0,0,1,3.17-.51,7.54,7.54,0,0,1,3.08,1.16,18.52,18.52,0,0,1,3.14,2.55Z"/><path class="cls-3" d="M1193.91,279.91c-.5-1.27-1-2.62-1.43-4s-.85-2.85-1.22-4.27-.7-2.81-1-4.15-.52-2.56-.71-3.65l3-3.08c1.13.75,2.4,1.64,3.79,2.66s2.86,2.15,4.39,3.37,3.11,2.53,4.76,3.93,3.27,2.85,4.91,4.38l-3.68,3.72c-.87-.86-1.81-1.77-2.83-2.74s-2.08-1.94-3.18-2.92-2.18-1.93-3.27-2.86-2.13-1.77-3.14-2.52c.31,1.46.69,3,1.13,4.53s.91,3.1,1.42,4.62,1,3,1.62,4.46,1.15,2.78,1.73,4l-3.18,3.23q-1.27-1.26-2.73-2.64c-1-.92-2-1.85-3-2.8s-2.15-1.91-3.27-2.87-2.23-1.88-3.36-2.75c.25,1.31.6,2.75,1.06,4.31s1,3.12,1.52,4.69,1.13,3.08,1.76,4.53,1.22,2.74,1.8,3.85l-3.86,3.9q-1.21-2.49-2.36-5.51t-2.12-6.31q-1-3.28-1.69-6.68a60,60,0,0,1-1-6.6l3-3.07q2.94,2.24,5.69,4.5C1190.33,276.64,1192.13,278.24,1193.91,279.91Z"/><path class="cls-3" d="M1167.88,285.72l3.71-3.74,12.33,19.92-3.71,3.74ZM1183.76,307a3.17,3.17,0,0,1,1.93-1,2.54,2.54,0,0,1,2.1.85,3.55,3.55,0,0,1,1.11,2.66,3.65,3.65,0,0,1-1.05,2.55,3.21,3.21,0,0,1-2,1,2.56,2.56,0,0,1-2.13-.85,3.37,3.37,0,0,1-1.07-2.66A3.67,3.67,0,0,1,1183.76,307Z"/><path class="cls-3" d="M1156.82,296.28a11.72,11.72,0,0,1,2.8-2.09,5.77,5.77,0,0,1,2.52-.69,4.64,4.64,0,0,1,2.25.51,8.15,8.15,0,0,1,2,1.48,14.57,14.57,0,0,1,1.86,2.3q.87,1.32,1.68,2.67l11.43,18.42-3.24,4.51q-3.11-5-6.16-9.91t-6.12-9.94c-.33-.53-.66-1.06-1-1.6a6.93,6.93,0,0,0-1.08-1.41c-.35-.35-.68-.67-1-.95a1.92,1.92,0,0,0-1-.52,2.39,2.39,0,0,0-1.23.16,5.37,5.37,0,0,0-1.48.93Z"/><path class="cls-3" d="M1147.67,305.52a11.49,11.49,0,0,1,2.81-2.09,5.77,5.77,0,0,1,2.52-.69,4.64,4.64,0,0,1,2.25.51,7.91,7.91,0,0,1,2,1.48,14.57,14.57,0,0,1,1.86,2.3c.58.88,1.14,1.77,1.67,2.67l11.43,18.42-3.24,4.51-6.15-9.91q-3-4.94-6.12-9.94c-.33-.53-.66-1.06-1-1.6a6.66,6.66,0,0,0-1.08-1.41c-.36-.35-.68-.67-1-.95a1.92,1.92,0,0,0-1-.52,2.39,2.39,0,0,0-1.23.16,5,5,0,0,0-1.48.93Z"/><path class="cls-3" d="M1143.8,343.18a8.07,8.07,0,0,1-2.91,2,6.67,6.67,0,0,1-3,.41,7.8,7.8,0,0,1-3-.92,11.79,11.79,0,0,1-2.76-2.07,15.78,15.78,0,0,1-3.35-4.78,14.72,14.72,0,0,1-1.34-5.52,14.25,14.25,0,0,1,1-5.7,15.38,15.38,0,0,1,3.53-5.34l1-1a15.94,15.94,0,0,1,1.51-1.2,17.58,17.58,0,0,1,1.84-1.18,9.94,9.94,0,0,1,2-.88l17.37,27.9-3.26,4.54-6.33-10.2a14.6,14.6,0,0,1-.85,2A7.5,7.5,0,0,1,1143.8,343.18Zm-9.2-18.32a8,8,0,0,0-2,3.22,8.87,8.87,0,0,0-.4,3.65,10.65,10.65,0,0,0,1,3.63,11.56,11.56,0,0,0,2.28,3.17,10,10,0,0,0,1.44,1.18,4,4,0,0,0,1.48.61,3,3,0,0,0,1.54-.13,4.18,4.18,0,0,0,1.58-1.07,7.58,7.58,0,0,0,1.22-1.72,6.7,6.7,0,0,0,.69-2.25l-7.23-11.65c-.22.15-.46.32-.73.53A8.78,8.78,0,0,0,1134.6,324.86Z"/><path class="cls-3" d="M1125.42,340.33a17.32,17.32,0,0,1,3.35,4.64,15.06,15.06,0,0,1,1.53,5.32,13.36,13.36,0,0,1-.58,5.39,12.2,12.2,0,0,1-3,4.85,7.26,7.26,0,0,1-4.82,2.46,5.67,5.67,0,0,1-4.38-1.77,6.88,6.88,0,0,1-2.21-4.08,9.09,9.09,0,0,1,.58-4.36,17.68,17.68,0,0,1,2.5-4.39q1.67-2.17,3.57-4.22a.4.4,0,0,0-.1-.15l-.31-.31q-2.8-2.79-6.34.77a15.72,15.72,0,0,0-3.3,5.07l-3.34-2.69a18.62,18.62,0,0,1,1.41-2.78,18,18,0,0,1,2.72-3.43,11.13,11.13,0,0,1,3.44-2.48,7.49,7.49,0,0,1,3.36-.68,7.58,7.58,0,0,1,3.15.81A11.15,11.15,0,0,1,1125.42,340.33Zm-1.24,16.61a6,6,0,0,0,1.37-2.13,6.67,6.67,0,0,0,.45-2.5,9.29,9.29,0,0,0-.41-2.65,9.81,9.81,0,0,0-1.22-2.58c-2.36,2.56-3.85,4.66-4.44,6.29a3.5,3.5,0,0,0,.65,4,2.27,2.27,0,0,0,1.56.65A2.88,2.88,0,0,0,1124.18,356.94Z"/><path class="cls-3" d="M1102.12,363.87a17.11,17.11,0,0,1,3.35,4.64,14.87,14.87,0,0,1,1.54,5.32,13.19,13.19,0,0,1-.59,5.39,12.07,12.07,0,0,1-3,4.85,7.26,7.26,0,0,1-4.82,2.46,5.67,5.67,0,0,1-4.38-1.77,6.88,6.88,0,0,1-2.21-4.08,9.09,9.09,0,0,1,.58-4.36,17.37,17.37,0,0,1,2.5-4.39q1.67-2.18,3.56-4.22a.38.38,0,0,0-.09-.15l-.31-.31q-2.82-2.79-6.34.77a15.55,15.55,0,0,0-3.3,5.07l-3.34-2.69a18.39,18.39,0,0,1,1.4-2.78,18,18,0,0,1,2.73-3.43,11.21,11.21,0,0,1,3.43-2.48,7.48,7.48,0,0,1,6.52.13A10.92,10.92,0,0,1,1102.12,363.87Zm-1.23,16.61a6,6,0,0,0,1.37-2.13,6.67,6.67,0,0,0,.45-2.5,9.29,9.29,0,0,0-.41-2.65,9.81,9.81,0,0,0-1.22-2.58,21.32,21.32,0,0,0-4.45,6.29,3.5,3.5,0,0,0,.66,4,2.27,2.27,0,0,0,1.56.65A2.88,2.88,0,0,0,1100.89,380.48Z"/><path class="cls-3" d="M1091.88,394.91l-8-2.82c.17,1.73.37,3.38.61,5s.51,3.08.83,4.5l-3.81,3.84q-.62-3.19-1-6.75c-.28-2.37-.49-4.84-.62-7.43q-3.24-1-6.2-2.08c-2-.72-3.88-1.51-5.71-2.39l3.72-3.76c1.29.63,2.64,1.21,4,1.74s2.73,1,4,1.44l-.79-10.53,4-4.09,1.22,15.59,11.6,3.84Z"/><path class="cls-3" d="M1081.73,413.71l-3.24,4.52-3.73-6-5.24,5.3-2.36-3.81,5.25-5.31-4.88-7.88c-.35-.55-.66-1-.92-1.33a8.75,8.75,0,0,0-.76-.87,4.47,4.47,0,0,0-.81-.64,1.84,1.84,0,0,0-.92-.31,2.35,2.35,0,0,0-1.11.26,4.74,4.74,0,0,0-1.38,1.05,8.57,8.57,0,0,0-1.38,1.82,16.56,16.56,0,0,0-.88,1.83l-3.28-2.7a17.43,17.43,0,0,1,1.19-2.37,14.35,14.35,0,0,1,2.23-2.82q2.64-2.65,4.93-2.66a6.07,6.07,0,0,1,4.31,2,16.13,16.13,0,0,1,1.42,1.62,23.09,23.09,0,0,1,1.37,2Z"/><path class="cls-3" d="M1058.52,407.94a17.06,17.06,0,0,1,3.35,4.63,15.08,15.08,0,0,1,1.54,5.32,13.34,13.34,0,0,1-.59,5.39,12,12,0,0,1-3,4.85,7.26,7.26,0,0,1-4.82,2.46,5.68,5.68,0,0,1-4.38-1.76,6.93,6.93,0,0,1-2.21-4.09,9.11,9.11,0,0,1,.58-4.36,17.15,17.15,0,0,1,2.5-4.38c1.11-1.46,2.3-2.86,3.56-4.23a.38.38,0,0,0-.09-.15l-.31-.3q-2.82-2.79-6.34.77a15.34,15.34,0,0,0-3.3,5.07l-3.34-2.7a17.92,17.92,0,0,1,1.4-2.78,18.36,18.36,0,0,1,2.73-3.43,11.26,11.26,0,0,1,3.43-2.48,7.53,7.53,0,0,1,3.37-.68,7.75,7.75,0,0,1,3.15.82A10.63,10.63,0,0,1,1058.52,407.94Zm-1.23,16.6a6,6,0,0,0,1.37-2.13,7,7,0,0,0,.45-2.5,9.17,9.17,0,0,0-.41-2.64,10.13,10.13,0,0,0-1.22-2.58A21.2,21.2,0,0,0,1053,421a3.49,3.49,0,0,0,.66,4,2.27,2.27,0,0,0,1.55.66A2.9,2.9,0,0,0,1057.29,424.54Z"/><path class="cls-3" d="M1049.24,436.64c-.57,1.07-1.27,2.24-2.11,3.52A24,24,0,0,1,1044,444c-1.88,1.89-3.72,2.83-5.53,2.8a7.37,7.37,0,0,1-5.06-2.38,13.45,13.45,0,0,1-1.27-1.47c-.41-.55-.83-1.14-1.24-1.75l-6.49-10.47,3.7-3.74,6.22,9.94,1.08,1.69a11.87,11.87,0,0,0,1.18,1.53,3.85,3.85,0,0,0,2.3,1.27c.83.11,1.77-.36,2.81-1.42a11.58,11.58,0,0,0,2-2.56l-10-16.06,3.73-3.77Z"/><path class="cls-3" d="M1013.59,440.78a8.32,8.32,0,0,1,3-2,6.34,6.34,0,0,1,3-.42,7.64,7.64,0,0,1,3,1,13,13,0,0,1,2.78,2.14,16,16,0,0,1,3.29,4.69,14.67,14.67,0,0,1,1.35,5.45,14.07,14.07,0,0,1-.91,5.63,14.94,14.94,0,0,1-3.51,5.3c-.2.21-.46.45-.76.72a8,8,0,0,1-1.11.8l5.45,8.74-3.24,4.51-13.35-21.61c-.38-.57-.78-1.12-1.21-1.65a15.64,15.64,0,0,0-1.31-1.44,11.44,11.44,0,0,0-1.82-1.5,13.74,13.74,0,0,0-2.22-1.22l2.81-3.84a10.52,10.52,0,0,1,2.16,1,11.7,11.7,0,0,1,.65-3.1A8.24,8.24,0,0,1,1013.59,440.78Zm7.77,19.51a10.23,10.23,0,0,0,1.54-1.3,7.85,7.85,0,0,0,2-3.2,8.81,8.81,0,0,0,.38-3.6,10.33,10.33,0,0,0-1-3.57,11.6,11.6,0,0,0-2.25-3.11,9.16,9.16,0,0,0-1.47-1.18,4.7,4.7,0,0,0-1.53-.62,3.27,3.27,0,0,0-1.55.08,3.69,3.69,0,0,0-1.52,1,5.1,5.1,0,0,0-1.33,2.15,7.94,7.94,0,0,0-.31,2.54,19.09,19.09,0,0,1,1.22,1.49c.41.54.78,1.09,1.14,1.64Z"/><path class="cls-3" d="M1007.73,459.27a17.12,17.12,0,0,1,3.35,4.63,15.08,15.08,0,0,1,1.54,5.32,13.36,13.36,0,0,1-.59,5.39,12,12,0,0,1-3,4.85,7.26,7.26,0,0,1-4.82,2.46,5.7,5.7,0,0,1-4.39-1.76,6.92,6.92,0,0,1-2.2-4.09,9.22,9.22,0,0,1,.57-4.36,17.5,17.5,0,0,1,2.51-4.38q1.67-2.19,3.56-4.23a.38.38,0,0,0-.09-.15l-.31-.31c-1.88-1.85-4-1.6-6.34.78a15.4,15.4,0,0,0-3.3,5.06l-3.34-2.69a17.92,17.92,0,0,1,1.4-2.78,18.28,18.28,0,0,1,2.72-3.43,11.25,11.25,0,0,1,3.44-2.48,7.53,7.53,0,0,1,3.37-.68,7.65,7.65,0,0,1,3.14.81A10.78,10.78,0,0,1,1007.73,459.27Zm-1.23,16.6a6,6,0,0,0,1.37-2.13,7,7,0,0,0,.45-2.5,9.19,9.19,0,0,0-.42-2.64,9.49,9.49,0,0,0-1.21-2.58,21.07,21.07,0,0,0-4.45,6.29,3.5,3.5,0,0,0,.65,4,2.31,2.31,0,0,0,1.56.66A2.94,2.94,0,0,0,1006.5,475.87Z"/><path class="cls-3" d="M980,474.69a8.32,8.32,0,0,1,3-2,6.34,6.34,0,0,1,3-.42,7.62,7.62,0,0,1,3,1,13.33,13.33,0,0,1,2.78,2.15,15.84,15.84,0,0,1,3.29,4.69,14.62,14.62,0,0,1,1.35,5.45,14.1,14.1,0,0,1-.91,5.63,14.94,14.94,0,0,1-3.51,5.3c-.2.21-.46.44-.76.71a8.89,8.89,0,0,1-1.11.81l5.45,8.74-3.24,4.51L979,489.6c-.38-.57-.78-1.13-1.21-1.66a18.77,18.77,0,0,0-1.31-1.44,12.63,12.63,0,0,0-1.82-1.5,14.55,14.55,0,0,0-2.22-1.22L975.2,480a11,11,0,0,1,2.16,1,11.78,11.78,0,0,1,.65-3.1A8.2,8.2,0,0,1,980,474.69Zm7.77,19.51a10.36,10.36,0,0,0,1.54-1.31,7.76,7.76,0,0,0,2-3.19,8.81,8.81,0,0,0,.38-3.6,10.33,10.33,0,0,0-1-3.57,11.44,11.44,0,0,0-2.25-3.11,8.64,8.64,0,0,0-1.47-1.18,4.49,4.49,0,0,0-1.53-.62,3.15,3.15,0,0,0-1.55.08,3.59,3.59,0,0,0-1.52,1,5.1,5.1,0,0,0-1.33,2.15,7.91,7.91,0,0,0-.31,2.54,17.39,17.39,0,0,1,1.22,1.49c.41.54.78,1.08,1.14,1.64Z"/><path class="cls-3" d="M982.41,513.84l-3.83,5.35-4.79-4.75L968.3,520l-3.84-3.8,5.49-5.54L964.22,505a6.35,6.35,0,0,0-2.83-1.78c-.91-.23-1.88.17-2.9,1.2a12.14,12.14,0,0,0-1.38,1.67,10.57,10.57,0,0,0-1,1.82l-4.24-2.9a18.86,18.86,0,0,1,1.25-2.44,15,15,0,0,1,2.23-2.75,11.7,11.7,0,0,1,3.61-2.63,7.07,7.07,0,0,1,3.38-.57,7.39,7.39,0,0,1,3.24,1.16,18.27,18.27,0,0,1,3.17,2.55Z"/><path class="cls-3" d="M942,530.3a15,15,0,0,1-3-4A10.83,10.83,0,0,1,938,522a10.16,10.16,0,0,1,.75-4.26,11.91,11.91,0,0,1,2.64-3.91,11.77,11.77,0,0,1,3.85-2.65,10.12,10.12,0,0,1,4.25-.79,11.18,11.18,0,0,1,4.34,1,14.35,14.35,0,0,1,4.1,2.89,13.58,13.58,0,0,1,2.9,4.07,11.25,11.25,0,0,1,1,4.33A10.51,10.51,0,0,1,961,527a11.49,11.49,0,0,1-2.55,3.81,11.69,11.69,0,0,1-3.82,2.63,10.23,10.23,0,0,1-4.23.8,11,11,0,0,1-4.32-1A14.13,14.13,0,0,1,942,530.3Zm4.66-4.71a8.12,8.12,0,0,0,4.2,2.47,3.9,3.9,0,0,0,3.63-1.22,4,4,0,0,0,1.19-3.65,8,8,0,0,0-2.5-4.19,8.26,8.26,0,0,0-4.24-2.49,4.21,4.21,0,0,0-4.83,4.88A8.39,8.39,0,0,0,946.7,525.59Z"/><path class="cls-3" d="M931.77,540.42a13.5,13.5,0,0,1,2.74,3.89,10.87,10.87,0,0,1,.28,8.8A12.14,12.14,0,0,1,932,557.3a15.9,15.9,0,0,1-2.6,2.14,17.19,17.19,0,0,1-2.76,1.43l-2.71-4.62a15.19,15.19,0,0,0,1.85-1,11.12,11.12,0,0,0,1.91-1.54,5.18,5.18,0,0,0,1.77-4.3,7.33,7.33,0,0,0-2.33-4.32,7.59,7.59,0,0,0-4.32-2.45c-1.43-.18-2.92.52-4.48,2.08a15.6,15.6,0,0,0-1.64,1.94,11,11,0,0,0-1.26,2.24l-4.4-3.11a15.51,15.51,0,0,1,1.41-2.58,18.69,18.69,0,0,1,2.41-2.9,13.84,13.84,0,0,1,4.48-3.15,10.13,10.13,0,0,1,4.43-.84,10,10,0,0,1,4.2,1.19A16.11,16.11,0,0,1,931.77,540.42Z"/><path class="cls-3" d="M901.26,571a14.91,14.91,0,0,1-2.94-4,10.72,10.72,0,0,1-1.11-4.31,10.26,10.26,0,0,1,.77-4.25,11.78,11.78,0,0,1,2.67-3.9,11.59,11.59,0,0,1,3.86-2.63,10.13,10.13,0,0,1,4.25-.77,11.19,11.19,0,0,1,4.34,1.08,14.93,14.93,0,0,1,7,7,11.08,11.08,0,0,1,1,4.34,10.66,10.66,0,0,1-.8,4.25,12.24,12.24,0,0,1-6.41,6.41,10.4,10.4,0,0,1-4.23.78,11,11,0,0,1-4.31-1.05A13.85,13.85,0,0,1,901.26,571Zm4.68-4.68a8.15,8.15,0,0,0,4.19,2.49,3.88,3.88,0,0,0,3.63-1.2A4,4,0,0,0,915,564a8.08,8.08,0,0,0-2.48-4.2,8.29,8.29,0,0,0-4.23-2.51,3.94,3.94,0,0,0-3.68,1.18,3.88,3.88,0,0,0-1.17,3.67A8.36,8.36,0,0,0,905.94,566.32Z"/><path class="cls-3" d="M885.59,570.41q4.65,1.5,10.4,4t12.07,5.92l-4.87,4.86c-1-.59-2.11-1.22-3.32-1.87s-2.45-1.32-3.7-2-2.49-1.29-3.69-1.89-2.32-1.13-3.34-1.58q.71,1.5,1.59,3.33c.6,1.21,1.22,2.44,1.88,3.7s1.31,2.48,2,3.69,1.28,2.33,1.87,3.33l-4.74,4.75q-3.42-6.32-5.92-12.07t-4-10.4Z"/><path class="cls-3" d="M882.26,589.69a14.06,14.06,0,0,1,3.11,4.44,11.34,11.34,0,0,1,1,4.43,10.28,10.28,0,0,1-.84,4.11,11,11,0,0,1-2.33,3.44,10.12,10.12,0,0,1-7.56,3.34q-4.11-.11-8.2-4.21c-.27-.26-.55-.57-.85-.91s-.56-.64-.79-.9L876.16,593a4.34,4.34,0,0,0-3.57-.93,7.58,7.58,0,0,0-4,2.31,19.85,19.85,0,0,0-2.25,2.71,13.39,13.39,0,0,0-1.42,2.56l-4.34-3.11a8.3,8.3,0,0,1,.62-1.35,16.62,16.62,0,0,1,1-1.7c.41-.59.88-1.21,1.39-1.85a23.35,23.35,0,0,1,1.63-1.81,14.48,14.48,0,0,1,4.45-3.16,10.44,10.44,0,0,1,4.45-.91,9.93,9.93,0,0,1,4.24,1.1A14.78,14.78,0,0,1,882.26,589.69Zm-9,12.54a7,7,0,0,0,1.34.94,4.08,4.08,0,0,0,1.5.46,3.92,3.92,0,0,0,1.61-.19,4.08,4.08,0,0,0,1.61-1.06,4.29,4.29,0,0,0,1.07-1.59,3.94,3.94,0,0,0,.23-1.61,4.66,4.66,0,0,0-.43-1.57,9.13,9.13,0,0,0-.87-1.45Z"/><path class="cls-3" d="M857.9,622.37c.51-.31,1.1-.68,1.77-1.12a13,13,0,0,0,2-1.62,12,12,0,0,0,1-1.11,8.84,8.84,0,0,0,.74-1.08l-12.38-12.38,4.58-4.58,15.34,15.33a38.93,38.93,0,0,1-2.09,3.73,23.86,23.86,0,0,1-3.36,4.12c-.25.25-.56.53-.94.85s-.77.63-1.17.92-.81.59-1.23.87a8,8,0,0,1-1.16.63Z"/><path class="cls-3" d="M833.17,637.72a8.78,8.78,0,0,0,3.22,3.16,3,3,0,0,0,3-.52c.33-.24.66-.5,1-.79s.65-.57,1-.85l-10.2-14.45,5.31-3.74,12.75,18.08c-.37.44-.81.93-1.32,1.49s-1.07,1.13-1.67,1.71S845,643,844.3,643.53s-1.34,1.09-2,1.57a10.74,10.74,0,0,1-3.66,1.81,9.08,9.08,0,0,1-3,.24,11.09,11.09,0,0,1-1.71,3.13,11.81,11.81,0,0,1-6.52,4.35,6.66,6.66,0,0,1-3.53-.14,8.2,8.2,0,0,1-3.09-1.87,21.7,21.7,0,0,1-2.78-3.27l-7.45-10.56,5.3-3.75,7,9.93a9,9,0,0,0,3.22,3.17,3,3,0,0,0,3-.53,6.78,6.78,0,0,0,1.93-2.48,10.36,10.36,0,0,1-1.54-1.5q-.71-.86-1.44-1.89l-7.2-10.21,5.3-3.74Z"/><path class="cls-3" d="M809.62,665.56a15,15,0,0,1-4.55,1.62,7.43,7.43,0,0,1-3.59-.25,6.84,6.84,0,0,1-2.81-1.88,14.36,14.36,0,0,1-2.21-3.22l-6.21-12c.73-.6,1.77-1.41,3.11-2.42a37.93,37.93,0,0,1,5.14-3.13,19.1,19.1,0,0,1,3.76-1.5,8.77,8.77,0,0,1,3.36-.3,5.89,5.89,0,0,1,2.85,1.15,8.06,8.06,0,0,1,2.24,2.81,6.76,6.76,0,0,1,.85,3.39,6.24,6.24,0,0,1-.89,3,9.83,9.83,0,0,1-2.2,2.49,17.32,17.32,0,0,1-3,2,19.08,19.08,0,0,1-2,.93,10.47,10.47,0,0,1-1.54.49l.28.54a3.56,3.56,0,0,0,2.11,1.89,4.81,4.81,0,0,0,3.55-.71,23.12,23.12,0,0,0,2.79-1.71,13.66,13.66,0,0,0,2.17-1.89l3.14,4.26c-.28.28-.65.61-1.09,1s-.94.77-1.48,1.16-1.13.8-1.76,1.21S810.29,665.21,809.62,665.56Zm-9.2-16.62c-.56.29-1.1.58-1.6.88a10.75,10.75,0,0,0-1.18.76l2.27,4.36a9.85,9.85,0,0,0,1.12-.38,13.94,13.94,0,0,0,1.32-.59,12.69,12.69,0,0,0,1.47-.88,4.77,4.77,0,0,0,1.07-1,2.45,2.45,0,0,0,.47-1.18,2.29,2.29,0,0,0-.29-1.32,2.23,2.23,0,0,0-1.88-1.4A5.58,5.58,0,0,0,800.42,648.94Z"/><path class="cls-3" d="M793.37,672a35.84,35.84,0,0,1-3.65,2.39,34,34,0,0,1-5,2.39,13.16,13.16,0,0,1-4.79,1.06,7.28,7.28,0,0,1-3.65-.88,8.44,8.44,0,0,1-2.71-2.5,17.75,17.75,0,0,1-2-3.79l-4.72-12,6-2.37,4.43,11.32a8.76,8.76,0,0,0,2.4,3.83,3.37,3.37,0,0,0,3.35.09c.43-.17.89-.37,1.36-.6s.88-.45,1.24-.65l-6.46-16.46,6-2.37Z"/><path class="cls-3" d="M749.17,687.5q.12-6.9.63-13t1.49-12.08a24.66,24.66,0,0,1,.88-3.7,10.12,10.12,0,0,1,1.32-2.72,7.15,7.15,0,0,1,2-1.92,11.27,11.27,0,0,1,3-1.26,13.41,13.41,0,0,1,2.78-.48,14.05,14.05,0,0,1,2.21,0l.3,5.3a11.13,11.13,0,0,0-1.85,0,9,9,0,0,0-1.63.32,3.63,3.63,0,0,0-2.33,1.61,7.4,7.4,0,0,0-.84,2.93q3.3,3.6,6.9,8.23a122.74,122.74,0,0,1,7.29,10.61l-6.63,1.84q-.88-1.53-2-3.27c-.73-1.17-1.49-2.34-2.27-3.53s-1.57-2.33-2.34-3.44-1.51-2.11-2.18-3c-.09,1.11-.15,2.33-.21,3.67s-.08,2.72-.1,4.12,0,2.8,0,4.17,0,2.64,0,3.81Z"/><path class="cls-3" d="M727.46,690.32c-.48.19-1,.4-1.53.64a19.32,19.32,0,0,1-1.86.7,21.54,21.54,0,0,1-2.35.61,26.48,26.48,0,0,1-3.05.44,9.83,9.83,0,0,1-3.49-.2,7.92,7.92,0,0,1-2.64-1.33,22.42,22.42,0,0,1-3,1.79,10.91,10.91,0,0,1-3.65.93,10.22,10.22,0,0,1-3.54-.22,6.07,6.07,0,0,1-4.17-3.64,10.9,10.9,0,0,1-.72-3.06,12.83,12.83,0,0,1,0-1.66,15.14,15.14,0,0,1,.16-1.76L699.34,671l6.46-.6-1.74,12.32c0,.41-.1.88-.16,1.39a7.63,7.63,0,0,0,0,1.51,3.83,3.83,0,0,0,.76,2,2.42,2.42,0,0,0,2.29.69,4.64,4.64,0,0,0,1.7-.49,16.32,16.32,0,0,0,1.42-.81,2.68,2.68,0,0,1-.15-.64c0-.2,0-.39,0-.56a12.81,12.81,0,0,1-.05-1.66,15.35,15.35,0,0,1,.17-1.77l1.81-12.59,6.46-.59-1.75,12.32c0,.41-.1.87-.15,1.39a7.64,7.64,0,0,0,0,1.51,3.91,3.91,0,0,0,.76,2,2.42,2.42,0,0,0,2.3.68,8.84,8.84,0,0,0,1.16-.17c.32-.07.68-.17,1.11-.3l2.57-18,6.46-.6Z"/><path class="cls-3" d="M684.6,669.55a10.61,10.61,0,0,1,4,.87,7.51,7.51,0,0,1,2.72,2.08,8.67,8.67,0,0,1,1.55,3.06,12.37,12.37,0,0,1,.39,3.83,16.63,16.63,0,0,1-1.07,5.18,15.09,15.09,0,0,1-2.71,4.59,13.15,13.15,0,0,1-4.2,3.24,11.06,11.06,0,0,1-5.54,1.09,10.73,10.73,0,0,1-4-.87,7.41,7.41,0,0,1-2.74-2.09,8.37,8.37,0,0,1-1.54-3,12.07,12.07,0,0,1-.4-3.83,17.31,17.31,0,0,1,1-5.19,15.36,15.36,0,0,1,2.64-4.59,13,13,0,0,1,4.18-3.24A11.51,11.51,0,0,1,684.6,669.55Zm-4,18.48a4.12,4.12,0,0,0,2.56-.71,7.1,7.1,0,0,0,1.92-2,10.34,10.34,0,0,0,1.23-2.72,12,12,0,0,0,.5-2.83,6.93,6.93,0,0,0-.55-3.45,2.67,2.67,0,0,0-2.47-1.3,4,4,0,0,0-2.56.71,7.1,7.1,0,0,0-1.92,2,10.34,10.34,0,0,0-1.23,2.72,12,12,0,0,0-.5,2.83,6.87,6.87,0,0,0,.55,3.44A2.66,2.66,0,0,0,680.56,688Z"/><path class="cls-3" d="M651,683.92l1.64.65a12.7,12.7,0,0,0,2.46.53,9.25,9.25,0,0,0,1.35.08c.5,0,.91,0,1.24-.07l6.59-16.85,6.43.88-8.14,20.77c-1.29.24-2.73.42-4.32.57a22.81,22.81,0,0,1-5.28-.18,15.68,15.68,0,0,1-2.36-.52,9.35,9.35,0,0,1-2.23-.95Z"/><path class="cls-3" d="M650.53,675.17a15.07,15.07,0,0,1-2.13,5.06,14.61,14.61,0,0,1-3.71,3.92,13.66,13.66,0,0,1-4.94,2.25,12.78,12.78,0,0,1-5.77,0,9,9,0,0,1-2.67-1,6.84,6.84,0,0,1-2-1.73,5.64,5.64,0,0,1-1-2.31,6.56,6.56,0,0,1,.06-2.78,7.55,7.55,0,0,1,2-3.8,8.38,8.38,0,0,1,3.56-2,14.89,14.89,0,0,1,4.82-.5,31.87,31.87,0,0,1,5.76.79,3.9,3.9,0,0,0-.74-2.82,5.45,5.45,0,0,0-3-1.45,17,17,0,0,0-2.81-.38,14.23,14.23,0,0,0-2.79.11l.64-5.08a20.07,20.07,0,0,1,3.23-.17,19.75,19.75,0,0,1,4.1.52,12.07,12.07,0,0,1,4.28,1.73,7.75,7.75,0,0,1,3.45,6A12.51,12.51,0,0,1,650.53,675.17Zm-14.41,6.42a5.46,5.46,0,0,0,4.15-.7,7.71,7.71,0,0,0,3.06-3.62,23,23,0,0,0-4.35-.5,9.35,9.35,0,0,0-2.7.31,2.84,2.84,0,0,0-1.44.84,2.63,2.63,0,0,0-.56,1.12C634,680.4,634.59,681.25,636.12,681.59Z"/><path class="cls-3" d="M604.53,666.11q2-2.77,4.09-5.47t4.3-5.39l4.71,1.82c0,1.32.06,2.88,0,4.67s-.11,3.73-.21,5.82-.24,4.3-.4,6.62-.35,4.65-.57,7l-6.38-2.46c.16-1.06.33-2.21.52-3.46s.37-2.54.55-3.87.36-2.67.52-4,.3-2.66.41-3.92c-.81,1.05-1.63,2.14-2.45,3.25s-1.61,2.22-2.39,3.3L605,673.13c-.72,1-1.37,2-2,2.86l-4.39-1.69c.16-1.06.32-2.2.49-3.43s.32-2.5.49-3.82.33-2.67.48-4,.29-2.72.4-4c-.77,1-1.55,2.07-2.35,3.18s-1.59,2.21-2.34,3.32-1.49,2.19-2.19,3.24l-1.95,2.91-6.29-2.43q2.11-2.82,4.27-5.56c1.44-1.82,2.82-3.55,4.15-5.17s2.58-3.1,3.77-4.45,2.25-2.49,3.18-3.44l4.71,1.82c-.11,2.32-.24,4.62-.37,6.9S604.78,663.84,604.53,666.11Z"/><path class="cls-3" d="M571.32,655.55c.45.39,1,.83,1.63,1.32a12.54,12.54,0,0,0,2.16,1.32,11.19,11.19,0,0,0,1.36.55,9.14,9.14,0,0,0,1.26.35l7.72-15.71,5.82,2.86-9.56,19.47a40.86,40.86,0,0,1-4.21-.78,23.89,23.89,0,0,1-5-1.85c-.32-.15-.68-.36-1.11-.61s-.84-.53-1.25-.81-.82-.58-1.21-.89a6.69,6.69,0,0,1-1-.89Z"/><path class="cls-3" d="M554.86,660.64a3.6,3.6,0,0,1,2.35-1.92,4,4,0,0,1,2.89.39,4,4,0,0,1,1.9,2.2,4,4,0,0,1-2.67,4.94,3.92,3.92,0,0,1-2.88-.39,4,4,0,0,1-1.91-2.19A3.61,3.61,0,0,1,554.86,660.64ZM569.43,635l5.71,3.09-10.88,20.15-5.71-3.08Z"/><path class="cls-3" d="M547.44,654l-5.61-3.42,4.39-5.13-5.92-5.07,3.51-4.1,5.92,5.07L555,635.2a6.46,6.46,0,0,0,1.58-3c.16-.93-.31-1.87-1.41-2.81a11.65,11.65,0,0,0-1.77-1.25,10.17,10.17,0,0,0-1.89-.91l2.59-4.43a18.06,18.06,0,0,1,2.52,1.07,15.24,15.24,0,0,1,2.91,2,11.51,11.51,0,0,1,2.88,3.4,6.88,6.88,0,0,1,.81,3.34,7.5,7.5,0,0,1-.91,3.31,18.93,18.93,0,0,1-2.32,3.35Z"/><path class="cls-3" d="M531.75,640.16l-5.34-3.83,4.76-4.79-5.53-5.5,3.81-3.83,5.53,5.5,5.68-5.71a6.54,6.54,0,0,0,1.8-2.82q.35-1.38-1.2-2.91a12.66,12.66,0,0,0-1.66-1.38,11,11,0,0,0-1.82-1l2.91-4.23a18.38,18.38,0,0,1,2.44,1.26,14.69,14.69,0,0,1,2.74,2.24,11.65,11.65,0,0,1,2.62,3.61,7,7,0,0,1,.56,3.38,7.52,7.52,0,0,1-1.16,3.24,18.39,18.39,0,0,1-2.57,3.16Z"/><path class="cls-3" d="M531.3,615.25a14.09,14.09,0,0,1-4.65,2.77,11.39,11.39,0,0,1-4.49.62,10.1,10.1,0,0,1-4-1.14,10.91,10.91,0,0,1-3.25-2.58,10.1,10.1,0,0,1-2.78-7.78q.42-4.1,4.8-7.88c.29-.24.61-.5,1-.77l1-.72,9.61,11.15a4.29,4.29,0,0,0,1.19-3.49,7.59,7.59,0,0,0-2-4.14,18.87,18.87,0,0,0-2.54-2.44,12.71,12.71,0,0,0-2.44-1.6l3.42-4.1a9.4,9.4,0,0,1,1.31.71A19.49,19.49,0,0,1,529,595c.56.46,1.14,1,1.74,1.52a23.33,23.33,0,0,1,1.69,1.76,14.42,14.42,0,0,1,2.82,4.67,10.55,10.55,0,0,1,.58,4.51,9.92,9.92,0,0,1-1.41,4.14A14.7,14.7,0,0,1,531.3,615.25Zm-11.83-9.93a6.64,6.64,0,0,0-1,1.27,4,4,0,0,0-.57,1.47,3.84,3.84,0,0,0,.07,1.61,4,4,0,0,0,.94,1.69,4.36,4.36,0,0,0,1.5,1.18,4,4,0,0,0,1.59.35,4.52,4.52,0,0,0,1.6-.32,8.85,8.85,0,0,0,1.51-.75Z"/><path class="cls-3" d="M505.12,601a36.25,36.25,0,0,1-3.2-3,34.63,34.63,0,0,1-3.52-4.23,13.44,13.44,0,0,1-2.2-4.39,7.37,7.37,0,0,1,0-3.76,8.36,8.36,0,0,1,1.76-3.23,17.64,17.64,0,0,1,3.19-2.86L511.67,572l3.76,5.29-9.89,7a8.72,8.72,0,0,0-3.14,3.25,3.35,3.35,0,0,0,.73,3.27c.27.38.57.77.91,1.17s.65.75.94,1l14.4-10.26,3.76,5.28Z"/><path class="cls-3" d="M499.69,550.53a15.87,15.87,0,0,1,1.68,4.32,6.74,6.74,0,0,1-.05,3.21,5.24,5.24,0,0,1-1.5,2.42,13.53,13.53,0,0,1-2.7,1.91L475,574.54l-4-5.18,21.87-12a9.3,9.3,0,0,0,1.31-.87,2.84,2.84,0,0,0,.79-1,2.76,2.76,0,0,0,.17-1.32,6,6,0,0,0-.56-1.83Z"/><path class="cls-3" d="M472.26,548.76a14.94,14.94,0,0,1-1.36-4.64,7.37,7.37,0,0,1,.45-3.57,6.85,6.85,0,0,1,2-2.7,14.39,14.39,0,0,1,3.34-2L489,530.29c.57.77,1.32,1.85,2.25,3.25a37.19,37.19,0,0,1,2.84,5.31,19.19,19.19,0,0,1,1.29,3.83,8.59,8.59,0,0,1,.1,3.37,5.81,5.81,0,0,1-1.3,2.78,8,8,0,0,1-2.93,2.08,6.66,6.66,0,0,1-3.43.66,6.14,6.14,0,0,1-2.91-1.06,9.64,9.64,0,0,1-2.36-2.33,17,17,0,0,1-1.82-3.14,22.17,22.17,0,0,1-.82-2.09,10.13,10.13,0,0,1-.39-1.57l-.56.25a3.62,3.62,0,0,0-2,2,4.86,4.86,0,0,0,.51,3.59,22.11,22.11,0,0,0,1.56,2.88,14,14,0,0,0,1.76,2.27l-4.43,2.9c-.26-.3-.57-.68-.92-1.14s-.71-1-1.07-1.55-.74-1.17-1.11-1.82S472.57,549.45,472.26,548.76Zm17.11-8.26c-.26-.58-.52-1.13-.79-1.65a11.52,11.52,0,0,0-.69-1.22l-4.49,2a11.74,11.74,0,0,0,.33,1.14c.16.5.33,1,.5,1.35a12.17,12.17,0,0,0,.81,1.53,4.45,4.45,0,0,0,1,1.12,2.38,2.38,0,0,0,1.14.53,2.34,2.34,0,0,0,1.34-.21,2.24,2.24,0,0,0,1.51-1.8A5.75,5.75,0,0,0,489.37,540.5Z"/><path class="cls-3" d="M466.71,532.11a37.06,37.06,0,0,1-2.16-3.78,35.06,35.06,0,0,1-2.09-5.1,13.46,13.46,0,0,1-.78-4.85,7.42,7.42,0,0,1,1.11-3.59,8.41,8.41,0,0,1,2.65-2.55,17.23,17.23,0,0,1,3.91-1.77l12.3-4,2,6.18L472.1,516.4a8.64,8.64,0,0,0-4,2.16,3.35,3.35,0,0,0-.29,3.34c.14.44.32.9.52,1.39s.39.91.57,1.28l16.82-5.46,2,6.17Z"/><path class="cls-3" d="M473.7,482.78q5.52-1.09,8.74,1.17t4.39,8.12a24.19,24.19,0,0,1,.45,4.17,27,27,0,0,1-.2,4l-5.56-.05a19.18,19.18,0,0,0,.31-3.33,18.55,18.55,0,0,0-.4-3.8,5.31,5.31,0,0,0-2-3.63,4.36,4.36,0,0,0-3.3-.52l-.82.16a10.23,10.23,0,0,1,1.13,2,11.48,11.48,0,0,1,.71,2.32c.61,3.1.17,5.66-1.34,7.68s-3.91,3.36-7.22,4a12.88,12.88,0,0,1-4.65.13,9.68,9.68,0,0,1-3.93-1.55,10.11,10.11,0,0,1-3-3.16,14,14,0,0,1-1.75-4.67c-.16-.77-.28-1.57-.37-2.39s-.16-1.65-.2-2.47-.06-1.61,0-2.37,0-1.43.1-2Zm-6.36,15.79c3.56-.71,5.06-2.5,4.48-5.38a6.86,6.86,0,0,0-1.51-3.11l-10.16,2c0,.32,0,.7.07,1.14s.12.94.23,1.51a4.45,4.45,0,0,0,2.42,3.42A7,7,0,0,0,467.34,498.57Z"/><path class="cls-3" d="M473.53,457.58a35.69,35.69,0,0,1,1.22,4.19,34.19,34.19,0,0,1,.83,5.44,12.82,12.82,0,0,1-.41,4.9,7.33,7.33,0,0,1-1.95,3.23,8.62,8.62,0,0,1-3.25,1.87,18,18,0,0,1-4.26.8L453,479l-.5-6.47,11.94-.91a9.32,9.32,0,0,0,4.46-1.18,3.31,3.31,0,0,0,1.15-3.19q-.06-.69-.18-1.47c-.08-.52-.17-1-.26-1.38L452,465.75l-.5-6.47Z"/><path class="cls-3" d="M451.07,443.17a15.09,15.09,0,0,1,.83-4.77,7.44,7.44,0,0,1,2-3,6.93,6.93,0,0,1,3-1.53,15,15,0,0,1,3.89-.33l13.49.51c.17.93.36,2.23.58,3.9a37.52,37.52,0,0,1,.18,6,18.43,18.43,0,0,1-.54,4,8.54,8.54,0,0,1-1.4,3.06,5.93,5.93,0,0,1-2.4,1.92,8.07,8.07,0,0,1-3.55.56,6.71,6.71,0,0,1-3.37-.93,6.21,6.21,0,0,1-2.14-2.24,10.07,10.07,0,0,1-1.08-3.13,17.37,17.37,0,0,1-.23-3.63,19.57,19.57,0,0,1,.19-2.24,10.35,10.35,0,0,1,.34-1.57l-.61,0a3.61,3.61,0,0,0-2.69.9,4.87,4.87,0,0,0-1.13,3.45,22.25,22.25,0,0,0,.12,3.27,14,14,0,0,0,.57,2.81l-5.26.63c-.1-.38-.2-.86-.31-1.43s-.2-1.19-.28-1.86-.14-1.38-.18-2.12A20.89,20.89,0,0,1,451.07,443.17Zm19,.19c0-.64,0-1.25,0-1.83a12.18,12.18,0,0,0-.08-1.4l-4.91-.19c-.07.26-.14.65-.22,1.17a11.26,11.26,0,0,0-.14,1.44,12.13,12.13,0,0,0,0,1.72,4.41,4.41,0,0,0,.36,1.43,2.5,2.5,0,0,0,.79,1,2.35,2.35,0,0,0,1.29.39,2.21,2.21,0,0,0,2.15-.94A5.67,5.67,0,0,0,470.07,443.36Z"/><path class="cls-3" d="M475.45,409q5.57.82,7.83,4t1.4,9.12a23.3,23.3,0,0,1-1,4.08,25.1,25.1,0,0,1-1.54,3.69l-5.22-1.92a18.59,18.59,0,0,0,1.42-3,19.11,19.11,0,0,0,.91-3.72q.41-2.76-.63-4.08a4.39,4.39,0,0,0-2.93-1.6l-.82-.12a10.73,10.73,0,0,1,.39,2.24,11.24,11.24,0,0,1-.12,2.42q-.69,4.69-3.84,6.78t-8.15,1.35a12.91,12.91,0,0,1-4.43-1.45,9.71,9.71,0,0,1-3.17-2.79,10,10,0,0,1-1.72-4,14.05,14.05,0,0,1-.08-5c.12-.77.27-1.56.46-2.37s.41-1.61.65-2.39.48-1.54.75-2.25.53-1.34.78-1.89Zm-11.31,12.72q5.39.8,6-3.55a6.32,6.32,0,0,0,0-1.89,6.83,6.83,0,0,0-.39-1.56l-10.25-1.52c-.1.31-.21.67-.31,1.1a12.94,12.94,0,0,0-.29,1.5,4.46,4.46,0,0,0,1.11,4A7.07,7.07,0,0,0,464.14,421.76Z"/><path class="cls-3" d="M468.2,402.46a13.86,13.86,0,0,1-4.93-2.24,11.35,11.35,0,0,1-3.08-3.33,10.31,10.31,0,0,1-1.36-4,11.07,11.07,0,0,1,.26-4.14,10.11,10.11,0,0,1,4.82-6.72q3.58-2,9.2-.55c.37.1.76.21,1.19.35l1.14.39-3.68,14.25a4.31,4.31,0,0,0,3.55-1,7.6,7.6,0,0,0,2.25-4,19.86,19.86,0,0,0,.56-3.48,13.41,13.41,0,0,0-.08-2.92l5.32.47a10,10,0,0,1,.16,1.48,19.63,19.63,0,0,1,0,2c-.05.73-.13,1.49-.25,2.3a21.08,21.08,0,0,1-.49,2.39,14.12,14.12,0,0,1-2.23,5,10.28,10.28,0,0,1-3.37,3,9.8,9.8,0,0,1-4.2,1.21A15,15,0,0,1,468.2,402.46Zm1.4-15.38A6.37,6.37,0,0,0,468,387a3.84,3.84,0,0,0-2.82,1.34,4.07,4.07,0,0,0-.85,1.73,4.37,4.37,0,0,0-.11,1.91,4,4,0,0,0,.62,1.51,4.35,4.35,0,0,0,1.17,1.13,8.89,8.89,0,0,0,1.48.81Z"/><path class="cls-3" d="M483.72,372.56a6.55,6.55,0,0,0,.52-2.5,1.37,1.37,0,0,0-1-1.15,1.67,1.67,0,0,0-1.61.45,18,18,0,0,0-2.23,2.31,28.18,28.18,0,0,1-2,2.21,8,8,0,0,1-2.08,1.51,5.84,5.84,0,0,1-2.36.6,7.45,7.45,0,0,1-2.82-.5,6.09,6.09,0,0,1-4-3.95,10.46,10.46,0,0,1,.43-6.83,20.65,20.65,0,0,1,1.68-3.65,18.86,18.86,0,0,1,1.78-2.61l4.38,2.75a23.88,23.88,0,0,0-1.47,2.09,13.39,13.39,0,0,0-1.29,2.71c-.67,1.92-.48,3.07.59,3.44a1.62,1.62,0,0,0,.7.11,1.48,1.48,0,0,0,.73-.29,8,8,0,0,0,.93-.81q.54-.52,1.26-1.38a26.56,26.56,0,0,1,2.64-2.8,8.44,8.44,0,0,1,2.3-1.52,5.06,5.06,0,0,1,2.24-.41,8.51,8.51,0,0,1,2.49.53,5.78,5.78,0,0,1,4,4.11c.53,2,.27,4.45-.76,7.38a21,21,0,0,1-2.19,4.61,21.19,21.19,0,0,1-1.75,2.35l-4.61-2.78a21,21,0,0,0,2.1-2.86A15.89,15.89,0,0,0,483.72,372.56Z"/><path class="cls-3" d="M492.38,353.69a3.64,3.64,0,0,1,2.28,2.29,4.35,4.35,0,0,1-2.16,5.19,4.21,4.21,0,0,1-5.51-2.29,4.38,4.38,0,0,1,2.16-5.19A3.65,3.65,0,0,1,492.38,353.69Z"/></g></svg>