<svg id="Ebene_1" data-name="Ebene 1" xmlns="http://www.w3.org/2000/svg" viewBox="0 0 9751.18 4081.89"><defs><style>.cls-1{fill:#eb610a;}.cls-2{fill:#fff;}</style></defs><title>Roboto_Specs</title><rect class="cls-1" width="9751.18" height="4081.89"/><path class="cls-2" d="M1547.46,1506.21H1054v707.87H909.38V516.29h551.76q271.8,0,424.62,131.6t152.83,368q0,163.06-95.65,287.66T1686.3,1475.93l424.62,723v15.18H1958.09ZM1054,1384.54H1493.8q180.83,0,290.49-102.66t109.65-266q0-179.64-114.32-278.79T1458.81,638H1054Z"/><path class="cls-2" d="M3226.56,1526.48h-399v687.6H2602.44V516.29h562.28q287,0,441.53,130.51t154.58,379.83q0,158.47-85.74,276.14T3436.54,1478.7l398.95,721.38v14h-240.3Zm-399-182.5h344.12q166.82,0,265.39-86.49t98.57-231.44q0-157.78-93.9-241.92t-271.22-85.34h-343Z"/><path class="cls-2" d="M4953.83,1561.51h-329v652.57H4329.71V516.29H4927q294,0,453.77,132T5540.58,1030q0,170.49-82.23,285.47t-229.22,176.88L5610.57,2199v15.12H5294.46Zm-329-237.8h303.3q149.33,0,233.31-75.3t84-206q0-136.58-77.6-211.27t-231.55-77H4624.86Z"/><path class="cls-2" d="M6739.49,1592.85H6460.68v621.23h-350V516.29h631.12q301,0,464.28,134.14t163.32,379.05q0,173.82-75.27,289.85t-228,184.86l367.45,693.56v16.33H7057.94ZM6460.68,1309H6743q131.82,0,204.16-66.94t72.32-184.54q0-119.9-68.26-188.61t-209.37-68.7H6460.68Z"/><path class="cls-2" d="M1063.54,3073.23v304.94H902.73V2598h308.76q131.34,0,202.1,59.2t70.75,170.12q0,60.54-32.7,103.67T1345,3003.61q128.1,37,131.33,179v45.56q0,104.51,39.13,135v15h-165.1q-32.16-25.17-34.85-127v-57.33q0-117.37-109.88-120.59Zm0-129.61h131.87q127.58,0,127.58-103.83,0-54-31.63-82.68t-89.52-28.64h-138.3Z"/><path class="cls-2" d="M1907.27,3092.71H1779.15v285.46H1618.33V2598h290q138.3,0,213.34,61.63t75.05,174.18q0,79.88-34.59,133.19T2057.36,3052l168.84,318.7v7.5H2053.6Zm-128.12-130.45h129.72q60.57,0,93.81-30.76t33.24-84.8q0-55.1-31.37-86.67t-96.21-31.56H1779.15Z"/><path class="cls-2" d="M3234.85,3118.48q-9.12,126-93,198.35t-221.12,72.36q-150.09,0-236.13-101.08t-86-277.49v-47.73q0-112.6,39.66-198.4t113.38-131.64Q2825.3,2587,2922.88,2587q135.07,0,217.63,72.38t95.42,203.15H3075.11q-5.91-75.42-42.09-109.41t-110.14-34q-80.41,0-120.35,57.63t-41,178.77v59q0,126.52,38.33,185t120.88,58.42q74.49,0,111.22-34T3074,3118.48Zm-255.09,257.15-5.9,30.91q80.41,14.43,80.41,92.53,0,58.82-49.05,93.07t-138,34.23l-3.76-89.79q60,0,60-43.16,0-22.4-18-30.64t-58.15-10.94l16.62-76.21Z"/><path class="cls-2" d="M3571.55,3264.67q42.88,0,69.69-23.7t27.87-63h145.26q-.52,59-32.16,108t-86.57,76.12q-55,27.06-121.41,27.07-124.36,0-196.19-79.06t-71.83-218.44v-10.18q0-134,71.28-213.87t195.66-79.88q108.82,0,174.49,61.92t66.73,164.82H3669.11q-1.07-45-27.87-73.21t-70.76-28.16q-54.17,0-81.75,39.45t-27.6,128v16.11q0,89.64,27.33,128.81T3571.55,3264.67Zm56.2,111-5.9,30.91q80.4,14.43,80.4,92.53,0,58.82-49.05,93.07t-138,34.23l-3.76-89.79q60,0,60-43.16,0-22.4-18-30.64t-58.16-10.94l16.63-76.21Z"/><path class="cls-2" d="M4998.52,3005.79q0,115.29-40.74,202.16T4841.19,3342q-75.87,47.19-173.94,47.19-87.91,0-158.14-37.54l-45.56,77.73H4362.77l76.65-129.75q-105.6-104.53-105.59-297.6v-30.56q0-115.26,41.53-202.95t117.4-134.6q75.84-46.9,173.41-46.92,93.8,0,168.32,44l39.67-66.48h100.23l-71.83,121.71q96,106.18,96,288Zm-501.74,0q0,92.24,26.26,152.82l239.62-405.88q-39.15-32.73-96.49-32.73-81,0-124.9,63t-44.49,184.73Zm339.31-35.46q0-80.92-20.37-137.2L4579.86,3232q37.53,25,87.39,25,80.91,0,124.62-63.5t44.22-185.17Z"/><path class="cls-2" d="M5075.89,3083.11q0-86.28,33.23-153.83t95.68-104.53q62.46-37,145-37,54.12,0,99.7,15.54l37.53-76.65h86.29l-55.2,113.1q107.21,79.89,107.21,254.61,0,133.5-74.52,214.16t-199.94,80.67q-50.94,0-94.34-13.94L5218,3454.58h-86.31l55.21-113.64Q5075.88,3262.69,5075.89,3083.11Zm154.92,11.23q0,69.7,22,111.52l139.37-285.17a115.34,115.34,0,0,0-42.34-7.56q-56.82,0-87.91,44.23T5230.81,3094.34Zm239.6-11.09q0-61.2-19.82-105.2l-137.23,280.87q16.08,5.76,37.52,5.75,56.27,0,87.9-43.21T5470.41,3083.25Z"/><path class="cls-2" d="M6621,3218.08h-282l-53.61,160.09h-171L6405,2598h149l292.13,780.15h-171Zm-258.28-766.81q0-46.09,34.84-78t84.7-31.91q49.3,0,84.42,31.37t35.12,78.55q0,45.58-34.31,76.69t-85.23,31.09q-52,0-85.77-31.63T6362.74,2451.27Zm19.75,636.36h195.12l-98.1-292.43Zm41.89-636.36q0,23.61,15.54,40.5t42.36,16.89q26.79,0,42.34-16.89t15.55-40.5q0-24.66-15.82-41.56t-42.07-16.9q-26.28,0-42.08,16.9T6424.38,2451.27Z"/><path class="cls-2" d="M7245,3378.17q-10.72-20.76-15.54-51.69-56.31,62.71-146.35,62.71-85.23,0-141.25-49.32t-56-124.39q0-92.19,68.35-141.53t197.52-49.85H7223v-33.32q0-40.31-20.64-64.48t-65.12-24.18q-39.15,0-61.39,18.78t-22.23,51.52H6898.69q0-50.3,31.09-93.12t87.91-67.19q56.82-24.33,127.58-24.35,107.2,0,170.2,53.84t63,151.37v251.26q.51,82.51,23,124.84v9.1ZM7026,2617.3q0-46.1,34.84-78t84.69-31.91q49.32,0,84.43,31.37t35.11,78.55q0,45.59-34.3,76.69t-85.24,31.09q-52,0-85.77-31.64T7026,2617.3Zm90.85,653.3q34.3,0,63.25-15.27t42.88-41v-99.63h-57.89q-116.34,0-123.83,80.34l-.53,9.11q0,28.92,20.37,47.67T7116.87,3270.6Zm-29.21-653.3q0,23.61,15.54,40.5t42.35,16.89q26.8,0,42.34-16.89t15.55-40.5q0-24.66-15.81-41.56t-42.08-16.9q-26.27,0-42.08,16.9T7087.66,2617.3Z"/></svg>