<?xml version="1.0" encoding="utf-8"?>
<!-- Generator: Adobe Illustrator 22.1.0, SVG Export Plug-In . SVG Version: 6.00 Build 0)  -->
<svg version="1.1" id="Ebene_1" xmlns="http://www.w3.org/2000/svg" xmlns:xlink="http://www.w3.org/1999/xlink" x="0px" y="0px"
	 viewBox="0 0 375 600" style="enable-background:new 0 0 375 600;" xml:space="preserve">
<style type="text/css">
	.st0{fill:#FFAB00;stroke:#000000;stroke-miterlimit:10;}
</style>
<rect y="0" class="st0" width="375" height="600"/>
<title>hochformat_Text</title>
<g>
	<path d="M59.2,69.6h-9.6v19.1H41V39h17.5c5.7,0,10.2,1.3,13.3,3.9c3.1,2.6,4.7,6.3,4.7,11.2c0,3.3-0.8,6.1-2.4,8.4
		c-1.6,2.2-3.8,4-6.7,5.2l11.2,20.7v0.4h-9.3L59.2,69.6z M49.6,62.6h8.9c2.9,0,5.2-0.7,6.8-2.2c1.6-1.5,2.5-3.5,2.5-6
		c0-2.7-0.8-4.7-2.3-6.2C64,46.7,61.7,46,58.7,46h-9.1V62.6z"/>
	<path d="M82.2,69.9c0-3.6,0.7-6.9,2.2-9.8s3.5-5.1,6-6.7c2.6-1.6,5.6-2.3,9-2.3c5,0,9,1.6,12.2,4.8s4.8,7.5,5,12.8v1.9
		c0,3.6-0.7,6.9-2.1,9.8s-3.4,5.1-6,6.7s-5.6,2.4-9,2.4c-5.2,0-9.4-1.7-12.5-5.2s-4.7-8.1-4.7-13.9L82.2,69.9L82.2,69.9z M90.6,70.6
		c0,3.8,0.8,6.8,2.4,8.9s3.8,3.2,6.6,3.2s5-1.1,6.5-3.3s2.3-5.4,2.3-9.6c0-3.7-0.8-6.7-2.4-8.9s-3.8-3.3-6.5-3.3s-4.9,1.1-6.5,3.2
		C91.4,63.1,90.6,66.3,90.6,70.6z"/>
	<path d="M156.1,70.6c0,5.7-1.3,10.3-3.8,13.7c-2.6,3.4-6.1,5.1-10.6,5.1c-4.3,0-7.7-1.6-10.1-4.7l-0.4,4h-7.5V36.2h8.3v19.1
		c2.4-2.8,5.6-4.2,9.7-4.2c4.5,0,8.1,1.7,10.6,5c2.6,3.3,3.9,8,3.9,14L156.1,70.6L156.1,70.6z M147.8,69.9c0-4-0.7-7-2.1-9
		c-1.4-2-3.5-3-6.2-3c-3.6,0-6.1,1.6-7.6,4.7v15.2c1.5,3.2,4,4.8,7.7,4.8c2.6,0,4.6-1,6-2.9s2.1-4.9,2.2-8.8L147.8,69.9L147.8,69.9z
		"/>
	<path d="M161.5,69.9c0-3.6,0.7-6.9,2.2-9.8s3.5-5.1,6-6.7c2.6-1.6,5.6-2.3,9-2.3c5,0,9,1.6,12.2,4.8s4.8,7.5,5,12.8v1.9
		c0,3.6-0.7,6.9-2.1,9.8s-3.4,5.1-6,6.7s-5.6,2.4-9,2.4c-5.2,0-9.4-1.7-12.5-5.2s-4.7-8.1-4.7-13.9L161.5,69.9L161.5,69.9z
		 M169.8,70.6c0,3.8,0.8,6.8,2.4,8.9s3.8,3.2,6.6,3.2s5-1.1,6.5-3.3s2.3-5.4,2.3-9.6c0-3.7-0.8-6.7-2.4-8.9s-3.8-3.3-6.5-3.3
		s-4.9,1.1-6.5,3.2C170.6,63.1,169.8,66.3,169.8,70.6z"/>
	<path d="M213.3,42.8v9h6.5V58h-6.5v20.6c0,1.4,0.3,2.4,0.8,3.1c0.6,0.6,1.6,0.9,3,0.9c1,0,1.9-0.1,2.9-0.3v6.4
		c-1.9,0.5-3.7,0.8-5.5,0.8c-6.4,0-9.6-3.5-9.6-10.6v-21h-6.1v-6.2h6.1v-9L213.3,42.8L213.3,42.8z"/>
	<path d="M223.6,69.9c0-3.6,0.7-6.9,2.2-9.8s3.5-5.1,6-6.7c2.6-1.6,5.6-2.3,9-2.3c5,0,9,1.6,12.2,4.8c3.2,3.2,4.8,7.5,5,12.8v1.9
		c0,3.6-0.7,6.9-2.1,9.8s-3.4,5.1-6,6.7s-5.6,2.4-9,2.4c-5.2,0-9.4-1.7-12.5-5.2s-4.7-8.1-4.7-13.9L223.6,69.9L223.6,69.9z
		 M231.9,70.6c0,3.8,0.8,6.8,2.4,8.9s3.8,3.2,6.6,3.2s5-1.1,6.5-3.3s2.3-5.4,2.3-9.6c0-3.7-0.8-6.7-2.4-8.9s-3.8-3.3-6.5-3.3
		s-4.9,1.1-6.5,3.2C232.7,63.1,231.9,66.3,231.9,70.6z"/>
</g>
<g>
	<path d="M38.8,139.5v-24.9h7c2.2,0,4.1,0.5,5.7,1.4c1.7,1,2.9,2.3,3.9,4.1c0.9,1.8,1.4,3.8,1.4,6.1v1.6c0,2.3-0.5,4.4-1.4,6.2
		s-2.2,3.1-3.9,4.1c-1.7,0.9-3.6,1.4-5.9,1.5h-6.8V139.5z M42,117.3v19.5h3.5c2.5,0,4.5-0.8,5.9-2.4c1.4-1.6,2.1-3.8,2.1-6.7v-1.5
		c0-2.8-0.7-5-2-6.6s-3.2-2.4-5.6-2.4L42,117.3L42,117.3z"/>
	<path d="M68.9,139.9c-2.5,0-4.5-0.8-6.1-2.5c-1.6-1.6-2.4-3.8-2.4-6.6v-0.6c0-1.8,0.4-3.5,1.1-4.9c0.7-1.4,1.7-2.6,2.9-3.4
		c1.3-0.8,2.6-1.2,4.1-1.2c2.4,0,4.3,0.8,5.6,2.4c1.3,1.6,2,3.9,2,6.8v1.3H63.6c0,1.8,0.6,3.3,1.6,4.4s2.3,1.7,3.9,1.7
		c1.1,0,2.1-0.2,2.8-0.7c0.8-0.5,1.5-1.1,2-1.8l1.9,1.5C74.3,138.7,72,139.9,68.9,139.9z M68.5,123.3c-1.3,0-2.3,0.5-3.2,1.4
		c-0.9,0.9-1.4,2.2-1.6,3.9H73v-0.2c-0.1-1.6-0.5-2.9-1.3-3.7C70.9,123.7,69.8,123.3,68.5,123.3z"/>
	<path d="M90.5,134.6c0-0.9-0.3-1.5-1-2s-1.8-0.9-3.4-1.2s-2.9-0.8-3.8-1.2c-0.9-0.5-1.6-1-2.1-1.7c-0.5-0.7-0.7-1.4-0.7-2.4
		c0-1.5,0.6-2.8,1.9-3.8s2.9-1.6,4.9-1.6c2.1,0,3.8,0.5,5.1,1.6c1.3,1.1,2,2.5,2,4.2h-3.2c0-0.9-0.4-1.6-1.1-2.2s-1.7-0.9-2.8-0.9
		c-1.2,0-2.1,0.3-2.7,0.8s-1,1.2-1,2s0.3,1.3,0.9,1.7c0.6,0.4,1.7,0.8,3.3,1.1c1.6,0.4,2.9,0.8,3.8,1.3c1,0.5,1.7,1.1,2.2,1.8
		s0.7,1.5,0.7,2.5c0,1.7-0.7,3-2,4s-3,1.5-5.1,1.5c-1.5,0-2.8-0.3-3.9-0.8s-2-1.3-2.7-2.2c-0.6-0.9-1-2-1-3.1H82
		c0.1,1.1,0.5,1.9,1.3,2.5s1.8,0.9,3.1,0.9c1.2,0,2.2-0.2,2.9-0.7C90.2,136.1,90.5,135.4,90.5,134.6z"/>
	<path d="M97.8,116.1c0-0.5,0.2-0.9,0.5-1.3s0.8-0.5,1.4-0.5s1.1,0.2,1.4,0.5c0.3,0.4,0.5,0.8,0.5,1.3s-0.2,0.9-0.5,1.3
		c-0.3,0.3-0.8,0.5-1.4,0.5s-1.1-0.2-1.4-0.5S97.8,116.7,97.8,116.1z M101.2,139.5H98V121h3.2V139.5z"/>
	<path d="M105.5,130.1c0-2.9,0.7-5.2,2-6.9c1.3-1.7,3.1-2.6,5.3-2.6c2.3,0,4,0.8,5.3,2.4l0.2-2.1h2.9v18c0,2.4-0.7,4.3-2.1,5.7
		s-3.3,2.1-5.7,2.1c-1.3,0-2.6-0.3-3.9-0.9c-1.3-0.6-2.3-1.4-2.9-2.3l1.6-1.9c1.4,1.7,3,2.5,5,2.5c1.5,0,2.7-0.4,3.6-1.3
		c0.9-0.9,1.3-2.1,1.3-3.7v-1.6c-1.3,1.5-3,2.2-5.2,2.2s-3.9-0.9-5.3-2.6S105.5,133.1,105.5,130.1z M108.7,130.5
		c0,2.1,0.4,3.7,1.3,4.9s2.1,1.8,3.6,1.8c2,0,3.5-0.9,4.4-2.7V126c-1-1.8-2.4-2.6-4.4-2.6c-1.5,0-2.7,0.6-3.6,1.8
		C109.2,126.4,108.7,128.1,108.7,130.5z"/>
	<path d="M128.9,121l0.1,2.3c1.4-1.8,3.3-2.7,5.5-2.7c3.9,0,5.9,2.2,5.9,6.6v12.2h-3.2v-12.2c0-1.3-0.3-2.3-0.9-3
		c-0.6-0.6-1.5-1-2.8-1c-1,0-1.9,0.3-2.7,0.8s-1.4,1.3-1.8,2.2v13.2h-3.2V121H128.9z"/>
	<path d="M158.6,114.7l8.1,20.3l8.1-20.3h4.3v24.9h-3.3v-9.7l0.3-10.5l-8.2,20.1h-2.5l-8.2-20.1l0.3,10.4v9.7h-3.3v-24.9
		L158.6,114.7L158.6,114.7z"/>
	<path d="M195.9,139.5c-0.2-0.4-0.3-1-0.4-1.9c-1.5,1.5-3.2,2.3-5.3,2.3c-1.8,0-3.3-0.5-4.5-1.5s-1.8-2.3-1.8-3.9
		c0-1.9,0.7-3.4,2.2-4.5s3.5-1.6,6.2-1.6h3.1v-1.5c0-1.1-0.3-2-1-2.6c-0.7-0.7-1.6-1-2.9-1c-1.1,0-2.1,0.3-2.8,0.9
		c-0.8,0.6-1.1,1.3-1.1,2.1h-3.2c0-0.9,0.3-1.8,1-2.7c0.7-0.9,1.5-1.5,2.7-2c1.1-0.5,2.4-0.8,3.7-0.8c2.1,0,3.8,0.5,5,1.6
		s1.8,2.5,1.9,4.4v8.5c0,1.7,0.2,3,0.6,4.1v0.3h-3.4V139.5z M190.6,137.1c1,0,1.9-0.3,2.8-0.8s1.5-1.2,1.9-2v-3.8h-2.5
		c-3.9,0-5.8,1.1-5.8,3.4c0,1,0.3,1.8,1,2.3C188.7,136.8,189.6,137.1,190.6,137.1z"/>
	<path d="M207.8,116.6v4.5h3.5v2.4h-3.5V135c0,0.7,0.2,1.3,0.5,1.7s0.8,0.6,1.6,0.6c0.4,0,0.9-0.1,1.5-0.2v2.5
		c-0.8,0.2-1.6,0.3-2.4,0.3c-1.4,0-2.5-0.4-3.2-1.3s-1.1-2.1-1.1-3.6v-11.5h-3.4V121h3.4v-4.5L207.8,116.6L207.8,116.6z"/>
	<path d="M219.2,116.6v4.5h3.5v2.4h-3.5V135c0,0.7,0.2,1.3,0.5,1.7s0.8,0.6,1.6,0.6c0.4,0,0.9-0.1,1.5-0.2v2.5
		c-0.8,0.2-1.6,0.3-2.4,0.3c-1.4,0-2.5-0.4-3.2-1.3s-1.1-2.1-1.1-3.6v-11.5h-3.4V121h3.4v-4.5L219.2,116.6L219.2,116.6z"/>
	<path d="M234,139.9c-2.5,0-4.5-0.8-6.1-2.5c-1.6-1.6-2.4-3.8-2.4-6.6v-0.6c0-1.8,0.3-3.5,1.1-4.9c0.7-1.4,1.7-2.6,2.9-3.4
		c1.3-0.8,2.6-1.2,4.1-1.2c2.4,0,4.3,0.8,5.6,2.4s2,3.9,2,6.8v1.3h-12.5c0,1.8,0.6,3.3,1.6,4.4s2.3,1.7,3.9,1.7
		c1.1,0,2.1-0.2,2.8-0.7c0.8-0.5,1.5-1.1,2-1.8l1.9,1.5C239.5,138.7,237.1,139.9,234,139.9z M233.6,123.3c-1.3,0-2.3,0.5-3.2,1.4
		s-1.4,2.2-1.6,3.9h9.3v-0.2c-0.1-1.6-0.5-2.9-1.3-3.7C236,123.7,235,123.3,233.6,123.3z"/>
	<path d="M253.8,123.9c-0.5-0.1-1-0.1-1.6-0.1c-2.1,0-3.5,0.9-4.2,2.6v13.1h-3.2V121h3.1l0.1,2.1c1-1.7,2.5-2.5,4.4-2.5
		c0.6,0,1.1,0.1,1.4,0.2V123.9z"/>
	<path d="M267.5,134.6c0-0.9-0.3-1.5-1-2s-1.8-0.9-3.4-1.2s-2.9-0.8-3.8-1.2c-0.9-0.5-1.6-1-2.1-1.7c-0.5-0.7-0.7-1.4-0.7-2.4
		c0-1.5,0.6-2.8,1.9-3.8s2.9-1.6,4.9-1.6c2.1,0,3.8,0.5,5.1,1.6c1.3,1.1,2,2.5,2,4.2h-3.2c0-0.9-0.4-1.6-1.1-2.2s-1.7-0.9-2.8-0.9
		c-1.2,0-2.1,0.3-2.7,0.8s-1,1.2-1,2s0.3,1.3,0.9,1.7c0.6,0.4,1.7,0.8,3.3,1.1c1.6,0.4,2.9,0.8,3.8,1.3c1,0.5,1.7,1.1,2.2,1.8
		s0.7,1.5,0.7,2.5c0,1.7-0.7,3-2,4s-3,1.5-5.1,1.5c-1.5,0-2.8-0.3-3.9-0.8s-2-1.3-2.7-2.2c-0.6-0.9-1-2-1-3.1h3.2
		c0.1,1.1,0.5,1.9,1.3,2.5s1.8,0.9,3.1,0.9c1.2,0,2.2-0.2,2.9-0.7S267.5,135.4,267.5,134.6z"/>
</g>
<g>
	<path d="M38.6,191.7h6.3v0.9h-7.4v-12.8h1.1C38.6,179.8,38.6,191.7,38.6,191.7z"/>
	<path d="M46.1,187.7c0-0.9,0.2-1.7,0.5-2.5s0.9-1.3,1.5-1.7s1.4-0.6,2.2-0.6c1.3,0,2.3,0.4,3.1,1.3c0.8,0.9,1.2,2.1,1.2,3.5v0.2
		c0,0.9-0.2,1.7-0.5,2.5c-0.4,0.7-0.9,1.3-1.5,1.7s-1.4,0.6-2.2,0.6c-1.3,0-2.3-0.4-3.1-1.3c-0.8-0.9-1.2-2.1-1.2-3.5V187.7z
		 M47.2,188c0,1.1,0.3,2.1,0.9,2.8c0.6,0.7,1.4,1.1,2.3,1.1c0.9,0,1.7-0.4,2.3-1.1c0.6-0.7,0.9-1.7,0.9-2.9v-0.2
		c0-0.7-0.1-1.4-0.4-2s-0.6-1.1-1.1-1.4c-0.5-0.3-1-0.5-1.7-0.5c-0.9,0-1.7,0.4-2.3,1.1s-0.9,1.7-0.9,2.9V188z"/>
	<path d="M61.2,184c-0.2,0-0.5-0.1-0.7-0.1c-0.7,0-1.2,0.2-1.7,0.5s-0.8,0.9-1,1.6v6.5h-1V183h1v1.5c0.6-1.1,1.5-1.7,2.7-1.7
		c0.3,0,0.5,0,0.7,0.1V184z"/>
	<path d="M66.4,192.8c-0.8,0-1.5-0.2-2.2-0.6s-1.2-1-1.5-1.7c-0.4-0.7-0.5-1.5-0.5-2.4v-0.4c0-0.9,0.2-1.7,0.5-2.5s0.8-1.3,1.5-1.7
		c0.7-0.4,1.3-0.6,2.1-0.6c1.2,0,2.1,0.4,2.7,1.2c0.7,0.8,1,1.9,1,3.2v0.6h-6.8v0.2c0,1.1,0.3,2,0.9,2.7s1.4,1.1,2.3,1.1
		c0.6,0,1.1-0.1,1.5-0.3s0.8-0.5,1.2-1l0.7,0.5C69,192.2,67.8,192.8,66.4,192.8z M66.2,183.8c-0.8,0-1.5,0.3-2,0.9s-0.9,1.4-1,2.3
		h5.7v-0.1c0-0.9-0.3-1.7-0.8-2.2S67,183.8,66.2,183.8z"/>
	<path d="M72.9,183.1v1.5c0.4-0.6,0.8-1,1.3-1.3s1.1-0.4,1.8-0.4c1.5,0,2.5,0.6,2.9,1.8c0.3-0.6,0.8-1,1.4-1.4
		c0.6-0.3,1.2-0.5,1.9-0.5c2,0,3.1,1.1,3.1,3.3v6.3h-1.1v-6.3c0-0.8-0.2-1.5-0.5-1.9s-0.9-0.6-1.8-0.6c-0.8,0-1.4,0.3-1.9,0.7
		s-0.8,1.1-0.9,1.7v6.3H78V186c0-0.8-0.2-1.4-0.6-1.8c-0.4-0.4-1-0.6-1.7-0.6s-1.2,0.2-1.7,0.6c-0.5,0.4-0.8,0.9-1.1,1.7v6.5h-1.1
		v-9.5h1.1C72.9,182.9,72.9,183.1,72.9,183.1z"/>
	<path d="M92.3,180.3c0-0.2,0.1-0.4,0.2-0.5s0.3-0.2,0.5-0.2s0.4,0.1,0.5,0.2s0.2,0.3,0.2,0.5s-0.1,0.4-0.2,0.5S93.2,181,93,181
		s-0.4-0.1-0.5-0.2C92.3,180.7,92.3,180.5,92.3,180.3z M93.5,192.6h-1.1v-9.5h1.1V192.6z"/>
	<path d="M104,187.9c0,1.5-0.3,2.7-1,3.5c-0.7,0.9-1.5,1.3-2.6,1.3c-1.3,0-2.3-0.5-3-1.4v4.9h-1V183h1l0.1,1.3c0.7-1,1.7-1.5,3-1.5
		c1.1,0,2,0.4,2.7,1.3s1,2.1,1,3.6v0.2L104,187.9L104,187.9z M102.9,187.7c0-1.2-0.2-2.2-0.7-2.9s-1.2-1.1-2.1-1.1
		c-0.6,0-1.2,0.2-1.7,0.5s-0.8,0.8-1.1,1.4v4.6c0.3,0.5,0.6,1,1.1,1.2s1,0.4,1.7,0.4c0.9,0,1.6-0.4,2.1-1.1
		C102.7,190.1,102.9,189.1,102.9,187.7z"/>
	<path d="M112,190.2c0-0.5-0.2-0.9-0.6-1.3s-1.1-0.6-1.9-0.7s-1.5-0.4-2-0.6s-0.8-0.5-1-0.8s-0.3-0.7-0.3-1.2c0-0.8,0.3-1.4,0.9-1.9
		s1.4-0.7,2.4-0.7c1.1,0,1.9,0.3,2.6,0.8s1,1.2,1,2.1H112c0-0.6-0.2-1-0.7-1.4s-1.1-0.6-1.8-0.6c-0.7,0-1.2,0.2-1.7,0.5
		c-0.4,0.3-0.6,0.7-0.6,1.2s0.2,0.8,0.5,1.1s1,0.5,1.9,0.7s1.6,0.4,2.1,0.7s0.8,0.5,1,0.9s0.3,0.8,0.3,1.3c0,0.8-0.3,1.4-1,1.9
		s-1.5,0.7-2.5,0.7c-1.1,0-2-0.3-2.7-0.8s-1-1.2-1-2h1.1c0,0.6,0.3,1.1,0.8,1.4c0.5,0.3,1.1,0.5,1.9,0.5c0.7,0,1.3-0.2,1.8-0.5
		S112,190.7,112,190.2z"/>
	<path d="M121.6,191.4c-0.6,0.9-1.6,1.4-3,1.4c-1,0-1.8-0.3-2.3-0.9c-0.5-0.6-0.8-1.5-0.8-2.6v-6.2h1v6.1c0,1.8,0.7,2.7,2.2,2.7
		s2.5-0.6,2.9-1.9v-6.9h1.1v9.5h-1L121.6,191.4z"/>
	<path d="M126.3,183.1v1.5c0.4-0.6,0.8-1,1.3-1.3s1.1-0.4,1.8-0.4c1.5,0,2.5,0.6,2.9,1.8c0.3-0.6,0.8-1,1.4-1.4
		c0.6-0.3,1.2-0.5,1.9-0.5c2,0,3.1,1.1,3.1,3.3v6.3h-1.1v-6.3c0-0.8-0.2-1.5-0.5-1.9s-0.9-0.6-1.8-0.6c-0.8,0-1.4,0.3-1.9,0.7
		s-0.8,1.1-0.9,1.7v6.3h-1.1V186c0-0.8-0.2-1.4-0.6-1.8c-0.4-0.4-1-0.6-1.7-0.6s-1.2,0.2-1.7,0.6c-0.5,0.4-0.8,0.9-1.1,1.7v6.5h-1.1
		v-9.5h1.1C126.3,182.9,126.3,183.1,126.3,183.1z"/>
	<path d="M145.2,187.7c0-1.5,0.3-2.7,1-3.5s1.6-1.3,2.7-1.3c1.3,0,2.3,0.5,2.9,1.5v-5.3h1v13.5h-1v-1.3c-0.7,1-1.7,1.4-3,1.4
		c-1.1,0-2-0.4-2.6-1.3S145.2,189.3,145.2,187.7L145.2,187.7L145.2,187.7z M146.3,187.9c0,1.2,0.2,2.2,0.7,2.9s1.2,1.1,2.1,1.1
		c1.3,0,2.2-0.6,2.8-1.7v-4.5c-0.5-1.2-1.5-1.9-2.7-1.9c-0.9,0-1.6,0.3-2.1,1C146.5,185.5,146.3,186.6,146.3,187.9z"/>
	<path d="M155.1,187.7c0-0.9,0.2-1.7,0.5-2.5s0.9-1.3,1.5-1.7s1.4-0.6,2.2-0.6c1.3,0,2.3,0.4,3.1,1.3c0.8,0.9,1.2,2.1,1.2,3.5v0.2
		c0,0.9-0.2,1.7-0.5,2.5c-0.4,0.7-0.9,1.3-1.5,1.7s-1.4,0.6-2.2,0.6c-1.3,0-2.3-0.4-3.1-1.3c-0.8-0.9-1.2-2.1-1.2-3.5V187.7z
		 M156.1,188c0,1.1,0.3,2.1,0.9,2.8c0.6,0.7,1.4,1.1,2.3,1.1c0.9,0,1.7-0.4,2.3-1.1c0.6-0.7,0.9-1.7,0.9-2.9v-0.2
		c0-0.7-0.1-1.4-0.4-2s-0.6-1.1-1.1-1.4c-0.5-0.3-1-0.5-1.7-0.5c-0.9,0-1.7,0.4-2.3,1.1s-0.9,1.7-0.9,2.9V188z"/>
	<path d="M166.9,192.6h-1.1v-13.5h1.1V192.6z"/>
	<path d="M169.2,187.7c0-0.9,0.2-1.7,0.5-2.5s0.9-1.3,1.5-1.7s1.4-0.6,2.2-0.6c1.3,0,2.3,0.4,3.1,1.3c0.8,0.9,1.2,2.1,1.2,3.5v0.2
		c0,0.9-0.2,1.7-0.5,2.5c-0.4,0.7-0.9,1.3-1.5,1.7s-1.4,0.6-2.2,0.6c-1.3,0-2.3-0.4-3.1-1.3c-0.8-0.9-1.2-2.1-1.2-3.5V187.7z
		 M170.3,188c0,1.1,0.3,2.1,0.9,2.8c0.6,0.7,1.4,1.1,2.3,1.1c0.9,0,1.7-0.4,2.3-1.1c0.6-0.7,0.9-1.7,0.9-2.9v-0.2
		c0-0.7-0.1-1.4-0.4-2s-0.6-1.1-1.1-1.4c-0.5-0.3-1-0.5-1.7-0.5c-0.9,0-1.7,0.4-2.3,1.1s-0.9,1.7-0.9,2.9V188z"/>
	<path d="M184.3,184c-0.2,0-0.5-0.1-0.7-0.1c-0.7,0-1.2,0.2-1.7,0.5s-0.8,0.9-1,1.6v6.5h-1V183h1v1.5c0.6-1.1,1.5-1.7,2.7-1.7
		c0.3,0,0.5,0,0.7,0.1V184z"/>
	<path d="M196,190.2c0-0.5-0.2-0.9-0.6-1.3s-1-0.6-1.9-0.7s-1.5-0.4-2-0.6s-0.8-0.5-1-0.8s-0.3-0.7-0.3-1.2c0-0.8,0.3-1.4,0.9-1.9
		s1.4-0.7,2.4-0.7c1.1,0,1.9,0.3,2.6,0.8s1,1.2,1,2.1H196c0-0.6-0.2-1-0.7-1.4s-1.1-0.6-1.8-0.6s-1.2,0.2-1.7,0.5
		c-0.4,0.3-0.6,0.7-0.6,1.2s0.2,0.8,0.5,1.1s1,0.5,1.9,0.7s1.6,0.4,2.1,0.7s0.8,0.5,1,0.9s0.3,0.8,0.3,1.3c0,0.8-0.3,1.4-1,1.9
		s-1.5,0.7-2.5,0.7c-1.1,0-2-0.3-2.7-0.8s-1-1.2-1-2h1.1c0,0.6,0.3,1.1,0.8,1.4c0.5,0.3,1.1,0.5,1.9,0.5c0.7,0,1.3-0.2,1.8-0.5
		S196,190.7,196,190.2z"/>
	<path d="M199.3,180.3c0-0.2,0.1-0.4,0.2-0.5s0.3-0.2,0.5-0.2s0.4,0.1,0.5,0.2s0.2,0.3,0.2,0.5s-0.1,0.4-0.2,0.5
		c-0.1,0.1-0.3,0.2-0.5,0.2s-0.4-0.1-0.5-0.2C199.4,180.7,199.3,180.5,199.3,180.3z M200.6,192.6h-1.1v-9.5h1.1V192.6z"/>
	<path d="M205.1,180.6v2.4h2v0.9h-2v6.3c0,0.5,0.1,0.9,0.3,1.2s0.5,0.4,1,0.4c0.2,0,0.5,0,0.9-0.1v0.9c-0.3,0.1-0.7,0.1-1.1,0.1
		c-0.7,0-1.2-0.2-1.6-0.6c-0.3-0.4-0.5-1-0.5-1.8V184h-1.7v-0.9h1.7v-2.4L205.1,180.6L205.1,180.6z"/>
	<path d="M219.6,192.6c-0.1-0.3-0.2-0.7-0.2-1.3c-0.4,0.5-0.8,0.9-1.4,1.1c-0.6,0.3-1.2,0.4-1.8,0.4c-0.9,0-1.7-0.3-2.2-0.8
		s-0.8-1.2-0.8-1.9c0-0.9,0.4-1.7,1.2-2.2s1.8-0.8,3.2-0.8h1.9V186c0-0.7-0.2-1.2-0.6-1.6s-1-0.6-1.8-0.6c-0.7,0-1.3,0.2-1.8,0.6
		s-0.7,0.8-0.7,1.4h-1.1c0-0.8,0.4-1.4,1.1-2c0.7-0.6,1.6-0.8,2.6-0.8c1.1,0,1.9,0.3,2.5,0.8s0.9,1.3,0.9,2.2v4.5
		c0,0.9,0.1,1.6,0.3,2.1v0.1L219.6,192.6L219.6,192.6z M216.3,191.8c0.7,0,1.3-0.2,1.9-0.5s1-0.8,1.2-1.4v-2.1h-1.9
		c-1,0-1.9,0.2-2.5,0.6c-0.6,0.4-0.9,0.9-0.9,1.5c0,0.5,0.2,1,0.6,1.3S215.7,191.8,216.3,191.8z"/>
	<path d="M224.2,183.1v1.5c0.4-0.6,0.8-1,1.3-1.3s1.1-0.4,1.8-0.4c1.5,0,2.5,0.6,2.9,1.8c0.3-0.6,0.8-1,1.4-1.4
		c0.6-0.3,1.2-0.5,1.9-0.5c2,0,3.1,1.1,3.1,3.3v6.3h-1.1v-6.3c0-0.8-0.2-1.5-0.5-1.9s-0.9-0.6-1.8-0.6c-0.8,0-1.4,0.3-1.9,0.7
		s-0.8,1.1-0.9,1.7v6.3h-1.1V186c0-0.8-0.2-1.4-0.6-1.8c-0.4-0.4-1-0.6-1.7-0.6s-1.2,0.2-1.7,0.6c-0.5,0.4-0.8,0.9-1.1,1.7v6.5h-1.1
		v-9.5h1.1L224.2,183.1L224.2,183.1z"/>
	<path d="M242.9,192.8c-0.8,0-1.5-0.2-2.2-0.6s-1.2-1-1.5-1.7c-0.4-0.7-0.5-1.5-0.5-2.4v-0.4c0-0.9,0.2-1.7,0.5-2.5s0.8-1.3,1.5-1.7
		s1.3-0.6,2.1-0.6c1.2,0,2.1,0.4,2.7,1.2c0.7,0.8,1,1.9,1,3.2v0.6h-6.8v0.2c0,1.1,0.3,2,0.9,2.7c0.6,0.7,1.4,1.1,2.3,1.1
		c0.6,0,1.1-0.1,1.5-0.3s0.8-0.5,1.2-1l0.7,0.5C245.5,192.2,244.3,192.8,242.9,192.8z M242.7,183.8c-0.8,0-1.5,0.3-2,0.9
		s-0.9,1.4-1,2.3h5.7v-0.1c0-0.9-0.3-1.7-0.8-2.2S243.5,183.8,242.7,183.8z"/>
	<path d="M250.1,180.6v2.4h2v0.9h-2v6.3c0,0.5,0.1,0.9,0.3,1.2s0.5,0.4,1,0.4c0.2,0,0.5,0,0.9-0.1v0.9c-0.3,0.1-0.7,0.1-1.1,0.1
		c-0.7,0-1.2-0.2-1.6-0.6c-0.3-0.4-0.5-1-0.5-1.8V184h-1.7v-0.9h1.7v-2.4L250.1,180.6L250.1,180.6z"/>
	<path d="M254.1,195l-0.6-0.5c0.5-0.7,0.8-1.5,0.8-2.2v-1.4h1v1.1C255.3,193.2,254.9,194.2,254.1,195z"/>
	<path d="M40.8,213.5c0.7,0,1.3-0.2,1.8-0.6c0.5-0.4,0.8-0.9,0.8-1.6h1c0,0.6-0.2,1.1-0.5,1.6s-0.8,0.9-1.3,1.1s-1.1,0.4-1.8,0.4
		c-1.2,0-2.2-0.4-3-1.3s-1.1-2-1.1-3.5v-0.3c0-0.9,0.2-1.8,0.5-2.5s0.8-1.3,1.4-1.7s1.3-0.6,2.1-0.6c1,0,1.9,0.3,2.6,0.9
		s1,1.4,1.1,2.5h-1c0-0.7-0.3-1.3-0.8-1.8s-1.1-0.7-1.9-0.7c-0.9,0-1.7,0.3-2.2,1s-0.8,1.6-0.8,2.9v0.3c0,1.2,0.3,2.2,0.8,2.8
		S39.8,213.5,40.8,213.5z"/>
	<path d="M45.9,209.3c0-0.9,0.2-1.7,0.5-2.5s0.9-1.3,1.5-1.7s1.4-0.6,2.2-0.6c1.3,0,2.3,0.4,3.1,1.3c0.8,0.9,1.2,2.1,1.2,3.5v0.2
		c0,0.9-0.2,1.7-0.5,2.5c-0.4,0.7-0.9,1.3-1.5,1.7s-1.4,0.6-2.2,0.6c-1.3,0-2.3-0.4-3.1-1.3c-0.8-0.9-1.2-2.1-1.2-3.5V209.3z
		 M47,209.6c0,1.1,0.3,2.1,0.9,2.8c0.6,0.7,1.4,1.1,2.3,1.1c0.9,0,1.7-0.4,2.3-1.1c0.6-0.7,0.9-1.7,0.9-2.9v-0.2
		c0-0.7-0.1-1.4-0.4-2s-0.6-1.1-1.1-1.4c-0.5-0.3-1-0.5-1.7-0.5c-0.9,0-1.7,0.4-2.3,1.1s-0.9,1.7-0.9,2.9V209.6z"/>
	<path d="M57.6,204.7v1.6c0.4-0.6,0.8-1,1.3-1.3s1.1-0.5,1.8-0.5c1,0,1.8,0.3,2.3,0.9s0.8,1.4,0.8,2.6v6.2h-1V208
		c0-0.8-0.2-1.5-0.5-1.9s-0.9-0.6-1.7-0.6c-0.7,0-1.2,0.2-1.7,0.6s-0.9,1-1.1,1.6v6.5h-1v-9.5L57.6,204.7L57.6,204.7z"/>
	<path d="M72.2,211.8c0-0.5-0.2-0.9-0.6-1.3s-1.1-0.6-1.9-0.7s-1.5-0.4-2-0.6s-0.8-0.5-1-0.8s-0.3-0.7-0.3-1.2
		c0-0.8,0.3-1.4,0.9-1.9s1.4-0.7,2.4-0.7c1.1,0,1.9,0.3,2.6,0.8s1,1.2,1,2.1h-1.1c0-0.6-0.2-1-0.7-1.4s-1.1-0.6-1.8-0.6
		c-0.7,0-1.2,0.2-1.7,0.5c-0.4,0.3-0.6,0.7-0.6,1.2s0.2,0.8,0.5,1.1s1,0.5,1.9,0.7s1.6,0.4,2.1,0.7s0.8,0.5,1,0.9s0.3,0.8,0.3,1.3
		c0,0.8-0.3,1.4-1,1.9s-1.5,0.7-2.5,0.7c-1.1,0-2-0.3-2.7-0.8s-1-1.2-1-2h1c0,0.6,0.3,1.1,0.8,1.4c0.5,0.3,1.1,0.5,1.9,0.5
		c0.7,0,1.3-0.2,1.8-0.5S72.2,212.3,72.2,211.8z"/>
	<path d="M79.3,214.4c-0.8,0-1.5-0.2-2.2-0.6s-1.2-1-1.5-1.7c-0.4-0.7-0.5-1.5-0.5-2.4v-0.4c0-0.9,0.2-1.7,0.5-2.5s0.8-1.3,1.5-1.7
		s1.3-0.6,2.1-0.6c1.2,0,2.1,0.4,2.7,1.2c0.7,0.8,1,1.9,1,3.2v0.6h-6.8v0.2c0,1.1,0.3,2,0.9,2.7s1.4,1.1,2.3,1.1
		c0.6,0,1.1-0.1,1.5-0.3s0.8-0.5,1.2-1l0.7,0.5C81.9,213.8,80.7,214.4,79.3,214.4z M79.1,205.4c-0.8,0-1.5,0.3-2,0.9s-0.9,1.4-1,2.3
		h5.7v-0.1c0-0.9-0.3-1.7-0.8-2.2S79.9,205.4,79.1,205.4z"/>
	<path d="M86.5,202.2v2.4h2v0.9h-2v6.3c0,0.5,0.1,0.9,0.3,1.2c0.2,0.3,0.5,0.4,1,0.4c0.2,0,0.5,0,0.9-0.1v0.9
		c-0.3,0.1-0.7,0.1-1.1,0.1c-0.7,0-1.2-0.2-1.6-0.6c-0.3-0.4-0.5-1-0.5-1.8v-6.3h-1.7v-0.9h1.7v-2.4L86.5,202.2L86.5,202.2z"/>
	<path d="M94.4,214.4c-0.8,0-1.5-0.2-2.2-0.6s-1.2-1-1.5-1.7c-0.4-0.7-0.5-1.5-0.5-2.4v-0.4c0-0.9,0.2-1.7,0.5-2.5s0.8-1.3,1.5-1.7
		s1.3-0.6,2.1-0.6c1.2,0,2.1,0.4,2.7,1.2c0.7,0.8,1,1.9,1,3.2v0.6h-6.8v0.2c0,1.1,0.3,2,0.9,2.7s1.4,1.1,2.3,1.1
		c0.6,0,1.1-0.1,1.5-0.3s0.8-0.5,1.2-1l0.7,0.5C96.9,213.8,95.8,214.4,94.4,214.4z M94.2,205.4c-0.8,0-1.5,0.3-2,0.9s-0.9,1.4-1,2.3
		h5.7v-0.1c0-0.9-0.3-1.7-0.8-2.2S95,205.4,94.2,205.4z"/>
	<path d="M101.6,202.2v2.4h2v0.9h-2v6.3c0,0.5,0.1,0.9,0.3,1.2c0.2,0.3,0.5,0.4,1,0.4c0.2,0,0.5,0,0.9-0.1v0.9
		c-0.3,0.1-0.7,0.1-1.1,0.1c-0.7,0-1.2-0.2-1.6-0.6c-0.3-0.4-0.5-1-0.5-1.8v-6.3h-1.7v-0.9h1.7v-2.4L101.6,202.2L101.6,202.2z"/>
	<path d="M111.9,213c-0.6,0.9-1.6,1.4-3,1.4c-1,0-1.8-0.3-2.3-0.9c-0.5-0.6-0.8-1.5-0.8-2.6v-6.2h1v6.1c0,1.8,0.7,2.7,2.2,2.7
		s2.5-0.6,2.9-1.9v-6.9h1.1v9.5h-1L111.9,213z"/>
	<path d="M120,205.6c-0.2,0-0.5-0.1-0.7-0.1c-0.7,0-1.2,0.2-1.7,0.5s-0.8,0.9-1,1.6v6.5h-1v-9.5h1v1.5c0.6-1.1,1.5-1.7,2.7-1.7
		c0.3,0,0.5,0,0.7,0.1V205.6z"/>
	<path d="M131.8,211.8c0-0.5-0.2-0.9-0.6-1.3s-1.1-0.6-1.9-0.7s-1.5-0.4-2-0.6s-0.8-0.5-1-0.8s-0.3-0.7-0.3-1.2
		c0-0.8,0.3-1.4,0.9-1.9s1.4-0.7,2.4-0.7c1.1,0,1.9,0.3,2.6,0.8s1,1.2,1,2.1h-1.1c0-0.6-0.2-1-0.7-1.4s-1.1-0.6-1.8-0.6
		s-1.2,0.2-1.7,0.5c-0.4,0.3-0.6,0.7-0.6,1.2s0.2,0.8,0.5,1.1s1,0.5,1.9,0.7s1.6,0.4,2.1,0.7s0.8,0.5,1,0.9s0.3,0.8,0.3,1.3
		c0,0.8-0.3,1.4-1,1.9s-1.5,0.7-2.5,0.7c-1.1,0-2-0.3-2.7-0.8s-1-1.2-1-2h1.1c0,0.6,0.3,1.1,0.8,1.4c0.5,0.3,1.1,0.5,1.9,0.5
		c0.7,0,1.3-0.2,1.8-0.5S131.8,212.3,131.8,211.8z"/>
	<path d="M141.2,214.2c-0.1-0.3-0.2-0.7-0.2-1.3c-0.4,0.5-0.8,0.9-1.4,1.1c-0.6,0.3-1.2,0.4-1.8,0.4c-0.9,0-1.7-0.3-2.2-0.8
		s-0.8-1.2-0.8-1.9c0-0.9,0.4-1.7,1.2-2.2s1.8-0.8,3.2-0.8h1.9v-1.1c0-0.7-0.2-1.2-0.6-1.6s-1-0.6-1.8-0.6c-0.7,0-1.3,0.2-1.8,0.6
		s-0.7,0.8-0.7,1.4h-1.1c0-0.8,0.4-1.4,1.1-2c0.7-0.6,1.6-0.8,2.6-0.8c1.1,0,1.9,0.3,2.5,0.8s0.9,1.3,0.9,2.2v4.5
		c0,0.9,0.1,1.6,0.3,2.1v0.1L141.2,214.2L141.2,214.2z M137.9,213.4c0.7,0,1.3-0.2,1.9-0.5s1-0.8,1.2-1.4v-2.1h-1.9
		c-1,0-1.9,0.2-2.5,0.6c-0.6,0.4-0.9,0.9-0.9,1.5c0,0.5,0.2,1,0.6,1.3S137.3,213.4,137.9,213.4z"/>
	<path d="M144.4,209.3c0-1.5,0.3-2.7,1-3.5s1.6-1.3,2.7-1.3c1.3,0,2.3,0.5,2.9,1.5v-5.3h1v13.5h-1v-1.3c-0.7,1-1.7,1.4-3,1.4
		c-1.1,0-2-0.4-2.6-1.3S144.4,210.9,144.4,209.3L144.4,209.3L144.4,209.3z M145.5,209.5c0,1.2,0.2,2.2,0.7,2.9s1.2,1.1,2.1,1.1
		c1.3,0,2.2-0.6,2.8-1.7v-4.5c-0.5-1.2-1.5-1.9-2.7-1.9c-0.9,0-1.6,0.3-2.1,1C145.7,207.1,145.5,208.2,145.5,209.5z"/>
	<path d="M154.8,201.9c0-0.2,0.1-0.4,0.2-0.5s0.3-0.2,0.5-0.2s0.4,0.1,0.5,0.2s0.2,0.3,0.2,0.5s-0.1,0.4-0.2,0.5
		c-0.1,0.1-0.3,0.2-0.5,0.2s-0.4-0.1-0.5-0.2C154.8,202.3,154.8,202.1,154.8,201.9z M156,214.2h-1v-9.5h1.1v9.5H156z"/>
	<path d="M166.5,209.5c0,1.5-0.3,2.7-1,3.5c-0.7,0.9-1.5,1.3-2.6,1.3c-1.3,0-2.3-0.5-3-1.4v4.9h-1v-13.2h1l0.1,1.3
		c0.7-1,1.7-1.5,3-1.5c1.1,0,2,0.4,2.7,1.3s1,2.1,1,3.6v0.2L166.5,209.5L166.5,209.5z M165.5,209.3c0-1.2-0.2-2.2-0.7-2.9
		s-1.2-1.1-2.1-1.1c-0.6,0-1.2,0.2-1.7,0.5s-0.8,0.8-1.1,1.4v4.6c0.3,0.5,0.6,1,1.1,1.2s1,0.4,1.7,0.4c0.9,0,1.6-0.4,2.1-1.1
		C165.2,211.7,165.5,210.7,165.5,209.3z"/>
	<path d="M174.5,211.8c0-0.5-0.2-0.9-0.6-1.3s-1.1-0.6-1.9-0.7s-1.5-0.4-2-0.6s-0.8-0.5-1-0.8s-0.3-0.7-0.3-1.2
		c0-0.8,0.3-1.4,0.9-1.9s1.4-0.7,2.4-0.7c1.1,0,1.9,0.3,2.6,0.8s1,1.2,1,2.1h-1.1c0-0.6-0.2-1-0.7-1.4s-1.1-0.6-1.8-0.6
		s-1.2,0.2-1.7,0.5c-0.4,0.3-0.6,0.7-0.6,1.2s0.2,0.8,0.5,1.1s1,0.5,1.9,0.7s1.6,0.4,2.1,0.7s0.8,0.5,1,0.9s0.3,0.8,0.3,1.3
		c0,0.8-0.3,1.4-1,1.9s-1.5,0.7-2.5,0.7c-1.1,0-2-0.3-2.7-0.8s-1-1.2-1-2h1.1c0,0.6,0.3,1.1,0.8,1.4c0.5,0.3,1.1,0.5,1.9,0.5
		c0.7,0,1.3-0.2,1.8-0.5S174.5,212.3,174.5,211.8z"/>
	<path d="M181.5,213.5c0.7,0,1.3-0.2,1.8-0.6c0.5-0.4,0.8-0.9,0.8-1.6h1c0,0.6-0.2,1.1-0.5,1.6s-0.8,0.9-1.3,1.1s-1.1,0.4-1.8,0.4
		c-1.2,0-2.2-0.4-3-1.3s-1.1-2-1.1-3.5v-0.3c0-0.9,0.2-1.8,0.5-2.5s0.8-1.3,1.4-1.7s1.3-0.6,2.1-0.6c1,0,1.9,0.3,2.6,0.9
		s1,1.4,1.1,2.5h-1c0-0.7-0.3-1.3-0.8-1.8s-1.1-0.7-1.9-0.7c-0.9,0-1.7,0.3-2.2,1s-0.8,1.6-0.8,2.9v0.3c0,1.2,0.3,2.2,0.8,2.8
		S180.5,213.5,181.5,213.5z"/>
	<path d="M187.2,201.9c0-0.2,0.1-0.4,0.2-0.5s0.3-0.2,0.5-0.2s0.4,0.1,0.5,0.2s0.2,0.3,0.2,0.5s-0.1,0.4-0.2,0.5
		c-0.1,0.1-0.3,0.2-0.5,0.2s-0.4-0.1-0.5-0.2C187.2,202.3,187.2,202.1,187.2,201.9z M188.4,214.2h-1.1v-9.5h1.1V214.2z"/>
	<path d="M192.3,204.7v1.6c0.4-0.6,0.8-1,1.3-1.3s1.1-0.5,1.8-0.5c1,0,1.8,0.3,2.3,0.9s0.8,1.4,0.8,2.6v6.2h-1V208
		c0-0.8-0.2-1.5-0.5-1.9s-0.9-0.6-1.7-0.6c-0.7,0-1.2,0.2-1.7,0.6s-0.9,1-1.1,1.6v6.5h-1v-9.5L192.3,204.7L192.3,204.7z"/>
	<path d="M200.7,209.3c0-1.5,0.3-2.7,1-3.5c0.7-0.9,1.6-1.3,2.7-1.3c1.3,0,2.3,0.5,3,1.5l0.1-1.4h1v9.3c0,1.2-0.3,2.2-1,2.9
		s-1.6,1.1-2.8,1.1c-0.7,0-1.3-0.1-1.9-0.4s-1.1-0.7-1.4-1.2l0.6-0.6c0.7,0.9,1.6,1.4,2.7,1.4c0.9,0,1.6-0.3,2.1-0.8
		s0.7-1.2,0.8-2.2V213c-0.7,0.9-1.7,1.4-2.9,1.4c-1.1,0-2-0.4-2.7-1.3s-1-2.1-1-3.6v-0.2L200.7,209.3L200.7,209.3z M201.8,209.5
		c0,1.2,0.2,2.2,0.7,2.9s1.2,1.1,2.1,1.1c1.3,0,2.2-0.6,2.8-1.7v-4.4c-0.2-0.6-0.6-1.1-1.1-1.4c-0.5-0.3-1-0.5-1.7-0.5
		c-0.9,0-1.6,0.3-2.1,1C202,207.1,201.8,208.2,201.8,209.5z"/>
	<path d="M219.2,214.4c-0.8,0-1.5-0.2-2.2-0.6s-1.2-1-1.5-1.7c-0.4-0.7-0.5-1.5-0.5-2.4v-0.4c0-0.9,0.2-1.7,0.5-2.5s0.8-1.3,1.5-1.7
		s1.3-0.6,2.1-0.6c1.2,0,2.1,0.4,2.7,1.2c0.7,0.8,1,1.9,1,3.2v0.6H216v0.2c0,1.1,0.3,2,0.9,2.7c0.6,0.7,1.4,1.1,2.3,1.1
		c0.6,0,1.1-0.1,1.5-0.3s0.8-0.5,1.2-1l0.7,0.5C221.8,213.8,220.7,214.4,219.2,214.4z M219,205.4c-0.8,0-1.5,0.3-2,0.9
		s-0.9,1.4-1,2.3h5.7v-0.1c0-0.9-0.3-1.7-0.8-2.2S219.8,205.4,219,205.4z"/>
	<path d="M226,214.2h-1.1v-13.5h1.1V214.2z"/>
	<path d="M228.8,201.9c0-0.2,0.1-0.4,0.2-0.5s0.3-0.2,0.5-0.2s0.4,0.1,0.5,0.2s0.2,0.3,0.2,0.5s-0.1,0.4-0.2,0.5
		c-0.1,0.1-0.3,0.2-0.5,0.2s-0.4-0.1-0.5-0.2S228.8,202.1,228.8,201.9z M230,214.2h-1v-9.5h1.1v9.5H230z"/>
	<path d="M234.5,202.2v2.4h2v0.9h-2v6.3c0,0.5,0.1,0.9,0.3,1.2s0.5,0.4,1,0.4c0.2,0,0.5,0,0.9-0.1v0.9c-0.3,0.1-0.7,0.1-1.1,0.1
		c-0.7,0-1.2-0.2-1.6-0.6c-0.3-0.4-0.5-1-0.5-1.8v-6.3h-1.7v-0.9h1.7v-2.4L234.5,202.2L234.5,202.2z"/>
	<path d="M243.1,205.6c-0.2,0-0.5-0.1-0.7-0.1c-0.7,0-1.2,0.2-1.7,0.5s-0.8,0.9-1,1.6v6.5h-1v-9.5h1v1.5c0.6-1.1,1.5-1.7,2.7-1.7
		c0.3,0,0.5,0,0.7,0.1V205.6z"/>
	<path d="M243.4,216.6l-0.6-0.5c0.5-0.7,0.8-1.5,0.8-2.2v-1.4h1v1.1C244.7,214.8,244.2,215.8,243.4,216.6z"/>
	<path d="M257.2,211.8c0-0.5-0.2-0.9-0.6-1.3s-1-0.6-1.9-0.7s-1.5-0.4-2-0.6s-0.8-0.5-1-0.8s-0.3-0.7-0.3-1.2c0-0.8,0.3-1.4,0.9-1.9
		s1.4-0.7,2.4-0.7c1.1,0,1.9,0.3,2.6,0.8s1,1.2,1,2.1h-1.1c0-0.6-0.2-1-0.7-1.4s-1.1-0.6-1.8-0.6s-1.2,0.2-1.7,0.5
		c-0.4,0.3-0.6,0.7-0.6,1.2s0.2,0.8,0.5,1.1s1,0.5,1.9,0.7s1.6,0.4,2.1,0.7s0.8,0.5,1,0.9s0.3,0.8,0.3,1.3c0,0.8-0.3,1.4-1,1.9
		s-1.5,0.7-2.5,0.7c-1.1,0-2-0.3-2.7-0.8s-1-1.2-1-2h1.1c0,0.6,0.3,1.1,0.8,1.4c0.5,0.3,1.1,0.5,1.9,0.5c0.7,0,1.3-0.2,1.8-0.5
		S257.2,212.3,257.2,211.8z"/>
	<path d="M264.3,214.4c-0.8,0-1.5-0.2-2.2-0.6s-1.2-1-1.5-1.7c-0.4-0.7-0.5-1.5-0.5-2.4v-0.4c0-0.9,0.2-1.7,0.5-2.5s0.8-1.3,1.5-1.7
		s1.3-0.6,2.1-0.6c1.2,0,2.1,0.4,2.7,1.2c0.7,0.8,1,1.9,1,3.2v0.6H261v0.2c0,1.1,0.3,2,0.9,2.7s1.4,1.1,2.3,1.1
		c0.6,0,1.1-0.1,1.5-0.3s0.8-0.5,1.2-1l0.7,0.5C266.9,213.8,265.7,214.4,264.3,214.4z M264.1,205.4c-0.8,0-1.5,0.3-2,0.9
		s-0.9,1.4-1,2.3h5.7v-0.1c0-0.9-0.3-1.7-0.8-2.2S264.9,205.4,264.1,205.4z"/>
	<path d="M269.5,209.3c0-1.5,0.3-2.7,1-3.5s1.6-1.3,2.7-1.3c1.3,0,2.3,0.5,2.9,1.5v-5.3h1v13.5h-1v-1.3c-0.7,1-1.7,1.4-3,1.4
		c-1.1,0-2-0.4-2.7-1.3s-1-2.1-1-3.6v-0.1L269.5,209.3L269.5,209.3z M270.5,209.5c0,1.2,0.2,2.2,0.7,2.9s1.2,1.1,2.1,1.1
		c1.3,0,2.2-0.6,2.8-1.7v-4.5c-0.5-1.2-1.5-1.9-2.7-1.9c-0.9,0-1.6,0.3-2.1,1S270.5,208.2,270.5,209.5z"/>
	<path d="M36.8,230.9c0-1.5,0.3-2.7,1-3.5s1.6-1.3,2.7-1.3c1.3,0,2.3,0.5,2.9,1.5v-5.3h1v13.5h-1v-1.3c-0.7,1-1.7,1.4-3,1.4
		c-1.1,0-2-0.4-2.6-1.3S36.8,232.5,36.8,230.9C36.8,231,36.8,230.9,36.8,230.9z M37.9,231.1c0,1.2,0.2,2.2,0.7,2.9s1.2,1.1,2.1,1.1
		c1.3,0,2.2-0.6,2.8-1.7v-4.5c-0.5-1.2-1.5-1.9-2.7-1.9c-0.9,0-1.6,0.3-2.1,1C38.1,228.7,37.9,229.8,37.9,231.1z"/>
	<path d="M47.2,223.5c0-0.2,0.1-0.4,0.2-0.5s0.3-0.2,0.5-0.2s0.4,0.1,0.5,0.2s0.2,0.3,0.2,0.5s-0.1,0.4-0.2,0.5
		c-0.1,0.1-0.3,0.2-0.5,0.2s-0.4-0.1-0.5-0.2C47.2,223.9,47.2,223.7,47.2,223.5z M48.4,235.8h-1.1v-9.5h1.1V235.8z"/>
	<path d="M57.3,235.8c-0.1-0.3-0.2-0.7-0.2-1.3c-0.4,0.5-0.8,0.9-1.4,1.1c-0.6,0.3-1.2,0.4-1.8,0.4c-0.9,0-1.7-0.3-2.2-0.8
		s-0.8-1.2-0.8-1.9c0-0.9,0.4-1.7,1.2-2.2s1.8-0.8,3.2-0.8h1.9v-1.1c0-0.7-0.2-1.2-0.6-1.6s-1-0.6-1.8-0.6c-0.7,0-1.3,0.2-1.8,0.6
		s-0.7,0.8-0.7,1.4h-1.1c0-0.8,0.4-1.4,1.1-2c0.7-0.6,1.6-0.8,2.6-0.8c1.1,0,1.9,0.3,2.5,0.8s0.9,1.3,0.9,2.2v4.5
		c0,0.9,0.1,1.6,0.3,2.1v0.1L57.3,235.8L57.3,235.8z M54,235c0.7,0,1.3-0.2,1.9-0.5s1-0.8,1.2-1.4V231h-1.9c-1,0-1.9,0.2-2.5,0.6
		c-0.6,0.4-0.9,0.9-0.9,1.5c0,0.5,0.2,1,0.6,1.3S53.3,235,54,235z"/>
	<path d="M61.9,226.3v1.5c0.4-0.6,0.8-1,1.3-1.3s1.1-0.4,1.8-0.4c1.5,0,2.5,0.6,2.9,1.8c0.3-0.6,0.8-1,1.4-1.4
		c0.6-0.3,1.2-0.5,1.9-0.5c2,0,3.1,1.1,3.1,3.3v6.3h-1.1v-6.3c0-0.8-0.2-1.5-0.5-1.9s-0.9-0.6-1.8-0.6c-0.8,0-1.4,0.3-1.9,0.7
		s-0.8,1.1-0.9,1.7v6.3H67v-6.3c0-0.8-0.2-1.4-0.6-1.8c-0.4-0.4-1-0.6-1.7-0.6s-1.2,0.2-1.7,0.6c-0.5,0.4-0.8,0.9-1.1,1.7v6.5h-1.1
		v-9.5h1.1C61.9,226.1,61.9,226.3,61.9,226.3z"/>
	<path d="M82.2,226.3v1.6c0.4-0.6,0.8-1,1.3-1.3s1.1-0.5,1.8-0.5c1,0,1.8,0.3,2.3,0.9s0.8,1.4,0.8,2.6v6.2h-1v-6.2
		c0-0.8-0.2-1.5-0.5-1.9s-0.9-0.6-1.7-0.6c-0.7,0-1.2,0.2-1.7,0.6s-0.9,1-1.1,1.6v6.5h-1v-9.5L82.2,226.3L82.2,226.3z"/>
	<path d="M90.6,230.9c0-0.9,0.2-1.7,0.5-2.5s0.9-1.3,1.5-1.7s1.4-0.6,2.2-0.6c1.3,0,2.3,0.4,3.1,1.3c0.8,0.9,1.2,2.1,1.2,3.5v0.2
		c0,0.9-0.2,1.7-0.5,2.5c-0.4,0.7-0.9,1.3-1.5,1.7s-1.4,0.6-2.2,0.6c-1.3,0-2.3-0.4-3.1-1.3c-0.8-0.9-1.2-2.1-1.2-3.5V230.9z
		 M91.6,231.2c0,1.1,0.3,2.1,0.9,2.8s1.4,1.1,2.3,1.1s1.7-0.4,2.3-1.1c0.6-0.7,0.9-1.7,0.9-2.9v-0.2c0-0.7-0.1-1.4-0.4-2
		s-0.6-1.1-1.1-1.4c-0.5-0.3-1-0.5-1.7-0.5c-0.9,0-1.7,0.4-2.3,1.1s-0.9,1.7-0.9,2.9C91.6,231,91.6,231.2,91.6,231.2z"/>
	<path d="M102.2,226.3v1.6c0.4-0.6,0.8-1,1.3-1.3s1.1-0.5,1.8-0.5c1,0,1.8,0.3,2.3,0.9s0.8,1.4,0.8,2.6v6.2h-1v-6.2
		c0-0.8-0.2-1.5-0.5-1.9s-0.9-0.6-1.7-0.6c-0.7,0-1.2,0.2-1.7,0.6s-0.9,1-1.1,1.6v6.5h-1v-9.5L102.2,226.3L102.2,226.3z"/>
	<path d="M117.2,234.6c-0.6,0.9-1.6,1.4-3,1.4c-1,0-1.8-0.3-2.3-0.9c-0.5-0.6-0.8-1.5-0.8-2.6v-6.2h1v6.1c0,1.8,0.7,2.7,2.2,2.7
		s2.5-0.6,2.9-1.9v-6.9h1.1v9.5h-1L117.2,234.6z"/>
	<path d="M121.9,226.3v1.5c0.4-0.6,0.8-1,1.3-1.3s1.1-0.4,1.8-0.4c1.5,0,2.5,0.6,2.9,1.8c0.3-0.6,0.8-1,1.4-1.4
		c0.6-0.3,1.2-0.5,1.9-0.5c2,0,3.1,1.1,3.1,3.3v6.3h-1.1v-6.3c0-0.8-0.2-1.5-0.5-1.9s-0.9-0.6-1.8-0.6c-0.8,0-1.4,0.3-1.9,0.7
		s-0.8,1.1-0.9,1.7v6.3H127v-6.3c0-0.8-0.2-1.4-0.6-1.8c-0.4-0.4-1-0.6-1.7-0.6s-1.2,0.2-1.7,0.6c-0.5,0.4-0.8,0.9-1.1,1.7v6.5h-1.1
		v-9.5h1.1C121.9,226.1,121.9,226.3,121.9,226.3z"/>
	<path d="M140,234.3l2.8-8h1.1l-4.1,11.1l-0.2,0.5c-0.5,1.2-1.3,1.7-2.4,1.7c-0.3,0-0.5,0-0.8-0.1v-0.9l0.5,0.1
		c0.5,0,0.9-0.1,1.3-0.4c0.3-0.3,0.6-0.7,0.8-1.3l0.5-1.3l-3.6-9.4h1.2L140,234.3z"/>
	<path d="M153.6,236c-0.8,0-1.5-0.2-2.2-0.6s-1.2-1-1.5-1.7c-0.4-0.7-0.5-1.5-0.5-2.4v-0.4c0-0.9,0.2-1.7,0.5-2.5s0.8-1.3,1.5-1.7
		s1.3-0.6,2.1-0.6c1.2,0,2.1,0.4,2.7,1.2c0.7,0.8,1,1.9,1,3.2v0.6h-6.8v0.2c0,1.1,0.3,2,0.9,2.7c0.6,0.7,1.4,1.1,2.3,1.1
		c0.6,0,1.1-0.1,1.5-0.3s0.8-0.5,1.2-1l0.7,0.5C156.1,235.4,155,236,153.6,236z M153.4,227c-0.8,0-1.5,0.3-2,0.9s-0.9,1.4-1,2.3h5.7
		v-0.1c0-0.9-0.3-1.7-0.8-2.2S154.2,227,153.4,227z"/>
	<path d="M159.1,223.5c0-0.2,0.1-0.4,0.2-0.5s0.3-0.2,0.5-0.2s0.4,0.1,0.5,0.2s0.2,0.3,0.2,0.5s-0.1,0.4-0.2,0.5
		c-0.1,0.1-0.3,0.2-0.5,0.2s-0.4-0.1-0.5-0.2C159.2,223.9,159.1,223.7,159.1,223.5z M160.3,235.8h-1.1v-9.5h1.1V235.8z"/>
	<path d="M167.6,227.2c-0.2,0-0.5-0.1-0.7-0.1c-0.7,0-1.2,0.2-1.7,0.5s-0.8,0.9-1,1.6v6.5h-1v-9.5h1v1.5c0.6-1.1,1.5-1.7,2.7-1.7
		c0.3,0,0.5,0,0.7,0.1V227.2z"/>
	<path d="M170.2,226.3v1.5c0.4-0.6,0.8-1,1.3-1.3s1.1-0.4,1.8-0.4c1.5,0,2.5,0.6,2.9,1.8c0.3-0.6,0.8-1,1.4-1.4
		c0.6-0.3,1.2-0.5,1.9-0.5c2,0,3.1,1.1,3.1,3.3v6.3h-1.1v-6.3c0-0.8-0.2-1.5-0.5-1.9s-0.9-0.6-1.8-0.6c-0.8,0-1.4,0.3-1.9,0.7
		s-0.8,1.1-0.9,1.7v6.3h-1.1v-6.3c0-0.8-0.2-1.4-0.6-1.8c-0.4-0.4-1-0.6-1.7-0.6s-1.2,0.2-1.7,0.6c-0.5,0.4-0.8,0.9-1.1,1.7v6.5
		h-1.1v-9.5h1.1L170.2,226.3L170.2,226.3z"/>
	<path d="M184.6,230.9c0-0.9,0.2-1.7,0.5-2.5s0.9-1.3,1.5-1.7s1.4-0.6,2.2-0.6c1.3,0,2.3,0.4,3.1,1.3c0.8,0.9,1.2,2.1,1.2,3.5v0.2
		c0,0.9-0.2,1.7-0.5,2.5c-0.4,0.7-0.9,1.3-1.5,1.7s-1.4,0.6-2.2,0.6c-1.3,0-2.3-0.4-3.1-1.3c-0.8-0.9-1.2-2.1-1.2-3.5V230.9z
		 M185.7,231.2c0,1.1,0.3,2.1,0.9,2.8c0.6,0.7,1.4,1.1,2.3,1.1c0.9,0,1.7-0.4,2.3-1.1c0.6-0.7,0.9-1.7,0.9-2.9v-0.2
		c0-0.7-0.1-1.4-0.4-2s-0.6-1.1-1.1-1.4c-0.5-0.3-1-0.5-1.7-0.5c-0.9,0-1.7,0.4-2.3,1.1s-0.9,1.7-0.9,2.9V231.2z"/>
	<path d="M194.9,230.9c0-1.5,0.3-2.7,1-3.5s1.6-1.3,2.7-1.3c1.3,0,2.3,0.5,2.9,1.5v-5.3h1v13.5h-1v-1.3c-0.7,1-1.7,1.4-3,1.4
		c-1.1,0-2-0.4-2.7-1.3s-1-2.1-1-3.6v-0.1L194.9,230.9L194.9,230.9z M195.9,231.1c0,1.2,0.2,2.2,0.7,2.9s1.2,1.1,2.1,1.1
		c1.3,0,2.2-0.6,2.8-1.7v-4.5c-0.5-1.2-1.5-1.9-2.7-1.9c-0.9,0-1.6,0.3-2.1,1C196.2,228.7,195.9,229.8,195.9,231.1z"/>
	<path d="M211.3,223.8v2.4h2v0.9h-2v6.3c0,0.5,0.1,0.9,0.3,1.2s0.5,0.4,1,0.4c0.2,0,0.5,0,0.9-0.1v0.9c-0.3,0.1-0.7,0.1-1.1,0.1
		c-0.7,0-1.2-0.2-1.6-0.6c-0.3-0.4-0.5-1-0.5-1.8v-6.3h-1.7v-0.9h1.7v-2.4L211.3,223.8L211.3,223.8z"/>
	<path d="M219.1,236c-0.8,0-1.5-0.2-2.2-0.6s-1.2-1-1.5-1.7c-0.4-0.7-0.5-1.5-0.5-2.4v-0.4c0-0.9,0.2-1.7,0.5-2.5s0.8-1.3,1.5-1.7
		s1.3-0.6,2.1-0.6c1.2,0,2.1,0.4,2.7,1.2c0.7,0.8,1,1.9,1,3.2v0.6h-6.8v0.2c0,1.1,0.3,2,0.9,2.7c0.6,0.7,1.4,1.1,2.3,1.1
		c0.6,0,1.1-0.1,1.5-0.3s0.8-0.5,1.2-1l0.7,0.5C221.7,235.4,220.6,236,219.1,236z M218.9,227c-0.8,0-1.5,0.3-2,0.9s-0.9,1.4-1,2.3
		h5.7v-0.1c0-0.9-0.3-1.7-0.8-2.2S219.7,227,218.9,227z"/>
	<path d="M225.7,226.3v1.5c0.4-0.6,0.8-1,1.3-1.3s1.1-0.4,1.8-0.4c1.5,0,2.5,0.6,2.9,1.8c0.3-0.6,0.8-1,1.4-1.4
		c0.6-0.3,1.2-0.5,1.9-0.5c2,0,3.1,1.1,3.1,3.3v6.3H237v-6.3c0-0.8-0.2-1.5-0.5-1.9s-0.9-0.6-1.8-0.6c-0.8,0-1.4,0.3-1.9,0.7
		s-0.8,1.1-0.9,1.7v6.3h-1.1v-6.3c0-0.8-0.2-1.4-0.6-1.8c-0.4-0.4-1-0.6-1.7-0.6s-1.2,0.2-1.7,0.6c-0.5,0.4-0.8,0.9-1.1,1.7v6.5
		h-1.1v-9.5h1.1V226.3z"/>
	<path d="M248.4,231.1c0,1.5-0.3,2.7-1,3.5c-0.7,0.9-1.5,1.3-2.6,1.3c-1.3,0-2.3-0.5-3-1.4v4.9h-1v-13.2h1l0.1,1.3
		c0.7-1,1.7-1.5,3-1.5c1.1,0,2,0.4,2.7,1.3s1,2.1,1,3.6v0.2L248.4,231.1L248.4,231.1z M247.3,230.9c0-1.2-0.2-2.2-0.7-2.9
		s-1.2-1.1-2.1-1.1c-0.6,0-1.2,0.2-1.7,0.5s-0.8,0.8-1.1,1.4v4.6c0.3,0.5,0.6,1,1.1,1.2s1,0.4,1.7,0.4c0.9,0,1.6-0.4,2.1-1.1
		C247,233.3,247.3,232.3,247.3,230.9z"/>
	<path d="M250.1,230.9c0-0.9,0.2-1.7,0.5-2.5s0.9-1.3,1.5-1.7s1.4-0.6,2.2-0.6c1.3,0,2.3,0.4,3.1,1.3c0.8,0.9,1.2,2.1,1.2,3.5v0.2
		c0,0.9-0.2,1.7-0.5,2.5c-0.4,0.7-0.9,1.3-1.5,1.7s-1.4,0.6-2.2,0.6c-1.3,0-2.3-0.4-3.1-1.3c-0.8-0.9-1.2-2.1-1.2-3.5V230.9z
		 M251.2,231.2c0,1.1,0.3,2.1,0.9,2.8c0.6,0.7,1.4,1.1,2.3,1.1c0.9,0,1.7-0.4,2.3-1.1c0.6-0.7,0.9-1.7,0.9-2.9v-0.2
		c0-0.7-0.1-1.4-0.4-2s-0.6-1.1-1.1-1.4c-0.5-0.3-1-0.5-1.7-0.5c-0.9,0-1.7,0.4-2.3,1.1s-0.9,1.7-0.9,2.9L251.2,231.2L251.2,231.2z"
		/>
	<path d="M265.2,227.2c-0.2,0-0.5-0.1-0.7-0.1c-0.7,0-1.2,0.2-1.7,0.5s-0.8,0.9-1,1.6v6.5h-1v-9.5h1v1.5c0.6-1.1,1.5-1.7,2.7-1.7
		c0.3,0,0.5,0,0.7,0.1V227.2z"/>
	<path d="M265.6,235.2c0-0.2,0.1-0.4,0.2-0.5s0.3-0.2,0.5-0.2s0.4,0.1,0.6,0.2c0.1,0.1,0.2,0.3,0.2,0.5s-0.1,0.4-0.2,0.5
		s-0.3,0.2-0.6,0.2s-0.4-0.1-0.5-0.2C265.7,235.5,265.6,235.4,265.6,235.2z"/>
</g>
</svg>
