<?xml version="1.0" encoding="utf-8"?>
<!-- Generator: Adobe Illustrator 22.1.0, SVG Export Plug-In . SVG Version: 6.00 Build 0)  -->
<svg version="1.1" id="Ebene_1" xmlns="http://www.w3.org/2000/svg" xmlns:xlink="http://www.w3.org/1999/xlink" x="0px" y="0px"
	 viewBox="0 0 1540 1080" style="enable-background:new 0 0 1540 1080;" xml:space="preserve">
<title>querformat_Text</title>
<g>
	<path d="M172.6,288.5h-34.7v68.9h-31.1V178.2h63c20.7,0,36.6,4.6,47.9,13.9c11.2,9.3,16.9,22.7,16.9,40.3c0,12-2.9,22-8.7,30.1
		s-13.8,14.3-24.2,18.7l40.2,74.6v1.6h-33.3L172.6,288.5z M137.9,263.4h32c10.5,0,18.7-2.6,24.6-7.9s8.9-12.5,8.9-21.7
		c0-9.6-2.7-17-8.2-22.3c-5.5-5.2-13.6-8-24.4-8.1h-32.9V263.4z"/>
	<path d="M255.6,289.6c0-13,2.6-24.8,7.8-35.3c5.2-10.5,12.4-18.5,21.8-24.1s20.1-8.4,32.2-8.4c18,0,32.5,5.8,43.7,17.3
		s17.2,26.9,18.1,46l0.1,7c0,13.1-2.5,24.9-7.6,35.2c-5.1,10.3-12.3,18.3-21.7,24c-9.4,5.7-20.2,8.5-32.5,8.5
		c-18.8,0-33.8-6.3-45.1-18.8c-11.3-12.5-16.9-29.2-16.9-50v-1.4H255.6z M285.5,292.2c0,13.7,2.8,24.4,8.5,32.2
		c5.7,7.8,13.5,11.6,23.6,11.6s17.9-3.9,23.6-11.8c5.6-7.9,8.4-19.4,8.4-34.6c0-13.5-2.9-24.1-8.7-32s-13.6-11.8-23.6-11.8
		c-9.8,0-17.5,3.9-23.3,11.6C288.3,265.2,285.5,276.8,285.5,292.2z"/>
	<path d="M521.5,292.2c0,20.7-4.6,37.1-13.8,49.3s-21.9,18.3-38.1,18.3c-15.6,0-27.7-5.6-36.4-16.9l-1.5,14.4h-27.1v-189h29.9V237
		c8.6-10.2,20.2-15.3,34.8-15.3c16.2,0,29,6,38.3,18.1s13.9,28.9,13.9,50.6V292.2z M491.6,289.6c0-14.4-2.5-25.3-7.6-32.5
		c-5.1-7.2-12.5-10.8-22.1-10.8c-13,0-22.1,5.7-27.3,17v54.9c5.3,11.6,14.5,17.3,27.6,17.3c9.4,0,16.6-3.5,21.7-10.5
		s7.7-17.5,7.9-31.6v-3.8H491.6z"/>
	<path d="M540.9,289.6c0-13,2.6-24.8,7.8-35.3c5.2-10.5,12.4-18.5,21.8-24.1c9.4-5.6,20.1-8.4,32.2-8.4c18,0,32.5,5.8,43.7,17.3
		s17.2,26.9,18.1,46l0.1,7c0,13.1-2.5,24.9-7.6,35.2c-5.1,10.3-12.3,18.3-21.7,24c-9.4,5.7-20.2,8.5-32.5,8.5
		c-18.8,0-33.8-6.3-45.1-18.8s-16.9-29.2-16.9-50v-1.4H540.9z M570.8,292.2c0,13.7,2.8,24.4,8.5,32.2c5.7,7.8,13.5,11.6,23.6,11.6
		s17.9-3.9,23.6-11.8c5.6-7.9,8.4-19.4,8.4-34.6c0-13.5-2.9-24.1-8.7-32s-13.6-11.8-23.6-11.8c-9.8,0-17.5,3.9-23.3,11.6
		C573.7,265.2,570.8,276.8,570.8,292.2z"/>
	<path d="M727.4,191.9v32.4h23.5v22.1h-23.5v74.3c0,5.1,1,8.8,3,11c2,2.3,5.6,3.4,10.8,3.4c3.4,0,6.9-0.4,10.5-1.2V357
		c-6.8,1.9-13.4,2.8-19.7,2.8c-23,0-34.5-12.7-34.5-38v-75.4h-21.9v-22.1h21.9v-32.4L727.4,191.9L727.4,191.9z"/>
	<path d="M764.5,289.6c0-13,2.6-24.8,7.8-35.3c5.2-10.5,12.4-18.5,21.8-24.1c9.4-5.6,20.1-8.4,32.2-8.4c18,0,32.5,5.8,43.7,17.3
		s17.2,26.9,18.1,46l0.1,7c0,13.1-2.5,24.9-7.6,35.2c-5.1,10.3-12.3,18.3-21.7,24c-9.4,5.7-20.2,8.5-32.5,8.5
		c-18.8,0-33.8-6.3-45.1-18.8s-16.9-29.2-16.9-50v-1.4H764.5z M794.4,292.2c0,13.7,2.8,24.4,8.5,32.2c5.7,7.8,13.5,11.6,23.6,11.6
		s17.9-3.9,23.6-11.8c5.6-7.9,8.4-19.4,8.4-34.6c0-13.5-2.9-24.1-8.7-32s-13.6-11.8-23.6-11.8c-9.8,0-17.5,3.9-23.3,11.6
		C797.3,265.2,794.4,276.8,794.4,292.2z"/>
</g>
<g>
	<path d="M106.3,534.4V442h26.1c8,0,15.1,1.8,21.3,5.3c6.2,3.6,10.9,8.6,14.3,15.2c3.4,6.6,5.1,14.1,5.1,22.6v5.9
		c0,8.7-1.7,16.4-5,22.9c-3.4,6.6-8.2,11.6-14.4,15.1s-13.5,5.3-21.8,5.4H106.3z M118.5,451.9v72.5h12.8c9.4,0,16.7-2.9,21.9-8.8
		c5.2-5.8,7.8-14.2,7.8-25v-5.4c0-10.5-2.5-18.7-7.4-24.5s-11.9-8.8-21-8.9L118.5,451.9L118.5,451.9z"/>
	<path d="M218.2,535.7c-9.3,0-16.9-3.1-22.7-9.2c-5.8-6.1-8.8-14.3-8.8-24.5v-2.2c0-6.8,1.3-12.9,3.9-18.2
		c2.6-5.4,6.2-9.5,10.9-12.6c4.7-3,9.7-4.5,15.2-4.5c8.9,0,15.9,2.9,20.8,8.8c5,5.9,7.4,14.3,7.4,25.3v4.9h-46.5
		c0.2,6.8,2.1,12.2,5.9,16.4c3.8,4.2,8.6,6.3,14.4,6.3c4.1,0,7.7-0.8,10.5-2.5c2.9-1.7,5.4-3.9,7.6-6.7l7.2,5.6
		C238.4,531.3,229.8,535.7,218.2,535.7z M216.8,474.1c-4.7,0-8.7,1.7-11.9,5.2c-3.2,3.4-5.2,8.3-6,14.5h34.4v-0.9
		c-0.3-6-1.9-10.6-4.8-13.9C225.6,475.7,221.7,474.1,216.8,474.1z"/>
	<path d="M298.6,516.2c0-3.2-1.2-5.6-3.6-7.4s-6.6-3.3-12.5-4.5c-5.9-1.3-10.7-2.8-14.2-4.6s-6.1-3.9-7.7-6.3
		c-1.7-2.5-2.5-5.4-2.5-8.8c0-5.6,2.4-10.4,7.1-14.3c4.8-3.9,10.8-5.8,18.2-5.8c7.8,0,14.1,2,18.9,6s7.3,9.2,7.3,15.4h-11.8
		c0-3.2-1.4-6-4.1-8.3s-6.2-3.5-10.3-3.5c-4.3,0-7.6,0.9-10,2.8s-3.6,4.3-3.6,7.3c0,2.8,1.1,5,3.4,6.4c2.2,1.4,6.3,2.8,12.2,4.1
		c5.9,1.3,10.6,2.9,14.3,4.7c3.6,1.8,6.3,4,8.1,6.6c1.8,2.6,2.6,5.7,2.6,9.4c0,6.1-2.5,11.1-7.4,14.8c-4.9,3.7-11.3,5.6-19.1,5.6
		c-5.5,0-10.4-1-14.6-2.9c-4.2-1.9-7.5-4.7-9.9-8.2s-3.6-7.3-3.6-11.3h11.7c0.2,3.9,1.8,7.1,4.7,9.4c2.9,2.3,6.8,3.5,11.6,3.5
		c4.4,0,8-0.9,10.7-2.7C297.3,521.6,298.6,519.2,298.6,516.2z"/>
	<path d="M325.7,447.5c0-1.9,0.6-3.5,1.7-4.8c1.2-1.3,2.9-2,5.2-2s4,0.7,5.2,2s1.8,2.9,1.8,4.8s-0.6,3.5-1.8,4.8
		c-1.2,1.3-2.9,1.9-5.2,1.9s-4-0.6-5.2-1.9C326.3,451,325.7,449.4,325.7,447.5z M338.4,534.4h-11.7v-68.7h11.7V534.4z"/>
	<path d="M354.4,499.5c0-10.7,2.5-19.2,7.4-25.5c5-6.3,11.5-9.5,19.7-9.5c8.4,0,14.9,3,19.6,8.9l0.6-7.6h10.7v67
		c0,8.9-2.6,15.9-7.9,21c-5.3,5.1-12.3,7.7-21.2,7.7c-5,0-9.8-1.1-14.5-3.2c-4.7-2.1-8.4-5-10.9-8.7l6.1-7c5,6.2,11.2,9.3,18.5,9.3
		c5.7,0,10.2-1.6,13.4-4.8c3.2-3.2,4.8-7.7,4.8-13.6v-5.9c-4.7,5.4-11.1,8.1-19.2,8.1c-8,0-14.5-3.2-19.5-9.7
		C356.9,519.5,354.4,510.7,354.4,499.5z M366.2,500.8c0,7.7,1.6,13.8,4.8,18.2c3.2,4.4,7.6,6.6,13.3,6.6c7.4,0,12.8-3.4,16.3-10.1
		v-31.4c-3.6-6.6-9-9.8-16.2-9.8c-5.7,0-10.2,2.2-13.4,6.7C367.8,485.5,366.2,492.1,366.2,500.8z"/>
	<path d="M441.2,465.7l0.4,8.6c5.2-6.6,12.1-9.9,20.6-9.9c14.5,0,21.8,8.2,22,24.6v45.4h-11.7V489c0-5-1.2-8.6-3.4-11
		c-2.2-2.4-5.7-3.6-10.4-3.6c-3.8,0-7.2,1-10,3c-2.9,2-5.1,4.7-6.7,8v48.9h-11.7v-68.7h10.9L441.2,465.7L441.2,465.7z"/>
	<path d="M551.6,442l30.2,75.4L612,442h15.8v92.4h-12.2v-36l1.1-38.8l-30.3,74.8h-9.3l-30.3-74.6l1.2,38.7v36h-12.2V442H551.6z"/>
	<path d="M689.9,534.4c-0.7-1.4-1.2-3.8-1.7-7.2c-5.5,5.7-12,8.5-19.6,8.5c-6.8,0-12.3-1.9-16.7-5.7c-4.3-3.8-6.5-8.7-6.5-14.6
		c0-7.2,2.7-12.7,8.2-16.7c5.4-4,13.1-5.9,22.9-5.9h11.4v-5.4c0-4.1-1.2-7.4-3.7-9.8s-6.1-3.6-10.9-3.6c-4.2,0-7.7,1.1-10.5,3.2
		s-4.3,4.7-4.3,7.7H647c0-3.4,1.2-6.7,3.6-9.9c2.4-3.2,5.7-5.7,9.9-7.6s8.7-2.8,13.7-2.8c7.9,0,14.1,2,18.6,5.9
		c4.5,4,6.8,9.4,7,16.3v31.6c0,6.3,0.8,11.3,2.4,15v1H689.9z M670.5,525.5c3.7,0,7.2-1,10.5-2.9c3.3-1.9,5.7-4.4,7.2-7.4v-14.1H679
		c-14.4,0-21.6,4.2-21.6,12.6c0,3.7,1.2,6.6,3.7,8.6C663.4,524.4,666.6,525.5,670.5,525.5z"/>
	<path d="M734.2,449.1v16.6H747v9.1h-12.8v42.6c0,2.8,0.6,4.8,1.7,6.2s3.1,2.1,5.8,2.1c1.4,0,3.2-0.3,5.6-0.8v9.5
		c-3.1,0.8-6.1,1.3-9,1.3c-5.2,0-9.2-1.6-11.9-4.8c-2.7-3.2-4-7.7-4-13.5v-42.6h-12.5v-9.1h12.5v-16.6L734.2,449.1L734.2,449.1z"/>
	<path d="M776.6,449.1v16.6h12.8v9.1h-12.8v42.6c0,2.8,0.6,4.8,1.7,6.2s3.1,2.1,5.8,2.1c1.4,0,3.2-0.3,5.6-0.8v9.5
		c-3.1,0.8-6.1,1.3-9,1.3c-5.2,0-9.2-1.6-11.9-4.8c-2.7-3.2-4-7.7-4-13.5v-42.6h-12.5v-9.1h12.5v-16.6L776.6,449.1L776.6,449.1z"/>
	<path d="M831.7,535.7c-9.3,0-16.9-3.1-22.7-9.2c-5.8-6.1-8.8-14.3-8.8-24.5v-2.2c0-6.8,1.3-12.9,3.9-18.2
		c2.6-5.4,6.2-9.5,10.9-12.6c4.7-3,9.7-4.5,15.2-4.5c8.9,0,15.9,2.9,20.8,8.8c5,5.9,7.4,14.3,7.4,25.3v4.9h-46.5
		c0.2,6.8,2.1,12.2,5.9,16.4c3.8,4.2,8.6,6.3,14.4,6.3c4.1,0,7.7-0.8,10.5-2.5c2.9-1.7,5.4-3.9,7.6-6.7l7.2,5.6
		C851.8,531.3,843.2,535.7,831.7,535.7z M830.2,474.1c-4.7,0-8.7,1.7-11.9,5.2c-3.2,3.4-5.2,8.3-6,14.5h34.4v-0.9
		c-0.3-6-1.9-10.6-4.8-13.9C839,475.7,835.1,474.1,830.2,474.1z"/>
	<path d="M905.3,476.3c-1.8-0.3-3.7-0.4-5.8-0.4c-7.7,0-12.9,3.3-15.7,9.8v48.8h-11.7v-68.7h11.4l0.2,7.9c3.9-6.1,9.3-9.2,16.4-9.2
		c2.3,0,4,0.3,5.2,0.9L905.3,476.3L905.3,476.3z"/>
	<path d="M956,516.2c0-3.2-1.2-5.6-3.6-7.4c-2.4-1.8-6.6-3.3-12.5-4.5s-10.7-2.8-14.2-4.6c-3.5-1.8-6.1-3.9-7.7-6.3
		c-1.7-2.5-2.5-5.4-2.5-8.8c0-5.6,2.4-10.4,7.1-14.3c4.8-3.9,10.8-5.8,18.2-5.8c7.8,0,14.1,2,18.9,6c4.8,4,7.3,9.2,7.3,15.4h-11.8
		c0-3.2-1.4-6-4.1-8.3c-2.7-2.3-6.2-3.5-10.3-3.5c-4.3,0-7.6,0.9-10,2.8s-3.6,4.3-3.6,7.3c0,2.8,1.1,5,3.4,6.4
		c2.2,1.4,6.3,2.8,12.2,4.1c5.9,1.3,10.6,2.9,14.2,4.7c3.6,1.8,6.3,4,8.1,6.6s2.6,5.7,2.6,9.4c0,6.1-2.5,11.1-7.4,14.8
		c-4.9,3.7-11.3,5.6-19.1,5.6c-5.5,0-10.4-1-14.6-2.9c-4.2-1.9-7.5-4.7-9.9-8.2s-3.6-7.3-3.6-11.3h11.7c0.2,3.9,1.8,7.1,4.7,9.4
		s6.8,3.5,11.6,3.5c4.4,0,8-0.9,10.7-2.7C954.7,521.6,956,519.2,956,516.2z"/>
</g>
<g>
	<path d="M111.8,703.6h21.1v3h-24.7v-42.7h3.6C111.8,663.9,111.8,703.6,111.8,703.6z"/>
	<path d="M137,690.3c0-3,0.6-5.8,1.8-8.2s2.9-4.3,5-5.7c2.2-1.4,4.6-2,7.3-2c4.2,0,7.6,1.5,10.3,4.4c2.6,3,3.9,6.9,3.9,11.8v0.7
		c0,3.1-0.6,5.8-1.8,8.3s-2.8,4.3-5,5.7c-2.1,1.3-4.6,2-7.4,2c-4.2,0-7.6-1.5-10.2-4.4c-2.6-3-3.9-6.9-3.9-11.8L137,690.3L137,690.3
		z M140.5,691.2c0,3.8,1,6.9,2.9,9.3s4.5,3.6,7.7,3.6s5.7-1.2,7.7-3.6s2.9-5.6,2.9-9.6v-0.7c0-2.4-0.4-4.6-1.3-6.7
		c-0.9-2-2.2-3.6-3.8-4.7c-1.6-1.1-3.5-1.7-5.6-1.7c-3.1,0-5.7,1.2-7.6,3.7c-2,2.5-3,5.7-3,9.6v0.8L140.5,691.2L140.5,691.2z"/>
	<path d="M187.2,677.9c-0.7-0.1-1.5-0.2-2.4-0.2c-2.2,0-4,0.6-5.6,1.8c-1.5,1.2-2.6,3-3.2,5.3v21.8h-3.5v-31.7h3.4l0.1,5
		c1.9-3.8,4.8-5.6,8.9-5.6c1,0,1.7,0.1,2.3,0.4V677.9z"/>
	<path d="M204.4,707.2c-2.7,0-5.1-0.7-7.3-2s-3.9-3.2-5.1-5.6c-1.2-2.4-1.8-5-1.8-8v-1.3c0-3,0.6-5.8,1.8-8.2s2.8-4.4,4.9-5.8
		s4.4-2.1,6.9-2.1c3.8,0,6.9,1.3,9.2,3.9s3.4,6.2,3.4,10.8v2h-22.6v0.7c0,3.6,1,6.6,3.1,9s4.7,3.6,7.8,3.6c1.9,0,3.5-0.3,5-1
		s2.7-1.8,3.9-3.3l2.2,1.7C213.1,705.3,209.3,707.2,204.4,707.2z M203.8,677.3c-2.6,0-4.9,1-6.7,2.9s-2.9,4.5-3.3,7.8h19v-0.4
		c-0.1-3-1-5.5-2.6-7.4S206.4,677.3,203.8,677.3z"/>
	<path d="M226.3,674.9l0.1,5.2c1.2-1.9,2.6-3.3,4.4-4.3s3.7-1.4,5.9-1.4c5,0,8.2,2.1,9.5,6.2c1.1-2,2.6-3.5,4.5-4.6s4-1.6,6.3-1.6
		c6.8,0,10.3,3.7,10.4,11.1v21.2h-3.5v-20.9c0-2.8-0.6-4.9-1.8-6.3s-3.2-2.1-5.9-2.1c-2.5,0-4.6,0.9-6.4,2.4
		c-1.7,1.6-2.7,3.5-2.9,5.8v21h-3.5v-21.2c0-2.7-0.7-4.7-1.9-6.1s-3.2-2-5.8-2c-2.2,0-4.1,0.6-5.7,1.9s-2.8,3.1-3.5,5.6v21.7H223
		v-31.7L226.3,674.9L226.3,674.9z"/>
	<path d="M290.7,665.7c0-0.7,0.2-1.2,0.6-1.7s1-0.7,1.8-0.7c0.7,0,1.3,0.2,1.8,0.7s0.7,1,0.7,1.7s-0.2,1.2-0.7,1.7
		c-0.4,0.4-1,0.7-1.8,0.7c-0.7,0-1.3-0.2-1.8-0.7C290.9,667,290.7,666.4,290.7,665.7z M294.8,706.6h-3.5v-31.7h3.5V706.6z"/>
	<path d="M329.9,691.1c0,4.9-1.1,8.9-3.3,11.8c-2.2,2.9-5.1,4.4-8.8,4.4c-4.3,0-7.7-1.5-10-4.6v16.2h-3.5V675h3.3l0.2,4.5
		c2.3-3.4,5.6-5.1,9.9-5.1c3.8,0,6.8,1.4,8.9,4.3c2.2,2.9,3.2,6.9,3.2,12L329.9,691.1L329.9,691.1z M326.3,690.5
		c0-4-0.8-7.2-2.5-9.6c-1.7-2.3-4-3.5-6.9-3.5c-2.1,0-4,0.5-5.5,1.6c-1.5,1-2.7,2.5-3.5,4.5v15.2c0.8,1.8,2,3.2,3.6,4.2
		s3.4,1.4,5.5,1.4c2.9,0,5.2-1.2,6.9-3.5C325.5,698.3,326.3,694.9,326.3,690.5z"/>
	<path d="M356.6,698.5c0-1.7-0.7-3.1-2.1-4.2c-1.4-1.1-3.5-1.9-6.3-2.5s-5-1.3-6.5-2.1s-2.7-1.7-3.5-2.8s-1.1-2.5-1.1-4
		c0-2.5,1-4.6,3.1-6.2c2.1-1.6,4.8-2.4,8-2.4c3.5,0,6.4,0.9,8.5,2.6s3.2,4,3.2,6.8h-3.5c0-1.9-0.8-3.4-2.3-4.6s-3.5-1.8-5.9-1.8
		c-2.3,0-4.2,0.5-5.6,1.5s-2.1,2.4-2.1,4s0.6,2.8,1.7,3.7c1.2,0.9,3.3,1.7,6.4,2.4s5.4,1.5,6.9,2.3s2.7,1.8,3.4,3
		c0.7,1.2,1.1,2.5,1.1,4.2c0,2.7-1.1,4.8-3.2,6.4c-2.2,1.6-5,2.4-8.5,2.4c-3.7,0-6.7-0.9-9-2.7s-3.4-4-3.4-6.8h3.5
		c0.1,2.1,1,3.6,2.6,4.8c1.6,1.1,3.7,1.7,6.3,1.7c2.4,0,4.4-0.5,5.9-1.6C355.8,701.5,356.6,700.2,356.6,698.5z"/>
	<path d="M388.4,702.6c-2.1,3.1-5.5,4.6-10.1,4.6c-3.4,0-5.9-1-7.7-2.9s-2.7-4.9-2.7-8.7V675h3.5v20.2c0,6,2.4,9.1,7.3,9.1
		c5.1,0,8.3-2.1,9.6-6.3v-22.9h3.5v31.7h-3.4L388.4,702.6z"/>
	<path d="M404.1,674.9l0.1,5.2c1.2-1.9,2.6-3.3,4.4-4.3s3.7-1.4,5.9-1.4c5,0,8.2,2.1,9.5,6.2c1.1-2,2.6-3.5,4.5-4.6s4-1.6,6.3-1.6
		c6.8,0,10.3,3.7,10.4,11.1v21.2h-3.5v-20.9c0-2.8-0.6-4.9-1.8-6.3s-3.2-2.1-5.9-2.1c-2.5,0-4.6,0.9-6.4,2.4
		c-1.7,1.6-2.7,3.5-2.9,5.8v21h-3.5v-21.2c0-2.7-0.7-4.7-1.9-6.1s-3.2-2-5.8-2c-2.2,0-4.1,0.6-5.7,1.9s-2.8,3.1-3.5,5.6v21.7h-3.5
		v-31.7L404.1,674.9L404.1,674.9z"/>
	<path d="M467.3,690.5c0-4.9,1.1-8.8,3.3-11.8s5.2-4.4,9-4.4c4.3,0,7.5,1.7,9.8,5.1v-17.8h3.5v45h-3.3l-0.1-4.2
		c-2.2,3.2-5.5,4.8-9.9,4.8c-3.7,0-6.6-1.5-8.8-4.4c-2.2-2.9-3.4-6.9-3.4-11.9v-0.4L467.3,690.5L467.3,690.5z M470.9,691.1
		c0,4,0.8,7.2,2.4,9.6c1.6,2.3,3.9,3.5,6.9,3.5c4.3,0,7.4-1.9,9.2-5.7v-14.9c-1.8-4.1-4.9-6.2-9.1-6.2c-2.9,0-5.2,1.2-6.9,3.5
		S470.9,686.6,470.9,691.1z"/>
	<path d="M500.1,690.3c0-3,0.6-5.8,1.8-8.2c1.2-2.4,2.9-4.3,5-5.7c2.2-1.4,4.6-2,7.3-2c4.2,0,7.6,1.5,10.3,4.4
		c2.6,3,3.9,6.9,3.9,11.8v0.7c0,3.1-0.6,5.8-1.8,8.3s-2.8,4.3-5,5.7c-2.1,1.3-4.6,2-7.4,2c-4.2,0-7.6-1.5-10.2-4.4
		c-2.6-3-3.9-6.9-3.9-11.8V690.3z M503.6,691.2c0,3.8,1,6.9,2.9,9.3s4.5,3.6,7.7,3.6s5.7-1.2,7.7-3.6s2.9-5.6,2.9-9.6v-0.7
		c0-2.4-0.4-4.6-1.3-6.7c-0.9-2-2.2-3.6-3.8-4.7c-1.6-1.1-3.5-1.7-5.6-1.7c-3.1,0-5.7,1.2-7.6,3.7c-2,2.5-3,5.7-3,9.6L503.6,691.2
		L503.6,691.2z"/>
	<path d="M539.6,706.6h-3.5v-45h3.5V706.6z"/>
	<path d="M547.2,690.3c0-3,0.6-5.8,1.8-8.2s2.9-4.3,5-5.7c2.2-1.4,4.6-2,7.3-2c4.2,0,7.6,1.5,10.3,4.4c2.6,3,3.9,6.9,3.9,11.8v0.7
		c0,3.1-0.6,5.8-1.8,8.3s-2.8,4.3-5,5.7c-2.1,1.3-4.6,2-7.4,2c-4.2,0-7.6-1.5-10.2-4.4c-2.6-3-3.9-6.9-3.9-11.8L547.2,690.3
		L547.2,690.3z M550.7,691.2c0,3.8,1,6.9,2.9,9.3s4.5,3.6,7.7,3.6s5.7-1.2,7.7-3.6s2.9-5.6,2.9-9.6v-0.7c0-2.4-0.4-4.6-1.3-6.7
		c-0.9-2-2.2-3.6-3.8-4.7c-1.6-1.1-3.5-1.7-5.6-1.7c-3.1,0-5.7,1.2-7.6,3.7c-2,2.5-3,5.7-3,9.6L550.7,691.2L550.7,691.2z"/>
	<path d="M597.4,677.9c-0.7-0.1-1.5-0.2-2.4-0.2c-2.2,0-4,0.6-5.6,1.8c-1.5,1.2-2.6,3-3.2,5.3v21.8h-3.5v-31.7h3.4l0.1,5
		c1.9-3.8,4.8-5.6,8.9-5.6c1,0,1.7,0.1,2.3,0.4V677.9z"/>
	<path d="M636.5,698.5c0-1.7-0.7-3.1-2.1-4.2c-1.4-1.1-3.5-1.9-6.3-2.5s-5-1.3-6.5-2.1s-2.7-1.7-3.5-2.8s-1.1-2.5-1.1-4
		c0-2.5,1-4.6,3.1-6.2c2.1-1.6,4.8-2.4,8-2.4c3.5,0,6.4,0.9,8.5,2.6s3.2,4,3.2,6.8h-3.5c0-1.9-0.8-3.4-2.3-4.6s-3.5-1.8-5.9-1.8
		c-2.3,0-4.2,0.5-5.6,1.5c-1.4,1-2.1,2.4-2.1,4s0.6,2.8,1.7,3.7c1.2,0.9,3.3,1.7,6.4,2.4s5.4,1.5,6.9,2.3s2.7,1.8,3.4,3
		s1.1,2.5,1.1,4.2c0,2.7-1.1,4.8-3.2,6.4c-2.2,1.6-5,2.4-8.5,2.4c-3.7,0-6.7-0.9-9-2.7s-3.4-4-3.4-6.8h3.5c0.1,2.1,1,3.6,2.6,4.8
		c1.6,1.1,3.7,1.7,6.3,1.7c2.4,0,4.4-0.5,5.9-1.6C635.7,701.5,636.5,700.2,636.5,698.5z"/>
	<path d="M647.7,665.7c0-0.7,0.2-1.2,0.6-1.7c0.4-0.5,1-0.7,1.8-0.7c0.7,0,1.3,0.2,1.8,0.7s0.7,1,0.7,1.7s-0.2,1.2-0.7,1.7
		c-0.4,0.4-1,0.7-1.8,0.7c-0.7,0-1.3-0.2-1.8-0.7C647.9,667,647.7,666.4,647.7,665.7z M651.8,706.6h-3.5v-31.7h3.5V706.6z"/>
	<path d="M666.8,666.8v8.1h6.6v2.9h-6.6v21.1c0,1.8,0.3,3.1,1,3.9c0.6,0.9,1.7,1.3,3.2,1.3c0.6,0,1.5-0.1,2.8-0.3l0.1,2.8
		c-0.9,0.3-2.2,0.5-3.8,0.5c-2.4,0-4.2-0.7-5.2-2.1c-1.1-1.4-1.6-3.5-1.6-6.2v-21.2h-5.8v-2.9h5.8v-8.1h3.5V666.8z"/>
	<path d="M715.2,706.6c-0.4-1-0.6-2.5-0.7-4.4c-1.2,1.6-2.8,2.8-4.7,3.7s-3.9,1.3-6,1.3c-3,0-5.5-0.8-7.4-2.5s-2.8-3.8-2.8-6.4
		c0-3.1,1.3-5.5,3.9-7.3c2.6-1.8,6.1-2.7,10.7-2.7h6.4v-3.6c0-2.3-0.7-4-2.1-5.3c-1.4-1.3-3.4-1.9-6.1-1.9c-2.4,0-4.5,0.6-6.1,1.9
		c-1.6,1.2-2.4,2.8-2.4,4.5h-3.5c0-2.5,1.2-4.7,3.5-6.5s5.2-2.8,8.6-2.8c3.5,0,6.3,0.9,8.4,2.7c2,1.8,3.1,4.2,3.1,7.4v15
		c0,3.1,0.3,5.4,1,6.9v0.4h-3.8L715.2,706.6L715.2,706.6z M704.2,704.1c2.3,0,4.4-0.6,6.3-1.7s3.2-2.6,4-4.5v-7h-6.3
		c-3.5,0-6.2,0.7-8.2,1.9s-3,2.9-3,5.1c0,1.8,0.7,3.3,2,4.4S702.1,704.1,704.2,704.1z"/>
	<path d="M730.5,674.9l0.1,5.2c1.2-1.9,2.6-3.3,4.4-4.3s3.7-1.4,5.9-1.4c5,0,8.2,2.1,9.5,6.2c1.1-2,2.6-3.5,4.5-4.6s4-1.6,6.3-1.6
		c6.8,0,10.3,3.7,10.4,11.1v21.2h-3.5v-20.9c0-2.8-0.6-4.9-1.8-6.3s-3.2-2.1-5.9-2.1c-2.5,0-4.6,0.9-6.4,2.4
		c-1.7,1.6-2.7,3.5-2.9,5.8v21h-3.5v-21.2c0-2.7-0.7-4.7-1.9-6.1s-3.2-2-5.8-2c-2.2,0-4.1,0.6-5.7,1.9s-2.8,3.1-3.5,5.6v21.7h-3.5
		v-31.7L730.5,674.9L730.5,674.9z"/>
	<path d="M792.8,707.2c-2.7,0-5.1-0.7-7.3-2s-3.9-3.2-5.1-5.6s-1.8-5-1.8-8v-1.3c0-3,0.6-5.8,1.8-8.2s2.8-4.4,4.9-5.8
		s4.4-2.1,6.9-2.1c3.8,0,6.9,1.3,9.2,3.9s3.4,6.2,3.4,10.8v2H782v0.7c0,3.6,1,6.6,3.1,9s4.7,3.6,7.8,3.6c1.9,0,3.5-0.3,5-1
		s2.7-1.8,3.9-3.3l2.2,1.7C801.4,705.3,797.7,707.2,792.8,707.2z M792.1,677.3c-2.6,0-4.9,1-6.7,2.9s-2.9,4.5-3.3,7.8h19v-0.4
		c-0.1-3-1-5.5-2.6-7.4S794.8,677.3,792.1,677.3z"/>
	<path d="M816.9,666.8v8.1h6.6v2.9h-6.6v21.1c0,1.8,0.3,3.1,1,3.9s1.7,1.3,3.2,1.3c0.6,0,1.5-0.1,2.8-0.3l0.1,2.8
		c-0.9,0.3-2.2,0.5-3.8,0.5c-2.4,0-4.2-0.7-5.2-2.1s-1.6-3.5-1.6-6.2v-21.2h-5.8v-2.9h5.8v-8.1h3.5V666.8z"/>
	<path d="M830,714.6l-2-1.6c1.8-2.4,2.7-4.9,2.8-7.4v-4.5h3.4v3.7C834.1,708.8,832.8,712.1,830,714.6z"/>
	<path d="M868.6,704.2c2.4,0,4.5-0.7,6.1-2.1s2.5-3.2,2.7-5.3h3.4c-0.1,1.9-0.7,3.7-1.8,5.3s-2.6,2.8-4.4,3.7s-3.8,1.3-5.9,1.3
		c-4.2,0-7.5-1.4-9.9-4.3s-3.6-6.8-3.6-11.7V690c0-3.1,0.5-5.9,1.6-8.3s2.7-4.3,4.7-5.6s4.4-2,7.2-2c3.5,0,6.3,1,8.6,3.1
		s3.5,4.8,3.6,8.2h-3.4c-0.2-2.5-1-4.5-2.7-6s-3.7-2.3-6.2-2.3c-3.2,0-5.6,1.1-7.4,3.4s-2.6,5.5-2.6,9.6v1c0,4,0.9,7.2,2.6,9.5
		S865.4,704.2,868.6,704.2z"/>
	<path d="M885.8,690.3c0-3,0.6-5.8,1.8-8.2s2.9-4.3,5-5.7s4.6-2,7.3-2c4.2,0,7.6,1.5,10.3,4.4s3.9,6.9,3.9,11.8v0.7
		c0,3.1-0.6,5.8-1.8,8.3s-2.8,4.3-5,5.7s-4.6,2-7.4,2c-4.2,0-7.6-1.5-10.2-4.4s-3.9-6.9-3.9-11.8L885.8,690.3L885.8,690.3z
		 M889.3,691.2c0,3.8,1,6.9,2.9,9.3s4.5,3.6,7.7,3.6s5.7-1.2,7.7-3.6s2.9-5.6,2.9-9.6v-0.7c0-2.4-0.4-4.6-1.3-6.7s-2.2-3.6-3.8-4.7
		s-3.5-1.7-5.6-1.7c-3.1,0-5.7,1.2-7.6,3.7s-3,5.7-3,9.6L889.3,691.2L889.3,691.2z"/>
	<path d="M924.7,674.9l0.1,5.4c1.2-2,2.7-3.4,4.5-4.5s3.7-1.5,5.9-1.5c3.4,0,5.9,1,7.6,2.9s2.5,4.8,2.5,8.6v20.8h-3.5v-20.8
		c0-2.8-0.6-4.9-1.8-6.3s-3.1-2.1-5.7-2.1c-2.2,0-4.1,0.7-5.8,2s-2.9,3.2-3.7,5.5v21.7h-3.5v-31.7L924.7,674.9L924.7,674.9z"/>
	<path d="M965.2,689.3h-14v-3h14V689.3z"/>
	<path d="M126.3,770.5c0-1.7-0.7-3.1-2.1-4.2c-1.4-1.1-3.5-1.9-6.3-2.5s-5-1.3-6.5-2.1s-2.7-1.7-3.5-2.8s-1.1-2.5-1.1-4
		c0-2.5,1-4.6,3.1-6.2c2.1-1.6,4.8-2.4,8-2.4c3.5,0,6.4,0.9,8.5,2.6s3.2,4,3.2,6.8h-3.5c0-1.9-0.8-3.4-2.3-4.6s-3.5-1.8-5.9-1.8
		c-2.3,0-4.2,0.5-5.6,1.5s-2.1,2.4-2.1,4s0.6,2.8,1.7,3.7c1.2,0.9,3.3,1.7,6.4,2.4s5.4,1.5,6.9,2.3s2.7,1.8,3.4,3
		c0.7,1.2,1.1,2.5,1.1,4.2c0,2.7-1.1,4.8-3.2,6.4c-2.2,1.6-5,2.4-8.5,2.4c-3.7,0-6.7-0.9-9-2.7s-3.4-4-3.4-6.8h3.5
		c0.1,2.1,1,3.6,2.6,4.8c1.6,1.1,3.7,1.7,6.3,1.7c2.4,0,4.4-0.5,5.9-1.6C125.5,773.5,126.3,772.2,126.3,770.5z"/>
	<path d="M150,779.2c-2.7,0-5.1-0.7-7.3-2s-3.9-3.2-5.1-5.6c-1.2-2.4-1.8-5-1.8-8v-1.3c0-3,0.6-5.8,1.8-8.2s2.8-4.4,4.9-5.8
		s4.4-2.1,6.9-2.1c3.8,0,6.9,1.3,9.2,3.9s3.4,6.2,3.4,10.8v2h-22.6v0.7c0,3.6,1,6.6,3.1,9s4.7,3.6,7.8,3.6c1.9,0,3.5-0.3,5-1
		s2.7-1.8,3.9-3.3l2.2,1.7C158.6,777.3,154.9,779.2,150,779.2z M149.3,749.3c-2.6,0-4.9,1-6.7,2.9s-2.9,4.5-3.3,7.8h19v-0.4
		c-0.1-3-1-5.5-2.6-7.4S152,749.3,149.3,749.3z"/>
	<path d="M174.1,738.8v8.1h6.6v2.9h-6.6v21.1c0,1.8,0.3,3.1,1,3.9c0.6,0.9,1.7,1.3,3.2,1.3c0.6,0,1.5-0.1,2.8-0.3l0.1,2.8
		c-0.9,0.3-2.2,0.5-3.8,0.5c-2.4,0-4.2-0.7-5.2-2.1c-1.1-1.4-1.6-3.5-1.6-6.2v-21.2h-5.8v-2.9h5.8v-8.1h3.5V738.8z"/>
	<path d="M200.2,779.2c-2.7,0-5.1-0.7-7.3-2s-3.9-3.2-5.1-5.6c-1.2-2.4-1.8-5-1.8-8v-1.3c0-3,0.6-5.8,1.8-8.2s2.8-4.4,4.9-5.8
		s4.4-2.1,6.9-2.1c3.8,0,6.9,1.3,9.2,3.9s3.4,6.2,3.4,10.8v2h-22.6v0.7c0,3.6,1,6.6,3.1,9s4.7,3.6,7.8,3.6c1.9,0,3.5-0.3,5-1
		s2.7-1.8,3.9-3.3l2.2,1.7C208.9,777.3,205.1,779.2,200.2,779.2z M199.6,749.3c-2.6,0-4.9,1-6.7,2.9s-2.9,4.5-3.3,7.8h19v-0.4
		c-0.1-3-1-5.5-2.6-7.4S202.3,749.3,199.6,749.3z"/>
	<path d="M224.4,738.8v8.1h6.6v2.9h-6.6v21.1c0,1.8,0.3,3.1,1,3.9c0.6,0.9,1.7,1.3,3.2,1.3c0.6,0,1.5-0.1,2.8-0.3l0.1,2.8
		c-0.9,0.3-2.2,0.5-3.8,0.5c-2.4,0-4.2-0.7-5.2-2.1c-1.1-1.4-1.6-3.5-1.6-6.2v-21.2h-5.8v-2.9h5.8v-8.1h3.5V738.8z"/>
	<path d="M258.6,774.6c-2.1,3.1-5.5,4.6-10.1,4.6c-3.4,0-5.9-1-7.7-2.9s-2.7-4.9-2.7-8.7V747h3.5v20.2c0,6,2.4,9.1,7.3,9.1
		c5.1,0,8.3-2.1,9.6-6.3v-22.9h3.5v31.7h-3.4V774.6z"/>
	<path d="M285.8,749.9c-0.7-0.1-1.5-0.2-2.4-0.2c-2.2,0-4,0.6-5.6,1.8c-1.5,1.2-2.6,3-3.2,5.3v21.8h-3.5v-31.7h3.4l0.1,5
		c1.9-3.8,4.8-5.6,8.9-5.6c1,0,1.7,0.1,2.3,0.4L285.8,749.9z"/>
	<path d="M325,770.5c0-1.7-0.7-3.1-2.1-4.2c-1.4-1.1-3.5-1.9-6.3-2.5s-5-1.3-6.5-2.1s-2.7-1.7-3.5-2.8s-1.1-2.5-1.1-4
		c0-2.5,1-4.6,3.1-6.2c2.1-1.6,4.8-2.4,8-2.4c3.5,0,6.4,0.9,8.5,2.6s3.2,4,3.2,6.8h-3.5c0-1.9-0.8-3.4-2.3-4.6s-3.5-1.8-5.9-1.8
		c-2.3,0-4.2,0.5-5.6,1.5s-2.1,2.4-2.1,4s0.6,2.8,1.7,3.7c1.2,0.9,3.3,1.7,6.4,2.4s5.4,1.5,6.9,2.3s2.7,1.8,3.4,3
		c0.7,1.2,1.1,2.5,1.1,4.2c0,2.7-1.1,4.8-3.2,6.4c-2.2,1.6-5,2.4-8.5,2.4c-3.7,0-6.7-0.9-9-2.7s-3.4-4-3.4-6.8h3.5
		c0.1,2.1,1,3.6,2.6,4.8c1.6,1.1,3.7,1.7,6.3,1.7c2.4,0,4.4-0.5,5.9-1.6C324.2,773.5,325,772.2,325,770.5z"/>
	<path d="M356.4,778.6c-0.4-1-0.6-2.5-0.7-4.4c-1.2,1.6-2.8,2.8-4.7,3.7s-3.9,1.3-6,1.3c-3,0-5.5-0.8-7.4-2.5s-2.8-3.8-2.8-6.4
		c0-3.1,1.3-5.5,3.9-7.3s6.1-2.7,10.7-2.7h6.4v-3.6c0-2.3-0.7-4-2.1-5.3s-3.4-1.9-6.1-1.9c-2.4,0-4.5,0.6-6.1,1.9
		c-1.6,1.2-2.4,2.8-2.4,4.5h-3.5c0-2.5,1.2-4.7,3.5-6.5s5.2-2.8,8.6-2.8c3.5,0,6.3,0.9,8.4,2.7c2,1.8,3.1,4.2,3.1,7.4v15
		c0,3.1,0.3,5.4,1,6.9v0.4h-3.8V778.6z M345.4,776.1c2.3,0,4.4-0.6,6.3-1.7s3.2-2.6,4-4.5v-7h-6.3c-3.5,0-6.2,0.7-8.2,1.9
		s-3,2.9-3,5.1c0,1.8,0.7,3.3,2,4.4S343.2,776.1,345.4,776.1z"/>
	<path d="M367.1,762.5c0-4.9,1.1-8.8,3.3-11.8s5.2-4.4,9-4.4c4.3,0,7.5,1.7,9.8,5.1v-17.8h3.5v45h-3.3l-0.1-4.2
		c-2.2,3.2-5.5,4.8-9.9,4.8c-3.7,0-6.6-1.5-8.8-4.4c-2.2-2.9-3.4-6.9-3.4-11.9v-0.4L367.1,762.5L367.1,762.5z M370.6,763.1
		c0,4,0.8,7.2,2.4,9.6c1.6,2.3,3.9,3.5,6.9,3.5c4.3,0,7.4-1.9,9.2-5.7v-14.9c-1.8-4.1-4.9-6.2-9.1-6.2c-2.9,0-5.2,1.2-6.9,3.5
		S370.6,758.6,370.6,763.1z"/>
	<path d="M401.6,737.7c0-0.7,0.2-1.2,0.6-1.7s1-0.7,1.8-0.7c0.7,0,1.3,0.2,1.8,0.7s0.7,1,0.7,1.7s-0.2,1.2-0.7,1.7
		c-0.4,0.4-1,0.7-1.8,0.7c-0.7,0-1.3-0.2-1.8-0.7C401.8,739,401.6,738.4,401.6,737.7z M405.8,778.6h-3.5v-31.7h3.5V778.6z"/>
	<path d="M440.8,763.1c0,4.9-1.1,8.9-3.3,11.8c-2.2,2.9-5.1,4.4-8.8,4.4c-4.3,0-7.7-1.5-10-4.6v16.2h-3.5V747h3.3l0.2,4.5
		c2.3-3.4,5.6-5.1,9.9-5.1c3.8,0,6.8,1.4,8.9,4.3c2.2,2.9,3.2,6.9,3.2,12L440.8,763.1L440.8,763.1z M437.3,762.5
		c0-4-0.8-7.2-2.5-9.6c-1.7-2.3-4-3.5-6.9-3.5c-2.1,0-4,0.5-5.5,1.6c-1.5,1-2.7,2.5-3.5,4.5v15.2c0.8,1.8,2,3.2,3.6,4.2
		s3.4,1.4,5.5,1.4c2.9,0,5.2-1.2,6.9-3.5C436.4,770.3,437.3,766.9,437.3,762.5z"/>
	<path d="M467.5,770.5c0-1.7-0.7-3.1-2.1-4.2c-1.4-1.1-3.5-1.9-6.3-2.5s-5-1.3-6.5-2.1s-2.7-1.7-3.5-2.8s-1.1-2.5-1.1-4
		c0-2.5,1-4.6,3.1-6.2c2.1-1.6,4.8-2.4,8-2.4c3.5,0,6.4,0.9,8.5,2.6s3.2,4,3.2,6.8h-3.5c0-1.9-0.8-3.4-2.3-4.6s-3.5-1.8-5.9-1.8
		c-2.3,0-4.2,0.5-5.6,1.5s-2.1,2.4-2.1,4s0.6,2.8,1.7,3.7c1.2,0.9,3.3,1.7,6.4,2.4s5.4,1.5,6.9,2.3s2.7,1.8,3.4,3
		c0.7,1.2,1.1,2.5,1.1,4.2c0,2.7-1.1,4.8-3.2,6.4c-2.2,1.6-5,2.4-8.5,2.4c-3.7,0-6.7-0.9-9-2.7s-3.4-4-3.4-6.8h3.5
		c0.1,2.1,1,3.6,2.6,4.8c1.6,1.1,3.7,1.7,6.3,1.7c2.4,0,4.4-0.5,5.9-1.6C466.8,773.5,467.5,772.2,467.5,770.5z"/>
	<path d="M490.6,776.2c2.4,0,4.5-0.7,6.1-2.1c1.7-1.4,2.5-3.2,2.7-5.3h3.4c-0.1,1.9-0.7,3.7-1.8,5.3s-2.6,2.8-4.4,3.7
		s-3.8,1.3-5.9,1.3c-4.2,0-7.5-1.4-9.9-4.3s-3.6-6.8-3.6-11.7V762c0-3.1,0.5-5.9,1.6-8.3c1.1-2.4,2.7-4.3,4.7-5.6s4.4-2,7.2-2
		c3.5,0,6.3,1,8.6,3.1s3.5,4.8,3.6,8.2h-3.4c-0.2-2.5-1.1-4.5-2.7-6s-3.7-2.3-6.2-2.3c-3.2,0-5.6,1.1-7.4,3.4
		c-1.7,2.3-2.6,5.5-2.6,9.6v1c0,4,0.9,7.2,2.6,9.5C485,775.1,487.5,776.2,490.6,776.2z"/>
	<path d="M509.6,737.7c0-0.7,0.2-1.2,0.6-1.7s1-0.7,1.8-0.7c0.7,0,1.3,0.2,1.8,0.7s0.7,1,0.7,1.7s-0.2,1.2-0.7,1.7
		c-0.4,0.4-1,0.7-1.8,0.7c-0.7,0-1.3-0.2-1.8-0.7C509.8,739,509.6,738.4,509.6,737.7z M513.7,778.6h-3.5v-31.7h3.5V778.6z"/>
	<path d="M526.6,746.9l0.1,5.4c1.2-2,2.7-3.4,4.5-4.5c1.8-1,3.7-1.5,5.9-1.5c3.4,0,5.9,1,7.6,2.9c1.7,1.9,2.5,4.8,2.5,8.6v20.8h-3.5
		v-20.8c0-2.8-0.6-4.9-1.8-6.3c-1.2-1.4-3.1-2.1-5.7-2.1c-2.2,0-4.1,0.7-5.8,2s-2.9,3.2-3.7,5.5v21.7h-3.5v-31.7L526.6,746.9
		L526.6,746.9z"/>
	<path d="M554.8,762.5c0-5,1.1-8.9,3.3-11.8s5.2-4.4,9-4.4c4.3,0,7.6,1.7,9.8,5.2l0.2-4.6h3.3V778c0,4.1-1.1,7.3-3.4,9.7
		s-5.4,3.6-9.3,3.6c-2.2,0-4.3-0.5-6.3-1.5s-3.6-2.3-4.7-3.9l2-2.1c2.5,3,5.4,4.6,8.8,4.6c2.9,0,5.2-0.9,6.9-2.6s2.5-4.1,2.5-7.2v-4
		c-2.2,3.1-5.5,4.7-9.8,4.7c-3.7,0-6.6-1.5-8.8-4.4S555,768,555,763v-0.5H554.8z M558.4,763.1c0,4,0.8,7.2,2.4,9.6
		c1.6,2.3,3.9,3.5,6.9,3.5c4.3,0,7.4-1.9,9.2-5.8v-14.7c-0.8-2-2-3.6-3.5-4.6c-1.5-1.1-3.4-1.6-5.6-1.6c-2.9,0-5.2,1.2-6.9,3.5
		S558.4,758.6,558.4,763.1z"/>
	<path d="M616.4,779.2c-2.7,0-5.1-0.7-7.3-2s-3.9-3.2-5.1-5.6c-1.2-2.4-1.8-5-1.8-8v-1.3c0-3,0.6-5.8,1.8-8.2s2.8-4.4,4.9-5.8
		s4.4-2.1,6.9-2.1c3.8,0,6.9,1.3,9.2,3.9s3.4,6.2,3.4,10.8v2h-22.6v0.7c0,3.6,1,6.6,3.1,9s4.7,3.6,7.8,3.6c1.9,0,3.5-0.3,5-1
		s2.7-1.8,3.9-3.3l2.2,1.7C625,777.3,621.3,779.2,616.4,779.2z M615.7,749.3c-2.6,0-4.9,1-6.7,2.9s-2.9,4.5-3.3,7.8h19v-0.4
		c-0.1-3-1-5.5-2.6-7.4S618.4,749.3,615.7,749.3z"/>
	<path d="M639,778.6h-3.5v-45h3.5V778.6z"/>
	<path d="M648.3,737.7c0-0.7,0.2-1.2,0.6-1.7c0.4-0.5,1-0.7,1.8-0.7c0.7,0,1.3,0.2,1.8,0.7s0.7,1,0.7,1.7s-0.2,1.2-0.7,1.7
		c-0.4,0.4-1,0.7-1.8,0.7c-0.7,0-1.3-0.2-1.8-0.7C648.6,739,648.3,738.4,648.3,737.7z M652.5,778.6H649v-31.7h3.5V778.6z"/>
	<path d="M667.4,738.8v8.1h6.6v2.9h-6.6v21.1c0,1.8,0.3,3.1,1,3.9c0.6,0.9,1.7,1.3,3.2,1.3c0.6,0,1.5-0.1,2.8-0.3l0.1,2.8
		c-0.9,0.3-2.2,0.5-3.8,0.5c-2.4,0-4.2-0.7-5.2-2.1c-1.1-1.4-1.6-3.5-1.6-6.2v-21.2h-5.8v-2.9h5.8v-8.1h3.5V738.8z"/>
	<path d="M695.9,749.9c-0.7-0.1-1.5-0.2-2.4-0.2c-2.2,0-4,0.6-5.6,1.8c-1.5,1.2-2.6,3-3.2,5.3v21.8h-3.5v-31.7h3.4l0.1,5
		c1.9-3.8,4.8-5.6,8.9-5.6c1,0,1.7,0.1,2.3,0.4V749.9z"/>
	<path d="M697.1,786.6L695,785c1.8-2.4,2.7-4.9,2.8-7.4v-4.5h3.4v3.7C701.2,780.8,699.9,784.1,697.1,786.6z"/>
	<path d="M742.9,770.5c0-1.7-0.7-3.1-2.1-4.2c-1.4-1.1-3.5-1.9-6.3-2.5s-5-1.3-6.5-2.1s-2.7-1.7-3.5-2.8s-1.1-2.5-1.1-4
		c0-2.5,1-4.6,3.1-6.2c2.1-1.6,4.8-2.4,8-2.4c3.5,0,6.4,0.9,8.5,2.6s3.2,4,3.2,6.8h-3.5c0-1.9-0.8-3.4-2.3-4.6s-3.5-1.8-5.9-1.8
		c-2.3,0-4.2,0.5-5.6,1.5c-1.4,1-2.1,2.4-2.1,4s0.6,2.8,1.7,3.7c1.2,0.9,3.3,1.7,6.4,2.4s5.4,1.5,6.9,2.3s2.7,1.8,3.4,3
		s1.1,2.5,1.1,4.2c0,2.7-1.1,4.8-3.2,6.4c-2.2,1.6-5,2.4-8.5,2.4c-3.7,0-6.7-0.9-9-2.7s-3.4-4-3.4-6.8h3.5c0.1,2.1,1,3.6,2.6,4.8
		c1.6,1.1,3.7,1.7,6.3,1.7c2.4,0,4.4-0.5,5.9-1.6C742.2,773.5,742.9,772.2,742.9,770.5z"/>
	<path d="M766.6,779.2c-2.7,0-5.1-0.7-7.3-2s-3.9-3.2-5.1-5.6c-1.2-2.4-1.8-5-1.8-8v-1.3c0-3,0.6-5.8,1.8-8.2s2.8-4.4,4.9-5.8
		s4.4-2.1,6.9-2.1c3.8,0,6.9,1.3,9.2,3.9s3.4,6.2,3.4,10.8v2H756v0.7c0,3.6,1,6.6,3.1,9s4.7,3.6,7.8,3.6c1.9,0,3.5-0.3,5-1
		s2.7-1.8,3.9-3.3l2.2,1.7C775.2,777.3,771.5,779.2,766.6,779.2z M765.9,749.3c-2.6,0-4.9,1-6.7,2.9s-2.9,4.5-3.3,7.8h19v-0.4
		c-0.1-3-1-5.5-2.6-7.4S768.6,749.3,765.9,749.3z"/>
	<path d="M783.9,762.5c0-4.9,1.1-8.8,3.3-11.8s5.2-4.4,9-4.4c4.3,0,7.5,1.7,9.8,5.1v-17.8h3.5v45h-3.3l-0.1-4.2
		c-2.2,3.2-5.5,4.8-9.9,4.8c-3.7,0-6.6-1.5-8.8-4.4s-3.4-6.9-3.4-11.9L783.9,762.5L783.9,762.5z M787.4,763.1c0,4,0.8,7.2,2.4,9.6
		s3.9,3.5,6.9,3.5c4.3,0,7.4-1.9,9.2-5.7v-14.9c-1.8-4.1-4.9-6.2-9.1-6.2c-2.9,0-5.2,1.2-6.9,3.5S787.4,758.6,787.4,763.1z"/>
	<path d="M831.8,762.5c0-4.9,1.1-8.8,3.3-11.8s5.2-4.4,9-4.4c4.3,0,7.5,1.7,9.8,5.1v-17.8h3.5v45h-3.3l-0.1-4.2
		c-2.2,3.2-5.5,4.8-9.9,4.8c-3.7,0-6.6-1.5-8.8-4.4s-3.4-6.9-3.4-11.9L831.8,762.5L831.8,762.5z M835.4,763.1c0,4,0.8,7.2,2.4,9.6
		s3.9,3.5,6.9,3.5c4.3,0,7.4-1.9,9.2-5.7v-14.9c-1.8-4.1-4.9-6.2-9.1-6.2c-2.9,0-5.2,1.2-6.9,3.5S835.4,758.6,835.4,763.1z"/>
	<path d="M866.4,737.7c0-0.7,0.2-1.2,0.6-1.7s1-0.7,1.8-0.7s1.3,0.2,1.8,0.7s0.7,1,0.7,1.7s-0.2,1.2-0.7,1.7c-0.4,0.4-1,0.7-1.8,0.7
		s-1.3-0.2-1.8-0.7C866.6,739,866.4,738.4,866.4,737.7z M870.5,778.6H867v-31.7h3.5V778.6z"/>
	<path d="M900,778.6c-0.4-1-0.6-2.5-0.7-4.4c-1.2,1.6-2.8,2.8-4.7,3.7s-3.9,1.3-6,1.3c-3,0-5.5-0.8-7.4-2.5s-2.8-3.8-2.8-6.4
		c0-3.1,1.3-5.5,3.9-7.3s6.1-2.7,10.7-2.7h6.4v-3.6c0-2.3-0.7-4-2.1-5.3s-3.4-1.9-6.1-1.9c-2.4,0-4.5,0.6-6.1,1.9s-2.4,2.8-2.4,4.5
		h-3.5c0-2.5,1.2-4.7,3.5-6.5s5.2-2.8,8.6-2.8c3.5,0,6.3,0.9,8.4,2.7s3.1,4.2,3.1,7.4v15c0,3.1,0.3,5.4,1,6.9v0.4H900V778.6z
		 M889,776.1c2.3,0,4.4-0.6,6.3-1.7s3.2-2.6,4-4.5v-7H893c-3.5,0-6.2,0.7-8.2,1.9s-3,2.9-3,5.1c0,1.8,0.7,3.3,2,4.4
		S886.9,776.1,889,776.1z"/>
	<path d="M915.4,746.9l0.1,5.2c1.2-1.9,2.6-3.3,4.4-4.3s3.7-1.4,5.9-1.4c5,0,8.2,2.1,9.5,6.2c1.1-2,2.6-3.5,4.5-4.6s4-1.6,6.3-1.6
		c6.8,0,10.3,3.7,10.4,11.1v21.2H953v-20.9c0-2.8-0.6-4.9-1.8-6.3s-3.2-2.1-5.9-2.1c-2.5,0-4.6,0.9-6.4,2.4s-2.7,3.5-2.9,5.8v21
		h-3.5v-21.2c0-2.7-0.7-4.7-1.9-6.1s-3.2-2-5.8-2c-2.2,0-4.1,0.6-5.7,1.9s-2.8,3.1-3.5,5.6v21.7H912v-31.7L915.4,746.9L915.4,746.9z
		"/>
	<path d="M110.7,818.9l0.1,5.4c1.2-2,2.7-3.4,4.5-4.5c1.8-1,3.7-1.5,5.9-1.5c3.4,0,5.9,1,7.6,2.9c1.7,1.9,2.5,4.8,2.5,8.6v20.8h-3.5
		v-20.8c0-2.8-0.6-4.9-1.8-6.3c-1.2-1.4-3.1-2.1-5.7-2.1c-2.2,0-4.1,0.7-5.8,2s-2.9,3.2-3.7,5.5v21.7h-3.5v-31.7L110.7,818.9
		L110.7,818.9z"/>
	<path d="M138.3,834.3c0-3,0.6-5.8,1.8-8.2s2.9-4.3,5-5.7c2.2-1.4,4.6-2,7.3-2c4.2,0,7.6,1.5,10.3,4.4c2.6,3,3.9,6.9,3.9,11.8v0.7
		c0,3.1-0.6,5.8-1.8,8.3s-2.8,4.3-5,5.7c-2.1,1.3-4.6,2-7.4,2c-4.2,0-7.6-1.5-10.2-4.4c-2.6-3-3.9-6.9-3.9-11.8L138.3,834.3
		L138.3,834.3z M141.9,835.2c0,3.8,1,6.9,2.9,9.3s4.5,3.6,7.7,3.6s5.7-1.2,7.7-3.6s2.9-5.6,2.9-9.6v-0.7c0-2.4-0.4-4.6-1.3-6.7
		c-0.9-2-2.2-3.6-3.8-4.7c-1.6-1.1-3.5-1.7-5.6-1.7c-3.1,0-5.7,1.2-7.6,3.7c-2,2.5-3,5.7-3,9.6v0.8L141.9,835.2L141.9,835.2z"/>
	<path d="M177.2,818.9l0.1,5.4c1.2-2,2.7-3.4,4.5-4.5c1.8-1,3.7-1.5,5.9-1.5c3.4,0,5.9,1,7.6,2.9c1.7,1.9,2.5,4.8,2.5,8.6v20.8h-3.5
		v-20.8c0-2.8-0.6-4.9-1.8-6.3c-1.2-1.4-3.1-2.1-5.7-2.1c-2.2,0-4.1,0.7-5.8,2s-2.9,3.2-3.7,5.5v21.7h-3.5v-31.7L177.2,818.9
		L177.2,818.9z"/>
	<path d="M227.2,846.6c-2.1,3.1-5.5,4.6-10.1,4.6c-3.4,0-5.9-1-7.7-2.9s-2.7-4.9-2.7-8.7V819h3.5v20.2c0,6,2.4,9.1,7.3,9.1
		c5.1,0,8.3-2.1,9.6-6.3v-22.9h3.5v31.7h-3.4L227.2,846.6z"/>
	<path d="M243,818.9l0.1,5.2c1.2-1.9,2.6-3.3,4.4-4.3s3.7-1.4,5.9-1.4c5,0,8.2,2.1,9.5,6.2c1.1-2,2.6-3.5,4.5-4.6s4-1.6,6.3-1.6
		c6.8,0,10.3,3.7,10.4,11.1v21.2h-3.5v-20.9c0-2.8-0.6-4.9-1.8-6.3s-3.2-2.1-5.9-2.1c-2.5,0-4.6,0.9-6.4,2.4
		c-1.7,1.6-2.7,3.5-2.9,5.8v21h-3.5v-21.2c0-2.7-0.7-4.7-1.9-6.1s-3.2-2-5.8-2c-2.2,0-4.1,0.6-5.7,1.9s-2.8,3.1-3.5,5.6v21.7h-3.5
		v-31.7L243,818.9L243,818.9z"/>
	<path d="M303,845.6l9.3-26.7h3.8L302.5,856l-0.7,1.6c-1.7,3.8-4.4,5.8-8.1,5.8c-0.8,0-1.7-0.1-2.7-0.4v-2.9l1.8,0.2
		c1.7,0,3.1-0.4,4.2-1.3c1.1-0.8,2-2.3,2.7-4.4l1.6-4.3l-12-31.4h3.8L303,845.6z"/>
	<path d="M348.3,851.2c-2.7,0-5.1-0.7-7.3-2c-2.2-1.3-3.9-3.2-5.1-5.6c-1.2-2.4-1.8-5-1.8-8v-1.3c0-3,0.6-5.8,1.8-8.2
		c1.2-2.4,2.8-4.4,4.9-5.8s4.4-2.1,6.9-2.1c3.8,0,6.9,1.3,9.2,3.9s3.4,6.2,3.4,10.8v2h-22.6v0.7c0,3.6,1,6.6,3.1,9s4.7,3.6,7.8,3.6
		c1.9,0,3.5-0.3,5-1s2.7-1.8,3.9-3.3l2.2,1.7C357,849.3,353.2,851.2,348.3,851.2z M347.7,821.3c-2.6,0-4.9,1-6.7,2.9
		c-1.8,1.9-2.9,4.5-3.3,7.8h19v-0.4c-0.1-3-1-5.5-2.6-7.4S350.4,821.3,347.7,821.3z"/>
	<path d="M366.9,809.7c0-0.7,0.2-1.2,0.6-1.7s1-0.7,1.8-0.7c0.7,0,1.3,0.2,1.8,0.7s0.7,1,0.7,1.7s-0.2,1.2-0.7,1.7
		c-0.4,0.4-1,0.7-1.8,0.7c-0.7,0-1.3-0.2-1.8-0.7C367.1,811,366.9,810.4,366.9,809.7z M371,850.6h-3.5v-31.7h3.5V850.6z"/>
	<path d="M395.2,821.9c-0.7-0.1-1.5-0.2-2.4-0.2c-2.2,0-4,0.6-5.6,1.8c-1.5,1.2-2.6,3-3.2,5.3v21.8h-3.5v-31.7h3.4l0.1,5
		c1.9-3.8,4.8-5.6,8.9-5.6c1,0,1.7,0.1,2.3,0.4L395.2,821.9z"/>
	<path d="M403.9,818.9l0.1,5.2c1.2-1.9,2.6-3.3,4.4-4.3s3.7-1.4,5.9-1.4c5,0,8.2,2.1,9.5,6.2c1.1-2,2.6-3.5,4.5-4.6s4-1.6,6.3-1.6
		c6.8,0,10.3,3.7,10.4,11.1v21.2h-3.5v-20.9c0-2.8-0.6-4.9-1.8-6.3s-3.2-2.1-5.9-2.1c-2.5,0-4.6,0.9-6.4,2.4
		c-1.7,1.6-2.7,3.5-2.9,5.8v21H421v-21.2c0-2.7-0.7-4.7-1.9-6.1s-3.2-2-5.8-2c-2.2,0-4.1,0.6-5.7,1.9s-2.8,3.1-3.5,5.6v21.7h-3.5
		v-31.7L403.9,818.9L403.9,818.9z"/>
	<path d="M451.9,834.3c0-3,0.6-5.8,1.8-8.2c1.2-2.4,2.9-4.3,5-5.7c2.2-1.4,4.6-2,7.3-2c4.2,0,7.6,1.5,10.3,4.4
		c2.6,3,3.9,6.9,3.9,11.8v0.7c0,3.1-0.6,5.8-1.8,8.3c-1.2,2.5-2.8,4.3-5,5.7c-2.1,1.3-4.6,2-7.4,2c-4.2,0-7.6-1.5-10.2-4.4
		c-2.6-3-3.9-6.9-3.9-11.8L451.9,834.3L451.9,834.3z M455.4,835.2c0,3.8,1,6.9,2.9,9.3s4.5,3.6,7.7,3.6s5.7-1.2,7.7-3.6
		s2.9-5.6,2.9-9.6v-0.7c0-2.4-0.4-4.6-1.3-6.7c-0.9-2-2.2-3.6-3.8-4.7c-1.6-1.1-3.5-1.7-5.6-1.7c-3.1,0-5.7,1.2-7.6,3.7
		c-2,2.5-3,5.7-3,9.6L455.4,835.2L455.4,835.2z"/>
	<path d="M486.1,834.5c0-4.9,1.1-8.8,3.3-11.8s5.2-4.4,9-4.4c4.3,0,7.5,1.7,9.8,5.1v-17.8h3.5v45h-3.3l-0.1-4.2
		c-2.2,3.2-5.5,4.8-9.9,4.8c-3.7,0-6.6-1.5-8.8-4.4c-2.2-2.9-3.4-6.9-3.4-11.9v-0.4L486.1,834.5L486.1,834.5z M489.6,835.1
		c0,4,0.8,7.2,2.4,9.6c1.6,2.3,3.9,3.5,6.9,3.5c4.3,0,7.4-1.9,9.2-5.7v-14.9c-1.8-4.1-4.9-6.2-9.1-6.2c-2.9,0-5.2,1.2-6.9,3.5
		S489.6,830.6,489.6,835.1z"/>
	<path d="M540.8,810.8v8.1h6.6v2.9h-6.6v21.1c0,1.8,0.3,3.1,1,3.9c0.6,0.9,1.7,1.3,3.2,1.3c0.6,0,1.5-0.1,2.8-0.3l0.1,2.8
		c-0.9,0.3-2.2,0.5-3.8,0.5c-2.4,0-4.2-0.7-5.2-2.1c-1.1-1.4-1.6-3.5-1.6-6.2v-21.2h-5.8v-2.9h5.8v-8.1h3.5V810.8z"/>
	<path d="M567,851.2c-2.7,0-5.1-0.7-7.3-2s-3.9-3.2-5.1-5.6c-1.2-2.4-1.8-5-1.8-8v-1.3c0-3,0.6-5.8,1.8-8.2s2.8-4.4,4.9-5.8
		s4.4-2.1,6.9-2.1c3.8,0,6.9,1.3,9.2,3.9s3.4,6.2,3.4,10.8v2h-22.6v0.7c0,3.6,1,6.6,3.1,9s4.7,3.6,7.8,3.6c1.9,0,3.5-0.3,5-1
		s2.7-1.8,3.9-3.3l2.2,1.7C575.6,849.3,571.9,851.2,567,851.2z M566.3,821.3c-2.6,0-4.9,1-6.7,2.9s-2.9,4.5-3.3,7.8h19v-0.4
		c-0.1-3-1-5.5-2.6-7.4S569,821.3,566.3,821.3z"/>
	<path d="M588.9,818.9l0.1,5.2c1.2-1.9,2.6-3.3,4.4-4.3s3.7-1.4,5.9-1.4c5,0,8.2,2.1,9.5,6.2c1.1-2,2.6-3.5,4.5-4.6s4-1.6,6.3-1.6
		c6.8,0,10.3,3.7,10.4,11.1v21.2h-3.5v-20.9c0-2.8-0.6-4.9-1.8-6.3s-3.2-2.1-5.9-2.1c-2.5,0-4.6,0.9-6.4,2.4
		c-1.7,1.6-2.7,3.5-2.9,5.8v21H606v-21.2c0-2.7-0.7-4.7-1.9-6.1s-3.2-2-5.8-2c-2.2,0-4.1,0.6-5.7,1.9s-2.8,3.1-3.5,5.6v21.7h-3.5
		v-31.7L588.9,818.9L588.9,818.9z"/>
	<path d="M664.3,835.1c0,4.9-1.1,8.9-3.3,11.8c-2.2,2.9-5.1,4.4-8.8,4.4c-4.3,0-7.7-1.5-10-4.6v16.2h-3.5V819h3.3l0.2,4.5
		c2.3-3.4,5.6-5.1,9.9-5.1c3.8,0,6.8,1.4,8.9,4.3c2.2,2.9,3.2,6.9,3.2,12L664.3,835.1L664.3,835.1z M660.8,834.5
		c0-4-0.8-7.2-2.5-9.6c-1.7-2.3-4-3.5-6.9-3.5c-2.1,0-4,0.5-5.5,1.6c-1.5,1-2.7,2.5-3.5,4.5v15.2c0.8,1.8,2,3.2,3.6,4.2
		s3.4,1.4,5.5,1.4c2.9,0,5.2-1.2,6.9-3.5C660,842.3,660.8,838.9,660.8,834.5z"/>
	<path d="M670.2,834.3c0-3,0.6-5.8,1.8-8.2s2.9-4.3,5-5.7c2.2-1.4,4.6-2,7.3-2c4.2,0,7.6,1.5,10.3,4.4c2.6,3,3.9,6.9,3.9,11.8v0.7
		c0,3.1-0.6,5.8-1.8,8.3s-2.8,4.3-5,5.7c-2.1,1.3-4.6,2-7.4,2c-4.2,0-7.6-1.5-10.2-4.4c-2.6-3-3.9-6.9-3.9-11.8L670.2,834.3
		L670.2,834.3z M673.7,835.2c0,3.8,1,6.9,2.9,9.3s4.5,3.6,7.7,3.6s5.7-1.2,7.7-3.6s2.9-5.6,2.9-9.6v-0.7c0-2.4-0.4-4.6-1.3-6.7
		c-0.9-2-2.2-3.6-3.8-4.7c-1.6-1.1-3.5-1.7-5.6-1.7c-3.1,0-5.7,1.2-7.6,3.7c-2,2.5-3,5.7-3,9.6L673.7,835.2L673.7,835.2z"/>
	<path d="M720.4,821.9c-0.7-0.1-1.5-0.2-2.4-0.2c-2.2,0-4,0.6-5.6,1.8c-1.5,1.2-2.6,3-3.2,5.3v21.8h-3.5v-31.7h3.4l0.1,5
		c1.9-3.8,4.8-5.6,8.9-5.6c1,0,1.7,0.1,2.3,0.4V821.9z"/>
	<path d="M722,848.5c0-0.7,0.2-1.3,0.7-1.7s1-0.7,1.8-0.7s1.4,0.2,1.8,0.7c0.4,0.5,0.7,1.1,0.7,1.7s-0.2,1.2-0.7,1.7
		c-0.4,0.4-1.1,0.7-1.8,0.7c-0.8,0-1.4-0.2-1.8-0.7S722,849.2,722,848.5z"/>
</g>
</svg>
