<?xml version="1.0" encoding="utf-8"?>
<!-- Generator: Adobe Illustrator 22.1.0, SVG Export Plug-In . SVG Version: 6.00 Build 0)  -->
<svg version="1.1" id="Ebene_1" xmlns="http://www.w3.org/2000/svg" xmlns:xlink="http://www.w3.org/1999/xlink" x="0px" y="0px"
	 viewBox="0 0 2100 900" style="enable-background:new 0 0 2100 900;" xml:space="preserve">
<style type="text/css">
	.st0{fill:#430D33;}
	.st1{fill:#648F66;}
	.st2{fill:#FFFFFF;}
</style>
<rect class="st0" width="2100" height="900"/>
<title>ubuntu_farben</title>
<path class="st1" d="M259.9,738.7c-62.4,0-122.9-12.2-179.9-36.3c-55-23.3-104.5-56.6-146.9-99c-42.4-42.4-75.8-91.9-99-146.9
	c-24.1-57-36.3-117.5-36.3-179.9s12.2-122.9,36.3-179.9c23.3-55,56.6-104.5,99-146.9c42.4-42.4,91.9-75.8,146.9-99
	c57-24.1,117.5-36.3,179.9-36.3s122.9,12.2,179.9,36.3c55,23.3,104.5,56.6,146.9,99c42.4,42.4,75.8,91.9,99,146.9
	c24.1,57,36.3,117.5,36.3,179.9s-12.2,122.9-36.3,179.9c-23.3,55-56.6,104.5-99,146.9c-42.4,42.4-91.9,75.8-146.9,99
	C382.8,726.5,322.3,738.7,259.9,738.7z M259.9-125.7c-54.3,0-107,10.6-156.5,31.6C55.5-73.8,12.5-44.8-24.5-7.9
	c-36.9,36.9-65.9,80-86.2,127.8c-21,49.6-31.6,102.2-31.6,156.5c0,54.3,10.6,107,31.6,156.5c20.3,47.9,49.3,90.9,86.2,127.8
	c36.9,36.9,80,65.9,127.8,86.2c49.6,21,102.2,31.6,156.5,31.6c54.3,0,107-10.6,156.5-31.6c47.9-20.3,90.9-49.3,127.8-86.2
	c36.9-36.9,65.9-80,86.2-127.8c21-49.6,31.6-102.2,31.6-156.5c0-54.3-10.6-107-31.6-156.5c-20.3-47.9-49.3-90.9-86.2-127.8
	c-36.9-36.9-80-65.9-127.8-86.2C366.9-115.1,314.2-125.7,259.9-125.7z"/>
<path class="st1" d="M1355.4,1418.6c-62.4,0-122.9-12.2-179.9-36.3c-55-23.3-104.5-56.6-146.9-99c-42.4-42.4-75.8-91.9-99-146.9
	c-24.1-57-36.3-117.5-36.3-179.9s12.2-122.9,36.3-179.9c23.3-55,56.6-104.5,99-146.9c42.4-42.4,91.9-75.8,146.9-99
	c57-24.1,117.5-36.3,179.9-36.3s122.9,12.2,179.9,36.3c55,23.3,104.5,56.6,146.9,99c42.4,42.4,75.8,91.9,99,146.9
	c24.1,57,36.3,117.5,36.3,179.9s-12.2,122.9-36.3,179.9c-23.3,55-56.6,104.5-99,146.9c-42.4,42.4-91.9,75.8-146.9,99
	C1478.4,1406.3,1417.8,1418.6,1355.4,1418.6z M1355.4,554.2c-54.3,0-107,10.6-156.5,31.6C1151,606,1108,635,1071.1,672
	c-36.9,36.9-65.9,80-86.2,127.8c-21,49.6-31.6,102.2-31.6,156.5s10.6,107,31.6,156.5c20.3,47.9,49.3,90.9,86.2,127.8
	c36.9,36.9,80,65.9,127.8,86.2c49.6,21,102.2,31.6,156.5,31.6s107-10.6,156.5-31.6c47.9-20.3,90.9-49.3,127.8-86.2
	c36.9-36.9,65.9-80,86.2-127.8c21-49.6,31.6-102.2,31.6-156.5s-10.6-107-31.6-156.5c-20.3-47.9-49.3-90.9-86.2-127.8
	c-36.9-36.9-80-66-127.8-86.2C1462.4,564.8,1409.8,554.2,1355.4,554.2z"/>
<path class="st1" d="M1899.6,554.2c-62.4,0-122.9-12.2-179.9-36.3c-55-23.3-104.5-56.6-146.9-99c-42.4-42.4-75.8-91.9-99-146.9
	c-24.1-57-36.3-117.5-36.3-179.9s12.2-122.9,36.3-179.9c23.3-55,56.6-104.5,99-146.9c42.4-42.4,91.9-75.8,146.9-99
	c57-24.1,117.5-36.3,179.9-36.3s122.9,12.2,179.9,36.3c55,23.3,104.5,56.6,146.9,99c42.4,42.4,75.8,91.9,99,146.9
	c24.1,57,36.3,117.5,36.3,179.9s-12.2,122.9-36.3,179.9c-23.3,55-56.6,104.5-99,146.9c-42.4,42.4-91.9,75.8-146.9,99
	C2022.5,542,1962,554.2,1899.6,554.2z M1899.6-310.2c-54.3,0-107,10.6-156.5,31.6c-47.9,20.3-90.9,49.3-127.8,86.2
	c-36.9,36.9-65.9,80-86.2,127.8C1508-15,1497.4,37.7,1497.4,92c0,54.3,10.6,107,31.6,156.5c20.3,47.9,49.3,90.9,86.2,127.8
	c36.9,36.9,80,65.9,127.8,86.2c49.6,21,102.2,31.6,156.5,31.6s107-10.6,156.5-31.6c47.9-20.3,90.9-49.3,127.8-86.2
	c36.9-36.9,65.9-80,86.2-127.8c21-49.6,31.6-102.2,31.6-156.5s-10.6-107-31.6-156.5c-20.3-47.9-49.3-90.9-86.2-127.8
	c-36.9-36.9-80-65.9-127.8-86.2C2006.6-299.6,1953.9-310.2,1899.6-310.2z"/>
<g>
	<path class="st2" d="M559.7,450.1h-48.2v95.7h-43.2V297h87.5c28.7,0,50.9,6.4,66.5,19.3c15.6,12.9,23.4,31.5,23.4,55.9
		c0,16.6-4,30.6-12,41.8c-8,11.2-19.2,19.9-33.6,25.9L656,543.6v2.2h-46.3L559.7,450.1z M511.5,415.3H556c14.6,0,26-3.7,34.2-11
		s12.3-17.4,12.3-30.2c0-13.3-3.8-23.6-11.4-30.9c-7.6-7.3-18.9-11-33.9-11.3h-45.6V415.3z"/>
	<path class="st2" d="M674.9,451.7c0-18.1,3.6-34.4,10.8-49s17.3-25.7,30.2-33.5c13-7.8,27.9-11.7,44.8-11.7c25,0,45.2,8,60.8,24.1
		s24,37.4,25.2,63.9l0.2,9.7c0,18.2-3.5,34.5-10.5,48.9s-17,25.5-30.1,33.3c-13,7.9-28.1,11.8-45.2,11.8c-26.1,0-47-8.7-62.6-26.1
		c-15.7-17.4-23.5-40.5-23.5-69.5V451.7z M716.5,455.2c0,19,3.9,33.9,11.8,44.7c7.9,10.8,18.8,16.2,32.8,16.2s24.9-5.5,32.7-16.4
		c7.8-10.9,11.7-26.9,11.7-48c0-18.7-4-33.5-12-44.4c-8-10.9-18.9-16.4-32.7-16.4c-13.6,0-24.3,5.4-32.3,16.1
		C720.4,417.7,716.5,433.8,716.5,455.2z"/>
	<path class="st2" d="M1044.2,455.2c0,28.7-6.4,51.6-19.2,68.5c-12.8,17-30.4,25.5-52.9,25.5c-21.6,0-38.5-7.8-50.6-23.4l-2.1,20
		h-37.6V283.3h41.5v95.4c12-14.1,28.1-21.2,48.4-21.2c22.6,0,40.3,8.4,53.1,25.1c12.9,16.7,19.3,40.2,19.3,70.2V455.2z
		 M1002.7,451.7c0-20.1-3.5-35.1-10.6-45.1c-7.1-10-17.3-15-30.8-15c-18,0-30.6,7.9-37.9,23.6v76.2c7.4,16.1,20.2,24.1,38.3,24.1
		c13,0,23-4.8,30.1-14.5c7.1-9.7,10.7-24.3,10.9-43.9V451.7z"/>
	<path class="st2" d="M1071.2,451.7c0-18.1,3.6-34.4,10.8-49s17.3-25.7,30.2-33.5c13-7.8,27.9-11.7,44.8-11.7c25,0,45.2,8,60.8,24.1
		s24,37.4,25.2,63.9l0.2,9.7c0,18.2-3.5,34.5-10.5,48.9s-17,25.5-30.1,33.3c-13,7.9-28.1,11.8-45.2,11.8c-26.1,0-47-8.7-62.6-26.1
		c-15.7-17.4-23.5-40.5-23.5-69.5V451.7z M1112.8,455.2c0,19,3.9,33.9,11.8,44.7c7.9,10.8,18.8,16.2,32.8,16.2s24.9-5.5,32.7-16.4
		c7.8-10.9,11.7-26.9,11.7-48c0-18.7-4-33.5-12-44.4c-8-10.9-18.9-16.4-32.7-16.4c-13.6,0-24.3,5.4-32.3,16.1
		C1116.8,417.7,1112.8,433.8,1112.8,455.2z"/>
	<path class="st2" d="M1330.3,316v44.9h32.6v30.8h-32.6v103.2c0,7.1,1.4,12.2,4.2,15.3c2.8,3.1,7.8,4.7,15,4.7
		c4.8,0,9.6-0.6,14.5-1.7v32.1c-9.5,2.6-18.6,3.9-27.3,3.9c-31.9,0-47.9-17.6-47.9-52.8V391.7h-30.4v-30.8h30.4V316H1330.3z"/>
	<path class="st2" d="M1381.8,451.7c0-18.1,3.6-34.4,10.8-49s17.3-25.7,30.2-33.5c13-7.8,27.9-11.7,44.8-11.7c25,0,45.2,8,60.8,24.1
		c15.6,16.1,24,37.4,25.2,63.9l0.2,9.7c0,18.2-3.5,34.5-10.5,48.9c-7,14.4-17,25.5-30.1,33.3c-13,7.9-28.1,11.8-45.2,11.8
		c-26.1,0-47-8.7-62.6-26.1c-15.7-17.4-23.5-40.5-23.5-69.5V451.7z M1423.3,455.2c0,19,3.9,33.9,11.8,44.7
		c7.9,10.8,18.8,16.2,32.8,16.2s24.9-5.5,32.7-16.4c7.8-10.9,11.7-26.9,11.7-48c0-18.7-4-33.5-12-44.4c-8-10.9-18.9-16.4-32.7-16.4
		c-13.6,0-24.3,5.4-32.3,16.1C1427.3,417.7,1423.3,433.8,1423.3,455.2z"/>
</g>
</svg>
