<?xml version="1.0" encoding="utf-8"?>
<!-- Generator: Adobe Illustrator 22.0.0, SVG Export Plug-In . SVG Version: 6.00 Build 0)  -->
<svg version="1.1" id="Ebene_1" xmlns="http://www.w3.org/2000/svg" xmlns:xlink="http://www.w3.org/1999/xlink" x="0px" y="0px"
	 viewBox="0 0 1440 617" style="enable-background:new 0 0 1440 617;" xml:space="preserve">
<style type="text/css">
	.st0{opacity:0.6;fill:url(#SVGID_1_);enable-background:new    ;}
	.st1{fill:url(#SVGID_2_);enable-background:new    ;}
	.st2{fill:url(#SVGID_3_);enable-background:new    ;}
	.st3{fill:#F0B921;}
	.st4{opacity:0.6;fill:url(#SVGID_4_);enable-background:new    ;}
</style>
<title>Zeichenfläche 1 Kopie 2</title>
<linearGradient id="SVGID_1_" gradientUnits="userSpaceOnUse" x1="197.68" y1="-969.6274" x2="1315.63" y2="-956.4874" gradientTransform="matrix(1 0 0 -1 0 -655)">
	<stop  offset="0" style="stop-color:#FAE897;stop-opacity:0.5"/>
	<stop  offset="0.2" style="stop-color:#E6E19E;stop-opacity:0.49"/>
	<stop  offset="0.55" style="stop-color:#AFCEB0;stop-opacity:0.45"/>
	<stop  offset="1" style="stop-color:#58B0CE;stop-opacity:0.4"/>
</linearGradient>
<rect x="-2" class="st0" width="1442" height="617"/>
<linearGradient id="SVGID_2_" gradientUnits="userSpaceOnUse" x1="-147.616" y1="-2481.7585" x2="970.334" y2="-2468.6184" gradientTransform="matrix(1 0 0 -1 0 -655)">
	<stop  offset="0" style="stop-color:#D3BD90"/>
	<stop  offset="1" style="stop-color:#9FCCC6"/>
</linearGradient>
<rect x="-347.3" y="1512.1" class="st1" width="1442" height="617"/>
<linearGradient id="SVGID_3_" gradientUnits="userSpaceOnUse" x1="-147.616" y1="-1841.1665" x2="970.334" y2="-1828.0265" gradientTransform="matrix(1 0 0 -1 0 -655)">
	<stop  offset="0" style="stop-color:#FAE8AA"/>
	<stop  offset="1" style="stop-color:#AAE5E5"/>
</linearGradient>
<rect x="-347.3" y="871.5" class="st2" width="1442" height="617"/>
<circle class="st3" cx="730.1" cy="452.1" r="29"/>
<circle class="st3" cx="1044.4" cy="182.8" r="40.6"/>
<circle class="st3" cx="817.7" cy="184.1" r="40.6"/>
<circle class="st3" cx="517.5" cy="136.5" r="40.6"/>
<circle class="st3" cx="1303.3" cy="287.2" r="40.6"/>
<circle class="st3" cx="143.9" cy="265.3" r="40.6"/>
<path d="M139.3,230.6c1.2,2.9,2.4,5.9,3.6,8.8c1.2-3.1,2.4-6.1,3.7-9c1.3-3,2.6-5.8,4.1-8.5L205,120.1c0.6-1.1,1.3-2.1,2.1-3.1
	c0.7-0.7,1.5-1.3,2.4-1.6c1-0.4,2-0.6,3-0.6c1.1-0.1,2.4-0.1,3.9-0.1h25.8v183.7h-30.1V179.7c0-2.2,0.1-4.6,0.2-7.3s0.3-5.3,0.6-8
	l-55.5,104.2c-1.1,2.2-2.9,4.2-5,5.5c-2.1,1.3-4.6,2-7.1,2h-4.7c-2.5,0.1-5-0.6-7.1-2c-2.1-1.4-3.8-3.3-4.9-5.5L72.3,164
	c0.3,2.8,0.6,5.5,0.7,8.2c0.1,2.7,0.2,5.2,0.2,7.4v118.7H43V114.6h25.8c1.5,0,2.8,0,3.9,0.1c1,0.1,2,0.3,3,0.6
	c0.9,0.4,1.8,0.9,2.5,1.6c0.9,0.9,1.6,1.9,2.2,3.1l54.9,102C136.7,224.8,138.1,227.6,139.3,230.6z"/>
<path d="M306.3,168v82.8c0,8,1.8,14.1,5.5,18.5c3.7,4.4,9.2,6.5,16.6,6.5c5.3,0,10.5-1.2,15.2-3.6c5-2.6,9.6-6,13.5-10V168h31.4
	v130.3h-19.2c-3.7,0.3-7-2.1-8-5.7l-2.2-10.4c-2.6,2.6-5.4,5.1-8.4,7.4c-2.9,2.2-6,4.1-9.2,5.7c-3.4,1.6-6.9,2.8-10.5,3.7
	c-4,0.9-8.1,1.3-12.1,1.3c-6.5,0.1-12.9-1.1-18.9-3.6c-5.3-2.3-10-5.8-13.8-10.2c-3.8-4.6-6.7-9.9-8.5-15.7c-2-6.5-2.9-13.2-2.9-20
	V168H306.3z M326.5,134.2c0,2.3-0.5,4.6-1.4,6.7c-0.9,2-2.2,3.9-3.9,5.4c-1.7,1.5-3.6,2.8-5.7,3.6c-2.2,0.9-4.5,1.3-6.8,1.3
	c-2.2,0-4.5-0.4-6.5-1.3c-2-0.9-3.9-2.1-5.5-3.6c-1.6-1.5-2.9-3.4-3.9-5.4c-0.9-2.1-1.4-4.4-1.4-6.7c0-2.4,0.5-4.7,1.4-6.9
	c0.9-2.1,2.2-4,3.9-5.7c1.6-1.6,3.5-2.9,5.5-3.9c2.1-0.9,4.3-1.4,6.5-1.4c2.3,0,4.7,0.5,6.8,1.4c2.1,0.9,4.1,2.2,5.7,3.9
	c1.7,1.6,3,3.5,3.9,5.7C326,129.5,326.5,131.8,326.5,134.2L326.5,134.2z M374,134.2c0,2.3-0.5,4.6-1.4,6.7c-0.9,2-2.2,3.9-3.9,5.4
	c-1.6,1.5-3.6,2.8-5.7,3.6c-2.2,0.9-4.5,1.3-6.8,1.3c-2.3,0-4.6-0.4-6.7-1.3c-4.1-1.7-7.5-4.9-9.3-9c-0.9-2.1-1.4-4.4-1.4-6.7
	c0-2.4,0.5-4.7,1.4-6.9c0.9-2.1,2.2-4,3.7-5.7c1.6-1.6,3.4-2.9,5.5-3.9c2.1-0.9,4.4-1.4,6.7-1.4c2.3,0,4.7,0.5,6.8,1.4
	c4.3,1.8,7.7,5.2,9.5,9.5C373.5,129.4,374,131.8,374,134.2L374,134.2z"/>
<path d="M455.4,109.5v188.8h-31.3V109.5H455.4z"/>
<path d="M533.7,300.4c-11.3,0-19.9-3.2-26-9.6c-6.1-6.4-9.1-15.2-9.1-26.5v-72.8h-13.2c-3.3,0.1-6.1-2.5-6.2-5.8c0-0.3,0-0.6,0-0.8
	v-12.5l21-3.4l6.6-35.6c0.3-1.6,1.1-3,2.3-3.9c1.3-1,3-1.5,4.6-1.4h16.3v41h34.3v22.4h-34.3v70.6c0,4.1,1,7.2,3.1,9.5
	c2.1,2.3,5,3.6,8.1,3.4c1.7,0,3.3-0.2,4.9-0.7c1.2-0.4,2.3-0.9,3.4-1.5c1-0.5,1.8-1,2.6-1.5c0.7-0.4,1.5-0.7,2.3-0.7
	c0.8,0,1.6,0.2,2.3,0.7c0.7,0.6,1.4,1.3,1.9,2.1l9.4,15.3c-4.7,3.9-10,6.8-15.8,8.6C546.2,299.4,540,300.4,533.7,300.4z"/>
<path d="M651.9,112.6l-31.4,33.2c-1.3,1.5-2.9,2.7-4.6,3.5c-1.8,0.7-3.8,1-5.8,1h-18.8l18-30.9c1.1-2,2.6-3.7,4.4-5
	c2.3-1.3,5-1.9,7.6-1.7L651.9,112.6z M622.6,168v130.3h-31.4V168H622.6z"/>
<path d="M691.5,109.5v188.8h-31.4V109.5H691.5z"/>
<path d="M789.5,150h-21c-2.3,0.1-4.6-0.7-6.4-2.3l-13.4-12.1c-0.4-0.4-0.9-0.8-1.3-1.3c-0.5-0.5-0.9-1-1.3-1.5
	c-0.4,0.6-0.8,1.1-1.3,1.5c-0.5,0.4-0.9,0.8-1.3,1.3L730,147.7c-0.8,0.7-1.7,1.2-2.7,1.6c-1.2,0.5-2.4,0.7-3.6,0.7h-21.8l29.1-35.3
	h29.5L789.5,150z M760.3,168v130.3H729V168H760.3z"/>
<path d="M795.8,298.3V168H815c3.7-0.3,7,2.1,8,5.7l2.2,10.3c2.6-2.7,5.4-5.1,8.3-7.4c2.9-2.2,6-4.1,9.3-5.7
	c3.3-1.6,6.8-2.9,10.5-3.7c4-0.9,8.1-1.3,12.2-1.3c6.5-0.1,12.9,1.1,18.9,3.6c5.3,2.3,10.1,5.7,13.8,10.1c3.8,4.6,6.7,9.9,8.4,15.6
	c2,6.5,2.9,13.2,2.9,20v83H878v-83c0-8-1.8-14.1-5.5-18.5c-3.7-4.4-9.2-6.5-16.6-6.5c-5.3,0-10.5,1.2-15.2,3.7
	c-5,2.6-9.5,6-13.5,10.1v94.3L795.8,298.3z M866.1,125.7c2.2,0.1,4.3-0.6,6-2.1c1.4-1.4,2.2-3.9,2.2-7.6h19.1
	c0.1,4.4-0.6,8.7-2,12.9c-1.2,3.6-3,7-5.4,9.9c-2.2,2.7-5,4.9-8.2,6.4c-3.3,1.5-6.8,2.2-10.4,2.2c-2.9,0-5.8-0.5-8.5-1.6
	c-2.5-1-5-2.2-7.4-3.6l-6.4-3.6c-1.7-1-3.6-1.6-5.5-1.6c-2.2-0.1-4.3,0.7-5.8,2.2c-1.4,1.5-2.1,4-2.1,7.6h-19.5
	c-0.1-4.4,0.6-8.7,2-12.9c1.2-3.6,3.1-7,5.6-9.9c2.3-2.7,5.1-4.9,8.3-6.4c3.2-1.5,6.7-2.3,10.3-2.3c2.9,0,5.9,0.5,8.6,1.6
	c2.5,1,5,2.2,7.4,3.6c2.3,1.3,4.4,2.4,6.4,3.6C862.2,125,864.1,125.6,866.1,125.7L866.1,125.7z"/>
<path d="M985.4,165.7c5.3,0,10.6,0.5,15.8,1.7c4.7,1.1,9.2,2.7,13.5,5h37.5v11.7c0.1,1.7-0.4,3.3-1.5,4.6c-1.4,1.3-3.2,2.1-5.2,2.3
	l-11.7,2.2c0.9,2.3,1.5,4.6,2,7c0.5,2.5,0.7,5.1,0.7,7.7c0.2,12-5.2,23.3-14.5,30.7c-4.8,3.8-10.3,6.7-16.1,8.5
	c-6.6,2-13.4,3-20.3,3c-4.8,0-9.6-0.5-14.4-1.4c-4.1,2.5-6.1,5.2-6.1,8.3c-0.1,2.5,1.3,4.8,3.6,5.8c3,1.4,6.2,2.3,9.5,2.6
	c4.4,0.5,8.9,0.8,13.4,0.8c5,0,10.1,0.2,15.4,0.6c5.2,0.4,10.3,1.2,15.4,2.2c4.7,0.9,9.2,2.6,13.4,5c3.9,2.3,7.2,5.5,9.5,9.4
	c2.4,4,3.6,9,3.6,15.2c0,5.9-1.5,11.6-4.3,16.8c-3,5.7-7.3,10.7-12.4,14.6c-5.9,4.6-12.6,8-19.8,10.3c-8.6,2.7-17.6,4-26.7,3.9
	c-8.7,0.1-17.3-0.8-25.8-2.9c-6.4-1.5-12.5-4.1-18.1-7.6c-4.4-2.8-8.1-6.5-10.7-11c-2.3-4-3.5-8.5-3.5-13
	c-0.2-5.6,1.8-11.1,5.6-15.4c4.3-4.5,9.6-7.9,15.5-9.9c-3.1-1.7-5.8-4.1-7.7-7.1c-2.1-3.5-3.1-7.5-2.9-11.6c0-2.1,0.4-4.1,1-6
	c0.7-2.2,1.8-4.3,3.1-6.2c1.5-2.1,3.3-4.1,5.3-5.8c2.3-1.9,4.8-3.6,7.5-4.9c-6.3-3.3-11.7-8.2-15.6-14.2c-3.9-6.3-5.8-13.5-5.7-20.8
	c-0.1-6,1.2-12,3.9-17.5c2.6-5.2,6.3-9.7,10.8-13.3c4.9-3.8,10.5-6.7,16.4-8.5C971.4,166.6,978.4,165.6,985.4,165.7z M1019.8,303.8
	c0.1-2.3-0.7-4.6-2.3-6.4c-1.7-1.8-3.9-3.1-6.2-3.9c-3-1-6.1-1.7-9.2-2c-3.7-0.4-7.4-0.7-11.2-0.7h-12.2c-4.1,0-8.2-0.5-12.1-1.4
	c-3.3,1.7-6.2,4.1-8.6,6.9c-2.1,2.6-3.3,5.9-3.2,9.2c0,2.3,0.6,4.5,1.7,6.4c1.3,2.2,3.2,4,5.5,5.2c3,1.6,6.3,2.8,9.7,3.4
	c4.8,0.9,9.7,1.3,14.6,1.2c5.1,0.1,10.1-0.4,15.1-1.4c3.7-0.7,7.2-2,10.5-3.8c2.5-1.3,4.6-3.3,6-5.7
	C1019.2,308.8,1019.8,306.3,1019.8,303.8z M985.4,230c3.5,0.1,6.9-0.5,10.2-1.6c2.7-0.9,5.1-2.4,7.2-4.4c1.9-1.9,3.4-4.2,4.3-6.7
	c1-2.8,1.5-5.7,1.5-8.6c0-6.4-1.9-11.6-5.8-15.3c-3.9-3.7-9.6-5.7-17.4-5.7s-13.5,1.9-17.3,5.7s-5.8,8.9-5.8,15.3
	c0,2.9,0.5,5.8,1.5,8.5c0.9,2.6,2.4,4.9,4.3,6.8c2.1,2,4.5,3.5,7.2,4.4C978.5,229.5,981.9,230,985.4,230z"/>
<path d="M1100.4,168v82.8c0,8,1.8,14.1,5.5,18.5c3.7,4.4,9.2,6.5,16.6,6.5c5.3,0,10.5-1.2,15.3-3.7c5-2.6,9.5-6,13.5-10V168h31.4
	v130.3h-19.1c-3.7,0.3-7-2.1-8-5.7l-2.2-10.4c-2.6,2.6-5.4,5.1-8.4,7.4c-2.9,2.2-5.9,4.1-9.2,5.7c-3.4,1.6-6.9,2.8-10.6,3.7
	c-4,0.9-8.1,1.3-12.1,1.3c-6.5,0.1-12.9-1.1-18.9-3.6c-5.3-2.3-10-5.8-13.8-10.2c-3.8-4.6-6.7-9.9-8.5-15.7c-2-6.5-2.9-13.2-2.9-20
	V168H1100.4z M1170.8,112.6l-31.4,33.2c-1.3,1.5-2.9,2.7-4.6,3.5c-1.8,0.7-3.8,1-5.8,1h-18.8l18-30.9c1.1-2,2.6-3.7,4.4-5
	c2.3-1.3,5-1.9,7.7-1.7H1170.8z"/>
<path d="M1318.4,298.3h-14.1c-2.4,0.1-4.8-0.3-7-1.3c-2-1.2-3.3-3.2-3.9-5.4l-2.8-9.3c-3.1,2.8-6.3,5.4-9.7,7.8
	c-3.1,2.2-6.4,4.1-9.8,5.7c-3.5,1.5-7.1,2.7-10.8,3.4c-4.2,0.8-8.4,1.2-12.7,1.1c-5.2,0-10.3-0.7-15.3-2.2c-4.4-1.4-8.5-3.6-12-6.7
	c-3.4-3.1-6.1-6.9-7.8-11.1c-2-4.9-2.9-10.2-2.8-15.5c0-5.1,1.4-10.1,3.9-14.6c2.6-4.8,6.9-9.1,12.9-13c6-3.9,14-7.1,24-9.6
	c10-2.6,22.4-3.9,37.2-3.9v-7.7c0-8.8-1.8-15.3-5.5-19.5c-3.7-4.2-9-6.3-16.1-6.3c-4.3-0.1-8.6,0.5-12.7,1.8c-3.1,1-6,2.4-8.8,4
	c-2.5,1.5-4.8,2.8-6.9,4c-2.1,1.2-4.5,1.8-7,1.8c-2,0.1-3.9-0.5-5.5-1.7c-1.5-1.1-2.8-2.5-3.7-4.1l-5.7-10
	c15-13.7,33.1-20.6,54.3-20.6c7-0.1,13.9,1.2,20.4,3.7c5.7,2.3,10.9,5.9,15.2,10.4c4.2,4.6,7.5,10,9.5,15.9
	c2.2,6.5,3.3,13.4,3.2,20.3L1318.4,298.3z M1257.4,278.8c3,0,6-0.3,8.9-0.9c2.7-0.6,5.3-1.4,7.7-2.6c2.5-1.2,4.8-2.6,7-4.3
	c2.4-1.9,4.7-3.9,6.8-6.1v-21.9c-7.7-0.1-15.4,0.5-22.9,1.7c-5.1,0.8-10.1,2.3-14.8,4.4c-3.2,1.3-5.9,3.5-7.9,6.3
	c-1.5,2.3-2.4,5-2.4,7.8c0,5.5,1.6,9.5,4.9,11.9C1247.9,277.6,1252.2,278.8,1257.4,278.8z"/>
<path d="M1391.3,109.5v70.8l20.7-8.4v18c0,3.5-1.4,5.8-4.3,6.9l-16.4,7v94.5h-31.4v-83.4l-20.8,8.4v-18.5c-0.2-2.7,1.4-5.2,3.9-6.1
	l16.9-7.1v-82H1391.3z"/>
<path d="M109.7,477.6c0.6,1.5,1.2,3,1.7,4.5c0.6-1.6,1.1-3.1,1.8-4.5s1.3-2.9,2.1-4.3l40.9-74.3c0.5-1,1.3-1.9,2.3-2.4
	c1.1-0.3,2.2-0.5,3.4-0.4h12.1V517h-14.3v-88.8c0-1.2,0-2.4,0.1-3.8c0.1-1.3,0.1-2.7,0.3-4.1l-41.4,75.6c-1,2.3-3.3,3.9-5.9,3.9
	h-2.4c-2.6,0-4.9-1.5-5.9-3.9L62,420c0.2,1.5,0.3,2.9,0.4,4.3c0.1,1.4,0.1,2.7,0.1,3.9V517H48.2V396.2h12.1c1.1,0,2.3,0.1,3.4,0.4
	c1,0.5,1.8,1.3,2.3,2.4l41.8,74.4C108.4,474.7,109.1,476.1,109.7,477.6z"/>
<path d="M302.8,517h-12.7c-1.3,0.1-2.5-0.3-3.5-1.1c-0.9-0.7-1.6-1.7-2-2.8L273.3,484H219l-11.3,29.2c-0.4,1.1-1.1,2-2,2.7
	c-1,0.8-2.3,1.2-3.5,1.2h-12.6l48.3-120.9h16.6L302.8,517z M223.6,472.2h45.1l-19-49.2c-1.5-3.7-2.7-7.5-3.6-11.4
	c-0.6,2.3-1.2,4.4-1.8,6.4c-0.6,1.9-1.2,3.6-1.7,5.2L223.6,472.2z"/>
<path d="M336,466.6V517h-16.3V396.2h34.1c6.7-0.1,13.4,0.7,19.8,2.3c5,1.3,9.7,3.6,13.8,6.7c3.5,2.8,6.3,6.4,8.1,10.6
	c1.8,4.4,2.7,9.1,2.6,13.9c0,4.1-0.7,8.1-2,12c-1.3,3.7-3.3,7.1-5.9,10c-2.7,3-5.8,5.6-9.4,7.5c-3.9,2.2-8.1,3.8-12.5,4.7
	c2.2,1.3,4,3.1,5.4,5.2l35.3,48h-14.5c-2.7,0.2-5.2-1.2-6.6-3.5l-31.4-43.2c-0.8-1.2-1.9-2.2-3.1-2.9c-1.6-0.7-3.3-1-5.1-0.9
	L336,466.6z M336,454.7h17.1c4.3,0.1,8.5-0.5,12.6-1.7c3.3-1,6.4-2.7,9.1-4.9c2.4-2,4.3-4.6,5.5-7.5c1.3-3.1,1.9-6.4,1.9-9.7
	c0-7.2-2.4-12.6-7.1-16.3c-4.7-3.7-11.8-5.5-21.2-5.5H336V454.7z"/>
<path d="M446.1,517h-16.4V396.2h16.4V517z"/>
<path d="M552.9,396.2v13.3h-58v40.1h47v12.9h-47v41.2h58v13.3h-74.4V396.2H552.9z"/>
<path d="M588.2,396.7c0.9,0.6,1.8,1.3,2.4,2.2l70,91.1c-0.2-1.5-0.3-2.9-0.3-4.3c-0.1-1.4-0.1-2.7-0.1-4v-85.6h14.3V517h-8.2
	c-1.1,0-2.2-0.2-3.2-0.7c-1-0.6-1.9-1.3-2.6-2.3l-70-91c0.1,1.4,0.2,2.8,0.3,4.1c0.1,1.4,0.1,2.6,0.1,3.7V517h-14.4V396.2h8.4
	C586,396.1,587.2,396.3,588.2,396.7z"/>
<path d="M722,449.1h6.1c1.8,0.1,3.5-0.2,5.2-0.8c1.4-0.6,2.6-1.6,3.6-2.7l40.2-45.5c1-1.2,2.2-2.2,3.6-3c1.4-0.6,2.9-0.9,4.4-0.9
	H799l-46.1,52c-1,1.2-2.2,2.3-3.3,3.3c-1,0.9-2.1,1.6-3.3,2.2c1.5,0.5,2.9,1.2,4.1,2.3c1.3,1.2,2.6,2.5,3.7,3.9l48.1,57.3H788
	c-0.9,0-1.8-0.1-2.7-0.3c-0.7-0.1-1.3-0.4-1.9-0.7c-0.5-0.3-1-0.7-1.5-1.1c-0.5-0.5-0.9-0.9-1.3-1.4l-41.8-48
	c-0.5-0.6-1.1-1.2-1.7-1.7c-0.6-0.5-1.2-0.9-1.9-1.2c-0.8-0.4-1.6-0.6-2.4-0.7c-1.1-0.1-2.3-0.2-3.4-0.2H722v55.3h-16.3V396.2H722
	L722,449.1z"/>
<path d="M918.3,517h-12.7c-1.3,0.1-2.5-0.3-3.5-1.1c-0.9-0.7-1.6-1.7-2-2.8L888.8,484h-54.2l-11.3,29.2c-0.4,1.1-1.1,2-2,2.7
	c-1,0.8-2.3,1.2-3.5,1.2h-12.7l48.3-120.9H870L918.3,517z M853,376.5c0,1.2-0.3,2.4-0.8,3.5c-0.5,1.1-1.2,2.1-2,2.9
	c-0.9,0.9-1.9,1.5-3,2c-1.2,0.5-2.4,0.7-3.7,0.7c-1.2,0-2.3-0.2-3.4-0.7c-1.1-0.5-2.1-1.1-2.9-2c-0.8-0.8-1.5-1.8-2-2.9
	c-0.5-1.1-0.8-2.3-0.8-3.5c0-1.3,0.3-2.5,0.8-3.7c0.5-1.1,1.2-2.1,2-3c0.8-0.8,1.8-1.5,2.9-2c1.1-0.5,2.2-0.7,3.4-0.7
	c1.3,0,2.5,0.2,3.7,0.7c2.2,1,4,2.8,5,5C852.7,374,853,375.3,853,376.5z M839.1,472.2h45.1l-19-49.2c-1.5-3.7-2.7-7.5-3.6-11.4
	c-0.6,2.3-1.2,4.4-1.8,6.4c-0.6,1.9-1.2,3.6-1.7,5.2L839.1,472.2z M888.9,376.5c0,1.2-0.3,2.4-0.8,3.5c-0.5,1.1-1.2,2.1-2,2.9
	c-0.8,0.8-1.9,1.5-3,2c-1.1,0.5-2.3,0.7-3.5,0.7c-3.7,0-7.1-2.2-8.6-5.6c-0.5-1.1-0.7-2.3-0.7-3.5c0-1.3,0.3-2.5,0.8-3.7
	c0.5-1.1,1.1-2.1,2-3c0.9-0.9,1.9-1.5,2.9-2c1.1-0.5,2.4-0.8,3.6-0.7c1.2,0,2.4,0.2,3.5,0.7c2.2,1,4,2.8,5,5
	C888.7,374,888.9,375.3,888.9,376.5L888.9,376.5z"/>
<path d="M1008.1,396.2v13.3h-58v42.3h49.6v13.3h-49.6v52h-16.5V396.2H1008.1z"/>
<path d="M1103.5,396.2v13.3h-58v40.1h47v12.9h-47v41.2h58v13.3h-74.4V396.2H1103.5z"/>
<path d="M1145,466.6V517h-16.3V396.2h34.2c6.7-0.1,13.3,0.7,19.8,2.3c5,1.3,9.7,3.6,13.8,6.7c3.5,2.8,6.3,6.4,8.1,10.6
	c1.8,4.4,2.7,9.1,2.6,13.9c0,4.1-0.7,8.1-2,12c-1.3,3.7-3.3,7.1-5.9,10c-2.7,3-5.8,5.6-9.4,7.5c-3.9,2.2-8.1,3.8-12.5,4.7
	c2.2,1.3,4,3.1,5.4,5.2l35.3,48h-14.5c-2.7,0.2-5.2-1.2-6.6-3.5l-31.4-43.2c-0.8-1.2-1.9-2.2-3.1-2.9c-1.6-0.7-3.3-1-5.1-0.9
	L1145,466.6z M1145,454.7h17.1c4.3,0.1,8.5-0.5,12.6-1.7c3.3-1,6.4-2.7,9.1-4.9c2.4-2,4.3-4.6,5.5-7.5c1.3-3.1,1.9-6.4,1.9-9.7
	c0-7.2-2.4-12.6-7.1-16.3c-4.8-3.7-11.8-5.5-21.2-5.5H1145V454.7z"/>
<linearGradient id="SVGID_4_" gradientUnits="userSpaceOnUse" x1="197.68" y1="-333.6274" x2="1315.63" y2="-320.4874" gradientTransform="matrix(1 0 0 -1 0 -655)">
	<stop  offset="0" style="stop-color:#FAE897;stop-opacity:0.5"/>
	<stop  offset="0.2" style="stop-color:#E6E19E;stop-opacity:0.49"/>
	<stop  offset="0.55" style="stop-color:#AFCEB0;stop-opacity:0.45"/>
	<stop  offset="1" style="stop-color:#58B0CE;stop-opacity:0.4"/>
</linearGradient>
<rect x="-2" y="-636" class="st4" width="1442" height="617"/>
<circle class="st3" cx="731.5" cy="-123.5" r="22.5"/>
<circle class="st3" cx="975.5" cy="-332.5" r="31.5"/>
<circle class="st3" cx="799.5" cy="-331.5" r="31.5"/>
<circle class="st3" cx="566.5" cy="-368.5" r="31.5"/>
<circle class="st3" cx="1176.5" cy="-251.5" r="31.5"/>
<circle class="st3" cx="276.5" cy="-268.5" r="31.5"/>
<path d="M272.9-295.5c1,2.3,1.9,4.5,2.8,6.9c0.9-2.4,1.9-4.7,2.9-7s2-4.5,3.2-6.6l42.2-79c0.4-0.9,1-1.7,1.6-2.4
	c0.5-0.6,1.2-1,1.9-1.3c0.7-0.3,1.5-0.4,2.3-0.5c0.9-0.1,1.9-0.1,3.1-0.1h20v142.6h-23.4V-335c0-1.7,0-3.6,0.1-5.6s0.2-4.1,0.5-6.2
	l-43.1,80.9c-0.9,1.7-2.2,3.2-3.9,4.3c-1.7,1-3.6,1.6-5.5,1.5h-3.6c-2,0-3.9-0.5-5.5-1.5c-1.6-1.1-3-2.6-3.8-4.3l-43.7-81.2
	c0.3,2.2,0.4,4.3,0.6,6.4s0.1,4,0.1,5.8v92.1h-23.4v-142.6h20c1.2,0,2.2,0,3.1,0.1c0.8,0.1,1.6,0.2,2.3,0.5c0.7,0.3,1.4,0.7,1.9,1.3
	c0.7,0.7,1.2,1.5,1.7,2.4l42.6,79.2C270.9-299.9,271.9-297.7,272.9-295.5z"/>
<path d="M402.5-344v64.3c0,6.2,1.4,11,4.3,14.4c2.9,3.4,7.1,5.1,12.9,5.1c4.1,0,8.2-0.9,11.8-2.8c3.9-2,7.4-4.7,10.5-7.8V-344h24.4
	v101.2h-14.9c-2.9,0.2-5.5-1.7-6.2-4.4l-1.7-8.1c-2,2.1-4.2,4-6.5,5.8c-2.2,1.7-4.6,3.2-7.2,4.4c-2.6,1.2-5.4,2.2-8.2,2.9
	c-3.1,0.7-6.3,1-9.4,1c-5,0.1-10-0.9-14.6-2.8c-4.1-1.8-7.8-4.5-10.7-7.9c-3-3.6-5.2-7.7-6.6-12.2c-1.5-5-2.3-10.3-2.2-15.5V-344
	H402.5z M418.2-370.2c0,1.8-0.4,3.6-1.1,5.2c-0.7,1.6-1.7,3-3,4.2c-1.3,1.2-2.8,2.1-4.4,2.8c-1.7,0.7-3.5,1-5.3,1
	c-1.7,0-3.5-0.3-5.1-1c-1.6-0.7-3-1.6-4.3-2.8c-1.3-1.2-2.3-2.6-3-4.2c-0.7-1.6-1.1-3.4-1.1-5.2c0-1.8,0.4-3.7,1.1-5.4
	c0.7-1.6,1.7-3.1,3-4.4c1.2-1.3,2.7-2.3,4.3-3c1.6-0.7,3.3-1.1,5.1-1.1c1.8,0,3.6,0.4,5.3,1.1c1.6,0.7,3.1,1.7,4.4,3
	c1.3,1.2,2.3,2.7,3,4.4C417.8-373.9,418.2-372.1,418.2-370.2L418.2-370.2z M455.1-370.2c0,1.8-0.4,3.5-1.1,5.2c-0.7,1.6-1.7,3-3,4.2
	c-1.3,1.2-2.8,2.2-4.4,2.8c-1.7,0.7-3.5,1-5.3,1c-1.8,0-3.6-0.3-5.2-1c-3.2-1.3-5.8-3.8-7.2-7c-0.7-1.6-1.1-3.4-1.1-5.2
	c0-1.8,0.4-3.7,1.1-5.4c0.7-1.6,1.7-3.1,2.9-4.4c1.2-1.3,2.7-2.3,4.3-3c1.6-0.7,3.4-1.1,5.2-1.1c1.8,0,3.6,0.4,5.3,1.1
	c3.3,1.4,5.9,4,7.4,7.3C454.7-373.9,455.1-372.1,455.1-370.2L455.1-370.2z"/>
<path d="M518.3-389.4v146.6H494v-146.6H518.3z"/>
<path d="M579.1-241.3c-8.7,0-15.5-2.5-20.2-7.4c-4.7-5-7.1-11.8-7.1-20.6v-56.5h-10.3c-2.6,0.1-4.7-1.9-4.8-4.5c0-0.2,0-0.4,0-0.6
	v-9.7l16.3-2.7l5.1-27.6c0.2-1.2,0.8-2.3,1.8-3.1c1-0.8,2.3-1.1,3.6-1.1h12.6v31.9h26.6v17.4h-26.6v54.8c0,3.2,0.8,5.6,2.4,7.4
	c1.6,1.8,3.9,2.8,6.3,2.7c1.3,0,2.6-0.2,3.8-0.5c0.9-0.3,1.8-0.7,2.7-1.1c0.8-0.4,1.4-0.8,2-1.1c0.5-0.3,1.1-0.5,1.8-0.5
	c0.6,0,1.3,0.2,1.8,0.5c0.6,0.5,1.1,1,1.5,1.6l7.3,11.8c-3.6,3-7.8,5.3-12.2,6.7C588.7-242,583.9-241.2,579.1-241.3z"/>
<path d="M670.8-387l-24.4,25.7c-1,1.1-2.2,2.1-3.6,2.7c-1.4,0.5-3,0.8-4.5,0.7h-14.6l14-24c0.8-1.5,2-2.9,3.5-3.9
	c1.8-1,3.9-1.5,5.9-1.3L670.8-387z M648.1-344v101.2h-24.4V-344H648.1z"/>
<path d="M701.6-389.4v146.6h-24.4v-146.6H701.6z"/>
<path d="M777.6-358h-16.3c-1.8,0.1-3.6-0.6-4.9-1.8l-10.4-9.4c-0.3-0.3-0.7-0.6-1-1c-0.4-0.4-0.7-0.8-1-1.2c-0.3,0.4-0.6,0.8-1,1.2
	c-0.4,0.3-0.7,0.6-1,1l-10.5,9.4c-0.6,0.5-1.4,0.9-2.1,1.2c-0.9,0.4-1.9,0.6-2.8,0.5h-17l22.6-27.4H755L777.6-358z M755-344v101.2
	h-24.3V-344H755z"/>
<path d="M782.5-242.8V-344h14.9c2.9-0.2,5.5,1.7,6.2,4.4l1.7,8c2-2.1,4.2-4,6.5-5.7c2.3-1.7,4.7-3.2,7.2-4.4
	c2.6-1.3,5.3-2.2,8.1-2.9c3.1-0.7,6.3-1,9.5-1c5-0.1,10,0.9,14.7,2.8c4.1,1.8,7.8,4.4,10.7,7.9c3,3.6,5.2,7.7,6.5,12.1
	c1.5,5,2.3,10.3,2.2,15.5v64.4h-24.4v-64.4c0-6.2-1.4-11-4.3-14.4c-2.9-3.4-7.1-5.1-12.9-5.1c-4.1,0-8.2,1-11.8,2.9
	c-3.9,2.1-7.4,4.7-10.5,7.8v73.2L782.5-242.8z M837.1-376.8c1.7,0.1,3.4-0.5,4.6-1.6c1.1-1.1,1.7-3,1.7-5.9h14.8
	c0,3.4-0.5,6.8-1.5,10c-0.9,2.8-2.3,5.4-4.2,7.7c-1.7,2.1-3.9,3.8-6.4,4.9c-2.5,1.2-5.3,1.7-8.1,1.7c-2.3,0-4.5-0.4-6.6-1.3
	c-2-0.8-3.9-1.7-5.7-2.8l-5-2.8c-1.3-0.8-2.8-1.2-4.3-1.3c-1.7-0.1-3.3,0.5-4.5,1.7c-1.1,1.1-1.6,3.1-1.6,5.9h-15.1
	c0-3.4,0.5-6.8,1.5-10c0.9-2.8,2.4-5.4,4.3-7.7c1.8-2.1,4-3.8,6.5-5c2.5-1.2,5.2-1.8,8-1.8c2.3,0,4.5,0.4,6.7,1.3
	c2,0.8,3.9,1.7,5.8,2.8c1.8,1,3.4,1.9,4.9,2.8C834.1-377.4,835.6-376.9,837.1-376.8L837.1-376.8z"/>
<path d="M929.7-345.8c4.1,0,8.2,0.4,12.2,1.3c3.6,0.8,7.2,2.1,10.5,3.9h29.1v9.1c0.1,1.3-0.3,2.6-1.2,3.5c-1.1,1-2.5,1.6-4,1.8
	l-9.1,1.7c0.7,1.8,1.2,3.6,1.5,5.4c0.4,2,0.5,4,0.5,6c0.2,9.3-4,18.1-11.3,23.9c-3.7,2.9-8,5.2-12.5,6.6c-5.1,1.6-10.4,2.4-15.7,2.3
	c-3.7,0-7.5-0.4-11.1-1.1c-3.2,1.9-4.7,4.1-4.7,6.5c-0.1,1.9,1,3.7,2.8,4.5c2.3,1.1,4.8,1.8,7.4,2c3.5,0.4,6.9,0.6,10.4,0.6
	c3.9,0,7.9,0.2,11.9,0.5c4,0.3,8,0.9,11.9,1.7c3.7,0.7,7.2,2.1,10.4,3.9c3,1.8,5.6,4.3,7.4,7.3c1.9,3.1,2.8,7,2.8,11.8
	c0,4.6-1.2,9-3.3,13.1c-2.4,4.4-5.7,8.3-9.6,11.4c-4.6,3.5-9.8,6.2-15.3,8c-6.7,2.1-13.7,3.1-20.7,3c-6.7,0.1-13.5-0.6-20-2.2
	c-5-1.2-9.7-3.2-14-5.9c-3.4-2.1-6.3-5.1-8.3-8.5c-1.8-3.1-2.7-6.6-2.7-10.1c-0.1-4.4,1.4-8.7,4.3-11.9c3.3-3.5,7.4-6.1,12-7.7
	c-2.4-1.3-4.5-3.2-6-5.5c-1.6-2.7-2.4-5.8-2.3-9c0-1.6,0.3-3.2,0.8-4.7c0.6-1.7,1.4-3.3,2.4-4.8c1.2-1.7,2.5-3.2,4.1-4.5
	c1.8-1.5,3.7-2.8,5.8-3.8c-4.9-2.6-9.1-6.3-12.1-11c-3-4.9-4.5-10.5-4.4-16.2c-0.1-4.7,1-9.3,3-13.6c2-4,4.9-7.6,8.4-10.4
	c3.8-3,8.1-5.2,12.7-6.6C918.9-345.1,924.3-345.9,929.7-345.8z M956.4-238.6c0.1-1.8-0.6-3.6-1.8-4.9c-1.3-1.4-3-2.4-4.8-3
	c-2.3-0.8-4.7-1.3-7.2-1.6c-2.9-0.3-5.8-0.5-8.7-0.5h-9.5c-3.2,0-6.3-0.4-9.4-1.1c-2.5,1.3-4.8,3.2-6.7,5.4c-1.7,2-2.5,4.5-2.5,7.1
	c0,1.8,0.4,3.5,1.3,5c1,1.7,2.5,3.1,4.2,4c2.4,1.3,4.9,2.1,7.5,2.6c3.7,0.7,7.5,1,11.3,0.9c3.9,0.1,7.9-0.3,11.7-1.1
	c2.8-0.5,5.6-1.5,8.1-2.9c1.9-1,3.5-2.6,4.7-4.4C955.9-234.7,956.4-236.6,956.4-238.6z M929.7-295.9c2.7,0.1,5.4-0.4,7.9-1.2
	c2.1-0.7,4-1.9,5.6-3.4c1.5-1.5,2.6-3.3,3.3-5.2c0.8-2.2,1.2-4.4,1.1-6.7c0-5-1.5-9-4.5-11.9s-7.5-4.4-13.5-4.4s-10.5,1.5-13.5,4.4
	s-4.5,6.9-4.5,11.9c0,2.3,0.4,4.5,1.1,6.6c0.7,2,1.9,3.8,3.3,5.3c1.6,1.6,3.5,2.7,5.6,3.5C924.4-296.3,927-295.9,929.7-295.9z"/>
<path d="M1019-344v64.3c0,6.2,1.4,11,4.3,14.4c2.9,3.4,7.1,5.1,12.9,5.1c4.1,0,8.2-1,11.8-2.8c3.9-2,7.4-4.6,10.4-7.8V-344h24.4
	v101.2H1068c-2.9,0.2-5.5-1.7-6.2-4.4l-1.7-8.1c-2.1,2.1-4.2,4-6.5,5.8c-2.2,1.7-4.6,3.2-7.2,4.4c-2.6,1.2-5.4,2.2-8.2,2.9
	c-3.1,0.7-6.3,1-9.4,1c-5,0.1-10-0.9-14.6-2.8c-4.1-1.8-7.8-4.5-10.7-7.9c-3-3.6-5.2-7.7-6.6-12.2c-1.5-5-2.3-10.3-2.2-15.5V-344
	H1019z M1073.6-387l-24.4,25.7c-1,1.1-2.2,2.1-3.6,2.7c-1.4,0.5-3,0.8-4.5,0.7h-14.6l14-24c0.8-1.5,2-2.9,3.4-3.9
	c1.8-1,3.9-1.5,6-1.3H1073.6z"/>
<path d="M1188.2-242.8h-10.9c-1.9,0.1-3.7-0.2-5.4-1c-1.5-0.9-2.6-2.4-3-4.2l-2.2-7.2c-2.4,2.2-4.9,4.2-7.5,6.1
	c-2.4,1.7-5,3.2-7.6,4.4c-2.7,1.2-5.5,2.1-8.4,2.7c-3.2,0.6-6.6,0.9-9.9,0.9c-4,0-8-0.5-11.8-1.7c-3.4-1.1-6.6-2.8-9.3-5.2
	c-2.6-2.4-4.7-5.3-6.1-8.6c-1.5-3.8-2.3-7.9-2.2-12c0-4,1.1-7.9,3-11.3c2-3.7,5.3-7.1,10-10.1c4.7-3,10.9-5.5,18.6-7.5
	c7.8-2,17.4-3,28.9-3v-6c0-6.8-1.4-11.9-4.3-15.2c-2.9-3.3-7-4.9-12.5-4.9c-3.3-0.1-6.7,0.4-9.9,1.4c-2.4,0.8-4.7,1.9-6.9,3.1
	c-1.9,1.2-3.7,2.2-5.4,3.1c-1.7,0.9-3.5,1.4-5.4,1.4c-1.5,0-3-0.4-4.2-1.3c-1.2-0.8-2.1-1.9-2.9-3.1l-4.4-7.8
	c11.6-10.7,25.7-16,42.1-16c5.4-0.1,10.8,0.9,15.8,2.9c4.5,1.8,8.5,4.6,11.8,8.1c3.3,3.6,5.8,7.8,7.3,12.4
	c1.7,5.1,2.6,10.4,2.5,15.8L1188.2-242.8z M1140.8-258c2.3,0,4.6-0.2,6.9-0.7c2.1-0.4,4.1-1.1,6-2c1.9-0.9,3.7-2.1,5.4-3.4
	c1.9-1.4,3.6-3,5.3-4.7v-17c-6-0.1-11.9,0.4-17.8,1.3c-4,0.7-7.8,1.8-11.5,3.4c-2.5,1-4.6,2.7-6.2,4.9c-1.2,1.8-1.8,3.9-1.8,6.1
	c0,4.3,1.3,7.4,3.8,9.2C1133.5-259,1136.8-258,1140.8-258z"/>
<path d="M1244.8-389.4v54.9l16.1-6.5v14c0,2.7-1.1,4.5-3.3,5.3l-12.7,5.4v73.4h-24.4v-64.8l-16.2,6.5v-14.4c-0.1-2.1,1.1-4,3.1-4.7
	l13.1-5.5v-63.6H1244.8z"/>
<path d="M202.7-549.3h16.1v0.5h-16.6v-31.5h0.5L202.7-549.3z"/>
<path d="M237.3-548.8c-0.2,0-0.3-0.1-0.3-0.4l-0.1-3.6c-0.6,0.6-1.2,1.2-1.9,1.8c-0.6,0.5-1.3,1-2,1.3c-0.7,0.4-1.5,0.7-2.3,0.9
	c-0.9,0.2-1.8,0.3-2.7,0.3c-0.7,0-1.4-0.1-2-0.3c-0.7-0.2-1.3-0.5-1.8-1c-0.6-0.5-1-1.1-1.3-1.7c-0.4-0.8-0.5-1.7-0.5-2.5
	c0-1,0.3-1.9,0.9-2.7c0.7-0.9,1.6-1.6,2.7-2c1.4-0.6,2.9-1,4.5-1.3c2.1-0.3,4.3-0.5,6.4-0.6v-2.8c0-1-0.1-2.1-0.4-3.1
	c-0.2-0.8-0.6-1.6-1.1-2.3c-0.5-0.6-1.1-1.1-1.9-1.5c-0.8-0.4-1.7-0.5-2.6-0.5c-0.7,0-1.4,0.1-2.1,0.2c-0.6,0.1-1.1,0.4-1.7,0.6
	c-0.5,0.2-0.9,0.5-1.3,0.8c-0.4,0.3-0.7,0.5-0.9,0.8l-0.7,0.6c-0.2,0.2-0.3,0.2-0.4,0.2s-0.1,0-0.2-0.1l-0.1-0.1
	c1-1,2.1-1.9,3.4-2.6c1.2-0.6,2.6-0.9,4-0.9c1,0,2,0.2,2.9,0.5c0.8,0.3,1.5,0.9,2,1.6c0.6,0.7,1,1.6,1.2,2.5
	c0.3,1.1,0.4,2.2,0.4,3.3L237.3-548.8L237.3-548.8z M228-548.9c0.9,0,1.9-0.1,2.8-0.4c0.8-0.2,1.6-0.6,2.3-1c0.7-0.4,1.4-0.9,2-1.4
	c0.6-0.5,1.2-1.1,1.8-1.7v-6.8c-4.7,0.1-8.2,0.7-10.5,1.8s-3.4,2.5-3.5,4.4c0,0.8,0.1,1.6,0.4,2.3c0.3,0.6,0.7,1.1,1.1,1.6
	c0.5,0.4,1,0.7,1.6,0.9C226.7-549,227.4-548.9,228-548.9z"/>
<path d="M250.2-548.5c-1.1,0.1-2.2-0.3-3-1c-0.9-1-1.3-2.2-1.2-3.5v-16.5h-3.6c-0.2,0-0.3-0.1-0.3-0.2v-0.1l4-0.1l0.2-8.9
	c0-0.1,0-0.1,0.1-0.2c0-0.1,0.1-0.1,0.2-0.1h0.1v9.2h7.5v0.5h-7.5v16.5c0,0.6,0.1,1.3,0.3,1.9c0.2,0.5,0.4,0.9,0.8,1.3
	c0.3,0.3,0.7,0.6,1.1,0.7c1,0.3,2.1,0.3,3.1-0.1c0.4-0.2,0.8-0.4,1.2-0.6c0.3-0.2,0.6-0.4,0.8-0.6c0.2-0.2,0.4-0.3,0.4-0.3
	c0.1,0,0.1,0,0.2,0.1l0.1,0.1c-0.2,0.3-0.5,0.6-0.8,0.8c-0.3,0.3-0.7,0.5-1.1,0.7c-0.4,0.2-0.8,0.3-1.2,0.4
	C251.1-548.5,250.6-548.5,250.2-548.5z"/>
<path d="M268-571.2c1.4,0,2.8,0.3,4.1,0.8c1.2,0.5,2.2,1.3,3,2.3c0.9,1.1,1.5,2.3,1.9,3.6c0.4,1.5,0.6,3.1,0.6,4.7
	c0,1.6-0.2,3.1-0.6,4.6c-0.4,1.3-1,2.5-1.9,3.6c-0.8,1-1.8,1.8-3,2.3c-2.6,1.1-5.6,1.1-8.2,0c-1.2-0.5-2.2-1.3-3-2.3
	c-0.9-1.1-1.5-2.3-1.9-3.6c-0.4-1.5-0.6-3.1-0.6-4.6c0-1.6,0.2-3.2,0.6-4.7c0.4-1.3,1-2.5,1.9-3.6c0.8-1,1.8-1.8,3-2.3
	C265.2-571,266.6-571.3,268-571.2z M268-549c1.4,0,2.7-0.2,4-0.8c1.1-0.5,2.1-1.3,2.8-2.2c0.8-1,1.4-2.2,1.7-3.4
	c0.8-2.9,0.8-6,0-8.9c-0.3-1.3-0.9-2.4-1.7-3.5c-0.8-1-1.7-1.7-2.9-2.2c-2.5-1.1-5.4-1.1-7.9,0c-1.1,0.5-2.1,1.3-2.8,2.2
	c-0.8,1-1.4,2.2-1.7,3.5c-0.8,2.9-0.8,6,0,8.9c0.3,1.2,0.9,2.4,1.7,3.4c0.8,0.9,1.7,1.7,2.8,2.2C265.3-549.2,266.7-549,268-549
	L268-549z"/>
<path d="M313.8-580.3v0.5H302v31h-0.5v-31h-11.9v-0.5L313.8-580.3z"/>
<path d="M318.7-548.8v-32.4h0.5v14.9c0.5-0.7,1.1-1.4,1.7-2c0.6-0.6,1.3-1.1,2.1-1.6c0.7-0.4,1.5-0.8,2.3-1c0.8-0.2,1.7-0.4,2.5-0.3
	c2.1-0.2,4.1,0.7,5.5,2.2c1.3,1.7,1.9,3.9,1.8,6.1v14.2h-0.5V-563c0-1.1-0.1-2.2-0.4-3.3c-0.2-0.9-0.7-1.7-1.2-2.5
	c-0.6-0.7-1.3-1.2-2.1-1.5c-1-0.4-2-0.6-3-0.5c-1.7,0-3.4,0.5-4.8,1.4c-1.5,1-2.8,2.3-3.8,3.8v16.8H318.7z"/>
<path d="M344.7-579.1c0,0.3-0.1,0.6-0.4,0.9c-0.2,0.2-0.5,0.4-0.9,0.4c-0.3,0-0.7-0.1-0.9-0.4c-0.2-0.2-0.4-0.5-0.4-0.9
	c0-0.3,0.1-0.7,0.4-0.9c0.2-0.2,0.6-0.4,0.9-0.4c0.3,0,0.6,0.1,0.9,0.4C344.6-579.7,344.7-579.4,344.7-579.1z M343.7-570.9v22h-0.5
	v-22H343.7z"/>
<path d="M352.4-548.8v-22h0.1c0.2,0,0.3,0.1,0.3,0.4l0.1,4.3c0.5-0.7,1.1-1.4,1.7-2c0.6-0.6,1.3-1.1,2.1-1.6c0.7-0.4,1.5-0.8,2.3-1
	c0.8-0.2,1.7-0.4,2.5-0.4c2-0.2,4,0.6,5.4,2.1c1.3,1.7,2,3.9,1.9,6.1v14.2h-0.5V-563c0-1.1-0.1-2.2-0.4-3.3
	c-0.2-0.9-0.7-1.7-1.2-2.5c-0.6-0.7-1.3-1.2-2.1-1.5c-1-0.4-2-0.6-3-0.5c-1.7,0-3.3,0.5-4.8,1.4c-1.5,1-2.8,2.3-3.8,3.8v16.8H352.4z
	"/>
<path d="M375-550c0-0.4,0.1-0.7,0.4-1c0.2-0.3,0.6-0.5,1-0.4c0.4,0,0.8,0.2,1,0.5c0.3,0.4,0.4,0.8,0.4,1.3c0,1.2-0.3,2.3-0.8,3.4
	c-0.5,1-1.1,2-1.9,2.8l-0.1-0.1c0,0-0.1-0.1-0.1-0.1c0-0.1,0.1-0.2,0.1-0.2l0.6-0.8c0.3-0.4,0.5-0.8,0.7-1.2c0.3-0.5,0.5-1,0.6-1.5
	c0.2-0.6,0.3-1.1,0.3-1.7c-0.3,0.3-0.6,0.4-1,0.4c-0.3,0-0.7-0.1-0.9-0.4C375.1-549.3,375-549.6,375-550z"/>
<path d="M393.4-549.3h14.8l-0.1,0.5h-15.3l3.9-31.5h0.5L393.4-549.3z"/>
<path d="M426.5-548.8h-0.1c-0.1,0-0.2,0-0.2-0.1c0-0.1-0.1-0.1-0.1-0.2l1.1-9.4c-0.6,1.4-1.2,2.7-2,4c-0.7,1.1-1.5,2.2-2.4,3.2
	c-0.8,0.8-1.7,1.5-2.7,2c-0.9,0.5-1.9,0.7-2.9,0.7c-0.9,0-1.7-0.2-2.5-0.6c-0.7-0.4-1.3-0.9-1.7-1.6c-0.5-0.7-0.8-1.6-1-2.4
	c-0.2-1-0.3-2-0.3-3.1c0-1.3,0.2-2.5,0.5-3.7c0.6-2.4,1.8-4.7,3.5-6.6c0.8-0.9,1.7-1.7,2.7-2.5c1-0.7,2-1.2,3.1-1.6
	c1.1-0.4,2.2-0.6,3.3-0.6c0.7,0,1.5,0.1,2.2,0.2c0.7,0.2,1.4,0.4,2,0.8L426.5-548.8z M417.3-549c1,0,2-0.3,2.8-0.7
	c1-0.6,1.9-1.3,2.7-2.1c0.9-1,1.7-2.2,2.4-3.4c0.8-1.4,1.5-2.9,2.1-4.4l1.3-10.2c-0.5-0.3-1.1-0.5-1.7-0.6c-0.6-0.1-1.3-0.2-1.9-0.2
	c-1.1,0-2.2,0.2-3.2,0.6c-1,0.4-2,0.9-2.9,1.5c-1,0.7-1.8,1.5-2.6,2.4c-0.8,0.9-1.4,1.9-2,3c-0.6,1.1-1,2.2-1.3,3.4
	c-0.6,2.2-0.6,4.4-0.2,6.6c0.2,0.8,0.4,1.6,0.9,2.2c0.4,0.6,0.9,1.1,1.5,1.4C415.8-549.1,416.5-549,417.3-549z"/>
<path d="M436-552.1c0-0.1,0-0.2,0-0.3c0-0.1,0-0.3,0-0.6s0.1-0.6,0.1-1c0.1-0.4,0.1-0.9,0.2-1.6l1.7-13.9h-3.4
	c-0.2,0-0.3-0.1-0.3-0.2v-0.1l3.6-0.1l1.2-8.9c0-0.1,0-0.1,0.1-0.2c0-0.1,0.1-0.1,0.2-0.1h0.1l-1.1,9.2h6.9v0.5h-6.9l-1.7,13.9
	c-0.1,0.6-0.1,1.1-0.2,1.5c0,0.4-0.1,0.8-0.1,1s0,0.5-0.1,0.6c0,0.2,0,0.2,0,0.3c0,0.5,0.1,1,0.2,1.5c0.1,0.4,0.3,0.7,0.6,1
	c0.3,0.3,0.6,0.4,0.9,0.6c0.4,0.1,0.7,0.2,1.1,0.2c0.5,0,1.1-0.1,1.6-0.3c0.4-0.2,0.8-0.4,1.2-0.6c0.3-0.2,0.6-0.4,0.8-0.6
	c0.2-0.2,0.4-0.3,0.4-0.3c0.1,0,0.1,0,0.2,0.1l0,0.1c-0.5,0.6-1.2,1.2-1.9,1.5c-0.7,0.4-1.5,0.6-2.4,0.6c-0.9,0.1-1.8-0.3-2.4-0.8
	C436.2-550.1,435.9-551.1,436-552.1z"/>
<path d="M455.5-548.6c-1.1,0-2.2-0.2-3.2-0.6c-0.9-0.4-1.7-1-2.4-1.8c-0.7-0.8-1.2-1.8-1.5-2.8c-0.4-1.2-0.5-2.5-0.5-3.7
	c0-1.1,0.1-2.3,0.3-3.4c0.2-1.1,0.6-2.2,1-3.2c0.4-1,0.9-1.9,1.5-2.8c0.6-0.8,1.3-1.6,2.1-2.2c0.8-0.6,1.6-1.1,2.6-1.5
	c1-0.4,2-0.5,3-0.5c1.1,0,2.2,0.2,3.1,0.6c0.9,0.4,1.7,1,2.4,1.8c0.7,0.8,1.2,1.8,1.5,2.8c0.4,1.2,0.5,2.4,0.5,3.7
	c0,1.1-0.1,2.3-0.3,3.4c-0.2,1.1-0.6,2.2-1,3.2c-0.4,1-0.9,2-1.5,2.8c-0.6,0.8-1.3,1.6-2.1,2.2c-0.8,0.6-1.6,1.1-2.6,1.5
	C457.5-548.8,456.5-548.6,455.5-548.6z M455.5-549c1.4,0,2.8-0.4,4.1-1.1c1.2-0.8,2.3-1.8,3.1-3c0.9-1.3,1.6-2.7,2-4.2
	c0.5-1.6,0.7-3.2,0.7-4.9c0-1.2-0.1-2.4-0.5-3.6c-0.3-1-0.8-1.9-1.4-2.7c-0.6-0.7-1.4-1.3-2.2-1.7c-0.9-0.4-1.9-0.6-2.9-0.6
	c-1,0-1.9,0.2-2.8,0.5c-0.9,0.3-1.7,0.8-2.4,1.4c-0.8,0.6-1.4,1.4-2,2.2c-0.6,0.8-1,1.7-1.4,2.7c-0.4,1-0.7,2.1-0.9,3.1
	c-0.2,1.1-0.3,2.2-0.3,3.3c0,1.2,0.2,2.4,0.5,3.5c0.3,1,0.8,1.9,1.4,2.7c0.6,0.7,1.4,1.3,2.2,1.7C453.5-549.2,454.5-549,455.5-549
	L455.5-549z"/>
<path d="M502.3-580.3v0.5h-10.9l-3.8,31H487l3.8-31h-11l0-0.5L502.3-580.3z"/>
<path d="M503.4-548.8l3.9-32.4h0.5l-2.3,18.9c0.6-1.3,1.3-2.5,2.1-3.7c0.7-1,1.5-2,2.5-2.8c0.8-0.7,1.7-1.3,2.7-1.8
	c0.9-0.4,1.9-0.6,2.8-0.6c1.4-0.1,2.7,0.5,3.6,1.5c0.8,1.3,1.2,2.8,1.1,4.4c0,0.4,0,0.7,0,1.1s-0.1,0.8-0.1,1.2l-1.7,14.1H518
	l1.6-14.1c0.1-0.7,0.1-1.5,0.1-2.2c0.1-1.4-0.3-2.9-1-4.1c-0.8-1-2-1.6-3.2-1.5c-1,0-1.9,0.2-2.8,0.7c-1,0.5-2,1.2-2.8,2
	c-0.9,0.9-1.8,1.9-2.5,3c-0.8,1.3-1.6,2.6-2.2,4l-1.5,12.3H503.4z"/>
<path d="M529.6-570.9l-2.7,22h-0.5l2.7-22H529.6z M531.3-579.1c0,0.3-0.1,0.6-0.4,0.9c-0.2,0.2-0.5,0.4-0.8,0.4
	c-0.3,0-0.6-0.1-0.8-0.4c-0.2-0.2-0.3-0.5-0.3-0.9c0-0.3,0.1-0.6,0.3-0.9c0.2-0.2,0.5-0.4,0.8-0.4c0.3,0,0.6,0.1,0.8,0.3
	C531.2-579.8,531.4-579.4,531.3-579.1z"/>
<path d="M535.3-548.8L538-571h0.1c0.1,0,0.2,0,0.2,0.1c0,0.1,0,0.1,0,0.2l-1,8.6c0.6-1.3,1.3-2.6,2.1-3.8c0.7-1.1,1.6-2,2.6-2.9
	c0.8-0.8,1.8-1.4,2.8-1.8c0.9-0.4,1.9-0.6,2.9-0.6c1.4-0.1,2.7,0.5,3.6,1.5c0.8,1.3,1.2,2.9,1.1,4.4c0,0.3,0,0.7,0,1.1
	s-0.1,0.8-0.1,1.2l-1.7,14.1H550l1.7-14.2c0-0.4,0.1-0.8,0.1-1.1s0-0.7,0-1.1c0.1-1.4-0.3-2.9-1-4.1c-0.8-1-2-1.6-3.2-1.5
	c-1,0-1.9,0.2-2.8,0.7c-1,0.5-2,1.2-2.8,2c-1,0.9-1.8,2-2.6,3.1c-0.8,1.3-1.6,2.6-2.2,4l-1.4,12.1L535.3-548.8z"/>
<path d="M568.9-548.8h-0.5l3.9-31.5h0.5L568.9-548.8z"/>
<path d="M580.2-552.1c0-0.1,0-0.2,0-0.3c0-0.1,0-0.3,0-0.6s0.1-0.6,0.1-1c0.1-0.4,0.1-0.9,0.2-1.6l1.7-13.9h-3.3
	c-0.2,0-0.3-0.1-0.3-0.2v-0.1l3.6-0.1l1.2-8.9c0-0.1,0-0.1,0.1-0.2c0-0.1,0.1-0.1,0.2-0.1h0.1l-1.1,9.2h6.9v0.5h-6.9l-1.7,13.9
	c-0.1,0.6-0.1,1.1-0.2,1.5c0,0.4-0.1,0.8-0.1,1s0,0.5-0.1,0.6c-0.1,0.1,0,0.2,0,0.3c0,0.5,0.1,1,0.2,1.5c0.1,0.4,0.3,0.7,0.6,1
	c0.3,0.3,0.6,0.4,0.9,0.6c0.4,0.1,0.7,0.2,1.1,0.2c0.5,0,1.1-0.1,1.6-0.3c0.4-0.2,0.8-0.4,1.2-0.6c0.3-0.2,0.6-0.4,0.8-0.6
	c0.2-0.2,0.3-0.3,0.4-0.3c0.1,0,0.1,0,0.2,0.1v0.1c-0.5,0.6-1.2,1.2-1.9,1.5c-0.7,0.4-1.5,0.6-2.4,0.6c-0.9,0.1-1.8-0.3-2.4-0.8
	C580.4-550.1,580.1-551.1,580.2-552.1z"/>
<path d="M606.5-548.8h-0.1c-0.1,0-0.2,0-0.2-0.1c0-0.1-0.1-0.1-0.1-0.2l1.1-9.4c-0.5,1.4-1.2,2.7-2,4c-0.7,1.1-1.5,2.2-2.4,3.2
	c-0.8,0.8-1.7,1.5-2.7,2c-0.9,0.5-1.9,0.7-2.9,0.7c-0.9,0-1.7-0.2-2.5-0.6c-0.7-0.4-1.3-0.9-1.7-1.6c-0.5-0.7-0.8-1.6-1-2.4
	c-0.2-1-0.3-2-0.3-3.1c0-1.3,0.2-2.5,0.5-3.7c0.7-2.4,1.8-4.7,3.5-6.6c0.8-0.9,1.7-1.7,2.7-2.5c1-0.7,2-1.2,3.1-1.6
	c1.8-0.6,3.7-0.8,5.6-0.3c0.7,0.2,1.4,0.5,2,0.8L606.5-548.8z M597.2-549c1,0,2-0.3,2.8-0.7c1-0.6,1.9-1.3,2.7-2.1
	c0.9-1,1.7-2.2,2.4-3.4c0.8-1.4,1.5-2.9,2.1-4.4l1.3-10.2c-0.5-0.3-1.1-0.5-1.7-0.6c-0.6-0.1-1.3-0.2-1.9-0.2
	c-1.1,0-2.2,0.2-3.2,0.6c-1.1,0.4-2.1,0.9-3,1.5c-1,0.7-1.8,1.5-2.6,2.4c-0.8,0.9-1.4,1.9-2,3c-0.6,1.1-1,2.2-1.3,3.4
	c-0.3,1.2-0.5,2.4-0.5,3.6c0,1,0.1,2,0.3,3c0.2,0.8,0.5,1.6,0.9,2.2c0.4,0.6,0.9,1.1,1.5,1.4C595.7-549.1,596.4-549,597.2-549z"/>
<path d="M614.9-548.8l3.9-32.4h0.5l-4,32.4H614.9z"/>
<path d="M627.6-570.9l-2.7,22h-0.5l2.7-22H627.6z M629.4-579.1c0,0.3-0.1,0.6-0.4,0.9c-0.4,0.5-1.1,0.5-1.5,0.1c0,0-0.1-0.1-0.1-0.1
	c-0.2-0.2-0.3-0.5-0.3-0.9c0-0.3,0.1-0.6,0.3-0.9c0.2-0.2,0.5-0.4,0.8-0.4c0.3,0,0.6,0.1,0.8,0.3
	C629.3-579.8,629.4-579.4,629.4-579.1z"/>
<path d="M648.3-552.9c-0.7,0.8-1.5,1.5-2.3,2.2c-0.6,0.5-1.3,1-2,1.3c-0.6,0.3-1.3,0.5-2,0.7c-0.7,0.1-1.4,0.2-2.1,0.2
	c-1.1,0-2.2-0.2-3.2-0.7c-0.9-0.4-1.7-1-2.3-1.8c-0.6-0.8-1.1-1.7-1.3-2.7c-0.3-1.1-0.4-2.3-0.4-3.4c0-1.2,0.1-2.3,0.4-3.5
	c0.2-1.1,0.6-2.2,1-3.3c0.4-1,1-2,1.6-2.9c0.6-0.9,1.3-1.6,2.1-2.3c0.8-0.6,1.6-1.2,2.6-1.5c1-0.4,2-0.6,3-0.6c0.7,0,1.3,0.1,2,0.2
	c0.5,0.1,1.1,0.3,1.6,0.6c0.5,0.3,0.9,0.6,1.3,0.9c0.4,0.4,0.7,0.8,1,1.2l-0.1,0.1c-0.1,0.1-0.1,0.1-0.2,0.1c-0.1,0-0.3-0.1-0.5-0.4
	c-0.3-0.3-0.6-0.6-1-0.9c-0.5-0.4-1-0.7-1.6-0.9c-0.8-0.3-1.6-0.4-2.5-0.4c-1.4,0-2.8,0.4-4,1.2c-1.3,0.8-2.3,1.9-3.2,3.1
	c-0.9,1.3-1.6,2.8-2.1,4.4c-0.5,1.6-0.7,3.3-0.8,5c0,1.1,0.1,2.1,0.4,3.2c0.2,0.9,0.6,1.8,1.2,2.6c0.5,0.7,1.2,1.3,2.1,1.7
	c0.9,0.4,2,0.7,3,0.6c1.5,0,3-0.3,4.4-1c0.5-0.3,1-0.6,1.5-1c0.4-0.4,0.8-0.7,1.1-1l0.8-0.8c0.2-0.2,0.4-0.3,0.5-0.3h0.1
	C648.1-553.1,648.3-553,648.3-552.9z"/>
<path d="M651.8-550c0-0.4,0.1-0.7,0.4-1c0.2-0.3,0.6-0.5,1-0.4c0.4,0,0.8,0.2,1,0.5c0.3,0.4,0.4,0.8,0.4,1.3c0,1.2-0.3,2.3-0.8,3.3
	c-0.5,1-1.1,2-1.9,2.8l-0.1-0.1c0,0-0.1-0.1-0.1-0.2c0-0.1,0-0.2,0.1-0.2c0.1-0.2,0.3-0.4,0.5-0.7c0.3-0.4,0.5-0.8,0.7-1.2
	c0.3-0.5,0.5-1,0.7-1.5c0.2-0.6,0.3-1.2,0.3-1.8c-0.3,0.3-0.6,0.4-1,0.4c-0.3,0-0.7-0.1-0.9-0.4C651.9-549.3,651.8-549.6,651.8-550z
	"/>
<path d="M674.1-550.8h15.1v2h-17.4v-31.9h2.3V-550.8z"/>
<path d="M708-548.8c-0.4,0-0.8-0.2-0.8-0.6l-0.3-2.9c-0.6,0.6-1.2,1.1-1.8,1.6c-0.6,0.5-1.2,0.9-1.9,1.2c-0.7,0.3-1.4,0.6-2.1,0.8
	c-0.8,0.2-1.7,0.3-2.5,0.2c-0.8,0-1.5-0.1-2.2-0.3c-0.7-0.2-1.3-0.5-1.9-1c-0.6-0.5-1.1-1.1-1.4-1.8c-0.4-0.8-0.5-1.7-0.5-2.6
	c0-0.9,0.3-1.9,0.8-2.6c0.7-0.9,1.5-1.6,2.6-2.1c1.4-0.7,2.9-1.2,4.4-1.4c2.1-0.4,4.3-0.6,6.5-0.6v-2.3c0.1-1.7-0.4-3.4-1.3-4.8
	c-1-1.2-2.5-1.8-4-1.7c-0.9,0-1.9,0.1-2.8,0.5c-0.7,0.3-1.3,0.6-1.9,1c-0.4,0.3-0.9,0.6-1.3,1c-0.2,0.2-0.5,0.4-0.8,0.5
	c-0.3,0-0.6-0.2-0.7-0.4l-0.4-0.7c1.1-1.1,2.3-2,3.7-2.7c1.4-0.6,2.9-0.9,4.4-0.9c1.1,0,2.2,0.2,3.2,0.6c0.9,0.4,1.6,0.9,2.2,1.6
	c0.6,0.8,1.1,1.6,1.3,2.6c0.3,1.1,0.5,2.2,0.5,3.4v14.6H708z M699-550c0.8,0,1.6-0.1,2.4-0.3c0.7-0.2,1.4-0.4,2-0.8
	c0.6-0.3,1.2-0.7,1.8-1.2c0.5-0.5,1.1-1,1.6-1.5v-5.8c-1.8,0-3.7,0.2-5.5,0.5c-1.3,0.2-2.6,0.6-3.8,1.1c-0.9,0.3-1.6,0.9-2.2,1.6
	c-0.5,0.6-0.7,1.4-0.7,2.1c0,0.7,0.1,1.3,0.4,1.9c0.2,0.5,0.6,1,1,1.4c0.4,0.4,0.9,0.6,1.4,0.8C697.9-550.1,698.5-550,699-550
	L699-550z"/>
<path d="M721.8-548.5c-1.3,0.1-2.6-0.4-3.5-1.3c-0.9-1.1-1.3-2.5-1.2-3.9v-15.3h-3.2c-0.1,0-0.3,0-0.4-0.1c-0.1-0.1-0.2-0.2-0.2-0.4
	v-0.8l3.8-0.3l0.5-8c0-0.1,0.1-0.3,0.2-0.4c0.1-0.1,0.2-0.2,0.4-0.2h1v8.5h7v1.6h-7v15.2c0,0.5,0.1,1.1,0.2,1.6
	c0.1,0.4,0.4,0.8,0.7,1.1c0.3,0.3,0.6,0.5,1,0.6c0.4,0.1,0.8,0.2,1.2,0.2c0.5,0,1-0.1,1.4-0.2c0.3-0.1,0.7-0.3,1-0.5
	c0.2-0.2,0.5-0.3,0.7-0.5c0.1-0.1,0.3-0.2,0.4-0.2c0.1,0,0.3,0.1,0.4,0.2l0.6,0.9c-0.6,0.7-1.4,1.2-2.2,1.6
	C723.6-548.6,722.7-548.5,721.8-548.5z"/>
<path d="M740.2-571.6c1.5,0,2.9,0.3,4.3,0.8c1.2,0.5,2.3,1.3,3.2,2.3c0.9,1.1,1.6,2.3,2,3.6c0.9,3.1,0.9,6.4,0,9.5
	c-0.4,1.3-1.1,2.6-2,3.6c-0.9,1-2,1.8-3.2,2.3c-2.8,1.1-5.8,1.1-8.6,0c-1.2-0.5-2.3-1.3-3.2-2.3c-0.9-1.1-1.6-2.3-2-3.6
	c-0.9-3.1-0.9-6.4,0-9.5c0.4-1.3,1.1-2.6,2-3.6c0.9-1,2-1.8,3.2-2.3C737.3-571.3,738.7-571.6,740.2-571.6z M740.2-550.2
	c1.2,0,2.4-0.2,3.5-0.7c1-0.5,1.8-1.1,2.5-2c0.7-0.9,1.2-2,1.5-3.1c0.7-2.7,0.7-5.4,0-8.1c-0.3-1.1-0.8-2.2-1.5-3.1
	c-0.7-0.9-1.5-1.5-2.5-2c-2.2-0.9-4.8-0.9-7,0c-1,0.5-1.8,1.1-2.5,2c-0.7,0.9-1.2,2-1.5,3.1c-0.7,2.7-0.7,5.4,0,8.1
	c0.3,1.1,0.8,2.2,1.5,3.1c0.7,0.9,1.5,1.5,2.5,2C737.8-550.4,739-550.2,740.2-550.2z"/>
<path d="M768.1-550.8h15.1v2h-17.4v-31.9h2.3V-550.8z"/>
<path d="M791.5-578.9c0,0.3-0.1,0.5-0.2,0.8c-0.1,0.2-0.3,0.4-0.4,0.6c-0.2,0.2-0.4,0.3-0.6,0.4c-0.2,0.1-0.5,0.2-0.8,0.2
	c-0.3,0-0.5-0.1-0.8-0.2c-0.2-0.1-0.4-0.2-0.6-0.4c-0.2-0.2-0.3-0.4-0.4-0.6c-0.1-0.2-0.2-0.5-0.2-0.8c0-0.3,0.1-0.5,0.2-0.8
	c0.1-0.2,0.2-0.5,0.4-0.6c0.2-0.2,0.4-0.3,0.6-0.4c0.2-0.1,0.5-0.2,0.8-0.2c0.3,0,0.5,0,0.8,0.2c0.2,0.1,0.4,0.2,0.6,0.4
	c0.2,0.2,0.3,0.4,0.4,0.6C791.4-579.5,791.5-579.2,791.5-578.9z M790.5-571.2v22.4h-2.1v-22.4H790.5z"/>
<path d="M805.8-571.6c0.9,0,1.8,0.1,2.7,0.4c0.8,0.2,1.5,0.6,2.2,1h5.7v0.7c0,0.4-0.2,0.6-0.6,0.6l-3.4,0.2c0.4,0.6,0.8,1.2,1,1.9
	c0.2,0.7,0.3,1.5,0.3,2.3c0,1-0.2,2-0.6,2.9c-0.4,0.9-0.9,1.6-1.6,2.2c-0.7,0.6-1.6,1.1-2.5,1.5c-1,0.4-2.1,0.5-3.2,0.5
	c-1.2,0-2.4-0.2-3.5-0.6c-0.6,0.3-1.1,0.8-1.5,1.3c-0.3,0.4-0.5,0.9-0.5,1.4c0,0.6,0.2,1.1,0.7,1.5c0.5,0.4,1.1,0.6,1.8,0.8
	c0.8,0.2,1.7,0.3,2.5,0.3l2.9,0.1c1,0.1,2,0.2,2.9,0.3c0.9,0.1,1.7,0.4,2.5,0.7c0.7,0.3,1.3,0.8,1.8,1.5c0.5,0.7,0.7,1.6,0.7,2.4
	c0,0.9-0.2,1.9-0.7,2.7c-0.5,0.9-1.2,1.7-2,2.3c-1,0.7-2,1.2-3.2,1.6c-1.4,0.4-2.8,0.6-4.2,0.6c-1.4,0-2.8-0.1-4.1-0.5
	c-1.1-0.3-2.1-0.7-3-1.3c-0.7-0.5-1.4-1.1-1.8-1.9c-0.4-0.7-0.6-1.5-0.6-2.3c0-1.1,0.4-2.2,1.2-3.1c0.9-0.9,2-1.6,3.2-2
	c-0.7-0.2-1.3-0.6-1.8-1.1c-0.5-0.6-0.7-1.3-0.7-2c0-0.3,0.1-0.7,0.2-1c0.1-0.4,0.3-0.7,0.5-1c0.2-0.4,0.5-0.7,0.9-1
	c0.4-0.3,0.8-0.6,1.2-0.8c-1-0.6-1.9-1.4-2.5-2.4c-0.6-1.1-0.9-2.3-0.9-3.6c0-1,0.2-2,0.6-2.9c0.4-0.9,0.9-1.6,1.6-2.3
	c0.7-0.7,1.6-1.1,2.5-1.5C803.6-571.4,804.7-571.6,805.8-571.6z M814.1-547.3c0-0.6-0.2-1.2-0.5-1.7c-0.4-0.4-0.9-0.8-1.5-1
	c-0.7-0.3-1.4-0.4-2.1-0.5c-0.8-0.1-1.6-0.2-2.5-0.2l-2.6-0.1c-0.8,0-1.7-0.1-2.5-0.3c-0.5,0.2-1.1,0.5-1.6,0.8
	c-0.5,0.3-0.9,0.6-1.2,1c-0.3,0.4-0.6,0.8-0.8,1.2c-0.5,1.1-0.4,2.3,0.2,3.3c0.4,0.6,0.9,1.1,1.5,1.5c0.7,0.5,1.5,0.8,2.4,1
	c1.1,0.3,2.2,0.4,3.3,0.4c1.1,0,2.1-0.1,3.2-0.4c0.9-0.2,1.8-0.6,2.6-1.1c0.7-0.4,1.3-1,1.7-1.7
	C813.9-545.8,814.1-546.6,814.1-547.3z M805.8-558.7c0.9,0,1.7-0.1,2.6-0.4c0.7-0.3,1.3-0.6,1.9-1.2c0.5-0.5,0.9-1.1,1.2-1.8
	c0.3-0.7,0.4-1.5,0.4-2.3c0-0.8-0.1-1.6-0.4-2.3c-0.3-0.7-0.7-1.3-1.2-1.8c-0.5-0.5-1.2-0.9-1.9-1.2c-0.8-0.3-1.7-0.4-2.5-0.4
	c-0.9,0-1.7,0.1-2.5,0.4c-0.7,0.2-1.4,0.6-1.9,1.2c-0.5,0.5-0.9,1.1-1.2,1.8c-0.3,0.7-0.4,1.5-0.4,2.3c0,0.8,0.1,1.6,0.4,2.3
	c0.3,0.7,0.7,1.3,1.2,1.8c0.5,0.5,1.2,0.9,1.9,1.2C804.1-558.9,804.9-558.7,805.8-558.7z"/>
<path d="M821.1-548.8v-32.7h2.1v14.2c1-1.2,2.2-2.2,3.5-3c1.4-0.8,2.9-1.2,4.5-1.1c1.1,0,2.2,0.2,3.2,0.6c0.9,0.4,1.7,0.9,2.3,1.7
	c0.6,0.8,1.1,1.7,1.4,2.7c0.3,1.1,0.5,2.3,0.5,3.5v14.3h-2.1v-14.3c0.1-1.8-0.4-3.5-1.4-4.9c-1.1-1.3-2.7-1.9-4.4-1.8
	c-1.4,0-2.9,0.4-4.1,1.1c-1.3,0.8-2.5,1.9-3.4,3.1v16.8H821.1z"/>
<path d="M851.6-548.5c-1.3,0.1-2.6-0.4-3.6-1.3c-0.9-1.1-1.4-2.5-1.3-3.9v-15.3h-3.2c-0.1,0-0.3,0-0.4-0.1c-0.1-0.1-0.2-0.2-0.2-0.4
	v-0.8l3.8-0.3l0.5-8c0-0.1,0.1-0.3,0.2-0.4c0.1-0.1,0.2-0.2,0.4-0.2h1v8.5h7v1.6h-7v15.2c0,0.5,0.1,1.1,0.2,1.6
	c0.1,0.4,0.4,0.8,0.7,1.1c0.3,0.3,0.6,0.5,1,0.6c0.4,0.1,0.8,0.2,1.2,0.2c0.5,0,1-0.1,1.4-0.2c0.3-0.1,0.7-0.3,1-0.5
	c0.2-0.2,0.5-0.3,0.7-0.5c0.1-0.1,0.3-0.2,0.4-0.2c0.1,0,0.3,0.1,0.4,0.2l0.6,0.9c-0.6,0.7-1.3,1.2-2.1,1.6
	C853.4-548.6,852.5-548.5,851.6-548.5z"/>
<path d="M860.3-550.8c0-1,0.8-1.9,1.8-1.9c0.1,0,0.1,0,0.2,0c0.6,0,1.1,0.2,1.5,0.7c0.4,0.5,0.6,1.1,0.5,1.8c0,0.6-0.1,1.3-0.2,1.9
	c-0.2,0.6-0.4,1.3-0.7,1.9c-0.3,0.6-0.7,1.2-1.1,1.8c-0.4,0.6-0.9,1.1-1.4,1.6l-0.3-0.3c-0.1-0.1-0.2-0.2-0.2-0.4
	c0-0.1,0-0.2,0.1-0.2c0-0.1,0.1-0.1,0.2-0.2c0.2-0.2,0.4-0.4,0.6-0.7c0.3-0.3,0.5-0.6,0.7-1c0.2-0.4,0.5-0.9,0.6-1.3
	c0.2-0.5,0.3-1,0.4-1.5c-0.1,0-0.2,0.1-0.3,0.1c-0.1,0-0.2,0-0.4,0c-0.5,0-1-0.2-1.4-0.6C860.5-549.7,860.3-550.2,860.3-550.8z"/>
<path d="M880.8-550.8h13.9l-0.2,1.9h-16.1l3.9-31.8h2.2L880.8-550.8z"/>
<path d="M913.8-548.8h-1c-0.2,0-0.4,0-0.6-0.2c-0.1-0.1-0.2-0.3-0.2-0.5l0.8-7c-0.5,1.1-1.2,2.2-1.9,3.3c-0.6,0.9-1.4,1.8-2.2,2.5
	c-0.7,0.7-1.5,1.2-2.4,1.6c-0.8,0.4-1.7,0.6-2.7,0.6c-0.9,0-1.7-0.2-2.5-0.5c-0.7-0.4-1.3-0.9-1.8-1.6c-0.5-0.7-0.9-1.6-1.1-2.5
	c-0.3-1.1-0.4-2.1-0.4-3.2c0-1.3,0.2-2.6,0.5-3.8c0.3-1.2,0.8-2.4,1.4-3.6c0.6-1.1,1.3-2.2,2.1-3.2c0.8-0.9,1.8-1.7,2.8-2.5
	c1-0.7,2.1-1.2,3.2-1.6c1.2-0.4,2.4-0.6,3.6-0.6c0.8,0,1.7,0.1,2.5,0.2c0.8,0.2,1.6,0.4,2.3,0.8L913.8-548.8z M904.3-550.3
	c0.9,0,1.8-0.3,2.5-0.7c0.9-0.5,1.7-1.2,2.4-2c0.8-1,1.5-2,2.1-3.2c0.7-1.3,1.3-2.7,1.8-4.1l1.1-9.1c-0.9-0.3-1.9-0.5-2.9-0.5
	c-1,0-2,0.2-2.9,0.5c-1,0.3-1.9,0.8-2.7,1.4c-0.8,0.6-1.6,1.3-2.3,2.1c-0.7,0.8-1.3,1.7-1.8,2.7c-0.5,1-0.9,2-1.2,3.1
	c-0.3,1.1-0.4,2.2-0.4,3.3c-0.1,1.6,0.2,3.2,1,4.7C901.8-550.9,903-550.2,904.3-550.3L904.3-550.3z"/>
<path d="M922.6-552.6c0-0.1,0-0.2,0-0.3s0-0.3,0-0.6c0-0.3,0.1-0.6,0.1-1s0.1-1,0.2-1.6l1.5-12.7h-3c-0.3,0-0.5-0.1-0.5-0.4l0.1-0.9
	l3.5-0.3l1.5-8c0-0.1,0.1-0.3,0.2-0.4c0.1-0.1,0.2-0.2,0.4-0.2h1l-1.1,8.5h6.5l-0.2,1.6h-6.5l-1.4,12.6c-0.1,0.6-0.1,1.1-0.2,1.5
	c0,0.4-0.1,0.7-0.1,1c0,0.3,0,0.4-0.1,0.5s0,0.2,0,0.3c-0.1,0.8,0.2,1.5,0.7,2.1c0.5,0.4,1.1,0.7,1.8,0.7c0.5,0,0.9-0.1,1.3-0.2
	c0.3-0.1,0.7-0.3,1-0.5c0.2-0.2,0.5-0.3,0.7-0.5c0.2-0.2,0.3-0.2,0.4-0.2c0.1,0,0.1,0,0.2,0c0.1,0.1,0.1,0.1,0.1,0.2l0.4,1
	c-0.6,0.6-1.4,1.2-2.2,1.5c-0.8,0.4-1.7,0.6-2.6,0.6c-1.1,0.1-2.1-0.3-2.9-1C922.9-550.3,922.5-551.4,922.6-552.6z"/>
<path d="M943.1-548.5c-1.1,0-2.2-0.2-3.3-0.6c-1-0.4-1.8-1-2.5-1.8c-0.7-0.8-1.3-1.8-1.6-2.9c-0.4-1.2-0.6-2.6-0.6-3.9
	c0-1.8,0.3-3.5,0.8-5.2c0.5-1.6,1.3-3.1,2.3-4.4c1-1.2,2.1-2.2,3.5-3c1.4-0.8,2.9-1.1,4.5-1.1c1.1,0,2.2,0.2,3.3,0.6
	c1,0.4,1.8,1,2.5,1.8c0.7,0.8,1.3,1.8,1.6,2.9c0.4,1.2,0.6,2.5,0.6,3.8c0,1.8-0.3,3.5-0.8,5.2c-0.5,1.6-1.3,3-2.3,4.4
	c-0.9,1.3-2.1,2.3-3.5,3.1C946.2-548.9,944.6-548.5,943.1-548.5z M943.2-550.2c1.3,0,2.5-0.3,3.6-1c1.1-0.7,2-1.7,2.8-2.8
	c0.8-1.2,1.4-2.5,1.8-3.9c0.4-1.5,0.6-3,0.6-4.5c0.1-2-0.4-3.9-1.6-5.6c-1.1-1.3-2.7-2.1-4.4-2c-0.8,0-1.7,0.2-2.5,0.5
	c-0.8,0.3-1.5,0.7-2.1,1.3c-0.7,0.6-1.3,1.3-1.8,2c-0.5,0.8-1,1.6-1.3,2.5c-0.4,0.9-0.6,1.9-0.8,2.9c-0.2,1-0.3,2-0.3,3.1
	c-0.1,2,0.4,3.9,1.6,5.5C939.9-550.9,941.5-550.2,943.2-550.2z"/>
<path d="M969.8-550.8h13.9l-0.2,1.9h-16.1l3.9-31.8h2.2L969.8-550.8z"/>
<path d="M993.1-571.2l-2.7,22.4h-2.1l2.7-22.4H993.1z M994.7-578.9c0,0.3-0.1,0.5-0.2,0.8c-0.2,0.4-0.6,0.8-1,1
	c-0.5,0.2-1,0.2-1.4,0c-0.2-0.1-0.4-0.3-0.6-0.4c-0.2-0.2-0.3-0.4-0.4-0.6c-0.1-0.2-0.2-0.5-0.2-0.8c0-0.3,0.1-0.5,0.2-0.8
	c0.1-0.2,0.2-0.5,0.4-0.6c0.2-0.2,0.4-0.3,0.6-0.4c0.5-0.2,1-0.2,1.4,0c0.2,0.1,0.4,0.3,0.6,0.4c0.2,0.2,0.3,0.4,0.4,0.6
	C994.7-579.5,994.7-579.2,994.7-578.9L994.7-578.9z"/>
<path d="M1012.9-565.4c0,0.8-0.1,1.5-0.3,2.2c-0.2,0.6-0.4,1.3-0.8,1.9c-0.3,0.5-0.6,1.1-1,1.6c-0.3,0.5-0.7,1-1,1.4
	c-0.3,0.5-0.5,0.9-0.7,1.4c-0.2,0.5-0.3,1-0.3,1.5c0,0.4,0.1,0.9,0.3,1.2c0.2,0.4,0.4,0.8,0.7,1.1c0.3,0.4,0.5,0.7,0.9,1.1
	c0.3,0.4,0.6,0.7,0.9,1.2c0.3,0.4,0.5,0.9,0.7,1.3c0.2,0.5,0.3,1.1,0.3,1.6c0,1-0.3,1.9-0.7,2.7c-0.5,0.9-1.2,1.7-2,2.3
	c-0.9,0.7-2,1.3-3.1,1.6c-1.3,0.4-2.7,0.6-4.1,0.6c-1.1,0-2.2-0.1-3.2-0.4c-0.9-0.2-1.8-0.5-2.5-1c-0.7-0.4-1.2-1-1.7-1.7
	c-0.4-0.7-0.6-1.5-0.6-2.2c0-1,0.3-2,0.8-2.9c0.6-0.9,1.4-1.6,2.3-2.1c1.1-0.6,2.2-1,3.4-1.3c1.4-0.3,2.7-0.5,4.1-0.5
	c0.5,0,1,0,1.5,0.1c0.5,0,1,0.1,1.5,0.2c-0.3-0.3-0.5-0.7-0.6-1.1c-0.2-0.4-0.3-0.9-0.3-1.3c0-0.5,0.1-1.1,0.3-1.6
	c0.2-0.7,0.6-1.4,1-2c-0.6,0.4-1.3,0.8-2,1c-0.7,0.2-1.5,0.3-2.2,0.3c-0.8,0-1.6-0.1-2.4-0.4c-0.7-0.3-1.4-0.7-1.9-1.2
	c-0.6-0.6-1-1.3-1.2-2c-0.3-0.9-0.5-1.8-0.5-2.7c0-1,0.2-2,0.5-3c0.4-1,0.9-1.9,1.6-2.7c0.7-0.8,1.6-1.4,2.6-1.9
	c1.1-0.5,2.3-0.7,3.5-0.7c0.7,0,1.5,0.1,2.2,0.3c0.6,0.2,1.3,0.5,1.8,0.8h5.8l-0.1,0.7c0,0.1-0.1,0.3-0.2,0.4
	c-0.1,0.1-0.3,0.2-0.5,0.2l-3.6,0.3c0.3,0.5,0.5,1,0.6,1.6C1012.8-566.6,1012.9-566,1012.9-565.4z M1010.5-547.7
	c0-0.6-0.1-1.3-0.4-1.9c-0.2-0.5-0.5-1-0.9-1.4v0.1c-0.7-0.1-1.4-0.2-2.1-0.2s-1.3-0.1-1.9-0.1c-1.3,0-2.6,0.1-3.9,0.4
	c-1,0.2-1.9,0.6-2.7,1.1c-0.7,0.4-1.3,1-1.7,1.7c-0.4,0.6-0.5,1.3-0.5,2c0,0.6,0.1,1.2,0.4,1.7c0.3,0.5,0.7,1,1.2,1.3
	c0.6,0.4,1.3,0.6,2,0.8c0.8,0.2,1.7,0.3,2.5,0.3c1.1,0,2.2-0.1,3.2-0.5c0.9-0.3,1.7-0.7,2.5-1.3c0.6-0.5,1.2-1.1,1.6-1.8
	C1010.3-546.2,1010.5-546.9,1010.5-547.7z M1004.9-558.4c0.9,0,1.8-0.2,2.6-0.6c0.7-0.4,1.4-0.9,1.9-1.6c0.5-0.7,0.9-1.4,1.2-2.2
	c0.3-0.8,0.4-1.7,0.4-2.5c0.3-2.3-1.4-4.4-3.7-4.7c-0.3,0-0.6,0-0.9,0c-0.9,0-1.8,0.2-2.6,0.6c-0.7,0.4-1.4,0.9-1.9,1.5
	c-0.5,0.6-0.9,1.4-1.2,2.2c-0.3,0.8-0.4,1.7-0.4,2.5c-0.1,1.3,0.3,2.6,1.2,3.6C1002.5-558.8,1003.7-558.3,1004.9-558.4L1004.9-558.4
	z"/>
<path d="M1017.9-548.8l4-32.7h2.1l-2.1,17.1c0.6-1.1,1.2-2.1,2-3c0.7-0.8,1.4-1.6,2.3-2.2c0.8-0.6,1.6-1,2.5-1.4
	c0.8-0.3,1.7-0.5,2.5-0.5c1.4-0.1,2.9,0.5,3.8,1.6c0.9,1.4,1.4,3,1.2,4.7c0,0.1,0,0.3,0,0.4s0,0.4-0.1,0.8s-0.1,0.9-0.2,1.6
	c-0.1,0.7-0.2,1.6-0.3,2.8c-0.1,1.2-0.3,2.7-0.5,4.4s-0.4,3.9-0.8,6.4h-2.1l1.7-14.3c0.1-0.6,0.1-1.3,0.1-1.9
	c0.1-1.2-0.2-2.4-0.9-3.5c-0.7-0.8-1.7-1.3-2.7-1.2c-0.9,0-1.7,0.2-2.5,0.6c-0.9,0.5-1.7,1.1-2.4,1.8c-0.8,0.8-1.6,1.8-2.2,2.8
	c-0.7,1.2-1.4,2.4-1.9,3.7l-1.5,12.1H1017.9z"/>
<path d="M1042.7-552.6c0-0.1,0-0.2,0-0.3s0-0.3,0-0.6c0-0.3,0.1-0.6,0.1-1s0.1-1,0.2-1.6l1.5-12.7h-2.9c-0.3,0-0.4-0.1-0.4-0.4
	l0.1-0.9l3.5-0.3l1.5-8c0-0.1,0.1-0.3,0.2-0.4c0.1-0.1,0.2-0.2,0.4-0.2h1l-1,8.5h6.5l-0.2,1.6h-6.5l-1.6,12.6
	c-0.1,0.6-0.1,1.1-0.2,1.5s-0.1,0.7-0.1,1s-0.1,0.4-0.1,0.5s0,0.2,0,0.3c-0.1,0.8,0.2,1.5,0.7,2.1c0.5,0.4,1.1,0.7,1.8,0.7
	c0.4,0,0.9-0.1,1.3-0.2c0.3-0.1,0.7-0.3,1-0.5c0.2-0.2,0.5-0.3,0.7-0.5c0.1-0.1,0.3-0.2,0.4-0.2c0.1,0,0.1,0,0.2,0
	c0.1,0.1,0.1,0.1,0.1,0.2l0.4,1c-0.6,0.6-1.4,1.2-2.2,1.5c-0.8,0.4-1.7,0.6-2.6,0.6c-1.1,0.1-2.1-0.3-2.9-1
	C1043-550.2,1042.6-551.4,1042.7-552.6z"/>
<path d="M1068.2-548.8h-2.2l3.9-31.8h2.2L1068.2-548.8z"/>
<path d="M1078.6-552.6c0-0.1,0-0.2,0-0.3s0-0.3,0-0.6c0-0.3,0.1-0.6,0.1-1s0.1-1,0.2-1.6l1.5-12.7h-2.9c-0.3,0-0.4-0.1-0.4-0.4
	l0.1-0.9l3.5-0.3l1.5-8c0-0.1,0.1-0.3,0.2-0.4c0.1-0.1,0.2-0.2,0.4-0.2h1l-1.1,8.5h6.5l-0.2,1.6h-6.5l-1.6,12.6
	c-0.1,0.6-0.1,1.1-0.2,1.5l-0.1,1c0,0.2,0,0.4,0,0.5s0,0.2,0,0.3c-0.1,0.8,0.2,1.5,0.7,2.1c0.5,0.4,1.1,0.7,1.8,0.7
	c0.5,0,0.9-0.1,1.3-0.2c0.3-0.1,0.7-0.3,1-0.5c0.2-0.2,0.5-0.3,0.7-0.5c0.1-0.1,0.3-0.2,0.4-0.2c0.1,0,0.1,0,0.2,0
	c0.1,0.1,0.1,0.1,0.1,0.2l0.4,1c-0.6,0.6-1.4,1.2-2.2,1.5c-0.8,0.4-1.7,0.6-2.6,0.6c-1.1,0.1-2.1-0.3-2.9-1
	C1078.8-550.2,1078.5-551.4,1078.6-552.6z"/>
<path d="M1106.7-548.8h-1c-0.2,0-0.4,0-0.6-0.2c-0.1-0.1-0.2-0.3-0.2-0.5l0.7-7c-0.5,1.1-1.2,2.2-1.9,3.3c-0.6,0.9-1.4,1.8-2.2,2.5
	c-0.7,0.7-1.5,1.2-2.4,1.6c-0.8,0.4-1.7,0.6-2.7,0.6c-0.9,0-1.7-0.2-2.5-0.5c-0.7-0.4-1.3-0.9-1.8-1.6c-0.5-0.7-0.9-1.6-1.1-2.5
	c-0.3-1.1-0.4-2.1-0.4-3.2c0-1.3,0.2-2.6,0.5-3.8c0.6-2.5,1.9-4.8,3.6-6.7c0.8-0.9,1.8-1.7,2.8-2.5c1-0.7,2.1-1.2,3.2-1.6
	c1.2-0.4,2.4-0.6,3.6-0.6c0.8,0,1.7,0.1,2.5,0.2c0.8,0.2,1.6,0.4,2.3,0.8L1106.7-548.8z M1097.2-550.3c0.9,0,1.8-0.3,2.5-0.7
	c0.9-0.5,1.7-1.2,2.4-2c0.8-1,1.5-2,2.1-3.2c0.7-1.3,1.3-2.7,1.8-4.1l1.1-9.1c-0.9-0.3-1.9-0.5-2.9-0.5c-1,0-2,0.2-2.9,0.5
	c-1,0.3-1.8,0.8-2.7,1.4c-0.8,0.6-1.6,1.3-2.3,2.1c-0.7,0.8-1.3,1.7-1.8,2.7c-0.5,1-0.9,2-1.2,3.1c-0.3,1.1-0.4,2.2-0.4,3.3
	c-0.1,1.6,0.2,3.2,1,4.7C1094.6-550.9,1095.9-550.2,1097.2-550.3L1097.2-550.3z"/>
<path d="M1114.1-548.8l4-32.7h2.1l-4,32.7H1114.1z"/>
<path d="M1129.1-571.2l-2.7,22.4h-2.1l2.7-22.4H1129.1z M1130.8-578.9c0,0.3-0.1,0.5-0.2,0.8c-0.1,0.2-0.2,0.4-0.4,0.6
	c-0.2,0.2-0.4,0.3-0.6,0.4c-0.2,0.1-0.5,0.2-0.7,0.2c-0.2,0-0.5-0.1-0.7-0.2c-0.2-0.1-0.4-0.3-0.6-0.4c-0.2-0.2-0.3-0.4-0.4-0.6
	c-0.1-0.2-0.2-0.5-0.2-0.8c0-0.3,0-0.5,0.2-0.8c0.1-0.2,0.2-0.4,0.4-0.6c0.2-0.2,0.4-0.3,0.6-0.4c0.2-0.1,0.5-0.2,0.7-0.2
	c0.2,0,0.5,0.1,0.7,0.2c0.2,0.1,0.4,0.3,0.6,0.4c0.2,0.2,0.3,0.4,0.4,0.6C1130.7-579.5,1130.8-579.2,1130.8-578.9z"/>
<path d="M1147.5-550.8c-0.6,0.5-1.3,1-2.1,1.3c-0.7,0.3-1.4,0.6-2.1,0.7c-0.7,0.1-1.5,0.2-2.2,0.2c-1.2,0-2.3-0.2-3.4-0.7
	c-0.9-0.4-1.7-1.1-2.4-1.8c-0.7-0.8-1.1-1.8-1.4-2.8c-0.3-1.2-0.5-2.4-0.5-3.6c0-2.4,0.5-4.7,1.4-6.8c0.5-1,1-2,1.7-2.9
	c0.6-0.9,1.4-1.6,2.2-2.3c0.8-0.6,1.7-1.2,2.7-1.5c1-0.4,2-0.6,3.1-0.6c0.7,0,1.3,0.1,2,0.2c0.6,0.1,1.1,0.3,1.6,0.6
	c0.5,0.3,0.9,0.6,1.3,1c0.4,0.4,0.8,0.8,1.1,1.3l-0.6,0.7c-0.1,0.2-0.3,0.2-0.5,0.2c-0.2,0-0.3-0.1-0.6-0.4
	c-0.3-0.3-0.6-0.5-0.9-0.8c-0.4-0.3-0.9-0.6-1.4-0.8c-0.7-0.3-1.5-0.4-2.2-0.4c-1.2,0-2.5,0.3-3.5,1c-1.1,0.7-2.1,1.6-2.8,2.7
	c-0.8,1.2-1.5,2.6-1.9,4c-0.5,1.5-0.7,3.1-0.7,4.7c0,1,0.1,1.9,0.3,2.9c0.2,0.8,0.6,1.6,1.1,2.2c0.5,0.6,1.1,1.2,1.8,1.5
	c0.8,0.4,1.7,0.6,2.6,0.5c0.7,0,1.4-0.1,2.1-0.3c0.6-0.2,1.1-0.4,1.7-0.6c0.5-0.2,0.9-0.5,1.3-0.8c0.4-0.3,0.7-0.6,1-0.8l0.7-0.6
	c0.2-0.1,0.3-0.2,0.6-0.3c0.2,0,0.3,0.1,0.5,0.2l0.5,0.6C1149.1-552.1,1148.3-551.4,1147.5-550.8z"/>
<path d="M1152.6-550.8c0-1,0.8-1.9,1.8-1.9c0.1,0,0.1,0,0.2,0c0.6,0,1.1,0.2,1.5,0.7c0.4,0.5,0.6,1.1,0.5,1.8c0,0.6-0.1,1.3-0.2,1.9
	c-0.2,0.6-0.4,1.3-0.7,1.9c-0.3,0.6-0.7,1.2-1.1,1.8c-0.4,0.6-0.9,1.1-1.4,1.6l-0.4-0.3c-0.1,0-0.1-0.1-0.1-0.2c0-0.1,0-0.1,0-0.2
	c0.1-0.2,0.2-0.4,0.3-0.6c0.2-0.3,0.5-0.6,0.8-1.1c0.3-0.5,0.6-1,0.8-1.5c0.3-0.6,0.4-1.2,0.5-1.8c-0.1,0-0.2,0.1-0.3,0.1
	c-0.1,0-0.2,0-0.4,0c-0.5,0-1-0.2-1.4-0.6C1152.8-549.7,1152.6-550.2,1152.6-550.8z"/>
<path d="M205.1-502.5H219v3.7h-18.3v-32.2h4.4V-502.5z"/>
<path d="M239.9-498.8h-1.8c-0.3,0-0.7,0-1-0.2c-0.3-0.2-0.4-0.4-0.5-0.8l-0.4-2.1c-0.6,0.5-1.2,1-1.8,1.5c-0.6,0.4-1.2,0.8-1.8,1.1
	c-0.6,0.3-1.3,0.5-2,0.7c-0.8,0.2-1.6,0.2-2.4,0.2c-0.8,0-1.7-0.1-2.5-0.4c-0.7-0.2-1.4-0.6-2-1.1c-0.6-0.5-1.1-1.2-1.4-1.9
	c-0.4-0.9-0.5-1.8-0.5-2.7c0-0.9,0.3-1.8,0.7-2.6c0.6-0.9,1.4-1.7,2.4-2.2c1.4-0.7,2.8-1.3,4.3-1.6c2.2-0.5,4.4-0.7,6.6-0.6v-1.8
	c0.1-1.4-0.3-2.8-1.1-4c-0.8-1-2.1-1.5-3.4-1.4c-0.8,0-1.7,0.1-2.5,0.4c-0.6,0.2-1.2,0.5-1.7,0.8c-0.5,0.3-0.9,0.6-1.3,0.8
	c-0.3,0.2-0.6,0.4-1,0.4c-0.3,0-0.5-0.1-0.7-0.2c-0.2-0.1-0.4-0.3-0.5-0.5l-0.7-1.3c1.2-1.2,2.6-2.1,4.1-2.7
	c1.5-0.6,3.2-0.9,4.8-0.9c1.2,0,2.3,0.2,3.4,0.6c1,0.4,1.8,1,2.5,1.8c0.7,0.8,1.2,1.7,1.5,2.7c0.4,1.1,0.5,2.3,0.5,3.5L239.9-498.8z
	 M229.5-501.3c0.7,0,1.3-0.1,1.9-0.2c0.6-0.1,1.1-0.3,1.6-0.6c0.5-0.3,1-0.6,1.5-1c0.5-0.4,1-0.8,1.4-1.3v-4.6
	c-1.6,0-3.1,0.1-4.7,0.4c-1.1,0.2-2.1,0.5-3.1,0.9c-0.7,0.3-1.3,0.7-1.8,1.3c-0.4,0.5-0.6,1.1-0.6,1.7c0,0.5,0.1,1.1,0.3,1.6
	c0.2,0.4,0.4,0.8,0.8,1.1c0.3,0.3,0.7,0.5,1.2,0.6C228.5-501.3,229-501.3,229.5-501.3z"/>
<path d="M252.9-498.5c-1.5,0.1-3-0.4-4.1-1.5c-1-1.2-1.6-2.8-1.5-4.4v-14h-2.7c-0.2,0-0.4-0.1-0.6-0.2c-0.2-0.2-0.3-0.4-0.2-0.7
	v-1.6l3.7-0.5l0.9-7c0-0.2,0.1-0.4,0.3-0.6c0.2-0.1,0.4-0.2,0.6-0.2h2v7.8h6.5v2.9h-6.5v13.6c-0.1,0.8,0.2,1.6,0.7,2.1
	c0.5,0.5,1.1,0.7,1.8,0.7c0.4,0,0.7-0.1,1.1-0.2c0.3-0.1,0.5-0.2,0.8-0.4l0.6-0.4c0.1-0.1,0.3-0.2,0.4-0.2c0.2,0,0.5,0.2,0.6,0.4
	l1.2,1.9c-0.7,0.7-1.6,1.2-2.5,1.5C254.9-498.7,253.9-498.5,252.9-498.5z"/>
<path d="M272-522c1.5,0,3.1,0.3,4.5,0.8c1.3,0.5,2.5,1.3,3.4,2.4c1,1.1,1.7,2.3,2.2,3.7c1,3.2,1,6.6,0,9.7c-0.5,1.4-1.2,2.6-2.2,3.7
	c-1,1-2.1,1.8-3.4,2.4c-2.9,1.1-6.1,1.1-9,0c-1.3-0.5-2.5-1.3-3.4-2.4c-1-1.1-1.7-2.3-2.2-3.7c-1-3.2-1-6.6,0-9.7
	c0.5-1.4,1.2-2.6,2.2-3.7c1-1,2.1-1.8,3.4-2.4C268.9-521.7,270.5-522,272-522z M272-501.7c1.9,0.1,3.8-0.7,5-2.3
	c1.2-1.9,1.8-4.1,1.7-6.3c0.1-2.2-0.4-4.5-1.7-6.4c-1.2-1.5-3.1-2.4-5-2.3c-1,0-2.1,0.2-3,0.6c-0.8,0.4-1.5,1-2.1,1.7
	c-0.6,0.8-1,1.7-1.3,2.7c-0.6,2.4-0.6,4.9,0,7.2c0.2,1,0.7,1.9,1.3,2.7c0.6,0.7,1.3,1.3,2.1,1.7C269.9-501.8,271-501.6,272-501.7
	L272-501.7z"/>
<path d="M301.9-512.3v13.4h-4.3v-32.2h9.1c1.8,0,3.6,0.2,5.3,0.6c1.3,0.3,2.6,0.9,3.7,1.8c0.9,0.7,1.7,1.7,2.1,2.8
	c0.5,1.2,0.7,2.4,0.7,3.7c0,1.1-0.2,2.2-0.5,3.2c-0.4,1-0.9,1.9-1.6,2.7c-0.7,0.8-1.6,1.5-2.5,2c-1,0.6-2.2,1-3.3,1.3
	c0.6,0.3,1.1,0.8,1.4,1.4l9.4,12.8h-3.9c-0.7,0-1.4-0.3-1.8-0.9l-8.4-11.5c-0.2-0.3-0.5-0.6-0.8-0.8c-0.4-0.2-0.9-0.3-1.4-0.2
	L301.9-512.3z M301.9-515.5h4.6c1.1,0,2.3-0.1,3.4-0.5c0.9-0.3,1.7-0.7,2.4-1.3c0.6-0.5,1.1-1.2,1.5-2c0.3-0.8,0.5-1.7,0.5-2.6
	c0.1-1.7-0.6-3.3-1.9-4.3c-1.7-1.1-3.7-1.6-5.7-1.5h-4.8V-515.5z"/>
<path d="M334.5-522c1.3,0,2.6,0.2,3.8,0.7c1.1,0.4,2.2,1.1,3,2c0.9,0.9,1.6,2,2,3.2c0.5,1.4,0.7,2.9,0.7,4.3c0,0.4,0,0.9-0.2,1.3
	c-0.2,0.2-0.5,0.4-0.8,0.3h-15.2c0,1.3,0.2,2.5,0.6,3.8c0.3,1,0.8,1.9,1.5,2.7c0.6,0.7,1.4,1.3,2.2,1.6c0.9,0.4,1.9,0.5,2.9,0.5
	c0.9,0,1.8-0.1,2.6-0.4c0.6-0.2,1.3-0.4,1.9-0.8c0.5-0.2,0.9-0.5,1.3-0.8c0.3-0.2,0.6-0.3,0.9-0.4c0.3,0,0.6,0.1,0.8,0.4l1.1,1.5
	c-0.5,0.6-1.1,1.1-1.8,1.6c-0.7,0.5-1.4,0.8-2.2,1.1c-0.8,0.3-1.6,0.5-2.4,0.6c-0.8,0.1-1.7,0.2-2.5,0.2c-1.5,0-3-0.3-4.4-0.8
	c-1.3-0.5-2.5-1.3-3.4-2.3c-1-1.1-1.8-2.4-2.3-3.8c-0.6-1.7-0.8-3.4-0.8-5.2c0-1.5,0.2-3,0.7-4.5c0.5-1.3,1.2-2.5,2.1-3.6
	c0.9-1,2.1-1.8,3.4-2.4C331.4-521.7,333-522,334.5-522z M334.6-519c-1.7-0.1-3.3,0.5-4.6,1.7c-1.2,1.3-1.9,2.9-2.1,4.6h12.4
	c0-0.9-0.1-1.7-0.4-2.6c-0.2-0.7-0.6-1.4-1.1-2c-0.5-0.6-1.1-1-1.8-1.3C336.2-518.9,335.4-519,334.6-519L334.6-519z"/>
<path d="M356.7-522c0.9,0,1.9,0.1,2.8,0.3c0.8,0.2,1.6,0.5,2.4,1h6.1v1.5c0,0.5-0.3,0.8-1,0.9l-2.6,0.4c1.5,2.9,0.8,6.5-1.7,8.6
	c-0.8,0.7-1.7,1.2-2.7,1.5c-1.1,0.4-2.3,0.5-3.4,0.5c-1,0-2-0.1-3-0.4c-0.4,0.3-0.8,0.6-1.1,1c-0.2,0.3-0.3,0.6-0.4,1
	c0,0.5,0.2,1,0.7,1.3c0.5,0.3,1.1,0.5,1.7,0.6c0.8,0.1,1.6,0.2,2.5,0.2h2.8c0.9,0,1.9,0.1,2.8,0.2c0.9,0.1,1.7,0.4,2.5,0.8
	c0.7,0.4,1.3,0.9,1.7,1.6c0.5,0.8,0.7,1.7,0.6,2.6c0,1-0.3,2-0.7,2.9c-0.5,1-1.2,1.8-2.1,2.5c-1,0.8-2.1,1.4-3.4,1.7
	c-1.4,0.5-3,0.7-4.5,0.7c-1.5,0-2.9-0.1-4.4-0.5c-1.1-0.3-2.2-0.7-3.1-1.3c-0.8-0.5-1.4-1.1-1.9-1.9c-0.4-0.7-0.6-1.5-0.6-2.3
	c0-1.1,0.4-2.1,1.1-2.9c0.8-0.9,1.8-1.5,2.9-1.9c-0.6-0.3-1.1-0.7-1.5-1.2c-0.4-0.6-0.6-1.3-0.6-2c0-0.3,0.1-0.7,0.2-1
	c0.1-0.4,0.3-0.7,0.5-1c0.3-0.4,0.6-0.7,0.9-1c0.4-0.3,0.8-0.6,1.3-0.8c-1.1-0.6-2-1.5-2.6-2.6c-0.7-1.1-1-2.4-1-3.7
	c0-1,0.2-2.1,0.6-3c0.4-0.9,1-1.7,1.8-2.3c0.8-0.7,1.7-1.2,2.7-1.5C354.3-521.8,355.5-522,356.7-522z M363.8-497.7
	c0-0.5-0.1-1-0.5-1.4c-0.4-0.4-0.8-0.7-1.3-0.8c-0.6-0.2-1.2-0.4-1.9-0.4c-0.7-0.1-1.5-0.1-2.2-0.1h-2.4c-0.8,0-1.6-0.1-2.3-0.3
	c-0.8,0.4-1.5,0.9-2.1,1.5c-0.5,0.6-0.8,1.3-0.8,2.1c0,0.5,0.1,1,0.4,1.4c0.3,0.5,0.7,0.9,1.2,1.1c0.6,0.4,1.3,0.6,2,0.8
	c1.9,0.4,3.9,0.4,5.8,0c0.8-0.2,1.5-0.5,2.2-0.8c0.5-0.3,1-0.8,1.4-1.3C363.7-496.5,363.8-497.1,363.8-497.7L363.8-497.7z
	 M356.7-510c0.7,0,1.5-0.1,2.1-0.3c0.6-0.2,1.1-0.6,1.6-1c0.4-0.4,0.7-0.9,1-1.4c0.2-0.6,0.3-1.2,0.3-1.9c0.1-1.2-0.4-2.4-1.3-3.3
	c-2.2-1.7-5.2-1.7-7.4,0c-0.9,0.9-1.3,2.1-1.3,3.3c0,0.6,0.1,1.3,0.3,1.9c0.2,0.6,0.5,1,1,1.4c0.4,0.4,1,0.8,1.6,1
	C355.3-510.1,356-510,356.7-510z"/>
<path d="M375.5-521.6v14.5c-0.1,1.4,0.3,2.9,1.2,4c0.9,1,2.2,1.5,3.6,1.4c1.2,0,2.3-0.3,3.3-0.8c1.1-0.6,2-1.4,2.9-2.3v-16.8h4v22.8
	h-2.4c-0.5,0-1-0.3-1.1-0.8l-0.3-2.5c-1,1.1-2.1,2-3.3,2.6c-1.3,0.7-2.8,1-4.2,1c-1.1,0-2.3-0.2-3.3-0.6c-0.9-0.4-1.7-1-2.4-1.8
	c-0.7-0.8-1.2-1.7-1.5-2.7c-0.3-1.1-0.5-2.3-0.5-3.5v-14.5H375.5z"/>
<path d="M401.5-532v33.1h-4V-532H401.5z"/>
<path d="M425.3-498.8h-1.8c-0.3,0-0.6,0-0.9-0.2c-0.3-0.2-0.4-0.4-0.5-0.8l-0.5-2.1c-0.6,0.5-1.2,1-1.8,1.5
	c-0.6,0.4-1.2,0.8-1.8,1.1c-0.6,0.3-1.3,0.5-2,0.7c-0.8,0.2-1.6,0.2-2.4,0.2c-0.8,0-1.7-0.1-2.5-0.4c-0.7-0.2-1.4-0.6-2-1.1
	c-0.6-0.5-1.1-1.2-1.4-1.9c-0.4-0.9-0.5-1.8-0.5-2.7c0-0.9,0.3-1.8,0.7-2.6c0.6-0.9,1.4-1.7,2.4-2.2c1.4-0.7,2.8-1.3,4.3-1.6
	c2.1-0.5,4.3-0.7,6.5-0.6v-1.8c0.1-1.4-0.3-2.8-1.1-4c-0.8-1-2.1-1.5-3.4-1.4c-0.8,0-1.7,0.1-2.5,0.4c-0.6,0.2-1.2,0.5-1.7,0.8
	c-0.5,0.3-0.9,0.6-1.3,0.8c-0.3,0.2-0.7,0.4-1,0.4c-0.3,0-0.5-0.1-0.7-0.2c-0.2-0.1-0.4-0.3-0.5-0.5l-0.7-1.3
	c1.2-1.2,2.6-2.1,4.1-2.7c1.5-0.6,3.2-0.9,4.8-0.9c1.2,0,2.3,0.2,3.4,0.6c1,0.4,1.8,1,2.5,1.8c0.7,0.8,1.2,1.7,1.5,2.7
	c0.4,1.1,0.5,2.3,0.5,3.5L425.3-498.8z M414.9-501.3c0.6,0,1.3-0.1,1.9-0.2c0.6-0.1,1.1-0.3,1.7-0.6c0.5-0.3,1-0.6,1.5-1
	c0.5-0.4,1-0.8,1.4-1.3v-4.6c-1.6,0-3.1,0.1-4.7,0.4c-1.1,0.2-2.1,0.5-3.1,0.9c-0.7,0.3-1.3,0.7-1.8,1.3c-0.4,0.5-0.6,1.1-0.6,1.7
	c0,0.5,0.1,1.1,0.3,1.6c0.2,0.4,0.4,0.8,0.8,1.1c0.3,0.3,0.7,0.5,1.2,0.6C413.9-501.3,414.4-501.3,414.9-501.3z"/>
<path d="M431.4-498.8v-22.8h2.3c0.3,0,0.6,0.1,0.9,0.2c0.2,0.2,0.3,0.5,0.3,0.8l0.3,3.6c0.7-1.4,1.7-2.7,2.9-3.7
	c1.1-0.9,2.6-1.4,4-1.3c0.6,0,1.2,0.1,1.7,0.2c0.5,0.1,1,0.3,1.4,0.6l-0.5,3c-0.1,0.3-0.4,0.6-0.7,0.6c-0.3,0-0.7-0.1-1-0.2
	c-0.6-0.2-1.2-0.2-1.8-0.2c-1.3,0-2.5,0.4-3.5,1.2c-1,1-1.9,2.2-2.4,3.5v14.5L431.4-498.8z"/>
<path d="M445.4-501.6c0-0.3,0.1-0.7,0.2-1c0.1-0.3,0.3-0.6,0.5-0.8c0.2-0.2,0.5-0.4,0.9-0.6c0.3-0.1,0.7-0.2,1.1-0.2
	c0.4,0,0.8,0.1,1.2,0.2c0.3,0.2,0.6,0.4,0.9,0.7c0.2,0.3,0.4,0.6,0.5,1c0.1,0.4,0.2,0.8,0.2,1.2c0,0.7-0.1,1.4-0.3,2.1
	c-0.2,0.7-0.5,1.5-0.8,2.2c-0.4,0.7-0.8,1.4-1.3,2.1c-0.5,0.7-1.1,1.3-1.8,1.9l-0.7-0.6c-0.2-0.2-0.3-0.4-0.3-0.6
	c0-0.2,0.1-0.5,0.3-0.6c0.1-0.2,0.3-0.4,0.6-0.7c0.3-0.3,0.5-0.7,0.7-1c0.2-0.4,0.5-0.8,0.7-1.2c0.2-0.4,0.3-0.9,0.4-1.4H448
	c-0.4,0-0.7-0.1-1.1-0.2c-0.3-0.1-0.6-0.3-0.8-0.6c-0.2-0.3-0.4-0.6-0.5-0.9C445.5-500.9,445.4-501.2,445.4-501.6z"/>
<path d="M468.3-502.4h12.8l-0.4,3.6h-17l4-32.2h4.2L468.3-502.4z"/>
<path d="M501.2-498.8h-2.1c-0.4,0.1-0.8-0.1-1.1-0.4c-0.2-0.3-0.3-0.6-0.3-1l0.4-4.6c-0.5,0.9-1.1,1.8-1.7,2.6c-0.6,0.7-1.3,1.4-2,2
	c-0.7,0.5-1.4,0.9-2.2,1.3c-0.8,0.3-1.6,0.5-2.4,0.5c-0.8,0-1.7-0.2-2.5-0.5c-0.7-0.4-1.4-0.9-1.9-1.6c-0.6-0.8-1-1.6-1.2-2.5
	c-0.3-1.1-0.4-2.3-0.4-3.4c0-1.3,0.2-2.7,0.5-3.9c0.3-1.3,0.8-2.5,1.4-3.6c0.6-1.1,1.4-2.2,2.2-3.1c0.9-1,1.8-1.8,2.9-2.5
	c1.1-0.7,2.2-1.2,3.5-1.6c1.3-0.4,2.6-0.6,3.9-0.6c1,0,1.9,0.1,2.9,0.2c0.9,0.2,1.9,0.4,2.7,0.8L501.2-498.8z M491.4-501.8
	c0.8,0,1.5-0.2,2.2-0.7c0.8-0.5,1.4-1.1,2-1.9c0.7-0.9,1.3-1.8,1.8-2.8c0.6-1.2,1.1-2.4,1.5-3.6l1-7.7c-0.3-0.2-0.6-0.4-1-0.4h-1
	c-0.9,0-1.8,0.1-2.6,0.4c-0.8,0.3-1.6,0.7-2.4,1.2c-0.7,0.5-1.4,1.2-2,1.9c-0.6,0.7-1.1,1.5-1.5,2.4c-0.4,0.9-0.8,1.8-1,2.8
	c-0.2,1-0.4,2-0.4,3C487.9-503.7,489-501.9,491.4-501.8L491.4-501.8z"/>
<path d="M509.1-503.1c0-0.1,0-0.2,0-0.4s0-0.4,0-0.6s0-0.6,0.1-1.1s0.1-1,0.2-1.7l1.4-11.4h-2.5c-0.2,0-0.4,0-0.5-0.2
	c-0.1-0.1-0.2-0.3-0.2-0.5c0,0,0-0.1,0-0.3s0-0.3,0.1-0.5s0-0.3,0.1-0.5c0.1-0.2,0-0.4,0-0.5l3.5-0.5l1.7-7c0.1-0.2,0.2-0.4,0.3-0.5
	c0.2-0.2,0.4-0.2,0.6-0.2h2.1l-1,7.8h6l-0.3,2.9h-6l-1.4,11.2c-0.1,0.6-0.1,1.1-0.2,1.5s-0.1,0.7-0.1,0.9s0,0.4,0,0.5
	c0,0.1,0,0.1,0,0.2c0,0.6,0.1,1.2,0.5,1.7c0.4,0.4,0.9,0.6,1.5,0.6c0.3,0,0.7-0.1,1-0.2c0.3-0.1,0.5-0.2,0.8-0.4
	c0.2-0.1,0.4-0.3,0.6-0.4c0.1-0.1,0.3-0.2,0.4-0.2c0.1,0,0.2,0,0.3,0.1c0.1,0.1,0.2,0.2,0.2,0.3l0.8,1.9c-0.7,0.7-1.6,1.2-2.5,1.5
	c-0.9,0.4-1.9,0.5-2.8,0.5c-1.3,0.1-2.5-0.4-3.4-1.2C509.5-500.6,509-501.8,509.1-503.1z"/>
<path d="M530.7-498.5c-1.2,0-2.3-0.2-3.4-0.6c-1-0.4-1.9-1.1-2.7-1.9c-0.8-0.9-1.4-1.9-1.8-3c-0.4-1.3-0.7-2.6-0.6-4
	c0-1.8,0.3-3.7,0.9-5.4c0.6-1.6,1.4-3.1,2.5-4.5c1-1.2,2.3-2.3,3.7-3c1.4-0.7,3-1.1,4.6-1.1c1.2,0,2.3,0.2,3.4,0.6
	c1,0.4,1.9,1.1,2.7,1.9c0.8,0.9,1.4,1.9,1.8,3c0.4,1.3,0.7,2.6,0.6,4c0,1.8-0.3,3.7-0.9,5.4c-0.6,1.6-1.4,3.1-2.5,4.5
	c-1,1.2-2.3,2.3-3.7,3C533.8-498.9,532.3-498.5,530.7-498.5z M531-501.7c1.1,0,2.1-0.3,3-0.9c0.9-0.6,1.7-1.4,2.3-2.4
	c0.7-1.1,1.2-2.2,1.5-3.5c0.3-1.3,0.5-2.7,0.5-4.1c0.1-1.7-0.3-3.3-1.2-4.8c-0.9-1.1-2.2-1.7-3.6-1.6c-1.1,0-2.1,0.3-3,0.9
	c-0.9,0.6-1.7,1.4-2.3,2.4c-0.7,1.1-1.2,2.2-1.5,3.5c-0.4,1.3-0.5,2.7-0.5,4.1c-0.1,1.7,0.3,3.3,1.2,4.8
	C528.3-502.2,529.6-501.6,531-501.7L531-501.7z"/>
<path d="M560.7-512.4l-1.7,13.5h-4.2l3.9-32.2h8.5c1.5,0,3,0.2,4.4,0.5c1.1,0.3,2.2,0.8,3.1,1.5c0.8,0.6,1.4,1.5,1.8,2.4
	c0.4,1,0.6,2.1,0.6,3.2c0,1.2-0.2,2.5-0.6,3.6c-0.4,1.1-0.9,2.1-1.7,3c-0.7,0.9-1.6,1.7-2.7,2.3c-1.1,0.6-2.3,1.1-3.5,1.4
	c0.5,0.4,0.9,0.8,1.2,1.4l7,12.9h-3.7c-0.7,0-1.3-0.3-1.6-0.9l-6.1-11.6c-0.2-0.3-0.4-0.6-0.7-0.8c-0.4-0.2-0.8-0.3-1.2-0.2
	L560.7-512.4z M562.6-527.8l-1.6,12.4h4.1c1.1,0,2.3-0.2,3.4-0.5c0.9-0.3,1.8-0.8,2.5-1.5c0.7-0.6,1.2-1.4,1.5-2.3
	c0.3-0.9,0.5-1.9,0.5-2.9c0.1-1.4-0.5-2.8-1.5-3.8c-1.3-1-3-1.4-4.6-1.3H562.6z"/>
<path d="M598.8-516.8c0,0.9-0.2,1.9-0.6,2.7c-0.5,0.9-1.3,1.7-2.2,2.2c-1.4,0.8-2.9,1.4-4.5,1.8c-2.4,0.6-4.8,1-7.3,1.2
	c0,0.2,0,0.3,0,0.5v0.5c-0.1,1.6,0.4,3.3,1.3,4.6c1,1.1,2.5,1.7,4,1.6c0.6,0,1.3-0.1,1.9-0.2c0.5-0.1,1-0.3,1.5-0.5
	c0.4-0.2,0.8-0.4,1.2-0.7l0.9-0.7c0.3-0.2,0.5-0.4,0.8-0.5c0.2-0.1,0.5-0.2,0.7-0.2c0.3,0,0.6,0.2,0.7,0.4l1,1.2
	c-0.7,0.7-1.4,1.4-2.2,2c-0.7,0.5-1.4,1-2.2,1.4c-0.8,0.4-1.6,0.6-2.4,0.8c-0.9,0.2-1.8,0.3-2.7,0.3c-1.2,0-2.4-0.2-3.5-0.7
	c-1-0.4-1.9-1.1-2.6-1.9c-0.7-0.8-1.3-1.8-1.7-2.9c-0.4-1.2-0.6-2.5-0.6-3.8c0-2.3,0.5-4.7,1.5-6.8c0.5-1,1-2,1.7-2.9
	c0.7-0.9,1.5-1.7,2.3-2.3c0.9-0.7,1.9-1.2,2.9-1.5c1.1-0.4,2.2-0.6,3.4-0.6c1,0,2,0.1,3,0.5c0.8,0.3,1.5,0.7,2.1,1.3
	c0.5,0.5,0.9,1,1.2,1.7C598.7-518,598.8-517.4,598.8-516.8z M591.9-519.1c-0.9,0-1.8,0.2-2.6,0.6c-0.8,0.4-1.5,0.9-2.1,1.6
	c-0.6,0.7-1.2,1.5-1.6,2.4c-0.4,1-0.8,2-1,3c1.9-0.2,3.7-0.5,5.5-1c1.1-0.3,2.2-0.7,3.2-1.2c1.2-0.5,1.9-1.7,1.8-2.9
	c0-0.6-0.3-1.2-0.8-1.6c-0.3-0.3-0.6-0.5-1-0.6C593-519,592.4-519.1,591.9-519.1z"/>
<path d="M618.1-515.3c0,0.7-0.1,1.3-0.3,2c-0.2,0.6-0.4,1.1-0.7,1.7c-0.2,0.5-0.5,1-0.8,1.4c-0.3,0.4-0.6,0.9-0.8,1.4
	c-0.3,0.4-0.5,0.9-0.6,1.4c-0.2,0.5-0.3,1-0.3,1.5c0,0.6,0.1,1.2,0.5,1.7c0.3,0.5,0.7,1,1,1.6c0.4,0.6,0.7,1.2,1,1.8
	c0.3,0.7,0.5,1.5,0.5,2.3c0,1-0.3,2.1-0.8,3c-0.5,1-1.2,1.8-2.1,2.5c-1,0.8-2.1,1.4-3.3,1.7c-1.4,0.4-2.9,0.7-4.4,0.6
	c-1.2,0-2.4-0.1-3.6-0.4c-1-0.2-1.9-0.6-2.7-1.1c-0.7-0.4-1.3-1.1-1.8-1.8c-0.4-0.7-0.6-1.5-0.6-2.3c0-1.1,0.3-2.2,0.9-3.1
	c0.6-0.9,1.5-1.6,2.4-2.1c1.1-0.6,2.2-1,3.4-1.2c1.3-0.3,2.6-0.4,3.9-0.4c0.5,0,1.1,0,1.6,0.1l1.6,0.2c-0.1-0.3-0.3-0.6-0.3-0.9
	c-0.1-0.3-0.1-0.7-0.1-1c0-0.5,0.1-1,0.2-1.4c0.2-0.6,0.4-1.1,0.7-1.7c-0.6,0.4-1.2,0.7-1.9,0.9c-0.8,0.2-1.6,0.3-2.4,0.3
	c-0.8,0-1.7-0.1-2.4-0.4c-0.7-0.3-1.4-0.7-2-1.3c-0.6-0.6-1.1-1.3-1.3-2.1c-0.3-0.9-0.5-1.9-0.5-2.9c0-1.1,0.2-2.2,0.6-3.2
	c0.8-2.1,2.5-3.9,4.6-4.8c1.2-0.5,2.6-0.8,3.9-0.8c1.5,0,3,0.4,4.3,1.2h6.2l-0.2,1.3c0,0.3-0.1,0.5-0.2,0.7
	c-0.2,0.2-0.4,0.4-0.7,0.4l-2.8,0.5c0.1,0.4,0.2,0.8,0.3,1.2C618-516.3,618.1-515.8,618.1-515.3z M613.9-498.3c0-0.4,0-0.7-0.1-1.1
	c-0.1-0.3-0.2-0.7-0.3-1c-0.8-0.1-1.6-0.2-2.3-0.3s-1.4-0.1-2-0.1c-1.1,0-2.1,0.1-3.2,0.3c-0.8,0.2-1.5,0.5-2.2,0.9
	c-0.5,0.3-1,0.7-1.3,1.2c-0.3,0.4-0.4,0.9-0.4,1.5c0,1,0.5,2,1.4,2.5c1.2,0.6,2.5,0.9,3.8,0.9c0.9,0,1.8-0.1,2.7-0.4
	c0.7-0.2,1.5-0.6,2.1-1c0.6-0.4,1-0.9,1.3-1.5C613.7-497,613.9-497.7,613.9-498.3L613.9-498.3z M609.4-509.2c0.7,0,1.5-0.2,2.1-0.5
	c0.6-0.3,1.1-0.8,1.6-1.4c0.4-0.6,0.8-1.2,1-1.9c0.2-0.7,0.3-1.4,0.3-2.2c0.1-1.1-0.3-2.2-1-3c-0.7-0.7-1.7-1.1-2.8-1
	c-0.7,0-1.5,0.2-2.1,0.5c-0.6,0.3-1.1,0.8-1.5,1.3c-0.4,0.6-0.8,1.2-1,1.9c-0.2,0.7-0.3,1.5-0.3,2.2c-0.1,1.1,0.3,2.2,1,3.1
	C607.4-509.5,608.4-509.1,609.4-509.2L609.4-509.2z"/>
<path d="M628.6-521.6l-1.7,14.5c0,0.3,0,0.6-0.1,0.9c0,0.3,0,0.5,0,0.8c-0.1,1,0.2,1.9,0.7,2.8c0.5,0.6,1.3,1,2.2,0.9
	c0.7,0,1.5-0.2,2.1-0.6c0.8-0.4,1.5-1,2.1-1.6c0.7-0.8,1.4-1.6,1.9-2.5c0.6-1,1.1-2.1,1.5-3.3l1.4-11.9h4l-2.8,22.8h-2
	c-0.4,0-0.8-0.1-1.1-0.3c-0.3-0.3-0.4-0.6-0.4-1c0,0,0-0.1,0-0.4s0-0.5,0-0.8s0-0.6,0.1-0.8c0.1-0.3,0-0.4,0-0.4l0.2-1.8
	c-1,1.7-2.4,3.2-4.1,4.4c-1.4,1-3,1.5-4.6,1.5c-1.5,0.1-3-0.6-3.9-1.7c-1-1.5-1.5-3.2-1.4-5c0-0.3,0-0.6,0-0.9s0-0.6,0.1-1l1.7-14.5
	L628.6-521.6z"/>
<path d="M646.2-498.8l4-33.1h3.9l-4,33.1H646.2z"/>
<path d="M673.3-498.8h-2.1c-0.4,0.1-0.8-0.1-1.1-0.4c-0.2-0.3-0.3-0.6-0.3-1l0.4-4.6c-0.5,0.9-1.1,1.8-1.8,2.6c-0.6,0.7-1.3,1.4-2,2
	c-0.7,0.5-1.4,0.9-2.2,1.3c-0.8,0.3-1.6,0.5-2.4,0.5c-0.8,0-1.7-0.2-2.5-0.5c-0.7-0.4-1.4-0.9-1.9-1.6c-0.6-0.8-1-1.6-1.2-2.5
	c-0.3-1.1-0.4-2.3-0.4-3.4c0-2.7,0.7-5.3,2-7.6c0.6-1.1,1.4-2.2,2.2-3.1c0.9-0.9,1.8-1.8,2.9-2.5c1.1-0.7,2.2-1.2,3.5-1.6
	c1.3-0.4,2.6-0.6,3.9-0.6c1,0,1.9,0.1,2.8,0.2c0.9,0.2,1.9,0.4,2.7,0.8L673.3-498.8z M663.5-501.8c0.8,0,1.5-0.2,2.2-0.7
	c0.8-0.5,1.4-1.1,2-1.9c0.7-0.9,1.3-1.8,1.8-2.8c0.6-1.2,1.1-2.4,1.5-3.6l1-7.7c-0.3-0.2-0.6-0.4-1-0.4h-1c-0.9,0-1.8,0.1-2.6,0.4
	c-0.8,0.3-1.6,0.7-2.4,1.2c-0.7,0.5-1.4,1.2-2,1.9c-0.6,0.7-1.1,1.5-1.5,2.4c-0.4,0.9-0.8,1.8-1,2.8c-0.2,1-0.4,2-0.4,3
	C660-503.7,661.2-501.9,663.5-501.8L663.5-501.8z"/>
<path d="M679.2-498.8l2.8-22.8h2c0.4,0,0.7,0.1,1,0.3c0.3,0.2,0.4,0.6,0.4,0.9c0,0.1,0,0.2,0,0.3c0,0.1,0,0.2,0,0.4s0,0.2,0,0.3
	c0,0.1,0,0.1,0,0.2l-0.3,4.1c0.8-1.8,1.9-3.5,3.3-4.9c1-1,2.4-1.7,3.8-1.7c0.7,0,1.3,0.1,1.9,0.4l-0.7,3.8c-0.7-0.3-1.3-0.4-2-0.4
	c-1.6,0.1-3,0.8-3.9,2.1c-1.4,1.9-2.4,4.1-2.9,6.4l-1.3,10.6H679.2z"/>
<path d="M709.3-498.8H705l4-32.2h4.2L709.3-498.8z"/>
<path d="M718.5-503.1c0-0.1,0-0.2,0-0.4s0-0.4,0-0.6s0.1-0.6,0.1-1.1s0.1-1,0.2-1.7l1.4-11.4h-2.5c-0.2,0-0.3,0-0.5-0.2
	c-0.1-0.2-0.2-0.4-0.2-0.6c0-0.1,0-0.2,0-0.3c0-0.1,0-0.3,0.1-0.5l0.1-0.5c0-0.2,0-0.4,0.1-0.5l3.5-0.5l1.7-7
	c0.1-0.2,0.2-0.4,0.3-0.5c0.2-0.1,0.4-0.2,0.6-0.2h2.1l-1,7.9h6l-0.3,2.9h-6l-1.4,11.2c-0.1,0.6-0.1,1.1-0.2,1.5s-0.1,0.7-0.1,0.9
	c0,0.2,0,0.4,0,0.5c0,0.1,0,0.1,0,0.2c0,0.6,0.1,1.2,0.5,1.7c0.4,0.4,0.9,0.6,1.5,0.6c0.3,0,0.7-0.1,1-0.2c0.3-0.1,0.5-0.2,0.8-0.4
	l0.5-0.4c0.1-0.1,0.3-0.2,0.4-0.2c0.1,0,0.2,0,0.3,0.1c0.1,0.1,0.2,0.2,0.2,0.3l0.8,1.9c-0.7,0.7-1.6,1.2-2.5,1.5
	c-0.9,0.4-1.9,0.5-2.8,0.5c-1.3,0.1-2.5-0.4-3.4-1.2C718.8-500.6,718.4-501.8,718.5-503.1z"/>
<path d="M748.6-498.8h-2.1c-0.4,0.1-0.8-0.1-1.1-0.4c-0.2-0.3-0.3-0.6-0.3-1l0.4-4.6c-0.5,0.9-1.1,1.8-1.8,2.6c-0.6,0.7-1.3,1.4-2,2
	c-0.7,0.5-1.4,0.9-2.2,1.3c-0.8,0.3-1.6,0.5-2.4,0.5c-0.8,0-1.7-0.2-2.5-0.5c-0.7-0.4-1.4-0.9-1.8-1.6c-0.6-0.8-1-1.6-1.2-2.5
	c-0.3-1.1-0.4-2.3-0.4-3.4c0-1.3,0.2-2.7,0.5-4c0.3-1.3,0.8-2.5,1.4-3.6c0.6-1.1,1.4-2.2,2.2-3.1c0.9-0.9,1.8-1.8,2.9-2.5
	c1.1-0.7,2.2-1.2,3.5-1.6c1.3-0.4,2.6-0.6,3.9-0.6c1,0,1.9,0.1,2.8,0.2c0.9,0.2,1.9,0.4,2.7,0.8L748.6-498.8z M738.8-501.8
	c0.8,0,1.5-0.2,2.2-0.7c0.8-0.5,1.4-1.1,2-1.9c0.7-0.9,1.3-1.8,1.8-2.8c0.6-1.2,1.1-2.4,1.5-3.6l1-7.7c-0.3-0.2-0.6-0.4-1-0.4h-1
	c-0.9,0-1.8,0.1-2.6,0.4c-0.8,0.3-1.6,0.7-2.4,1.2c-0.7,0.5-1.4,1.2-2,1.9c-0.6,0.7-1.1,1.5-1.5,2.4c-0.4,0.9-0.8,1.8-1,2.8
	c-0.2,1-0.4,2-0.4,3C735.4-503.7,736.5-501.9,738.8-501.8L738.8-501.8z"/>
<path d="M755-498.8l4-33.2h4l-4,33.1L755-498.8z"/>
<path d="M772.5-521.6l-2.7,22.8h-3.9l2.8-22.8H772.5z M774-528.8c0,0.4-0.1,0.7-0.2,1.1c-0.1,0.3-0.4,0.6-0.6,0.9
	c-0.3,0.3-0.6,0.5-0.9,0.6c-0.3,0.1-0.7,0.2-1,0.2c-0.3,0-0.7-0.1-1-0.2c-0.3-0.1-0.6-0.4-0.9-0.6c-0.2-0.3-0.4-0.6-0.6-0.9
	c-0.2-0.3-0.2-0.7-0.2-1.1c0-0.4,0.1-0.8,0.2-1.1c0.1-0.3,0.4-0.6,0.6-0.9c0.3-0.3,0.6-0.5,0.9-0.6c0.3-0.1,0.7-0.2,1-0.2
	c0.3,0,0.7,0.1,1,0.2c0.3,0.2,0.6,0.4,0.9,0.6c0.3,0.3,0.5,0.6,0.6,0.9C773.9-529.5,774-529.2,774-528.8L774-528.8z"/>
<path d="M790.9-500.8c-0.6,0.5-1.3,1-2.1,1.4c-0.7,0.3-1.4,0.6-2.2,0.7c-0.8,0.1-1.6,0.2-2.4,0.2c-1.2,0-2.4-0.2-3.5-0.7
	c-1-0.4-1.9-1.1-2.5-1.9c-0.7-0.9-1.2-1.9-1.5-2.9c-0.4-1.2-0.5-2.5-0.5-3.8c0-1.8,0.3-3.6,0.9-5.3c0.5-1.6,1.4-3.2,2.4-4.5
	c1-1.3,2.3-2.3,3.7-3.1c1.4-0.8,3.1-1.2,4.7-1.2c2.5-0.1,5,1,6.5,3.1l-1.3,1.5c-0.1,0.1-0.2,0.2-0.3,0.3c-0.1,0.1-0.3,0.1-0.5,0.1
	c-0.2,0-0.5-0.1-0.6-0.3c-0.2-0.2-0.5-0.4-0.8-0.6c-0.4-0.3-0.8-0.5-1.2-0.6c-0.6-0.2-1.2-0.3-1.9-0.3c-1,0-2.1,0.3-2.9,0.9
	c-1,0.6-1.8,1.4-2.4,2.3c-0.7,1.1-1.3,2.2-1.6,3.5c-0.4,1.4-0.6,2.8-0.6,4.3c0,0.9,0.1,1.7,0.3,2.5c0.2,0.7,0.5,1.4,1,1.9
	c0.4,0.5,0.9,1,1.5,1.2c0.7,0.3,1.4,0.5,2.1,0.4c0.6,0,1.2-0.1,1.8-0.2c0.5-0.1,1-0.3,1.4-0.5c0.4-0.2,0.7-0.4,1.1-0.7l0.8-0.7
	c0.2-0.2,0.5-0.4,0.7-0.5c0.2-0.1,0.4-0.2,0.6-0.2c0.3,0,0.6,0.1,0.8,0.4l1,1.2C792.4-502.2,791.7-501.4,790.9-500.8z"/>
<path d="M795.3-501.6c0-0.7,0.2-1.3,0.7-1.8c0.5-0.5,1.3-0.8,2-0.8c0.4,0,0.8,0.1,1.2,0.2c0.3,0.2,0.6,0.4,0.9,0.7
	c0.2,0.3,0.4,0.6,0.5,1c0.1,0.4,0.2,0.8,0.2,1.2c0,0.7-0.1,1.4-0.3,2.1c-0.2,0.8-0.5,1.5-0.8,2.2c-0.4,0.7-0.8,1.4-1.3,2.1
	c-0.5,0.7-1.1,1.3-1.8,1.9l-0.7-0.6c-0.2-0.2-0.3-0.4-0.3-0.6c0-0.3,0.2-0.5,0.4-0.7c0.2-0.3,0.5-0.6,0.8-1c0.3-0.4,0.6-0.9,0.9-1.4
	c0.3-0.5,0.5-1.1,0.6-1.7h-0.3c-0.7,0-1.4-0.3-1.9-0.8C795.5-500.1,795.2-500.9,795.3-501.6z"/>
<path d="M821.7-503.8h13v5h-19v-32.5h6V-503.8z"/>
<path d="M856.7-498.8h-2.5c-0.4,0-0.8-0.1-1.2-0.2c-0.4-0.2-0.6-0.6-0.7-1l-0.5-1.6c-0.5,0.5-1.1,1-1.7,1.4c-0.5,0.4-1.1,0.7-1.7,1
	c-0.6,0.3-1.3,0.5-1.9,0.6c-0.7,0.1-1.5,0.2-2.2,0.2c-0.9,0-1.8-0.1-2.7-0.4c-0.8-0.2-1.5-0.6-2.1-1.2c-0.6-0.6-1.1-1.2-1.4-2
	c-0.3-0.9-0.5-1.8-0.5-2.7c0-0.9,0.2-1.8,0.7-2.6c0.6-0.9,1.3-1.7,2.3-2.3c1.3-0.8,2.8-1.4,4.2-1.7c2.2-0.5,4.4-0.7,6.6-0.7v-1.4
	c0.1-1.2-0.3-2.5-1-3.5c-0.7-0.8-1.8-1.2-2.8-1.1c-0.8,0-1.5,0.1-2.2,0.3c-0.5,0.2-1.1,0.4-1.6,0.7c-0.5,0.3-0.9,0.5-1.2,0.7
	c-0.4,0.2-0.8,0.3-1.2,0.3c-0.4,0-0.7-0.1-1-0.3c-0.3-0.2-0.5-0.4-0.7-0.7l-1-1.8c2.6-2.4,6.1-3.7,9.6-3.7c1.2,0,2.5,0.2,3.6,0.7
	c1,0.4,1.9,1,2.7,1.8c0.7,0.8,1.3,1.8,1.7,2.8c0.4,1.2,0.6,2.4,0.6,3.6L856.7-498.8z M845.9-502.3c0.5,0,1.1,0,1.6-0.2
	c0.5-0.1,0.9-0.2,1.4-0.5c0.4-0.2,0.9-0.5,1.2-0.8c0.4-0.3,0.8-0.7,1.2-1.1v-3.9c-1.4,0-2.7,0.1-4.1,0.3c-0.9,0.2-1.8,0.4-2.6,0.8
	c-0.6,0.2-1,0.6-1.4,1.1c-0.7,1.1-0.5,2.6,0.5,3.5C844.3-502.5,845.1-502.3,845.9-502.3L845.9-502.3z"/>
<path d="M869.8-498.5c-1.7,0.1-3.4-0.5-4.6-1.7c-1.1-1.3-1.7-3-1.6-4.7v-12.9h-2.3c-0.3,0-0.6-0.1-0.8-0.3c-0.2-0.2-0.4-0.6-0.3-0.9
	v-2.2l3.7-0.6l1.2-6.3c0-0.3,0.2-0.5,0.4-0.7c0.2-0.2,0.5-0.3,0.8-0.2h2.9v7.3h6.1v4h-6.1v12.5c0,0.6,0.2,1.2,0.5,1.7
	c0.4,0.4,0.9,0.6,1.4,0.6c0.3,0,0.6,0,0.9-0.1c0.2-0.1,0.4-0.2,0.6-0.3l0.5-0.2c0.1-0.1,0.3-0.1,0.4-0.1c0.1,0,0.3,0,0.4,0.1
	c0.1,0.1,0.2,0.2,0.3,0.4l1.7,2.7c-0.9,0.7-1.8,1.1-2.8,1.4C872-498.7,870.9-498.5,869.8-498.5z"/>
<path d="M889.4-522.3c1.6,0,3.2,0.3,4.7,0.8c1.3,0.5,2.6,1.3,3.6,2.4c1,1.1,1.8,2.3,2.3,3.7c1.1,3.2,1.1,6.7,0,9.9
	c-0.5,1.4-1.3,2.7-2.3,3.8c-1,1-2.2,1.9-3.6,2.4c-3,1.1-6.4,1.1-9.4,0c-1.4-0.5-2.6-1.3-3.6-2.4c-1-1.1-1.8-2.4-2.3-3.8
	c-1.1-3.2-1.1-6.7,0-9.9c0.5-1.4,1.3-2.7,2.3-3.7c1-1,2.3-1.8,3.6-2.4C886.2-522,887.8-522.3,889.4-522.3z M889.4-502.8
	c1.7,0.1,3.3-0.6,4.3-1.9c1-1.7,1.5-3.7,1.4-5.7c0.1-2-0.4-4-1.4-5.7c-1-1.4-2.6-2.1-4.3-2c-1.7-0.1-3.3,0.6-4.3,2
	c-1,1.7-1.5,3.7-1.4,5.7c-0.1,2,0.4,4,1.4,5.7C886.1-503.4,887.8-502.7,889.4-502.8z"/>
<path d="M914.2-498.8v-32.5h11.2c1.8,0,3.7,0.2,5.5,0.6c1.3,0.3,2.6,0.9,3.7,1.7c0.9,0.7,1.7,1.6,2.1,2.7c0.5,1.1,0.7,2.4,0.7,3.6
	c0,0.7-0.1,1.5-0.3,2.2c-0.2,0.7-0.6,1.4-1,2c-0.5,0.6-1.1,1.2-1.8,1.7c-0.8,0.5-1.7,1-2.6,1.3c4.5,1,6.7,3.4,6.7,7.2
	c0,1.3-0.3,2.6-0.8,3.8c-0.5,1.2-1.3,2.2-2.3,3c-1.1,0.9-2.4,1.6-3.7,2c-1.6,0.5-3.3,0.7-5,0.7L914.2-498.8z M920.2-517.3h4.8
	c1.6,0.1,3.3-0.3,4.7-1.1c1.1-0.8,1.7-2.2,1.6-3.6c0.1-1.4-0.4-2.7-1.4-3.6c-1.3-0.8-2.9-1.2-4.5-1.1h-5.2V-517.3z M920.2-513.1v9.5
	h6.2c1,0,1.9-0.1,2.8-0.4c0.7-0.2,1.3-0.6,1.8-1c0.5-0.4,0.8-1,1-1.6c0.2-0.6,0.3-1.3,0.3-1.9c0-0.6-0.1-1.3-0.3-1.9
	c-0.2-0.6-0.6-1.1-1.1-1.5c-0.5-0.4-1.2-0.7-1.8-0.9c-0.9-0.2-1.8-0.3-2.7-0.3L920.2-513.1z"/>
<path d="M953-522.3c1.6,0,3.2,0.3,4.7,0.8c1.4,0.5,2.6,1.3,3.6,2.4c1,1.1,1.8,2.3,2.3,3.7c1.1,3.2,1.1,6.7,0,9.9
	c-0.5,1.4-1.3,2.7-2.3,3.8c-1,1-2.2,1.9-3.6,2.4c-3,1.1-6.4,1.1-9.4,0c-1.4-0.5-2.6-1.3-3.6-2.4c-1-1.1-1.8-2.4-2.3-3.8
	c-1.1-3.2-1.1-6.7,0-9.9c0.5-1.4,1.3-2.7,2.3-3.7c1-1,2.3-1.8,3.6-2.4C949.8-522,951.4-522.3,953-522.3z M953-502.8
	c1.7,0.1,3.3-0.6,4.3-1.9c1-1.7,1.5-3.7,1.4-5.7c0.1-2-0.4-4-1.4-5.7c-1-1.4-2.6-2.1-4.3-2c-1.7-0.1-3.3,0.6-4.3,2
	c-1,1.7-1.5,3.7-1.4,5.7c-0.1,2,0.4,4,1.4,5.7C949.7-503.4,951.3-502.7,953-502.8z"/>
<path d="M974.7-532.3v33.4h-5.5v-33.4H974.7z"/>
<path d="M997.2-498.8c-0.7,0.1-1.2-0.4-1.4-1l-0.5-2.2c-0.5,0.5-1,1-1.5,1.5c-0.5,0.4-1.1,0.8-1.7,1.1c-0.6,0.3-1.3,0.6-2,0.7
	c-0.7,0.2-1.5,0.3-2.3,0.3c-2.4,0-4.7-1.1-6.2-3.1c-0.8-1.1-1.4-2.4-1.8-3.7c-0.4-1.6-0.6-3.3-0.6-5c0-1.6,0.2-3.2,0.7-4.8
	c0.4-1.4,1.1-2.7,2-3.8c0.8-1.1,1.9-1.9,3.1-2.5c1.3-0.6,2.7-0.9,4.1-0.9c1.1,0,2.3,0.2,3.3,0.6c0.9,0.4,1.7,1,2.5,1.6v-12.2h5.5
	v33.4H997.2z M989.8-502.9c1,0,2.1-0.2,3-0.7c0.9-0.5,1.7-1.2,2.3-2V-516c-0.5-0.7-1.3-1.3-2.1-1.6c-0.8-0.3-1.6-0.5-2.4-0.5
	c-0.8,0-1.6,0.2-2.3,0.5c-0.7,0.3-1.3,0.8-1.7,1.4c-0.5,0.7-0.9,1.6-1.1,2.4c-0.3,1.1-0.4,2.3-0.4,3.5c0,1.2,0.1,2.3,0.3,3.4
	c0.2,0.8,0.5,1.6,0.9,2.3c0.4,0.6,0.9,1,1.5,1.3C988.5-503,989.1-502.9,989.8-502.9L989.8-502.9z"/>
<path d="M1005.4-502.3c0-0.4,0.1-0.8,0.2-1.2c0.1-0.4,0.4-0.7,0.7-1c0.3-0.3,0.6-0.5,1-0.7c0.4-0.2,0.9-0.2,1.3-0.2
	c0.5,0,1,0.1,1.5,0.3c0.4,0.2,0.8,0.5,1.1,0.8c0.3,0.4,0.5,0.8,0.6,1.2c0.1,0.5,0.2,1,0.2,1.5c0,0.8-0.1,1.5-0.3,2.3
	c-0.2,0.8-0.6,1.6-1,2.4c-0.9,1.7-2.2,3.2-3.7,4.4l-1-0.9c-0.3-0.2-0.4-0.5-0.4-0.8c0-0.1,0-0.3,0.1-0.4c0.1-0.2,0.2-0.3,0.3-0.4
	l0.6-0.7c0.3-0.3,0.5-0.6,0.7-0.9c0.2-0.4,0.5-0.7,0.7-1.1c0.2-0.4,0.3-0.8,0.4-1.3c-0.4,0-0.9-0.1-1.3-0.3c-0.4-0.2-0.7-0.4-1-0.7
	c-0.3-0.3-0.5-0.7-0.7-1.1C1005.4-501.4,1005.4-501.8,1005.4-502.3z"/>
<path d="M204.8-453.7h11.8l-0.6,4.8h-17.7l4-32.5h5.8L204.8-453.7z"/>
<path d="M237.5-448.8h-2.9c-0.5,0.1-1-0.1-1.4-0.5c-0.3-0.3-0.4-0.8-0.4-1.2l0.2-3.1c-0.9,1.5-2.1,2.7-3.4,3.8
	c-1.2,0.9-2.7,1.4-4.2,1.4c-0.8,0-1.7-0.2-2.4-0.5c-0.8-0.3-1.5-0.9-2-1.5c-0.6-0.8-1.1-1.6-1.3-2.6c-0.3-1.2-0.5-2.4-0.5-3.6
	c0-2.7,0.7-5.4,2-7.7c0.6-1.1,1.4-2.2,2.3-3.2c1.8-1.9,4.1-3.3,6.6-4.1c1.3-0.4,2.7-0.6,4.1-0.6c1,0,2.1,0.1,3.1,0.2
	c1.1,0.2,2.1,0.4,3.1,0.8L237.5-448.8z M227.5-453c0.7,0,1.3-0.2,1.8-0.6c0.7-0.5,1.2-1.1,1.7-1.8c0.6-0.8,1.1-1.7,1.5-2.6
	c0.5-1.1,0.9-2.1,1.2-3.2l0.9-7c-0.4,0-0.8-0.1-1.1-0.1c-1.2,0-2.4,0.3-3.5,0.9c-1.1,0.6-2,1.4-2.8,2.3c-0.8,1-1.4,2.1-1.8,3.4
	c-0.5,1.3-0.7,2.7-0.7,4.1c-0.1,1.2,0.2,2.5,0.8,3.5C225.8-453.5,226.6-453,227.5-453L227.5-453z"/>
<path d="M244.8-453.5v-0.4c0-0.1,0-0.4,0-0.6c0-0.3,0.1-0.6,0.1-1.1c0.1-0.5,0.1-1,0.2-1.8l1.3-10.4h-2.2c-0.2,0-0.5-0.1-0.6-0.2
	c-0.2-0.2-0.3-0.4-0.2-0.7c0,0,0-0.1,0-0.1c0-0.1,0-0.1,0-0.3s0-0.4,0.1-0.7s0.1-0.8,0.1-1.3l3.5-0.6l1.9-6.3c0.1-0.6,0.6-1,1.2-1h3
	l-0.9,7.3h5.6l-0.5,4h-5.6l-1.2,10.1c-0.1,0.6-0.1,1.1-0.2,1.5s-0.1,0.6-0.1,0.9s0,0.3,0,0.4c0,0.1,0,0.1,0,0.2c0,0.5,0.1,1,0.4,1.4
	c0.3,0.3,0.7,0.5,1.2,0.5c0.3,0,0.6,0,0.8-0.1c0.2-0.1,0.4-0.2,0.6-0.3l0.4-0.2c0.1-0.1,0.2-0.1,0.4-0.1c0.1,0,0.3,0,0.4,0.1
	c0.1,0.1,0.2,0.2,0.3,0.4l1.2,2.7c-0.8,0.7-1.8,1.2-2.8,1.5c-1,0.3-2,0.5-3,0.5c-1.4,0.1-2.8-0.4-3.9-1.3
	C245.3-450.8,244.8-452.1,244.8-453.5z"/>
<path d="M267.3-448.5c-1.2,0-2.4-0.2-3.5-0.6c-1.1-0.4-2-1.1-2.8-1.9c-0.8-0.9-1.5-1.9-1.9-3c-0.5-1.3-0.7-2.7-0.7-4.1
	c0-1.9,0.3-3.8,1-5.6c0.6-1.6,1.5-3.2,2.6-4.5c1.1-1.2,2.4-2.3,3.9-3c1.5-0.7,3.1-1.1,4.7-1.1c1.2,0,2.4,0.2,3.5,0.6
	c1.1,0.4,2,1.1,2.8,1.9c0.8,0.9,1.5,1.9,1.9,3c0.5,1.3,0.7,2.7,0.7,4.1c0,1.9-0.3,3.8-1,5.6c-0.6,1.6-1.5,3.2-2.6,4.5
	c-1.1,1.2-2.4,2.3-3.9,3C270.5-448.9,268.9-448.5,267.3-448.5z M267.8-452.8c0.9,0,1.8-0.3,2.5-0.8c0.8-0.6,1.4-1.3,1.9-2.1
	c0.6-1,1-2,1.2-3.1c0.3-1.2,0.4-2.5,0.4-3.7c0.1-1.4-0.3-2.9-1-4.1c-0.7-0.9-1.8-1.4-2.9-1.3c-0.9,0-1.8,0.3-2.5,0.8
	c-0.8,0.6-1.4,1.3-1.9,2.1c-0.6,1-1,2-1.2,3.1c-0.3,1.2-0.4,2.5-0.4,3.8c-0.1,1.4,0.2,2.9,1,4.1
	C265.6-453.2,266.7-452.7,267.8-452.8z"/>
<path d="M290.6-448.8l4-32.5h10.4c1.6,0,3.1,0.2,4.6,0.5c1.1,0.3,2.2,0.8,3.1,1.5c0.8,0.6,1.4,1.4,1.8,2.3c0.4,1,0.6,2,0.6,3.1
	c0,0.9-0.1,1.8-0.4,2.7c-0.2,0.8-0.6,1.6-1.2,2.4c-0.6,0.8-1.2,1.4-2,1.9c-0.9,0.6-1.9,1.1-2.9,1.4c1.6,0.3,3,1.1,4.1,2.3
	c0.9,1.1,1.4,2.5,1.4,4c0,1.4-0.3,2.9-0.8,4.2c-0.5,1.3-1.4,2.4-2.4,3.3c-1.1,1-2.4,1.7-3.8,2.2c-1.6,0.6-3.4,0.8-5.1,0.8
	L290.6-448.8z M298.2-463.2l-1.2,9.8h5.5c0.9,0,1.8-0.1,2.7-0.4c0.7-0.3,1.3-0.7,1.9-1.2c0.5-0.5,0.9-1.2,1.1-1.9
	c0.2-0.8,0.4-1.6,0.4-2.4c0-1.1-0.4-2.1-1.1-2.8c-1.1-0.8-2.4-1.2-3.7-1.1H298.2z M298.7-467.2h4.3c1.7,0.1,3.3-0.4,4.6-1.4
	c1.2-1.1,1.8-2.7,1.6-4.3c0.1-1.1-0.3-2.2-1.1-3c-1.1-0.7-2.3-1-3.6-0.9h-4.6L298.7-467.2z"/>
<path d="M325.9-448.5c-1.2,0-2.4-0.2-3.5-0.6c-1.1-0.4-2-1.1-2.8-1.9c-0.8-0.9-1.4-1.9-1.9-3c-0.5-1.3-0.7-2.7-0.7-4.1
	c0-1.9,0.3-3.8,1-5.6c0.6-1.6,1.5-3.2,2.6-4.5c1.1-1.2,2.4-2.3,3.9-3c1.5-0.7,3.1-1.1,4.7-1.1c1.2,0,2.4,0.2,3.5,0.6
	c1.1,0.4,2,1.1,2.8,1.9c0.8,0.9,1.5,1.9,1.9,3c0.5,1.3,0.7,2.7,0.7,4.1c0,1.9-0.3,3.8-1,5.6c-0.6,1.6-1.5,3.2-2.6,4.5
	c-1.1,1.2-2.4,2.3-3.9,3C329.2-448.9,327.6-448.5,325.9-448.5z M326.4-452.8c0.9,0,1.8-0.3,2.5-0.8c0.8-0.6,1.4-1.3,1.9-2.1
	c0.6-1,1-2,1.2-3.1c0.3-1.2,0.4-2.5,0.4-3.7c0.1-1.4-0.3-2.9-1-4.1c-0.7-0.9-1.8-1.4-2.9-1.3c-0.9,0-1.8,0.3-2.5,0.8
	c-0.8,0.6-1.4,1.3-1.9,2.1c-0.5,1-0.9,2-1.2,3.1c-0.3,1.2-0.4,2.5-0.4,3.8c-0.1,1.4,0.2,2.9,0.9,4.1
	C324.2-453.2,325.3-452.7,326.4-452.8z"/>
<path d="M340.5-448.8l4-33.4h5.5l-4,33.4H340.5z"/>
<path d="M367.4-448.8c-0.8,0.2-1.6-0.4-1.8-1.2c0-0.1,0-0.3,0-0.4l0.2-3.4c-1,1.5-2.3,2.9-3.7,3.9c-1.3,0.9-2.8,1.4-4.4,1.5
	c-0.9,0-1.8-0.2-2.6-0.5c-0.8-0.4-1.5-0.9-2-1.6c-0.6-0.8-1-1.7-1.3-2.7c-0.3-1.3-0.5-2.5-0.5-3.8c0-1.3,0.1-2.6,0.4-3.8
	c0.3-1.2,0.7-2.4,1.1-3.6c0.5-1.1,1.1-2.1,1.8-3.1c0.6-0.9,1.4-1.7,2.3-2.5c0.8-0.7,1.7-1.2,2.7-1.6c1-0.4,2-0.6,3-0.6
	c1,0,1.9,0.2,2.8,0.6c0.8,0.4,1.6,0.9,2.2,1.5l1.5-12.1h5.5l-4.1,33.4L367.4-448.8z M359.7-452.8c0.7,0,1.3-0.2,1.8-0.6
	c0.7-0.5,1.3-1,1.8-1.7c0.6-0.8,1.2-1.7,1.6-2.6c0.5-1,1-2.1,1.3-3.2l0.7-5.6c-0.5-0.5-1.1-0.9-1.8-1.2c-0.6-0.2-1.3-0.3-1.9-0.3
	c-1,0-1.9,0.3-2.7,0.9c-0.8,0.7-1.6,1.5-2.1,2.4c-0.6,1-1,2.2-1.3,3.3c-0.3,1.2-0.5,2.5-0.5,3.7c-0.1,1.3,0.2,2.5,0.8,3.6
	C358-453.3,358.9-452.8,359.7-452.8L359.7-452.8z"/>
<path d="M391.3-448.8h-5.9l4-32.5h5.9L391.3-448.8z"/>
<path d="M399.5-453.5v-0.4c0-0.1,0-0.4,0-0.6c0-0.3,0.1-0.6,0.1-1.1c0-0.5,0.1-1,0.2-1.8l1.3-10.4H399c-0.2,0-0.5-0.1-0.6-0.2
	c-0.2-0.2-0.3-0.4-0.2-0.7c0,0,0,0,0-0.1s0-0.1,0-0.3s0-0.4,0.1-0.7s0.1-0.8,0.1-1.3l3.5-0.6l1.9-6.3c0.1-0.3,0.2-0.5,0.5-0.7
	c0.2-0.2,0.5-0.3,0.8-0.2h3l-0.9,7.3h5.6l-0.5,4h-5.6l-1.2,10.1c-0.1,0.6-0.1,1.1-0.2,1.5s-0.1,0.6-0.1,0.9s0,0.3,0,0.4
	c0,0.1,0,0.1,0,0.2c0,0.5,0.1,1,0.4,1.4c0.3,0.3,0.7,0.5,1.2,0.5c0.3,0,0.6,0,0.8-0.1c0.2-0.1,0.4-0.2,0.6-0.3l0.4-0.2
	c0.1-0.1,0.2-0.1,0.4-0.1c0.1,0,0.3,0,0.4,0.1c0.1,0.1,0.2,0.2,0.2,0.4l1.2,2.7c-0.8,0.6-1.7,1.1-2.7,1.5c-1,0.3-2,0.5-3,0.5
	c-1.5,0.1-2.9-0.4-4-1.3C400-450.8,399.5-452.1,399.5-453.5z"/>
<path d="M431.5-448.8h-2.9c-0.5,0.1-1-0.1-1.4-0.5c-0.3-0.3-0.4-0.8-0.4-1.2l0.2-3.1c-0.9,1.5-2.1,2.7-3.4,3.8
	c-1.2,0.9-2.7,1.4-4.2,1.4c-0.8,0-1.7-0.2-2.4-0.5c-0.8-0.3-1.5-0.9-2-1.5c-0.6-0.8-1.1-1.6-1.3-2.6c-0.3-1.2-0.5-2.4-0.5-3.6
	c0-4,1.5-7.9,4.3-10.9c0.9-1,1.9-1.8,3-2.5c1.1-0.7,2.3-1.2,3.6-1.6c1.3-0.4,2.7-0.6,4.1-0.6c1,0,2.1,0.1,3.1,0.2
	c1.1,0.2,2.1,0.4,3.1,0.8L431.5-448.8z M421.5-453c0.7,0,1.3-0.2,1.8-0.6c0.7-0.5,1.2-1.1,1.7-1.8c0.6-0.8,1-1.7,1.4-2.6
	c0.5-1.1,0.9-2.1,1.2-3.2l0.9-7c-0.4,0-0.8-0.1-1.1-0.1c-1.2,0-2.4,0.3-3.5,0.8c-1.1,0.6-2,1.4-2.8,2.3c-0.8,1-1.4,2.1-1.8,3.4
	c-0.4,1.3-0.7,2.7-0.7,4.1c-0.1,1.2,0.2,2.5,0.8,3.6C419.8-453.4,420.6-453,421.5-453L421.5-453z"/>
<path d="M436.9-448.8l4.1-33.4h5.5l-4,33.4H436.9z"/>
<path d="M456.6-471.9l-2.8,23.1h-5.5l2.8-23.1H456.6z M458-478.6c0,0.5-0.1,0.9-0.3,1.4c-0.2,0.4-0.5,0.8-0.8,1.1
	c-0.3,0.3-0.7,0.6-1.1,0.8c-0.4,0.2-0.9,0.3-1.3,0.3c-0.4,0-0.9-0.1-1.3-0.3c-0.4-0.2-0.8-0.4-1.1-0.8c-0.3-0.3-0.6-0.7-0.8-1.1
	c-0.4-0.9-0.4-1.9,0-2.7c0.2-0.4,0.4-0.8,0.8-1.1c0.3-0.3,0.7-0.6,1.1-0.8c0.4-0.2,0.8-0.3,1.3-0.3c0.4,0,0.9,0.1,1.3,0.3
	c0.4,0.2,0.8,0.4,1.1,0.8c0.3,0.3,0.6,0.7,0.8,1.1C457.9-479.6,458-479.1,458-478.6L458-478.6z"/>
<path d="M474.9-450.8c-0.6,0.5-1.4,1-2.1,1.4c-0.7,0.3-1.5,0.6-2.3,0.7c-0.9,0.1-1.7,0.2-2.6,0.2c-1.2,0-2.5-0.2-3.6-0.7
	c-1-0.4-2-1.1-2.7-2c-0.8-0.9-1.3-1.9-1.7-3c-0.4-1.3-0.6-2.6-0.6-4c0-1.8,0.3-3.6,0.9-5.4c0.6-1.6,1.4-3.2,2.5-4.5
	c1.1-1.3,2.4-2.3,3.9-3.1c1.5-0.8,3.2-1.2,4.9-1.2c2.7-0.1,5.2,1.1,6.8,3.2l-1.8,2.1c-0.1,0.1-0.3,0.3-0.5,0.4
	c-0.2,0.1-0.4,0.2-0.6,0.2c-0.3,0-0.5-0.1-0.7-0.2c-0.2-0.2-0.5-0.3-0.7-0.5c-0.3-0.2-0.7-0.4-1-0.5c-0.5-0.2-1.1-0.3-1.6-0.2
	c-0.9,0-1.7,0.2-2.5,0.7c-0.8,0.5-1.5,1.2-2.1,2c-0.6,0.9-1.1,2-1.4,3.1c-0.4,1.3-0.5,2.6-0.5,4c-0.1,1.4,0.3,2.8,1.1,3.9
	c0.7,0.9,1.8,1.4,3,1.4c0.7,0,1.4-0.1,2.1-0.4c0.5-0.2,1-0.5,1.4-0.8c0.4-0.3,0.7-0.6,1-0.8c0.3-0.2,0.6-0.4,1-0.4
	c0.2,0,0.4,0.1,0.5,0.1c0.2,0.1,0.3,0.2,0.5,0.4l1.4,1.7C476.5-452.1,475.7-451.5,474.9-450.8z"/>
<path d="M478.8-452.3c0-0.4,0.1-0.8,0.2-1.2c0.1-0.4,0.4-0.7,0.7-1c0.3-0.3,0.6-0.5,1-0.7c0.4-0.2,0.9-0.2,1.3-0.2
	c0.5,0,1,0.1,1.5,0.3c0.4,0.2,0.8,0.5,1,0.8c0.3,0.4,0.5,0.8,0.6,1.2c0.1,0.5,0.2,1,0.2,1.5c0,0.8-0.1,1.5-0.3,2.3
	c-0.2,0.8-0.6,1.6-1,2.4c-0.4,0.8-1,1.6-1.5,2.3c-0.6,0.8-1.4,1.5-2.1,2.1l-1-0.9c-0.3-0.2-0.4-0.5-0.4-0.8c0-0.3,0.2-0.6,0.4-0.8
	l0.9-1c0.4-0.4,0.7-0.9,1-1.3c0.3-0.5,0.5-1.1,0.7-1.7c-0.4,0-0.9-0.1-1.3-0.3c-0.4-0.2-0.7-0.4-1-0.7c-0.3-0.3-0.5-0.7-0.7-1.1
	C478.8-451.4,478.8-451.8,478.8-452.3z"/>
<path d="M507-454.9h12.2v6.1h-19.8v-32.8h7.6V-454.9z"/>
<path d="M538.8-448.8c-0.5,0-1-0.1-1.5-0.3c-0.4-0.3-0.7-0.7-0.8-1.1l-0.5-1.3c-0.6,0.5-1.2,0.9-1.7,1.3c-0.5,0.4-1.1,0.7-1.7,1
	c-0.6,0.3-1.2,0.5-1.8,0.6c-0.7,0.1-1.4,0.2-2.2,0.2c-1,0-2-0.1-2.9-0.4c-0.8-0.3-1.6-0.7-2.2-1.2c-0.6-0.6-1.1-1.2-1.4-2
	c-0.3-0.9-0.5-1.8-0.5-2.8c0-0.9,0.2-1.8,0.6-2.5c0.5-1,1.3-1.8,2.2-2.4c1.3-0.8,2.7-1.4,4.2-1.8c2.2-0.5,4.4-0.8,6.6-0.7v-1
	c0.1-1.1-0.2-2.1-0.8-3c-0.6-0.6-1.5-1-2.4-0.9c-0.7,0-1.4,0.1-2,0.3c-0.5,0.2-1,0.4-1.4,0.6c-0.4,0.2-0.8,0.4-1.2,0.6
	c-0.4,0.2-0.9,0.3-1.4,0.3c-0.4,0-0.9-0.1-1.2-0.4c-0.3-0.2-0.6-0.5-0.8-0.9l-1.3-2.2c1.4-1.2,3-2.2,4.7-2.8
	c1.8-0.6,3.6-0.9,5.5-0.9c1.3,0,2.6,0.2,3.8,0.7c1.1,0.4,2.1,1.1,2.9,1.9c0.8,0.8,1.4,1.8,1.8,2.9c0.4,1.2,0.6,2.4,0.6,3.7v14.6
	L538.8-448.8z M530.8-453.1c0.8,0,1.6-0.1,2.4-0.5c0.7-0.4,1.4-0.9,2-1.5v-3.2c-1.2,0-2.3,0.1-3.4,0.3c-0.7,0.1-1.5,0.4-2.1,0.7
	c-0.4,0.2-0.8,0.5-1.1,0.9c-0.2,0.3-0.3,0.7-0.3,1.1c-0.1,0.6,0.2,1.3,0.7,1.7C529.5-453.2,530.2-453,530.8-453.1L530.8-453.1z"/>
<path d="M555.2-448.5c-1,0-2-0.1-2.9-0.5c-0.8-0.3-1.5-0.8-2.1-1.4c-0.6-0.6-1-1.3-1.3-2.1c-0.3-0.9-0.5-1.9-0.5-2.8v-12.1h-2
	c-0.7,0-1.3-0.5-1.3-1.2c0-0.1,0-0.1,0-0.2v-2.7l3.7-0.7l1.4-5.7c0.2-0.7,0.8-1.2,1.5-1.1h3.6v6.8h5.7v4.8h-5.7v11.6
	c0,0.5,0.1,1,0.4,1.3c0.3,0.4,0.7,0.6,1.1,0.5c0.2,0,0.4,0,0.6-0.1c0.2,0,0.3-0.1,0.5-0.2l0.4-0.2c0.1-0.1,0.3-0.1,0.4-0.1
	c0.2,0,0.4,0,0.5,0.1c0.2,0.1,0.3,0.3,0.4,0.5l2.1,3.3c-0.9,0.7-1.9,1.2-3,1.5C557.6-448.6,556.4-448.5,555.2-448.5z"/>
<path d="M575.4-472.5c1.7,0,3.3,0.3,4.8,0.8c2.9,1.1,5.1,3.3,6.2,6.2c0.6,1.6,0.9,3.3,0.9,5c0,1.7-0.3,3.4-0.9,5
	c-0.5,1.4-1.4,2.7-2.4,3.8c-1.1,1.1-2.3,1.9-3.8,2.4c-1.5,0.6-3.2,0.9-4.8,0.8c-1.7,0-3.3-0.3-4.9-0.8c-1.4-0.5-2.7-1.4-3.8-2.4
	c-1.1-1.1-1.9-2.4-2.5-3.8c-0.6-1.6-0.9-3.3-0.9-5c0-1.7,0.3-3.4,0.9-5c0.5-1.4,1.4-2.7,2.5-3.8c1.1-1,2.4-1.9,3.8-2.4
	C572.1-472.3,573.7-472.5,575.4-472.5z M575.4-453.6c1.4,0.1,2.7-0.6,3.5-1.7c1.5-3.3,1.5-7,0-10.3c-0.8-1.1-2.2-1.8-3.5-1.7
	c-1.4-0.1-2.8,0.5-3.6,1.7c-1.5,3.3-1.5,7.1,0,10.3C572.6-454.2,574-453.5,575.4-453.6z"/>
<path d="M599.8-448.8v-32.8h12.1c1.9,0,3.9,0.2,5.8,0.6c1.4,0.3,2.7,0.9,3.9,1.8c1,0.7,1.7,1.7,2.2,2.8c0.5,1.2,0.7,2.4,0.7,3.7
	c0,0.7-0.1,1.4-0.3,2.1c-0.2,0.7-0.6,1.4-1,1.9c-0.5,0.6-1.1,1.2-1.7,1.6c-0.8,0.5-1.6,1-2.5,1.3c1.8,0.3,3.5,1.2,4.8,2.5
	c1.1,1.3,1.6,2.9,1.5,4.5c0,1.3-0.3,2.7-0.8,3.9c-0.5,1.2-1.4,2.3-2.4,3.1c-1.1,0.9-2.4,1.7-3.9,2.1c-1.7,0.5-3.5,0.8-5.2,0.8
	L599.8-448.8z M607.4-467.8h4c0.8,0,1.5-0.1,2.3-0.2c0.6-0.1,1.2-0.3,1.7-0.6c0.5-0.3,0.8-0.7,1.1-1.2c0.3-0.6,0.4-1.3,0.4-2
	c0-0.7-0.1-1.4-0.3-2c-0.2-0.5-0.5-0.9-0.9-1.2c-0.5-0.3-1-0.6-1.5-0.7c-0.7-0.2-1.5-0.2-2.2-0.2h-4.5L607.4-467.8z M607.4-462.8
	v8.2h5.3c0.8,0,1.7-0.1,2.5-0.4c0.6-0.2,1.1-0.6,1.5-1c0.4-0.4,0.6-0.9,0.7-1.4c0.1-0.5,0.2-1,0.2-1.6c0-0.5-0.1-1.1-0.2-1.6
	c-0.2-0.5-0.4-0.9-0.8-1.2c-0.4-0.4-1-0.6-1.5-0.8c-0.8-0.2-1.6-0.3-2.4-0.3L607.4-462.8z"/>
<path d="M636.5-482.5v33.7h-7v-33.7H636.5z"/>
<path d="M658.2-448.8c-0.5,0-1-0.1-1.5-0.3c-0.4-0.3-0.7-0.7-0.8-1.1l-0.5-1.3c-0.6,0.5-1.2,0.9-1.7,1.3c-0.5,0.4-1.1,0.7-1.7,1
	c-0.6,0.3-1.2,0.5-1.8,0.6c-0.7,0.1-1.4,0.2-2.2,0.2c-1,0-2-0.1-2.9-0.4c-0.8-0.3-1.6-0.7-2.2-1.2c-0.6-0.6-1.1-1.2-1.4-2
	c-0.3-0.9-0.5-1.8-0.5-2.8c0-0.9,0.2-1.8,0.6-2.5c0.5-1,1.3-1.8,2.2-2.4c1.3-0.8,2.7-1.4,4.2-1.8c2.2-0.5,4.4-0.8,6.6-0.7v-1
	c0.1-1.1-0.2-2.1-0.8-3c-0.6-0.6-1.5-1-2.4-0.9c-0.7,0-1.4,0.1-2,0.3c-0.5,0.2-1,0.4-1.4,0.6c-0.4,0.2-0.8,0.4-1.2,0.6
	c-0.4,0.2-0.9,0.3-1.4,0.3c-0.4,0-0.9-0.1-1.2-0.4c-0.3-0.2-0.6-0.5-0.8-0.9l-1.3-2.2c1.4-1.2,3-2.2,4.7-2.8
	c1.8-0.6,3.6-0.9,5.5-0.9c1.3,0,2.6,0.2,3.8,0.7c1.1,0.4,2,1.1,2.9,1.9c0.8,0.8,1.4,1.8,1.8,2.9c0.4,1.2,0.6,2.4,0.6,3.7v14.6
	L658.2-448.8z M650.2-453.1c0.8,0,1.6-0.1,2.4-0.5c0.7-0.4,1.4-0.9,2-1.5v-3.2c-1.2,0-2.3,0.1-3.5,0.3c-0.7,0.1-1.5,0.4-2.1,0.7
	c-0.4,0.2-0.8,0.5-1.1,0.9c-0.2,0.3-0.3,0.7-0.3,1.1c-0.1,0.6,0.2,1.3,0.7,1.7C648.9-453.2,649.5-453,650.2-453.1L650.2-453.1z"/>
<path d="M683.2-466.6c-0.2,0.2-0.4,0.4-0.6,0.6c-0.2,0.2-0.5,0.2-0.8,0.2c-0.3,0-0.6-0.1-0.9-0.2l-0.9-0.6c-0.4-0.2-0.8-0.4-1.2-0.6
	c-0.6-0.2-1.1-0.3-1.7-0.2c-0.8,0-1.5,0.1-2.2,0.5c-0.6,0.3-1.1,0.8-1.5,1.3c-0.4,0.7-0.7,1.4-0.9,2.2c-0.2,0.9-0.3,1.9-0.3,2.9
	c-0.1,1.8,0.3,3.6,1.3,5.1c0.8,1.2,2.2,1.9,3.6,1.8c0.7,0,1.3-0.1,1.9-0.3c0.4-0.2,0.8-0.4,1.2-0.7l0.9-0.7c0.3-0.2,0.7-0.3,1-0.3
	c0.5,0,1,0.2,1.3,0.6l2,2.5c-0.7,0.8-1.4,1.4-2.3,2c-0.8,0.5-1.6,0.9-2.4,1.2c-0.8,0.3-1.7,0.5-2.5,0.6c-0.8,0.1-1.6,0.2-2.5,0.2
	c-1.4,0-2.8-0.3-4.1-0.8c-1.3-0.5-2.5-1.3-3.4-2.4c-1-1.1-1.8-2.4-2.3-3.8c-0.6-1.6-0.9-3.4-0.9-5.1c0-1.6,0.2-3.2,0.8-4.7
	c0.5-1.4,1.2-2.7,2.2-3.8c1-1.1,2.3-2,3.7-2.5c1.6-0.6,3.3-0.9,5-0.9c1.6,0,3.3,0.3,4.8,0.9c1.4,0.6,2.7,1.5,3.7,2.6L683.2-466.6z"
	/>
<path d="M695.2-482.5v18.9h1c0.3,0,0.7,0,1-0.2c0.3-0.2,0.5-0.4,0.7-0.6l4.4-6.6c0.2-0.4,0.5-0.7,0.9-0.9c0.4-0.2,0.9-0.3,1.3-0.3
	h6.4l-6,8.3c-0.3,0.4-0.6,0.7-0.9,1c-0.3,0.3-0.7,0.6-1.1,0.8c0.7,0.5,1.3,1.2,1.8,2l6.6,11.2H705c-0.5,0-0.9-0.1-1.4-0.2
	c-0.4-0.2-0.7-0.5-0.9-0.9l-4.4-8.2c-0.1-0.3-0.4-0.6-0.7-0.7c-0.3-0.1-0.7-0.2-1-0.2h-1.3v10.3h-7v-33.6H695.2z"/>
<path d="M713-452.8c0-0.5,0.1-0.9,0.3-1.3c0.2-0.4,0.4-0.8,0.8-1.1c0.3-0.3,0.7-0.6,1.2-0.7c0.5-0.2,1-0.3,1.5-0.3
	c0.6,0,1.2,0.1,1.8,0.4c0.5,0.2,0.9,0.6,1.2,1c0.3,0.4,0.6,0.9,0.7,1.4c0.2,0.5,0.2,1.1,0.2,1.6c0,0.8-0.1,1.6-0.4,2.4
	c-0.3,0.9-0.6,1.7-1.1,2.6c-0.5,0.9-1.1,1.7-1.8,2.5c-0.7,0.8-1.5,1.6-2.4,2.2l-1.2-1.1c-0.1-0.1-0.3-0.3-0.4-0.5
	c-0.1-0.2-0.1-0.3-0.1-0.5c0-0.2,0.1-0.3,0.2-0.5c0.1-0.2,0.2-0.3,0.4-0.5l0.6-0.7c0.3-0.3,0.5-0.6,0.7-0.9c0.2-0.3,0.5-0.6,0.7-1
	c0.2-0.4,0.4-0.8,0.5-1.2c-0.5,0-1-0.2-1.4-0.4c-0.4-0.2-0.8-0.5-1.1-0.8c-0.3-0.4-0.5-0.8-0.7-1.2C713.1-451.7,713-452.3,713-452.8
	z"/>
<path d="M739.8-454.7h11l-0.7,5.9h-18.3l4-32.8h7.3L739.8-454.7z"/>
<path d="M772.5-448.8h-3.7c-0.4,0-0.7,0-1.1-0.2c-0.3-0.1-0.5-0.3-0.7-0.5c-0.2-0.2-0.3-0.4-0.4-0.7c-0.1-0.3-0.1-0.6-0.1-0.9v-1.7
	c-0.9,1.2-1.9,2.3-3.2,3.1c-1.2,0.7-2.5,1.1-3.9,1.1c-0.8,0-1.7-0.2-2.4-0.5c-0.8-0.4-1.5-0.9-2.1-1.5c-0.6-0.8-1.1-1.7-1.4-2.6
	c-0.4-1.2-0.6-2.5-0.5-3.8c0-2.1,0.4-4.1,1.2-6c0.7-1.9,1.8-3.6,3.2-5c1.4-1.4,3.1-2.6,4.9-3.4c2-0.9,4.1-1.3,6.3-1.3
	c1.1,0,2.3,0.1,3.4,0.2c1.1,0.2,2.3,0.4,3.4,0.8L772.5-448.8z M762.2-454c0.5,0,1.1-0.2,1.5-0.6c0.5-0.4,1-1,1.4-1.6
	c0.5-0.7,0.9-1.5,1.2-2.3c0.4-0.9,0.7-1.9,0.9-2.8l0.8-6.5h-0.4c-1.1,0-2.2,0.3-3.1,0.8c-0.9,0.5-1.8,1.2-2.4,2.1
	c-0.7,0.9-1.2,2-1.6,3.1c-0.4,1.2-0.6,2.5-0.5,3.7c0,0.6,0,1.3,0.2,1.9c0.1,0.4,0.3,0.9,0.5,1.3c0.2,0.3,0.4,0.5,0.7,0.7
	C761.6-454.1,761.9-454,762.2-454z"/>
<path d="M779.1-453.9v-0.4c0-0.1,0-0.4,0-0.6c0-0.3,0.1-0.6,0.1-1.1c0-0.5,0.1-1.1,0.2-1.8l1.2-9.5h-1.9c-0.3,0-0.5-0.1-0.7-0.3
	c-0.2-0.2-0.3-0.5-0.3-0.9c0,0,0-0.1,0-0.4s0.1-0.5,0.1-0.8s0.1-0.5,0.1-0.8s0-0.4,0-0.4l0.1-0.6l3.5-0.7l2-5.7
	c0.2-0.7,0.8-1.1,1.5-1.1h3.8l-0.9,6.8h5.2l-0.6,4.8h-5.2l-1.1,9.1c-0.1,0.6-0.1,1.1-0.2,1.5s-0.1,0.6-0.1,0.8s0,0.3,0,0.4
	c0,0,0,0.1,0,0.1c0,0.4,0.1,0.8,0.3,1.1c0.2,0.3,0.6,0.5,1,0.4c0.2,0,0.4,0,0.6-0.1c0.1,0,0.3-0.1,0.4-0.2l0.3-0.2
	c0.1-0.1,0.2-0.1,0.4-0.1c0.2,0,0.3,0,0.5,0.1c0.1,0.1,0.2,0.3,0.3,0.5l1.5,3.3c-0.9,0.7-1.9,1.2-3,1.5c-1,0.3-2.1,0.5-3.2,0.5
	c-0.8,0-1.6-0.1-2.4-0.4c-0.7-0.2-1.3-0.6-1.8-1.1c-0.5-0.5-0.9-1.1-1.2-1.7C779.4-452.3,779.2-453.1,779.1-453.9z"/>
<path d="M802.5-448.5c-1.2,0-2.5-0.2-3.7-0.7c-1.1-0.4-2.1-1.1-2.9-1.9c-0.9-0.9-1.6-1.9-2-3.1c-0.5-1.4-0.7-2.8-0.7-4.2
	c0-1.9,0.3-3.9,1-5.7c0.6-1.7,1.6-3.2,2.8-4.5c1.1-1.2,2.5-2.2,4-2.9c1.5-0.7,3.1-1.1,4.8-1.1c1.2,0,2.5,0.2,3.7,0.6
	c1.1,0.4,2.1,1.1,2.9,1.9c0.9,0.9,1.6,1.9,2,3.1c0.5,1.3,0.7,2.8,0.7,4.2c0,1.9-0.3,3.9-1,5.7c-0.6,1.7-1.6,3.2-2.8,4.5
	c-1.1,1.3-2.5,2.3-4,3C805.8-448.8,804.1-448.5,802.5-448.5z M803.1-453.6c0.8,0,1.5-0.2,2.1-0.7c0.7-0.5,1.2-1.2,1.6-1.9
	c0.5-0.9,0.8-1.9,1-2.9c0.2-1.1,0.4-2.3,0.3-3.5c0.1-1.2-0.1-2.5-0.7-3.6c-0.5-0.7-1.4-1.2-2.2-1.1c-0.8,0-1.5,0.2-2.1,0.7
	c-0.7,0.5-1.2,1.2-1.6,1.9c-0.5,0.9-0.8,1.9-1,2.9c-0.2,1.1-0.3,2.3-0.3,3.5c-0.1,1.2,0.1,2.5,0.7,3.6
	C801.4-454,802.2-453.6,803.1-453.6z"/>
<path d="M825.5-448.8l4-32.8h11.2c1.6,0,3.3,0.2,4.9,0.5c1.2,0.3,2.3,0.8,3.3,1.5c0.8,0.6,1.5,1.5,1.9,2.4c0.4,1,0.6,2.1,0.6,3.1
	c0,0.9-0.1,1.7-0.3,2.6c-0.2,0.8-0.6,1.6-1.1,2.3c-0.5,0.7-1.2,1.4-1.9,1.9c-0.9,0.6-1.9,1.1-2.9,1.4c1.5,0.3,2.9,1.1,3.9,2.2
	c0.9,1.1,1.3,2.4,1.3,3.8c0,1.5-0.3,2.9-0.9,4.2c-0.6,1.3-1.4,2.5-2.5,3.4c-1.2,1-2.5,1.8-4,2.3c-1.7,0.6-3.5,0.9-5.3,0.8
	L825.5-448.8z M834.5-462.8l-1,8.5h4.8c0.8,0,1.5-0.1,2.3-0.4c0.6-0.2,1.1-0.6,1.5-1.1c0.4-0.5,0.7-1.1,0.8-1.7
	c0.2-0.7,0.3-1.4,0.3-2.1c0-0.5-0.1-0.9-0.2-1.4c-0.1-0.4-0.4-0.7-0.7-1c-0.3-0.3-0.8-0.5-1.2-0.6c-0.6-0.2-1.2-0.3-1.9-0.2
	L834.5-462.8z M835-467.7h3.5c0.8,0,1.5-0.1,2.2-0.2c0.6-0.1,1.2-0.4,1.7-0.8c0.5-0.4,0.9-1,1.1-1.6c0.3-0.8,0.4-1.6,0.4-2.4
	c0.1-1-0.3-1.9-1-2.6c-0.9-0.6-1.9-0.8-3-0.8h-4L835-467.7z"/>
<path d="M852.6-448.8l4.1-33.7h6.9l-4.1,33.7H852.6z"/>
<path d="M883.5-448.8h-3.7c-0.4,0-0.7,0-1.1-0.2c-0.3-0.1-0.5-0.3-0.7-0.5c-0.2-0.2-0.3-0.4-0.4-0.7c-0.1-0.3-0.1-0.6-0.1-0.9v-1.7
	c-0.9,1.2-1.9,2.3-3.2,3.1c-1.2,0.7-2.5,1.1-3.9,1.1c-0.9,0-1.7-0.2-2.5-0.5c-0.8-0.4-1.5-0.9-2.1-1.5c-0.6-0.8-1.1-1.7-1.4-2.6
	c-0.4-1.2-0.6-2.5-0.5-3.8c0-2.1,0.4-4.1,1.2-6c1.5-3.8,4.5-6.8,8.2-8.4c2-0.9,4.1-1.3,6.3-1.3c1.1,0,2.3,0.1,3.4,0.2
	c1.2,0.2,2.3,0.4,3.4,0.8L883.5-448.8z M873.3-454c0.5,0,1.1-0.2,1.5-0.6c0.5-0.4,1-1,1.4-1.6c0.5-0.7,0.9-1.5,1.2-2.3
	c0.4-0.9,0.7-1.9,0.9-2.8l0.8-6.5h-0.4c-1.1,0-2.2,0.3-3.1,0.8c-0.9,0.5-1.8,1.2-2.4,2.1c-0.7,0.9-1.2,2-1.6,3.1
	c-0.4,1.2-0.6,2.5-0.5,3.7c0,0.6,0,1.3,0.2,1.9c0.1,0.4,0.3,0.9,0.5,1.3c0.2,0.3,0.4,0.5,0.7,0.7C872.6-454.1,872.9-454,873.3-454z"
	/>
<path d="M904.2-450.8c-0.6,0.5-1.4,1-2.1,1.4c-0.7,0.4-1.5,0.6-2.3,0.8c-0.9,0.2-1.8,0.2-2.8,0.2c-1.3,0-2.5-0.2-3.7-0.7
	c-1.1-0.5-2-1.1-2.8-2c-0.8-0.9-1.4-2-1.8-3.1c-0.4-1.3-0.6-2.7-0.6-4.1c0-1.9,0.3-3.7,0.9-5.4c0.6-1.6,1.5-3.2,2.6-4.5
	c1.1-1.3,2.5-2.3,4-3.1c1.6-0.8,3.3-1.1,5-1.1c1.4,0,2.7,0.2,4,0.8c1.2,0.6,2.2,1.4,3,2.5l-2.2,2.6c-0.2,0.2-0.4,0.3-0.6,0.4
	c-0.2,0.1-0.5,0.2-0.7,0.2c-0.3,0-0.5-0.1-0.8-0.2l-0.7-0.4c-0.3-0.2-0.6-0.3-0.9-0.4c-0.4-0.1-0.9-0.2-1.3-0.2
	c-0.7,0-1.4,0.2-2,0.6c-0.7,0.4-1.3,1-1.8,1.7c-0.6,0.8-1,1.8-1.2,2.8c-0.3,1.2-0.5,2.5-0.5,3.7c0,0.7,0.1,1.4,0.3,2
	c0.2,0.5,0.4,1,0.8,1.4c0.3,0.4,0.7,0.7,1.1,0.9c0.4,0.2,0.9,0.3,1.3,0.3c0.6,0,1.2-0.1,1.7-0.3c0.4-0.2,0.8-0.4,1.2-0.7l0.9-0.7
	c0.3-0.2,0.6-0.3,1-0.3c0.2,0,0.5,0.1,0.7,0.2c0.2,0.1,0.4,0.2,0.5,0.4l1.8,2.1C905.7-452.2,905-451.5,904.2-450.8z"/>
<path d="M918.9-482.5l-2.3,18.9h0.5c0.3,0,0.7,0,1-0.2c0.3-0.2,0.5-0.4,0.7-0.6l4.8-6.6c0.2-0.4,0.6-0.7,1-0.9
	c0.4-0.2,0.8-0.3,1.3-0.3h6.2l-6.5,8.3c-0.3,0.4-0.6,0.7-1,1c-0.4,0.3-0.7,0.6-1.1,0.8c0.3,0.3,0.6,0.6,0.8,0.9
	c0.3,0.4,0.5,0.7,0.6,1.1l4.7,11.2h-6.1c-0.4,0-0.8-0.1-1.2-0.2c-0.3-0.2-0.6-0.5-0.8-0.9l-3.2-8.2c-0.1-0.3-0.3-0.5-0.5-0.7
	c-0.3-0.1-0.6-0.2-0.9-0.2H916l-1.3,10.3h-6.9l4.1-33.7L918.9-482.5z"/>
<path d="M948.7-448.8h-7.4l4-32.8h7.4L948.7-448.8z"/>
<path d="M956.1-453.9v-0.4c0-0.2,0-0.4,0-0.6c0-0.3,0.1-0.6,0.1-1.1c0-0.5,0.1-1.1,0.2-1.8l1.2-9.5h-1.9c-0.3,0-0.5-0.1-0.7-0.3
	c-0.2-0.2-0.3-0.5-0.3-0.9c0,0,0-0.1,0-0.4s0.1-0.5,0.1-0.8s0.1-0.5,0.1-0.8s0-0.4,0-0.4l0.1-0.6l3.5-0.7l2-5.7
	c0.2-0.7,0.8-1.1,1.5-1.1h3.8l-0.8,6.8h5.2l-0.6,4.8h-5.2l-1.1,9.1c-0.1,0.6-0.1,1.1-0.2,1.5l-0.1,0.8c0,0.2,0,0.3,0,0.4
	c0,0,0,0.1,0,0.1c0,0.4,0.1,0.8,0.3,1.1c0.2,0.3,0.6,0.5,1,0.4c0.2,0,0.4,0,0.6-0.1c0.1,0,0.3-0.1,0.4-0.2l0.3-0.2
	c0.1-0.1,0.2-0.1,0.4-0.1c0.2,0,0.3,0,0.5,0.1c0.1,0.1,0.2,0.3,0.3,0.5l1.5,3.3c-0.9,0.7-1.9,1.2-3,1.5c-1,0.3-2.1,0.5-3.2,0.5
	c-0.8,0-1.6-0.1-2.4-0.4c-0.7-0.2-1.3-0.6-1.9-1.1c-0.5-0.5-0.9-1.1-1.2-1.7C956.3-452.3,956.1-453.1,956.1-453.9z"/>
<path d="M989.6-448.8h-3.7c-0.4,0-0.7,0-1.1-0.2c-0.3-0.1-0.5-0.3-0.7-0.5c-0.2-0.2-0.3-0.4-0.4-0.7c-0.1-0.3-0.1-0.6-0.1-0.9v-1.7
	c-0.9,1.2-1.9,2.3-3.2,3.1c-1.2,0.7-2.5,1.1-3.9,1.1c-0.8,0-1.7-0.2-2.4-0.5c-0.8-0.4-1.5-0.9-2.1-1.5c-0.6-0.8-1.1-1.7-1.4-2.6
	c-0.4-1.2-0.6-2.5-0.5-3.8c0-2.1,0.4-4.1,1.2-6c0.7-1.9,1.8-3.6,3.2-5c2.9-3,7-4.7,11.2-4.7c1.1,0,2.3,0.1,3.4,0.2
	c1.2,0.2,2.3,0.4,3.4,0.8L989.6-448.8z M979.4-454c0.5,0,1.1-0.2,1.5-0.6c0.5-0.4,1-1,1.4-1.6c0.5-0.7,0.9-1.5,1.2-2.3
	c0.4-0.9,0.7-1.9,0.9-2.8l0.8-6.5h-0.4c-1.1,0-2.2,0.3-3.1,0.8c-0.9,0.5-1.8,1.2-2.4,2.1c-0.7,0.9-1.2,2-1.6,3.1
	c-0.4,1.2-0.6,2.5-0.5,3.7c0,0.6,0,1.3,0.2,1.9c0.1,0.4,0.3,0.9,0.5,1.3c0.2,0.3,0.4,0.5,0.7,0.7C978.7-454.1,979.1-454,979.4-454z"
	/>
<path d="M994.2-448.8l4.1-33.7h6.9l-4.1,33.7H994.2z"/>
<path d="M1015.9-472.2l-2.8,23.3h-6.9l2.8-23.3H1015.9z M1017.2-478.6c0,0.5-0.1,1.1-0.4,1.6c-0.2,0.5-0.6,0.9-0.9,1.3
	c-0.4,0.4-0.8,0.7-1.3,0.9c-0.5,0.2-1,0.3-1.5,0.3c-0.5,0-1-0.1-1.5-0.3c-1-0.4-1.7-1.2-2.2-2.2c-0.2-0.5-0.3-1-0.3-1.6
	c0-0.5,0.1-1.1,0.3-1.6c0.2-0.5,0.5-0.9,0.9-1.3c0.4-0.4,0.8-0.7,1.3-0.9c0.5-0.2,1-0.3,1.5-0.3c0.5,0,1.1,0.1,1.5,0.3
	c0.5,0.2,0.9,0.5,1.3,0.9c0.4,0.4,0.7,0.8,0.9,1.3C1017.1-479.7,1017.2-479.1,1017.2-478.6z"/>
<path d="M1034.2-450.8c-0.7,0.5-1.4,1-2.1,1.4c-0.7,0.4-1.5,0.6-2.3,0.8c-0.9,0.2-1.8,0.2-2.8,0.2c-1.3,0-2.5-0.2-3.7-0.7
	c-1.1-0.5-2-1.1-2.8-2c-0.8-0.9-1.4-2-1.8-3.1c-0.4-1.3-0.6-2.7-0.6-4.1c0-1.9,0.3-3.7,0.9-5.4c0.6-1.6,1.5-3.2,2.6-4.5
	c1.1-1.3,2.5-2.3,4-3.1c1.6-0.8,3.3-1.1,5-1.1c1.4,0,2.7,0.2,4,0.8c1.2,0.6,2.2,1.4,3,2.5l-2.2,2.6c-0.2,0.2-0.4,0.3-0.6,0.4
	c-0.2,0.1-0.5,0.2-0.7,0.2c-0.3,0-0.5-0.1-0.8-0.2l-0.7-0.4c-0.3-0.2-0.6-0.3-0.9-0.4c-0.4-0.1-0.9-0.2-1.3-0.2
	c-0.7,0-1.4,0.2-2,0.6c-0.7,0.4-1.3,1-1.7,1.7c-0.6,0.8-1,1.8-1.2,2.8c-0.3,1.2-0.5,2.5-0.5,3.7c0,0.7,0.1,1.4,0.3,2
	c0.2,0.5,0.4,1,0.7,1.4c0.3,0.4,0.7,0.7,1.1,0.9c0.4,0.2,0.9,0.3,1.3,0.3c0.6,0,1.2-0.1,1.7-0.3c0.4-0.2,0.8-0.4,1.2-0.7l0.9-0.7
	c0.3-0.2,0.6-0.3,1-0.3c0.2,0,0.5,0.1,0.7,0.2c0.2,0.1,0.4,0.2,0.6,0.4l1.8,2.1C1035.6-452.2,1034.9-451.5,1034.2-450.8z"/>
<path d="M249.9-103.7c0.4,1.2,0.9,2.3,1.3,3.5c0.4-1.2,0.9-2.4,1.4-3.5s1-2.2,1.6-3.4l31.7-57.7c0.4-0.8,1-1.4,1.8-1.8
	c0.8-0.3,1.7-0.4,2.6-0.3h9.4v93.8h-11.1V-142c0-0.9,0-1.9,0.1-2.9s0.1-2.1,0.2-3.2l-32.1,58.7c-0.8,1.8-2.6,3-4.6,3h-1.8
	c-2,0-3.8-1.2-4.6-3l-32.9-58.9c0.1,1.1,0.2,2.2,0.3,3.3s0.1,2.1,0.1,3v68.9h-11.1v-93.8h9.4c0.9,0,1.8,0.1,2.6,0.3
	c0.8,0.4,1.4,1,1.8,1.8l32.4,57.7C248.9-105.9,249.5-104.8,249.9-103.7z"/>
<path d="M399.8-73.1H390c-1,0-2-0.3-2.8-0.8c-0.7-0.6-1.2-1.3-1.6-2.2l-8.8-22.7h-42.1L326-76.1c-0.3,0.8-0.9,1.5-1.6,2.1
	c-0.8,0.6-1.8,0.9-2.8,0.9h-9.8l37.5-93.8h12.9L399.8-73.1z M338.3-107.9h35l-14.7-38.2c-1.1-2.9-2.1-5.8-2.8-8.8
	c-0.5,1.8-1,3.4-1.4,5s-0.9,2.8-1.3,4L338.3-107.9z"/>
<path d="M425.6-112.2v39.2H413v-93.8h26.5c5.2-0.1,10.4,0.5,15.4,1.8c3.9,1,7.5,2.8,10.7,5.2c2.7,2.2,4.9,5,6.3,8.2
	c1.4,3.4,2.1,7.1,2,10.8c0,3.2-0.5,6.3-1.6,9.3c-1,2.8-2.6,5.5-4.5,7.8c-2.1,2.4-4.5,4.3-7.3,5.9c-3,1.7-6.3,2.9-9.7,3.7
	c1.7,1,3.1,2.4,4.2,4l27.4,37.3h-11.2c-2.1,0.1-4-0.9-5.1-2.7l-24.4-33.5c-0.6-0.9-1.4-1.7-2.4-2.3c-1.2-0.5-2.6-0.8-3.9-0.7
	L425.6-112.2z M425.6-121.5h13.3c3.3,0.1,6.6-0.4,9.8-1.3c2.6-0.8,5-2.1,7.1-3.8c1.9-1.6,3.3-3.6,4.3-5.9c1-2.4,1.5-5,1.4-7.5
	c0-5.6-1.8-9.8-5.5-12.6c-3.7-2.8-9.2-4.3-16.5-4.3h-13.9V-121.5z"/>
<path d="M511.1-73.1h-12.7v-93.8h12.7V-73.1z"/>
<path d="M594-166.9v10.4h-45v31.2h36.5v10H549v32h45V-73h-57.8v-93.9H594z"/>
<path d="M621.3-166.5c0.7,0.4,1.4,1,1.9,1.7L677.6-94c-0.1-1.1-0.2-2.2-0.3-3.3s-0.1-2.1-0.1-3.1v-66.5h11.1v93.8H682
	c-0.9,0-1.7-0.2-2.5-0.5c-0.8-0.4-1.5-1-2-1.8L623.2-146c0.1,1.1,0.2,2.2,0.2,3.2s0.1,2,0.1,2.9v66.9h-11.1v-93.8h6.5
	C619.7-166.9,620.6-166.8,621.3-166.5z"/>
<path d="M725.2-125.8h4.8c1.4,0.1,2.7-0.2,4-0.6c1.1-0.5,2-1.2,2.8-2.1l31.2-35.4c0.8-0.9,1.7-1.7,2.8-2.3c1.1-0.5,2.3-0.7,3.4-0.7
	H785l-35.8,40.4c-0.8,0.9-1.7,1.8-2.6,2.5c-0.8,0.7-1.7,1.3-2.6,1.7c1.2,0.4,2.3,1,3.2,1.8c1,0.9,2,1.9,2.9,3L787.5-73h-11
	c-0.7,0-1.4-0.1-2.1-0.2c-0.5-0.1-1-0.3-1.5-0.5c-0.4-0.2-0.8-0.5-1.1-0.8c-0.3-0.3-0.7-0.7-1-1.1L738.3-113
	c-0.4-0.5-0.9-0.9-1.3-1.3c-0.4-0.4-0.9-0.7-1.4-1c-0.6-0.3-1.2-0.5-1.9-0.6c-0.9-0.1-1.8-0.2-2.6-0.1h-5.8v43h-12.6v-93.9h12.6
	L725.2-125.8z"/>
<path d="M877.7-73.1h-9.8c-1,0-2-0.3-2.8-0.8c-0.7-0.6-1.2-1.3-1.6-2.2l-8.8-22.7h-42.1l-8.8,22.7c-0.3,0.8-0.9,1.5-1.6,2.1
	c-0.8,0.6-1.8,0.9-2.8,0.9h-9.8l37.5-93.8h12.9L877.7-73.1z M826.9-182.1c0,0.9-0.2,1.9-0.6,2.7c-0.4,0.8-0.9,1.6-1.6,2.2
	c-0.7,0.7-1.5,1.2-2.3,1.5c-0.9,0.4-1.9,0.6-2.8,0.6c-0.9,0-1.8-0.2-2.7-0.6c-0.8-0.4-1.6-0.9-2.3-1.5c-0.7-0.7-1.2-1.4-1.6-2.2
	c-0.4-0.9-0.6-1.8-0.6-2.7c0-1,0.2-2,0.6-2.9c0.4-0.9,0.9-1.7,1.6-2.3c0.7-0.7,1.4-1.2,2.3-1.6c0.8-0.4,1.7-0.6,2.7-0.6
	c1,0,2,0.2,2.8,0.6c1.7,0.8,3.1,2.2,3.9,3.9C826.7-184.1,826.9-183.1,826.9-182.1z M816.2-107.9h35l-14.7-38.2
	c-1.1-2.9-2.1-5.8-2.8-8.8c-0.5,1.8-1,3.4-1.4,5s-0.9,2.8-1.3,4L816.2-107.9z M854.8-182.1c0,0.9-0.2,1.9-0.6,2.7
	c-0.4,0.8-0.9,1.6-1.6,2.2c-0.7,0.7-1.4,1.2-2.3,1.5c-0.9,0.4-1.8,0.6-2.8,0.6c-2.9,0-5.5-1.7-6.6-4.4c-0.4-0.9-0.6-1.8-0.6-2.7
	c0-1,0.2-1.9,0.6-2.9c0.4-0.9,0.9-1.7,1.5-2.3c0.7-0.7,1.4-1.2,2.3-1.6c0.9-0.4,1.8-0.6,2.8-0.6c0.9,0,1.9,0.2,2.8,0.6
	c1.7,0.8,3.1,2.2,3.9,3.9C854.6-184.1,854.8-183.1,854.8-182.1L854.8-182.1z"/>
<path d="M947.3-166.9v10.4h-45v32.8h38.5v10.3h-38.5v40.3h-12.8v-93.8H947.3z"/>
<path d="M1021.4-166.9v10.4h-45v31.2h36.5v10h-36.5v32h45V-73h-57.8v-93.9H1021.4z"/>
<path d="M1053.6-112.2v39.2H1041v-93.8h26.5c5.2-0.1,10.4,0.5,15.4,1.8c3.9,1,7.5,2.8,10.7,5.2c2.7,2.2,4.9,5,6.2,8.2
	c1.4,3.4,2.1,7.1,2,10.8c0,3.2-0.5,6.3-1.6,9.3c-1,2.8-2.6,5.5-4.6,7.8c-2.1,2.4-4.5,4.3-7.3,5.9c-3,1.7-6.3,2.9-9.7,3.7
	c1.7,1,3.1,2.4,4.2,4l27.4,37.3H1099c-2.1,0.1-4-0.9-5.1-2.7l-24.4-33.5c-0.6-0.9-1.4-1.7-2.4-2.3c-1.2-0.5-2.6-0.8-3.9-0.7
	L1053.6-112.2z M1053.6-121.5h13.3c3.3,0.1,6.6-0.4,9.8-1.3c2.6-0.8,5-2.1,7.1-3.8c1.9-1.6,3.3-3.6,4.3-5.9c1-2.4,1.5-4.9,1.4-7.5
	c0-5.6-1.8-9.8-5.5-12.6c-3.7-2.8-9.2-4.3-16.5-4.3h-13.9V-121.5z"/>
</svg>
