<?xml version="1.0" encoding="utf-8"?>
<!-- Generator: Adobe Illustrator 22.1.0, SVG Export Plug-In . SVG Version: 6.00 Build 0)  -->
<svg version="1.1" id="Layer_1" xmlns="http://www.w3.org/2000/svg" xmlns:xlink="http://www.w3.org/1999/xlink" x="0px" y="0px"
	 viewBox="0 0 1440 617" style="enable-background:new 0 0 1440 617;" xml:space="preserve">
<style type="text/css">
	.st0{clip-path:url(#SVGID_2_);fill:#84B9FF;}
	.st1{clip-path:url(#SVGID_2_);}
	.st2{clip-path:url(#SVGID_4_);fill:#1D1D1B;}
	.st3{clip-path:url(#SVGID_4_);fill:none;stroke:#1D1D1B;}
	.st4{opacity:0.6;clip-path:url(#SVGID_4_);}
	.st5{clip-path:url(#SVGID_6_);fill:#00FFFF;}
	.st6{clip-path:url(#SVGID_8_);fill:#00FFFF;}
	.st7{clip-path:url(#SVGID_10_);fill:#00FFFF;}
	.st8{clip-path:url(#SVGID_12_);fill:#00FFFF;}
</style>
<g>
	<defs>
		<rect id="SVGID_1_" x="-8" y="-8" width="1463.8" height="625"/>
	</defs>
	<clipPath id="SVGID_2_">
		<use xlink:href="#SVGID_1_"  style="overflow:visible;"/>
	</clipPath>
	<rect x="1" y="-1" class="st0" width="1440" height="617"/>
	<g class="st1">
		<defs>
			<rect id="SVGID_3_" x="-8" y="-8" width="1463.8" height="625"/>
		</defs>
		<clipPath id="SVGID_4_">
			<use xlink:href="#SVGID_3_"  style="overflow:visible;"/>
		</clipPath>
		<path class="st2" d="M1401.2,317v-35.3h-16.5V317h-19.8v14.8h19.8v75.4c0,27.1,15.3,37.2,36.5,37.2c9.9,0,15.6-1.9,17.4-2.6v-14.4
			c-1.9,0.9-8.2,2.1-13.4,2.1c-15.8,0-24-4.7-24-24.5v-73.3h39.8V317H1401.2z M1306.9,317v-35.3h-16.5V317h-19.8v14.8h19.8v75.4
			c0,27.1,15.3,37.2,36.5,37.2c9.9,0,15.6-1.9,17.4-2.6v-14.4c-1.9,0.9-8.2,2.1-13.4,2.1c-15.8,0-24-4.7-24-24.5v-73.3h39.8V317
			H1306.9z M1248.5,266.3h-21.2v21.2h21.2V266.3z M1229.6,441.9h16.5V317h-16.5V441.9z M1127.8,335.4l28.5,106.5h21.9l26.9-124.9
			h-16.5L1167,424.7L1138,317h-20l-29,107.7L1067.3,317h-16.5l26.9,124.9h21.7L1127.8,335.4z M982.2,328.3
			c23.8,0,34.9,17.2,35.8,44.3h-71.6C947.1,345.5,958.6,328.3,982.2,328.3 M1034.8,386.3v-9.4c0-34.6-15.8-62.4-52.3-62.4
			c-36.5,0-52.8,27.8-52.8,62.4v5.2c0,34.6,16.3,62.4,54,62.4c35.1,0,51.1-22.4,51.1-41.7v-0.9H1019c0,13.4-10.4,28.7-35.3,28.7
			c-25,0-36.5-17-37.2-44.3H1034.8z M883.7,258.1v82.5h-81.8v-82.5h-17v183.8h17v-86.2h81.8v86.2h17V258.1H883.7z M709.3,314.4
			c-16.7,0-28.3,8.7-34.9,19.1l-2.4-16.5h-13.7l1.4,35.3v89.5h16.5v-92.6c5.2-8.2,14.4-18.9,33.2-18.9h3.3v-15.8
			C712.6,314.6,711,314.4,709.3,314.4 M580.2,328.3c23.8,0,34.9,17.2,35.8,44.3h-71.6C545.1,345.5,556.6,328.3,580.2,328.3
			 M632.8,386.3v-9.4c0-34.6-15.8-62.4-52.3-62.4c-36.5,0-52.8,27.8-52.8,62.4v5.2c0,34.6,16.3,62.4,54,62.4
			c35.1,0,51.1-22.4,51.1-41.7v-0.9H617c0,13.4-10.4,28.7-35.3,28.7c-25,0-36.5-17-37.2-44.3H632.8z M421.6,348.6
			c4.9-8.2,14.6-19.3,31.6-19.3c23.6,0,34.6,18.4,34.6,47.4v5.7c0,29-11.1,47.4-34.6,47.4c-17,0-26.6-11.1-31.6-19.3V348.6z
			 M457,444.5c34.2,0,47.8-27.6,47.8-62.2v-5.7c0-34.6-13.7-62.2-47.8-62.2c-19.1,0-30.6,9-37.2,19.6l-2.4-17h-13.7l1.4,35.3V489
			h16.5v-61.3C428.2,437.2,439.5,444.5,457,444.5 M325.5,429.6c-24.7,0-35.8-18.9-35.8-47.4v-5.7c0-28.5,11.1-47.4,35.8-47.4
			c24.7,0,35.8,18.9,35.8,47.4v5.7C361.3,410.8,350.2,429.6,325.5,429.6 M325.5,444.5c36.8,0,52.5-27.6,52.5-62.2v-5.7
			c0-34.6-15.8-62.2-52.5-62.2c-36.8,0-52.5,27.6-52.5,62.2v5.7C272.9,416.9,288.7,444.5,325.5,444.5 M197.3,429.6
			c-24.7,0-35.8-18.9-35.8-47.4v-5.7c0-28.5,11.1-47.4,35.8-47.4c24.7,0,35.8,18.9,35.8,47.4v5.7C233.1,410.8,222,429.6,197.3,429.6
			 M197.3,444.5c36.8,0,52.5-27.6,52.5-62.2v-5.7c0-34.6-15.8-62.2-52.5-62.2c-36.8,0-52.5,27.6-52.5,62.2v5.7
			C144.7,416.9,160.5,444.5,197.3,444.5 M18.4,354.7v-9.4c0-52.3,14.1-74.5,44.8-74.5h1.7c27.6,0,39.1,16.3,39.1,54.2h17.4v-6.6
			c0-41.5-18.9-62.9-58-62.9C21.3,255.5,1,281.6,1,345.3v9.4c0,63.6,20.3,89.8,62.4,89.8c39.1,0,58-21.4,58-60.1V382H104
			c0,30.4-11.5,47.1-39.1,47.1h-1.7C32.3,429.1,18.4,407,18.4,354.7"/>
		<path class="st2" d="M479.1,146.4c-0.9-11.1-3.7-21.6-7.9-31.4c-0.4,0-0.8,0-1.2,0c-38.2,0-61.3,17.9-74.5,39.1l-4.7-33.9h-27.3
			l2.8,70.7v63.2c4.3,0.6,8.7,0.9,13.2,0.9c6.8,0,13.4-0.7,19.8-2v-69.7c9.9-16.5,29.2-38.6,63.2-38.6
			C468.4,144.7,474,145.3,479.1,146.4"/>
		<circle class="st3" cx="379.5" cy="155" r="100"/>
		<path class="st2" d="M739.8,149.9h6.6v-31.6c-0.5,0-3.8-0.5-7.1-0.5c-33.5,0-56.6,17.4-69.8,38.2l-4.7-33h-27.3l2.8,70.7v53.9
			c10.3,4.1,21.4,6.6,33,7.1v-67.1C683.7,171.1,702.1,149.9,739.8,149.9"/>
		<circle class="st3" cx="677.5" cy="154.8" r="100"/>
		<path class="st2" d="M1019.7,115c0-21-2.9-40.6-9-57.9c-6.8-1.5-13.9-2.3-21.2-2.3c-4.7,0-9.2,0.3-13.7,1
			c6.4,13.8,9.8,31,10.5,50.8h-84.3c-4.7,8.4-8.1,17.6-10.2,27.3h128V115z M1019.7,166.9V165h-31.6c0,26.9-20.7,57.5-70.7,57.5
			c-0.5,0-1,0-1.6,0c9.4,10.3,21,18.6,34,24.2C997.6,235.2,1019.7,199,1019.7,166.9"/>
		<circle class="st3" cx="989.5" cy="154.8" r="100"/>
		<g class="st4">
			<g>
				<defs>
					<rect id="SVGID_5_" x="998.5" y="365.2" width="60" height="50"/>
				</defs>
				<clipPath id="SVGID_6_">
					<use xlink:href="#SVGID_5_"  style="overflow:visible;"/>
				</clipPath>
				<path class="st5" d="M1028.5,414.2c11.6,0,21-9.4,21-21s-9.4-21-21-21c-11.6,0-21,9.4-21,21S1016.9,414.2,1028.5,414.2"/>
			</g>
		</g>
		<g class="st4">
			<g>
				<defs>
					<rect id="SVGID_7_" x="1208.2" y="274.5" width="60" height="50"/>
				</defs>
				<clipPath id="SVGID_8_">
					<use xlink:href="#SVGID_7_"  style="overflow:visible;"/>
				</clipPath>
				<path class="st6" d="M1238.2,323.5c11.6,0,21-9.4,21-21c0-11.6-9.4-21-21-21c-11.6,0-21,9.4-21,21
					C1217.2,314.1,1226.6,323.5,1238.2,323.5"/>
			</g>
		</g>
		<g class="st4">
			<g>
				<defs>
					<rect id="SVGID_9_" x="637.5" y="295.5" width="60" height="50"/>
				</defs>
				<clipPath id="SVGID_10_">
					<use xlink:href="#SVGID_9_"  style="overflow:visible;"/>
				</clipPath>
				<path class="st7" d="M667.5,344.5c11.6,0,21-9.4,21-21c0-11.6-9.4-21-21-21c-11.6,0-21,9.4-21,21
					C646.5,335.1,655.9,344.5,667.5,344.5"/>
			</g>
		</g>
		<g class="st4">
			<g>
				<defs>
					<rect id="SVGID_11_" x="383.7" y="297.7" width="60" height="50"/>
				</defs>
				<clipPath id="SVGID_12_">
					<use xlink:href="#SVGID_11_"  style="overflow:visible;"/>
				</clipPath>
				<path class="st8" d="M413.7,346.7c11.6,0,21-9.4,21-21c0-11.6-9.4-21-21-21c-11.6,0-21,9.4-21,21
					C392.7,337.3,402.1,346.7,413.7,346.7"/>
			</g>
		</g>
		<path class="st2" d="M1217,173.2h42.4v-42.4H1217V173.2z M1238.2,254.8c5.6,0,11.1-0.5,16.5-1.4v-21.3h-33v21.3
			C1227.1,254.3,1232.6,254.8,1238.2,254.8"/>
		<circle class="st3" cx="1238.2" cy="154.8" r="100"/>
	</g>
</g>
</svg>
