<?xml version="1.0" encoding="utf-8"?>
<!-- Generator: Adobe Illustrator 22.0.1, SVG Export Plug-In . SVG Version: 6.00 Build 0)  -->
<svg version="1.1" id="Ebene_1" xmlns="http://www.w3.org/2000/svg" xmlns:xlink="http://www.w3.org/1999/xlink" x="0px" y="0px"
	 viewBox="0 0 1540 1080" style="enable-background:new 0 0 1540 1080;" xml:space="preserve">
<g>
	<path d="M678,708.4l-0.7-2.7c-0.9,0.3-1.8,0.5-2.6,0.5c-0.9,0-1.4-0.1-1.7-0.3c-0.3-0.2-0.4-0.5-0.5-0.8c0-0.3-0.1-0.7-0.1-1.3
		v-12.8h5.7l0.4-2.9h-6.1v-5.5l-3.3,0.6l-0.4,4.9l-3.8,0.3l-0.4,2.4l4.1,0.2v12.5c0,2.2,0.3,3.7,1,4.6c0.7,0.9,2.1,1.3,4.2,1.3
		C675.4,709.2,676.7,708.9,678,708.4L678,708.4L678,708.4z M688.7,688.3c-1.2,0.6-2.2,1.2-3,1.9v-10.6L682,680v28.7h3.7v-15.3
		c0.7-0.8,1.6-1.4,2.7-2c1.1-0.5,2.2-0.8,3.2-0.8c1,0,1.7,0.4,2,1.1c0.3,0.7,0.5,1.7,0.5,3v14h3.7v-14.2c0-2.2-0.4-3.9-1.2-5.1
		c-0.8-1.2-2.2-1.8-4.3-1.8C691.1,687.5,689.9,687.8,688.7,688.3L688.7,688.3z M711,708.6c1.1-0.4,1.9-0.9,2.5-1.5
		c0.7,1.4,1.7,2.1,3.2,2.1c1.5,0,2.7-0.3,3.6-0.9l-0.6-2.3c-0.8,0.2-1.4,0.4-1.8,0.4c-0.7,0-1-0.5-1-1.4v-10c0-2.7-0.5-4.6-1.6-5.8
		c-1.1-1.1-3-1.7-5.6-1.7c-1,0-2.1,0.2-3.4,0.5c-1.3,0.3-2.3,0.7-3.1,1.2l0.9,2.6c2.1-0.7,3.9-1.1,5.4-1.1c1.5,0,2.5,0.3,3.1,0.9
		c0.5,0.6,0.8,1.7,0.8,3.3v3.2c-1.3-0.1-2.8-0.2-4.3-0.2c-1.6,0-3,0.3-4.5,1c-0.8,0.4-1.4,1-1.9,1.8c-0.5,0.8-0.7,1.8-0.7,2.9
		c0,1.7,0.5,3.1,1.6,4.2c1.1,1,2.5,1.6,4.2,1.6C708.8,709.2,710,709,711,708.6L711,708.6z M705.2,703.1c0-2.1,1.6-3.2,4.8-3.2
		c1.5,0,2.5,0.1,3.2,0.2v4.8c-1.5,1-3.2,1.5-4.9,1.5C706.3,706.3,705.2,705.2,705.2,703.1L705.2,703.1L705.2,703.1z M734.2,708.4
		l-0.7-2.7c-0.9,0.3-1.8,0.5-2.6,0.5c-0.9,0-1.4-0.1-1.7-0.3c-0.3-0.2-0.4-0.5-0.5-0.8c0-0.3-0.1-0.7-0.1-1.3v-12.8h5.7l0.4-2.9
		h-6.1v-5.5l-3.3,0.6l-0.4,4.9l-3.8,0.3l-0.4,2.4l4.1,0.2v12.5c0,2.2,0.3,3.7,1,4.6c0.7,0.9,2.1,1.3,4.2,1.3
		C731.6,709.2,732.9,708.9,734.2,708.4L734.2,708.4L734.2,708.4z M747.2,681.2v27.4h3.9v-27.4H747.2L747.2,681.2z M765.8,704.5
		c0,3.1,1.4,4.7,4.1,4.7c1.6,0,3-0.3,4.1-0.8l-0.6-2.7c-0.8,0.3-1.7,0.4-2.4,0.4c-1,0-1.5-0.5-1.5-1.6v-24.5h-3.7V704.5L765.8,704.5
		z M780.4,687.7l-3.7,0.4v20.6h3.7V687.7L780.4,687.7z M776.7,683.6c0.5,0.5,1.1,0.8,1.8,0.8c0.7,0,1.3-0.3,1.7-0.8
		c0.5-0.5,0.7-1.1,0.7-1.8c0-0.7-0.2-1.3-0.7-1.7c-0.5-0.5-1.1-0.7-1.7-0.7c-0.7,0-1.3,0.2-1.8,0.7c-0.5,0.5-0.7,1.1-0.7,1.7
		C775.9,682.5,776.2,683.1,776.7,683.6L776.7,683.6z M789.7,697.5l9,11.2h4.5c-1-1.2-2.6-3.1-4.8-5.7c-2.2-2.6-3.8-4.5-4.8-5.7
		l8.4-9.1h-4.6l-7.8,9.1v-17.5l-3.7,0.3v28.7h3.7V697.5L789.7,697.5z M819.6,707.5l-0.9-2.5c-1.7,0.8-3.5,1.1-5.4,1.1
		c-1.9,0-3.3-0.7-4.3-2.2c-1-1.4-1.5-3.3-1.5-5.7h12.1c0.4-1.5,0.6-2.7,0.6-3.7c0-2.1-0.6-3.8-1.8-5.1c-1.2-1.3-3-1.9-5.3-1.9
		c-2.8,0-4.9,1-6.5,3s-2.4,4.6-2.4,7.7c0,3.2,0.7,5.8,2.2,7.9c1.5,2.1,3.8,3.1,6.8,3.1C815.4,709.2,817.6,708.6,819.6,707.5
		L819.6,707.5L819.6,707.5z M816.7,695.6l-8.9-0.1c0.2-0.9,0.6-1.9,1.2-3c0.4-0.6,0.9-1,1.6-1.4c0.7-0.4,1.6-0.6,2.6-0.6
		s1.9,0.4,2.5,1.3c0.6,0.8,0.9,2,0.9,3.5V695.6L816.7,695.6z M825.5,706.2c1.3,1.9,3,2.8,5.3,2.8c2.3,0,4.3-0.7,6-2l0.5,2h2.9v-29
		h-3.7v8.5c-1.1-0.6-2.4-0.9-3.9-0.9c-6,0-9,3.7-9,11.2C823.7,701.8,824.3,704.4,825.5,706.2L825.5,706.2z M836.6,691.3v13
		c-1.3,1.2-2.9,1.8-4.9,1.8c-2.8,0-4.2-2.5-4.2-7.4c0-5.4,1.7-8.1,5.1-8.1C834.1,690.6,835.4,690.8,836.6,691.3L836.6,691.3
		L836.6,691.3z M865,708.4l-0.7-2.7c-0.9,0.3-1.8,0.5-2.6,0.5c-0.9,0-1.4-0.1-1.7-0.3c-0.3-0.2-0.4-0.5-0.5-0.8
		c0-0.3-0.1-0.7-0.1-1.3v-12.8h5.7l0.4-2.9h-6.1v-5.5l-3.3,0.6l-0.4,4.9l-3.8,0.3l-0.4,2.4l4.1,0.2v12.5c0,2.2,0.3,3.7,1,4.6
		c0.7,0.9,2.1,1.3,4.2,1.3C862.4,709.2,863.7,708.9,865,708.4L865,708.4L865,708.4z M875.7,688.3c-1.2,0.6-2.2,1.2-3,1.9v-10.6
		l-3.7,0.3v28.7h3.7v-15.3c0.7-0.8,1.6-1.4,2.7-2c1.1-0.5,2.2-0.8,3.2-0.8s1.7,0.4,2,1.1c0.3,0.7,0.5,1.7,0.5,3v14h3.7v-14.2
		c0-2.2-0.4-3.9-1.2-5.1c-0.8-1.2-2.2-1.8-4.3-1.8C878.1,687.5,876.9,687.8,875.7,688.3L875.7,688.3z M904.7,707.5l-0.9-2.5
		c-1.7,0.8-3.5,1.1-5.4,1.1c-1.9,0-3.3-0.7-4.3-2.2c-1-1.4-1.5-3.3-1.5-5.7h12.1c0.4-1.5,0.6-2.7,0.6-3.7c0-2.1-0.6-3.8-1.8-5.1
		c-1.2-1.3-3-1.9-5.3-1.9c-2.8,0-4.9,1-6.5,3s-2.4,4.6-2.4,7.7c0,3.2,0.7,5.8,2.2,7.9c1.5,2.1,3.8,3.1,6.8,3.1
		C900.6,709.2,902.7,708.6,904.7,707.5L904.7,707.5L904.7,707.5z M901.8,695.6l-8.9-0.1c0.2-0.9,0.6-1.9,1.2-3
		c0.4-0.6,0.9-1,1.6-1.4c0.7-0.4,1.6-0.6,2.6-0.6c1.1,0,1.9,0.4,2.5,1.3c0.6,0.8,0.9,2,0.9,3.5V695.6L901.8,695.6z M933.8,693.2
		c0.7-0.7,1.6-1.3,2.7-1.8c1.1-0.5,2.1-0.8,3-0.8c1,0,1.6,0.3,1.9,1c0.3,0.7,0.5,1.7,0.5,3v14h3.7v-14.2c0-4.6-1.8-6.9-5.5-6.9
		c-1.1,0-2.4,0.3-3.7,0.9c-1.3,0.6-2.4,1.3-3.2,2.1c-0.8-2-2.4-3-4.9-3c-1.2,0-2.4,0.3-3.6,0.9c-1.2,0.6-2.2,1.3-3,2l-0.4-2.5h-3.1
		v20.7h3.7v-15.3c0.7-0.8,1.5-1.4,2.6-2c1.1-0.5,2.1-0.8,3.1-0.8s1.7,0.4,2,1.1c0.3,0.7,0.5,1.7,0.5,3v14h3.7v-14.1
		C933.9,694,933.9,693.5,933.8,693.2L933.8,693.2L933.8,693.2z M967.3,698.3c0-3.8-0.8-6.5-2.3-8.2c-1.5-1.7-3.6-2.6-6.1-2.6
		c-2.6,0-4.7,0.9-6.3,2.6c-1.6,1.8-2.4,4.5-2.4,8.3c0,3.8,0.8,6.5,2.3,8.2c1.5,1.7,3.6,2.6,6.1,2.6c2.6,0,4.6-0.9,6.2-2.6
		C966.5,704.8,967.3,702,967.3,698.3L967.3,698.3z M962.3,692.2c0.8,1.1,1.2,3.1,1.2,6c0,2.9-0.5,4.9-1.4,6.1
		c-0.9,1.2-2,1.8-3.4,1.8c-3.2,0-4.8-2.6-4.8-7.8c0-5.2,1.6-7.8,4.8-7.8C960.3,690.5,961.5,691.1,962.3,692.2L962.3,692.2z
		 M970.7,707.7c0.6,0.4,1.4,0.8,2.6,1.1c1.2,0.3,2.3,0.5,3.5,0.5c2.5,0,4.4-0.6,5.7-1.9c1.3-1.3,2-2.8,2-4.6c0-1.2-0.3-2.3-1-3.1
		c-0.7-0.8-1.5-1.4-2.5-1.8c-1-0.4-1.9-0.8-2.9-1.1c-1-0.3-1.8-0.8-2.5-1.3c-0.7-0.5-1-1.2-1-2.1c0-0.8,0.3-1.5,1-2
		c0.7-0.5,1.7-0.7,3-0.7c1.3,0,2.8,0.3,4.4,0.8l0.9-2.7c-1.4-0.8-3.2-1.2-5.4-1.2c-2.2,0-4,0.6-5.3,1.7c-1.3,1.1-2,2.6-2,4.4
		c0,1.3,0.3,2.3,1,3.1c0.7,0.8,1.5,1.4,2.5,1.8c1,0.4,1.9,0.7,2.9,1.1c1,0.3,1.8,0.8,2.4,1.4c0.7,0.6,1,1.3,1,2.1
		c0,0.8-0.3,1.5-1,2.1c-0.7,0.6-1.8,0.8-3.3,0.8c-1.5,0-3.2-0.4-5-1.2L970.7,707.7L970.7,707.7z M1000,708.4l-0.7-2.7
		c-0.9,0.3-1.7,0.5-2.6,0.5s-1.4-0.1-1.7-0.3c-0.3-0.2-0.4-0.5-0.5-0.8c0-0.3-0.1-0.7-0.1-1.3v-12.8h5.7l0.4-2.9h-6.1v-5.5l-3.3,0.6
		l-0.4,4.9l-3.8,0.3l-0.4,2.4l4.1,0.2v12.5c0,2.2,0.3,3.7,1,4.6c0.7,0.9,2.1,1.3,4.2,1.3C997.4,709.2,998.7,708.9,1000,708.4
		L1000,708.4L1000,708.4z M1003.3,706.3c0,0.7,0.2,1.3,0.7,1.8c0.5,0.5,1.1,0.8,1.8,0.8c0.7,0,1.3-0.3,1.8-0.8
		c0.5-0.5,0.7-1.1,0.7-1.8c0-0.7-0.2-1.3-0.7-1.8c-0.5-0.5-1.1-0.7-1.8-0.7c-0.7,0-1.3,0.2-1.8,0.7
		C1003.5,705,1003.3,705.6,1003.3,706.3L1003.3,706.3z"/>
	<path d="M667.2,617.2v27.4h3.9v-27.4H667.2L667.2,617.2z M693.4,644.5c1.1-0.5,2.1-1,2.9-1.7l0.4,2.2h3v-21h-3.7v16.1
		c-0.7,0.6-1.5,1.1-2.5,1.4c-1,0.3-2.1,0.5-3.2,0.5c-1.1,0-1.8-0.3-2.2-1c-0.4-0.6-0.5-1.6-0.5-3v-14.1H684v14.2
		c0,2.3,0.4,4,1.3,5.2s2.4,1.8,4.7,1.8C691.1,645.2,692.3,644.9,693.4,644.5L693.4,644.5z M703.2,643.7c0.6,0.4,1.4,0.8,2.6,1.1
		c1.2,0.3,2.3,0.5,3.5,0.5c2.5,0,4.4-0.6,5.7-1.9c1.3-1.3,2-2.8,2-4.6c0-1.2-0.3-2.3-1-3.1c-0.7-0.8-1.5-1.4-2.5-1.8
		c-1-0.4-1.9-0.8-2.9-1.1c-1-0.3-1.8-0.8-2.5-1.3c-0.7-0.5-1-1.2-1-2.1c0-0.8,0.3-1.5,1-2s1.7-0.7,3-0.7c1.3,0,2.8,0.3,4.4,0.8
		l0.9-2.7c-1.4-0.8-3.2-1.2-5.4-1.2c-2.2,0-4,0.6-5.3,1.7c-1.3,1.1-2,2.6-2,4.4c0,1.3,0.3,2.3,1,3.1c0.7,0.8,1.5,1.4,2.5,1.8
		c1,0.4,1.9,0.7,2.9,1.1c1,0.3,1.8,0.8,2.4,1.4c0.7,0.6,1,1.3,1,2.1s-0.3,1.5-1,2.1s-1.8,0.8-3.3,0.8c-1.5,0-3.2-0.4-5-1.2
		L703.2,643.7L703.2,643.7z M735,643.5l-0.9-2.5c-1.7,0.8-3.5,1.1-5.4,1.1c-1.9,0-3.3-0.7-4.3-2.2c-1-1.4-1.5-3.3-1.5-5.7h12.1
		c0.4-1.5,0.6-2.7,0.6-3.7c0-2.1-0.6-3.8-1.8-5.1c-1.2-1.3-3-1.9-5.3-1.9c-2.8,0-4.9,1-6.5,3c-1.6,2-2.4,4.6-2.4,7.7
		s0.7,5.8,2.2,7.9c1.5,2.1,3.8,3.1,6.8,3.1C730.9,645.2,733,644.6,735,643.5L735,643.5L735,643.5z M732.2,631.6l-8.9-0.1
		c0.2-0.9,0.6-1.9,1.2-3c0.4-0.6,0.9-1,1.6-1.4c0.7-0.4,1.6-0.6,2.6-0.6c1.1,0,1.9,0.4,2.5,1.3c0.6,0.8,0.9,2,0.9,3.5V631.6
		L732.2,631.6z M740.2,642.2c1.3,1.9,3,2.8,5.3,2.8c2.3,0,4.3-0.7,6-2l0.5,2h2.9v-29h-3.7v8.5c-1.1-0.6-2.4-0.9-3.9-0.9
		c-6,0-9,3.7-9,11.2C738.3,637.8,738.9,640.4,740.2,642.2L740.2,642.2z M751.2,627.3v13c-1.3,1.2-2.9,1.8-4.9,1.8
		c-2.8,0-4.2-2.5-4.2-7.4c0-5.4,1.7-8.1,5.1-8.1C748.7,626.6,750.1,626.8,751.2,627.3L751.2,627.3L751.2,627.3z M778,644.4l-0.7-2.7
		c-0.9,0.3-1.7,0.5-2.6,0.5s-1.4-0.1-1.7-0.3c-0.3-0.2-0.4-0.5-0.5-0.8c0-0.3-0.1-0.7-0.1-1.3v-12.8h5.7l0.4-2.9h-6.1v-5.5l-3.3,0.6
		l-0.4,4.9l-3.8,0.3l-0.4,2.4l4.1,0.2v12.5c0,2.2,0.3,3.7,1,4.6c0.7,0.9,2.1,1.3,4.2,1.3C775.4,645.2,776.7,644.9,778,644.4
		L778,644.4L778,644.4z M787.8,624.3c-1.2,0.6-2.2,1.2-3,1.9v-10.6l-3.7,0.3v28.7h3.7v-15.3c0.7-0.8,1.6-1.4,2.7-2
		c1.1-0.5,2.2-0.8,3.2-0.8c1,0,1.7,0.4,2,1.1c0.3,0.7,0.5,1.7,0.5,3v14h3.7v-14.2c0-2.2-0.4-3.9-1.2-5.1c-0.8-1.2-2.2-1.8-4.3-1.8
		C790.2,623.5,789.1,623.8,787.8,624.3L787.8,624.3z M816,643.5l-0.9-2.5c-1.7,0.8-3.5,1.1-5.4,1.1s-3.3-0.7-4.3-2.2
		c-1-1.4-1.5-3.3-1.5-5.7h12.1c0.4-1.5,0.6-2.7,0.6-3.7c0-2.1-0.6-3.8-1.8-5.1c-1.2-1.3-3-1.9-5.3-1.9c-2.8,0-4.9,1-6.5,3
		c-1.6,2-2.4,4.6-2.4,7.7s0.7,5.8,2.2,7.9c1.5,2.1,3.8,3.1,6.8,3.1C811.9,645.2,814.1,644.6,816,643.5L816,643.5L816,643.5z
		 M813.2,631.6l-8.9-0.1c0.2-0.9,0.6-1.9,1.2-3c0.4-0.6,0.9-1,1.6-1.4c0.7-0.4,1.6-0.6,2.6-0.6c1.1,0,1.9,0.4,2.5,1.3
		c0.6,0.8,0.9,2,0.9,3.5V631.6L813.2,631.6z M843.5,629.2c0.7-0.7,1.6-1.3,2.7-1.8c1.1-0.5,2.1-0.8,3-0.8s1.6,0.3,1.9,1
		c0.3,0.7,0.5,1.7,0.5,3v14h3.7v-14.2c0-4.6-1.8-6.9-5.5-6.9c-1.1,0-2.4,0.3-3.7,0.9c-1.3,0.6-2.4,1.3-3.2,2.1c-0.8-2-2.4-3-4.9-3
		c-1.2,0-2.4,0.3-3.6,0.9c-1.2,0.6-2.2,1.3-3,2l-0.4-2.5H828v20.7h3.7v-15.3c0.7-0.8,1.5-1.4,2.6-2c1.1-0.5,2.1-0.8,3.1-0.8
		c1,0,1.7,0.4,2,1.1c0.3,0.7,0.5,1.7,0.5,3v14h3.7v-14.1C843.6,630,843.6,629.5,843.5,629.2L843.5,629.2L843.5,629.2z M876.2,634.3
		c0-3.8-0.8-6.5-2.3-8.2c-1.5-1.7-3.6-2.6-6.1-2.6c-2.6,0-4.7,0.9-6.3,2.6c-1.6,1.8-2.4,4.5-2.4,8.3s0.8,6.5,2.3,8.2
		s3.6,2.6,6.1,2.6c2.6,0,4.6-0.9,6.2-2.6C875.4,640.8,876.2,638,876.2,634.3L876.2,634.3z M871.2,628.2c0.8,1.1,1.2,3.1,1.2,6
		c0,2.9-0.5,4.9-1.4,6.2c-0.9,1.2-2,1.8-3.4,1.8c-3.2,0-4.8-2.6-4.8-7.8c0-5.2,1.6-7.8,4.8-7.8C869.2,626.5,870.4,627.1,871.2,628.2
		L871.2,628.2z M878.8,643.7c0.6,0.4,1.4,0.8,2.6,1.1c1.2,0.3,2.3,0.5,3.5,0.5c2.5,0,4.4-0.6,5.7-1.9c1.3-1.3,2-2.8,2-4.6
		c0-1.2-0.3-2.3-1-3.1c-0.7-0.8-1.5-1.4-2.5-1.8c-1-0.4-1.9-0.8-2.9-1.1c-1-0.3-1.8-0.8-2.5-1.3c-0.7-0.5-1-1.2-1-2.1
		c0-0.8,0.3-1.5,1-2s1.7-0.7,3-0.7c1.3,0,2.8,0.3,4.4,0.8l0.9-2.7c-1.4-0.8-3.2-1.2-5.4-1.2c-2.2,0-4,0.6-5.3,1.7
		c-1.3,1.1-2,2.6-2,4.4c0,1.3,0.3,2.3,1,3.1c0.7,0.8,1.5,1.4,2.5,1.8c1,0.4,1.9,0.7,2.9,1.1c1,0.3,1.8,0.8,2.4,1.4
		c0.7,0.6,1,1.3,1,2.1s-0.3,1.5-1,2.1c-0.7,0.6-1.8,0.8-3.3,0.8c-1.5,0-3.2-0.4-5-1.2L878.8,643.7L878.8,643.7z M907.3,644.4
		l-0.7-2.7c-0.9,0.3-1.8,0.5-2.6,0.5c-0.9,0-1.4-0.1-1.7-0.3c-0.3-0.2-0.4-0.5-0.5-0.8c0-0.3-0.1-0.7-0.1-1.3v-12.8h5.7l0.4-2.9
		h-6.1v-5.5l-3.3,0.6l-0.4,4.9l-3.8,0.3l-0.4,2.4l4.1,0.2v12.5c0,2.2,0.3,3.7,1,4.6c0.7,0.9,2.1,1.3,4.2,1.3
		C904.7,645.2,906,644.9,907.3,644.4L907.3,644.4L907.3,644.4z M934.4,634.3c0-3.8-0.8-6.5-2.3-8.2c-1.5-1.7-3.6-2.6-6.1-2.6
		c-2.6,0-4.7,0.9-6.3,2.6c-1.6,1.8-2.4,4.5-2.4,8.3s0.8,6.5,2.3,8.2s3.6,2.6,6.2,2.6c2.6,0,4.6-0.9,6.2-2.6
		C933.6,640.8,934.4,638,934.4,634.3L934.4,634.3z M929.4,628.2c0.8,1.1,1.2,3.1,1.2,6c0,2.9-0.5,4.9-1.4,6.2
		c-0.9,1.2-2,1.8-3.4,1.8c-3.2,0-4.8-2.6-4.8-7.8c0-5.2,1.6-7.8,4.8-7.8C927.4,626.5,928.6,627.1,929.4,628.2L929.4,628.2z
		 M939.7,623.9l-3.4,0.3l-0.4,2.4l3.8,0.2v25.1l3.7,0.4v-25.5h5.2l0.4-2.9h-5.6v-1.6c0-1.5,0.3-2.5,0.8-3.1c0.5-0.6,1.6-0.9,3.2-0.9
		c1.6,0,2.9,0.1,4,0.4l0.8-2.9c-1.7-0.5-3.4-0.7-4.9-0.7c-2.8,0-4.8,0.6-5.9,1.7c-1.1,1.1-1.7,3-1.7,5.6V623.9L939.7,623.9z
		 M962.8,644.4l-0.7-2.7c-0.9,0.3-1.7,0.5-2.6,0.5c-0.9,0-1.4-0.1-1.7-0.3c-0.3-0.2-0.4-0.5-0.5-0.8c0-0.3-0.1-0.7-0.1-1.3v-12.8
		h5.7l0.4-2.9h-6.1v-5.5L954,619l-0.4,4.9l-3.8,0.3l-0.4,2.4l4.1,0.2v12.5c0,2.2,0.3,3.7,1,4.6c0.7,0.9,2.1,1.3,4.2,1.3
		C960.2,645.2,961.6,644.9,962.8,644.4L962.8,644.4L962.8,644.4z M980.3,643.5l-0.9-2.5c-1.7,0.8-3.5,1.1-5.4,1.1
		c-1.9,0-3.3-0.7-4.3-2.2c-1-1.4-1.5-3.3-1.5-5.7h12.1c0.4-1.5,0.6-2.7,0.6-3.7c0-2.1-0.6-3.8-1.8-5.1c-1.2-1.3-3-1.9-5.3-1.9
		c-2.8,0-4.9,1-6.5,3c-1.6,2-2.4,4.6-2.4,7.7s0.7,5.8,2.2,7.9c1.5,2.1,3.8,3.1,6.8,3.1C976.2,645.2,978.3,644.6,980.3,643.5
		L980.3,643.5L980.3,643.5z M977.4,631.6l-8.9-0.1c0.2-0.9,0.6-1.9,1.2-3c0.4-0.6,0.9-1,1.6-1.4s1.6-0.6,2.6-0.6
		c1.1,0,1.9,0.4,2.5,1.3c0.6,0.8,0.9,2,0.9,3.5V631.6L977.4,631.6z M999.1,625.3c-0.8-1.2-2.2-1.8-4.3-1.8c-1.2,0-2.5,0.3-3.8,0.9
		c-1.3,0.6-2.3,1.3-3.1,2l-0.4-2.5h-3.1v20.7h3.7v-15.3c0.7-0.8,1.6-1.4,2.7-1.9c1.2-0.5,2.2-0.8,3.2-0.8c1,0,1.7,0.4,2,1.1
		c0.3,0.7,0.5,1.7,0.5,3v14h3.7v-14.2C1000.3,628.2,999.9,626.5,999.1,625.3L999.1,625.3z M1008.3,639.9h-3.9c0.5,1.1,0.7,2,0.7,3
		c0,2.1-1.1,4.5-3.4,7.1h3.4c2.4-2.2,3.6-4.8,3.6-7.7C1008.8,641.4,1008.6,640.6,1008.3,639.9L1008.3,639.9L1008.3,639.9z
		 M1028.8,644.6c1.1-0.4,1.9-0.9,2.5-1.5c0.7,1.4,1.7,2.1,3.2,2.1c1.5,0,2.7-0.3,3.6-0.9l-0.6-2.3c-0.8,0.2-1.4,0.4-1.8,0.4
		c-0.7,0-1-0.5-1-1.4v-10c0-2.7-0.5-4.6-1.6-5.8c-1.1-1.1-3-1.7-5.6-1.7c-1,0-2.1,0.2-3.4,0.5c-1.3,0.3-2.3,0.7-3.1,1.2l0.9,2.6
		c2.1-0.7,3.9-1.1,5.4-1.1c1.5,0,2.5,0.3,3.1,0.9c0.5,0.6,0.8,1.7,0.8,3.3v3.2c-1.3-0.1-2.8-0.2-4.3-0.2c-1.6,0-3.1,0.3-4.5,1
		c-0.8,0.4-1.4,1-1.9,1.8c-0.5,0.8-0.7,1.8-0.7,2.9c0,1.8,0.5,3.1,1.6,4.2c1.1,1,2.5,1.6,4.2,1.6
		C1026.5,645.2,1027.7,645,1028.8,644.6L1028.8,644.6z M1023,639.1c0-2.1,1.6-3.2,4.8-3.2c1.5,0,2.5,0.1,3.2,0.2v4.8
		c-1.5,1-3.2,1.5-4.9,1.5C1024,642.3,1023,641.2,1023,639.1L1023,639.1L1023,639.1z M1038.8,643.7c0.6,0.4,1.4,0.8,2.6,1.1
		c1.2,0.3,2.3,0.5,3.5,0.5c2.5,0,4.4-0.6,5.7-1.9c1.3-1.3,2-2.8,2-4.6c0-1.2-0.3-2.3-1-3.1c-0.7-0.8-1.5-1.4-2.5-1.8
		c-1-0.4-1.9-0.8-2.9-1.1c-1-0.3-1.8-0.8-2.5-1.3c-0.7-0.5-1-1.2-1-2.1c0-0.8,0.3-1.5,1-2c0.7-0.5,1.7-0.7,3-0.7
		c1.3,0,2.8,0.3,4.4,0.8l0.9-2.7c-1.4-0.8-3.2-1.2-5.4-1.2c-2.2,0-4,0.6-5.3,1.7c-1.3,1.1-2,2.6-2,4.4c0,1.3,0.3,2.3,1,3.1
		s1.5,1.4,2.5,1.8c1,0.4,1.9,0.7,2.9,1.1c1,0.3,1.8,0.8,2.4,1.4c0.7,0.6,1,1.3,1,2.1s-0.4,1.5-1.1,2.1s-1.8,0.8-3.3,0.8
		s-3.2-0.4-5-1.2L1038.8,643.7L1038.8,643.7z M1078.5,644.6h3.8l5.4-20.7h-3.7l-3.7,16.6l-4.1-16.6l-3.4,0.2l-4.1,16.4l-3.7-16.6
		h-3.7l5.4,20.7h3.8l4-16.2L1078.5,644.6L1078.5,644.6z M1104.8,643.5l-0.9-2.5c-1.7,0.8-3.5,1.1-5.4,1.1s-3.3-0.7-4.3-2.2
		c-1-1.4-1.5-3.3-1.5-5.7h12.1c0.4-1.5,0.6-2.7,0.6-3.7c0-2.1-0.6-3.8-1.8-5.1c-1.2-1.3-3-1.9-5.3-1.9c-2.8,0-4.9,1-6.5,3
		c-1.6,2-2.4,4.6-2.4,7.7s0.7,5.8,2.2,7.9c1.5,2.1,3.8,3.1,6.8,3.1C1100.7,645.2,1102.9,644.6,1104.8,643.5L1104.8,643.5
		L1104.8,643.5z M1102,631.6l-8.9-0.1c0.2-0.9,0.6-1.9,1.2-3c0.4-0.6,0.9-1,1.6-1.4c0.7-0.4,1.6-0.6,2.6-0.6c1.1,0,1.9,0.4,2.5,1.3
		c0.6,0.8,0.9,2,0.9,3.5V631.6L1102,631.6z M1109.1,640.5c0,3.1,1.4,4.7,4.1,4.7c1.6,0,3-0.3,4.1-0.8l-0.6-2.7
		c-0.8,0.3-1.7,0.4-2.4,0.4c-1,0-1.5-0.5-1.5-1.6v-24.5h-3.7V640.5L1109.1,640.5z M1119.1,640.5c0,3.1,1.4,4.7,4.1,4.7
		c1.6,0,3-0.3,4.1-0.8l-0.6-2.7c-0.9,0.3-1.7,0.4-2.4,0.4c-1,0-1.5-0.5-1.5-1.6v-24.5h-3.7V640.5L1119.1,640.5z M1144.8,644.6
		c1.1-0.4,1.9-0.9,2.5-1.5c0.7,1.4,1.7,2.1,3.2,2.1c1.5,0,2.7-0.3,3.6-0.9l-0.6-2.3c-0.8,0.2-1.4,0.4-1.8,0.4c-0.7,0-1-0.5-1-1.4
		v-10c0-2.7-0.6-4.6-1.6-5.8c-1.1-1.1-3-1.7-5.6-1.7c-1,0-2.1,0.2-3.4,0.5c-1.3,0.3-2.3,0.7-3.1,1.2l0.9,2.6
		c2.1-0.7,3.9-1.1,5.4-1.1s2.5,0.3,3.1,0.9c0.5,0.6,0.8,1.7,0.8,3.3v3.2c-1.3-0.1-2.8-0.2-4.3-0.2c-1.6,0-3,0.3-4.5,1
		c-0.8,0.4-1.4,1-1.9,1.8c-0.5,0.8-0.7,1.8-0.7,2.9c0,1.8,0.5,3.1,1.6,4.2c1.1,1,2.5,1.6,4.2,1.6
		C1142.6,645.2,1143.7,645,1144.8,644.6L1144.8,644.6z M1139,639.1c0-2.1,1.6-3.2,4.8-3.2c1.5,0,2.5,0.1,3.2,0.2v4.8
		c-1.5,1-3.2,1.5-4.9,1.5C1140.1,642.3,1139,641.2,1139,639.1L1139,639.1L1139,639.1z M1154.9,643.7c0.6,0.4,1.4,0.8,2.6,1.1
		c1.2,0.3,2.3,0.5,3.5,0.5c2.5,0,4.4-0.6,5.7-1.9c1.3-1.3,2-2.8,2-4.6c0-1.2-0.3-2.3-1-3.1c-0.7-0.8-1.5-1.4-2.5-1.8
		c-1-0.4-1.9-0.8-2.9-1.1c-1-0.3-1.8-0.8-2.5-1.3c-0.7-0.5-1-1.2-1-2.1c0-0.8,0.3-1.5,1-2c0.6-0.5,1.6-0.7,3-0.7
		c1.3,0,2.8,0.3,4.4,0.8l0.9-2.7c-1.4-0.8-3.2-1.2-5.4-1.2c-2.2,0-4,0.6-5.3,1.7c-1.3,1.1-2,2.6-2,4.4c0,1.3,0.3,2.3,1,3.1
		c0.7,0.8,1.5,1.4,2.5,1.8c1,0.4,1.9,0.7,2.9,1.1c1,0.3,1.8,0.8,2.4,1.4c0.7,0.6,1,1.3,1,2.1s-0.3,1.5-1.1,2.1
		c-0.7,0.6-1.8,0.8-3.3,0.8s-3.2-0.4-5-1.2L1154.9,643.7L1154.9,643.7z M1190.5,644.4l-0.7-2.7c-0.9,0.3-1.8,0.5-2.6,0.5
		c-0.9,0-1.4-0.1-1.7-0.3c-0.3-0.2-0.4-0.5-0.4-0.8c0-0.3-0.1-0.7-0.1-1.3v-12.8h5.7l0.4-2.9h-6.1v-5.5l-3.3,0.6l-0.4,4.9l-3.8,0.3
		l-0.4,2.4l4.1,0.2v12.5c0,2.2,0.3,3.7,1,4.6c0.7,0.9,2.1,1.3,4.2,1.3C1187.9,645.2,1189.2,644.9,1190.5,644.4L1190.5,644.4
		L1190.5,644.4z M1200.3,624.3c-1.2,0.6-2.2,1.2-3,1.9v-10.6l-3.7,0.3v28.7h3.7v-15.3c0.7-0.8,1.6-1.4,2.7-2
		c1.1-0.5,2.2-0.8,3.2-0.8c1,0,1.7,0.4,2,1.1c0.3,0.7,0.5,1.7,0.5,3v14h3.7v-14.2c0-2.2-0.4-3.9-1.2-5.1c-0.8-1.2-2.2-1.8-4.3-1.8
		C1202.7,623.5,1201.6,623.8,1200.3,624.3L1200.3,624.3z M1228.5,643.5l-0.9-2.5c-1.7,0.8-3.5,1.1-5.4,1.1s-3.3-0.7-4.3-2.2
		c-1-1.4-1.5-3.3-1.5-5.7h12c0.4-1.5,0.6-2.7,0.6-3.7c0-2.1-0.6-3.8-1.8-5.1c-1.2-1.3-3-1.9-5.3-1.9c-2.8,0-4.9,1-6.5,3
		c-1.6,2-2.4,4.6-2.4,7.7s0.8,5.8,2.2,7.9c1.5,2.1,3.8,3.1,6.8,3.1C1224.4,645.2,1226.6,644.6,1228.5,643.5L1228.5,643.5
		L1228.5,643.5z M1225.7,631.6l-8.9-0.1c0.2-0.9,0.6-1.9,1.2-3c0.4-0.6,0.9-1,1.6-1.4c0.7-0.4,1.6-0.6,2.6-0.6
		c1.1,0,1.9,0.4,2.5,1.3c0.6,0.8,0.9,2,0.9,3.5V631.6L1225.7,631.6z M1256.7,634.3c0-3.8-0.8-6.5-2.3-8.2c-1.5-1.7-3.6-2.6-6.1-2.6
		c-2.6,0-4.7,0.9-6.2,2.6c-1.6,1.8-2.4,4.5-2.4,8.3s0.8,6.5,2.3,8.2c1.5,1.7,3.6,2.6,6.1,2.6c2.6,0,4.6-0.9,6.2-2.6
		C1255.9,640.8,1256.7,638,1256.7,634.3L1256.7,634.3z M1251.7,628.2c0.8,1.1,1.2,3.1,1.2,6c0,2.9-0.5,4.9-1.4,6.2
		c-0.9,1.2-2.1,1.8-3.4,1.8c-3.2,0-4.8-2.6-4.8-7.8c0-5.2,1.6-7.8,4.8-7.8C1249.7,626.5,1250.9,627.1,1251.7,628.2L1251.7,628.2z
		 M1275.1,625.3c-0.8-1.2-2.2-1.8-4.3-1.8c-1.2,0-2.4,0.3-3.8,0.9c-1.3,0.6-2.3,1.3-3.1,2l-0.4-2.5h-3.1v20.7h3.7v-15.3
		c0.7-0.8,1.6-1.4,2.7-1.9c1.2-0.5,2.2-0.8,3.2-0.8c1,0,1.7,0.4,2,1.1c0.3,0.7,0.5,1.7,0.5,3v14h3.7v-14.2
		C1276.3,628.2,1275.9,626.5,1275.1,625.3L1275.1,625.3z M1295.5,643.5l-0.9-2.5c-1.7,0.8-3.5,1.1-5.4,1.1c-1.9,0-3.3-0.7-4.3-2.2
		c-1-1.4-1.5-3.3-1.5-5.7h12.1c0.4-1.5,0.6-2.7,0.6-3.7c0-2.1-0.6-3.8-1.8-5.1c-1.2-1.3-3-1.9-5.3-1.9c-2.8,0-4.9,1-6.5,3
		c-1.6,2-2.4,4.6-2.4,7.7s0.7,5.8,2.2,7.9c1.5,2.1,3.8,3.1,6.8,3.1C1291.4,645.2,1293.5,644.6,1295.5,643.5L1295.5,643.5
		L1295.5,643.5z M1292.7,631.6l-8.9-0.1c0.2-0.9,0.6-1.9,1.2-3c0.4-0.6,0.9-1,1.6-1.4c0.7-0.4,1.6-0.6,2.6-0.6
		c1.1,0,1.9,0.4,2.5,1.3c0.6,0.8,0.9,2,0.9,3.5V631.6L1292.7,631.6z M1298.4,643.7c0.6,0.4,1.4,0.8,2.6,1.1c1.2,0.3,2.3,0.5,3.5,0.5
		c2.5,0,4.4-0.6,5.7-1.9c1.3-1.3,2-2.8,2-4.6c0-1.2-0.3-2.3-1-3.1c-0.7-0.8-1.5-1.4-2.5-1.8c-1-0.4-1.9-0.8-2.9-1.1
		s-1.8-0.8-2.5-1.3c-0.7-0.5-1-1.2-1-2.1c0-0.8,0.3-1.5,1-2c0.7-0.5,1.7-0.7,3-0.7c1.3,0,2.8,0.3,4.4,0.8l0.9-2.7
		c-1.4-0.8-3.2-1.2-5.4-1.2s-4,0.6-5.3,1.7c-1.3,1.1-2,2.6-2,4.4c0,1.3,0.3,2.3,1,3.1s1.5,1.4,2.5,1.8c1,0.4,1.9,0.7,2.9,1.1
		c1,0.3,1.8,0.8,2.4,1.4c0.7,0.6,1,1.3,1,2.1s-0.3,1.5-1,2.1s-1.8,0.8-3.3,0.8s-3.2-0.4-5-1.2L1298.4,643.7L1298.4,643.7z"/>
	<path d="M682.7,580.6h4l-9-27.4h-4.4l-9,27.4h4l2.3-7.1h9.6L682.7,580.6L682.7,580.6z M671.6,570.5l3.9-13.5l3.9,13.5H671.6
		L671.6,570.5z M688.5,579.7c0.6,0.4,1.4,0.8,2.6,1.1c1.2,0.3,2.3,0.5,3.5,0.5c2.5,0,4.4-0.6,5.7-1.9c1.3-1.3,2-2.8,2-4.6
		c0-1.2-0.3-2.3-1-3.1c-0.7-0.8-1.5-1.4-2.5-1.8s-1.9-0.8-2.9-1.1c-1-0.3-1.8-0.8-2.5-1.3c-0.7-0.5-1-1.2-1-2.1c0-0.8,0.3-1.5,1-2
		c0.7-0.5,1.7-0.7,3-0.7c1.3,0,2.8,0.3,4.4,0.8l0.9-2.7c-1.4-0.8-3.2-1.2-5.4-1.2c-2.2,0-4,0.6-5.3,1.7c-1.3,1.1-2,2.6-2,4.4
		c0,1.3,0.3,2.3,1,3.1c0.7,0.8,1.5,1.4,2.5,1.8c1,0.4,1.9,0.7,2.9,1.1c1,0.3,1.8,0.8,2.4,1.4c0.7,0.6,1,1.3,1,2.1s-0.3,1.5-1,2.1
		c-0.7,0.6-1.8,0.8-3.3,0.8s-3.2-0.4-5-1.2L688.5,579.7L688.5,579.7z M723.1,580.6c1.1-0.4,1.9-0.9,2.5-1.5c0.7,1.4,1.7,2.1,3.2,2.1
		c1.5,0,2.7-0.3,3.6-0.9l-0.6-2.3c-0.8,0.2-1.4,0.4-1.8,0.4c-0.7,0-1-0.5-1-1.4v-10c0-2.7-0.5-4.6-1.6-5.8c-1.1-1.1-3-1.7-5.6-1.7
		c-1,0-2.1,0.2-3.4,0.5c-1.3,0.3-2.3,0.7-3.1,1.2l0.9,2.6c2.1-0.7,3.9-1.1,5.4-1.1c1.5,0,2.5,0.3,3.1,0.9c0.5,0.6,0.8,1.7,0.8,3.3
		v3.2c-1.3-0.1-2.8-0.2-4.3-0.2c-1.6,0-3,0.3-4.5,1c-0.8,0.4-1.4,1-1.9,1.8c-0.5,0.8-0.7,1.8-0.7,2.9c0,1.8,0.5,3.1,1.6,4.2
		c1.1,1,2.5,1.6,4.2,1.6C720.9,581.2,722,581,723.1,580.6L723.1,580.6z M717.3,575.1c0-2.1,1.6-3.2,4.8-3.2c1.5,0,2.5,0.1,3.2,0.2
		v4.8c-1.5,1-3.2,1.5-4.9,1.5C718.4,578.3,717.3,577.2,717.3,575.1L717.3,575.1L717.3,575.1z M747.5,565.8c1.1-2.2,3.1-3.2,6.1-3.2
		c0.5,0,0.8,0,1.1,0l0.7-3c-0.4-0.1-1-0.2-1.8-0.2c-1.4,0-2.7,0.4-3.9,1.1c-1.1,0.8-1.9,1.5-2.4,2.4l-0.4-3.1h-3.1v20.7h3.7V565.8
		L747.5,565.8z M772.2,579.5l-0.9-2.5c-1.7,0.8-3.5,1.1-5.4,1.1c-1.9,0-3.3-0.7-4.3-2.2c-1-1.4-1.5-3.3-1.5-5.7h12.1
		c0.4-1.5,0.6-2.7,0.6-3.7c0-2.1-0.6-3.8-1.8-5.1c-1.2-1.3-3-1.9-5.3-1.9c-2.8,0-4.9,1-6.5,3c-1.6,2-2.4,4.6-2.4,7.7
		s0.7,5.8,2.2,7.9c1.5,2.1,3.8,3.1,6.8,3.1C768.1,581.2,770.2,580.6,772.2,579.5L772.2,579.5L772.2,579.5z M769.4,567.6l-8.9-0.1
		c0.2-0.9,0.6-1.9,1.2-3c0.4-0.6,0.9-1,1.6-1.4c0.7-0.4,1.6-0.6,2.6-0.6c1.1,0,1.9,0.4,2.5,1.3c0.6,0.8,0.9,2,0.9,3.5V567.6
		L769.4,567.6z M779.1,559.9l-3.4,0.3l-0.4,2.4l3.8,0.2v25.1l3.7,0.4v-25.5h5.2l0.4-2.9h-5.6v-1.6c0-1.5,0.3-2.5,0.8-3.1
		c0.5-0.6,1.6-0.9,3.2-0.9c1.6,0,2.9,0.1,4,0.4l0.8-2.9c-1.7-0.5-3.4-0.7-4.9-0.7c-2.8,0-4.8,0.6-5.9,1.7c-1.1,1.1-1.7,3-1.7,5.6
		V559.9L779.1,559.9z M805.7,579.5l-0.9-2.5c-1.7,0.8-3.5,1.1-5.4,1.1s-3.3-0.7-4.3-2.2c-1-1.4-1.5-3.3-1.5-5.7h12.1
		c0.4-1.5,0.6-2.7,0.6-3.7c0-2.1-0.6-3.8-1.8-5.1c-1.2-1.3-3-1.9-5.3-1.9c-2.8,0-4.9,1-6.5,3c-1.6,2-2.4,4.6-2.4,7.7
		s0.7,5.8,2.2,7.9c1.5,2.1,3.8,3.1,6.8,3.1C801.5,581.2,803.7,580.6,805.7,579.5L805.7,579.5L805.7,579.5z M802.8,567.6l-8.9-0.1
		c0.2-0.9,0.6-1.9,1.2-3c0.4-0.6,0.9-1,1.6-1.4c0.7-0.4,1.6-0.6,2.6-0.6c1.1,0,1.9,0.4,2.5,1.3c0.6,0.8,0.9,2,0.9,3.5V567.6
		L802.8,567.6z M814.3,565.8c1.1-2.2,3.1-3.2,6.1-3.2c0.5,0,0.8,0,1.1,0l0.7-3c-0.4-0.1-1-0.2-1.8-0.2c-1.4,0-2.7,0.4-3.9,1.1
		c-1.1,0.8-1.9,1.5-2.4,2.4l-0.4-3.1h-3.1v20.7h3.7V565.8L814.3,565.8z M839,579.5l-0.9-2.5c-1.7,0.8-3.5,1.1-5.4,1.1
		c-1.9,0-3.3-0.7-4.3-2.2c-1-1.4-1.5-3.3-1.5-5.7h12.1c0.4-1.5,0.6-2.7,0.6-3.7c0-2.1-0.6-3.8-1.8-5.1c-1.2-1.3-3-1.9-5.3-1.9
		c-2.8,0-4.9,1-6.5,3c-1.6,2-2.4,4.6-2.4,7.7s0.7,5.8,2.2,7.9s3.8,3.1,6.8,3.1C834.9,581.2,837.1,580.6,839,579.5L839,579.5
		L839,579.5z M836.2,567.6l-8.9-0.1c0.2-0.9,0.6-1.9,1.2-3c0.4-0.6,0.9-1,1.6-1.4c0.7-0.4,1.6-0.6,2.6-0.6c1.1,0,1.9,0.4,2.5,1.3
		c0.6,0.8,0.9,2,0.9,3.5V567.6L836.2,567.6z M858.6,561.3c-0.8-1.2-2.2-1.8-4.3-1.8c-1.2,0-2.5,0.3-3.8,0.9c-1.3,0.6-2.3,1.3-3.1,2
		l-0.4-2.5H844v20.7h3.7v-15.3c0.7-0.8,1.6-1.4,2.7-1.9c1.2-0.5,2.2-0.8,3.2-0.8s1.7,0.4,2,1.1c0.3,0.7,0.5,1.7,0.5,3v14h3.7v-14.2
		C859.9,564.2,859.5,562.5,858.6,561.3L858.6,561.3z M878.9,580.3l-0.6-2.7c-1.3,0.4-2.6,0.5-3.8,0.5c-4.2,0-6.4-2.6-6.4-7.7
		c0-2.7,0.5-4.7,1.6-5.9c1.1-1.2,2.4-1.8,4-1.8c1.1,0,2.4,0.2,3.9,0.7l1.1-2.6c-1.5-0.8-3.2-1.2-5.1-1.2c-2.6,0-4.8,0.9-6.6,2.7
		c-1.8,1.8-2.7,4.5-2.7,8.2c0,3.6,0.9,6.3,2.7,8.2c1.8,1.8,4.1,2.7,6.8,2.7C875.5,581.3,877.1,580.9,878.9,580.3L878.9,580.3
		L878.9,580.3z M896.9,579.5l-0.9-2.5c-1.7,0.8-3.5,1.1-5.4,1.1c-1.9,0-3.3-0.7-4.3-2.2c-1-1.4-1.5-3.3-1.5-5.7h12.1
		c0.4-1.5,0.6-2.7,0.6-3.7c0-2.1-0.6-3.8-1.8-5.1c-1.2-1.3-3-1.9-5.3-1.9c-2.8,0-4.9,1-6.5,3s-2.4,4.6-2.4,7.7s0.7,5.8,2.2,7.9
		c1.5,2.1,3.8,3.1,6.8,3.1C892.8,581.2,895,580.6,896.9,579.5L896.9,579.5L896.9,579.5z M894.1,567.6l-8.9-0.1
		c0.2-0.9,0.6-1.9,1.2-3c0.4-0.6,0.9-1,1.6-1.4c0.7-0.4,1.6-0.6,2.6-0.6s1.9,0.4,2.5,1.3c0.6,0.8,0.9,2,0.9,3.5V567.6L894.1,567.6z
		 M905.3,575.9h-3.9c0.5,1.1,0.7,2,0.7,3c0,2.1-1.1,4.5-3.4,7.1h3.4c2.4-2.2,3.6-4.8,3.6-7.7C905.8,577.4,905.7,576.6,905.3,575.9
		L905.3,575.9L905.3,575.9z M920,553.2v27.4h3.9v-27.4H920L920,553.2z M949.1,580.4l-0.7-2.7c-0.9,0.3-1.8,0.5-2.6,0.5
		c-0.9,0-1.4-0.1-1.7-0.3c-0.3-0.2-0.4-0.5-0.5-0.8s-0.1-0.7-0.1-1.3v-12.8h5.7l0.4-2.9h-6.1v-5.5l-3.3,0.6l-0.4,4.9l-3.8,0.3
		l-0.4,2.4l4.1,0.2v12.5c0,2.2,0.3,3.7,1,4.6c0.7,0.9,2.1,1.3,4.2,1.3C946.5,581.2,947.8,580.9,949.1,580.4L949.1,580.4L949.1,580.4
		z M969.1,570.3c0-3.8-0.8-6.5-2.3-8.2c-1.5-1.7-3.6-2.6-6.1-2.6c-2.6,0-4.7,0.9-6.3,2.6c-1.6,1.8-2.4,4.5-2.4,8.3s0.8,6.5,2.3,8.2
		c1.5,1.7,3.6,2.6,6.2,2.6c2.6,0,4.6-0.9,6.2-2.6C968.3,576.8,969.1,574,969.1,570.3L969.1,570.3z M964.1,564.2
		c0.8,1.1,1.2,3.1,1.2,6s-0.5,4.9-1.4,6.1c-0.9,1.2-2.1,1.8-3.4,1.8c-3.2,0-4.8-2.6-4.8-7.8c0-5.2,1.6-7.8,4.8-7.8
		C962.1,562.5,963.3,563.1,964.1,564.2L964.1,564.2z M989.9,570.3c0-3.8-0.8-6.5-2.3-8.2c-1.5-1.7-3.6-2.6-6.1-2.6
		c-2.6,0-4.7,0.9-6.3,2.6c-1.6,1.8-2.4,4.5-2.4,8.3s0.8,6.5,2.3,8.2c1.5,1.7,3.6,2.6,6.1,2.6c2.6,0,4.6-0.9,6.2-2.6
		C989.1,576.8,989.9,574,989.9,570.3L989.9,570.3z M984.9,564.2c0.8,1.1,1.2,3.1,1.2,6s-0.5,4.9-1.4,6.1c-0.9,1.2-2,1.8-3.4,1.8
		c-3.2,0-4.8-2.6-4.8-7.8c0-5.2,1.6-7.8,4.8-7.8C983,562.5,984.1,563.1,984.9,564.2L984.9,564.2z M998.3,569.5l9,11.2h4.5
		c-1-1.2-2.6-3.1-4.8-5.7c-2.2-2.6-3.8-4.5-4.8-5.7l8.4-9.1h-4.6l-7.8,9.1v-17.5l-3.7,0.3v28.7h3.7V569.5L998.3,569.5z
		 M1034.2,580.4l-0.7-2.7c-0.9,0.3-1.8,0.5-2.6,0.5c-0.9,0-1.4-0.1-1.7-0.3s-0.4-0.5-0.4-0.8s-0.1-0.7-0.1-1.3v-12.8h5.7l0.4-2.9
		h-6.1v-5.5l-3.3,0.6l-0.4,4.9l-3.8,0.3l-0.4,2.4l4.1,0.2v12.5c0,2.2,0.3,3.7,1,4.6c0.7,0.9,2.1,1.3,4.2,1.3
		C1031.6,581.2,1032.9,580.9,1034.2,580.4L1034.2,580.4L1034.2,580.4z M1044.9,560.3c-1.2,0.6-2.2,1.2-3,1.9v-10.6l-3.7,0.3v28.7
		h3.7v-15.3c0.7-0.8,1.5-1.4,2.7-2c1.1-0.5,2.2-0.8,3.2-0.8c1,0,1.7,0.4,2,1.1c0.3,0.7,0.5,1.7,0.5,3v14h3.7v-14.2
		c0-2.2-0.4-3.9-1.2-5.1c-0.8-1.2-2.2-1.8-4.3-1.8C1047.3,559.5,1046.1,559.8,1044.9,560.3L1044.9,560.3z M1073.9,579.5l-0.9-2.5
		c-1.7,0.8-3.5,1.1-5.4,1.1s-3.3-0.7-4.3-2.2c-0.9-1.4-1.5-3.3-1.5-5.7h12c0.4-1.5,0.6-2.7,0.6-3.7c0-2.1-0.6-3.8-1.8-5.1
		c-1.2-1.3-3-1.9-5.3-1.9c-2.8,0-4.9,1-6.5,3c-1.6,2-2.4,4.6-2.4,7.7s0.8,5.8,2.2,7.9s3.8,3.1,6.8,3.1
		C1069.8,581.2,1071.9,580.6,1073.9,579.5L1073.9,579.5L1073.9,579.5z M1071.1,567.6l-8.9-0.1c0.2-0.9,0.6-1.9,1.2-3
		c0.4-0.6,0.9-1,1.6-1.4c0.7-0.4,1.6-0.6,2.6-0.6c1.1,0,1.9,0.4,2.5,1.3c0.6,0.8,0.9,2,0.9,3.5V567.6L1071.1,567.6z M1088.8,559.9
		l-3.4,0.3l-0.4,2.4l3.8,0.2v25.1l3.7,0.4v-25.5h5.2l0.4-2.9h-5.6v-1.6c0-1.5,0.2-2.5,0.8-3.1c0.5-0.6,1.6-0.9,3.2-0.9
		c1.6,0,2.9,0.1,4,0.4l0.8-2.9c-1.7-0.5-3.4-0.7-4.9-0.7c-2.8,0-4.8,0.6-5.9,1.7c-1.1,1.1-1.7,3-1.7,5.6V559.9L1088.8,559.9z
		 M1117,570.3c0-3.8-0.8-6.5-2.3-8.2c-1.5-1.7-3.6-2.6-6.1-2.6c-2.6,0-4.7,0.9-6.2,2.6c-1.6,1.8-2.4,4.5-2.4,8.3s0.8,6.5,2.3,8.2
		s3.6,2.6,6.1,2.6c2.6,0,4.7-0.9,6.2-2.6C1116.3,576.8,1117,574,1117,570.3L1117,570.3z M1112.1,564.2c0.8,1.1,1.2,3.1,1.2,6
		s-0.5,4.9-1.4,6.1c-0.9,1.2-2.1,1.8-3.4,1.8c-3.2,0-4.8-2.6-4.8-7.8c0-5.2,1.6-7.8,4.8-7.8C1110.1,562.5,1111.3,563.1,1112.1,564.2
		L1112.1,564.2z M1136.3,561.3c-0.8-1.2-2.2-1.8-4.3-1.8c-1.2,0-2.4,0.3-3.8,0.9c-1.3,0.6-2.3,1.3-3.1,2l-0.4-2.5h-3.1v20.7h3.7
		v-15.3c0.6-0.8,1.6-1.4,2.7-1.9c1.2-0.5,2.2-0.8,3.2-0.8c1,0,1.7,0.4,2,1.1c0.3,0.7,0.5,1.7,0.5,3v14h3.7v-14.2
		C1137.5,564.2,1137.1,562.5,1136.3,561.3L1136.3,561.3z M1154.2,580.4l-0.7-2.7c-0.9,0.3-1.8,0.5-2.6,0.5c-0.9,0-1.4-0.1-1.7-0.3
		c-0.3-0.2-0.4-0.5-0.5-0.8c0-0.3-0.1-0.7-0.1-1.3v-12.8h5.7l0.4-2.9h-6.1v-5.5l-3.3,0.6l-0.4,4.9l-3.8,0.3l-0.4,2.4l4.1,0.2v12.5
		c0,2.2,0.3,3.7,1,4.6c0.7,0.9,2.1,1.3,4.2,1.3C1151.6,581.2,1153,580.9,1154.2,580.4L1154.2,580.4L1154.2,580.4z M1156.9,579.7
		c0.6,0.4,1.4,0.8,2.6,1.1c1.2,0.3,2.3,0.5,3.5,0.5c2.5,0,4.4-0.6,5.7-1.9c1.3-1.3,2-2.8,2-4.6c0-1.2-0.3-2.3-1-3.1
		c-0.7-0.8-1.5-1.4-2.5-1.8c-1-0.4-1.9-0.8-2.9-1.1s-1.8-0.8-2.5-1.3c-0.7-0.5-1-1.2-1-2.1c0-0.8,0.3-1.5,1-2c0.7-0.5,1.7-0.7,3-0.7
		c1.3,0,2.8,0.3,4.4,0.8l0.9-2.7c-1.4-0.8-3.2-1.2-5.4-1.2c-2.2,0-4,0.6-5.3,1.7c-1.3,1.1-2,2.6-2,4.4c0,1.3,0.3,2.3,1,3.1
		c0.7,0.8,1.5,1.4,2.5,1.8c1,0.4,1.9,0.7,2.9,1.1c1,0.3,1.8,0.8,2.4,1.4c0.7,0.6,1,1.3,1,2.1s-0.4,1.5-1.1,2.1s-1.8,0.8-3.3,0.8
		s-3.2-0.4-5-1.2L1156.9,579.7L1156.9,579.7z M1194.2,580.4l-0.7-2.7c-0.9,0.3-1.7,0.5-2.6,0.5c-0.9,0-1.4-0.1-1.7-0.3
		s-0.4-0.5-0.5-0.8c0-0.3-0.1-0.7-0.1-1.3v-12.8h5.7l0.4-2.9h-6.1v-5.5l-3.3,0.6l-0.4,4.9l-3.8,0.3l-0.4,2.4l4.1,0.2v12.5
		c0,2.2,0.3,3.7,1,4.6c0.7,0.9,2.1,1.3,4.2,1.3C1191.5,581.2,1192.9,580.9,1194.2,580.4L1194.2,580.4L1194.2,580.4z M1204.8,560.3
		c-1.2,0.6-2.2,1.2-3,1.9v-10.6l-3.7,0.3v28.7h3.7v-15.3c0.7-0.8,1.6-1.4,2.7-2c1.1-0.5,2.2-0.8,3.2-0.8c1,0,1.7,0.4,2,1.1
		c0.3,0.7,0.5,1.7,0.5,3v14h3.7v-14.2c0-2.2-0.4-3.9-1.2-5.1c-0.8-1.2-2.2-1.8-4.3-1.8C1207.2,559.5,1206.1,559.8,1204.8,560.3
		L1204.8,560.3z M1227.2,580.6c1.1-0.4,1.9-0.9,2.5-1.5c0.7,1.4,1.7,2.1,3.2,2.1c1.5,0,2.7-0.3,3.6-0.9l-0.6-2.3
		c-0.8,0.2-1.4,0.4-1.8,0.4c-0.7,0-1-0.5-1-1.4v-10c0-2.7-0.5-4.6-1.6-5.8c-1.1-1.1-3-1.7-5.6-1.7c-1,0-2.1,0.2-3.4,0.5
		c-1.3,0.3-2.3,0.7-3.1,1.2l0.9,2.6c2.1-0.7,3.9-1.1,5.4-1.1s2.5,0.3,3.1,0.9c0.5,0.6,0.8,1.7,0.8,3.3v3.2c-1.3-0.1-2.8-0.2-4.3-0.2
		c-1.6,0-3,0.3-4.5,1c-0.8,0.4-1.4,1-1.9,1.8c-0.5,0.8-0.7,1.8-0.7,2.9c0,1.8,0.5,3.1,1.6,4.2c1,1,2.5,1.6,4.2,1.6
		C1225,581.2,1226.1,581,1227.2,580.6L1227.2,580.6z M1221.4,575.1c0-2.1,1.6-3.2,4.8-3.2c1.5,0,2.5,0.1,3.2,0.2v4.8
		c-1.5,1-3.1,1.5-4.9,1.5C1222.4,578.3,1221.4,577.2,1221.4,575.1L1221.4,575.1L1221.4,575.1z M1250.4,580.4l-0.7-2.7
		c-0.9,0.3-1.8,0.5-2.6,0.5c-0.9,0-1.4-0.1-1.7-0.3s-0.4-0.5-0.4-0.8c0-0.3-0.1-0.7-0.1-1.3v-12.8h5.7l0.4-2.9h-6.1v-5.5l-3.3,0.6
		l-0.4,4.9l-3.8,0.3l-0.4,2.4l4.1,0.2v12.5c0,2.2,0.3,3.7,1,4.6c0.7,0.9,2.1,1.3,4.2,1.3C1247.8,581.2,1249.1,580.9,1250.4,580.4
		L1250.4,580.4L1250.4,580.4z"/>
	<path d="M670.5,495.7l-3.7,0.4v20.6h3.7V495.7L670.5,495.7z M666.7,491.6c0.5,0.5,1.1,0.8,1.8,0.8c0.7,0,1.3-0.3,1.7-0.8
		c0.5-0.5,0.7-1.1,0.7-1.8c0-0.7-0.2-1.3-0.7-1.7c-0.5-0.5-1.1-0.7-1.7-0.7c-0.7,0-1.3,0.2-1.8,0.7c-0.5,0.5-0.7,1.1-0.7,1.7
		C666,490.5,666.3,491.1,666.7,491.6L666.7,491.6z M687.2,516.4l-0.7-2.7c-0.9,0.3-1.7,0.5-2.6,0.5s-1.4-0.1-1.7-0.3
		c-0.3-0.2-0.4-0.5-0.5-0.8c0-0.3-0.1-0.7-0.1-1.3v-12.8h5.7l0.4-2.9h-6.1v-5.5l-3.3,0.6l-0.4,4.9l-3.8,0.3l-0.4,2.4l4.1,0.2v12.5
		c0,2.2,0.3,3.7,1,4.6c0.7,0.9,2.1,1.3,4.2,1.3C684.6,517.2,686,516.9,687.2,516.4L687.2,516.4L687.2,516.4z M714.4,516.6h3.8
		l5.4-20.7h-3.7l-3.7,16.6l-4.1-16.6l-3.4,0.2l-4.1,16.4l-3.7-16.6h-3.7l5.4,20.7h3.8l4-16.2L714.4,516.6L714.4,516.6z M735,516.6
		c1.1-0.4,1.9-0.9,2.5-1.5c0.7,1.4,1.7,2.1,3.2,2.1c1.5,0,2.7-0.3,3.6-0.9l-0.6-2.3c-0.8,0.2-1.4,0.4-1.8,0.4c-0.7,0-1-0.5-1-1.4
		v-10c0-2.7-0.5-4.6-1.6-5.8c-1.1-1.1-3-1.7-5.6-1.7c-1,0-2.1,0.2-3.4,0.5c-1.3,0.3-2.3,0.7-3.1,1.2l0.9,2.6
		c2.1-0.7,3.9-1.1,5.4-1.1c1.5,0,2.5,0.3,3.1,0.9c0.5,0.6,0.8,1.7,0.8,3.3v3.2c-1.3-0.1-2.8-0.2-4.3-0.2c-1.6,0-3,0.3-4.5,1
		c-0.8,0.4-1.4,1-1.9,1.8c-0.5,0.8-0.7,1.8-0.7,2.9c0,1.8,0.5,3.1,1.6,4.2c1.1,1,2.5,1.6,4.2,1.6C732.8,517.2,733.9,517,735,516.6
		L735,516.6z M729.2,511.1c0-2.1,1.6-3.2,4.8-3.2c1.5,0,2.5,0.1,3.2,0.2v4.8c-1.5,1-3.2,1.5-4.9,1.5
		C730.2,514.3,729.2,513.2,729.2,511.1L729.2,511.1L729.2,511.1z M745.8,515.7c0.6,0.4,1.4,0.8,2.6,1.1c1.2,0.3,2.3,0.5,3.5,0.5
		c2.5,0,4.4-0.6,5.7-1.9c1.3-1.3,2-2.8,2-4.6c0-1.2-0.3-2.3-1-3.1c-0.7-0.8-1.5-1.4-2.5-1.8c-1-0.4-1.9-0.8-2.9-1.1
		s-1.8-0.8-2.5-1.3c-0.7-0.5-1-1.2-1-2.1c0-0.8,0.3-1.5,1-2s1.7-0.7,3-0.7c1.3,0,2.8,0.3,4.4,0.8l0.9-2.7c-1.4-0.8-3.2-1.2-5.4-1.2
		c-2.2,0-4,0.6-5.3,1.7c-1.3,1.1-2,2.6-2,4.4c0,1.3,0.3,2.3,1,3.1c0.7,0.8,1.5,1.4,2.5,1.8c1,0.4,1.9,0.7,2.9,1.1
		c1,0.3,1.8,0.8,2.4,1.4c0.7,0.6,1,1.3,1,2.1c0,0.8-0.3,1.5-1,2.1c-0.7,0.6-1.8,0.8-3.3,0.8c-1.5,0-3.2-0.4-5-1.2L745.8,515.7
		L745.8,515.7z M783.1,516.4l-0.7-2.7c-0.9,0.3-1.7,0.5-2.6,0.5s-1.4-0.1-1.7-0.3c-0.3-0.2-0.4-0.5-0.5-0.8c0-0.3-0.1-0.7-0.1-1.3
		v-12.8h5.7l0.4-2.9h-6.1v-5.5l-3.3,0.6l-0.4,4.9l-3.8,0.3l-0.4,2.4l4.1,0.2v12.5c0,2.2,0.3,3.7,1,4.6c0.7,0.9,2.1,1.3,4.2,1.3
		C780.5,517.2,781.8,516.9,783.1,516.4L783.1,516.4L783.1,516.4z M793.8,496.3c-1.2,0.6-2.2,1.2-3,1.9v-10.6L787,488v28.7h3.7v-15.3
		c0.7-0.8,1.6-1.4,2.7-2c1.1-0.5,2.2-0.8,3.2-0.8c1,0,1.7,0.4,2,1.1c0.3,0.7,0.5,1.7,0.5,3v14h3.7v-14.2c0-2.2-0.4-3.9-1.2-5.1
		c-0.8-1.2-2.2-1.8-4.3-1.8C796.2,495.5,795,495.8,793.8,496.3L793.8,496.3z M822.8,515.5l-0.9-2.5c-1.7,0.8-3.5,1.1-5.4,1.1
		c-1.9,0-3.3-0.7-4.3-2.2c-1-1.4-1.5-3.3-1.5-5.7h12.1c0.4-1.5,0.6-2.7,0.6-3.7c0-2.1-0.6-3.8-1.8-5.1c-1.2-1.3-3-1.9-5.3-1.9
		c-2.8,0-4.9,1-6.5,3c-1.6,2-2.4,4.6-2.4,7.7c0,3.2,0.7,5.8,2.2,7.9s3.8,3.1,6.8,3.1C818.7,517.2,820.8,516.6,822.8,515.5
		L822.8,515.5L822.8,515.5z M820,503.6l-8.9-0.1c0.2-0.9,0.6-1.9,1.2-3c0.4-0.6,0.9-1,1.6-1.4c0.7-0.4,1.6-0.6,2.6-0.6
		c1.1,0,1.9,0.4,2.5,1.3c0.6,0.8,0.9,2,0.9,3.5V503.6L820,503.6z M850.4,516.6h3.7v-21l-3.7,0.3H842v-1.6c0-1.4,0.3-2.5,1-3.1
		c0.7-0.6,1.7-0.9,3-0.9s2.9,0.2,4.9,0.5l0.7-3c-1.9-0.4-3.8-0.7-5.7-0.7c-5.1,0-7.6,2.4-7.6,7.3v1.5l-3.4,0.3l-0.4,2.4l3.8,0.2
		v25.1l3.7,0.4v-25.5h8.4V516.6L850.4,516.6z M863.3,501.8c1.1-2.2,3.1-3.2,6.1-3.2c0.5,0,0.8,0,1.1,0l0.7-3c-0.4-0.1-1-0.2-1.8-0.2
		c-1.4,0-2.7,0.4-3.9,1.1c-1.1,0.8-1.9,1.5-2.4,2.4l-0.4-3.1h-3.1v20.7h3.7V501.8L863.3,501.8z M873,515.7c0.6,0.4,1.4,0.8,2.6,1.1
		c1.2,0.3,2.3,0.5,3.5,0.5c2.5,0,4.4-0.6,5.7-1.9c1.3-1.3,2-2.8,2-4.6c0-1.2-0.3-2.3-1-3.1c-0.7-0.8-1.5-1.4-2.5-1.8
		c-1-0.4-1.9-0.8-2.9-1.1c-1-0.3-1.8-0.8-2.5-1.3c-0.7-0.5-1-1.2-1-2.1c0-0.8,0.3-1.5,1-2c0.7-0.5,1.7-0.7,3-0.7
		c1.3,0,2.8,0.3,4.4,0.8l0.9-2.7c-1.4-0.8-3.2-1.2-5.4-1.2c-2.2,0-4,0.6-5.3,1.7c-1.3,1.1-2,2.6-2,4.4c0,1.3,0.3,2.3,1,3.1
		c0.7,0.8,1.5,1.4,2.5,1.8c1,0.4,1.9,0.7,2.9,1.1c1,0.3,1.8,0.8,2.4,1.4c0.7,0.6,1,1.3,1,2.1c0,0.8-0.3,1.5-1,2.1
		c-0.7,0.6-1.8,0.8-3.3,0.8c-1.5,0-3.2-0.4-5-1.2L873,515.7L873,515.7z M902.3,516.4l-0.7-2.7c-0.9,0.3-1.8,0.5-2.6,0.5
		c-0.9,0-1.4-0.1-1.7-0.3c-0.3-0.2-0.4-0.5-0.5-0.8c0-0.3-0.1-0.7-0.1-1.3v-12.8h5.7l0.4-2.9h-6.1v-5.5l-3.3,0.6l-0.4,4.9l-3.8,0.3
		l-0.4,2.4l4.1,0.2v12.5c0,2.2,0.3,3.7,1,4.6c0.7,0.9,2.1,1.3,4.2,1.3C899.7,517.2,901,516.9,902.3,516.4L902.3,516.4L902.3,516.4z
		 M916.1,495.9l-3.4,0.3l-0.4,2.4l3.8,0.2v25.1l3.7,0.4v-25.5h5.2l0.4-2.9h-5.6v-1.6c0-1.5,0.3-2.5,0.8-3.1c0.5-0.6,1.6-0.9,3.2-0.9
		s2.9,0.1,4,0.4l0.8-2.9c-1.7-0.5-3.4-0.7-4.9-0.7c-2.8,0-4.8,0.6-5.9,1.7c-1.1,1.1-1.7,3-1.7,5.6V495.9L916.1,495.9z M944.4,506.3
		c0-3.8-0.8-6.5-2.3-8.2c-1.5-1.7-3.6-2.6-6.1-2.6c-2.6,0-4.7,0.9-6.3,2.6c-1.6,1.8-2.4,4.5-2.4,8.3s0.8,6.5,2.3,8.2
		c1.5,1.7,3.6,2.6,6.1,2.6c2.6,0,4.6-0.9,6.2-2.6C943.6,512.8,944.4,510,944.4,506.3L944.4,506.3z M939.4,500.2
		c0.8,1.1,1.2,3.1,1.2,6c0,2.9-0.5,4.9-1.4,6.2c-0.9,1.2-2.1,1.8-3.4,1.8c-3.2,0-4.8-2.6-4.8-7.8c0-5.2,1.6-7.8,4.8-7.8
		C937.4,498.5,938.6,499.1,939.4,500.2L939.4,500.2z M963.7,497.3c-0.8-1.2-2.2-1.8-4.3-1.8c-1.2,0-2.5,0.3-3.8,0.9
		c-1.3,0.6-2.3,1.3-3.1,2l-0.4-2.5h-3.1v20.7h3.7v-15.3c0.7-0.8,1.6-1.4,2.7-1.9c1.2-0.5,2.2-0.8,3.2-0.8c1,0,1.7,0.4,2,1.1
		c0.3,0.7,0.5,1.7,0.5,3v14h3.7v-14.2C964.9,500.2,964.5,498.5,963.7,497.3L963.7,497.3z M981.6,516.4l-0.7-2.7
		c-0.9,0.3-1.7,0.5-2.6,0.5s-1.4-0.1-1.7-0.3c-0.3-0.2-0.4-0.5-0.5-0.8c0-0.3-0.1-0.7-0.1-1.3v-12.8h5.7l0.4-2.9h-6.1v-5.5l-3.3,0.6
		l-0.4,4.9l-3.8,0.3l-0.4,2.4l4.1,0.2v12.5c0,2.2,0.3,3.7,1,4.6c0.7,0.9,2.1,1.3,4.2,1.3C979,517.2,980.3,516.9,981.6,516.4
		L981.6,516.4L981.6,516.4z M995.4,495.9l-3.4,0.3l-0.4,2.4l3.8,0.2v25.1l3.7,0.4v-25.5h5.2l0.4-2.9h-5.6v-1.6
		c0-1.5,0.3-2.5,0.8-3.1c0.5-0.6,1.6-0.9,3.2-0.9s2.9,0.1,4,0.4l0.8-2.9c-1.7-0.5-3.4-0.7-4.9-0.7c-2.8,0-4.8,0.6-5.9,1.7
		c-1.1,1.1-1.7,3-1.7,5.6V495.9L995.4,495.9z M1015.8,516.6c1.1-0.4,1.9-0.9,2.5-1.5c0.7,1.4,1.7,2.1,3.2,2.1c1.5,0,2.7-0.3,3.6-0.9
		l-0.6-2.3c-0.8,0.2-1.4,0.4-1.8,0.4c-0.7,0-1-0.5-1-1.4v-10c0-2.7-0.5-4.6-1.6-5.8c-1.1-1.1-3-1.7-5.6-1.7c-1,0-2.1,0.2-3.4,0.5
		c-1.3,0.3-2.3,0.7-3.1,1.2l0.9,2.6c2.1-0.7,3.9-1.1,5.4-1.1c1.5,0,2.5,0.3,3.1,0.9c0.5,0.6,0.8,1.7,0.8,3.3v3.2
		c-1.3-0.1-2.8-0.2-4.3-0.2c-1.6,0-3,0.3-4.5,1c-0.8,0.4-1.4,1-1.9,1.8c-0.5,0.8-0.7,1.8-0.7,2.9c0,1.8,0.5,3.1,1.6,4.2
		c1.1,1,2.5,1.6,4.2,1.6C1013.5,517.2,1014.7,517,1015.8,516.6L1015.8,516.6z M1010,511.1c0-2.1,1.6-3.2,4.8-3.2
		c1.5,0,2.5,0.1,3.2,0.2v4.8c-1.5,1-3.2,1.5-4.9,1.5C1011,514.3,1010,513.2,1010,511.1L1010,511.1L1010,511.1z M1043.4,501.2
		c0.7-0.7,1.6-1.3,2.7-1.8c1.1-0.5,2.1-0.8,3-0.8c1,0,1.6,0.3,1.9,1c0.3,0.7,0.5,1.7,0.5,3v14h3.7v-14.2c0-4.6-1.8-6.9-5.5-6.9
		c-1.1,0-2.4,0.3-3.7,0.9c-1.3,0.6-2.4,1.3-3.2,2.1c-0.8-2-2.4-3-4.9-3c-1.2,0-2.4,0.3-3.6,0.9c-1.2,0.6-2.2,1.3-3,2l-0.4-2.5h-3.1
		v20.7h3.7v-15.3c0.7-0.8,1.5-1.4,2.6-2c1.1-0.5,2.1-0.8,3.1-0.8c1,0,1.7,0.4,2,1.1c0.3,0.7,0.5,1.7,0.5,3v14h3.7v-14.1
		C1043.5,502,1043.5,501.5,1043.4,501.2L1043.4,501.2L1043.4,501.2z M1064.4,495.7l-3.7,0.4v20.6h3.7V495.7L1064.4,495.7z
		 M1060.7,491.6c0.5,0.5,1.1,0.8,1.8,0.8c0.7,0,1.3-0.3,1.7-0.8c0.5-0.5,0.7-1.1,0.7-1.8c0-0.7-0.2-1.3-0.7-1.7
		c-0.5-0.5-1.1-0.7-1.7-0.7c-0.7,0-1.3,0.2-1.8,0.7c-0.5,0.5-0.7,1.1-0.7,1.7C1059.9,490.5,1060.2,491.1,1060.7,491.6L1060.7,491.6z
		 M1070,512.5c0,3.1,1.4,4.7,4.1,4.7c1.6,0,3-0.3,4.1-0.8l-0.6-2.7c-0.8,0.3-1.7,0.4-2.4,0.4c-1,0-1.5-0.5-1.5-1.6v-24.5h-3.7V512.5
		L1070,512.5z M1077.9,522.4l-0.4,2.6c1,0.2,1.9,0.3,2.8,0.3c2.2,0,4.1-0.7,5.5-2.1c1.4-1.4,2.7-3.7,3.7-7l6.8-20.3h-3.9l-4.8,16.9
		l-5.4-16.9l-3.9,0.2l7.6,20.6c-0.7,2.2-1.5,3.7-2.5,4.5c-0.9,0.8-2.2,1.3-3.7,1.3C1079,522.5,1078.4,522.5,1077.9,522.4
		L1077.9,522.4L1077.9,522.4z M1108.2,489.2v27.4h3.9v-27.4H1108.2L1108.2,489.2z M1130.5,513.5v-13.1c1.7-1.2,3.4-1.8,4.9-1.8
		c2.8,0,4.1,2.4,4.1,7.3c0,5.4-1.7,8.2-5.1,8.2C1133.1,514.1,1131.8,513.9,1130.5,513.5L1130.5,513.5L1130.5,513.5z M1129.9,495.9
		h-3.1v30l3.7-0.4v-9.1c1.2,0.5,2.5,0.8,3.9,0.8c6,0,9-3.8,9-11.3c0-3.2-0.6-5.7-1.9-7.6c-1.3-1.9-3-2.8-5.2-2.8
		c-2.2,0-4.3,0.7-6.1,2.1L1129.9,495.9L1129.9,495.9z M1157.3,516.5c1.2-0.5,2.1-1,2.9-1.7l0.4,2.2h3v-21h-3.7v16.1
		c-0.7,0.6-1.5,1.1-2.5,1.4c-1,0.3-2.1,0.5-3.2,0.5s-1.8-0.3-2.2-1c-0.4-0.6-0.5-1.6-0.5-3v-14.1h-3.7v14.2c0,2.3,0.4,4,1.3,5.2
		c0.9,1.2,2.4,1.8,4.7,1.8C1155,517.2,1156.1,516.9,1157.3,516.5L1157.3,516.5z M1181.8,506c0,5.4-1.7,8-5.2,8
		c-1.6,0-2.9-0.2-3.9-0.7v-13.1c1.6-1.1,3.3-1.7,5-1.7C1180.4,498.6,1181.8,501.1,1181.8,506L1181.8,506L1181.8,506z M1169,487.9
		v27.3c2.1,1.3,4.6,2,7.5,2c6,0,9.1-4,9.1-11.9c0-3.1-0.7-5.5-2.1-7.2c-1.4-1.7-3.1-2.6-5.2-2.6c-1.1,0-2.1,0.2-3.2,0.7
		c-1.1,0.4-1.9,0.9-2.4,1.3v-9.5H1169L1169,487.9z M1190.3,512.5c0,3.1,1.4,4.7,4.1,4.7c1.6,0,3-0.3,4.1-0.8l-0.6-2.7
		c-0.9,0.3-1.7,0.4-2.4,0.4c-1,0-1.5-0.5-1.5-1.6v-24.5h-3.7V512.5L1190.3,512.5z M1204.9,495.7l-3.7,0.4v20.6h3.7V495.7
		L1204.9,495.7z M1201.1,491.6c0.5,0.5,1.1,0.8,1.8,0.8c0.7,0,1.3-0.3,1.7-0.8c0.5-0.5,0.7-1.1,0.7-1.8c0-0.7-0.2-1.3-0.7-1.7
		c-0.5-0.5-1.1-0.7-1.7-0.7c-0.7,0-1.3,0.2-1.8,0.7c-0.5,0.5-0.7,1.1-0.7,1.7C1200.4,490.5,1200.6,491.1,1201.1,491.6L1201.1,491.6z
		 M1209.1,515.7c0.6,0.4,1.4,0.8,2.6,1.1c1.2,0.3,2.3,0.5,3.5,0.5c2.5,0,4.4-0.6,5.7-1.9c1.3-1.3,2-2.8,2-4.6c0-1.2-0.3-2.3-1-3.1
		c-0.7-0.8-1.5-1.4-2.5-1.8c-1-0.4-1.9-0.8-2.9-1.1s-1.8-0.8-2.5-1.3c-0.7-0.5-1-1.2-1-2.1c0-0.8,0.3-1.5,1-2c0.7-0.5,1.7-0.7,3-0.7
		c1.3,0,2.8,0.3,4.4,0.8l0.9-2.7c-1.4-0.8-3.2-1.2-5.4-1.2s-4,0.6-5.3,1.7c-1.3,1.1-2,2.6-2,4.4c0,1.3,0.3,2.3,1,3.1
		c0.7,0.8,1.5,1.4,2.5,1.8c1,0.4,1.9,0.7,2.9,1.1c1,0.3,1.8,0.8,2.4,1.4c0.7,0.6,1,1.3,1,2.1c0,0.8-0.3,1.5-1.1,2.1
		c-0.7,0.6-1.8,0.8-3.3,0.8c-1.5,0-3.2-0.4-5-1.2L1209.1,515.7L1209.1,515.7z M1234,496.3c-1.2,0.6-2.2,1.2-3,1.9v-10.6l-3.7,0.3
		v28.7h3.7v-15.3c0.7-0.8,1.6-1.4,2.7-2c1.1-0.5,2.2-0.8,3.2-0.8c1,0,1.7,0.4,2,1.1c0.3,0.7,0.5,1.7,0.5,3v14h3.7v-14.2
		c0-2.2-0.4-3.9-1.2-5.1c-0.8-1.2-2.2-1.8-4.3-1.8C1236.4,495.5,1235.2,495.8,1234,496.3L1234,496.3z M1263,515.5l-0.9-2.5
		c-1.7,0.8-3.5,1.1-5.4,1.1c-1.9,0-3.3-0.7-4.3-2.2c-0.9-1.4-1.5-3.3-1.5-5.7h12c0.4-1.5,0.6-2.7,0.6-3.7c0-2.1-0.6-3.8-1.8-5.1
		c-1.2-1.3-3-1.9-5.3-1.9c-2.8,0-4.9,1-6.5,3c-1.6,2-2.4,4.6-2.4,7.7c0,3.2,0.8,5.8,2.2,7.9s3.8,3.1,6.8,3.1
		C1258.9,517.2,1261,516.6,1263,515.5L1263,515.5L1263,515.5z M1260.2,503.6l-8.9-0.1c0.2-0.9,0.6-1.9,1.2-3c0.4-0.6,0.9-1,1.6-1.4
		c0.7-0.4,1.6-0.6,2.6-0.6c1.1,0,1.9,0.4,2.5,1.3c0.6,0.8,0.9,2,0.9,3.5V503.6L1260.2,503.6z M1269,514.2c1.2,1.9,3,2.8,5.3,2.8
		c2.3,0,4.3-0.7,6-2l0.5,2h2.9v-29h-3.7v8.5c-1.1-0.6-2.4-0.9-3.9-0.9c-6,0-9,3.7-9,11.2C1267.1,509.8,1267.7,512.4,1269,514.2
		L1269,514.2z M1280,499.3v13c-1.3,1.2-2.9,1.8-4.9,1.8c-2.8,0-4.2-2.5-4.2-7.4c0-5.4,1.7-8.1,5.1-8.1
		C1277.5,498.6,1278.9,498.8,1280,499.3L1280,499.3L1280,499.3z M1288.6,514.3c0,0.7,0.2,1.3,0.7,1.8c0.5,0.5,1.1,0.8,1.8,0.8
		c0.7,0,1.3-0.3,1.8-0.8c0.5-0.5,0.7-1.1,0.7-1.8c0-0.7-0.2-1.3-0.7-1.8c-0.5-0.5-1.1-0.7-1.8-0.7c-0.7,0-1.3,0.2-1.8,0.7
		C1288.8,513,1288.6,513.6,1288.6,514.3L1288.6,514.3z"/>
	<path d="M670.5,431.7l-3.7,0.4v20.6h3.7V431.7L670.5,431.7z M666.7,427.6c0.5,0.5,1.1,0.8,1.8,0.8c0.7,0,1.3-0.3,1.7-0.8
		c0.5-0.5,0.7-1.1,0.7-1.8c0-0.7-0.2-1.3-0.7-1.7c-0.5-0.5-1.1-0.7-1.7-0.7c-0.7,0-1.3,0.2-1.8,0.7c-0.5,0.5-0.7,1.1-0.7,1.7
		C666,426.5,666.3,427.1,666.7,427.6L666.7,427.6z M690.6,433.3c-0.8-1.2-2.2-1.8-4.3-1.8c-1.2,0-2.5,0.3-3.8,0.9
		c-1.3,0.6-2.3,1.3-3.1,2l-0.4-2.5H676v20.7h3.7v-15.3c0.7-0.8,1.6-1.4,2.7-1.9c1.2-0.5,2.2-0.8,3.2-0.8c1,0,1.7,0.4,2,1.1
		c0.3,0.7,0.5,1.7,0.5,3v14h3.7v-14.2C691.8,436.2,691.4,434.5,690.6,433.3L690.6,433.3z M720.4,451.5l-0.9-2.5
		c-1.7,0.8-3.5,1.1-5.4,1.1s-3.3-0.7-4.3-2.2c-1-1.4-1.5-3.3-1.5-5.7h12.1c0.4-1.5,0.6-2.7,0.6-3.7c0-2.1-0.6-3.8-1.8-5.1
		c-1.2-1.3-3-1.9-5.3-1.9c-2.8,0-4.9,1-6.5,3c-1.6,2-2.4,4.6-2.4,7.7c0,3.2,0.7,5.8,2.2,7.9c1.5,2.1,3.8,3.1,6.8,3.1
		C716.3,453.2,718.4,452.6,720.4,451.5L720.4,451.5L720.4,451.5z M717.6,439.6l-8.9-0.1c0.2-0.9,0.6-1.9,1.2-3
		c0.4-0.6,0.9-1,1.6-1.4c0.7-0.4,1.6-0.6,2.6-0.6c1.1,0,1.9,0.4,2.5,1.3c0.6,0.8,0.9,2,0.9,3.5V439.6L717.6,439.6z M731.9,448.9
		l-4.7-17.1h-4l6.6,20.7h4.1l6.6-20.7h-3.8L731.9,448.9L731.9,448.9z M758.3,451.5l-0.9-2.5c-1.7,0.8-3.5,1.1-5.4,1.1
		c-1.9,0-3.3-0.7-4.3-2.2c-1-1.4-1.5-3.3-1.5-5.7h12.1c0.4-1.5,0.6-2.7,0.6-3.7c0-2.1-0.6-3.8-1.8-5.1c-1.2-1.3-3-1.9-5.3-1.9
		c-2.8,0-4.9,1-6.5,3c-1.6,2-2.4,4.6-2.4,7.7c0,3.2,0.7,5.8,2.2,7.9c1.5,2.1,3.8,3.1,6.8,3.1C754.2,453.2,756.3,452.6,758.3,451.5
		L758.3,451.5L758.3,451.5z M755.5,439.6l-8.9-0.1c0.2-0.9,0.6-1.9,1.2-3c0.4-0.6,0.9-1,1.6-1.4s1.6-0.6,2.6-0.6
		c1.1,0,1.9,0.4,2.5,1.3c0.6,0.8,0.9,2,0.9,3.5V439.6L755.5,439.6z M767,437.8c1.1-2.2,3.1-3.2,6.1-3.2c0.5,0,0.8,0,1.1,0l0.7-3
		c-0.4-0.1-1-0.2-1.8-0.2c-1.4,0-2.7,0.4-3.9,1.1c-1.1,0.8-1.9,1.5-2.4,2.4l-0.4-3.1h-3.1v20.7h3.7V437.8L767,437.8z M775.5,458.4
		l-0.5,2.6c1,0.2,1.9,0.3,2.8,0.3c2.2,0,4.1-0.7,5.5-2.1c1.4-1.4,2.6-3.7,3.7-6.9l6.8-20.3H790l-4.8,16.9l-5.4-16.9l-3.9,0.2
		l7.6,20.6c-0.7,2.2-1.5,3.7-2.5,4.5c-0.9,0.8-2.2,1.3-3.7,1.3C776.6,458.5,776,458.5,775.5,458.4L775.5,458.4L775.5,458.4z
		 M808.7,452.4l-0.7-2.7c-0.9,0.3-1.8,0.5-2.6,0.5c-0.9,0-1.4-0.1-1.7-0.3c-0.3-0.2-0.4-0.5-0.5-0.8c0-0.3-0.1-0.7-0.1-1.3v-12.8
		h5.7l0.4-2.9h-6.1v-5.5l-3.3,0.6l-0.4,4.9l-3.8,0.3l-0.4,2.4l4.1,0.2v12.5c0,2.2,0.3,3.7,1,4.6c0.7,0.9,2.1,1.3,4.2,1.3
		C806.1,453.2,807.4,452.9,808.7,452.4L808.7,452.4L808.7,452.4z M819.4,432.3c-1.2,0.6-2.2,1.2-3,1.9v-10.6l-3.7,0.3v28.7h3.7
		v-15.3c0.7-0.8,1.6-1.4,2.7-2c1.1-0.5,2.2-0.8,3.2-0.8c1,0,1.7,0.4,2,1.1c0.3,0.7,0.5,1.7,0.5,3v14h3.7v-14.2
		c0-2.2-0.4-3.9-1.2-5.1c-0.8-1.2-2.2-1.8-4.3-1.8C821.8,431.5,820.6,431.8,819.4,432.3L819.4,432.3z M837.6,431.7l-3.7,0.4v20.6
		h3.7V431.7L837.6,431.7z M833.9,427.6c0.5,0.5,1.1,0.8,1.8,0.8c0.7,0,1.3-0.3,1.7-0.8c0.5-0.5,0.7-1.1,0.7-1.8
		c0-0.7-0.2-1.3-0.7-1.7c-0.5-0.5-1.1-0.7-1.7-0.7c-0.7,0-1.3,0.2-1.8,0.7c-0.5,0.5-0.7,1.1-0.7,1.7
		C833.1,426.5,833.4,427.1,833.9,427.6L833.9,427.6z M857.7,433.3c-0.8-1.2-2.2-1.8-4.3-1.8c-1.2,0-2.5,0.3-3.8,0.9
		c-1.3,0.6-2.3,1.3-3.1,2l-0.4-2.5h-3.1v20.7h3.7v-15.3c0.7-0.8,1.6-1.4,2.7-1.9s2.2-0.8,3.2-0.8c1,0,1.7,0.4,2,1.1
		c0.3,0.7,0.5,1.7,0.5,3v14h3.7v-14.2C859,436.2,858.6,434.5,857.7,433.3L857.7,433.3z M865.5,433.6c-1.2,1.4-1.8,3.2-1.8,5.4
		c0,1.4,0.3,2.8,0.9,3.9c0.6,1.2,1.5,2.1,2.6,2.7c-1.1,1.4-1.6,2.6-1.6,3.7c0,1.1,0.4,2,1.1,2.5c-2.5,1.3-3.8,3-3.8,5.2
		c0,1.7,0.7,3,2.1,3.9c1.4,0.9,3.5,1.4,6.2,1.4c2.7,0,5-0.7,6.7-2s2.6-3.1,2.6-5.3c0-1.6-0.5-2.8-1.6-3.7c-1.1-0.9-2.6-1.3-4.6-1.3
		h-3.8c-1.4,0-2.2-0.5-2.2-1.4c0-0.6,0.2-1.4,0.7-2.4c0.7,0.1,1.4,0.2,2.1,0.2c2.4,0,4.2-0.7,5.5-2.1c1.3-1.4,1.9-3.1,1.9-5.2
		c0-2.1-0.5-3.7-1.6-5c1.8-0.2,3.3-0.5,4.3-0.7l-0.5-2.3c-2.2,0.4-4.3,0.6-6.4,0.6l-3.4-0.2C868.5,431.5,866.7,432.2,865.5,433.6
		L865.5,433.6z M874.1,435.4c0.6,0.8,0.9,1.9,0.9,3.5c0,3-1.3,4.6-4,4.6s-4-1.5-4-4.6c0-3.1,1.3-4.6,4-4.6
		C872.5,434.3,873.5,434.7,874.1,435.4L874.1,435.4z M876.3,453.7c0.5,0.3,0.8,0.9,0.8,1.6c0,1.3-0.5,2.2-1.5,3
		c-1,0.7-2.4,1.1-4.1,1.1c-1.7,0-3-0.2-4-0.7c-0.9-0.5-1.4-1.2-1.4-2.2c0-1.6,0.8-2.7,2.3-3.3h5
		C874.9,453.2,875.8,453.3,876.3,453.7L876.3,453.7z M903.4,452.4l-0.7-2.7c-0.9,0.3-1.7,0.5-2.6,0.5s-1.4-0.1-1.7-0.3
		c-0.3-0.2-0.4-0.5-0.5-0.8c0-0.3-0.1-0.7-0.1-1.3v-12.8h5.7l0.4-2.9h-6.1v-5.5l-3.3,0.6l-0.4,4.9l-3.8,0.3l-0.4,2.4l4.1,0.2v12.5
		c0,2.2,0.3,3.7,1,4.6c0.7,0.9,2.1,1.3,4.2,1.3C900.8,453.2,902.1,452.9,903.4,452.4L903.4,452.4L903.4,452.4z M914.1,432.3
		c-1.2,0.6-2.2,1.2-3,1.9v-10.6l-3.7,0.3v28.7h3.7v-15.3c0.7-0.8,1.6-1.4,2.7-2c1.1-0.5,2.2-0.8,3.2-0.8c1,0,1.7,0.4,2,1.1
		c0.3,0.7,0.5,1.7,0.5,3v14h3.7v-14.2c0-2.2-0.4-3.9-1.2-5.1c-0.8-1.2-2.2-1.8-4.3-1.8C916.5,431.5,915.3,431.8,914.1,432.3
		L914.1,432.3z M936.4,452.6c1.1-0.4,1.9-0.9,2.5-1.5c0.7,1.4,1.7,2.1,3.2,2.1c1.5,0,2.7-0.3,3.6-0.9l-0.6-2.3
		c-0.8,0.2-1.4,0.4-1.8,0.4c-0.7,0-1-0.5-1-1.4v-10c0-2.7-0.5-4.6-1.6-5.8c-1.1-1.1-3-1.7-5.6-1.7c-1,0-2.1,0.2-3.4,0.5
		c-1.3,0.3-2.3,0.7-3.1,1.2l0.9,2.6c2.1-0.7,3.9-1.1,5.4-1.1c1.5,0,2.5,0.3,3.1,0.9c0.5,0.6,0.8,1.7,0.8,3.3v3.2
		c-1.3-0.1-2.8-0.2-4.3-0.2c-1.6,0-3,0.3-4.5,1c-0.8,0.4-1.4,1-1.9,1.8c-0.5,0.8-0.7,1.8-0.7,2.9c0,1.8,0.5,3.1,1.6,4.2
		c1.1,1,2.5,1.6,4.2,1.6C934.2,453.2,935.3,453,936.4,452.6L936.4,452.6z M930.6,447.1c0-2.1,1.6-3.2,4.8-3.2c1.5,0,2.5,0.1,3.2,0.2
		v4.8c-1.5,1-3.2,1.5-4.9,1.5C931.7,450.3,930.6,449.2,930.6,447.1L930.6,447.1L930.6,447.1z M959.6,452.4l-0.7-2.7
		c-0.9,0.3-1.8,0.5-2.6,0.5c-0.9,0-1.4-0.1-1.7-0.3c-0.3-0.2-0.4-0.5-0.5-0.8c0-0.3-0.1-0.7-0.1-1.3v-12.8h5.7l0.4-2.9h-6.1v-5.5
		l-3.3,0.6l-0.4,4.9l-3.8,0.3l-0.4,2.4l4.1,0.2v12.5c0,2.2,0.3,3.7,1,4.6c0.7,0.9,2.1,1.3,4.2,1.3
		C957,453.2,958.3,452.9,959.6,452.4L959.6,452.4L959.6,452.4z M982.7,452.4l-0.7-2.7c-0.9,0.3-1.7,0.5-2.6,0.5
		c-0.9,0-1.4-0.1-1.7-0.3c-0.3-0.2-0.4-0.5-0.5-0.8c0-0.3-0.1-0.7-0.1-1.3v-12.8h5.7l0.4-2.9h-6.1v-5.5l-3.3,0.6l-0.4,4.9l-3.8,0.3
		l-0.4,2.4l4.1,0.2v12.5c0,2.2,0.3,3.7,1,4.6c0.7,0.9,2.1,1.3,4.2,1.3C980.1,453.2,981.4,452.9,982.7,452.4L982.7,452.4L982.7,452.4
		z M984,458.4l-0.5,2.6c1,0.2,1.9,0.3,2.8,0.3c2.2,0,4.1-0.7,5.5-2.1c1.4-1.4,2.6-3.7,3.7-6.9l6.8-20.3h-3.9l-4.8,16.9l-5.4-16.9
		l-3.9,0.2l7.6,20.6c-0.7,2.2-1.5,3.7-2.5,4.5c-0.9,0.8-2.2,1.3-3.7,1.3C985.1,458.5,984.5,458.5,984,458.4L984,458.4L984,458.4z
		 M1009.7,449.5v-13.1c1.7-1.2,3.4-1.8,4.9-1.8c2.8,0,4.1,2.4,4.1,7.3c0,5.4-1.7,8.2-5.1,8.2
		C1012.4,450.1,1011.1,449.9,1009.7,449.5L1009.7,449.5L1009.7,449.5z M1009.1,431.9h-3.1v30l3.7-0.4v-9.1c1.2,0.5,2.5,0.8,3.9,0.8
		c6,0,9-3.8,9-11.3c0-3.2-0.6-5.7-1.9-7.6c-1.3-1.9-3-2.8-5.3-2.8c-2.2,0-4.3,0.7-6.1,2.1L1009.1,431.9L1009.1,431.9z M1041.8,451.5
		l-0.9-2.5c-1.7,0.8-3.5,1.1-5.4,1.1c-1.9,0-3.3-0.7-4.3-2.2c-1-1.4-1.5-3.3-1.5-5.7h12.1c0.4-1.5,0.6-2.7,0.6-3.7
		c0-2.1-0.6-3.8-1.8-5.1c-1.2-1.3-3-1.9-5.3-1.9c-2.8,0-4.9,1-6.5,3c-1.6,2-2.4,4.6-2.4,7.7c0,3.2,0.7,5.8,2.2,7.9
		c1.5,2.1,3.8,3.1,6.8,3.1C1037.7,453.2,1039.8,452.6,1041.8,451.5L1041.8,451.5L1041.8,451.5z M1038.9,439.6l-8.9-0.1
		c0.2-0.9,0.6-1.9,1.2-3c0.4-0.6,0.9-1,1.6-1.4c0.7-0.4,1.6-0.6,2.7-0.6c1.1,0,1.9,0.4,2.5,1.3c0.6,0.8,0.9,2,0.9,3.5V439.6
		L1038.9,439.6z M1056.4,450.2c1.3,1.9,3,2.8,5.3,2.8c2.3,0,4.3-0.7,6-2l0.5,2h2.9v-29h-3.7v8.5c-1.1-0.6-2.4-0.9-3.9-0.9
		c-6,0-9,3.7-9,11.2C1054.5,445.8,1055.1,448.4,1056.4,450.2L1056.4,450.2z M1067.4,435.3v13c-1.3,1.2-2.9,1.8-4.9,1.8
		c-2.8,0-4.2-2.5-4.2-7.4c0-5.4,1.7-8.1,5.1-8.1C1064.9,434.6,1066.2,434.8,1067.4,435.3L1067.4,435.3L1067.4,435.3z M1091.2,451.5
		l-0.9-2.5c-1.7,0.8-3.5,1.1-5.4,1.1s-3.3-0.7-4.3-2.2c-0.9-1.4-1.5-3.3-1.5-5.7h12.1c0.4-1.5,0.6-2.7,0.6-3.7
		c0-2.1-0.6-3.8-1.8-5.1c-1.2-1.3-3-1.9-5.3-1.9c-2.8,0-4.9,1-6.5,3c-1.6,2-2.4,4.6-2.4,7.7c0,3.2,0.8,5.8,2.2,7.9
		c1.5,2.1,3.8,3.1,6.8,3.1C1087.1,453.2,1089.2,452.6,1091.2,451.5L1091.2,451.5L1091.2,451.5z M1088.3,439.6l-8.9-0.1
		c0.2-0.9,0.6-1.9,1.2-3c0.4-0.6,0.9-1,1.6-1.4c0.7-0.4,1.6-0.6,2.6-0.6c1.1,0,1.9,0.4,2.5,1.3c0.6,0.8,0.9,2,0.9,3.5V439.6
		L1088.3,439.6z M1094.9,451.7c0.6,0.4,1.4,0.8,2.6,1.1c1.2,0.3,2.3,0.5,3.5,0.5c2.5,0,4.4-0.6,5.7-1.9c1.3-1.3,2-2.8,2-4.6
		c0-1.2-0.3-2.3-1-3.1c-0.7-0.8-1.5-1.4-2.5-1.8c-1-0.4-1.9-0.8-2.9-1.1c-1-0.3-1.8-0.8-2.5-1.3c-0.7-0.5-1-1.2-1-2.1s0.3-1.5,1-2
		c0.7-0.5,1.7-0.7,3-0.7c1.3,0,2.8,0.3,4.4,0.8l0.9-2.7c-1.4-0.8-3.2-1.2-5.4-1.2s-4,0.6-5.3,1.7c-1.3,1.1-2,2.6-2,4.4
		c0,1.3,0.3,2.3,1,3.1c0.7,0.8,1.5,1.4,2.5,1.8c1,0.4,1.9,0.7,2.9,1.1c1,0.3,1.8,0.8,2.4,1.4c0.7,0.6,1,1.3,1,2.1
		c0,0.8-0.3,1.5-1,2.1s-1.8,0.8-3.3,0.8c-1.5,0-3.2-0.4-5-1.2L1094.9,451.7L1094.9,451.7z M1116.7,431.7l-3.7,0.4v20.6h3.7V431.7
		L1116.7,431.7z M1113,427.6c0.5,0.5,1.1,0.8,1.8,0.8c0.7,0,1.3-0.3,1.7-0.8c0.5-0.5,0.7-1.1,0.7-1.8c0-0.7-0.2-1.3-0.7-1.7
		c-0.5-0.5-1.1-0.7-1.7-0.7c-0.7,0-1.3,0.2-1.8,0.7c-0.5,0.5-0.7,1.1-0.7,1.7C1112.3,426.5,1112.5,427.1,1113,427.6L1113,427.6z
		 M1123.3,433.6c-1.2,1.4-1.8,3.2-1.8,5.4c0,1.4,0.3,2.8,0.9,3.9s1.5,2.1,2.6,2.7c-1.1,1.4-1.6,2.6-1.6,3.7c0,1.1,0.4,2,1.1,2.5
		c-2.5,1.3-3.8,3-3.8,5.2c0,1.7,0.7,3,2.1,3.9c1.4,0.9,3.5,1.4,6.2,1.4s5-0.7,6.7-2c1.8-1.3,2.6-3.1,2.6-5.3c0-1.6-0.5-2.8-1.6-3.7
		c-1.1-0.9-2.6-1.3-4.6-1.3h-3.8c-1.4,0-2.2-0.5-2.2-1.4c0-0.6,0.2-1.4,0.7-2.4c0.7,0.1,1.4,0.2,2.1,0.2c2.4,0,4.2-0.7,5.5-2.1
		c1.2-1.4,1.9-3.1,1.9-5.2c0-2.1-0.5-3.7-1.6-5c1.8-0.2,3.3-0.5,4.3-0.7l-0.5-2.3c-2.2,0.4-4.3,0.6-6.4,0.6l-3.4-0.2
		C1126.4,431.5,1124.6,432.2,1123.3,433.6L1123.3,433.6z M1132,435.4c0.6,0.8,0.9,1.9,0.9,3.5c0,3-1.3,4.6-4,4.6c-2.7,0-4-1.5-4-4.6
		c0-3.1,1.3-4.6,4-4.6C1130.3,434.3,1131.3,434.7,1132,435.4L1132,435.4z M1134.2,453.7c0.5,0.3,0.8,0.9,0.8,1.6
		c0,1.3-0.5,2.2-1.5,3c-1,0.7-2.4,1.1-4.1,1.1s-3-0.2-3.9-0.7c-0.9-0.5-1.4-1.2-1.4-2.2c0-1.6,0.8-2.7,2.3-3.3h5
		C1132.7,453.2,1133.7,453.3,1134.2,453.7L1134.2,453.7z M1156.7,433.3c-0.8-1.2-2.2-1.8-4.3-1.8c-1.2,0-2.5,0.3-3.8,0.9
		c-1.3,0.6-2.3,1.3-3.1,2l-0.4-2.5h-3.1v20.7h3.7v-15.3c0.7-0.8,1.6-1.4,2.7-1.9c1.2-0.5,2.2-0.8,3.2-0.8c1,0,1.7,0.4,2,1.1
		c0.3,0.7,0.5,1.7,0.5,3v14h3.7v-14.2C1157.9,436.2,1157.5,434.5,1156.7,433.3L1156.7,433.3z M1175.7,431.7l-3.7,0.4v20.6h3.7V431.7
		L1175.7,431.7z M1171.9,427.6c0.5,0.5,1.1,0.8,1.8,0.8c0.7,0,1.3-0.3,1.8-0.8c0.5-0.5,0.7-1.1,0.7-1.8c0-0.7-0.2-1.3-0.7-1.7
		c-0.5-0.5-1.1-0.7-1.8-0.7c-0.7,0-1.3,0.2-1.8,0.7c-0.5,0.5-0.7,1.1-0.7,1.7C1171.2,426.5,1171.5,427.1,1171.9,427.6L1171.9,427.6z
		 M1195.8,433.3c-0.8-1.2-2.2-1.8-4.3-1.8c-1.2,0-2.4,0.3-3.8,0.9c-1.3,0.6-2.3,1.3-3.1,2l-0.4-2.5h-3.1v20.7h3.7v-15.3
		c0.6-0.8,1.6-1.4,2.7-1.9s2.2-0.8,3.2-0.8s1.7,0.4,2,1.1c0.3,0.7,0.5,1.7,0.5,3v14h3.7v-14.2C1197,436.2,1196.6,434.5,1195.8,433.3
		L1195.8,433.3z M1209,448.9l-4.7-17.1h-4l6.6,20.7h4.1l6.7-20.7h-3.8L1209,448.9L1209,448.9z M1237.1,442.3c0-3.8-0.8-6.5-2.3-8.2
		c-1.5-1.7-3.6-2.6-6.1-2.6c-2.6,0-4.7,0.9-6.2,2.6c-1.6,1.8-2.4,4.5-2.4,8.3s0.8,6.5,2.3,8.2c1.5,1.7,3.6,2.6,6.2,2.6
		c2.6,0,4.7-0.9,6.2-2.6C1236.3,448.8,1237.1,446,1237.1,442.3L1237.1,442.3z M1232.1,436.2c0.8,1.1,1.2,3.1,1.2,6
		c0,2.9-0.5,4.9-1.4,6.1c-0.9,1.2-2.1,1.8-3.4,1.8c-3.2,0-4.8-2.6-4.8-7.8c0-5.2,1.6-7.8,4.8-7.8
		C1230.1,434.5,1231.3,435.1,1232.1,436.2L1232.1,436.2z M1241.8,448.5c0,3.1,1.4,4.7,4.1,4.7c1.6,0,3-0.3,4.1-0.8l-0.6-2.7
		c-0.9,0.3-1.7,0.4-2.4,0.4c-1,0-1.5-0.5-1.5-1.6v-24.5h-3.7V448.5L1241.8,448.5z M1259,448.9l-4.7-17.1h-4l6.6,20.7h4.1l6.7-20.7
		h-3.8L1259,448.9L1259,448.9z M1285.4,451.5l-1-2.5c-1.7,0.8-3.5,1.1-5.4,1.1c-1.9,0-3.3-0.7-4.3-2.2c-1-1.4-1.5-3.3-1.5-5.7h12.1
		c0.4-1.5,0.6-2.7,0.6-3.7c0-2.1-0.6-3.8-1.8-5.1c-1.2-1.3-3-1.9-5.3-1.9c-2.8,0-4.9,1-6.5,3c-1.6,2-2.4,4.6-2.4,7.7
		c0,3.2,0.7,5.8,2.2,7.9c1.5,2.1,3.8,3.1,6.8,3.1C1281.3,453.2,1283.4,452.6,1285.4,451.5L1285.4,451.5L1285.4,451.5z M1282.6,439.6
		l-8.9-0.1c0.2-0.9,0.6-1.9,1.2-3c0.4-0.6,0.9-1,1.6-1.4c0.7-0.4,1.6-0.6,2.7-0.6c1.1,0,1.9,0.4,2.5,1.3c0.6,0.8,0.9,2,0.9,3.5
		V439.6L1282.6,439.6z M1289.1,451.7c0.6,0.4,1.4,0.8,2.6,1.1c1.2,0.3,2.3,0.5,3.5,0.5c2.5,0,4.4-0.6,5.7-1.9c1.3-1.3,2-2.8,2-4.6
		c0-1.2-0.4-2.3-1-3.1c-0.7-0.8-1.5-1.4-2.5-1.8c-1-0.4-1.9-0.8-2.9-1.1c-1-0.3-1.8-0.8-2.5-1.3c-0.7-0.5-1-1.2-1-2.1s0.3-1.5,1-2
		c0.7-0.5,1.7-0.7,3-0.7c1.3,0,2.8,0.3,4.4,0.8l0.9-2.7c-1.4-0.8-3.2-1.2-5.4-1.2s-4,0.6-5.3,1.7c-1.3,1.1-2,2.6-2,4.4
		c0,1.3,0.3,2.3,1,3.1c0.7,0.8,1.5,1.4,2.5,1.8c1,0.4,1.9,0.7,2.9,1.1c1,0.3,1.8,0.8,2.4,1.4c0.7,0.6,1,1.3,1,2.1
		c0,0.8-0.3,1.5-1.1,2.1c-0.7,0.6-1.8,0.8-3.3,0.8c-1.5,0-3.2-0.4-5-1.2L1289.1,451.7L1289.1,451.7z M1307.1,438.1
		c0,0.7,0.2,1.3,0.7,1.8c0.5,0.5,1.1,0.8,1.8,0.8c0.7,0,1.3-0.3,1.8-0.8s0.7-1.1,0.7-1.8c0-0.7-0.2-1.3-0.7-1.8s-1.1-0.7-1.8-0.7
		c-0.7,0-1.3,0.2-1.8,0.7C1307.4,436.8,1307.1,437.4,1307.1,438.1L1307.1,438.1z M1311.4,447.9h-3.9c0.5,1.1,0.7,2,0.7,3
		c0,2.1-1.1,4.5-3.4,7.1h3.4c2.4-2.2,3.7-4.8,3.7-7.7C1311.9,449.4,1311.7,448.6,1311.4,447.9L1311.4,447.9L1311.4,447.9z"/>
	<path d="M682,363.5c-0.9-0.8-2-1.4-3.2-1.8c-1.2-0.3-2.9-0.5-5-0.5h-6.5v27.4h3.9V378h1.5c0.9,0,1.6,0,2,0l8.5,11.4l3-2l-7.5-9.9
		c1.1-0.3,2.2-0.8,3.1-1.5c1.7-1.4,2.6-3.6,2.6-6.6C684.3,366.9,683.5,364.9,682,363.5L682,363.5L682,363.5z M672.7,374.7h-1.6
		v-10.5h2.2c2.8,0,4.6,0.5,5.6,1.4c0.9,0.9,1.4,2.2,1.4,4.1c0,1.8-0.6,3.2-1.8,4C677.7,374.4,675.7,374.7,672.7,374.7L672.7,374.7
		L672.7,374.7z M697.8,388.6c1.1-0.4,1.9-0.9,2.5-1.5c0.7,1.4,1.7,2.1,3.2,2.1c1.5,0,2.7-0.3,3.6-0.9l-0.6-2.3
		c-0.8,0.2-1.4,0.4-1.8,0.4c-0.7,0-1-0.5-1-1.4v-10c0-2.7-0.5-4.6-1.6-5.8c-1.1-1.1-3-1.7-5.6-1.7c-1,0-2.1,0.2-3.4,0.5
		c-1.3,0.3-2.3,0.7-3.1,1.2l0.9,2.6c2.1-0.7,3.9-1.1,5.4-1.1s2.5,0.3,3.1,0.9c0.5,0.6,0.8,1.7,0.8,3.3v3.2c-1.3-0.1-2.8-0.2-4.3-0.2
		c-1.6,0-3,0.3-4.5,1c-0.8,0.4-1.4,1-1.9,1.8c-0.5,0.8-0.7,1.8-0.7,2.9c0,1.8,0.5,3.1,1.6,4.2c1.1,1,2.5,1.6,4.2,1.6
		C695.6,389.2,696.7,389,697.8,388.6L697.8,388.6z M692,383.1c0-2.1,1.6-3.2,4.8-3.2c1.5,0,2.5,0.1,3.2,0.2v4.8
		c-1.5,1-3.2,1.5-4.9,1.5C693.1,386.3,692,385.2,692,383.1L692,383.1L692,383.1z M725.5,373.2c0.7-0.7,1.6-1.3,2.7-1.8
		c1.1-0.5,2.1-0.8,3-0.8c1,0,1.6,0.3,1.9,1s0.5,1.7,0.5,3v14h3.7v-14.2c0-4.6-1.8-6.9-5.5-6.9c-1.1,0-2.4,0.3-3.7,0.9
		c-1.3,0.6-2.4,1.3-3.2,2.1c-0.8-2-2.4-3-4.9-3c-1.2,0-2.4,0.3-3.6,0.9c-1.2,0.6-2.2,1.3-3,2l-0.4-2.5h-3.1v20.7h3.7v-15.3
		c0.7-0.8,1.5-1.4,2.6-2c1.1-0.5,2.1-0.8,3.1-0.8c1,0,1.7,0.4,2,1.1c0.3,0.7,0.5,1.7,0.5,3v14h3.7v-14.1
		C725.5,374,725.5,373.5,725.5,373.2L725.5,373.2L725.5,373.2z M755.4,378c0,5.4-1.7,8-5.2,8c-1.6,0-2.9-0.2-3.9-0.7v-13.1
		c1.6-1.1,3.3-1.7,5-1.7C754.1,370.6,755.4,373.1,755.4,378L755.4,378L755.4,378z M742.7,359.9v27.3c2.1,1.3,4.6,2,7.5,2
		c6,0,9.1-4,9.1-11.9c0-3.1-0.7-5.5-2.1-7.2c-1.4-1.7-3.1-2.6-5.2-2.6c-1.1,0-2.1,0.2-3.2,0.7c-1.1,0.4-1.9,0.9-2.4,1.3v-9.5H742.7
		L742.7,359.9z M764,384.5c0,3.1,1.4,4.7,4.1,4.7c1.6,0,3-0.3,4.1-0.8l-0.6-2.7c-0.8,0.3-1.7,0.4-2.4,0.4c-1,0-1.5-0.5-1.5-1.6
		v-24.5H764V384.5L764,384.5z M782.7,388.6c1.1-0.4,1.9-0.9,2.5-1.5c0.7,1.4,1.7,2.1,3.2,2.1s2.7-0.3,3.6-0.9l-0.6-2.3
		c-0.8,0.2-1.4,0.4-1.8,0.4c-0.7,0-1-0.5-1-1.4v-10c0-2.7-0.5-4.6-1.6-5.8s-3-1.7-5.6-1.7c-1,0-2.1,0.2-3.4,0.5
		c-1.3,0.3-2.3,0.7-3.1,1.2l0.9,2.6c2.1-0.7,3.9-1.1,5.4-1.1s2.5,0.3,3.1,0.9c0.5,0.6,0.8,1.7,0.8,3.3v3.2c-1.3-0.1-2.8-0.2-4.3-0.2
		s-3,0.3-4.5,1c-0.8,0.4-1.4,1-1.9,1.8c-0.5,0.8-0.7,1.8-0.7,2.9c0,1.8,0.5,3.1,1.6,4.2c1.1,1,2.5,1.6,4.2,1.6
		C780.5,389.2,781.6,389,782.7,388.6L782.7,388.6z M776.9,383.1c0-2.1,1.6-3.2,4.8-3.2c1.5,0,2.5,0.1,3.2,0.2v4.8
		c-1.5,1-3.2,1.5-4.9,1.5C777.9,386.3,776.9,385.2,776.9,383.1L776.9,383.1L776.9,383.1z M816.1,378c0,5.4-1.7,8-5.2,8
		c-1.6,0-2.9-0.2-3.9-0.7v-13.1c1.6-1.1,3.3-1.7,5-1.7C814.7,370.6,816.1,373.1,816.1,378L816.1,378L816.1,378z M803.3,359.9v27.3
		c2.1,1.3,4.6,2,7.5,2c6,0,9.1-4,9.1-11.9c0-3.1-0.7-5.5-2.1-7.2c-1.4-1.7-3.1-2.6-5.2-2.6c-1.1,0-2.1,0.2-3.2,0.7
		c-1.1,0.4-1.9,0.9-2.4,1.3v-9.5H803.3L803.3,359.9z M839.1,387.5l-0.9-2.5c-1.7,0.8-3.5,1.1-5.4,1.1c-1.9,0-3.3-0.7-4.3-2.2
		c-1-1.4-1.5-3.3-1.5-5.7H839c0.4-1.5,0.6-2.7,0.6-3.7c0-2.1-0.6-3.8-1.8-5.1c-1.2-1.3-3-1.9-5.3-1.9c-2.8,0-4.9,1-6.5,3
		c-1.6,2-2.4,4.6-2.4,7.7c0,3.2,0.7,5.8,2.2,7.9c1.5,2.1,3.8,3.1,6.8,3.1C835,389.2,837.1,388.6,839.1,387.5L839.1,387.5
		L839.1,387.5z M836.2,375.6l-8.9-0.1c0.2-0.9,0.6-1.9,1.2-3c0.4-0.6,0.9-1,1.6-1.4c0.7-0.4,1.6-0.6,2.6-0.6c1.1,0,1.9,0.4,2.5,1.3
		c0.6,0.8,0.9,2,0.9,3.5V375.6L836.2,375.6z M845.1,369.6c-1.2,1.4-1.8,3.2-1.8,5.4c0,1.4,0.3,2.8,0.9,3.9c0.6,1.2,1.5,2.1,2.6,2.7
		c-1.1,1.4-1.6,2.6-1.6,3.7c0,1.1,0.4,2,1.1,2.5c-2.5,1.3-3.8,3-3.8,5.2c0,1.7,0.7,3,2.1,3.9c1.4,0.9,3.5,1.4,6.2,1.4
		c2.7,0,5-0.7,6.7-2s2.6-3.1,2.6-5.3c0-1.6-0.5-2.8-1.6-3.7c-1.1-0.9-2.6-1.3-4.6-1.3h-3.8c-1.4,0-2.2-0.5-2.2-1.4
		c0-0.6,0.2-1.4,0.7-2.4c0.7,0.1,1.4,0.2,2.1,0.2c2.4,0,4.2-0.7,5.5-2.1c1.3-1.4,1.9-3.1,1.9-5.2c0-2.1-0.5-3.7-1.6-5
		c1.8-0.2,3.3-0.5,4.3-0.7l-0.5-2.3c-2.2,0.4-4.3,0.6-6.4,0.6l-3.4-0.2C848.2,367.5,846.4,368.2,845.1,369.6L845.1,369.6z
		 M853.8,371.4c0.6,0.8,0.9,1.9,0.9,3.5c0,3-1.3,4.6-4,4.6c-2.7,0-4-1.5-4-4.6c0-3.1,1.3-4.6,4-4.6
		C852.1,370.3,853.2,370.7,853.8,371.4L853.8,371.4z M856,389.7c0.5,0.3,0.8,0.9,0.8,1.6c0,1.3-0.5,2.2-1.5,3
		c-1,0.7-2.4,1.1-4.1,1.1c-1.7,0-3-0.2-4-0.7c-0.9-0.5-1.4-1.2-1.4-2.2c0-1.6,0.8-2.7,2.3-3.3h5C854.5,389.2,855.5,389.3,856,389.7
		L856,389.7z M871.8,388.6c1.1-0.4,1.9-0.9,2.5-1.5c0.7,1.4,1.7,2.1,3.2,2.1c1.5,0,2.7-0.3,3.6-0.9l-0.6-2.3
		c-0.8,0.2-1.4,0.4-1.8,0.4c-0.7,0-1-0.5-1-1.4v-10c0-2.7-0.5-4.6-1.6-5.8c-1.1-1.1-3-1.7-5.6-1.7c-1,0-2.1,0.2-3.4,0.5
		c-1.3,0.3-2.3,0.7-3.1,1.2l0.9,2.6c2.1-0.7,3.9-1.1,5.4-1.1c1.5,0,2.5,0.3,3.1,0.9c0.5,0.6,0.8,1.7,0.8,3.3v3.2
		c-1.3-0.1-2.8-0.2-4.3-0.2c-1.6,0-3,0.3-4.5,1c-0.8,0.4-1.4,1-1.9,1.8c-0.5,0.8-0.7,1.8-0.7,2.9c0,1.8,0.5,3.1,1.6,4.2
		c1.1,1,2.5,1.6,4.2,1.6C869.5,389.2,870.7,389,871.8,388.6L871.8,388.6z M866,383.1c0-2.1,1.6-3.2,4.8-3.2c1.5,0,2.5,0.1,3.2,0.2
		v4.8c-1.5,1-3.2,1.5-4.9,1.5C867,386.3,866,385.2,866,383.1L866,383.1L866,383.1z M898.5,369.3c-0.8-1.2-2.2-1.8-4.3-1.8
		c-1.2,0-2.5,0.3-3.8,0.9c-1.3,0.6-2.3,1.3-3.1,2l-0.4-2.5h-3.1v20.7h3.7v-15.3c0.7-0.8,1.6-1.4,2.7-1.9s2.2-0.8,3.2-0.8
		s1.7,0.4,2,1.1c0.3,0.7,0.5,1.7,0.5,3v14h3.7v-14.2C899.7,372.2,899.3,370.5,898.5,369.3L898.5,369.3z M921.6,388.6
		c1.1-0.4,1.9-0.9,2.5-1.5c0.7,1.4,1.7,2.1,3.2,2.1c1.5,0,2.7-0.3,3.6-0.9l-0.6-2.3c-0.8,0.2-1.4,0.4-1.8,0.4c-0.7,0-1-0.5-1-1.4
		v-10c0-2.7-0.5-4.6-1.6-5.8c-1.1-1.1-3-1.7-5.6-1.7c-1,0-2.1,0.2-3.4,0.5c-1.3,0.3-2.3,0.7-3.1,1.2l0.9,2.6
		c2.1-0.7,3.9-1.1,5.4-1.1c1.5,0,2.5,0.3,3.1,0.9c0.5,0.6,0.8,1.7,0.8,3.3v3.2c-1.3-0.1-2.8-0.2-4.3-0.2c-1.6,0-3,0.3-4.5,1
		c-0.8,0.4-1.4,1-1.9,1.8c-0.5,0.8-0.7,1.8-0.7,2.9c0,1.8,0.5,3.1,1.6,4.2c1.1,1,2.5,1.6,4.2,1.6C919.4,389.2,920.5,389,921.6,388.6
		L921.6,388.6z M915.8,383.1c0-2.1,1.6-3.2,4.8-3.2c1.5,0,2.5,0.1,3.2,0.2v4.8c-1.5,1-3.2,1.5-4.9,1.5
		C916.9,386.3,915.8,385.2,915.8,383.1L915.8,383.1L915.8,383.1z M932.5,387.7c0.6,0.4,1.4,0.8,2.6,1.1c1.2,0.3,2.3,0.5,3.5,0.5
		c2.5,0,4.4-0.6,5.7-1.9c1.3-1.3,2-2.8,2-4.6c0-1.2-0.3-2.3-1-3.1s-1.5-1.4-2.5-1.8c-1-0.4-1.9-0.8-2.9-1.1c-1-0.3-1.8-0.8-2.5-1.3
		c-0.7-0.5-1-1.2-1-2.1s0.3-1.5,1-2c0.7-0.5,1.7-0.7,3-0.7c1.3,0,2.8,0.3,4.4,0.8l0.9-2.7c-1.4-0.8-3.2-1.2-5.4-1.2
		c-2.2,0-4,0.6-5.3,1.7c-1.3,1.1-2,2.6-2,4.4c0,1.3,0.3,2.3,1,3.1c0.7,0.8,1.5,1.4,2.5,1.8c1,0.4,1.9,0.7,2.9,1.1
		c1,0.3,1.8,0.8,2.4,1.4c0.7,0.6,1,1.3,1,2.1c0,0.8-0.3,1.5-1,2.1c-0.7,0.6-1.8,0.8-3.3,0.8s-3.2-0.4-5-1.2L932.5,387.7L932.5,387.7
		z M967,388.6c1.1-0.4,1.9-0.9,2.5-1.5c0.7,1.4,1.7,2.1,3.2,2.1c1.5,0,2.7-0.3,3.6-0.9l-0.6-2.3c-0.8,0.2-1.4,0.4-1.8,0.4
		c-0.7,0-1-0.5-1-1.4v-10c0-2.7-0.5-4.6-1.6-5.8c-1.1-1.1-3-1.7-5.6-1.7c-1,0-2.1,0.2-3.4,0.5c-1.3,0.3-2.3,0.7-3.1,1.2l0.9,2.6
		c2.1-0.7,3.9-1.1,5.4-1.1c1.5,0,2.5,0.3,3.1,0.9c0.5,0.6,0.8,1.7,0.8,3.3v3.2c-1.3-0.1-2.8-0.2-4.3-0.2s-3,0.3-4.5,1
		c-0.8,0.4-1.4,1-1.9,1.8c-0.5,0.8-0.7,1.8-0.7,2.9c0,1.8,0.5,3.1,1.6,4.2c1.1,1,2.5,1.6,4.2,1.6C964.8,389.2,966,389,967,388.6
		L967,388.6z M961.2,383.1c0-2.1,1.6-3.2,4.8-3.2c1.5,0,2.5,0.1,3.2,0.2v4.8c-1.5,1-3.2,1.5-4.9,1.5
		C962.3,386.3,961.2,385.2,961.2,383.1L961.2,383.1L961.2,383.1z M987.8,384.5c0,3.1,1.4,4.7,4.1,4.7c1.6,0,3-0.3,4.1-0.8l-0.6-2.7
		c-0.8,0.3-1.7,0.4-2.4,0.4c-1,0-1.5-0.5-1.5-1.6v-24.5h-3.7V384.5L987.8,384.5z M1013.2,387.5l-0.9-2.5c-1.7,0.8-3.5,1.1-5.4,1.1
		c-1.9,0-3.3-0.7-4.3-2.2c-1-1.4-1.5-3.3-1.5-5.7h12.1c0.4-1.5,0.6-2.7,0.6-3.7c0-2.1-0.6-3.8-1.8-5.1c-1.2-1.3-3-1.9-5.3-1.9
		c-2.8,0-4.9,1-6.5,3s-2.4,4.6-2.4,7.7c0,3.2,0.7,5.8,2.2,7.9c1.5,2.1,3.8,3.1,6.8,3.1C1009.1,389.2,1011.2,388.6,1013.2,387.5
		L1013.2,387.5L1013.2,387.5z M1010.4,375.6l-8.9-0.1c0.2-0.9,0.6-1.9,1.2-3c0.4-0.6,0.9-1,1.6-1.4c0.7-0.4,1.6-0.6,2.6-0.6
		c1.1,0,1.9,0.4,2.5,1.3c0.6,0.8,0.9,2,0.9,3.5V375.6L1010.4,375.6z M1025.9,388.6c1.1-0.4,1.9-0.9,2.5-1.5c0.7,1.4,1.7,2.1,3.2,2.1
		c1.5,0,2.7-0.3,3.6-0.9l-0.6-2.3c-0.8,0.2-1.4,0.4-1.8,0.4c-0.6,0-1-0.5-1-1.4v-10c0-2.7-0.6-4.6-1.6-5.8c-1.1-1.1-3-1.7-5.6-1.7
		c-1,0-2.1,0.2-3.4,0.5c-1.3,0.3-2.3,0.7-3.1,1.2l0.9,2.6c2.1-0.7,3.9-1.1,5.4-1.1c1.5,0,2.5,0.3,3.1,0.9c0.5,0.6,0.8,1.7,0.8,3.3
		v3.2c-1.3-0.1-2.8-0.2-4.4-0.2c-1.6,0-3.1,0.3-4.5,1c-0.8,0.4-1.4,1-1.9,1.8c-0.5,0.8-0.7,1.8-0.7,2.9c0,1.8,0.5,3.1,1.6,4.2
		c1.1,1,2.5,1.6,4.2,1.6C1023.7,389.2,1024.8,389,1025.9,388.6L1025.9,388.6z M1020.1,383.1c0-2.1,1.6-3.2,4.8-3.2
		c1.5,0,2.5,0.1,3.2,0.2v4.8c-1.5,1-3.2,1.5-4.9,1.5C1021.2,386.3,1020.1,385.2,1020.1,383.1L1020.1,383.1L1020.1,383.1z
		 M1041.7,373.8c1.1-2.2,3.1-3.2,6.1-3.2c0.5,0,0.8,0,1.1,0l0.7-3c-0.4-0.1-1-0.2-1.8-0.2c-1.4,0-2.7,0.4-3.9,1.1
		c-1.1,0.8-1.9,1.5-2.4,2.4l-0.4-3.1h-3.1v20.7h3.7V373.8L1041.7,373.8z M1067.5,369.3c-0.8-1.2-2.2-1.8-4.3-1.8
		c-1.2,0-2.4,0.3-3.8,0.9c-1.3,0.6-2.3,1.3-3.1,2l-0.4-2.5h-3.1v20.7h3.7v-15.3c0.7-0.8,1.6-1.4,2.7-1.9c1.2-0.5,2.2-0.8,3.2-0.8
		c1,0,1.7,0.4,2,1.1c0.3,0.7,0.5,1.7,0.5,3v14h3.7v-14.2C1068.7,372.2,1068.3,370.5,1067.5,369.3L1067.5,369.3z M1077.8,367.7
		l-3.7,0.4v20.6h3.7V367.7L1077.8,367.7z M1074.1,363.6c0.5,0.5,1.1,0.8,1.8,0.8c0.7,0,1.3-0.3,1.7-0.8c0.5-0.5,0.7-1.1,0.7-1.8
		c0-0.7-0.2-1.3-0.7-1.7c-0.5-0.5-1.1-0.7-1.7-0.7c-0.7,0-1.3,0.2-1.8,0.7c-0.5,0.5-0.7,1.1-0.7,1.7
		C1073.3,362.5,1073.6,363.1,1074.1,363.6L1074.1,363.6z M1098,369.3c-0.8-1.2-2.2-1.8-4.3-1.8c-1.2,0-2.4,0.3-3.8,0.9
		c-1.3,0.6-2.3,1.3-3.1,2l-0.4-2.5h-3.1v20.7h3.7v-15.3c0.7-0.8,1.6-1.4,2.7-1.9c1.2-0.5,2.2-0.8,3.2-0.8c1,0,1.7,0.4,2,1.1
		c0.3,0.7,0.5,1.7,0.5,3v14h3.7v-14.2C1099.2,372.2,1098.8,370.5,1098,369.3L1098,369.3z M1105.7,369.6c-1.2,1.4-1.9,3.2-1.9,5.4
		c0,1.4,0.3,2.8,0.9,3.9c0.6,1.2,1.5,2.1,2.6,2.7c-1.1,1.4-1.6,2.6-1.6,3.7c0,1.1,0.3,2,1.1,2.5c-2.5,1.3-3.8,3-3.8,5.2
		c0,1.7,0.7,3,2.1,3.9c1.4,0.9,3.5,1.4,6.2,1.4s5-0.7,6.7-2s2.6-3.1,2.6-5.3c0-1.6-0.5-2.8-1.6-3.7c-1.1-0.9-2.6-1.3-4.6-1.3h-3.8
		c-1.4,0-2.2-0.5-2.2-1.4c0-0.6,0.2-1.4,0.7-2.4c0.7,0.1,1.4,0.2,2.1,0.2c2.4,0,4.2-0.7,5.5-2.1c1.2-1.4,1.9-3.1,1.9-5.2
		c0-2.1-0.5-3.7-1.6-5c1.8-0.2,3.3-0.5,4.3-0.7l-0.5-2.3c-2.2,0.4-4.3,0.6-6.4,0.6l-3.4-0.2C1108.7,367.5,1106.9,368.2,1105.7,369.6
		L1105.7,369.6z M1114.3,371.4c0.6,0.8,0.9,1.9,0.9,3.5c0,3-1.3,4.6-4,4.6c-2.7,0-4-1.5-4-4.6c0-3.1,1.3-4.6,4-4.6
		C1112.7,370.3,1113.7,370.7,1114.3,371.4L1114.3,371.4z M1116.6,389.7c0.5,0.3,0.8,0.9,0.8,1.6c0,1.3-0.5,2.2-1.5,3
		c-1,0.7-2.4,1.1-4.1,1.1c-1.7,0-3-0.2-4-0.7c-0.9-0.5-1.4-1.2-1.4-2.2c0-1.6,0.8-2.7,2.3-3.3h5
		C1115.1,389.2,1116,389.3,1116.6,389.7L1116.6,389.7z M1147.6,387.5l-0.9-2.5c-1.7,0.8-3.5,1.1-5.4,1.1c-1.9,0-3.3-0.7-4.3-2.2
		c-1-1.4-1.5-3.3-1.5-5.7h12.1c0.4-1.5,0.6-2.7,0.6-3.7c0-2.1-0.6-3.8-1.8-5.1c-1.2-1.3-3-1.9-5.3-1.9c-2.8,0-4.9,1-6.5,3
		c-1.6,2-2.4,4.6-2.4,7.7c0,3.2,0.8,5.8,2.2,7.9c1.5,2.1,3.8,3.1,6.8,3.1C1143.5,389.2,1145.6,388.6,1147.6,387.5L1147.6,387.5
		L1147.6,387.5z M1144.8,375.6l-8.9-0.1c0.2-0.9,0.6-1.9,1.2-3c0.4-0.6,0.9-1,1.6-1.4c0.7-0.4,1.6-0.6,2.6-0.6
		c1.1,0,1.9,0.4,2.5,1.3c0.6,0.8,0.9,2,0.9,3.5V375.6L1144.8,375.6z M1163.8,367.9l-4.3,7.1l-4.3-7.1h-4.3l6.6,9.8l-7.4,11h4.3
		l5-8.3l4.9,8.3h4.2l-7.2-10.9l6.6-9.8H1163.8L1163.8,367.9z M1185.6,387.5l-1-2.5c-1.7,0.8-3.5,1.1-5.4,1.1c-1.9,0-3.3-0.7-4.3-2.2
		c-1-1.4-1.5-3.3-1.5-5.7h12.1c0.4-1.5,0.6-2.7,0.6-3.7c0-2.1-0.6-3.8-1.8-5.1c-1.2-1.3-3-1.9-5.3-1.9c-2.8,0-4.9,1-6.5,3
		c-1.6,2-2.4,4.6-2.4,7.7c0,3.2,0.7,5.8,2.2,7.9c1.5,2.1,3.8,3.1,6.8,3.1C1181.5,389.2,1183.7,388.6,1185.6,387.5L1185.6,387.5
		L1185.6,387.5z M1182.8,375.6l-8.9-0.1c0.2-0.9,0.6-1.9,1.2-3c0.4-0.6,0.9-1,1.6-1.4c0.7-0.4,1.6-0.6,2.7-0.6
		c1.1,0,1.9,0.4,2.5,1.3c0.6,0.8,0.9,2,0.9,3.5V375.6L1182.8,375.6z M1194.3,373.8c1.1-2.2,3.1-3.2,6.1-3.2c0.5,0,0.8,0,1.1,0l0.7-3
		c-0.4-0.1-1-0.2-1.8-0.2c-1.4,0-2.7,0.4-3.9,1.1c-1.1,0.8-1.9,1.5-2.4,2.4l-0.4-3.1h-3.1v20.7h3.7V373.8L1194.3,373.8z M1218,388.3
		l-0.6-2.7c-1.3,0.4-2.6,0.5-3.8,0.5c-4.2,0-6.4-2.6-6.4-7.7c0-2.7,0.5-4.7,1.6-5.9c1.1-1.2,2.4-1.8,4-1.8c1.2,0,2.4,0.2,3.9,0.7
		l1.1-2.6c-1.5-0.8-3.2-1.2-5.1-1.2c-2.6,0-4.8,0.9-6.6,2.7c-1.8,1.8-2.7,4.5-2.7,8.2c0,3.6,0.9,6.3,2.7,8.2
		c1.8,1.8,4.1,2.7,6.8,2.7C1214.6,389.3,1216.2,388.9,1218,388.3L1218,388.3L1218,388.3z M1225.9,367.7l-3.7,0.4v20.6h3.7V367.7
		L1225.9,367.7z M1222.2,363.6c0.5,0.5,1.1,0.8,1.8,0.8c0.7,0,1.3-0.3,1.7-0.8c0.5-0.5,0.7-1.1,0.7-1.8c0-0.7-0.2-1.3-0.7-1.7
		c-0.5-0.5-1.1-0.7-1.7-0.7c-0.7,0-1.3,0.2-1.8,0.7c-0.5,0.5-0.7,1.1-0.7,1.7C1221.4,362.5,1221.7,363.1,1222.2,363.6L1222.2,363.6z
		 M1230.2,387.7c0.6,0.4,1.4,0.8,2.6,1.1c1.2,0.3,2.3,0.5,3.5,0.5c2.5,0,4.4-0.6,5.7-1.9c1.3-1.3,2-2.8,2-4.6c0-1.2-0.3-2.3-1-3.1
		c-0.7-0.8-1.5-1.4-2.5-1.8c-1-0.4-1.9-0.8-2.9-1.1c-1-0.3-1.8-0.8-2.5-1.3c-0.7-0.5-1-1.2-1-2.1s0.3-1.5,1-2c0.7-0.5,1.7-0.7,3-0.7
		c1.3,0,2.8,0.3,4.4,0.8l0.9-2.7c-1.4-0.8-3.2-1.2-5.4-1.2c-2.2,0-4,0.6-5.3,1.7c-1.3,1.1-2,2.6-2,4.4c0,1.3,0.3,2.3,1,3.1
		c0.7,0.8,1.5,1.4,2.5,1.8c1,0.4,1.9,0.7,2.9,1.1c0.9,0.3,1.8,0.8,2.4,1.4c0.7,0.6,1,1.3,1,2.1c0,0.8-0.4,1.5-1,2.1
		c-0.7,0.6-1.8,0.8-3.3,0.8c-1.5,0-3.2-0.4-5-1.2L1230.2,387.7L1230.2,387.7z M1262.8,387.5l-0.9-2.5c-1.7,0.8-3.5,1.1-5.4,1.1
		s-3.3-0.7-4.3-2.2c-1-1.4-1.5-3.3-1.5-5.7h12.1c0.4-1.5,0.6-2.7,0.6-3.7c0-2.1-0.6-3.8-1.8-5.1c-1.2-1.3-3-1.9-5.3-1.9
		c-2.8,0-4.9,1-6.5,3c-1.6,2-2.4,4.6-2.4,7.7c0,3.2,0.7,5.8,2.2,7.9c1.5,2.1,3.8,3.1,6.8,3.1
		C1258.7,389.2,1260.8,388.6,1262.8,387.5L1262.8,387.5L1262.8,387.5z M1260,375.6l-8.9-0.1c0.2-0.9,0.6-1.9,1.2-3
		c0.4-0.6,0.9-1,1.6-1.4c0.7-0.4,1.6-0.6,2.7-0.6c1.1,0,1.9,0.4,2.5,1.3c0.6,0.8,0.9,2,0.9,3.5V375.6L1260,375.6z"/>
	<path d="M652,365.3L641.9,376v2.8l10.1,10.6l3.4-3l-8.7-9l8.7-9.1L652,365.3L652,365.3z M639.6,365.3L629.5,376v2.8l10.1,10.6
		l3.4-3l-8.8-9l8.8-9.1L639.6,365.3L639.6,365.3z"/>
	<path d="M1021.7,707.7l3.4,3l10.1-10.6v-2.8l-10.1-10.6l-3.4,3l8.7,9.1L1021.7,707.7L1021.7,707.7z M1034.1,707.7l3.4,3l10.1-10.6
		v-2.8l-10.1-10.6l-3.4,3l8.8,9.1L1034.1,707.7L1034.1,707.7z"/>
	<path d="M682.7,783.1l0.6,17.1h3.2l-1.1-24h-4l-6.6,17.8l-6.6-17.8h-4l-1.1,24h3.2l0.6-17.1c0-0.5,0-1,0-1.5c0-0.5,0-1,0-1.5
		l6.6,17.5h2.7l6.6-17.5c0,0.5,0,1,0,1.5C682.7,782.1,682.7,782.6,682.7,783.1L682.7,783.1L682.7,783.1z M706.6,800.2h3.5l-7.9-24
		h-3.9l-7.9,24h3.5l2.1-6.2h8.5L706.6,800.2L706.6,800.2z M696.9,791.3l3.4-11.9l3.5,11.9H696.9L696.9,791.3z M727.6,778.1
		c-0.8-0.7-1.8-1.3-2.8-1.6c-1.1-0.3-2.5-0.4-4.4-0.4h-5.7v24h3.5v-9.3h1.3c0.8,0,1.4,0,1.8,0l7.5,10l2.6-1.8l-6.6-8.7
		c1-0.3,1.9-0.7,2.7-1.3c1.5-1.2,2.3-3.1,2.3-5.8C729.7,781.1,729,779.4,727.6,778.1L727.6,778.1L727.6,778.1z M719.5,788h-1.4v-9.3
		h1.9c2.4,0,4.1,0.4,4.9,1.3c0.8,0.8,1.2,2,1.2,3.6c0,1.6-0.5,2.8-1.5,3.5C723.9,787.7,722.2,788,719.5,788L719.5,788L719.5,788z
		 M740.1,800.2h3.4v-21h6.3v-3.1h-15.9v3.1h6.3V800.2L740.1,800.2z M754.8,776.1v24h3.5v-24H754.8L754.8,776.1z M759.4,767.6
		l-5.8,4.4l1.3,2l6.2-3.7L759.4,767.6L759.4,767.6z M783.4,776.1h-3.3v16.5c0,1.1,0,2.1,0.1,3l-11.4-19.5h-3.5v24h3.3v-16.5
		c0-1.1,0-2.1-0.1-3l11.4,19.5h3.5V776.1L783.4,776.1z M810.8,789.1c-0.7-0.6-1.3-1.1-1.9-1.5c-0.6-0.4-1.5-0.9-2.8-1.6
		c-1.2-0.7-2.3-1.3-3-1.9c-0.8-0.6-1.2-1.4-1.2-2.3c0-0.9,0.3-1.6,1-2.2c0.7-0.6,1.7-0.8,3.1-0.8c1.4,0,3,0.3,4.8,1l0.9-2.9
		c-2.1-0.8-4.1-1.2-6.1-1.2c-2,0-3.7,0.6-5,1.7c-1.4,1.1-2.1,2.6-2.1,4.6c0,1.9,0.6,3.4,1.8,4.5c0.6,0.6,1.2,1,1.7,1.3
		c0.5,0.3,1.4,0.8,2.8,1.5c1.4,0.7,2.5,1.4,3.4,2.1c0.9,0.7,1.3,1.6,1.3,2.7c0,1.1-0.4,1.9-1.2,2.6c-0.8,0.7-2,1-3.5,1
		s-3.5-0.5-5.9-1.4l-0.9,3.1c0.8,0.4,2,0.7,3.3,1c1.4,0.3,2.7,0.4,3.9,0.4c2.3,0,4.1-0.6,5.5-1.9c1.4-1.3,2.1-2.9,2.1-4.8
		C812.9,791.9,812.2,790.3,810.8,789.1L810.8,789.1L810.8,789.1z M819.7,779.5c-1.4,2.4-2.1,5.2-2.1,8.6c0,3.4,0.7,6.3,2.1,8.6
		c0.7,1.2,1.7,2.1,2.9,2.8c1.2,0.7,2.7,1,4.3,1c1.7,0,3.1-0.3,4.4-1c1.2-0.7,2.2-1.7,3-2.9c1.4-2.4,2.1-5.3,2.1-8.6
		c0-3.4-0.7-6.3-2.1-8.6c-0.7-1.2-1.7-2.1-2.9-2.8c-1.2-0.7-2.7-1-4.4-1s-3.1,0.3-4.3,1C821.4,777.4,820.4,778.3,819.7,779.5
		L819.7,779.5L819.7,779.5z M821.1,788.1c0-2.8,0.5-5.1,1.4-6.8c0.9-1.7,2.4-2.6,4.4-2.6c2,0,3.5,0.9,4.4,2.6c0.9,1.7,1.4,4,1.4,6.8
		c0,2.8-0.5,5.1-1.4,6.8c-0.9,1.8-2.4,2.6-4.4,2.6c-2,0-3.5-0.9-4.4-2.6C821.5,793.2,821.1,790.9,821.1,788.1L821.1,788.1z
		 M861.5,783.1l0.6,17.1h3.2l-1.1-24h-4l-6.6,17.8l-6.6-17.8h-4l-1.1,24h3.2l0.6-17.1c0-0.5,0-1,0-1.5c0-0.5,0-1,0-1.5l6.6,17.5h2.7
		l6.6-17.5c0,0.5,0,1,0,1.5C861.4,782.1,861.4,782.6,861.5,783.1L861.5,783.1L861.5,783.1z M890.9,783.1l0.6,17.1h3.2l-1.1-24h-4
		l-6.6,17.8l-6.6-17.8h-4l-1.1,24h3.2l0.6-17.1c0-0.5,0-1,0-1.5c0-0.5,0-1,0-1.5l6.6,17.5h2.7l6.6-17.5c0,0.5,0,1,0,1.5
		C890.9,782.1,890.9,782.6,890.9,783.1L890.9,783.1L890.9,783.1z M914.9,800.2h3.5l-7.9-24h-3.9l-7.9,24h3.5l2.1-6.2h8.5
		L914.9,800.2L914.9,800.2z M905.1,791.3l3.4-11.9l3.5,11.9H905.1L905.1,791.3z M935.8,778.1c-0.8-0.7-1.8-1.3-2.8-1.6
		c-1.1-0.3-2.5-0.4-4.4-0.4h-5.7v24h3.5v-9.3h1.3c0.8,0,1.4,0,1.8,0l7.5,10l2.6-1.8l-6.6-8.7c1-0.3,1.9-0.7,2.7-1.3
		c1.5-1.2,2.3-3.1,2.3-5.8C937.9,781.1,937.2,779.4,935.8,778.1L935.8,778.1L935.8,778.1z M927.7,788h-1.4v-9.3h1.9
		c2.4,0,4.1,0.4,4.9,1.3c0.8,0.8,1.2,2,1.2,3.6c0,1.6-0.5,2.8-1.5,3.5C932.1,787.7,930.4,788,927.7,788L927.7,788L927.7,788z
		 M946.2,797.9c1.4,1.8,3.6,2.8,6.7,2.7c3.1,0,5.3-0.9,6.6-2.7c1.1-1.5,1.6-3.7,1.6-6.5v-15.2h-3.5v14.7c0,2.4-0.3,4.1-1,5
		c-0.7,1.1-2,1.7-3.9,1.7s-3.2-0.6-3.8-1.7c-0.6-0.8-0.9-2.5-0.9-5v-14.7h-3.5v15.2C944.6,794.2,945.1,796.3,946.2,797.9
		L946.2,797.9L946.2,797.9z M977.6,778.6c1.3,0,2.8,0.2,4.4,0.5l0.7-2.7c-2-0.6-3.9-0.8-5.7-0.8c-3.1,0-5.6,1-7.4,3
		c-1.8,2-2.7,5.1-2.7,9.5c0,2.2,0.3,4.1,0.8,5.8c0.5,1.7,1.3,3,2.2,3.9c1.8,1.9,4.1,2.8,6.8,2.8c2.3,0,4.6-0.7,6.9-2.2v-10.3h-7.3
		v2.9h4v5.8c-1.1,0.5-2.3,0.8-3.5,0.8c-1.8,0-3.4-0.8-4.6-2.3c-1.2-1.6-1.9-4-1.9-7.4c0-3.3,0.6-5.7,1.9-7.1
		C973.7,779.3,975.4,778.6,977.6,778.6L977.6,778.6L977.6,778.6z M1003.6,800.2h3.5l-7.9-24h-3.9l-7.9,24h3.5l2.1-6.2h8.5
		L1003.6,800.2L1003.6,800.2z M993.8,791.3l3.4-11.9l3.5,11.9H993.8L993.8,791.3z"/>
	<path d="M250.1,551.6l21.9,30.8l12-7.3L265,549.3c2.3-0.9,4.3-2,6-3.3c5-3.8,7.5-9.9,7.5-18.4c0-6.9-2.3-12.4-6.8-16.4
		c-2.6-2.4-5.6-4-8.9-5c-3.4-1-7.8-1.4-13.4-1.4h-21.4v73.9H244v-27h2.8C248.3,551.7,249.4,551.7,250.1,551.6L250.1,551.6
		L250.1,551.6z M245.2,540H244v-23.5h2.9c6.6,0,11,1,13.1,3c2.1,2,3.2,5.1,3.2,9.2c0,4.2-1.3,7.1-3.9,8.9
		C257.2,539.2,252.5,540,245.2,540L245.2,540L245.2,540z M340.9,567.7c-1.8,0.4-3.1,0.7-4.1,0.7c-1.8,0-2.8-1-2.8-3.1V542
		c0-7.7-1.6-13.2-4.8-16.4c-3.2-3.2-8.6-4.8-16.1-4.8c-2.8,0-6.2,0.4-10.1,1.3c-3.9,0.8-7.3,2.1-10,3.7l3.2,9.7
		c4.6-1.5,8.8-2.3,12.6-2.3c3.7,0,6.4,0.6,7.9,1.7c1.6,1.1,2.3,3.6,2.3,7.4v5.4c-2.7-0.2-6.2-0.3-10.6-0.3c-4.4,0-8.6,1-12.7,2.9
		c-2.2,1.1-4,2.8-5.4,5.2c-1.4,2.4-2.1,5.2-2.1,8.5c0,5,1.5,9,4.4,11.9c3,2.9,7.3,4.4,13.1,4.4c5.8,0,10.8-1.8,15.1-5.3
		c2.1,3.4,5.4,5.1,9.9,5.1c4.5,0,8.6-1,12.3-3.1L340.9,567.7L340.9,567.7z M302.6,562.2c0-4.7,3.7-7.1,11-7.1c1.5,0,3.4,0.1,5.4,0.2
		V567c-3,1.9-6,2.9-9.1,2.9C305,569.9,302.6,567.3,302.6,562.2L302.6,562.2L302.6,562.2z M362.8,528.3l-1.3-6.3h-12.7v56.8h15.5
		v-41.1c2.9-2.7,6.4-4.1,10.5-4.1c1.6,0,2.9,0.2,3.9,0.7c2,0.9,3,3.7,3,8.4v36.1h15.5V540c0-1,0-1.8-0.1-2.3
		c2.9-2.7,6.4-4.1,10.5-4.1c1.6,0,2.9,0.2,3.9,0.7c2,0.9,3,3.7,3,8.4v36.1h15.5v-38.9c0-6.1-1.1-10.7-3.4-14
		c-2.3-3.3-6.6-4.9-12.9-4.9c-3.5,0-6.9,0.8-10.4,2.3c-3.4,1.5-6.1,3.3-8.1,5.4c-1.3-2.6-2.9-4.5-5-5.8c-2.1-1.3-5-1.9-8.7-1.9
		c-3.8,0-7.3,0.7-10.7,2.2C367.3,524.6,364.7,526.3,362.8,528.3L362.8,528.3L362.8,528.3z M441.7,501.1v75.2c2.3,1,5.8,1.9,10.4,2.7
		c4.6,0.8,9,1.2,13.1,1.2c9.4,0,16.3-2.8,20.6-8.4c4.3-5.6,6.4-13.6,6.4-24.2c0-8.6-2-15.1-5.9-19.8c-3.9-4.6-8.9-6.9-14.9-6.9
		c-2.7,0-5.3,0.5-7.9,1.4c-2.6,0.9-4.7,2-6.3,3.3v-24.5H441.7L441.7,501.1z M457.2,567.1v-30.6c3.2-2,6.5-3,9.7-3
		c3.2,0,5.7,1.2,7.3,3.5c1.6,2.4,2.4,6.5,2.4,12.4c0,5.9-1,10.4-3,13.5c-2,3.1-5.5,4.6-10.6,4.6
		C461.1,567.7,459.2,567.5,457.2,567.1L457.2,567.1L457.2,567.1z M528.7,566.9c-2.1,0.5-4.1,0.8-6,0.8c-1.9,0-3.2-0.4-3.8-1.3
		c-0.6-0.9-0.9-2.4-0.9-4.5v-60.6h-15.6v59.7c0,2.4,0.1,4.3,0.2,5.7c0.1,1.4,0.5,3,1.1,5c0.6,2,1.5,3.5,2.6,4.5c1.1,1,2.9,2,5.1,2.8
		c2.3,0.8,5.2,1.2,8.7,1.2c3.5,0,7.2-0.8,11-2.4L528.7,566.9L528.7,566.9z M588.4,567.7c-1.8,0.4-3.1,0.7-4.1,0.7
		c-1.8,0-2.8-1-2.8-3.1V542c0-7.7-1.6-13.2-4.8-16.4c-3.2-3.2-8.6-4.8-16.1-4.8c-2.8,0-6.2,0.4-10.1,1.3c-3.9,0.8-7.3,2.1-10,3.7
		l3.2,9.7c4.6-1.5,8.8-2.3,12.6-2.3c3.7,0,6.4,0.6,7.9,1.7c1.5,1.1,2.3,3.6,2.3,7.4v5.4c-2.7-0.2-6.2-0.3-10.6-0.3
		c-4.4,0-8.6,1-12.7,2.9c-2.2,1.1-4,2.8-5.4,5.2c-1.4,2.4-2.1,5.2-2.1,8.5c0,5,1.5,9,4.4,11.9c3,2.9,7.3,4.4,13.1,4.4
		c5.8,0,10.8-1.8,15.1-5.3c2.1,3.4,5.4,5.1,9.9,5.1c4.5,0,8.6-1,12.3-3.1L588.4,567.7L588.4,567.7z M550.1,562.2
		c0-4.7,3.7-7.1,11-7.1c1.5,0,3.4,0.1,5.4,0.2V567c-3,1.9-6,2.9-9.1,2.9C552.5,569.9,550.1,567.3,550.1,562.2L550.1,562.2
		L550.1,562.2z"/>
</g>
</svg>
