<svg id="Ebene_1" data-name="Ebene 1" xmlns="http://www.w3.org/2000/svg" xmlns:xlink="http://www.w3.org/1999/xlink" viewBox="0 0 595.28 255.12"><defs><style>.cls-1,.cls-5{fill:none;}.cls-2{fill:#03785d;}.cls-3{clip-path:url(#clip-path);}.cls-4{fill:#fff;}.cls-5{stroke:#fff;stroke-width:2px;}</style><clipPath id="clip-path"><rect class="cls-1" x="-5.67" y="-3.5" width="606.61" height="258.62"/></clipPath></defs><title>Zeichenfläche 1</title><rect class="cls-2" width="595.28" height="255.12"/><g class="cls-3"><path class="cls-4" d="M402.74,172.47h8.9a1.64,1.64,0,0,0,1.8-1.4l7.9-29.8c.06-.26.2-.4.4-.4s.33.14.4.4l8.6,29.9a1.7,1.7,0,0,0,1.8,1.3h8.9a1.71,1.71,0,0,0,1.8-1.3l14.2-47.9a1.34,1.34,0,0,0-1.4-1.8l-8.6-.1a1.64,1.64,0,0,0-1.8,1.4l-8.6,32.9c-.07.27-.2.4-.4.4s-.34-.13-.4-.4l-8.8-32.9a1.64,1.64,0,0,0-1.8-1.4h-7.7a1.64,1.64,0,0,0-1.8,1.4l-8.5,32.8c-.07.27-.2.4-.4.4s-.34-.13-.4-.4l-8.2-32.8a1.59,1.59,0,0,0-1.7-1.4h-8.7a1.61,1.61,0,0,0-1.1.35,1.2,1.2,0,0,0-.4,1,1.06,1.06,0,0,0,.1.5l14.1,48a1.7,1.7,0,0,0,1.8,1.3m-47.8-9.2a10.63,10.63,0,0,1-6.65-2.1,10.93,10.93,0,0,1-3.85-5.9,35.78,35.78,0,0,1,0-16.8,10.88,10.88,0,0,1,3.8-5.85,10.46,10.46,0,0,1,6.5-2.05,10.71,10.71,0,0,1,6.55,2.05,10.83,10.83,0,0,1,3.85,5.85,31.19,31.19,0,0,1,1,8.4,26.5,26.5,0,0,1-1.1,8.4,11.32,11.32,0,0,1-3.75,5.9,9.93,9.93,0,0,1-6.35,2.1m0,10a22.11,22.11,0,0,0,13.3-4.05,21.53,21.53,0,0,0,7.9-11.15,36,36,0,0,0,1.7-11.4,32.47,32.47,0,0,0-1.8-11.4,20.87,20.87,0,0,0-7.85-10.8,22.3,22.3,0,0,0-13.15-3.9,23.66,23.66,0,0,0-13.7,3.9,20.55,20.55,0,0,0-8,10.9,37.33,37.33,0,0,0-1.6,11.4,34.54,34.54,0,0,0,1.7,11.4,20.46,20.46,0,0,0,7.9,11.1,23,23,0,0,0,13.6,4m-48.4-.8h8.4a1.42,1.42,0,0,0,1.6-1.6v-66.8a1.42,1.42,0,0,0-1.6-1.6h-8.4a1.42,1.42,0,0,0-1.6,1.6v66.8a1.41,1.41,0,0,0,1.6,1.6M287,120.77a13.21,13.21,0,0,0-11.6,6.3c-.14.27-.27.37-.4.3s-.2-.23-.2-.5V123a1.42,1.42,0,0,0-1.6-1.6h-8.4a1.42,1.42,0,0,0-1.6,1.6v47.9a1.41,1.41,0,0,0,1.6,1.6h8.4a1.42,1.42,0,0,0,1.6-1.6V143a9.58,9.58,0,0,1,2.8-7.15,10.36,10.36,0,0,1,7-2.95,15.25,15.25,0,0,1,1.9-.1,10.63,10.63,0,0,1,3.2.4,2.16,2.16,0,0,0,1.35,0c.3-.13.48-.46.55-1l1.6-8.3a1.63,1.63,0,0,0-.9-2,12.63,12.63,0,0,0-5.3-1.1m-62.8,43.3a10.06,10.06,0,0,1-6.1-1.75,5.75,5.75,0,0,1-2.4-4.95,6.4,6.4,0,0,1,3.1-5.7,15.4,15.4,0,0,1,8.4-2h8.3a.53.53,0,0,1,.6.6v4.6a7.91,7.91,0,0,1-3.5,6.6,13.63,13.63,0,0,1-8.4,2.6m2.3-43.5q-8.5,0-14.25,3.8t-6.65,9.8a.83.83,0,0,0,.3.85,2.13,2.13,0,0,0,1.2.45l9,1.1a1.59,1.59,0,0,0,1.8-1.3,6.4,6.4,0,0,1,3.1-3.45,12.09,12.09,0,0,1,5.8-1.25c3.07,0,5.38.72,6.95,2.15a7.78,7.78,0,0,1,2.35,6.05v2.3a.53.53,0,0,1-.6.6h-10.6q-9.9,0-15.35,4.35t-5.45,12.15q0,7.5,4.75,11.3t12.15,3.8q9,0,14.4-5.2a.69.69,0,0,1,.5-.15c.13,0,.2.19.2.45v2.5a1.41,1.41,0,0,0,1.6,1.6h8.4a1.41,1.41,0,0,0,1.6-1.6v-33.3a15.32,15.32,0,0,0-2.6-8.75,17.45,17.45,0,0,0-7.45-6,26.83,26.83,0,0,0-11.15-2.2m-57.8,41.8h-14.2a.53.53,0,0,1-.6-.6v-19.6a.53.53,0,0,1,.6-.6h14a12.23,12.23,0,0,1,8.4,2.75A9.7,9.7,0,0,1,180,152a9.81,9.81,0,0,1-3,7.6,11.7,11.7,0,0,1-8.25,2.8m-14.2-49.9h13.4c3.53,0,6.32.89,8.35,2.65a9.13,9.13,0,0,1,3.05,7.25,8.7,8.7,0,0,1-3.05,7c-2,1.7-4.82,2.55-8.35,2.55h-13.4a.53.53,0,0,1-.6-.6v-18.3a.53.53,0,0,1,.6-.6m27.1,23.4q9-4.2,9-14.5,0-9.5-5.9-14.2t-16.8-4.7h-24a1.42,1.42,0,0,0-1.6,1.6v66.8a1.41,1.41,0,0,0,1.6,1.6h24.8q10.2,0,16.55-4.95t6.35-14.45q0-11.59-10-16.4c-.27-.13-.4-.28-.4-.45s.13-.28.4-.35"/><path class="cls-4" d="M387.65,75.88a4.15,4.15,0,0,1-2.59-.81,4.33,4.33,0,0,1-1.51-2.31,13.95,13.95,0,0,1,0-6.55A4.21,4.21,0,0,1,385,63.93a4.07,4.07,0,0,1,2.53-.8,4,4,0,0,1,4.06,3.08,12,12,0,0,1,.39,3.28,10.44,10.44,0,0,1-.43,3.27,4.51,4.51,0,0,1-1.46,2.31,3.91,3.91,0,0,1-2.48.81m0,3.9a8.59,8.59,0,0,0,5.19-1.58,8.42,8.42,0,0,0,3.08-4.34,14.1,14.1,0,0,0,.66-4.45,12.64,12.64,0,0,0-.7-4.45,8.18,8.18,0,0,0-3.06-4.21,8.75,8.75,0,0,0-5.13-1.52,9.3,9.3,0,0,0-5.35,1.52A8.05,8.05,0,0,0,379.22,65a14.81,14.81,0,0,0-.62,4.45,13.67,13.67,0,0,0,.66,4.45,8.06,8.06,0,0,0,3.08,4.32,9,9,0,0,0,5.31,1.56M375.52,62.59V60.17a.55.55,0,0,0-.62-.63h-3.79a.2.2,0,0,1-.23-.23V54.94a.55.55,0,0,0-.62-.62h-3.09a.55.55,0,0,0-.62.62v4.37a.2.2,0,0,1-.23.23h-2a.56.56,0,0,0-.63.63v2.42a.55.55,0,0,0,.63.62h2a.21.21,0,0,1,.23.23V74.36c0,2,.55,3.29,1.56,4a8,8,0,0,0,4.6,1.07l1.87,0a.59.59,0,0,0,.63-.66V76.12a.56.56,0,0,0-.63-.63h-1a2.76,2.76,0,0,1-2.05-.66,3.05,3.05,0,0,1-.64-2.18V63.44a.21.21,0,0,1,.23-.23h3.79a.55.55,0,0,0,.62-.62m-31.36.54a4.15,4.15,0,0,1,2.6.8,3.83,3.83,0,0,1,1.38,2.17,12.65,12.65,0,0,1,.24,1.4c0,.16-.08.23-.24.23H340.3c-.15,0-.22-.07-.19-.23a5.61,5.61,0,0,1,.31-1.64,3.58,3.58,0,0,1,1.31-2,3.92,3.92,0,0,1,2.43-.72M344.94,76a5.44,5.44,0,0,1-3-.78A3.92,3.92,0,0,1,340.3,73a5.46,5.46,0,0,1-.23-1.72.21.21,0,0,1,.23-.23h12.09a.56.56,0,0,0,.63-.63,29.11,29.11,0,0,0-.28-3.19q-1.25-8-8.54-8a8.6,8.6,0,0,0-5.3,1.64A7.89,7.89,0,0,0,336,65.28a15.59,15.59,0,0,0-.42,4.13,14.12,14.12,0,0,0,.78,4.84,8.15,8.15,0,0,0,3,4.07,8.74,8.74,0,0,0,5.17,1.46,9.51,9.51,0,0,0,4.48-1A7.82,7.82,0,0,0,352.08,76a.67.67,0,0,0,.12-.35.8.8,0,0,0-.27-.51l-1.88-1.48a.54.54,0,0,0-.35-.11.56.56,0,0,0-.5.31,4.88,4.88,0,0,1-1.74,1.54,5.55,5.55,0,0,1-2.52.6M325,59.23a7.63,7.63,0,0,0-3.36.74,5.78,5.78,0,0,0-2.42,2.23c0,.1-.07.15-.13.15a.21.21,0,0,1-.18-.12,5.28,5.28,0,0,0-2.2-2.24,7,7,0,0,0-3.34-.76,6,6,0,0,0-4.91,2.07q-.08.15-.18.12a.2.2,0,0,1-.09-.2v-1a.56.56,0,0,0-.63-.63h-3.27a.56.56,0,0,0-.63.63V78.85a.55.55,0,0,0,.63.62h3.27a.55.55,0,0,0,.63-.62V66.33A3.47,3.47,0,0,1,309.32,64a3.51,3.51,0,0,1,2.44-.86,3.35,3.35,0,0,1,2.57,1.05,4.05,4.05,0,0,1,1,2.85V78.85a.55.55,0,0,0,.63.62h3.24a.55.55,0,0,0,.62-.62V67a3.92,3.92,0,0,1,1-2.81,3.49,3.49,0,0,1,2.62-1.05A3.29,3.29,0,0,1,326,64.18a4.1,4.1,0,0,1,1,2.85V78.85a.55.55,0,0,0,.62.62h3.24a.55.55,0,0,0,.62-.62V66.1A7.13,7.13,0,0,0,329.72,61a6.17,6.17,0,0,0-4.7-1.81M290.46,75.88a4.17,4.17,0,0,1-2.59-.81,4.26,4.26,0,0,1-1.5-2.31,13.95,13.95,0,0,1,0-6.55,4.19,4.19,0,0,1,1.48-2.28,4.09,4.09,0,0,1,2.53-.8,4,4,0,0,1,4.06,3.08,12,12,0,0,1,.39,3.28,10.15,10.15,0,0,1-.43,3.27,4.44,4.44,0,0,1-1.46,2.31,3.91,3.91,0,0,1-2.48.81m0,3.9a8.59,8.59,0,0,0,5.19-1.58,8.42,8.42,0,0,0,3.08-4.34,14.1,14.1,0,0,0,.66-4.45,12.64,12.64,0,0,0-.7-4.45,8.18,8.18,0,0,0-3.06-4.21,8.71,8.71,0,0,0-5.13-1.52,9.25,9.25,0,0,0-5.34,1.52A8.05,8.05,0,0,0,282,65a14.49,14.49,0,0,0-.63,4.45,13.39,13.39,0,0,0,.67,4.45,8,8,0,0,0,3.08,4.32,9,9,0,0,0,5.3,1.56m-20.71,0a9.53,9.53,0,0,0,5.31-1.46,6.93,6.93,0,0,0,3-4,6,6,0,0,0,.16-.93c0-.29-.17-.47-.51-.55l-3.24-.51a.61.61,0,0,0-.49.16.78.78,0,0,0-.25.39l0,.2a3.4,3.4,0,0,1-1.38,2,4.3,4.3,0,0,1-2.56.76,4,4,0,0,1-2.53-.79,4.13,4.13,0,0,1-1.41-2.17,14.15,14.15,0,0,1-.35-3.47,12.13,12.13,0,0,1,.39-3.47,3.7,3.7,0,0,1,1.39-2.09,4.15,4.15,0,0,1,2.51-.76,4.33,4.33,0,0,1,2.62.8,3.36,3.36,0,0,1,1.36,2l.12.51a.54.54,0,0,0,.54.47h.16l3.24-.51c.33-.08.5-.26.5-.55v-.15a6.5,6.5,0,0,0-.23-1.1,7.29,7.29,0,0,0-3-3.82,9.33,9.33,0,0,0-5.31-1.52,9,9,0,0,0-5.2,1.5,7.59,7.59,0,0,0-3,4.08,14.4,14.4,0,0,0-.62,4.6,14.51,14.51,0,0,0,.62,4.68,8,8,0,0,0,3.05,4.15l2.18,1.54Zm-17.12-.31h3.28a.55.55,0,0,0,.62-.62v-26a.55.55,0,0,0-.62-.63h-3.28a.55.55,0,0,0-.62.63V78.85a.55.55,0,0,0,.62.62M239,63.13a4.15,4.15,0,0,1,2.6.8A3.88,3.88,0,0,1,243,66.1a11.31,11.31,0,0,1,.23,1.4c0,.16-.07.23-.23.23h-7.84c-.15,0-.22-.07-.19-.23a5.61,5.61,0,0,1,.31-1.64,3.62,3.62,0,0,1,1.3-2,4,4,0,0,1,2.44-.72M239.76,76a5.44,5.44,0,0,1-3-.78A3.87,3.87,0,0,1,235.12,73a5.46,5.46,0,0,1-.23-1.72.21.21,0,0,1,.23-.23h12.09a.56.56,0,0,0,.63-.63,31.83,31.83,0,0,0-.28-3.19q-1.25-8-8.54-8a8.58,8.58,0,0,0-5.3,1.64,7.89,7.89,0,0,0-2.93,4.41,15.51,15.51,0,0,0-.43,4.13,14.12,14.12,0,0,0,.78,4.84,8.16,8.16,0,0,0,3,4.07,8.73,8.73,0,0,0,5.16,1.46,9.55,9.55,0,0,0,4.49-1A7.82,7.82,0,0,0,246.9,76a.67.67,0,0,0,.12-.35.77.77,0,0,0-.28-.51l-1.87-1.48a.54.54,0,0,0-.35-.11.58.58,0,0,0-.51.31,4.76,4.76,0,0,1-1.73,1.54,5.58,5.58,0,0,1-2.52.6M205.4,79.47h3.16a.62.62,0,0,0,.67-.54l4.32-18.37c0-.11.08-.16.16-.16s.13.05.16.16l4.52,18.37a.62.62,0,0,0,.66.54h3.4a.64.64,0,0,0,.7-.54l6.63-26.06a.6.6,0,0,0-.06-.5.51.51,0,0,0-.45-.2h-3.35a.62.62,0,0,0-.67.55l-4.32,17.55c0,.1-.08.15-.16.15s-.13,0-.16-.15l-4.44-17.55a.64.64,0,0,0-.7-.55H212a.62.62,0,0,0-.67.55l-4.17,17.55c0,.1-.08.15-.16.15s-.13,0-.15-.15L202.4,52.72a.62.62,0,0,0-.66-.55h-3.51a.63.63,0,0,0-.43.14.44.44,0,0,0-.16.37.49.49,0,0,0,0,.19l7,26.06a.64.64,0,0,0,.7.54"/><path class="cls-5" d="M32.68,4.5S4.34,4.5,4.34,32.85V222.27s0,28.35,28.34,28.35H562.59s28.35,0,28.35-28.35V32.85s0-28.35-28.35-28.35Z"/></g></svg>