<svg id="Ebene_1" data-name="Ebene 1" xmlns="http://www.w3.org/2000/svg" xmlns:xlink="http://www.w3.org/1999/xlink" viewBox="0 0 595.28 255.12"><defs><style>.cls-1,.cls-5{fill:none;}.cls-2{fill:#dbede4;}.cls-3{clip-path:url(#clip-path);}.cls-4{fill:#03785d;}.cls-5{stroke:#03785d;stroke-width:2px;}</style><clipPath id="clip-path"><rect class="cls-1" x="-5.67" y="-3.56" width="606.61" height="258.62"/></clipPath></defs><title>Zeichenfläche 1 Kopie</title><rect class="cls-2" y="-0.06" width="595.28" height="255.12"/><g class="cls-3"><path class="cls-4" d="M392.37,58.5a7.79,7.79,0,0,1-4.72-1.36,4.65,4.65,0,0,1-1.84-4,5.17,5.17,0,0,1,2.36-4.51A10.86,10.86,0,0,1,394.43,47h6.19a.19.19,0,0,1,.21.21v4.94a5.3,5.3,0,0,1-2.52,4.66,10.39,10.39,0,0,1-5.94,1.69m1.57-25.71a11.79,11.79,0,0,0-6.67,1.76,7,7,0,0,0-3.2,4.64c-.07.32.13.52.6.59l1.68.22c.4.07.65-.11.76-.54a4.68,4.68,0,0,1,2.22-3,8.53,8.53,0,0,1,4.56-1.12q3.58,0,5.26,1.77A6.73,6.73,0,0,1,400.83,42v2.44c0,.15-.07.22-.21.22h-6.51q-5.22,0-8.19,2.33a7.64,7.64,0,0,0-3,6.35q0,4,2.55,5.83A10.43,10.43,0,0,0,391.83,61a14,14,0,0,0,5-.89,8.84,8.84,0,0,0,3.74-2.63c.07-.08.14-.09.19-.06a.17.17,0,0,1,.08.16v2.34a.62.62,0,0,0,.19.46.66.66,0,0,0,.46.19h1.58a.65.65,0,0,0,.65-.65v-18a9,9,0,0,0-2.5-6.65q-2.49-2.46-7.27-2.46m-21.1,27.77h1.58a.65.65,0,0,0,.65-.65v-26a.66.66,0,0,0-.19-.46.62.62,0,0,0-.46-.19h-1.58a.62.62,0,0,0-.46.19.66.66,0,0,0-.19.46v26a.65.65,0,0,0,.65.65m.76-32.82a2.44,2.44,0,0,0,1.79-.68,2.27,2.27,0,0,0,.71-1.71,2.2,2.2,0,0,0-.71-1.68,2.79,2.79,0,0,0-3.58,0,2.2,2.2,0,0,0-.7,1.68,2.26,2.26,0,0,0,.7,1.71,2.45,2.45,0,0,0,1.79.68m-20.17,5.1a10.4,10.4,0,0,0-4.53.95,7.76,7.76,0,0,0-3.18,2.74c0,.07-.08.1-.13.08s-.08-.08-.08-.19V33.87a.66.66,0,0,0-.19-.46.62.62,0,0,0-.46-.19h-1.58a.65.65,0,0,0-.65.65v26a.62.62,0,0,0,.19.46.66.66,0,0,0,.46.19h1.58a.65.65,0,0,0,.65-.65V42.55a7,7,0,0,1,2-5.18,7.25,7.25,0,0,1,5.32-2,6.69,6.69,0,0,1,5,2,7.23,7.23,0,0,1,2,5.24V59.91a.62.62,0,0,0,.19.46.64.64,0,0,0,.46.19h1.57a.66.66,0,0,0,.46-.19.62.62,0,0,0,.19-.46V42.11a8.76,8.76,0,0,0-9.27-9.27m-20,.16a7.54,7.54,0,0,0-4.25,1.2,8.8,8.8,0,0,0-3,3.3c0,.11-.08.16-.14.14s-.08-.08-.08-.19V33.87a.62.62,0,0,0-.19-.46.6.6,0,0,0-.46-.19h-1.57a.6.6,0,0,0-.46.19.62.62,0,0,0-.19.46v26a.62.62,0,0,0,.19.46.64.64,0,0,0,.46.19h1.57a.64.64,0,0,0,.46-.19.62.62,0,0,0,.19-.46V43.85a8,8,0,0,1,2-5.5A6.56,6.56,0,0,1,333,36a7.29,7.29,0,0,1,2.6.33c.44.18.71.05.82-.38l.43-1.58a.6.6,0,0,0-.32-.81,7.83,7.83,0,0,0-3.1-.6M303.85,58.44a7.83,7.83,0,0,1-5-1.57,7.15,7.15,0,0,1-2.6-4.23,31.32,31.32,0,0,1-.33-5.75,31.32,31.32,0,0,1,.33-5.75,7.15,7.15,0,0,1,2.6-4.23,7.74,7.74,0,0,1,4.93-1.58,7.88,7.88,0,0,1,5,1.58,7.19,7.19,0,0,1,2.63,4.23,31.63,31.63,0,0,1,.32,5.75,32.7,32.7,0,0,1-.32,5.75,7.19,7.19,0,0,1-2.63,4.23,7.78,7.78,0,0,1-4.91,1.57m0,2.55a10.77,10.77,0,0,0,6.54-2,9.61,9.61,0,0,0,3.66-5.37,28.29,28.29,0,0,0,.59-6.78,28,28,0,0,0-.59-6.72,9.66,9.66,0,0,0-3.66-5.32,11.77,11.77,0,0,0-13.1,0,9.78,9.78,0,0,0-3.69,5.34,29,29,0,0,0-.6,6.72,25.76,25.76,0,0,0,.65,6.78A9.91,9.91,0,0,0,297.31,59a10.6,10.6,0,0,0,6.54,2M287.74,25.14h1.08a.64.64,0,0,0,.46-.19.62.62,0,0,0,.19-.46V23.24a.65.65,0,0,0-.65-.65h-1.3a10.51,10.51,0,0,0-5,.95,5.28,5.28,0,0,0-2.5,2.84,14.74,14.74,0,0,0-.73,5.1V33a.19.19,0,0,1-.22.22h-3.47a.65.65,0,0,0-.65.65v1.36a.62.62,0,0,0,.19.46.66.66,0,0,0,.46.19h3.47c.15,0,.22.07.22.21V59.91a.62.62,0,0,0,.19.46.66.66,0,0,0,.46.19h1.58a.65.65,0,0,0,.65-.65V36.09a.19.19,0,0,1,.21-.21h6.24a.66.66,0,0,0,.46-.19.62.62,0,0,0,.19-.46V33.87a.65.65,0,0,0-.65-.65h-6.24c-.14,0-.21-.07-.21-.22V31.59c0-2.28.38-3.92,1.16-4.93s2.23-1.52,4.37-1.52m-22,35.42h1.57a.66.66,0,0,0,.46-.19.62.62,0,0,0,.19-.46v-26a.65.65,0,0,0-.65-.65h-1.57a.6.6,0,0,0-.46.19.62.62,0,0,0-.19.46v26a.62.62,0,0,0,.19.46.64.64,0,0,0,.46.19m.76-32.82a2.45,2.45,0,0,0,1.79-.68,2.26,2.26,0,0,0,.7-1.71,2.2,2.2,0,0,0-.7-1.68,2.79,2.79,0,0,0-3.58,0,2.2,2.2,0,0,0-.71,1.68,2.27,2.27,0,0,0,.71,1.71,2.44,2.44,0,0,0,1.79.68M253,60.56h1.57a.64.64,0,0,0,.46-.19.62.62,0,0,0,.19-.46V23.24a.65.65,0,0,0-.65-.65H253a.62.62,0,0,0-.46.19.6.6,0,0,0-.19.46V59.91a.62.62,0,0,0,.19.46.66.66,0,0,0,.46.19M232.36,58.5a7.79,7.79,0,0,1-4.72-1.36,4.65,4.65,0,0,1-1.84-4,5.19,5.19,0,0,1,2.35-4.51A10.92,10.92,0,0,1,234.42,47h6.18c.15,0,.22.07.22.21v4.94a5.3,5.3,0,0,1-2.52,4.66,10.39,10.39,0,0,1-5.94,1.69m1.57-25.71a11.79,11.79,0,0,0-6.67,1.76,7,7,0,0,0-3.2,4.64c-.07.32.13.52.6.59l1.68.22c.4.07.65-.11.76-.54a4.68,4.68,0,0,1,2.22-3,8.51,8.51,0,0,1,4.56-1.12c2.38,0,4.14.59,5.26,1.77A6.73,6.73,0,0,1,240.82,42v2.44a.19.19,0,0,1-.22.22h-6.51q-5.21,0-8.19,2.33a7.63,7.63,0,0,0-3,6.35q0,4,2.55,5.83A10.41,10.41,0,0,0,231.82,61a14,14,0,0,0,5-.89,8.84,8.84,0,0,0,3.74-2.63c.07-.08.13-.09.19-.06a.19.19,0,0,1,.08.16v2.34a.62.62,0,0,0,.19.46.66.66,0,0,0,.46.19H243a.68.68,0,0,0,.47-.19.66.66,0,0,0,.19-.46v-18a9,9,0,0,0-2.5-6.65c-1.66-1.64-4.09-2.46-7.27-2.46M204.37,61.05a13.75,13.75,0,0,0,6.45-1.47,10.66,10.66,0,0,0,4.37-4.09,11.74,11.74,0,0,0,1.55-6.05v-.27c0-.18-.22-.27-.65-.27l-1.58-.06c-.43,0-.65.2-.65.6a8.68,8.68,0,0,1-2.6,6.56,9.56,9.56,0,0,1-6.89,2.5,9.67,9.67,0,0,1-6.92-2.5,8.63,8.63,0,0,1-2.63-6.56V33.71a8.59,8.59,0,0,1,2.61-6.54,10.91,10.91,0,0,1,13.83,0,8.62,8.62,0,0,1,2.6,6.54V34c0,.22.22.33.65.33l1.58-.06a.62.62,0,0,0,.46-.19.64.64,0,0,0,.19-.46,11.58,11.58,0,0,0-1.55-6,10.55,10.55,0,0,0-4.37-4,15.16,15.16,0,0,0-13,0,10.6,10.6,0,0,0-4.37,4.09A11.85,11.85,0,0,0,192,33.82V49.27a12.12,12.12,0,0,0,1.54,6.16,10.54,10.54,0,0,0,4.37,4.15,13.88,13.88,0,0,0,6.51,1.47"/><path class="cls-4" d="M364,241.12h3.66a.58.58,0,0,0,.6-.42l4.62-14.4a.42.42,0,0,0,0-.41.45.45,0,0,0-.39-.16l-3.54,0a.57.57,0,0,0-.57.45l-2.4,9q0,.12-.12.12t-.12-.12l-2.4-9a.57.57,0,0,0-.57-.45h-3.54a.48.48,0,0,0-.33.1.37.37,0,0,0-.12.29.42.42,0,0,0,0,.18l4.65,14.43a.57.57,0,0,0,.57.42m-13.44-3.39a2.58,2.58,0,0,1-1.73-.6,3.28,3.28,0,0,1-1-1.65,8,8,0,0,1-.24-2.1,8.12,8.12,0,0,1,.24-2.13,3.15,3.15,0,0,1,1-1.59,2.55,2.55,0,0,1,1.68-.57,2.6,2.6,0,0,1,1.71.57,3.15,3.15,0,0,1,1,1.59,8.12,8.12,0,0,1,.24,2.13,7.58,7.58,0,0,1-.24,2.1,3.33,3.33,0,0,1-1,1.65,2.43,2.43,0,0,1-1.65.6m0,3.63A6.92,6.92,0,0,0,354.8,240a6.85,6.85,0,0,0,2.48-3.67,11.77,11.77,0,0,0,.39-3,10.15,10.15,0,0,0-.45-3.15,6.54,6.54,0,0,0-2.45-3.45,7,7,0,0,0-4.21-1.26,7.34,7.34,0,0,0-4.34,1.26,6.47,6.47,0,0,0-2.47,3.48,10.08,10.08,0,0,0-.45,3.18,10.68,10.68,0,0,0,.42,3.06,6.59,6.59,0,0,0,2.46,3.6,7.15,7.15,0,0,0,4.35,1.32m-14.34-5.61a2.45,2.45,0,0,1-2.46,1.77,2.66,2.66,0,0,1-1.61-.5,2.57,2.57,0,0,1-.94-1.3,7.68,7.68,0,0,1,.06-4.83,2.91,2.91,0,0,1,.93-1.31,2.4,2.4,0,0,1,1.53-.49,2.44,2.44,0,0,1,1.56.49,2.72,2.72,0,0,1,.9,1.31,4.8,4.8,0,0,1,.21,1,13.14,13.14,0,0,1,.06,1.44,10,10,0,0,1-.24,2.46m.24-9.54v.51q0,.12-.06.15s-.09,0-.15-.06a4.57,4.57,0,0,0-3.51-1.35,5.69,5.69,0,0,0-3.48,1.11,6,6,0,0,0-2.13,2.94,11.24,11.24,0,0,0-.54,3.81,11.76,11.76,0,0,0,.45,3.57,5.21,5.21,0,0,0,2.32,3,7.06,7.06,0,0,0,3.59.95,4.28,4.28,0,0,0,3.3-1.2c.06-.06.11-.09.15-.08s.06.05.06.11a3.28,3.28,0,0,1-1,2.7,4.57,4.57,0,0,1-2.95.84,14.17,14.17,0,0,1-1.83-.15.45.45,0,0,0-.41.07.46.46,0,0,0-.16.38l-.12,2.79q0,.51.45.54a19.25,19.25,0,0,0,2.25.15,9.42,9.42,0,0,0,5.79-1.68q2.25-1.68,2.25-5.61V226.21a.45.45,0,0,0-.51-.51h-3.21a.45.45,0,0,0-.51.51m-14.79,15a2.78,2.78,0,0,0,2-.77,2.44,2.44,0,0,0,.81-1.84,2.39,2.39,0,0,0-.84-1.82,2.8,2.8,0,0,0-1.95-.76,2.73,2.73,0,0,0-1.89.76,2.39,2.39,0,0,0-.84,1.82,2.48,2.48,0,0,0,.78,1.84,2.68,2.68,0,0,0,1.95.77m-12.66-3a2.43,2.43,0,0,1-1.55-.47,1.53,1.53,0,0,1-.58-1.27,1.62,1.62,0,0,1,.78-1.44,3.86,3.86,0,0,1,2.13-.51h2.13a.16.16,0,0,1,.18.18v1.05a2.14,2.14,0,0,1-.9,1.77,3.49,3.49,0,0,1-2.19.69m.6-12.75a9,9,0,0,0-3.23.55,5.89,5.89,0,0,0-2.34,1.55,4,4,0,0,0-1,2.22.27.27,0,0,0,.1.28.78.78,0,0,0,.38.14l3.33.42a.57.57,0,0,0,.6-.39,1.57,1.57,0,0,1,.79-.84,3.27,3.27,0,0,1,1.49-.3,2.56,2.56,0,0,1,1.78.55,2,2,0,0,1,.62,1.55v.63a.16.16,0,0,1-.18.18h-3a7.32,7.32,0,0,0-4.62,1.27,4.31,4.31,0,0,0-1.62,3.59,4.07,4.07,0,0,0,1.41,3.36,5.74,5.74,0,0,0,3.72,1.14,5.25,5.25,0,0,0,4.11-1.53c.06-.06.11-.09.15-.08s.06.06.06.14v.72a.45.45,0,0,0,.51.51h3.21a.45.45,0,0,0,.51-.51v-10a4.32,4.32,0,0,0-.86-2.61,5.74,5.74,0,0,0-2.38-1.85,8.54,8.54,0,0,0-3.48-.67m-15.51,15.9a7.68,7.68,0,0,0,4.18-1.14,5.6,5.6,0,0,0,2.45-3.15,2.79,2.79,0,0,0,.15-.69.49.49,0,0,0-.08-.36.56.56,0,0,0-.34-.21l-3.15-.48a.46.46,0,0,0-.39.13.67.67,0,0,0-.21.29l0,.15a2.53,2.53,0,0,1-1,1.33,2.76,2.76,0,0,1-1.63.5,2.55,2.55,0,0,1-2.58-1.92,8.05,8.05,0,0,1-.3-2.46,7.37,7.37,0,0,1,.33-2.46,2.54,2.54,0,0,1,.93-1.32,2.68,2.68,0,0,1,1.62-.48,2.88,2.88,0,0,1,1.71.51,2.28,2.28,0,0,1,.93,1.29l.09.42a.39.39,0,0,0,.42.36l.15,0,3.15-.48q.45-.09.45-.48v-.06a3.34,3.34,0,0,0-.24-.93,5.76,5.76,0,0,0-2.42-3,8,8,0,0,0-8.38,0,6.23,6.23,0,0,0-2.49,3.21,10.64,10.64,0,0,0-.51,3.48,11,11,0,0,0,.51,3.54,6.54,6.54,0,0,0,2.5,3.3l1.76,1.2Zm-12.15-.12a2.78,2.78,0,0,0,2-.77,2.44,2.44,0,0,0,.81-1.84,2.39,2.39,0,0,0-.84-1.82,2.8,2.8,0,0,0-1.95-.76,2.73,2.73,0,0,0-1.89.76,2.39,2.39,0,0,0-.84,1.82,2.48,2.48,0,0,0,.78,1.84,2.68,2.68,0,0,0,1.95.77m-12.51-.12h3.66a.58.58,0,0,0,.6-.42l4.62-14.4a.42.42,0,0,0,0-.41.45.45,0,0,0-.39-.16l-3.54,0a.57.57,0,0,0-.57.45l-2.4,9q0,.12-.12.12t-.12-.12l-2.4-9a.57.57,0,0,0-.57-.45h-3.54a.48.48,0,0,0-.33.1.37.37,0,0,0-.12.29.42.42,0,0,0,0,.18l4.65,14.43a.57.57,0,0,0,.57.42m-12.36-15.66a5.21,5.21,0,0,0-2.52.6,4.58,4.58,0,0,0-1.8,1.8.22.22,0,0,1-.14.1c-.05,0-.08,0-.1-.1a4.17,4.17,0,0,0-1.71-1.79,5.3,5.3,0,0,0-2.61-.61,4.29,4.29,0,0,0-3.78,1.77c0,.08-.09.11-.14.09s-.07-.07-.07-.15v-1a.45.45,0,0,0-.51-.51h-3.21a.45.45,0,0,0-.51.51v14.4a.45.45,0,0,0,.51.51h3.21a.45.45,0,0,0,.51-.51v-9.36a2.4,2.4,0,0,1,.76-1.59,2.35,2.35,0,0,1,1.61-.57,2.19,2.19,0,0,1,1.71.73,2.8,2.8,0,0,1,.66,1.94v8.85a.45.45,0,0,0,.51.51h3.18a.45.45,0,0,0,.51-.51v-8.88a2.73,2.73,0,0,1,.66-1.92,2.21,2.21,0,0,1,1.71-.72,2.12,2.12,0,0,1,1.68.72,2.86,2.86,0,0,1,.63,1.95v8.85a.45.45,0,0,0,.51.51h3.21a.45.45,0,0,0,.51-.51v-9.78a5.57,5.57,0,0,0-1.32-4,4.77,4.77,0,0,0-3.66-1.41m-25.14,10.92a2.24,2.24,0,0,1-2,1.29,2.35,2.35,0,0,1-2.19-1.29,6.15,6.15,0,0,1-.63-2.94,6.07,6.07,0,0,1,.72-3.15,2.33,2.33,0,0,1,2.1-1.14,2.29,2.29,0,0,1,2,1.17,7.77,7.77,0,0,1,0,6.06m.63-15.75v6.18a.14.14,0,0,1-.08.15c-.05,0-.09,0-.13-.06a4.16,4.16,0,0,0-3.42-1.47,5.76,5.76,0,0,0-3.56,1.14,6.27,6.27,0,0,0-2.17,3.06,10.54,10.54,0,0,0-.57,3.72,10.9,10.9,0,0,0,.51,3.6,6.17,6.17,0,0,0,2.17,3.19,5.78,5.78,0,0,0,3.62,1.22,4.05,4.05,0,0,0,3.42-1.62c0-.06.08-.09.13-.08s.08.06.08.14v.81a.45.45,0,0,0,.51.51h3.21a.45.45,0,0,0,.51-.51v-20a.45.45,0,0,0-.51-.51h-3.21a.45.45,0,0,0-.51.51"/><path class="cls-4" d="M479,187.58h10.6a2.89,2.89,0,0,0,2.65-1.48l23.39-38.25c.3-.59.59-.59.89,0l23.39,38.25a2.88,2.88,0,0,0,2.65,1.48H553a2.42,2.42,0,0,0,1.4-.37,1.14,1.14,0,0,0,.51-1,2.16,2.16,0,0,0-.44-1.32L524.9,136.66a1.33,1.33,0,0,1,0-.88l29.58-48.56a2.67,2.67,0,0,0,.44-1.32,1.14,1.14,0,0,0-.51-1,2.42,2.42,0,0,0-1.4-.37H542.56a2.9,2.9,0,0,0-2.65,1.48l-23.39,38.4c-.3.59-.59.59-.89,0l-23.39-38.4a2.91,2.91,0,0,0-2.65-1.48H479a2.36,2.36,0,0,0-1.39.37,1.13,1.13,0,0,0-.52,1,2.67,2.67,0,0,0,.44,1.32l29.73,48.41a.77.77,0,0,1,0,.89l-29.73,48.41a2.16,2.16,0,0,0-.44,1.32,1.13,1.13,0,0,0,.52,1,2.36,2.36,0,0,0,1.39.37M459.13,142a24.8,24.8,0,0,0-9.93-14.42,30.4,30.4,0,0,0-17.73-5.15q-10.75,0-17.81,6c-.59.4-.88.25-.88-.44l.15-30.46a.64.64,0,0,1,.73-.73h40.91a2.22,2.22,0,0,0,1.62-.59,2.19,2.19,0,0,0,.58-1.62v-7.8a2,2,0,0,0-2.2-2.21H401a2,2,0,0,0-2.21,2.21V142.7a2,2,0,0,0,2.21,2.2h10.44a2.82,2.82,0,0,0,2.65-1.76,12.38,12.38,0,0,1,6-6.26,20.67,20.67,0,0,1,9.49-2.13,17.93,17.93,0,0,1,10.6,3,12.93,12.93,0,0,1,5.29,8.61,32.4,32.4,0,0,1,.89,9.27,23.79,23.79,0,0,1-1.18,8.24,16.12,16.12,0,0,1-5.44,9.12,15.47,15.47,0,0,1-10.16,3.38,15.91,15.91,0,0,1-10-3.16,15.56,15.56,0,0,1-5.59-8.61,9.31,9.31,0,0,1-.59-2.35,2.26,2.26,0,0,0-2.36-2.06H401c-1.48,0-2.21.68-2.21,2.06v.29a52.84,52.84,0,0,0,1.62,6.33,27.94,27.94,0,0,0,10.74,14.42q7.65,5.3,18.39,5.3a31.82,31.82,0,0,0,18.76-5.52A27.11,27.11,0,0,0,459,168.15a44.25,44.25,0,0,0,1.77-12.8A55,55,0,0,0,459.13,142m-163,45.62h9.71a2,2,0,0,0,2.21-2.21V110.62q0-.59.3-.66c.19,0,.39.07.58.36L328.76,143a2.89,2.89,0,0,0,2.65,1.47h4.71a2.88,2.88,0,0,0,2.64-1.47l20-32.67c.19-.29.39-.41.59-.36s.29.27.29.66v74.75a2.15,2.15,0,0,0,.59,1.62,2.19,2.19,0,0,0,1.62.59h9.71a2.22,2.22,0,0,0,1.62-.59,2.19,2.19,0,0,0,.59-1.62V86.78a2,2,0,0,0-2.21-2.21h-9.86a2.9,2.9,0,0,0-2.65,1.48L334.2,125.48c-.29.59-.59.59-.88,0L308.6,86.05A2.9,2.9,0,0,0,306,84.57h-9.86a2.19,2.19,0,0,0-1.62.59,2.22,2.22,0,0,0-.59,1.62v98.59a2,2,0,0,0,2.21,2.21m-40.61-32.67q0,9.71-5.81,15.67t-15.23,6q-9.42,0-15.23-6t-5.81-15.67V117.24q0-9.7,5.81-15.67t15.23-6q9.42,0,15.23,6t5.81,15.67Zm-21-71.51a37.64,37.64,0,0,0-18.39,4.34,30.92,30.92,0,0,0-12.36,12.14,36,36,0,0,0-4.42,18.1v37.08q0,13.09,7.43,22t19.94,11c.49.19.74.49.74.88v12.51a2,2,0,0,0,2.2,2.21h9.72a2,2,0,0,0,2.2-2.21V188.9c0-.39.25-.69.74-.88q12.51-2.07,19.94-11t7.43-22V118a36,36,0,0,0-4.42-18.1,30.92,30.92,0,0,0-12.36-12.14,37.67,37.67,0,0,0-18.39-4.34M137.91,187.58h10.6a2.4,2.4,0,0,0,2.5-1.77l33-87.7a10.71,10.71,0,0,0,.44-2.65V86.78a2.22,2.22,0,0,0-.59-1.62,2.19,2.19,0,0,0-1.62-.59h-59a2.19,2.19,0,0,0-1.62.59,2.22,2.22,0,0,0-.59,1.62v16.78a2.18,2.18,0,0,0,.59,1.61,2.15,2.15,0,0,0,1.62.59h7.36a2,2,0,0,0,2.2-2.2v-6a.65.65,0,0,1,.74-.73h35.17c.59,0,.78.29.59.88l-33,87.4c-.59,1.67-.06,2.51,1.61,2.51m-37.37-48.86q-5.9-13.83-20.9-15a1,1,0,0,1-.73-.44.48.48,0,0,1,.15-.59l22.51-24.57a3.79,3.79,0,0,0,1-2.79V86.78a2.22,2.22,0,0,0-.59-1.62,2.19,2.19,0,0,0-1.62-.59H44.77a2.19,2.19,0,0,0-1.62.59,2.22,2.22,0,0,0-.59,1.62v8a2.22,2.22,0,0,0,.59,1.62,2.19,2.19,0,0,0,1.62.58h39c.69,0,.79.3.3.89L59.34,124.16a3.17,3.17,0,0,0-.74,1.61,2.37,2.37,0,0,0,.59,1.48L63.9,133a2.56,2.56,0,0,0,1.77.89,2.36,2.36,0,0,0,1.32-.3,11.52,11.52,0,0,1,5.15-1.32q10.74,0,14.57,9.42a32.1,32.1,0,0,1,2.5,13.39,31.42,31.42,0,0,1-2.06,11.47,14.48,14.48,0,0,1-5.52,7.36,16.47,16.47,0,0,1-9.34,2.5,15.94,15.94,0,0,1-10-3.16,15.62,15.62,0,0,1-5.59-8.61,71.14,71.14,0,0,1-1.18-7.06,2,2,0,0,0-2.2-2.21H43.45a2,2,0,0,0-2.21,2.21,41.86,41.86,0,0,0,1.91,10.89A28.94,28.94,0,0,0,54,183.24a30.73,30.73,0,0,0,18.32,5.51q10.74,0,18.17-5a27.62,27.62,0,0,0,10.67-14,47.1,47.1,0,0,0,2.35-14.42,43.12,43.12,0,0,0-2.94-16.63"/><path class="cls-5" d="M32.68,4.44S4.34,4.44,4.34,32.78V222.21s0,28.34,28.34,28.34H562.59s28.35,0,28.35-28.34V32.78s0-28.34-28.35-28.34Z"/></g></svg>