<?xml version="1.0" encoding="utf-8"?>
<!-- Generator: Adobe Illustrator 21.1.0, SVG Export Plug-In . SVG Version: 6.00 Build 0)  -->
<svg version="1.1" id="Ebene_1" xmlns="http://www.w3.org/2000/svg" xmlns:xlink="http://www.w3.org/1999/xlink" x="0px" y="0px"
	 viewBox="0 0 1540 1080" style="enable-background:new 0 0 1540 1080;" xml:space="preserve">
<style type="text/css">
	.st0{fill:#010202;}
	.st1{font-family:'Raleway-Light';}
	.st2{font-size:150.865px;}
	.st3{letter-spacing:3;}
	.st4{letter-spacing:-9;}
	.st5{font-family:'Raleway-ExtraBold';}
	.st6{font-size:85.1032px;}
	.st7{letter-spacing:2;}
	.st8{font-family:'Raleway-Medium';}
	.st9{font-size:61.8933px;}
	.st10{letter-spacing:1;}
</style>
<g>
	<text transform="matrix(1 0 0 1 164 220.9888)" class="st0 st1 st2">R</text>
	<text transform="matrix(1 0 0 1 263.2734 220.9888)" class="st0 st1 st2 st3">ALEW</text>
	<text transform="matrix(1 0 0 1 705.3047 220.9888)" class="st0 st1 st2 st4">AY</text>
	<text transform="matrix(1 0 0 1 893.125 220.9888)" class="st0 st1 st2 st3"> IN USE</text>
	<text transform="matrix(1 0 0 1 164 425.2388)" class="st0 st5 st6 st7">I lik</text>
	<text transform="matrix(1 0 0 1 319.7344 425.2388)" class="st0 st5 st6 st7">e this </text>
	<text transform="matrix(1 0 0 1 580.4062 425.2388)" class="st0 st5 st6">fo</text>
	<text transform="matrix(1 0 0 1 667.9688 425.2388)" class="st0 st5 st6 st7">nt a lot.</text>
	<text transform="matrix(1 0 0 1 164 578.8091)" class="st0 st8 st9">Fo</text>
	<text transform="matrix(1 0 0 1 240.125 578.8091)" class="st0 st8 st9 st10">r </text>
	<text transform="matrix(1 0 0 1 281.7812 578.8091)" class="st0 st8 st9 st7">the body</text>
	<text transform="matrix(1 0 0 1 558.75 578.8091)" class="st0 st8 st9 st7"> te</text>
	<text transform="matrix(1 0 0 1 638.5312 578.8091)" class="st0 st8 st9 st7">xt medium is the best op-</text>
	<text transform="matrix(1 0 0 1 164 658.106)" class="st0 st8 st9 st7">tion. </text>
	<text transform="matrix(1 0 0 1 314.7734 658.106)" class="st0 st8 st9 st7">This </text>
	<text transform="matrix(1 0 0 1 462.1406 658.106)" class="st0 st8 st9 st10">fo</text>
	<text transform="matrix(1 0 0 1 524.6484 658.106)" class="st0 st8 st9 st7">nt has a reall</text>
	<text transform="matrix(1 0 0 1 926.7656 658.106)" class="st0 st8 st9">y </text>
	<text transform="matrix(1 0 0 1 979.4375 658.106)" class="st0 st8 st9 st7">special</text>
	<text transform="matrix(1 0 0 1 1201.1328 658.106)" class="st0 st8 st9"> W </text>
	<text transform="matrix(1 0 0 1 1300.4688 658.106)" class="st0 st8 st9 st7">and</text>
	<text transform="matrix(1 0 0 1 1415.1562 658.106)" class="st0 st8 st9"> </text>
	<text transform="matrix(1 0 0 1 164 737.4185)" class="st0 st8 st9 st7">small</text>
	<text transform="matrix(1 0 0 1 331.9766 737.4185)" class="st0 st8 st9 st7"> e. </text>
	<text transform="matrix(1 0 0 1 420.3594 737.4185)" class="st0 st8 st9 st7">Also the </text>
	<text transform="matrix(1 0 0 1 696.0938 737.4185)" class="st0 st8 st9">l </text>
	<text transform="matrix(1 0 0 1 732.5469 737.4185)" class="st0 st8 st9 st7">is diffr</text>
	<text transform="matrix(1 0 0 1 930.1719 737.4185)" class="st0 st8 st9 st7">ent to </text>
	<text transform="matrix(1 0 0 1 1131.8125 737.4185)" class="st0 st8 st9"> </text>
	<text transform="matrix(1 0 0 1 1131.8125 737.4185)" class="st0 st8 st9">o</text>
	<text transform="matrix(1 0 0 1 1170.8672 737.4185)" class="st0 st8 st9 st7">ther</text>
	<text transform="matrix(1 0 0 1 1294.2188 737.4185)" class="st0 st8 st9"> </text>
	<text transform="matrix(1 0 0 1 164 816.7153)" class="st0 st8 st9 st10">fo</text>
	<text transform="matrix(1 0 0 1 226.5156 816.7153)" class="st0 st8 st9">n</text>
	<text transform="matrix(1 0 0 1 265.1953 816.7153)" class="st0 st8 st9 st7">ts. It</text>
	<text transform="matrix(1 0 0 1 398.0156 816.7153)" class="st0 st8 st9 st10">’s</text>
	<text transform="matrix(1 0 0 1 445.1797 816.7153)" class="st0 st8 st9 st7"> a r</text>
	<text transform="matrix(1 0 0 1 542.4141 816.7153)" class="st0 st8 st9 st7">eall</text>
	<text transform="matrix(1 0 0 1 657.4062 816.7153)" class="st0 st8 st9">y </text>
	<text transform="matrix(1 0 0 1 710.0781 816.7153)" class="st0 st8 st9 st7">clear</text>
	<text transform="matrix(1 0 0 1 866.3594 816.7153)" class="st0 st8 st9 st7"> and elegant </text>
	<text transform="matrix(1 0 0 1 1277.0156 816.7153)" class="st0 st8 st9 st10">fo</text>
	<text transform="matrix(1 0 0 1 1339.5234 816.7153)" class="st0 st8 st9 st7">nt</text>
	<text transform="matrix(1 0 0 1 1400 816.7153)" class="st0 st8 st9"> </text>
	<text transform="matrix(1 0 0 1 164 896.02)" class="st0 st8 st9 st7">famil</text>
	<text transform="matrix(1 0 0 1 319.8438 896.02)" class="st0 st8 st9">y </text>
	<text transform="matrix(1 0 0 1 370.7812 896.02)" class="st0 st8 st9 st7">with up to 9 </text>
	<text transform="matrix(1 0 0 1 757.9219 896.02)" class="st0 st8 st9">v</text>
	<text transform="matrix(1 0 0 1 792.8906 896.02)" class="st0 st8 st9 st7">arious lettering</text>
	<text transform="matrix(1 0 0 1 1267.0547 896.02)" class="st0 st8 st9"> </text>
	<text transform="matrix(1 0 0 1 164 975.3169)" class="st0 st8 st9">w</text>
	<text transform="matrix(1 0 0 1 216.1797 975.3169)" class="st0 st8 st9 st7">eights.</text>
</g>
</svg>
