<?xml version="1.0" encoding="utf-8"?>
<!-- Generator: Adobe Illustrator 21.1.0, SVG Export Plug-In . SVG Version: 6.00 Build 0)  -->
<svg version="1.1" id="Ebene_1" xmlns="http://www.w3.org/2000/svg" xmlns:xlink="http://www.w3.org/1999/xlink" x="0px" y="0px"
	 viewBox="0 0 375 600" style="enable-background:new 0 0 375 600;" xml:space="preserve">
<style type="text/css">
	.st0{fill:#010202;}
	.st1{font-family:'Raleway-Light';}
	.st2{font-size:54px;}
	.st3{letter-spacing:1;}
	.st4{letter-spacing:-2;}
	.st5{font-family:'Raleway-ExtraBold';}
	.st6{font-size:27px;}
	.st7{font-family:'Raleway-Medium';}
	.st8{font-size:20px;}
</style>
<g>
	<text transform="matrix(1 0 0 1 57.5 93.5723)" class="st0 st1 st2">R</text>
	<text transform="matrix(1 0 0 1 93.5703 93.5723)" class="st0 st1 st2 st3">ALEW</text>
	<text transform="matrix(1 0 0 1 253.9531 93.5723)" class="st0 st1 st2 st4">AY</text>
	<text transform="matrix(1 0 0 1 320.6406 93.5723)" class="st0 st1 st2"> </text>
	<text transform="matrix(1 0 0 1 57.5 158.3691)" class="st0 st1 st2 st3">IN USE</text>
	<text transform="matrix(1 0 0 1 57.5 255.5723)" class="st0 st5 st6">I lik</text>
	<text transform="matrix(1 0 0 1 106.9141 255.5723)" class="st0 st5 st6">e this </text>
	<text transform="matrix(1 0 0 1 189.6094 255.5723)" class="st0 st5 st6">fo</text>
	<text transform="matrix(1 0 0 1 217.3906 255.5723)" class="st0 st5 st6">nt a lot.</text>
	<text transform="matrix(1 0 0 1 57.5 299.2754)" class="st0 st7 st8">Fo</text>
	<text transform="matrix(1 0 0 1 82.5 299.2754)" class="st0 st7 st8">r </text>
	<text transform="matrix(1 0 0 1 96.3594 299.2754)" class="st0 st7 st8 st3">the body</text>
	<text transform="matrix(1 0 0 1 187.4609 299.2754)" class="st0 st7 st8"> te</text>
	<text transform="matrix(1 0 0 1 213.8359 299.2754)" class="st0 st7 st8 st3">xt medium</text>
	<text transform="matrix(1 0 0 1 322.1719 299.2754)" class="st0 st7 st8"> </text>
	<text transform="matrix(1 0 0 1 57.5 323.7676)" class="st0 st7 st8 st3">is the best option. </text>
	<text transform="matrix(1 0 0 1 247.2109 323.7676)" class="st0 st7 st8 st3">This</text>
	<text transform="matrix(1 0 0 1 288.7734 323.7676)" class="st0 st7 st8"> </text>
	<text transform="matrix(1 0 0 1 57.5 348.2676)" class="st0 st7 st8">fo</text>
	<text transform="matrix(1 0 0 1 78.0938 348.2676)" class="st0 st7 st8">nt has a reall</text>
	<text transform="matrix(1 0 0 1 210.8359 348.2676)" class="st0 st7 st8">y </text>
	<text transform="matrix(1 0 0 1 228.25 348.2676)" class="st0 st7 st8 st3">special</text>
	<text transform="matrix(1 0 0 1 301.2969 348.2676)" class="st0 st7 st8"> </text>
	<text transform="matrix(1 0 0 1 306.6562 348.2676)" class="st0 st7 st8">W </text>
	<text transform="matrix(1 0 0 1 57.5 372.7676)" class="st0 st7 st8 st3">and small</text>
	<text transform="matrix(1 0 0 1 157.2969 372.7676)" class="st0 st7 st8 st3"> e. </text>
	<text transform="matrix(1 0 0 1 186.6562 372.7676)" class="st0 st7 st8 st3">Also the </text>
	<text transform="matrix(1 0 0 1 277.5547 372.7676)" class="st0 st7 st8">l </text>
	<text transform="matrix(1 0 0 1 289.7344 372.7676)" class="st0 st7 st8 st3">is</text>
	<text transform="matrix(1 0 0 1 305.2188 372.7676)" class="st0 st7 st8"> </text>
	<text transform="matrix(1 0 0 1 57.5 397.2754)" class="st0 st7 st8 st3">diffr</text>
	<text transform="matrix(1 0 0 1 100.4141 397.2754)" class="st0 st7 st8">ent to </text>
	<text transform="matrix(1 0 0 1 166.9766 397.2754)" class="st0 st7 st8"> </text>
	<text transform="matrix(1 0 0 1 166.9766 397.2754)" class="st0 st7 st8">o</text>
	<text transform="matrix(1 0 0 1 179.7969 397.2754)" class="st0 st7 st8 st3">ther</text>
	<text transform="matrix(1 0 0 1 221.2578 397.2754)" class="st0 st7 st8"> </text>
	<text transform="matrix(1 0 0 1 227.3125 397.2754)" class="st0 st7 st8">fo</text>
	<text transform="matrix(1 0 0 1 247.9141 397.2754)" class="st0 st7 st8">n</text>
	<text transform="matrix(1 0 0 1 260.6172 397.2754)" class="st0 st7 st8">ts. It</text>
	<text transform="matrix(1 0 0 1 304.7344 397.2754)" class="st0 st7 st8">’s</text>
	<text transform="matrix(1 0 0 1 319.375 397.2754)" class="st0 st7 st8"> </text>
	<text transform="matrix(1 0 0 1 57.5 421.7754)" class="st0 st7 st8 st3">a r</text>
	<text transform="matrix(1 0 0 1 83.6562 421.7754)" class="st0 st7 st8 st3">eall</text>
	<text transform="matrix(1 0 0 1 121.6172 421.7754)" class="st0 st7 st8">y </text>
	<text transform="matrix(1 0 0 1 139.0312 421.7754)" class="st0 st7 st8 st3">clear</text>
	<text transform="matrix(1 0 0 1 190.5312 421.7754)" class="st0 st7 st8 st3"> and elegan</text>
	<text transform="matrix(1 0 0 1 311.7344 421.7754)" class="st0 st7 st8">t </text>
	<text transform="matrix(1 0 0 1 57.5 446.2676)" class="st0 st7 st8">fo</text>
	<text transform="matrix(1 0 0 1 78.0938 446.2676)" class="st0 st7 st8">nt famil</text>
	<text transform="matrix(1 0 0 1 156.2578 446.2676)" class="st0 st7 st8">y </text>
	<text transform="matrix(1 0 0 1 173.1172 446.2676)" class="st0 st7 st8">with up to </text>
	<text transform="matrix(1 0 0 1 282.5156 446.2676)" class="st0 st7 st8">9 </text>
	<text transform="matrix(1 0 0 1 57.5 470.7676)" class="st0 st7 st8">v</text>
	<text transform="matrix(1 0 0 1 69 470.7676)" class="st0 st7 st8 st3">arious lettering </text>
	<text transform="matrix(1 0 0 1 231.7188 470.7676)" class="st0 st7 st8">w</text>
	<text transform="matrix(1 0 0 1 248.7734 470.7676)" class="st0 st7 st8 st3">eights.</text>
</g>
</svg>
