<?xml version="1.0" encoding="utf-8"?>
<!-- Generator: Adobe Illustrator 22.0.1, SVG Export Plug-In . SVG Version: 6.00 Build 0)  -->
<svg version="1.1" id="Ebene_1" xmlns="http://www.w3.org/2000/svg" xmlns:xlink="http://www.w3.org/1999/xlink" x="0px" y="0px"
	 viewBox="0 0 1540 1080" style="enable-background:new 0 0 1540 1080;" xml:space="preserve">
<g>
	<path d="M187.8,667.5l81.3,114.2l44.4-27.1l-70.3-95.7c8.5-3.3,15.9-7.4,22.2-12.3c18.6-14,27.9-36.7,27.9-68.2
		c0-25.7-8.4-46-25.1-60.8c-9.6-8.8-20.6-14.9-33.1-18.5c-12.5-3.6-29.1-5.3-49.9-5.3h-79.3v274.4h59.2V667.9h10.3
		C181.2,667.9,185.3,667.7,187.8,667.5L187.8,667.5L187.8,667.5z M169.7,624.3h-4.5v-87.1h10.7c24.7,0,40.9,3.7,48.7,11.1
		c7.8,7.4,11.7,18.8,11.7,34.3c0,15.5-4.8,26.5-14.4,33.1C214.2,621.4,196.9,624.3,169.7,624.3L169.7,624.3L169.7,624.3z M522.6,727
		c-6.6,1.6-11.6,2.5-15.2,2.5c-6.9,0-10.3-3.8-10.3-11.5v-86.3c0-28.8-6-49.1-17.9-61c-11.9-11.9-31.8-17.9-59.8-17.9
		c-10.4,0-22.9,1.6-37.6,4.7c-14.7,3.2-27.1,7.7-37.2,13.8l11.9,36.2c17.3-5.8,32.8-8.6,46.6-8.6c13.8,0,23.6,2.1,29.4,6.2
		c5.8,4.1,8.6,13.3,8.6,27.5v20.1c-9.9-0.8-22.9-1.2-39.2-1.2c-16.3,0-32,3.6-47,10.7c-8.2,4.1-14.9,10.5-20.1,19.3
		c-5.2,8.8-7.8,19.3-7.8,31.6c0,18.6,5.5,33.3,16.4,44.2c11,10.8,27.1,16.2,48.5,16.2c21.4,0,40-6.6,55.9-19.7
		c7.9,12.6,20.2,18.9,36.8,18.9c16.6,0,31.8-3.8,45.8-11.5L522.6,727L522.6,727z M380.5,706.9c0-17.5,13.6-26.3,40.7-26.3
		c5.8,0,12.5,0.3,20.1,0.8v43.1c-11,7.1-22.2,10.7-33.7,10.7C389.5,735.2,380.5,725.8,380.5,706.9L380.5,706.9L380.5,706.9z
		 M601.9,580.8l-4.9-23.4h-47.2v210.8h57.5V615.7c10.7-10.1,23.7-15.2,39-15.2c6,0,10.8,0.8,14.4,2.5c7.4,3.3,11.1,13.7,11.1,31.2
		v133.9h57.5V624.3c0-3.8-0.1-6.7-0.4-8.6c10.7-10.1,23.7-15.2,39-15.2c6,0,10.8,0.8,14.4,2.5c7.4,3.3,11.1,13.7,11.1,31.2v133.9
		h57.5V623.9c0-22.5-4.2-39.8-12.5-52c-8.4-12.2-24.3-18.3-47.9-18.3c-12.9,0-25.7,2.8-38.4,8.4c-12.7,5.6-22.8,12.3-30.2,19.9
		c-4.7-9.6-10.8-16.7-18.5-21.4c-7.7-4.7-18.5-7-32.5-7c-14,0-27.2,2.7-39.6,8.2C618.8,567.3,609.1,573.6,601.9,580.8L601.9,580.8
		L601.9,580.8z M892.8,480.1v279c8.5,3.8,21.4,7.2,38.6,10.1c17.3,2.9,33.4,4.3,48.5,4.3c35.1,0,60.5-10.3,76.4-31
		c15.9-20.7,23.8-50.6,23.8-89.8c0-31.8-7.3-56.2-21.8-73.3c-14.5-17.1-33-25.7-55.5-25.7c-9.9,0-19.7,1.7-29.4,5.1
		c-9.7,3.4-17.5,7.5-23.2,12.1v-90.8H892.8L892.8,480.1z M950.3,725V611.6c12-7.4,24.1-11.1,36.2-11.1c12,0,21,4.4,26.9,13.1
		c5.9,8.8,8.8,24.1,8.8,46c0,21.9-3.7,38.6-11.1,50.1c-7.4,11.5-20.5,17.3-39.4,17.3C964.9,727,957.7,726.3,950.3,725L950.3,725
		L950.3,725z M1205.5,724.1c-7.7,1.9-15.1,2.9-22.2,2.9c-7.1,0-11.9-1.6-14.2-4.9c-2.3-3.3-3.5-8.9-3.5-16.8V480.5h-57.9V702
		c0,9,0.2,16.1,0.6,21.2c0.4,5.1,1.7,11.3,3.9,18.7c2.2,7.4,5.4,13,9.7,16.8c4.2,3.8,10.6,7.3,19.1,10.3c8.5,3,19.3,4.5,32.5,4.5
		c13.1,0,26.7-3,40.7-9L1205.5,724.1L1205.5,724.1z M1424.9,727c-6.6,1.6-11.6,2.5-15.2,2.5c-6.8,0-10.3-3.8-10.3-11.5v-86.3
		c0-28.8-6-49.1-17.9-61c-11.9-11.9-31.8-17.9-59.8-17.9c-10.4,0-23,1.6-37.6,4.7c-14.7,3.2-27.1,7.7-37.2,13.8l11.9,36.2
		c17.2-5.8,32.8-8.6,46.6-8.6c13.8,0,23.6,2.1,29.4,6.2c5.8,4.1,8.6,13.3,8.6,27.5v20.1c-9.9-0.8-22.9-1.2-39.2-1.2
		c-16.3,0-32,3.6-47,10.7c-8.2,4.1-14.9,10.5-20.1,19.3c-5.2,8.8-7.8,19.3-7.8,31.6c0,18.6,5.5,33.3,16.4,44.2
		c10.9,10.8,27.1,16.2,48.5,16.2s40-6.6,55.9-19.7c7.9,12.6,20.2,18.9,36.8,18.9c16.6,0,31.8-3.8,45.8-11.5L1424.9,727L1424.9,727z
		 M1282.7,706.9c0-17.5,13.6-26.3,40.7-26.3c5.8,0,12.5,0.3,20.1,0.8v43.1c-11,7.1-22.2,10.7-33.7,10.7
		C1291.7,735.2,1282.7,725.8,1282.7,706.9L1282.7,706.9L1282.7,706.9z"/>
	<path d="M360.3,467.9l-0.5-2c-0.6,0.2-1.3,0.3-1.9,0.3c-0.6,0-1.1-0.1-1.2-0.3c-0.2-0.2-0.3-0.4-0.3-0.6c0-0.2,0-0.5,0-0.9V455h4.2
		l0.3-2.1h-4.4v-4l-2.4,0.5l-0.3,3.6l-2.8,0.2l-0.3,1.8l3,0.2v9.1c0,1.6,0.2,2.7,0.8,3.3c0.5,0.6,1.5,1,3.1,1
		C358.4,468.5,359.4,468.3,360.3,467.9L360.3,467.9L360.3,467.9z M368.1,453.2c-0.9,0.4-1.6,0.9-2.2,1.4v-7.8l-2.7,0.2v21h2.7v-11.2
		c0.5-0.6,1.1-1.1,2-1.4c0.8-0.4,1.6-0.6,2.3-0.6s1.2,0.3,1.5,0.8c0.2,0.5,0.4,1.2,0.4,2.2v10.3h2.7v-10.4c0-1.6-0.3-2.8-0.9-3.7
		c-0.6-0.9-1.6-1.3-3.1-1.3C369.9,452.6,369,452.8,368.1,453.2L368.1,453.2z M384.5,468c0.8-0.3,1.4-0.6,1.8-1.1
		c0.5,1,1.3,1.5,2.3,1.5c1.1,0,2-0.2,2.6-0.7l-0.5-1.7c-0.6,0.2-1,0.3-1.3,0.3c-0.5,0-0.7-0.3-0.7-1.1v-7.3c0-2-0.4-3.4-1.2-4.2
		c-0.8-0.8-2.2-1.3-4.1-1.3c-0.7,0-1.5,0.1-2.5,0.3c-0.9,0.2-1.7,0.5-2.3,0.9l0.6,1.9c1.5-0.5,2.8-0.8,3.9-0.8s1.8,0.2,2.2,0.6
		c0.4,0.4,0.6,1.2,0.6,2.4v2.3c-1-0.1-2-0.2-3.2-0.2c-1.1,0-2.2,0.3-3.3,0.8c-0.6,0.3-1,0.7-1.4,1.3c-0.4,0.6-0.5,1.3-0.5,2.1
		c0,1.3,0.4,2.3,1.2,3.1c0.8,0.8,1.8,1.1,3.1,1.1C382.9,468.5,383.7,468.3,384.5,468L384.5,468z M380.2,464c0-1.6,1.2-2.3,3.5-2.3
		c1.1,0,1.9,0,2.3,0.1v3.5c-1.1,0.7-2.3,1.1-3.6,1.1C381,466.3,380.2,465.6,380.2,464L380.2,464L380.2,464z M401.4,467.9l-0.5-2
		c-0.6,0.2-1.3,0.3-1.9,0.3c-0.6,0-1.1-0.1-1.2-0.3c-0.2-0.2-0.3-0.4-0.3-0.6c0-0.2,0-0.5,0-0.9V455h4.2l0.3-2.1h-4.4v-4l-2.4,0.5
		l-0.3,3.6l-2.8,0.2l-0.3,1.8l3,0.2v9.1c0,1.6,0.2,2.7,0.8,3.3c0.5,0.6,1.5,1,3.1,1C399.5,468.5,400.5,468.3,401.4,467.9
		L401.4,467.9L401.4,467.9z M411,448v20h2.9v-20H411L411,448z M424.6,465.1c0,2.3,1,3.4,3,3.4c1.2,0,2.2-0.2,3-0.6l-0.5-2
		c-0.6,0.2-1.2,0.3-1.8,0.3c-0.7,0-1.1-0.4-1.1-1.2v-17.9h-2.7V465.1L424.6,465.1z M435.2,452.8l-2.7,0.3v15.1h2.7V452.8
		L435.2,452.8z M432.5,449.7c0.4,0.4,0.8,0.6,1.3,0.6s0.9-0.2,1.3-0.6c0.4-0.4,0.5-0.8,0.5-1.3c0-0.5-0.2-0.9-0.5-1.3
		c-0.4-0.3-0.8-0.5-1.3-0.5s-0.9,0.2-1.3,0.5c-0.4,0.4-0.5,0.8-0.5,1.3C432,448.9,432.1,449.4,432.5,449.7L432.5,449.7z M442,459.9
		l6.6,8.2h3.3c-0.7-0.9-1.9-2.3-3.5-4.2c-1.6-1.9-2.8-3.3-3.5-4.2l6.2-6.7h-3.4l-5.7,6.6v-12.8l-2.7,0.2v21h2.7V459.9L442,459.9z
		 M463.9,467.2l-0.7-1.9c-1.2,0.6-2.6,0.8-3.9,0.8c-1.4,0-2.4-0.5-3.1-1.6c-0.7-1.1-1.1-2.4-1.1-4.1h8.8c0.3-1.1,0.5-2,0.5-2.7
		c0-1.6-0.4-2.8-1.3-3.8c-0.9-0.9-2.2-1.4-3.9-1.4c-2,0-3.6,0.7-4.8,2.2c-1.2,1.5-1.7,3.3-1.7,5.6s0.5,4.2,1.6,5.8
		c1.1,1.5,2.8,2.3,5,2.3C460.9,468.5,462.4,468.1,463.9,467.2L463.9,467.2L463.9,467.2z M461.8,458.5l-6.5-0.1
		c0.1-0.7,0.4-1.4,0.9-2.2c0.3-0.4,0.7-0.8,1.2-1c0.5-0.3,1.2-0.4,1.9-0.4s1.4,0.3,1.8,0.9c0.4,0.6,0.7,1.5,0.7,2.5V458.5
		L461.8,458.5z M468.3,466.3c0.9,1.4,2.2,2,3.9,2c1.7,0,3.1-0.5,4.4-1.5l0.4,1.5h2.1v-21.2h-2.7v6.2c-0.8-0.5-1.8-0.7-2.9-0.7
		c-4.4,0-6.6,2.7-6.6,8.2C466.9,463.1,467.3,465,468.3,466.3L468.3,466.3z M476.3,455.4v9.5c-0.9,0.9-2.1,1.3-3.6,1.3
		c-2,0-3.1-1.8-3.1-5.4c0-3.9,1.2-5.9,3.8-5.9C474.5,454.9,475.5,455,476.3,455.4L476.3,455.4L476.3,455.4z M497.1,467.9l-0.5-2
		c-0.6,0.2-1.3,0.3-1.9,0.3s-1.1-0.1-1.2-0.3c-0.2-0.2-0.3-0.4-0.3-0.6c0-0.2,0-0.5,0-0.9V455h4.2l0.3-2.1h-4.4v-4l-2.4,0.5
		l-0.3,3.6l-2.8,0.2l-0.3,1.8l3,0.2v9.1c0,1.6,0.2,2.7,0.8,3.3c0.5,0.6,1.5,1,3.1,1C495.2,468.5,496.2,468.3,497.1,467.9
		L497.1,467.9L497.1,467.9z M504.9,453.2c-0.9,0.4-1.6,0.9-2.2,1.4v-7.8l-2.7,0.2v21h2.7v-11.2c0.5-0.6,1.1-1.1,2-1.4
		c0.8-0.4,1.6-0.6,2.3-0.6c0.7,0,1.2,0.3,1.5,0.8c0.2,0.5,0.4,1.2,0.4,2.2v10.3h2.7v-10.4c0-1.6-0.3-2.8-0.9-3.7
		c-0.6-0.9-1.6-1.3-3.1-1.3C506.7,452.6,505.8,452.8,504.9,453.2L504.9,453.2z M526.2,467.2l-0.7-1.9c-1.2,0.6-2.6,0.8-3.9,0.8
		s-2.4-0.5-3.1-1.6c-0.7-1.1-1.1-2.4-1.1-4.1h8.8c0.3-1.1,0.5-2,0.5-2.7c0-1.6-0.4-2.8-1.3-3.8c-0.9-0.9-2.2-1.4-3.9-1.4
		c-2,0-3.6,0.7-4.8,2.2c-1.2,1.5-1.7,3.3-1.7,5.6s0.5,4.2,1.6,5.8c1.1,1.5,2.8,2.3,5,2.3C523.1,468.5,524.7,468.1,526.2,467.2
		L526.2,467.2L526.2,467.2z M524.1,458.5l-6.5-0.1c0.1-0.7,0.4-1.4,0.9-2.2c0.3-0.4,0.7-0.8,1.2-1s1.2-0.4,1.9-0.4
		c0.8,0,1.4,0.3,1.8,0.9c0.4,0.6,0.7,1.5,0.7,2.5V458.5L524.1,458.5z M547.5,456.8c0.5-0.5,1.2-0.9,2-1.3c0.8-0.4,1.5-0.6,2.2-0.6
		c0.7,0,1.2,0.3,1.4,0.8c0.2,0.5,0.4,1.2,0.4,2.2v10.3h2.7v-10.4c0-3.4-1.3-5.1-4-5.1c-0.8,0-1.7,0.2-2.7,0.7c-1,0.5-1.7,1-2.3,1.5
		c-0.6-1.5-1.8-2.2-3.6-2.2c-0.9,0-1.7,0.2-2.7,0.7c-0.9,0.4-1.6,0.9-2.2,1.5l-0.3-1.8h-2.2v15.2h2.7v-11.2c0.5-0.6,1.1-1.1,1.9-1.4
		c0.8-0.4,1.6-0.6,2.3-0.6c0.7,0,1.2,0.3,1.5,0.8c0.2,0.5,0.4,1.2,0.4,2.2v10.3h2.7v-10.3C547.5,457.4,547.5,457,547.5,456.8
		L547.5,456.8L547.5,456.8z M572,460.5c0-2.7-0.6-4.8-1.7-6c-1.1-1.3-2.6-1.9-4.5-1.9c-1.9,0-3.4,0.6-4.6,1.9
		c-1.2,1.3-1.8,3.3-1.8,6c0,2.8,0.6,4.8,1.7,6c1.1,1.3,2.6,1.9,4.5,1.9c1.9,0,3.4-0.6,4.6-1.9C571.4,465.3,572,463.3,572,460.5
		L572,460.5z M568.3,456c0.6,0.8,0.9,2.3,0.9,4.4c0,2.1-0.3,3.6-1,4.5c-0.7,0.9-1.5,1.4-2.5,1.4c-2.3,0-3.5-1.9-3.5-5.7
		s1.2-5.7,3.5-5.7C566.9,454.8,567.7,455.2,568.3,456L568.3,456z M574.4,467.4c0.4,0.3,1.1,0.6,1.9,0.8c0.9,0.2,1.7,0.3,2.5,0.3
		c1.8,0,3.2-0.5,4.2-1.4c1-0.9,1.5-2,1.5-3.4c0-0.9-0.3-1.7-0.8-2.2c-0.5-0.6-1.1-1-1.8-1.3c-0.7-0.3-1.4-0.6-2.1-0.8
		c-0.7-0.2-1.3-0.6-1.8-1c-0.5-0.4-0.8-0.9-0.8-1.5c0-0.6,0.2-1.1,0.7-1.5c0.5-0.4,1.2-0.5,2.2-0.5s2,0.2,3.2,0.6l0.6-2
		c-1-0.6-2.3-0.9-4-0.9s-2.9,0.4-3.9,1.2c-1,0.8-1.4,1.9-1.4,3.3c0,0.9,0.2,1.7,0.7,2.3c0.5,0.6,1.1,1.1,1.8,1.3
		c0.7,0.3,1.4,0.5,2.1,0.8c0.7,0.3,1.3,0.6,1.8,1c0.5,0.4,0.7,0.9,0.7,1.5c0,0.6-0.3,1.1-0.8,1.5c-0.5,0.4-1.3,0.6-2.4,0.6
		c-1.1,0-2.3-0.3-3.6-0.9L574.4,467.4L574.4,467.4z M595.9,467.9l-0.5-2c-0.6,0.2-1.3,0.3-1.9,0.3s-1.1-0.1-1.2-0.3
		c-0.2-0.2-0.3-0.4-0.3-0.6c0-0.2,0-0.5,0-0.9V455h4.2l0.3-2.1h-4.4v-4l-2.4,0.5l-0.3,3.6l-2.8,0.2l-0.3,1.8l3,0.2v9.1
		c0,1.6,0.2,2.7,0.8,3.3c0.5,0.6,1.5,1,3.1,1C594,468.5,595,468.3,595.9,467.9L595.9,467.9L595.9,467.9z M598.3,466.4
		c0,0.5,0.2,1,0.5,1.3c0.4,0.4,0.8,0.6,1.3,0.6s0.9-0.2,1.3-0.6c0.4-0.4,0.5-0.8,0.5-1.3c0-0.5-0.2-0.9-0.5-1.3
		c-0.4-0.3-0.8-0.5-1.3-0.5s-0.9,0.2-1.3,0.5C598.5,465.5,598.3,465.9,598.3,466.4L598.3,466.4z"/>
	<path d="M352.4,397v20h2.9v-20H352.4L352.4,397z M371.6,417c0.8-0.3,1.6-0.8,2.1-1.2l0.3,1.6h2.2V402h-2.7v11.8
		c-0.5,0.4-1.1,0.8-1.8,1c-0.8,0.3-1.5,0.4-2.3,0.4c-0.8,0-1.3-0.2-1.6-0.7c-0.3-0.5-0.4-1.2-0.4-2.2v-10.3h-2.7v10.4
		c0,1.7,0.3,2.9,1,3.8c0.6,0.9,1.8,1.3,3.4,1.3C369.9,417.5,370.8,417.3,371.6,417L371.6,417z M378.7,416.4c0.4,0.3,1.1,0.6,1.9,0.8
		c0.9,0.2,1.7,0.3,2.5,0.3c1.8,0,3.2-0.5,4.2-1.4c1-0.9,1.5-2,1.5-3.4c0-0.9-0.2-1.7-0.8-2.2c-0.5-0.6-1.1-1-1.8-1.3
		c-0.7-0.3-1.4-0.6-2.1-0.8c-0.7-0.2-1.3-0.6-1.8-1c-0.5-0.4-0.8-0.9-0.8-1.5c0-0.6,0.2-1.1,0.7-1.5c0.5-0.4,1.2-0.5,2.2-0.5
		c1,0,2,0.2,3.2,0.6l0.6-2c-1-0.6-2.3-0.9-4-0.9s-2.9,0.4-3.9,1.2c-1,0.8-1.4,1.9-1.4,3.3c0,0.9,0.2,1.7,0.7,2.3
		c0.5,0.6,1.1,1.1,1.8,1.3c0.7,0.3,1.4,0.5,2.1,0.8c0.7,0.3,1.3,0.6,1.8,1c0.5,0.4,0.7,0.9,0.7,1.5c0,0.6-0.3,1.1-0.8,1.5
		c-0.5,0.4-1.3,0.6-2.4,0.6c-1.1,0-2.3-0.3-3.6-0.9L378.7,416.4L378.7,416.4z M402,416.2l-0.7-1.9c-1.2,0.6-2.6,0.8-3.9,0.8
		c-1.4,0-2.4-0.5-3.1-1.6c-0.7-1.1-1.1-2.4-1.1-4.1h8.8c0.3-1.1,0.5-2,0.5-2.7c0-1.6-0.4-2.8-1.3-3.8c-0.9-0.9-2.2-1.4-3.9-1.4
		c-2,0-3.6,0.7-4.8,2.2c-1.2,1.5-1.7,3.3-1.7,5.6s0.5,4.2,1.6,5.8c1.1,1.5,2.8,2.3,5,2.3C399,417.5,400.6,417.1,402,416.2L402,416.2
		L402,416.2z M399.9,407.5l-6.5-0.1c0.1-0.7,0.4-1.4,0.9-2.2c0.3-0.4,0.7-0.8,1.2-1s1.2-0.4,1.9-0.4s1.4,0.3,1.8,0.9
		c0.4,0.6,0.7,1.5,0.7,2.6V407.5L399.9,407.5z M405.8,415.3c0.9,1.4,2.2,2,3.9,2c1.7,0,3.1-0.5,4.4-1.5l0.4,1.5h2.1v-21.2h-2.7v6.2
		c-0.8-0.5-1.8-0.7-2.9-0.7c-4.4,0-6.6,2.7-6.6,8.2C404.4,412.1,404.9,414,405.8,415.3L405.8,415.3z M413.9,404.4v9.5
		c-0.9,0.9-2.1,1.3-3.6,1.3c-2,0-3.1-1.8-3.1-5.4c0-3.9,1.2-5.9,3.8-5.9C412.1,403.9,413,404,413.9,404.4L413.9,404.4L413.9,404.4z
		 M433.5,416.9l-0.5-2c-0.6,0.2-1.3,0.3-1.9,0.3c-0.6,0-1.1-0.1-1.2-0.3c-0.2-0.2-0.3-0.4-0.3-0.6s0-0.5,0-0.9V404h4.2l0.3-2.1h-4.4
		v-4l-2.4,0.5l-0.3,3.6l-2.8,0.2l-0.3,1.8l3,0.1v9.1c0,1.6,0.2,2.7,0.8,3.3c0.5,0.6,1.5,1,3.1,1
		C431.5,417.5,432.5,417.3,433.5,416.9L433.5,416.9L433.5,416.9z M440.7,402.2c-0.9,0.4-1.6,0.9-2.2,1.4v-7.8l-2.7,0.2v21h2.7v-11.2
		c0.5-0.6,1.1-1.1,2-1.4c0.8-0.4,1.6-0.6,2.3-0.6c0.7,0,1.2,0.3,1.5,0.8c0.2,0.5,0.4,1.2,0.4,2.2v10.3h2.7v-10.4
		c0-1.6-0.3-2.8-0.9-3.7c-0.6-0.9-1.6-1.3-3.1-1.3C442.4,401.6,441.6,401.8,440.7,402.2L440.7,402.2z M461.3,416.2l-0.7-1.9
		c-1.2,0.6-2.6,0.8-3.9,0.8s-2.4-0.5-3.1-1.6c-0.7-1.1-1.1-2.4-1.1-4.1h8.8c0.3-1.1,0.5-2,0.5-2.7c0-1.6-0.4-2.8-1.3-3.8
		c-0.9-0.9-2.2-1.4-3.9-1.4c-2,0-3.6,0.7-4.8,2.2c-1.2,1.5-1.7,3.3-1.7,5.6s0.5,4.2,1.6,5.8c1.1,1.5,2.8,2.3,5,2.3
		C458.3,417.5,459.9,417.1,461.3,416.2L461.3,416.2L461.3,416.2z M459.2,407.5l-6.5-0.1c0.1-0.7,0.4-1.4,0.9-2.2
		c0.3-0.4,0.7-0.8,1.2-1c0.5-0.3,1.2-0.4,1.9-0.4c0.8,0,1.4,0.3,1.8,0.9c0.4,0.6,0.7,1.5,0.7,2.6V407.5L459.2,407.5z M481.4,405.8
		c0.5-0.5,1.2-0.9,2-1.3c0.8-0.4,1.5-0.6,2.2-0.6c0.7,0,1.2,0.3,1.4,0.8c0.2,0.5,0.4,1.2,0.4,2.2v10.3h2.7v-10.4
		c0-3.4-1.3-5.1-4-5.1c-0.8,0-1.7,0.2-2.7,0.7c-1,0.5-1.7,1-2.3,1.5c-0.6-1.5-1.8-2.2-3.6-2.2c-0.9,0-1.7,0.2-2.7,0.7
		c-0.9,0.4-1.6,0.9-2.2,1.5l-0.3-1.8h-2.2v15.2h2.7v-11.2c0.5-0.6,1.1-1.1,1.9-1.4c0.8-0.4,1.6-0.6,2.3-0.6c0.7,0,1.2,0.3,1.5,0.8
		c0.2,0.5,0.4,1.2,0.4,2.2v10.3h2.7v-10.3C481.5,406.4,481.5,406,481.4,405.8L481.4,405.8L481.4,405.8z M505.3,409.5
		c0-2.7-0.6-4.8-1.7-6c-1.1-1.3-2.6-1.9-4.5-1.9c-1.9,0-3.4,0.6-4.6,1.9c-1.2,1.3-1.8,3.3-1.8,6c0,2.8,0.6,4.8,1.7,6
		c1.1,1.3,2.6,1.9,4.5,1.9c1.9,0,3.4-0.6,4.6-1.9C504.7,414.3,505.3,412.3,505.3,409.5L505.3,409.5z M501.7,405
		c0.6,0.8,0.9,2.3,0.9,4.4s-0.3,3.6-1,4.5c-0.7,0.9-1.5,1.3-2.5,1.3c-2.3,0-3.5-1.9-3.5-5.7s1.2-5.7,3.5-5.7
		C500.2,403.8,501.1,404.2,501.7,405L501.7,405z M507.2,416.4c0.4,0.3,1.1,0.6,1.9,0.8c0.8,0.2,1.7,0.3,2.5,0.3
		c1.8,0,3.2-0.5,4.2-1.4c1-0.9,1.5-2,1.5-3.4c0-0.9-0.2-1.7-0.8-2.2c-0.5-0.6-1.1-1-1.8-1.3c-0.7-0.3-1.4-0.6-2.1-0.8
		c-0.7-0.2-1.3-0.6-1.8-1c-0.5-0.4-0.8-0.9-0.8-1.5c0-0.6,0.2-1.1,0.7-1.5s1.2-0.5,2.2-0.5s2.1,0.2,3.2,0.6l0.6-2
		c-1-0.6-2.3-0.9-4-0.9c-1.6,0-2.9,0.4-3.9,1.2c-1,0.8-1.4,1.9-1.4,3.3c0,0.9,0.2,1.7,0.7,2.3c0.5,0.6,1.1,1.1,1.8,1.3
		c0.7,0.3,1.4,0.5,2.1,0.8c0.7,0.3,1.3,0.6,1.8,1c0.5,0.4,0.7,0.9,0.7,1.5c0,0.6-0.3,1.1-0.8,1.5c-0.5,0.4-1.3,0.6-2.4,0.6
		c-1.1,0-2.3-0.3-3.6-0.9L507.2,416.4L507.2,416.4z M528.1,416.9l-0.5-2c-0.6,0.2-1.3,0.3-1.9,0.3s-1.1-0.1-1.2-0.3
		c-0.2-0.2-0.3-0.4-0.3-0.6c0-0.2,0-0.5,0-0.9V404h4.2l0.3-2.1h-4.4v-4l-2.4,0.5l-0.3,3.6l-2.8,0.2l-0.3,1.8l3,0.1v9.1
		c0,1.6,0.2,2.7,0.8,3.3c0.5,0.6,1.5,1,3.1,1C526.2,417.5,527.1,417.3,528.1,416.9L528.1,416.9L528.1,416.9z M547.9,409.5
		c0-2.7-0.6-4.8-1.7-6c-1.1-1.3-2.6-1.9-4.5-1.9c-1.9,0-3.4,0.6-4.6,1.9c-1.2,1.3-1.8,3.3-1.8,6c0,2.8,0.6,4.8,1.7,6
		c1.1,1.3,2.6,1.9,4.5,1.9c1.9,0,3.4-0.6,4.6-1.9C547.3,414.3,547.9,412.3,547.9,409.5L547.9,409.5z M544.2,405
		c0.6,0.8,0.9,2.3,0.9,4.4s-0.3,3.6-1,4.5s-1.5,1.3-2.5,1.3c-2.3,0-3.5-1.9-3.5-5.7s1.2-5.7,3.5-5.7
		C542.8,403.8,543.6,404.2,544.2,405L544.2,405z M551.8,401.9l-2.5,0.2l-0.3,1.8l2.8,0.1v18.4l2.7,0.3V404h3.8l0.3-2.1h-4.1v-1.2
		c0-1.1,0.2-1.9,0.6-2.3c0.4-0.4,1.1-0.6,2.3-0.6c1.2,0,2.2,0.1,3,0.3l0.6-2.1c-1.3-0.4-2.5-0.5-3.6-0.5c-2.1,0-3.5,0.4-4.3,1.2
		c-0.8,0.8-1.2,2.2-1.2,4.1V401.9L551.8,401.9z M568.7,416.9l-0.5-2c-0.6,0.2-1.3,0.3-1.9,0.3c-0.6,0-1.1-0.1-1.2-0.3
		c-0.2-0.2-0.3-0.4-0.3-0.6c0-0.2,0-0.5,0-0.9V404h4.2l0.3-2.1h-4.4v-4l-2.4,0.5l-0.3,3.6l-2.8,0.2l-0.3,1.8l3,0.1v9.1
		c0,1.6,0.2,2.7,0.8,3.3c0.5,0.6,1.5,1,3.1,1C566.8,417.5,567.8,417.3,568.7,416.9L568.7,416.9L568.7,416.9z M581.5,416.2l-0.7-1.9
		c-1.2,0.6-2.6,0.8-3.9,0.8c-1.4,0-2.4-0.5-3.1-1.6c-0.7-1.1-1.1-2.4-1.1-4.1h8.8c0.3-1.1,0.5-2,0.5-2.7c0-1.6-0.4-2.8-1.3-3.8
		c-0.9-0.9-2.2-1.4-3.9-1.4c-2,0-3.6,0.7-4.8,2.2c-1.2,1.5-1.7,3.3-1.7,5.6s0.5,4.2,1.6,5.8c1.1,1.5,2.8,2.3,5,2.3
		C578.5,417.5,580,417.1,581.5,416.2L581.5,416.2L581.5,416.2z M579.4,407.5l-6.5-0.1c0.1-0.7,0.4-1.4,0.9-2.2
		c0.3-0.4,0.7-0.8,1.2-1s1.2-0.4,1.9-0.4s1.4,0.3,1.8,0.9c0.4,0.6,0.7,1.5,0.7,2.6V407.5L579.4,407.5z M595.2,402.9
		c-0.6-0.9-1.6-1.3-3.1-1.3c-0.9,0-1.8,0.2-2.7,0.7c-1,0.4-1.7,0.9-2.3,1.5l-0.3-1.8h-2.2v15.2h2.7v-11.2c0.5-0.6,1.1-1,2-1.4
		c0.8-0.4,1.6-0.6,2.4-0.6c0.7,0,1.2,0.3,1.5,0.8c0.2,0.5,0.4,1.2,0.4,2.2v10.3h2.7v-10.4C596.1,405.1,595.8,403.8,595.2,402.9
		L595.2,402.9z M602,413.6h-2.9c0.3,0.8,0.5,1.5,0.5,2.2c0,1.5-0.8,3.3-2.5,5.2h2.5c1.8-1.6,2.7-3.5,2.7-5.6
		C602.4,414.7,602.2,414.1,602,413.6L602,413.6L602,413.6z M616.9,417c0.8-0.3,1.4-0.6,1.8-1.1c0.5,1,1.3,1.5,2.3,1.5
		c1.1,0,2-0.2,2.6-0.7l-0.5-1.7c-0.6,0.2-1,0.3-1.3,0.3c-0.5,0-0.7-0.3-0.7-1.1v-7.3c0-2-0.4-3.4-1.2-4.2c-0.8-0.8-2.2-1.3-4.1-1.3
		c-0.7,0-1.5,0.1-2.5,0.3c-1,0.2-1.7,0.5-2.3,0.9l0.6,1.9c1.5-0.5,2.8-0.8,3.9-0.8c1.1,0,1.8,0.2,2.2,0.6c0.4,0.4,0.6,1.2,0.6,2.4
		v2.3c-1-0.1-2-0.1-3.2-0.1c-1.1,0-2.2,0.3-3.3,0.8c-0.6,0.3-1,0.7-1.4,1.3c-0.4,0.6-0.5,1.3-0.5,2.1c0,1.3,0.4,2.3,1.2,3.1
		c0.8,0.8,1.8,1.1,3.1,1.1C615.3,417.5,616.2,417.3,616.9,417L616.9,417z M612.7,413c0-1.6,1.2-2.3,3.5-2.3c1.1,0,1.9,0,2.3,0.1v3.5
		c-1.1,0.7-2.3,1.1-3.6,1.1C613.5,415.3,612.7,414.6,612.7,413L612.7,413L612.7,413z M624.3,416.4c0.4,0.3,1.1,0.6,1.9,0.8
		c0.8,0.2,1.7,0.3,2.5,0.3c1.8,0,3.2-0.5,4.2-1.4c1-0.9,1.5-2,1.5-3.4c0-0.9-0.2-1.7-0.8-2.2c-0.5-0.6-1.1-1-1.8-1.3
		c-0.7-0.3-1.4-0.6-2.1-0.8c-0.7-0.2-1.3-0.6-1.8-1c-0.5-0.4-0.8-0.9-0.8-1.5c0-0.6,0.2-1.1,0.7-1.5s1.2-0.5,2.2-0.5s2,0.2,3.2,0.6
		l0.6-2c-1-0.6-2.3-0.9-4-0.9c-1.6,0-2.9,0.4-3.9,1.2c-1,0.8-1.4,1.9-1.4,3.3c0,0.9,0.2,1.7,0.7,2.3c0.5,0.6,1.1,1.1,1.8,1.3
		c0.7,0.3,1.4,0.5,2.1,0.8c0.7,0.3,1.3,0.6,1.8,1c0.5,0.4,0.7,0.9,0.7,1.5c0,0.6-0.3,1.1-0.8,1.5c-0.5,0.4-1.3,0.6-2.4,0.6
		c-1.1,0-2.3-0.3-3.6-0.9L624.3,416.4L624.3,416.4z M653.3,417.1h2.8l3.9-15.2h-2.7l-2.7,12.2l-3-12.2l-2.5,0.2l-3,12l-2.7-12.2
		h-2.7l3.9,15.2h2.8l2.9-11.8L653.3,417.1L653.3,417.1z M672.6,416.2l-0.7-1.9c-1.2,0.6-2.6,0.8-3.9,0.8c-1.4,0-2.4-0.5-3.1-1.6
		c-0.7-1.1-1.1-2.4-1.1-4.1h8.8c0.3-1.1,0.4-2,0.4-2.7c0-1.6-0.4-2.8-1.3-3.8c-0.9-0.9-2.2-1.4-3.9-1.4c-2,0-3.6,0.7-4.8,2.2
		c-1.2,1.5-1.7,3.3-1.7,5.6s0.5,4.2,1.6,5.8c1.1,1.5,2.8,2.3,5,2.3C669.6,417.5,671.2,417.1,672.6,416.2L672.6,416.2L672.6,416.2z
		 M670.5,407.5l-6.5-0.1c0.1-0.7,0.4-1.4,0.9-2.2c0.3-0.4,0.7-0.8,1.2-1c0.5-0.3,1.2-0.4,1.9-0.4c0.8,0,1.4,0.3,1.8,0.9
		c0.4,0.6,0.7,1.5,0.7,2.6V407.5L670.5,407.5z M675.7,414.1c0,2.3,1,3.4,3,3.4c1.2,0,2.2-0.2,3-0.6l-0.5-2c-0.6,0.2-1.2,0.3-1.8,0.3
		c-0.7,0-1.1-0.4-1.1-1.2v-17.9h-2.7V414.1L675.7,414.1z M683.1,414.1c0,2.3,1,3.4,3,3.4c1.2,0,2.2-0.2,3-0.6l-0.5-2
		c-0.6,0.2-1.2,0.3-1.8,0.3c-0.7,0-1.1-0.4-1.1-1.2v-17.9h-2.7V414.1L683.1,414.1z M701.9,417c0.8-0.3,1.4-0.6,1.8-1.1
		c0.5,1,1.3,1.5,2.3,1.5c1.1,0,2-0.2,2.6-0.7l-0.4-1.7c-0.6,0.2-1,0.3-1.3,0.3c-0.5,0-0.7-0.3-0.7-1.1v-7.3c0-2-0.4-3.4-1.2-4.2
		c-0.8-0.8-2.2-1.3-4.1-1.3c-0.7,0-1.5,0.1-2.5,0.3c-1,0.2-1.7,0.5-2.3,0.9l0.6,1.9c1.5-0.5,2.8-0.8,3.9-0.8c1.1,0,1.8,0.2,2.2,0.6
		c0.4,0.4,0.6,1.2,0.6,2.4v2.3c-1-0.1-2-0.1-3.2-0.1c-1.1,0-2.2,0.3-3.3,0.8c-0.6,0.3-1.1,0.7-1.4,1.3c-0.4,0.6-0.5,1.3-0.5,2.1
		c0,1.3,0.4,2.3,1.2,3.1c0.8,0.8,1.8,1.1,3.1,1.1C700.2,417.5,701.1,417.3,701.9,417L701.9,417z M697.6,413c0-1.6,1.2-2.3,3.5-2.3
		c1.1,0,1.9,0,2.3,0.1v3.5c-1.1,0.7-2.3,1.1-3.6,1.1C698.4,415.3,697.6,414.6,697.6,413L697.6,413L697.6,413z M709.2,416.4
		c0.4,0.3,1.1,0.6,1.9,0.8c0.8,0.2,1.7,0.3,2.5,0.3c1.8,0,3.2-0.5,4.2-1.4c1-0.9,1.5-2,1.5-3.4c0-0.9-0.2-1.7-0.8-2.2
		c-0.5-0.6-1.1-1-1.8-1.3c-0.7-0.3-1.4-0.6-2.1-0.8s-1.3-0.6-1.8-1c-0.5-0.4-0.8-0.9-0.8-1.5c0-0.6,0.2-1.1,0.7-1.5s1.2-0.5,2.2-0.5
		c1,0,2,0.2,3.2,0.6l0.6-2c-1-0.6-2.3-0.9-4-0.9c-1.6,0-2.9,0.4-3.9,1.2c-1,0.8-1.4,1.9-1.4,3.3c0,0.9,0.2,1.7,0.7,2.3
		c0.5,0.6,1.1,1.1,1.8,1.3c0.7,0.3,1.4,0.5,2.1,0.8c0.7,0.3,1.3,0.6,1.8,1c0.5,0.4,0.7,0.9,0.7,1.5c0,0.6-0.3,1.1-0.8,1.5
		c-0.5,0.4-1.3,0.6-2.4,0.6c-1.1,0-2.3-0.3-3.6-0.9L709.2,416.4L709.2,416.4z M735.3,416.9l-0.5-2c-0.6,0.2-1.3,0.3-1.9,0.3
		c-0.6,0-1.1-0.1-1.2-0.3c-0.2-0.2-0.3-0.4-0.3-0.6c0-0.2,0-0.5,0-0.9V404h4.2l0.3-2.1h-4.4v-4l-2.4,0.5l-0.3,3.6l-2.8,0.2l-0.3,1.8
		l3,0.1v9.1c0,1.6,0.2,2.7,0.8,3.3c0.5,0.6,1.5,1,3.1,1C733.4,417.5,734.3,417.3,735.3,416.9L735.3,416.9L735.3,416.9z M742.5,402.2
		c-0.9,0.4-1.6,0.9-2.2,1.4v-7.8l-2.7,0.2v21h2.7v-11.2c0.5-0.6,1.1-1.1,2-1.4c0.8-0.4,1.6-0.6,2.3-0.6c0.7,0,1.2,0.3,1.5,0.8
		c0.2,0.5,0.4,1.2,0.4,2.2v10.3h2.7v-10.4c0-1.6-0.3-2.8-0.9-3.7c-0.6-0.9-1.6-1.3-3.1-1.3C744.2,401.6,743.4,401.8,742.5,402.2
		L742.5,402.2z M763.1,416.2l-0.7-1.9c-1.2,0.6-2.6,0.8-3.9,0.8c-1.4,0-2.4-0.5-3.1-1.6c-0.7-1.1-1.1-2.4-1.1-4.1h8.8
		c0.3-1.1,0.5-2,0.5-2.7c0-1.6-0.4-2.8-1.3-3.8c-0.9-0.9-2.2-1.4-3.9-1.4c-2,0-3.6,0.7-4.8,2.2c-1.2,1.5-1.7,3.3-1.7,5.6
		s0.5,4.2,1.6,5.8c1.1,1.5,2.8,2.3,5,2.3C760.1,417.5,761.7,417.1,763.1,416.2L763.1,416.2L763.1,416.2z M761,407.5l-6.5-0.1
		c0.1-0.7,0.4-1.4,0.9-2.2c0.3-0.4,0.7-0.8,1.2-1s1.2-0.4,1.9-0.4c0.8,0,1.4,0.3,1.8,0.9c0.4,0.6,0.7,1.5,0.7,2.6V407.5L761,407.5z
		 M783.7,409.5c0-2.7-0.6-4.8-1.7-6c-1.1-1.3-2.6-1.9-4.5-1.9s-3.4,0.6-4.6,1.9c-1.2,1.3-1.8,3.3-1.8,6c0,2.8,0.6,4.8,1.7,6
		c1.1,1.3,2.6,1.9,4.5,1.9s3.4-0.6,4.6-1.9C783.1,414.3,783.7,412.3,783.7,409.5L783.7,409.5z M780.1,405c0.6,0.8,0.9,2.3,0.9,4.4
		s-0.3,3.6-1,4.5c-0.7,0.9-1.5,1.3-2.5,1.3c-2.3,0-3.5-1.9-3.5-5.7s1.2-5.7,3.5-5.7C778.6,403.8,779.5,404.2,780.1,405L780.1,405z
		 M797.2,402.9c-0.6-0.9-1.6-1.3-3.1-1.3c-0.9,0-1.8,0.2-2.7,0.7c-1,0.4-1.7,0.9-2.3,1.5l-0.3-1.8h-2.2v15.2h2.7v-11.2
		c0.5-0.6,1.1-1,2-1.4c0.8-0.4,1.6-0.6,2.4-0.6s1.2,0.3,1.5,0.8c0.2,0.5,0.4,1.2,0.4,2.2v10.3h2.7v-10.4
		C798.1,405.1,797.8,403.8,797.2,402.9L797.2,402.9z M812.1,416.2l-0.7-1.9c-1.2,0.6-2.6,0.8-3.9,0.8c-1.4,0-2.4-0.5-3.1-1.6
		c-0.7-1.1-1.1-2.4-1.1-4.1h8.8c0.3-1.1,0.5-2,0.5-2.7c0-1.6-0.4-2.8-1.3-3.8c-0.9-0.9-2.2-1.4-3.9-1.4c-2,0-3.6,0.7-4.8,2.2
		c-1.2,1.5-1.7,3.3-1.7,5.6s0.5,4.2,1.6,5.8c1.1,1.5,2.8,2.3,5,2.3C809.1,417.5,810.7,417.1,812.1,416.2L812.1,416.2L812.1,416.2z
		 M810,407.5l-6.5-0.1c0.1-0.7,0.4-1.4,0.9-2.2c0.3-0.4,0.7-0.8,1.2-1c0.5-0.3,1.2-0.4,1.9-0.4c0.8,0,1.4,0.3,1.8,0.9
		c0.4,0.6,0.7,1.5,0.7,2.6V407.5L810,407.5z M814.2,416.4c0.4,0.3,1.1,0.6,1.9,0.8c0.8,0.2,1.7,0.3,2.5,0.3c1.8,0,3.2-0.5,4.2-1.4
		c1-0.9,1.5-2,1.5-3.4c0-0.9-0.3-1.7-0.8-2.2c-0.5-0.6-1.1-1-1.8-1.3c-0.7-0.3-1.4-0.6-2.1-0.8c-0.7-0.2-1.3-0.6-1.8-1
		c-0.5-0.4-0.8-0.9-0.8-1.5c0-0.6,0.2-1.1,0.7-1.5c0.5-0.4,1.2-0.5,2.2-0.5c1,0,2,0.2,3.2,0.6l0.6-2c-1-0.6-2.3-0.9-4-0.9
		c-1.6,0-2.9,0.4-3.9,1.2c-1,0.8-1.4,1.9-1.4,3.3c0,0.9,0.2,1.7,0.7,2.3c0.5,0.6,1.1,1.1,1.8,1.3c0.7,0.3,1.4,0.5,2.1,0.8
		c0.7,0.3,1.3,0.6,1.8,1c0.5,0.4,0.7,0.9,0.7,1.5c0,0.6-0.3,1.1-0.8,1.5c-0.5,0.4-1.3,0.6-2.4,0.6c-1.1,0-2.3-0.3-3.6-0.9
		L814.2,416.4L814.2,416.4z"/>
	<path d="M363.7,366.1h2.9l-6.6-20h-3.2l-6.6,20h2.9l1.7-5.2h7.1L363.7,366.1L363.7,366.1z M355.6,358.7l2.9-9.9l2.9,9.9H355.6
		L355.6,358.7z M368,365.4c0.4,0.3,1.1,0.6,1.9,0.8c0.8,0.2,1.7,0.3,2.5,0.3c1.8,0,3.2-0.5,4.2-1.4c1-0.9,1.5-2,1.5-3.4
		c0-0.9-0.2-1.7-0.8-2.2s-1.1-1-1.8-1.3c-0.7-0.3-1.4-0.6-2.1-0.8c-0.7-0.2-1.3-0.6-1.8-1c-0.5-0.4-0.8-0.9-0.8-1.5
		c0-0.6,0.2-1.1,0.7-1.5c0.5-0.4,1.2-0.5,2.2-0.5c1,0,2.1,0.2,3.2,0.6l0.6-2c-1-0.6-2.3-0.9-4-0.9c-1.6,0-2.9,0.4-3.9,1.2
		c-1,0.8-1.4,1.9-1.4,3.3c0,0.9,0.2,1.7,0.7,2.3c0.5,0.6,1.1,1.1,1.8,1.3c0.7,0.3,1.4,0.5,2.1,0.8c0.7,0.3,1.3,0.6,1.8,1
		c0.5,0.4,0.7,0.9,0.7,1.5c0,0.6-0.3,1.1-0.8,1.5c-0.5,0.4-1.3,0.6-2.4,0.6c-1.1,0-2.3-0.3-3.6-0.9L368,365.4L368,365.4z M393.3,366
		c0.8-0.3,1.4-0.6,1.8-1.1c0.5,1,1.3,1.5,2.3,1.5s2-0.2,2.6-0.7l-0.5-1.7c-0.6,0.2-1,0.3-1.3,0.3c-0.5,0-0.7-0.3-0.7-1v-7.3
		c0-2-0.4-3.4-1.2-4.2c-0.8-0.8-2.2-1.3-4.1-1.3c-0.7,0-1.5,0.1-2.5,0.3c-1,0.2-1.7,0.5-2.3,0.9l0.6,1.9c1.5-0.5,2.8-0.8,3.9-0.8
		c1.1,0,1.8,0.2,2.2,0.6c0.4,0.4,0.6,1.2,0.6,2.4v2.3c-1-0.1-2-0.1-3.2-0.1c-1.1,0-2.2,0.3-3.3,0.8c-0.6,0.3-1,0.7-1.4,1.3
		c-0.4,0.6-0.5,1.3-0.5,2.1c0,1.3,0.4,2.3,1.2,3.1c0.8,0.8,1.8,1.1,3.1,1.1C391.7,366.5,392.5,366.3,393.3,366L393.3,366z
		 M389.1,362c0-1.6,1.2-2.3,3.5-2.3c1.1,0,1.9,0,2.3,0.1v3.5c-1.1,0.7-2.3,1.1-3.6,1.1C389.8,364.3,389.1,363.6,389.1,362L389.1,362
		L389.1,362z M411.2,355.3c0.8-1.6,2.3-2.4,4.5-2.4c0.3,0,0.6,0,0.8,0l0.5-2.2c-0.3-0.1-0.7-0.1-1.3-0.1c-1.1,0-2,0.3-2.8,0.8
		c-0.8,0.6-1.4,1.1-1.8,1.7l-0.3-2.2h-2.2v15.2h2.7V355.3L411.2,355.3z M429.2,365.2l-0.7-1.9c-1.2,0.6-2.6,0.8-3.9,0.8
		c-1.4,0-2.4-0.5-3.1-1.6c-0.7-1.1-1.1-2.4-1.1-4.1h8.8c0.3-1.1,0.4-2,0.4-2.7c0-1.6-0.4-2.8-1.3-3.8c-0.9-0.9-2.2-1.4-3.9-1.4
		c-2,0-3.6,0.7-4.8,2.2c-1.2,1.5-1.7,3.3-1.7,5.6s0.5,4.2,1.6,5.8c1.1,1.5,2.8,2.3,5,2.3C426.2,366.5,427.8,366.1,429.2,365.2
		L429.2,365.2L429.2,365.2z M427.2,356.5l-6.5-0.1c0.1-0.7,0.4-1.4,0.9-2.2c0.3-0.4,0.7-0.8,1.2-1c0.5-0.3,1.2-0.4,1.9-0.4
		s1.4,0.3,1.8,0.9c0.4,0.6,0.7,1.5,0.7,2.6V356.5L427.2,356.5z M434.3,350.9l-2.5,0.2l-0.3,1.8l2.8,0.1v18.4l2.7,0.3V353h3.8
		l0.3-2.1H437v-1.2c0-1.1,0.2-1.9,0.6-2.3c0.4-0.4,1.1-0.6,2.3-0.6c1.2,0,2.2,0.1,3,0.3l0.6-2.1c-1.3-0.4-2.5-0.5-3.6-0.5
		c-2.1,0-3.5,0.4-4.3,1.2c-0.8,0.8-1.2,2.2-1.2,4.1V350.9L434.3,350.9z M453.7,365.2l-0.7-1.9c-1.2,0.6-2.6,0.8-3.9,0.8
		s-2.4-0.5-3.1-1.6c-0.7-1.1-1.1-2.4-1.1-4.1h8.8c0.3-1.1,0.5-2,0.5-2.7c0-1.6-0.4-2.8-1.3-3.8c-0.9-0.9-2.2-1.4-3.9-1.4
		c-2,0-3.6,0.7-4.8,2.2c-1.2,1.5-1.7,3.3-1.7,5.6s0.5,4.2,1.6,5.8c1.1,1.5,2.8,2.3,5,2.3C450.7,366.5,452.3,366.1,453.7,365.2
		L453.7,365.2L453.7,365.2z M451.6,356.5l-6.5-0.1c0.1-0.7,0.4-1.4,0.9-2.2c0.3-0.4,0.7-0.8,1.2-1c0.5-0.3,1.2-0.4,1.9-0.4
		s1.4,0.3,1.8,0.9c0.4,0.6,0.7,1.5,0.7,2.6V356.5L451.6,356.5z M460.1,355.3c0.8-1.6,2.3-2.4,4.5-2.4c0.3,0,0.6,0,0.8,0l0.5-2.2
		c-0.3-0.1-0.7-0.1-1.3-0.1c-1.1,0-2,0.3-2.8,0.8c-0.8,0.6-1.4,1.1-1.8,1.7l-0.3-2.2h-2.2v15.2h2.7V355.3L460.1,355.3z M478.1,365.2
		l-0.7-1.9c-1.2,0.6-2.6,0.8-3.9,0.8s-2.4-0.5-3.1-1.6c-0.7-1.1-1.1-2.4-1.1-4.1h8.8c0.3-1.1,0.5-2,0.5-2.7c0-1.6-0.4-2.8-1.3-3.8
		c-0.9-0.9-2.2-1.4-3.9-1.4c-2,0-3.6,0.7-4.8,2.2c-1.2,1.5-1.7,3.3-1.7,5.6s0.5,4.2,1.6,5.8c1.1,1.5,2.8,2.3,5,2.3
		C475.1,366.5,476.7,366.1,478.1,365.2L478.1,365.2L478.1,365.2z M476.1,356.5l-6.5-0.1c0.1-0.7,0.4-1.4,0.9-2.2
		c0.3-0.4,0.7-0.8,1.2-1c0.5-0.3,1.2-0.4,1.9-0.4s1.4,0.3,1.8,0.9c0.4,0.6,0.7,1.5,0.7,2.6V356.5L476.1,356.5z M492.5,351.9
		c-0.6-0.9-1.6-1.3-3.1-1.3c-0.9,0-1.8,0.2-2.7,0.7c-0.9,0.4-1.7,0.9-2.3,1.5l-0.3-1.8h-2.2v15.2h2.7v-11.2c0.5-0.6,1.1-1,2-1.4
		c0.8-0.4,1.6-0.6,2.4-0.6c0.7,0,1.2,0.3,1.5,0.8c0.2,0.5,0.4,1.2,0.4,2.2v10.3h2.7v-10.4C493.4,354.1,493.1,352.8,492.5,351.9
		L492.5,351.9z M507.3,365.8l-0.5-2c-1,0.3-1.9,0.4-2.8,0.4c-3.1,0-4.7-1.9-4.7-5.7c0-2,0.4-3.4,1.2-4.3c0.8-0.9,1.8-1.3,3-1.3
		c0.8,0,1.8,0.2,2.9,0.5l0.8-1.9c-1.1-0.6-2.4-0.9-3.7-0.9c-1.9,0-3.5,0.7-4.9,2c-1.3,1.3-2,3.3-2,6c0,2.7,0.7,4.6,2,6
		c1.3,1.3,3,2,5,2C504.8,366.5,506,366.3,507.3,365.8L507.3,365.8L507.3,365.8z M520.5,365.2l-0.7-1.9c-1.2,0.6-2.6,0.8-3.9,0.8
		c-1.4,0-2.4-0.5-3.1-1.6c-0.7-1.1-1.1-2.4-1.1-4.1h8.8c0.3-1.1,0.5-2,0.5-2.7c0-1.6-0.4-2.8-1.3-3.8c-0.9-0.9-2.2-1.4-3.9-1.4
		c-2,0-3.6,0.7-4.8,2.2c-1.2,1.5-1.7,3.3-1.7,5.6s0.5,4.2,1.6,5.8c1.1,1.5,2.8,2.3,5,2.3C517.5,366.5,519,366.1,520.5,365.2
		L520.5,365.2L520.5,365.2z M518.4,356.5l-6.5-0.1c0.1-0.7,0.4-1.4,0.9-2.2c0.3-0.4,0.7-0.8,1.2-1c0.5-0.3,1.2-0.4,1.9-0.4
		c0.8,0,1.4,0.3,1.8,0.9c0.4,0.6,0.7,1.5,0.7,2.6V356.5L518.4,356.5z M526.6,362.6h-2.8c0.3,0.8,0.5,1.5,0.5,2.2
		c0,1.5-0.8,3.3-2.5,5.2h2.5c1.8-1.6,2.7-3.5,2.7-5.6C527,363.7,526.9,363.1,526.6,362.6L526.6,362.6L526.6,362.6z M537.4,346v20
		h2.9v-20H537.4L537.4,346z M558.7,365.9l-0.5-2c-0.6,0.2-1.3,0.3-1.9,0.3c-0.6,0-1.1-0.1-1.2-0.3c-0.2-0.2-0.3-0.4-0.3-0.6
		s0-0.5,0-0.9V353h4.2l0.3-2.1h-4.4v-4l-2.4,0.5l-0.3,3.6l-2.8,0.2l-0.3,1.8l3,0.1v9.1c0,1.6,0.2,2.7,0.8,3.3c0.5,0.7,1.5,1,3.1,1
		C556.8,366.5,557.7,366.3,558.7,365.9L558.7,365.9L558.7,365.9z M573.3,358.5c0-2.7-0.6-4.8-1.7-6c-1.1-1.3-2.6-1.9-4.5-1.9
		c-1.9,0-3.4,0.6-4.6,1.9c-1.2,1.3-1.8,3.3-1.8,6c0,2.8,0.6,4.8,1.7,6c1.1,1.3,2.6,1.9,4.5,1.9c1.9,0,3.4-0.6,4.6-1.9
		C572.7,363.3,573.3,361.3,573.3,358.5L573.3,358.5z M569.6,354c0.6,0.8,0.9,2.3,0.9,4.4s-0.3,3.6-1,4.5c-0.7,0.9-1.5,1.3-2.5,1.3
		c-2.3,0-3.5-1.9-3.5-5.7s1.2-5.7,3.5-5.7C568.2,352.8,569,353.2,569.6,354L569.6,354z M588.5,358.5c0-2.7-0.6-4.8-1.7-6
		c-1.1-1.3-2.6-1.9-4.5-1.9c-1.9,0-3.4,0.6-4.6,1.9c-1.2,1.3-1.8,3.3-1.8,6c0,2.8,0.6,4.8,1.7,6c1.1,1.3,2.6,1.9,4.5,1.9
		c1.9,0,3.4-0.6,4.6-1.9C587.9,363.3,588.5,361.3,588.5,358.5L588.5,358.5z M584.9,354c0.6,0.8,0.9,2.3,0.9,4.4s-0.3,3.6-1,4.5
		c-0.7,0.9-1.5,1.3-2.5,1.3c-2.3,0-3.5-1.9-3.5-5.7s1.2-5.7,3.5-5.7C583.4,352.8,584.3,353.2,584.9,354L584.9,354z M594.7,357.9
		l6.6,8.2h3.3c-0.7-0.9-1.9-2.3-3.5-4.2c-1.6-1.9-2.8-3.3-3.5-4.2l6.2-6.7h-3.4l-5.7,6.6v-12.8l-2.7,0.2v21h2.7V357.9L594.7,357.9z
		 M620.9,365.9l-0.5-2c-0.6,0.2-1.3,0.3-1.9,0.3c-0.6,0-1.1-0.1-1.2-0.3c-0.2-0.2-0.3-0.4-0.3-0.6c0-0.2,0-0.5,0-0.9V353h4.2
		l0.3-2.1h-4.4v-4l-2.4,0.5l-0.3,3.6l-2.8,0.2l-0.3,1.8l3,0.1v9.1c0,1.6,0.2,2.7,0.8,3.3c0.5,0.7,1.5,1,3.1,1
		C619,366.5,620,366.3,620.9,365.9L620.9,365.9L620.9,365.9z M628.8,351.2c-0.9,0.4-1.6,0.9-2.2,1.4v-7.8l-2.7,0.2v21h2.7v-11.2
		c0.5-0.6,1.1-1.1,2-1.4c0.8-0.4,1.6-0.6,2.3-0.6s1.2,0.3,1.5,0.8c0.2,0.5,0.4,1.2,0.4,2.2v10.3h2.7v-10.4c0-1.6-0.3-2.8-0.9-3.7
		c-0.6-0.9-1.6-1.3-3.1-1.3C630.5,350.6,629.7,350.8,628.8,351.2L628.8,351.2z M650,365.2l-0.7-1.9c-1.2,0.6-2.6,0.8-3.9,0.8
		c-1.4,0-2.4-0.5-3.1-1.6c-0.7-1.1-1.1-2.4-1.1-4.1h8.8c0.3-1.1,0.4-2,0.4-2.7c0-1.6-0.4-2.8-1.3-3.8c-0.9-0.9-2.2-1.4-3.9-1.4
		c-2,0-3.6,0.7-4.8,2.2c-1.2,1.5-1.7,3.3-1.7,5.6s0.5,4.2,1.6,5.8c1.1,1.5,2.8,2.3,5,2.3C647,366.5,648.5,366.1,650,365.2L650,365.2
		L650,365.2z M647.9,356.5l-6.5-0.1c0.1-0.7,0.4-1.4,0.9-2.2c0.3-0.4,0.7-0.8,1.2-1c0.5-0.3,1.2-0.4,1.9-0.4c0.8,0,1.4,0.3,1.8,0.9
		c0.4,0.6,0.7,1.5,0.7,2.6V356.5L647.9,356.5z M660.8,350.9l-2.5,0.2l-0.3,1.8l2.8,0.1v18.4l2.7,0.3V353h3.8l0.3-2.1h-4.1v-1.2
		c0-1.1,0.2-1.9,0.6-2.3c0.4-0.4,1.1-0.6,2.3-0.6c1.2,0,2.2,0.1,3,0.3l0.6-2.1c-1.3-0.4-2.5-0.5-3.6-0.5c-2.1,0-3.5,0.4-4.3,1.2
		c-0.8,0.8-1.2,2.2-1.2,4.1V350.9L660.8,350.9z M681.5,358.5c0-2.7-0.6-4.8-1.7-6c-1.1-1.3-2.6-1.9-4.5-1.9c-1.9,0-3.4,0.6-4.6,1.9
		c-1.2,1.3-1.8,3.3-1.8,6c0,2.8,0.6,4.8,1.7,6c1.1,1.3,2.6,1.9,4.5,1.9c1.9,0,3.4-0.6,4.6-1.9C681,363.3,681.5,361.3,681.5,358.5
		L681.5,358.5z M677.9,354c0.6,0.8,0.9,2.3,0.9,4.4s-0.3,3.6-1,4.5c-0.7,0.9-1.5,1.3-2.5,1.3c-2.3,0-3.5-1.9-3.5-5.7
		s1.2-5.7,3.5-5.7C676.5,352.8,677.3,353.2,677.9,354L677.9,354z M695.7,351.9c-0.6-0.9-1.6-1.3-3.1-1.3c-0.9,0-1.8,0.2-2.7,0.7
		c-1,0.4-1.7,0.9-2.3,1.5l-0.3-1.8H685v15.2h2.7v-11.2c0.5-0.6,1.1-1,2-1.4c0.8-0.4,1.6-0.6,2.4-0.6c0.7,0,1.2,0.3,1.5,0.8
		c0.2,0.5,0.4,1.2,0.4,2.2v10.3h2.7v-10.4C696.5,354.1,696.3,352.8,695.7,351.9L695.7,351.9z M708.8,365.9l-0.5-2
		c-0.6,0.2-1.3,0.3-1.9,0.3c-0.6,0-1.1-0.1-1.2-0.3c-0.2-0.2-0.3-0.4-0.3-0.6s0-0.5,0-0.9V353h4.2l0.3-2.1h-4.4v-4l-2.4,0.5
		l-0.3,3.6l-2.8,0.2l-0.3,1.8l3,0.1v9.1c0,1.6,0.2,2.7,0.8,3.3c0.5,0.7,1.5,1,3.1,1C706.8,366.5,707.8,366.3,708.8,365.9
		L708.8,365.9L708.8,365.9z M710.7,365.4c0.4,0.3,1.1,0.6,1.9,0.8c0.8,0.2,1.7,0.3,2.5,0.3c1.8,0,3.2-0.5,4.2-1.4
		c1-0.9,1.5-2,1.5-3.4c0-0.9-0.2-1.7-0.8-2.2s-1.1-1-1.8-1.3c-0.7-0.3-1.4-0.6-2.1-0.8s-1.3-0.6-1.8-1c-0.5-0.4-0.8-0.9-0.8-1.5
		c0-0.6,0.2-1.1,0.7-1.5s1.2-0.5,2.2-0.5c1,0,2,0.2,3.2,0.6l0.6-2c-1-0.6-2.3-0.9-4-0.9c-1.6,0-2.9,0.4-3.9,1.2
		c-1,0.8-1.4,1.9-1.4,3.3c0,0.9,0.2,1.7,0.7,2.3c0.5,0.6,1.1,1.1,1.8,1.3c0.7,0.3,1.4,0.5,2.1,0.8c0.7,0.3,1.3,0.6,1.8,1
		c0.5,0.4,0.7,0.9,0.7,1.5c0,0.6-0.3,1.1-0.8,1.5c-0.5,0.4-1.3,0.6-2.4,0.6c-1.1,0-2.3-0.3-3.6-0.9L710.7,365.4L710.7,365.4z
		 M738,365.9l-0.5-2c-0.6,0.2-1.3,0.3-1.9,0.3s-1.1-0.1-1.2-0.3c-0.2-0.2-0.3-0.4-0.3-0.6c0-0.2,0-0.5,0-0.9V353h4.2l0.3-2.1H734v-4
		l-2.4,0.5l-0.3,3.6l-2.8,0.2l-0.3,1.8l3,0.1v9.1c0,1.6,0.2,2.7,0.8,3.3c0.5,0.7,1.5,1,3.1,1C736.1,366.5,737,366.3,738,365.9
		L738,365.9L738,365.9z M745.8,351.2c-0.9,0.4-1.6,0.9-2.2,1.4v-7.8l-2.7,0.2v21h2.7v-11.2c0.5-0.6,1.1-1.1,2-1.4
		c0.8-0.4,1.6-0.6,2.3-0.6c0.7,0,1.2,0.3,1.5,0.8c0.2,0.5,0.4,1.2,0.4,2.2v10.3h2.7v-10.4c0-1.6-0.3-2.8-0.9-3.7
		c-0.6-0.9-1.6-1.3-3.1-1.3C747.5,350.6,746.7,350.8,745.8,351.2L745.8,351.2z M762.1,366c0.8-0.3,1.4-0.6,1.8-1.1
		c0.5,1,1.3,1.5,2.3,1.5c1.1,0,2-0.2,2.6-0.7l-0.4-1.7c-0.6,0.2-1,0.3-1.3,0.3c-0.5,0-0.7-0.3-0.7-1v-7.3c0-2-0.4-3.4-1.2-4.2
		s-2.2-1.3-4.1-1.3c-0.7,0-1.5,0.1-2.5,0.3c-1,0.2-1.7,0.5-2.3,0.9l0.6,1.9c1.5-0.5,2.8-0.8,3.9-0.8s1.8,0.2,2.2,0.6
		c0.4,0.4,0.6,1.2,0.6,2.4v2.3c-1-0.1-2-0.1-3.2-0.1c-1.1,0-2.2,0.3-3.3,0.8c-0.6,0.3-1.1,0.7-1.4,1.3c-0.4,0.6-0.5,1.3-0.5,2.1
		c0,1.3,0.4,2.3,1.2,3.1c0.8,0.8,1.8,1.1,3.1,1.1C760.5,366.5,761.4,366.3,762.1,366L762.1,366z M757.9,362c0-1.6,1.2-2.3,3.5-2.3
		c1.1,0,1.9,0,2.3,0.1v3.5c-1.1,0.7-2.3,1.1-3.6,1.1C758.7,364.3,757.9,363.6,757.9,362L757.9,362L757.9,362z M779.1,365.9l-0.5-2
		c-0.6,0.2-1.3,0.3-1.9,0.3c-0.6,0-1.1-0.1-1.2-0.3c-0.2-0.2-0.3-0.4-0.3-0.6c0-0.2,0-0.5,0-0.9V353h4.2l0.3-2.1h-4.4v-4l-2.4,0.5
		l-0.3,3.6l-2.8,0.2l-0.3,1.8l3,0.1v9.1c0,1.6,0.2,2.7,0.8,3.3c0.5,0.7,1.5,1,3.1,1C777.2,366.5,778.2,366.3,779.1,365.9
		L779.1,365.9L779.1,365.9z"/>
	<path d="M354.8,299.8l-2.7,0.3v15.1h2.7V299.8L354.8,299.8z M352.1,296.7c0.4,0.4,0.8,0.6,1.3,0.6c0.5,0,0.9-0.2,1.3-0.6
		c0.4-0.4,0.5-0.8,0.5-1.3c0-0.5-0.2-0.9-0.5-1.3c-0.4-0.3-0.8-0.5-1.3-0.5c-0.5,0-0.9,0.2-1.3,0.5c-0.4,0.4-0.5,0.8-0.5,1.3
		C351.5,295.9,351.7,296.4,352.1,296.7L352.1,296.7z M367.1,314.9l-0.5-2c-0.6,0.2-1.3,0.3-1.9,0.3c-0.6,0-1.1-0.1-1.2-0.3
		c-0.2-0.2-0.3-0.4-0.3-0.6c0-0.2,0-0.5,0-0.9V302h4.2l0.3-2.1H363v-4l-2.4,0.5l-0.3,3.6l-2.8,0.2l-0.3,1.8l3,0.1v9.1
		c0,1.6,0.2,2.7,0.8,3.3c0.5,0.7,1.5,1,3.1,1C365.1,315.5,366.1,315.3,367.1,314.9L367.1,314.9L367.1,314.9z M387,315.1h2.8
		l3.9-15.2h-2.7l-2.7,12.2l-3-12.2l-2.5,0.2l-3,12l-2.7-12.2h-2.7l3.9,15.2h2.8l2.9-11.8L387,315.1L387,315.1z M402,315
		c0.8-0.3,1.4-0.6,1.8-1.1c0.5,1,1.3,1.5,2.3,1.5c1.1,0,2-0.2,2.6-0.7l-0.4-1.7c-0.6,0.2-1,0.3-1.3,0.3c-0.5,0-0.7-0.3-0.7-1v-7.3
		c0-2-0.4-3.4-1.2-4.2s-2.2-1.3-4.1-1.3c-0.7,0-1.5,0.1-2.5,0.3c-1,0.2-1.7,0.5-2.3,0.9l0.6,1.9c1.5-0.5,2.8-0.8,3.9-0.8
		c1.1,0,1.8,0.2,2.2,0.6c0.4,0.4,0.6,1.2,0.6,2.4v2.3c-1-0.1-2-0.1-3.2-0.1s-2.2,0.3-3.3,0.8c-0.6,0.3-1.1,0.7-1.4,1.3
		c-0.4,0.6-0.5,1.3-0.5,2.1c0,1.3,0.4,2.3,1.2,3.1c0.8,0.8,1.8,1.1,3.1,1.1C400.4,315.5,401.2,315.3,402,315L402,315z M397.8,311
		c0-1.6,1.2-2.3,3.5-2.3c1.1,0,1.9,0,2.3,0.1v3.5c-1.1,0.7-2.3,1.1-3.6,1.1C398.5,313.3,397.8,312.6,397.8,311L397.8,311L397.8,311z
		 M409.9,314.4c0.4,0.3,1.1,0.6,1.9,0.8c0.8,0.2,1.7,0.3,2.5,0.3c1.8,0,3.2-0.5,4.2-1.4c1-0.9,1.5-2,1.5-3.4c0-0.9-0.2-1.7-0.8-2.2
		c-0.5-0.6-1.1-1-1.8-1.3c-0.7-0.3-1.4-0.6-2.1-0.8c-0.7-0.2-1.3-0.6-1.8-1c-0.5-0.4-0.8-0.9-0.8-1.5c0-0.6,0.2-1.1,0.7-1.5
		c0.5-0.4,1.2-0.5,2.2-0.5c1,0,2.1,0.2,3.2,0.6l0.6-2c-1-0.6-2.3-0.9-4-0.9c-1.6,0-2.9,0.4-3.9,1.2c-1,0.8-1.4,1.9-1.4,3.3
		c0,0.9,0.2,1.7,0.7,2.3c0.5,0.6,1.1,1.1,1.8,1.3c0.7,0.3,1.4,0.5,2.1,0.8c0.7,0.3,1.3,0.6,1.8,1c0.5,0.4,0.7,0.9,0.7,1.5
		c0,0.6-0.3,1.1-0.8,1.5c-0.5,0.4-1.3,0.6-2.4,0.6c-1.1,0-2.3-0.3-3.6-0.9L409.9,314.4L409.9,314.4z M437.2,314.9l-0.5-2
		c-0.6,0.2-1.3,0.3-1.9,0.3c-0.6,0-1.1-0.1-1.2-0.3c-0.2-0.2-0.3-0.4-0.3-0.6c0-0.2,0-0.5,0-0.9V302h4.2l0.3-2.1h-4.4v-4l-2.4,0.5
		l-0.3,3.6l-2.8,0.2l-0.3,1.8l3,0.1v9.1c0,1.6,0.2,2.7,0.8,3.3c0.5,0.7,1.5,1,3.1,1C435.3,315.5,436.3,315.3,437.2,314.9
		L437.2,314.9L437.2,314.9z M445,300.2c-0.9,0.4-1.6,0.9-2.2,1.4v-7.8l-2.7,0.2v21h2.7v-11.2c0.5-0.6,1.1-1.1,2-1.4
		c0.8-0.4,1.6-0.6,2.3-0.6c0.7,0,1.2,0.3,1.5,0.8c0.2,0.5,0.4,1.2,0.4,2.2v10.3h2.7v-10.4c0-1.6-0.3-2.8-0.9-3.7
		c-0.6-0.9-1.6-1.3-3.1-1.3C446.8,299.6,445.9,299.8,445,300.2L445,300.2z M466.2,314.2l-0.7-1.9c-1.2,0.6-2.6,0.8-3.9,0.8
		c-1.4,0-2.4-0.5-3.1-1.6c-0.7-1.1-1.1-2.4-1.1-4.1h8.8c0.3-1.1,0.5-2,0.5-2.7c0-1.6-0.4-2.8-1.3-3.8c-0.9-0.9-2.2-1.4-3.9-1.4
		c-2,0-3.6,0.7-4.8,2.2c-1.2,1.5-1.7,3.3-1.7,5.6s0.5,4.2,1.6,5.8c1.1,1.5,2.8,2.3,5,2.3C463.2,315.5,464.8,315.1,466.2,314.2
		L466.2,314.2L466.2,314.2z M464.2,305.5l-6.5-0.1c0.1-0.7,0.4-1.4,0.9-2.2c0.3-0.4,0.7-0.8,1.2-1c0.5-0.3,1.2-0.4,1.9-0.4
		s1.4,0.3,1.8,0.9c0.4,0.6,0.7,1.5,0.7,2.6V305.5L464.2,305.5z M486.4,315.1h2.7v-15.4l-2.7,0.2h-6.1v-1.2c0-1.1,0.2-1.8,0.7-2.2
		c0.5-0.4,1.2-0.7,2.2-0.7c1,0,2.1,0.1,3.6,0.3l0.5-2.2c-1.4-0.3-2.8-0.5-4.2-0.5c-3.7,0-5.6,1.8-5.6,5.4v1.1l-2.5,0.2l-0.3,1.8
		l2.8,0.1v18.4l2.7,0.3V302h6.1V315.1L486.4,315.1z M495.9,304.3c0.8-1.6,2.3-2.4,4.5-2.4c0.3,0,0.6,0,0.8,0l0.5-2.2
		c-0.3-0.1-0.7-0.1-1.3-0.1c-1.1,0-2,0.3-2.8,0.8c-0.8,0.6-1.4,1.1-1.8,1.7l-0.3-2.2h-2.2v15.2h2.7V304.3L495.9,304.3z M503,314.4
		c0.4,0.3,1.1,0.6,1.9,0.8c0.9,0.2,1.7,0.3,2.5,0.3c1.8,0,3.2-0.5,4.2-1.4c1-0.9,1.5-2,1.5-3.4c0-0.9-0.3-1.7-0.8-2.2
		c-0.5-0.6-1.1-1-1.8-1.3c-0.7-0.3-1.4-0.6-2.1-0.8c-0.7-0.2-1.3-0.6-1.8-1c-0.5-0.4-0.8-0.9-0.8-1.5c0-0.6,0.2-1.1,0.7-1.5
		c0.5-0.4,1.2-0.5,2.2-0.5s2,0.2,3.2,0.6l0.6-2c-1-0.6-2.3-0.9-4-0.9s-2.9,0.4-3.9,1.2c-1,0.8-1.4,1.9-1.4,3.3
		c0,0.9,0.2,1.7,0.7,2.3c0.5,0.6,1.1,1.1,1.8,1.3c0.7,0.3,1.4,0.5,2.1,0.8c0.7,0.3,1.3,0.6,1.8,1c0.5,0.4,0.7,0.9,0.7,1.5
		c0,0.6-0.3,1.1-0.8,1.5c-0.5,0.4-1.3,0.6-2.4,0.6s-2.3-0.3-3.6-0.9L503,314.4L503,314.4z M524.4,314.9l-0.5-2
		c-0.6,0.2-1.3,0.3-1.9,0.3s-1.1-0.1-1.2-0.3c-0.2-0.2-0.3-0.4-0.3-0.6c0-0.2,0-0.5,0-0.9V302h4.2l0.3-2.1h-4.4v-4l-2.4,0.5
		l-0.3,3.6l-2.8,0.2l-0.3,1.8l3,0.1v9.1c0,1.6,0.2,2.7,0.8,3.3c0.5,0.7,1.5,1,3.1,1C522.5,315.5,523.5,315.3,524.4,314.9
		L524.4,314.9L524.4,314.9z M534.5,299.9l-2.5,0.2l-0.3,1.8l2.8,0.1v18.4l2.7,0.3V302h3.8l0.3-2.1h-4.1v-1.2c0-1.1,0.2-1.9,0.6-2.3
		c0.4-0.4,1.1-0.6,2.3-0.6s2.2,0.1,3,0.3l0.6-2.1c-1.3-0.4-2.5-0.5-3.6-0.5c-2.1,0-3.5,0.4-4.3,1.2c-0.8,0.8-1.2,2.2-1.2,4.1V299.9
		L534.5,299.9z M555.2,307.5c0-2.7-0.6-4.8-1.7-6c-1.1-1.3-2.6-1.9-4.5-1.9c-1.9,0-3.4,0.6-4.6,1.9c-1.2,1.3-1.8,3.3-1.8,6
		c0,2.8,0.6,4.8,1.7,6c1.1,1.3,2.6,1.9,4.5,1.9s3.4-0.6,4.6-1.9C554.6,312.3,555.2,310.3,555.2,307.5L555.2,307.5z M551.6,303
		c0.6,0.8,0.9,2.3,0.9,4.4s-0.3,3.6-1,4.5c-0.7,0.9-1.5,1.3-2.5,1.3c-2.3,0-3.5-1.9-3.5-5.7c0-3.8,1.2-5.7,3.5-5.7
		C550.1,301.8,551,302.2,551.6,303L551.6,303z M569.3,300.9c-0.6-0.9-1.6-1.3-3.1-1.3c-0.9,0-1.8,0.2-2.7,0.7
		c-1,0.4-1.7,0.9-2.3,1.5l-0.3-1.8h-2.2v15.2h2.7v-11.2c0.5-0.6,1.1-1,2-1.4c0.8-0.4,1.6-0.6,2.4-0.6c0.7,0,1.2,0.3,1.5,0.8
		c0.2,0.5,0.4,1.2,0.4,2.2v10.3h2.7v-10.4C570.2,303.1,569.9,301.8,569.3,300.9L569.3,300.9z M582.4,314.9l-0.5-2
		c-0.6,0.2-1.3,0.3-1.9,0.3c-0.6,0-1.1-0.1-1.2-0.3c-0.2-0.2-0.3-0.4-0.3-0.6c0-0.2,0-0.5,0-0.9V302h4.2l0.3-2.1h-4.4v-4l-2.4,0.5
		l-0.3,3.6l-2.8,0.2l-0.3,1.8l3,0.1v9.1c0,1.6,0.2,2.7,0.8,3.3c0.5,0.7,1.5,1,3.1,1C580.5,315.5,581.5,315.3,582.4,314.9
		L582.4,314.9L582.4,314.9z M592.5,299.9l-2.5,0.2l-0.3,1.8l2.8,0.1v18.4l2.7,0.3V302h3.8l0.3-2.1h-4.1v-1.2c0-1.1,0.2-1.9,0.6-2.3
		c0.4-0.4,1.1-0.6,2.3-0.6c1.2,0,2.2,0.1,3,0.3l0.6-2.1c-1.3-0.4-2.5-0.5-3.6-0.5c-2.1,0-3.5,0.4-4.3,1.2c-0.8,0.8-1.2,2.2-1.2,4.1
		V299.9L592.5,299.9z M607.4,315c0.8-0.3,1.4-0.6,1.8-1.1c0.5,1,1.3,1.5,2.3,1.5s2-0.2,2.6-0.7l-0.4-1.7c-0.6,0.2-1,0.3-1.3,0.3
		c-0.5,0-0.7-0.3-0.7-1v-7.3c0-2-0.4-3.4-1.2-4.2s-2.2-1.3-4.1-1.3c-0.7,0-1.5,0.1-2.5,0.3c-1,0.2-1.7,0.5-2.3,0.9l0.6,1.9
		c1.5-0.5,2.8-0.8,3.9-0.8s1.8,0.2,2.2,0.6c0.4,0.4,0.6,1.2,0.6,2.4v2.3c-1-0.1-2-0.1-3.2-0.1c-1.1,0-2.2,0.3-3.3,0.8
		c-0.6,0.3-1,0.7-1.4,1.3c-0.4,0.6-0.5,1.3-0.5,2.1c0,1.3,0.4,2.3,1.2,3.1c0.8,0.8,1.8,1.1,3.1,1.1
		C605.8,315.5,606.6,315.3,607.4,315L607.4,315z M603.2,311c0-1.6,1.2-2.3,3.5-2.3c1.1,0,1.9,0,2.3,0.1v3.5
		c-1.1,0.7-2.3,1.1-3.6,1.1C604,313.3,603.2,312.6,603.2,311L603.2,311L603.2,311z M627.7,303.8c0.5-0.5,1.2-0.9,2-1.3
		c0.8-0.4,1.5-0.6,2.2-0.6c0.7,0,1.2,0.3,1.4,0.8c0.2,0.5,0.4,1.2,0.4,2.2v10.3h2.7v-10.4c0-3.4-1.3-5.1-4-5.1
		c-0.8,0-1.7,0.2-2.7,0.7c-1,0.5-1.7,1-2.3,1.5c-0.6-1.5-1.7-2.2-3.6-2.2c-0.9,0-1.7,0.2-2.7,0.7c-0.9,0.4-1.6,0.9-2.2,1.5l-0.3-1.8
		h-2.2v15.2h2.7v-11.2c0.5-0.6,1.1-1.1,1.9-1.4c0.8-0.4,1.6-0.6,2.3-0.6s1.2,0.3,1.5,0.8c0.2,0.5,0.4,1.2,0.4,2.2v10.3h2.7v-10.3
		C627.7,304.4,627.7,304,627.7,303.8L627.7,303.8L627.7,303.8z M643,299.8l-2.7,0.3v15.1h2.7V299.8L643,299.8z M640.3,296.7
		c0.4,0.4,0.8,0.6,1.3,0.6c0.5,0,0.9-0.2,1.3-0.6c0.4-0.4,0.5-0.8,0.5-1.3c0-0.5-0.2-0.9-0.5-1.3c-0.3-0.3-0.8-0.5-1.3-0.5
		c-0.5,0-0.9,0.2-1.3,0.5c-0.4,0.4-0.5,0.8-0.5,1.3C639.8,295.9,639.9,296.4,640.3,296.7L640.3,296.7z M647.1,312.1
		c0,2.3,1,3.4,3,3.4c1.2,0,2.2-0.2,3-0.6l-0.5-2c-0.6,0.2-1.2,0.3-1.8,0.3c-0.7,0-1.1-0.4-1.1-1.2v-17.9h-2.7V312.1L647.1,312.1z
		 M652.9,319.3l-0.3,1.9c0.7,0.1,1.4,0.2,2,0.2c1.6,0,3-0.5,4-1.5c1-1,1.9-2.7,2.7-5.1l5-14.9h-2.8l-3.5,12.3l-3.9-12.3l-2.9,0.2
		l5.5,15.1c-0.5,1.6-1.1,2.7-1.8,3.3c-0.7,0.6-1.6,0.9-2.7,0.9C653.7,319.4,653.2,319.3,652.9,319.3L652.9,319.3L652.9,319.3z
		 M675.1,295v20h2.9v-20H675.1L675.1,295z M691.4,312.8v-9.6c1.3-0.9,2.5-1.3,3.6-1.3c2,0,3,1.8,3,5.3c0,4-1.2,6-3.8,6
		C693.3,313.2,692.4,313.1,691.4,312.8L691.4,312.8L691.4,312.8z M690.9,299.9h-2.3v21.9l2.7-0.3v-6.6c0.9,0.4,1.8,0.6,2.8,0.6
		c4.4,0,6.6-2.8,6.6-8.3c0-2.3-0.5-4.2-1.4-5.5c-0.9-1.4-2.2-2-3.8-2s-3.1,0.5-4.4,1.5L690.9,299.9L690.9,299.9z M711,315
		c0.8-0.3,1.5-0.8,2.1-1.2l0.3,1.6h2.2V300h-2.7v11.8c-0.5,0.4-1.1,0.8-1.8,1c-0.8,0.3-1.5,0.4-2.3,0.4c-0.8,0-1.3-0.2-1.6-0.7
		c-0.3-0.5-0.4-1.2-0.4-2.2v-10.3h-2.7v10.4c0,1.7,0.3,2.9,1,3.8c0.6,0.9,1.8,1.3,3.4,1.3C709.3,315.5,710.1,315.3,711,315L711,315z
		 M728.9,307.3c0,3.9-1.3,5.9-3.8,5.9c-1.1,0-2.1-0.2-2.8-0.5v-9.6c1.2-0.8,2.4-1.3,3.7-1.3C727.9,301.9,728.9,303.7,728.9,307.3
		L728.9,307.3L728.9,307.3z M719.6,294.1v20c1.6,1,3.4,1.4,5.5,1.4c4.4,0,6.6-2.9,6.6-8.7c0-2.3-0.5-4-1.5-5.3
		c-1-1.2-2.3-1.9-3.8-1.9c-0.8,0-1.6,0.2-2.4,0.5c-0.8,0.3-1.4,0.6-1.8,0.9v-6.9H719.6L719.6,294.1z M735.2,312.1c0,2.3,1,3.4,3,3.4
		c1.2,0,2.2-0.2,3-0.6l-0.5-2c-0.6,0.2-1.2,0.3-1.8,0.3c-0.7,0-1.1-0.4-1.1-1.2v-17.9h-2.7V312.1L735.2,312.1z M745.8,299.8
		l-2.7,0.3v15.1h2.7V299.8L745.8,299.8z M743.1,296.7c0.4,0.4,0.8,0.6,1.3,0.6c0.5,0,0.9-0.2,1.3-0.6c0.3-0.4,0.5-0.8,0.5-1.3
		c0-0.5-0.2-0.9-0.5-1.3c-0.4-0.3-0.8-0.5-1.3-0.5c-0.5,0-0.9,0.2-1.3,0.5c-0.4,0.4-0.5,0.8-0.5,1.3
		C742.5,295.9,742.7,296.4,743.1,296.7L743.1,296.7z M748.9,314.4c0.4,0.3,1.1,0.6,1.9,0.8c0.8,0.2,1.7,0.3,2.5,0.3
		c1.8,0,3.2-0.5,4.2-1.4c1-0.9,1.5-2,1.5-3.4c0-0.9-0.2-1.7-0.8-2.2c-0.5-0.6-1.1-1-1.8-1.3c-0.7-0.3-1.4-0.6-2.1-0.8
		c-0.7-0.2-1.3-0.6-1.8-1c-0.5-0.4-0.8-0.9-0.8-1.5c0-0.6,0.2-1.1,0.7-1.5c0.5-0.4,1.2-0.5,2.2-0.5c1,0,2,0.2,3.2,0.6l0.6-2
		c-1-0.6-2.3-0.9-4-0.9c-1.6,0-2.9,0.4-3.9,1.2c-1,0.8-1.4,1.9-1.4,3.3c0,0.9,0.2,1.7,0.7,2.3c0.5,0.6,1.1,1.1,1.8,1.3
		c0.7,0.3,1.4,0.5,2.1,0.8c0.7,0.3,1.3,0.6,1.8,1c0.5,0.4,0.7,0.9,0.7,1.5c0,0.6-0.3,1.1-0.8,1.5c-0.5,0.4-1.3,0.6-2.4,0.6
		c-1.1,0-2.3-0.3-3.6-0.9L748.9,314.4L748.9,314.4z M767.1,300.2c-0.9,0.4-1.6,0.9-2.2,1.4v-7.8l-2.7,0.2v21h2.7v-11.2
		c0.5-0.6,1.1-1.1,2-1.4c0.8-0.4,1.6-0.6,2.3-0.6c0.7,0,1.2,0.3,1.5,0.8c0.2,0.5,0.4,1.2,0.4,2.2v10.3h2.7v-10.4
		c0-1.6-0.3-2.8-0.9-3.7c-0.6-0.9-1.6-1.3-3.1-1.3C768.9,299.6,768,299.8,767.1,300.2L767.1,300.2z M788.3,314.2l-0.7-1.9
		c-1.2,0.6-2.6,0.8-3.9,0.8c-1.4,0-2.4-0.5-3.1-1.6c-0.7-1.1-1.1-2.4-1.1-4.1h8.8c0.3-1.1,0.5-2,0.5-2.7c0-1.6-0.4-2.8-1.3-3.8
		c-0.9-0.9-2.2-1.4-3.9-1.4c-2,0-3.6,0.7-4.8,2.2c-1.2,1.5-1.7,3.3-1.7,5.6s0.5,4.2,1.6,5.8c1.1,1.5,2.8,2.3,5,2.3
		C785.3,315.5,786.9,315.1,788.3,314.2L788.3,314.2L788.3,314.2z M786.3,305.5l-6.5-0.1c0.1-0.7,0.4-1.4,0.9-2.2
		c0.3-0.4,0.7-0.8,1.2-1c0.5-0.3,1.2-0.4,1.9-0.4c0.8,0,1.4,0.3,1.8,0.9c0.4,0.6,0.7,1.5,0.7,2.6V305.5L786.3,305.5z M792.7,313.3
		c0.9,1.4,2.2,2,3.9,2s3.1-0.5,4.4-1.5l0.4,1.5h2.1v-21.2h-2.7v6.2c-0.8-0.5-1.8-0.7-2.9-0.7c-4.4,0-6.6,2.7-6.6,8.2
		C791.3,310.1,791.8,312,792.7,313.3L792.7,313.3z M800.8,302.4v9.5c-0.9,0.9-2.1,1.3-3.6,1.3c-2,0-3.1-1.8-3.1-5.4
		c0-3.9,1.2-5.9,3.8-5.9C799,301.9,800,302,800.8,302.4L800.8,302.4L800.8,302.4z M807.1,313.4c0,0.5,0.2,1,0.5,1.3
		c0.4,0.4,0.8,0.6,1.3,0.6s0.9-0.2,1.3-0.6c0.4-0.4,0.5-0.8,0.5-1.3c0-0.5-0.2-0.9-0.5-1.3c-0.4-0.3-0.8-0.5-1.3-0.5
		s-0.9,0.2-1.3,0.5C807.2,312.5,807.1,312.9,807.1,313.4L807.1,313.4z"/>
	<path d="M354.8,248.8l-2.7,0.3v15.1h2.7V248.8L354.8,248.8z M352.1,245.7c0.4,0.4,0.8,0.6,1.3,0.6c0.5,0,0.9-0.2,1.3-0.6
		c0.4-0.4,0.5-0.8,0.5-1.3c0-0.5-0.2-0.9-0.5-1.3c-0.4-0.3-0.8-0.5-1.3-0.5c-0.5,0-0.9,0.2-1.3,0.5c-0.4,0.4-0.5,0.8-0.5,1.3
		C351.5,244.9,351.7,245.4,352.1,245.7L352.1,245.7z M369.5,249.9c-0.6-0.9-1.6-1.3-3.1-1.3c-0.9,0-1.8,0.2-2.7,0.7
		c-0.9,0.4-1.7,0.9-2.3,1.5l-0.3-1.8h-2.2v15.2h2.7v-11.2c0.5-0.6,1.1-1,2-1.4c0.9-0.4,1.6-0.6,2.4-0.6c0.7,0,1.2,0.3,1.5,0.8
		c0.2,0.5,0.4,1.2,0.4,2.2v10.3h2.7v-10.4C370.4,252.1,370.1,250.8,369.5,249.9L369.5,249.9z M391.3,263.2l-0.7-1.9
		c-1.2,0.6-2.6,0.8-3.9,0.8c-1.4,0-2.4-0.5-3.1-1.6c-0.7-1.1-1.1-2.4-1.1-4.1h8.8c0.3-1.1,0.4-2,0.4-2.7c0-1.6-0.4-2.8-1.3-3.8
		c-0.9-0.9-2.2-1.4-3.9-1.4c-2,0-3.6,0.7-4.8,2.2c-1.2,1.5-1.7,3.3-1.7,5.6c0,2.3,0.5,4.2,1.6,5.8c1.1,1.5,2.8,2.3,5,2.3
		C388.3,264.5,389.9,264.1,391.3,263.2L391.3,263.2L391.3,263.2z M389.3,254.5l-6.5-0.1c0.1-0.7,0.4-1.4,0.9-2.2
		c0.3-0.4,0.7-0.8,1.2-1c0.5-0.3,1.2-0.4,1.9-0.4s1.4,0.3,1.8,0.9c0.4,0.6,0.7,1.5,0.7,2.5V254.5L389.3,254.5z M399.8,261.4
		l-3.5-12.5h-2.9l4.8,15.2h3l4.9-15.1h-2.8L399.8,261.4L399.8,261.4z M419.1,263.2l-0.7-1.9c-1.2,0.6-2.6,0.8-3.9,0.8
		c-1.4,0-2.4-0.5-3.1-1.6c-0.7-1.1-1.1-2.4-1.1-4.1h8.8c0.3-1.1,0.4-2,0.4-2.7c0-1.6-0.4-2.8-1.3-3.8c-0.9-0.9-2.2-1.4-3.9-1.4
		c-2,0-3.6,0.7-4.8,2.2c-1.2,1.5-1.7,3.3-1.7,5.6c0,2.3,0.5,4.2,1.6,5.8c1.1,1.5,2.8,2.3,5,2.3C416,264.5,417.6,264.1,419.1,263.2
		L419.1,263.2L419.1,263.2z M417,254.5l-6.5-0.1c0.1-0.7,0.4-1.4,0.9-2.2c0.3-0.4,0.7-0.8,1.2-1c0.5-0.3,1.2-0.4,1.9-0.4
		s1.4,0.3,1.8,0.9c0.4,0.6,0.7,1.5,0.7,2.5V254.5L417,254.5z M425.4,253.3c0.8-1.6,2.3-2.4,4.5-2.4c0.3,0,0.6,0,0.8,0l0.5-2.2
		c-0.3-0.1-0.7-0.2-1.3-0.2c-1.1,0-2,0.3-2.8,0.8c-0.8,0.6-1.4,1.1-1.8,1.7l-0.3-2.2h-2.2v15.2h2.7V253.3L425.4,253.3z M431.7,268.3
		l-0.3,1.9c0.7,0.1,1.4,0.2,2,0.2c1.6,0,3-0.5,4-1.5c1-1,1.9-2.7,2.7-5.1l5-14.9h-2.8l-3.5,12.3l-3.9-12.3l-2.9,0.2l5.6,15.1
		c-0.5,1.6-1.1,2.7-1.8,3.3s-1.6,0.9-2.7,0.9C432.4,268.4,432,268.3,431.7,268.3L431.7,268.3L431.7,268.3z M456,263.9l-0.5-2
		c-0.6,0.2-1.3,0.3-1.9,0.3c-0.6,0-1.1-0.1-1.2-0.3c-0.2-0.2-0.3-0.4-0.3-0.6c0-0.2,0-0.5,0-0.9V251h4.2l0.3-2.1h-4.4v-4l-2.4,0.5
		l-0.3,3.6l-2.8,0.2l-0.3,1.8l3,0.1v9.1c0,1.6,0.2,2.7,0.8,3.3c0.5,0.7,1.5,1,3.1,1C454,264.5,455,264.3,456,263.9L456,263.9
		L456,263.9z M463.8,249.2c-0.9,0.4-1.6,0.9-2.2,1.4v-7.8l-2.7,0.2v21h2.7v-11.2c0.5-0.6,1.1-1.1,2-1.4c0.8-0.4,1.6-0.6,2.3-0.6
		c0.7,0,1.2,0.3,1.5,0.8c0.2,0.5,0.4,1.2,0.4,2.2v10.3h2.7v-10.4c0-1.6-0.3-2.8-0.9-3.7c-0.6-0.9-1.6-1.3-3.1-1.3
		C465.5,248.6,464.7,248.8,463.8,249.2L463.8,249.2z M477.1,248.8l-2.7,0.3v15.1h2.7V248.8L477.1,248.8z M474.3,245.7
		c0.4,0.4,0.8,0.6,1.3,0.6c0.5,0,0.9-0.2,1.3-0.6c0.3-0.4,0.5-0.8,0.5-1.3c0-0.5-0.2-0.9-0.5-1.3c-0.4-0.3-0.8-0.5-1.3-0.5
		c-0.5,0-0.9,0.2-1.3,0.5c-0.4,0.4-0.5,0.8-0.5,1.3C473.8,244.9,474,245.4,474.3,245.7L474.3,245.7z M491.8,249.9
		c-0.6-0.9-1.6-1.3-3.1-1.3c-0.9,0-1.8,0.2-2.7,0.7c-1,0.4-1.7,0.9-2.3,1.5l-0.3-1.8h-2.2v15.2h2.7v-11.2c0.5-0.6,1.1-1,2-1.4
		c0.9-0.4,1.6-0.6,2.4-0.6s1.2,0.3,1.5,0.8c0.2,0.5,0.4,1.2,0.4,2.2v10.3h2.7v-10.4C492.7,252.1,492.4,250.8,491.8,249.9
		L491.8,249.9z M497.5,250.1c-0.9,1-1.4,2.3-1.4,3.9c0,1.1,0.2,2,0.7,2.9c0.4,0.9,1.1,1.5,1.9,2c-0.8,1-1.2,1.9-1.2,2.7
		c0,0.8,0.3,1.4,0.8,1.9c-1.8,1-2.8,2.2-2.8,3.8c0,1.2,0.5,2.2,1.6,2.9c1,0.7,2.6,1,4.5,1s3.6-0.5,4.9-1.5c1.3-1,1.9-2.3,1.9-3.9
		c0-1.1-0.4-2-1.2-2.7c-0.8-0.6-1.9-1-3.4-1h-2.8c-1.1,0-1.6-0.3-1.6-1c0-0.5,0.2-1,0.5-1.7c0.5,0.1,1,0.2,1.5,0.2
		c1.7,0,3.1-0.5,4-1.5c0.9-1,1.4-2.3,1.4-3.8c0-1.5-0.4-2.7-1.1-3.7c1.3-0.2,2.4-0.3,3.2-0.5l-0.3-1.7c-1.6,0.3-3.1,0.4-4.6,0.4
		l-2.5-0.2C499.7,248.6,498.4,249.1,497.5,250.1L497.5,250.1z M503.8,251.5c0.5,0.6,0.7,1.4,0.7,2.6c0,2.2-1,3.3-2.9,3.3
		c-1.9,0-2.9-1.1-2.9-3.4c0-2.2,1-3.4,2.9-3.4C502.6,250.7,503.3,251,503.8,251.5L503.8,251.5z M505.4,264.9
		c0.4,0.2,0.6,0.6,0.6,1.2c0,0.9-0.4,1.6-1.1,2.2c-0.7,0.5-1.7,0.8-3,0.8c-1.2,0-2.2-0.2-2.9-0.5c-0.7-0.3-1-0.9-1-1.6
		c0-1.1,0.6-1.9,1.7-2.4h3.7C504.4,264.5,505,264.6,505.4,264.9L505.4,264.9z M525.2,263.9l-0.5-2c-0.6,0.2-1.3,0.3-1.9,0.3
		c-0.6,0-1.1-0.1-1.2-0.3c-0.2-0.2-0.3-0.4-0.3-0.6c0-0.2,0-0.5,0-0.9V251h4.2l0.3-2.1h-4.4v-4l-2.4,0.5l-0.3,3.6l-2.8,0.2l-0.3,1.8
		l3,0.1v9.1c0,1.6,0.2,2.7,0.8,3.3c0.5,0.7,1.5,1,3.1,1C523.3,264.5,524.3,264.3,525.2,263.9L525.2,263.9L525.2,263.9z M533,249.2
		c-0.9,0.4-1.6,0.9-2.2,1.4v-7.8l-2.7,0.2v21h2.7v-11.2c0.5-0.6,1.1-1.1,2-1.4c0.8-0.4,1.6-0.6,2.3-0.6c0.7,0,1.2,0.3,1.5,0.8
		c0.2,0.5,0.4,1.2,0.4,2.2v10.3h2.7v-10.4c0-1.6-0.3-2.8-0.9-3.7c-0.6-0.9-1.6-1.3-3.1-1.3C534.8,248.6,533.9,248.8,533,249.2
		L533,249.2z M549.4,264c0.8-0.3,1.4-0.6,1.8-1.1c0.5,1,1.3,1.5,2.3,1.5s2-0.2,2.6-0.7l-0.5-1.7c-0.6,0.2-1,0.3-1.3,0.3
		c-0.5,0-0.7-0.3-0.7-1v-7.3c0-2-0.4-3.4-1.2-4.2c-0.8-0.8-2.2-1.3-4.1-1.3c-0.7,0-1.5,0.1-2.5,0.3c-1,0.2-1.7,0.5-2.3,0.9l0.6,1.9
		c1.5-0.5,2.8-0.8,3.9-0.8c1.1,0,1.8,0.2,2.2,0.6c0.4,0.4,0.6,1.2,0.6,2.4v2.3c-1-0.1-2-0.2-3.2-0.2c-1.1,0-2.2,0.3-3.3,0.8
		c-0.6,0.3-1,0.7-1.4,1.3c-0.4,0.6-0.5,1.3-0.5,2.1c0,1.3,0.4,2.3,1.2,3.1c0.8,0.8,1.8,1.1,3.1,1.1
		C547.8,264.5,548.6,264.3,549.4,264L549.4,264z M545.1,260c0-1.6,1.2-2.3,3.5-2.3c1.1,0,1.9,0,2.3,0.1v3.5
		c-1.1,0.7-2.3,1.1-3.6,1.1C545.9,262.3,545.1,261.6,545.1,260L545.1,260L545.1,260z M566.3,263.9l-0.5-2c-0.6,0.2-1.3,0.3-1.9,0.3
		c-0.6,0-1.1-0.1-1.2-0.3c-0.2-0.2-0.3-0.4-0.3-0.6c0-0.2,0-0.5,0-0.9V251h4.2l0.3-2.1h-4.4v-4l-2.4,0.5l-0.3,3.6l-2.8,0.2l-0.3,1.8
		l3,0.1v9.1c0,1.6,0.3,2.7,0.8,3.3c0.5,0.7,1.5,1,3.1,1C564.4,264.5,565.4,264.3,566.3,263.9L566.3,263.9L566.3,263.9z M583.2,263.9
		l-0.5-2c-0.6,0.2-1.3,0.3-1.9,0.3c-0.6,0-1.1-0.1-1.2-0.3c-0.2-0.2-0.3-0.4-0.3-0.6c0-0.2,0-0.5,0-0.9V251h4.2l0.3-2.1h-4.4v-4
		l-2.4,0.5l-0.3,3.6l-2.8,0.2l-0.3,1.8l3,0.1v9.1c0,1.6,0.2,2.7,0.8,3.3c0.5,0.7,1.5,1,3.1,1C581.3,264.5,582.3,264.3,583.2,263.9
		L583.2,263.9L583.2,263.9z M584.2,268.3l-0.3,1.9c0.7,0.1,1.4,0.2,2,0.2c1.6,0,3-0.5,4-1.5c1-1,1.9-2.7,2.7-5.1l5-14.9h-2.8
		l-3.5,12.3l-3.9-12.3l-2.8,0.2l5.6,15.1c-0.5,1.6-1.1,2.7-1.8,3.3c-0.7,0.6-1.6,0.9-2.7,0.9C585,268.4,584.5,268.3,584.2,268.3
		L584.2,268.3L584.2,268.3z M603,261.8v-9.6c1.3-0.9,2.5-1.3,3.6-1.3c2,0,3,1.8,3,5.3c0,4-1.2,6-3.8,6
		C605,262.2,604,262.1,603,261.8L603,261.8L603,261.8z M602.6,248.9h-2.3v21.9l2.7-0.3v-6.6c0.9,0.4,1.8,0.6,2.8,0.6
		c4.4,0,6.6-2.8,6.6-8.3c0-2.3-0.5-4.2-1.4-5.5c-0.9-1.4-2.2-2-3.8-2c-1.6,0-3.1,0.5-4.4,1.5L602.6,248.9L602.6,248.9z M626.5,263.2
		l-0.7-1.9c-1.2,0.6-2.6,0.8-3.9,0.8s-2.4-0.5-3.1-1.6c-0.7-1.1-1.1-2.4-1.1-4.1h8.8c0.3-1.1,0.4-2,0.4-2.7c0-1.6-0.4-2.8-1.3-3.8
		c-0.9-0.9-2.2-1.4-3.9-1.4c-2,0-3.6,0.7-4.8,2.2c-1.2,1.5-1.7,3.3-1.7,5.6c0,2.3,0.5,4.2,1.6,5.8c1.1,1.5,2.8,2.3,5,2.3
		C623.5,264.5,625,264.1,626.5,263.2L626.5,263.2L626.5,263.2z M624.4,254.5l-6.5-0.1c0.1-0.7,0.4-1.4,0.9-2.2
		c0.3-0.4,0.7-0.8,1.2-1c0.5-0.3,1.2-0.4,1.9-0.4c0.8,0,1.4,0.3,1.8,0.9c0.4,0.6,0.7,1.5,0.7,2.5V254.5L624.4,254.5z M637.1,262.3
		c0.9,1.4,2.2,2,3.9,2c1.7,0,3.1-0.5,4.4-1.5l0.4,1.5h2.1v-21.2h-2.7v6.2c-0.8-0.5-1.8-0.7-2.9-0.7c-4.4,0-6.6,2.7-6.6,8.2
		C635.8,259.1,636.2,261,637.1,262.3L637.1,262.3z M645.2,251.4v9.5c-0.9,0.9-2.1,1.3-3.6,1.3c-2,0-3.1-1.8-3.1-5.4
		c0-3.9,1.2-5.9,3.8-5.9C643.4,250.9,644.4,251,645.2,251.4L645.2,251.4L645.2,251.4z M662.6,263.2l-0.7-1.9
		c-1.2,0.6-2.6,0.8-3.9,0.8s-2.4-0.5-3.1-1.6c-0.7-1.1-1.1-2.4-1.1-4.1h8.8c0.3-1.1,0.4-2,0.4-2.7c0-1.6-0.4-2.8-1.3-3.8
		c-0.9-0.9-2.2-1.4-3.9-1.4c-2,0-3.6,0.7-4.8,2.2c-1.2,1.5-1.7,3.3-1.7,5.6c0,2.3,0.5,4.2,1.6,5.8c1.1,1.5,2.8,2.3,5,2.3
		C659.6,264.5,661.2,264.1,662.6,263.2L662.6,263.2L662.6,263.2z M660.5,254.5l-6.5-0.1c0.1-0.7,0.4-1.4,0.9-2.2
		c0.3-0.4,0.7-0.8,1.2-1c0.5-0.3,1.2-0.4,1.9-0.4s1.4,0.3,1.8,0.9c0.4,0.6,0.7,1.5,0.7,2.5V254.5L660.5,254.5z M665.3,263.4
		c0.4,0.3,1.1,0.6,1.9,0.8c0.8,0.2,1.7,0.3,2.5,0.3c1.8,0,3.2-0.5,4.2-1.4c1-0.9,1.5-2,1.5-3.4c0-0.9-0.2-1.7-0.8-2.2
		s-1.1-1-1.8-1.3c-0.7-0.3-1.4-0.6-2.1-0.8s-1.3-0.6-1.8-1c-0.5-0.4-0.8-0.9-0.8-1.5c0-0.6,0.2-1.1,0.7-1.5c0.5-0.4,1.2-0.5,2.2-0.5
		c1,0,2.1,0.2,3.2,0.6l0.6-2c-1-0.6-2.3-0.9-4-0.9c-1.6,0-2.9,0.4-3.9,1.2s-1.4,1.9-1.4,3.3c0,0.9,0.2,1.7,0.7,2.3
		c0.5,0.6,1.1,1.1,1.8,1.3c0.7,0.3,1.4,0.5,2.1,0.8c0.7,0.3,1.3,0.6,1.8,1c0.5,0.4,0.7,0.9,0.7,1.5c0,0.6-0.3,1.1-0.8,1.5
		c-0.5,0.4-1.3,0.6-2.4,0.6s-2.3-0.3-3.6-0.9L665.3,263.4L665.3,263.4z M681.3,248.8l-2.7,0.3v15.1h2.7V248.8L681.3,248.8z
		 M678.6,245.7c0.4,0.4,0.8,0.6,1.3,0.6c0.5,0,0.9-0.2,1.3-0.6c0.3-0.4,0.5-0.8,0.5-1.3c0-0.5-0.2-0.9-0.5-1.3
		c-0.3-0.3-0.8-0.5-1.3-0.5c-0.5,0-0.9,0.2-1.3,0.5c-0.4,0.4-0.5,0.8-0.5,1.3C678,244.9,678.2,245.4,678.6,245.7L678.6,245.7z
		 M686.1,250.1c-0.9,1-1.3,2.3-1.3,3.9c0,1.1,0.2,2,0.7,2.9c0.4,0.9,1.1,1.5,1.9,2c-0.8,1-1.2,1.9-1.2,2.7c0,0.8,0.3,1.4,0.8,1.9
		c-1.8,1-2.8,2.2-2.8,3.8c0,1.2,0.5,2.2,1.6,2.9c1,0.7,2.6,1,4.5,1c2,0,3.6-0.5,4.9-1.5c1.3-1,1.9-2.3,1.9-3.9c0-1.1-0.4-2-1.2-2.7
		c-0.8-0.6-1.9-1-3.4-1h-2.8c-1.1,0-1.6-0.3-1.6-1c0-0.5,0.2-1,0.5-1.7c0.5,0.1,1,0.2,1.5,0.2c1.7,0,3.1-0.5,4-1.5
		c0.9-1,1.4-2.3,1.4-3.8c0-1.5-0.4-2.7-1.1-3.7c1.3-0.2,2.4-0.3,3.2-0.5l-0.3-1.7c-1.6,0.3-3.2,0.4-4.7,0.4l-2.5-0.2
		C688.4,248.6,687,249.1,686.1,250.1L686.1,250.1z M692.5,251.5c0.5,0.6,0.7,1.4,0.7,2.6c0,2.2-1,3.3-2.9,3.3
		c-1.9,0-2.9-1.1-2.9-3.4c0-2.2,1-3.4,2.9-3.4C691.3,250.7,692,251,692.5,251.5L692.5,251.5z M694.1,264.9c0.4,0.2,0.6,0.6,0.6,1.2
		c0,0.9-0.4,1.6-1.1,2.2c-0.7,0.5-1.7,0.8-3,0.8c-1.3,0-2.2-0.2-2.9-0.5c-0.7-0.3-1-0.9-1-1.6c0-1.1,0.6-1.9,1.7-2.4h3.7
		C693,264.5,693.7,264.6,694.1,264.9L694.1,264.9z M710.6,249.9c-0.6-0.9-1.6-1.3-3.1-1.3c-0.9,0-1.8,0.2-2.7,0.7
		c-1,0.4-1.7,0.9-2.3,1.5l-0.3-1.8h-2.2v15.2h2.7v-11.2c0.5-0.6,1.1-1,2-1.4c0.8-0.4,1.6-0.6,2.4-0.6s1.2,0.3,1.5,0.8
		c0.2,0.5,0.4,1.2,0.4,2.2v10.3h2.7v-10.4C711.5,252.1,711.2,250.8,710.6,249.9L710.6,249.9z M724.4,248.8l-2.7,0.3v15.1h2.7V248.8
		L724.4,248.8z M721.7,245.7c0.4,0.4,0.8,0.6,1.3,0.6s0.9-0.2,1.3-0.6c0.3-0.4,0.5-0.8,0.5-1.3c0-0.5-0.2-0.9-0.5-1.3
		c-0.4-0.3-0.8-0.5-1.3-0.5s-0.9,0.2-1.3,0.5c-0.4,0.4-0.5,0.8-0.5,1.3C721.2,244.9,721.4,245.4,721.7,245.7L721.7,245.7z
		 M739.2,249.9c-0.6-0.9-1.6-1.3-3.1-1.3c-0.9,0-1.8,0.2-2.7,0.7c-1,0.4-1.7,0.9-2.3,1.5l-0.3-1.8h-2.2v15.2h2.7v-11.2
		c0.5-0.6,1.1-1,2-1.4c0.8-0.4,1.6-0.6,2.4-0.6c0.7,0,1.2,0.3,1.5,0.8c0.2,0.5,0.4,1.2,0.4,2.2v10.3h2.7v-10.4
		C740.1,252.1,739.8,250.8,739.2,249.9L739.2,249.9z M748.8,261.4l-3.4-12.5h-2.9l4.8,15.2h3l4.9-15.1h-2.8L748.8,261.4L748.8,261.4
		z M769.4,256.5c0-2.7-0.6-4.8-1.7-6c-1.1-1.3-2.6-1.9-4.5-1.9c-1.9,0-3.4,0.6-4.6,1.9c-1.2,1.3-1.8,3.3-1.8,6c0,2.8,0.6,4.8,1.7,6
		c1.1,1.3,2.6,1.9,4.5,1.9s3.4-0.6,4.6-1.9C768.8,261.3,769.4,259.3,769.4,256.5L769.4,256.5z M765.7,252c0.6,0.8,0.9,2.3,0.9,4.4
		c0,2.1-0.3,3.6-1,4.5c-0.7,0.9-1.5,1.4-2.5,1.4c-2.3,0-3.5-1.9-3.5-5.7c0-3.8,1.2-5.7,3.5-5.7C764.3,250.8,765.1,251.2,765.7,252
		L765.7,252z M772.8,261.1c0,2.3,1,3.4,3,3.4c1.2,0,2.2-0.2,3-0.6l-0.4-2c-0.6,0.2-1.2,0.3-1.8,0.3c-0.7,0-1.1-0.4-1.1-1.2v-17.9
		h-2.7V261.1L772.8,261.1z M785.4,261.4l-3.5-12.5h-2.9l4.8,15.2h3l4.9-15.1H789L785.4,261.4L785.4,261.4z M804.7,263.2l-0.7-1.9
		c-1.2,0.6-2.6,0.8-3.9,0.8c-1.4,0-2.4-0.5-3.1-1.6c-0.7-1.1-1.1-2.4-1.1-4.1h8.8c0.3-1.1,0.5-2,0.5-2.7c0-1.6-0.4-2.8-1.3-3.8
		c-0.9-0.9-2.2-1.4-3.9-1.4c-2,0-3.6,0.7-4.8,2.2c-1.2,1.5-1.7,3.3-1.7,5.6c0,2.3,0.5,4.2,1.6,5.8c1.1,1.5,2.8,2.3,5,2.3
		C801.7,264.5,803.3,264.1,804.7,263.2L804.7,263.2L804.7,263.2z M802.7,254.5l-6.5-0.1c0.1-0.7,0.4-1.4,0.9-2.2
		c0.3-0.4,0.7-0.8,1.2-1c0.5-0.3,1.2-0.4,1.9-0.4c0.8,0,1.4,0.3,1.8,0.9c0.4,0.6,0.7,1.5,0.7,2.5V254.5L802.7,254.5z M807.5,263.4
		c0.4,0.3,1.1,0.6,1.9,0.8c0.8,0.2,1.7,0.3,2.5,0.3c1.8,0,3.2-0.5,4.2-1.4c1-0.9,1.5-2,1.5-3.4c0-0.9-0.3-1.7-0.8-2.2
		c-0.5-0.6-1.1-1-1.8-1.3c-0.7-0.3-1.4-0.6-2.1-0.8c-0.7-0.2-1.3-0.6-1.8-1c-0.5-0.4-0.8-0.9-0.8-1.5c0-0.6,0.2-1.1,0.7-1.5
		c0.5-0.4,1.2-0.5,2.2-0.5c1,0,2,0.2,3.2,0.6l0.6-2c-1-0.6-2.3-0.9-4-0.9c-1.6,0-2.9,0.4-3.9,1.2s-1.4,1.9-1.4,3.3
		c0,0.9,0.2,1.7,0.7,2.3c0.5,0.6,1.1,1.1,1.8,1.3c0.7,0.3,1.4,0.5,2.1,0.8c0.7,0.3,1.3,0.6,1.8,1c0.5,0.4,0.7,0.9,0.7,1.5
		c0,0.6-0.3,1.1-0.8,1.5c-0.5,0.4-1.3,0.6-2.4,0.6c-1.1,0-2.3-0.3-3.6-0.9L807.5,263.4L807.5,263.4z M820.6,253.4
		c0,0.5,0.2,1,0.5,1.3c0.4,0.4,0.8,0.6,1.3,0.6c0.5,0,0.9-0.2,1.3-0.6c0.4-0.4,0.5-0.8,0.5-1.3s-0.2-0.9-0.5-1.3
		c-0.4-0.3-0.8-0.5-1.3-0.5c-0.5,0-0.9,0.2-1.3,0.5C820.8,252.5,820.6,252.9,820.6,253.4L820.6,253.4z M823.7,260.6h-2.9
		c0.3,0.8,0.5,1.5,0.5,2.2c0,1.5-0.8,3.3-2.5,5.2h2.5c1.8-1.6,2.7-3.5,2.7-5.6C824.1,261.7,824,261.1,823.7,260.6L823.7,260.6
		L823.7,260.6z"/>
	<path d="M363.2,194.7c-0.7-0.6-1.5-1.1-2.4-1.3c-0.9-0.2-2.1-0.4-3.7-0.4h-4.7v20h2.9v-7.8h1.1c0.7,0,1.2,0,1.5,0l6.2,8.3l2.2-1.5
		l-5.5-7.2c0.8-0.2,1.6-0.6,2.3-1.1c1.3-1,1.9-2.6,1.9-4.8C364.9,197.2,364.4,195.7,363.2,194.7L363.2,194.7L363.2,194.7z
		 M356.4,202.9h-1.1v-7.7h1.6c2,0,3.4,0.4,4.1,1c0.7,0.6,1,1.6,1,3c0,1.3-0.4,2.3-1.3,2.9C360.1,202.7,358.6,202.9,356.4,202.9
		L356.4,202.9L356.4,202.9z M374.8,213c0.8-0.3,1.4-0.6,1.8-1.1c0.5,1,1.3,1.5,2.3,1.5c1.1,0,2-0.2,2.6-0.7l-0.5-1.7
		c-0.6,0.2-1,0.3-1.3,0.3c-0.5,0-0.7-0.3-0.7-1v-7.3c0-2-0.4-3.4-1.2-4.2c-0.8-0.8-2.2-1.3-4.1-1.3c-0.7,0-1.5,0.1-2.5,0.3
		c-1,0.2-1.7,0.5-2.3,0.9l0.6,1.9c1.5-0.5,2.8-0.8,3.9-0.8s1.8,0.2,2.2,0.6c0.4,0.4,0.6,1.2,0.6,2.4v2.3c-1-0.1-2-0.1-3.2-0.1
		c-1.1,0-2.2,0.3-3.3,0.8c-0.6,0.3-1,0.7-1.4,1.3c-0.4,0.6-0.5,1.3-0.5,2.1c0,1.3,0.4,2.3,1.2,3.1c0.8,0.8,1.8,1.1,3.1,1.1
		C373.2,213.5,374,213.3,374.8,213L374.8,213z M370.5,209c0-1.6,1.2-2.3,3.5-2.3c1.1,0,1.9,0,2.3,0.1v3.5c-1.1,0.7-2.3,1.1-3.6,1.1
		C371.3,211.3,370.5,210.6,370.5,209L370.5,209L370.5,209z M395,201.8c0.5-0.5,1.2-0.9,2-1.3c0.8-0.4,1.5-0.6,2.2-0.6
		c0.7,0,1.2,0.3,1.4,0.8c0.2,0.5,0.4,1.2,0.4,2.2v10.3h2.7v-10.4c0-3.4-1.3-5.1-4-5.1c-0.8,0-1.7,0.2-2.7,0.7c-1,0.5-1.7,1-2.3,1.5
		c-0.6-1.5-1.7-2.2-3.6-2.2c-0.9,0-1.7,0.2-2.7,0.7c-0.9,0.4-1.6,0.9-2.2,1.5l-0.3-1.8h-2.2v15.2h2.7v-11.2c0.5-0.6,1.1-1.1,1.9-1.4
		c0.8-0.4,1.6-0.6,2.3-0.6c0.7,0,1.2,0.3,1.5,0.8c0.2,0.5,0.4,1.2,0.4,2.2v10.3h2.7v-10.3C395.1,202.4,395.1,202,395,201.8
		L395,201.8L395,201.8z M417,205.3c0,3.9-1.3,5.9-3.8,5.9c-1.1,0-2.1-0.2-2.9-0.5v-9.6c1.2-0.8,2.4-1.3,3.7-1.3
		C416,199.9,417,201.7,417,205.3L417,205.3L417,205.3z M407.6,192.1v20c1.6,1,3.4,1.4,5.5,1.4c4.4,0,6.6-2.9,6.6-8.7
		c0-2.3-0.5-4-1.5-5.3c-1-1.2-2.3-1.9-3.8-1.9c-0.8,0-1.6,0.2-2.4,0.5c-0.8,0.3-1.4,0.6-1.8,0.9v-6.9H407.6L407.6,192.1z
		 M423.2,210.1c0,2.3,1,3.4,3,3.4c1.2,0,2.2-0.2,3-0.6l-0.5-2c-0.6,0.2-1.2,0.3-1.8,0.3c-0.7,0-1.1-0.4-1.1-1.2v-17.9h-2.7V210.1
		L423.2,210.1z M436.9,213c0.8-0.3,1.4-0.6,1.8-1.1c0.5,1,1.3,1.5,2.3,1.5c1.1,0,2-0.2,2.6-0.7l-0.5-1.7c-0.6,0.2-1,0.3-1.3,0.3
		c-0.5,0-0.7-0.3-0.7-1v-7.3c0-2-0.4-3.4-1.2-4.2c-0.8-0.8-2.2-1.3-4.1-1.3c-0.7,0-1.5,0.1-2.5,0.3c-1,0.2-1.7,0.5-2.3,0.9l0.6,1.9
		c1.5-0.5,2.8-0.8,3.9-0.8c1.1,0,1.8,0.2,2.2,0.6c0.4,0.4,0.6,1.2,0.6,2.4v2.3c-1-0.1-2-0.1-3.2-0.1c-1.1,0-2.2,0.3-3.3,0.8
		c-0.6,0.3-1.1,0.7-1.4,1.3c-0.4,0.6-0.5,1.3-0.5,2.1c0,1.3,0.4,2.3,1.2,3.1c0.8,0.8,1.8,1.1,3.1,1.1
		C435.3,213.5,436.1,213.3,436.9,213L436.9,213z M432.6,209c0-1.6,1.2-2.3,3.5-2.3c1.1,0,1.9,0,2.3,0.1v3.5
		c-1.1,0.7-2.3,1.1-3.6,1.1C433.4,211.3,432.6,210.6,432.6,209L432.6,209L432.6,209z M461.3,205.3c0,3.9-1.3,5.9-3.8,5.9
		c-1.1,0-2.1-0.2-2.9-0.5v-9.6c1.2-0.8,2.4-1.3,3.7-1.3C460.3,199.9,461.3,201.7,461.3,205.3L461.3,205.3L461.3,205.3z M452,192.1
		v20c1.6,1,3.4,1.4,5.5,1.4c4.4,0,6.6-2.9,6.6-8.7c0-2.3-0.5-4-1.5-5.3c-1-1.2-2.3-1.9-3.8-1.9c-0.8,0-1.6,0.2-2.4,0.5
		c-0.8,0.3-1.4,0.6-1.8,0.9v-6.9H452L452,192.1z M478.2,212.2l-0.7-1.9c-1.2,0.6-2.6,0.8-3.9,0.8c-1.4,0-2.4-0.5-3.1-1.6
		c-0.7-1.1-1.1-2.4-1.1-4.1h8.8c0.3-1.1,0.5-2,0.5-2.7c0-1.6-0.4-2.8-1.3-3.8c-0.9-0.9-2.2-1.4-3.9-1.4c-2,0-3.6,0.7-4.8,2.2
		c-1.2,1.5-1.7,3.3-1.7,5.6c0,2.3,0.5,4.2,1.6,5.8c1.1,1.5,2.8,2.3,5,2.3C475.1,213.5,476.7,213.1,478.2,212.2L478.2,212.2
		L478.2,212.2z M476.1,203.5l-6.5-0.1c0.1-0.7,0.4-1.4,0.9-2.2c0.3-0.4,0.7-0.8,1.2-1c0.5-0.3,1.2-0.4,1.9-0.4s1.4,0.3,1.8,0.9
		c0.4,0.6,0.7,1.5,0.7,2.6V203.5L476.1,203.5z M482.6,199.1c-0.9,1-1.4,2.3-1.4,3.9c0,1.1,0.2,2,0.7,2.9c0.4,0.9,1.1,1.5,1.9,2
		c-0.8,1-1.2,1.9-1.2,2.7c0,0.8,0.3,1.4,0.8,1.9c-1.8,1-2.8,2.2-2.8,3.8c0,1.2,0.5,2.2,1.6,2.9c1,0.7,2.6,1,4.5,1
		c2,0,3.6-0.5,4.9-1.5c1.3-1,1.9-2.3,1.9-3.9c0-1.1-0.4-2-1.2-2.7c-0.8-0.6-1.9-1-3.4-1h-2.8c-1.1,0-1.6-0.3-1.6-1
		c0-0.5,0.2-1,0.5-1.7c0.5,0.1,1,0.2,1.5,0.2c1.7,0,3.1-0.5,4-1.5c0.9-1,1.4-2.3,1.4-3.8c0-1.5-0.4-2.7-1.1-3.7
		c1.3-0.2,2.4-0.3,3.1-0.5l-0.3-1.7c-1.6,0.3-3.1,0.4-4.6,0.4l-2.5-0.1C484.8,197.6,483.5,198.1,482.6,199.1L482.6,199.1z
		 M488.9,200.5c0.5,0.6,0.7,1.4,0.7,2.6c0,2.2-1,3.3-2.9,3.3s-2.9-1.1-2.9-3.4c0-2.2,1-3.4,2.9-3.4
		C487.7,199.7,488.5,200,488.9,200.5L488.9,200.5z M490.5,213.9c0.4,0.2,0.6,0.6,0.6,1.2c0,0.9-0.4,1.6-1.1,2.2
		c-0.7,0.5-1.7,0.8-3,0.8c-1.3,0-2.2-0.2-2.9-0.5c-0.7-0.4-1-0.9-1-1.6c0-1.1,0.6-2,1.7-2.4h3.7
		C489.5,213.5,490.2,213.6,490.5,213.9L490.5,213.9z M502.1,213c0.8-0.3,1.4-0.6,1.8-1.1c0.5,1,1.3,1.5,2.3,1.5c1.1,0,2-0.2,2.6-0.7
		l-0.4-1.7c-0.6,0.2-1,0.3-1.3,0.3c-0.5,0-0.7-0.3-0.7-1v-7.3c0-2-0.4-3.4-1.2-4.2c-0.8-0.8-2.2-1.3-4.1-1.3c-0.7,0-1.5,0.1-2.5,0.3
		c-1,0.2-1.7,0.5-2.3,0.9l0.6,1.9c1.5-0.5,2.8-0.8,3.9-0.8c1.1,0,1.8,0.2,2.2,0.6c0.4,0.4,0.6,1.2,0.6,2.4v2.3c-1-0.1-2-0.1-3.2-0.1
		c-1.1,0-2.2,0.3-3.3,0.8c-0.6,0.3-1,0.7-1.4,1.3c-0.4,0.6-0.5,1.3-0.5,2.1c0,1.3,0.4,2.3,1.2,3.1c0.8,0.8,1.8,1.1,3.1,1.1
		C500.5,213.5,501.3,213.3,502.1,213L502.1,213z M497.8,209c0-1.6,1.2-2.3,3.5-2.3c1.1,0,1.9,0,2.3,0.1v3.5
		c-1.1,0.7-2.3,1.1-3.6,1.1C498.6,211.3,497.8,210.6,497.8,209L497.8,209L497.8,209z M521.6,198.9c-0.6-0.9-1.6-1.3-3.1-1.3
		c-0.9,0-1.8,0.2-2.7,0.7c-1,0.4-1.7,0.9-2.3,1.5l-0.3-1.8h-2.3v15.2h2.7v-11.2c0.5-0.6,1.1-1,2-1.4c0.8-0.4,1.6-0.6,2.4-0.6
		c0.7,0,1.2,0.3,1.5,0.8c0.2,0.5,0.4,1.2,0.4,2.2v10.3h2.7v-10.4C522.5,201.1,522.2,199.8,521.6,198.9L521.6,198.9z M538.6,213
		c0.8-0.3,1.4-0.6,1.8-1.1c0.5,1,1.3,1.5,2.3,1.5s2-0.2,2.6-0.7l-0.5-1.7c-0.6,0.2-1,0.3-1.3,0.3c-0.5,0-0.7-0.3-0.7-1v-7.3
		c0-2-0.4-3.4-1.2-4.2c-0.8-0.8-2.2-1.3-4.1-1.3c-0.7,0-1.5,0.1-2.5,0.3c-1,0.2-1.7,0.5-2.3,0.9l0.6,1.9c1.5-0.5,2.8-0.8,3.9-0.8
		c1.1,0,1.8,0.2,2.2,0.6c0.4,0.4,0.6,1.2,0.6,2.4v2.3c-1-0.1-2-0.1-3.2-0.1s-2.2,0.3-3.3,0.8c-0.6,0.3-1,0.7-1.4,1.3
		c-0.4,0.6-0.5,1.3-0.5,2.1c0,1.3,0.4,2.3,1.2,3.1c0.8,0.8,1.8,1.1,3.1,1.1C536.9,213.5,537.8,213.3,538.6,213L538.6,213z
		 M534.3,209c0-1.6,1.2-2.3,3.5-2.3c1.1,0,1.9,0,2.3,0.1v3.5c-1.1,0.7-2.3,1.1-3.6,1.1C535.1,211.3,534.3,210.6,534.3,209L534.3,209
		L534.3,209z M546.5,212.4c0.4,0.3,1.1,0.6,1.9,0.8c0.8,0.2,1.7,0.3,2.5,0.3c1.8,0,3.2-0.5,4.2-1.4c1-0.9,1.5-2,1.5-3.4
		c0-0.9-0.2-1.6-0.8-2.2c-0.5-0.6-1.1-1-1.8-1.3c-0.7-0.3-1.4-0.6-2.1-0.8c-0.7-0.2-1.3-0.6-1.8-1c-0.5-0.4-0.8-0.9-0.8-1.5
		c0-0.6,0.2-1.1,0.7-1.5c0.5-0.4,1.2-0.5,2.2-0.5s2,0.2,3.2,0.6l0.6-2c-1-0.6-2.3-0.9-4-0.9s-2.9,0.4-3.9,1.2
		c-1,0.8-1.4,1.9-1.4,3.3c0,0.9,0.2,1.7,0.7,2.3c0.5,0.6,1.1,1.1,1.8,1.3c0.7,0.3,1.4,0.5,2.1,0.8c0.7,0.3,1.3,0.6,1.8,1
		s0.7,0.9,0.7,1.5c0,0.6-0.3,1.1-0.8,1.5c-0.5,0.4-1.3,0.6-2.4,0.6c-1.1,0-2.3-0.3-3.6-0.9L546.5,212.4L546.5,212.4z M571.8,213
		c0.8-0.3,1.4-0.6,1.8-1.1c0.5,1,1.3,1.5,2.3,1.5c1.1,0,2-0.2,2.6-0.7l-0.4-1.7c-0.6,0.2-1,0.3-1.3,0.3c-0.5,0-0.7-0.3-0.7-1v-7.3
		c0-2-0.4-3.4-1.2-4.2c-0.8-0.8-2.2-1.3-4.1-1.3c-0.7,0-1.5,0.1-2.5,0.3c-1,0.2-1.7,0.5-2.3,0.9l0.6,1.9c1.5-0.5,2.8-0.8,3.9-0.8
		c1.1,0,1.8,0.2,2.2,0.6c0.4,0.4,0.6,1.2,0.6,2.4v2.3c-1-0.1-2-0.1-3.2-0.1c-1.1,0-2.2,0.3-3.3,0.8c-0.6,0.3-1.1,0.7-1.4,1.3
		c-0.4,0.6-0.5,1.3-0.5,2.1c0,1.3,0.4,2.3,1.2,3.1c0.8,0.8,1.8,1.1,3.1,1.1C570.2,213.5,571,213.3,571.8,213L571.8,213z M567.6,209
		c0-1.6,1.2-2.3,3.5-2.3c1.1,0,1.9,0,2.3,0.1v3.5c-1.1,0.7-2.3,1.1-3.6,1.1C568.3,211.3,567.6,210.6,567.6,209L567.6,209L567.6,209z
		 M587,210.1c0,2.3,1,3.4,3,3.4c1.2,0,2.2-0.2,3-0.6l-0.5-2c-0.6,0.2-1.2,0.3-1.8,0.3c-0.7,0-1.1-0.4-1.1-1.2v-17.9H587V210.1
		L587,210.1z M605.6,212.2l-0.7-1.9c-1.2,0.6-2.6,0.8-3.9,0.8c-1.4,0-2.4-0.5-3.1-1.6c-0.7-1.1-1.1-2.4-1.1-4.1h8.8
		c0.3-1.1,0.5-2,0.5-2.7c0-1.6-0.4-2.8-1.3-3.8c-0.9-0.9-2.2-1.4-3.9-1.4c-2,0-3.6,0.7-4.8,2.2c-1.2,1.5-1.7,3.3-1.7,5.6
		c0,2.3,0.5,4.2,1.6,5.8c1.1,1.5,2.8,2.3,5,2.3C602.5,213.5,604.1,213.1,605.6,212.2L605.6,212.2L605.6,212.2z M603.5,203.5
		l-6.5-0.1c0.1-0.7,0.4-1.4,0.9-2.2c0.3-0.4,0.7-0.8,1.2-1c0.5-0.3,1.2-0.4,1.9-0.4c0.8,0,1.4,0.3,1.8,0.9c0.4,0.6,0.7,1.5,0.7,2.6
		V203.5L603.5,203.5z M614.9,213c0.8-0.3,1.4-0.6,1.8-1.1c0.5,1,1.3,1.5,2.3,1.5c1.1,0,2-0.2,2.6-0.7l-0.5-1.7
		c-0.6,0.2-1,0.3-1.3,0.3c-0.5,0-0.7-0.3-0.7-1v-7.3c0-2-0.4-3.4-1.2-4.2c-0.8-0.8-2.2-1.3-4.1-1.3c-0.7,0-1.5,0.1-2.5,0.3
		c-1,0.2-1.7,0.5-2.3,0.9l0.6,1.9c1.5-0.5,2.8-0.8,3.9-0.8c1.1,0,1.8,0.2,2.2,0.6c0.4,0.4,0.6,1.2,0.6,2.4v2.3c-1-0.1-2-0.1-3.2-0.1
		c-1.1,0-2.2,0.3-3.3,0.8c-0.6,0.3-1.1,0.7-1.4,1.3c-0.4,0.6-0.5,1.3-0.5,2.1c0,1.3,0.4,2.3,1.2,3.1c0.8,0.8,1.8,1.1,3.1,1.1
		C613.2,213.5,614.1,213.3,614.9,213L614.9,213z M610.6,209c0-1.6,1.2-2.3,3.5-2.3c1.1,0,1.9,0,2.3,0.1v3.5
		c-1.1,0.7-2.3,1.1-3.6,1.1C611.4,211.3,610.6,210.6,610.6,209L610.6,209L610.6,209z M626.4,202.3c0.8-1.6,2.3-2.4,4.5-2.4
		c0.3,0,0.6,0,0.8,0l0.5-2.2c-0.3-0.1-0.7-0.1-1.3-0.1c-1.1,0-2,0.3-2.8,0.8c-0.8,0.6-1.4,1.1-1.8,1.7l-0.3-2.2h-2.2v15.2h2.7V202.3
		L626.4,202.3z M645.3,198.9c-0.6-0.9-1.6-1.3-3.1-1.3c-0.9,0-1.8,0.2-2.7,0.7c-1,0.4-1.7,0.9-2.3,1.5l-0.3-1.8h-2.2v15.2h2.7v-11.2
		c0.5-0.6,1.1-1,2-1.4c0.8-0.4,1.6-0.6,2.4-0.6s1.2,0.3,1.5,0.8c0.2,0.5,0.4,1.2,0.4,2.2v10.3h2.7v-10.4
		C646.1,201.1,645.9,199.8,645.3,198.9L645.3,198.9z M652.8,197.8l-2.7,0.3v15.1h2.7V197.8L652.8,197.8z M650.1,194.7
		c0.4,0.4,0.8,0.6,1.3,0.6s0.9-0.2,1.3-0.6c0.3-0.4,0.5-0.8,0.5-1.3c0-0.5-0.2-0.9-0.5-1.3c-0.3-0.3-0.8-0.5-1.3-0.5
		s-0.9,0.2-1.3,0.5c-0.4,0.4-0.5,0.8-0.5,1.3C649.6,193.9,649.7,194.4,650.1,194.7L650.1,194.7z M667.6,198.9
		c-0.6-0.9-1.6-1.3-3.1-1.3c-0.9,0-1.8,0.2-2.7,0.7c-1,0.4-1.7,0.9-2.3,1.5l-0.3-1.8h-2.2v15.2h2.7v-11.2c0.5-0.6,1.1-1,2-1.4
		c0.8-0.4,1.6-0.6,2.4-0.6c0.7,0,1.2,0.3,1.5,0.8c0.2,0.5,0.4,1.2,0.4,2.2v10.3h2.7v-10.4C668.5,201.1,668.2,199.8,667.6,198.9
		L667.6,198.9z M673.2,199.1c-0.9,1-1.4,2.3-1.4,3.9c0,1.1,0.2,2,0.7,2.9c0.4,0.9,1.1,1.5,1.9,2c-0.8,1-1.2,1.9-1.2,2.7
		c0,0.8,0.3,1.4,0.8,1.9c-1.8,1-2.8,2.2-2.8,3.8c0,1.2,0.5,2.2,1.6,2.9c1,0.7,2.6,1,4.5,1c2,0,3.6-0.5,4.9-1.5s1.9-2.3,1.9-3.9
		c0-1.1-0.4-2-1.2-2.7c-0.8-0.6-1.9-1-3.4-1h-2.8c-1.1,0-1.6-0.3-1.6-1c0-0.5,0.2-1,0.5-1.7c0.5,0.1,1,0.2,1.5,0.2
		c1.7,0,3.1-0.5,4-1.5c0.9-1,1.4-2.3,1.4-3.8c0-1.5-0.4-2.7-1.1-3.7c1.3-0.2,2.4-0.3,3.1-0.5l-0.3-1.7c-1.6,0.3-3.2,0.4-4.7,0.4
		l-2.5-0.1C675.5,197.6,674.1,198.1,673.2,199.1L673.2,199.1z M679.6,200.5c0.4,0.6,0.7,1.4,0.7,2.6c0,2.2-1,3.3-2.9,3.3
		c-2,0-2.9-1.1-2.9-3.4c0-2.2,1-3.4,2.9-3.4C678.4,199.7,679.1,200,679.6,200.5L679.6,200.5z M681.2,213.9c0.4,0.2,0.6,0.6,0.6,1.2
		c0,0.9-0.4,1.6-1.1,2.2c-0.7,0.5-1.7,0.8-3,0.8c-1.3,0-2.2-0.2-2.9-0.5c-0.7-0.4-1-0.9-1-1.6c0-1.1,0.6-2,1.7-2.4h3.7
		C680.1,213.5,680.8,213.6,681.2,213.9L681.2,213.9z M703.9,212.2l-0.7-1.9c-1.2,0.6-2.6,0.8-3.9,0.8c-1.4,0-2.4-0.5-3.1-1.6
		c-0.7-1.1-1.1-2.4-1.1-4.1h8.8c0.3-1.1,0.5-2,0.5-2.7c0-1.6-0.4-2.8-1.3-3.8c-0.9-0.9-2.2-1.4-3.9-1.4c-2,0-3.6,0.7-4.8,2.2
		c-1.2,1.5-1.7,3.3-1.7,5.6c0,2.3,0.5,4.2,1.6,5.8c1.1,1.5,2.8,2.3,5,2.3C700.9,213.5,702.5,213.1,703.9,212.2L703.9,212.2
		L703.9,212.2z M701.8,203.5l-6.5-0.1c0.1-0.7,0.4-1.4,0.9-2.2c0.3-0.4,0.7-0.8,1.2-1c0.5-0.3,1.2-0.4,1.9-0.4
		c0.8,0,1.4,0.3,1.8,0.9c0.4,0.6,0.7,1.5,0.7,2.6V203.5L701.8,203.5z M715.8,197.9l-3.2,5.2l-3.1-5.2h-3.2l4.8,7.1l-5.4,8h3.2
		l3.6-6.1l3.6,6.1h3.1l-5.2-8l4.8-7.2H715.8L715.8,197.9z M731.7,212.2l-0.7-1.9c-1.2,0.6-2.6,0.8-3.9,0.8s-2.4-0.5-3.1-1.6
		c-0.7-1.1-1.1-2.4-1.1-4.1h8.8c0.3-1.1,0.4-2,0.4-2.7c0-1.6-0.4-2.8-1.3-3.8c-0.9-0.9-2.2-1.4-3.9-1.4c-2,0-3.6,0.7-4.8,2.2
		c-1.2,1.5-1.7,3.3-1.7,5.6c0,2.3,0.5,4.2,1.6,5.8c1.1,1.5,2.8,2.3,5,2.3C728.7,213.5,730.3,213.1,731.7,212.2L731.7,212.2
		L731.7,212.2z M729.7,203.5l-6.5-0.1c0.1-0.7,0.4-1.4,0.9-2.2c0.3-0.4,0.7-0.8,1.2-1c0.5-0.3,1.2-0.4,1.9-0.4
		c0.8,0,1.4,0.3,1.8,0.9c0.4,0.6,0.7,1.5,0.7,2.6V203.5L729.7,203.5z M738.1,202.3c0.8-1.6,2.3-2.4,4.5-2.4c0.3,0,0.6,0,0.8,0
		l0.5-2.2c-0.3-0.1-0.7-0.1-1.3-0.1c-1.1,0-2,0.3-2.8,0.8c-0.8,0.6-1.4,1.1-1.8,1.7l-0.3-2.2h-2.2v15.2h2.7V202.3L738.1,202.3z
		 M755.4,212.8l-0.5-2c-1,0.3-1.9,0.4-2.8,0.4c-3.1,0-4.7-1.9-4.7-5.7c0-2,0.4-3.4,1.2-4.3c0.8-0.9,1.8-1.3,3-1.3
		c0.8,0,1.8,0.2,2.8,0.5l0.8-1.9c-1.1-0.6-2.4-0.9-3.7-0.9c-1.9,0-3.5,0.7-4.9,2c-1.3,1.3-2,3.3-2,6c0,2.7,0.7,4.6,2,6
		c1.3,1.3,3,2,5,2C752.9,213.5,754.1,213.3,755.4,212.8L755.4,212.8L755.4,212.8z M761.2,197.8l-2.7,0.3v15.1h2.7V197.8L761.2,197.8
		z M758.5,194.7c0.4,0.4,0.8,0.6,1.3,0.6s0.9-0.2,1.3-0.6c0.3-0.4,0.5-0.8,0.5-1.3c0-0.5-0.2-0.9-0.5-1.3c-0.3-0.3-0.8-0.5-1.3-0.5
		s-0.9,0.2-1.3,0.5c-0.4,0.4-0.5,0.8-0.5,1.3C757.9,193.9,758.1,194.4,758.5,194.7L758.5,194.7z M764.3,212.4
		c0.4,0.3,1.1,0.6,1.9,0.8c0.8,0.2,1.7,0.3,2.5,0.3c1.8,0,3.2-0.5,4.2-1.4c1-0.9,1.5-2,1.5-3.4c0-0.9-0.2-1.6-0.8-2.2
		c-0.5-0.6-1.1-1-1.8-1.3c-0.7-0.3-1.4-0.6-2.1-0.8c-0.7-0.2-1.3-0.6-1.8-1c-0.5-0.4-0.8-0.9-0.8-1.5c0-0.6,0.2-1.1,0.7-1.5
		s1.2-0.5,2.2-0.5s2,0.2,3.2,0.6l0.6-2c-1-0.6-2.3-0.9-4-0.9c-1.6,0-2.9,0.4-3.9,1.2c-1,0.8-1.4,1.9-1.4,3.3c0,0.9,0.2,1.7,0.7,2.3
		c0.5,0.6,1.1,1.1,1.8,1.3c0.7,0.3,1.4,0.5,2.1,0.8c0.7,0.3,1.3,0.6,1.8,1s0.7,0.9,0.7,1.5c0,0.6-0.3,1.1-0.8,1.5
		c-0.5,0.4-1.3,0.6-2.4,0.6c-1.1,0-2.3-0.3-3.6-0.9L764.3,212.4L764.3,212.4z M788.2,212.2l-0.7-1.9c-1.2,0.6-2.6,0.8-3.9,0.8
		c-1.4,0-2.4-0.5-3.1-1.6c-0.7-1.1-1.1-2.4-1.1-4.1h8.8c0.3-1.1,0.5-2,0.5-2.7c0-1.6-0.4-2.8-1.3-3.8c-0.9-0.9-2.2-1.4-3.9-1.4
		c-2,0-3.6,0.7-4.8,2.2c-1.2,1.5-1.7,3.3-1.7,5.6c0,2.3,0.5,4.2,1.6,5.8c1.1,1.5,2.8,2.3,5,2.3C785.2,213.5,786.8,213.1,788.2,212.2
		L788.2,212.2L788.2,212.2z M786.1,203.5l-6.5-0.1c0.1-0.7,0.4-1.4,0.9-2.2c0.3-0.4,0.7-0.8,1.2-1c0.5-0.3,1.2-0.4,1.9-0.4
		c0.8,0,1.4,0.3,1.8,0.9c0.4,0.6,0.7,1.5,0.7,2.6V203.5L786.1,203.5z"/>
	<path d="M340.8,193.6l-7.9,8.3v2.2l7.9,8.3l2.7-2.3l-6.8-7l6.8-7.1L340.8,193.6L340.8,193.6z M331.2,193.6l-7.9,8.3v2.2l7.9,8.3
		l2.7-2.3l-6.9-7l6.9-7.1L331.2,193.6L331.2,193.6z"/>
	<path d="M609.8,467.1l2.7,2.3l7.9-8.3v-2.2l-7.9-8.3l-2.7,2.3l6.8,7.1L609.8,467.1L609.8,467.1z M619.5,467.1l2.7,2.3l7.9-8.3v-2.2
		l-7.9-8.3l-2.7,2.3l6.9,7.1L619.5,467.1L619.5,467.1z"/>
	<path d="M712.3,843.3l1,30.6h5.7l-2-43.2h-7.2l-11.8,32l-11.8-32h-7.2l-2,43.2h5.7l1-30.6c0-0.9,0.1-1.8,0.1-2.7
		c0-0.9,0-1.8-0.1-2.7l11.8,31.3h4.9l11.8-31.3c0,0.9-0.1,1.8-0.1,2.7C712.3,841.5,712.3,842.4,712.3,843.3L712.3,843.3L712.3,843.3
		z M741.3,873.8c1.7-0.6,3-1.4,4-2.3c1,2.2,2.7,3.3,5,3.3c2.3,0,4.2-0.5,5.7-1.4l-1-3.6c-1.2,0.4-2.2,0.6-2.8,0.6
		c-1,0-1.5-0.8-1.5-2.3v-15.7c0-4.3-0.9-7.3-2.6-9.1c-1.7-1.8-4.7-2.7-8.9-2.7c-1.5,0-3.3,0.2-5.3,0.7c-2,0.5-3.7,1.1-4.9,1.9
		l1.4,4.1c3.3-1.2,6.1-1.7,8.5-1.7c2.4,0,4,0.5,4.8,1.4c0.8,0.9,1.3,2.6,1.3,5.1v5c-2.1-0.2-4.4-0.3-6.8-0.3c-2.5,0-4.8,0.5-7,1.6
		c-1.2,0.6-2.3,1.5-3,2.8s-1.2,2.8-1.2,4.6c0,2.8,0.8,5,2.5,6.6c1.7,1.6,3.9,2.5,6.7,2.5C737.8,874.8,739.6,874.5,741.3,873.8
		L741.3,873.8z M732.2,865.2c0-3.4,2.6-5,7.6-5c2.3,0,4,0.1,5,0.3v7.5c-2.4,1.6-5,2.3-7.7,2.3C733.8,870.2,732.2,868.5,732.2,865.2
		L732.2,865.2L732.2,865.2z M767.5,850.6c1.7-3.4,4.9-5.1,9.6-5.1c0.7,0,1.3,0,1.7,0.1l1.2-4.7c-0.6-0.2-1.6-0.3-2.8-0.3
		c-2.3,0-4.3,0.6-6.1,1.8c-1.8,1.2-3.1,2.4-3.8,3.7l-0.6-4.8h-4.8v32.7h5.8V850.6L767.5,850.6z M804,873.5l-1.1-4.3
		c-1.4,0.5-2.8,0.7-4.1,0.7c-1.4,0-2.3-0.2-2.7-0.5c-0.4-0.4-0.6-0.8-0.7-1.2c-0.1-0.5-0.1-1.1-0.1-2v-20.2h9l0.6-4.6h-9.6v-8.7
		l-5.2,1l-0.6,7.8l-5.9,0.5l-0.6,3.8l6.4,0.3v19.6c0,3.4,0.5,5.8,1.6,7.2c1.1,1.4,3.3,2.1,6.7,2.1C799.9,874.8,802,874.3,804,873.5
		L804,873.5L804,873.5z M817.3,840.9l-5.9,0.6v32.4h5.9V840.9L817.3,840.9z M820.7,825.2l-10.3,7.9l2.3,3.6l11.1-6.7L820.7,825.2
		L820.7,825.2z M850.4,843.5c-1.3-1.9-3.5-2.9-6.8-2.9c-1.9,0-3.9,0.5-5.9,1.4c-2,0.9-3.7,2-4.9,3.2l-0.6-3.9h-4.8v32.7h5.8v-24.1
		c1-1.2,2.5-2.2,4.3-3.1c1.8-0.8,3.5-1.3,5.1-1.3c1.6,0,2.6,0.6,3.1,1.7c0.5,1.1,0.8,2.7,0.8,4.7v22.1h5.8v-22.4
		C852.3,848.1,851.6,845.4,850.4,843.5L850.4,843.5z M898.1,854c-1.2-1.1-2.4-2-3.5-2.6c-1.1-0.7-2.7-1.6-4.9-2.8
		c-2.2-1.2-4-2.3-5.4-3.5c-1.4-1.1-2.1-2.5-2.1-4.2c0-1.6,0.6-3,1.8-4c1.2-1,3-1.5,5.6-1.5c2.5,0,5.4,0.6,8.7,1.7l1.7-5.2
		c-3.7-1.4-7.4-2.1-11-2.1s-6.6,1-9,3c-2.5,2-3.7,4.7-3.7,8.2c0,3.5,1.1,6.2,3.2,8c1.1,1,2.1,1.8,3,2.3c0.9,0.5,2.5,1.4,5,2.6
		c2.5,1.2,4.5,2.5,6,3.8c1.5,1.3,2.3,3,2.3,4.8s-0.7,3.5-2.1,4.7c-1.4,1.2-3.5,1.8-6.3,1.8c-2.8,0-6.3-0.8-10.5-2.5l-1.7,5.5
		c1.5,0.7,3.5,1.3,6,1.8c2.5,0.5,4.8,0.7,7,0.7c4.1,0,7.4-1.1,9.9-3.4c2.5-2.3,3.7-5.2,3.7-8.7C901.7,859.2,900.5,856.3,898.1,854
		L898.1,854L898.1,854z M935.4,857.6c0-5.9-1.2-10.2-3.6-13c-2.4-2.7-5.6-4.1-9.7-4.1c-4,0-7.3,1.4-9.9,4.1c-2.5,2.8-3.8,7.1-3.8,13
		c0,5.9,1.2,10.2,3.6,13c2.4,2.7,5.6,4.1,9.7,4.1c4,0,7.3-1.4,9.8-4.1C934.1,867.9,935.4,863.6,935.4,857.6L935.4,857.6z M927.5,848
		c1.3,1.7,1.9,4.9,1.9,9.4c0,4.5-0.7,7.8-2.2,9.7c-1.5,1.9-3.2,2.9-5.3,2.9c-5,0-7.5-4.1-7.5-12.3c0-8.2,2.5-12.3,7.6-12.3
		C924.4,845.4,926.3,846.3,927.5,848L927.5,848z M968.5,849.6c1.2-1.1,2.6-2,4.3-2.8c1.7-0.8,3.3-1.2,4.8-1.2c1.5,0,2.5,0.5,3,1.6
		c0.5,1.1,0.8,2.7,0.8,4.7v22.1h5.8v-22.4c0-7.3-2.9-10.9-8.7-10.9c-1.8,0-3.7,0.5-5.8,1.5c-2.1,1-3.7,2.1-5,3.3
		c-1.2-3.2-3.8-4.8-7.7-4.8c-1.9,0-3.8,0.5-5.7,1.4c-2,0.9-3.5,2-4.7,3.2l-0.6-3.9h-4.8v32.7h5.8v-24.1c1-1.2,2.4-2.3,4.1-3.1
		c1.7-0.8,3.4-1.2,4.9-1.2c1.6,0,2.6,0.6,3.1,1.7c0.5,1.1,0.8,2.7,0.8,4.7v22.1h5.8v-22.2C968.7,850.8,968.6,850.1,968.5,849.6
		L968.5,849.6L968.5,849.6z M1021.6,849.6c1.2-1.1,2.6-2,4.3-2.8c1.7-0.8,3.3-1.2,4.8-1.2c1.5,0,2.5,0.5,3,1.6
		c0.5,1.1,0.8,2.7,0.8,4.7v22.1h5.8v-22.4c0-7.3-2.9-10.9-8.7-10.9c-1.8,0-3.7,0.5-5.8,1.5c-2.1,1-3.8,2.1-5,3.3
		c-1.2-3.2-3.8-4.8-7.7-4.8c-1.9,0-3.8,0.5-5.7,1.4c-2,0.9-3.5,2-4.8,3.2l-0.6-3.9h-4.8v32.7h5.8v-24.1c1-1.2,2.4-2.3,4.1-3.1
		c1.7-0.8,3.4-1.2,4.9-1.2c1.6,0,2.6,0.6,3.1,1.7c0.5,1.1,0.8,2.7,0.8,4.7v22.1h5.8v-22.2C1021.7,850.8,1021.7,850.1,1021.6,849.6
		L1021.6,849.6L1021.6,849.6z M1062.5,873.8c1.7-0.6,3-1.4,4-2.3c1,2.2,2.7,3.3,5,3.3c2.3,0,4.2-0.5,5.7-1.4l-1-3.6
		c-1.2,0.4-2.2,0.6-2.8,0.6c-1,0-1.6-0.8-1.6-2.3v-15.7c0-4.3-0.9-7.3-2.6-9.1c-1.7-1.8-4.7-2.7-8.9-2.7c-1.5,0-3.3,0.2-5.3,0.7
		c-2.1,0.5-3.7,1.1-4.9,1.9l1.4,4.1c3.3-1.2,6.1-1.7,8.5-1.7s4,0.5,4.8,1.4c0.8,0.9,1.3,2.6,1.3,5.1v5c-2.1-0.2-4.4-0.3-6.8-0.3
		c-2.5,0-4.8,0.5-7,1.6c-1.2,0.6-2.3,1.5-3,2.8s-1.2,2.8-1.2,4.6c0,2.8,0.8,5,2.5,6.6c1.7,1.6,3.9,2.5,6.7,2.5
		C1059,874.8,1060.8,874.5,1062.5,873.8L1062.5,873.8z M1053.4,865.2c0-3.4,2.6-5,7.6-5c2.3,0,4,0.1,5,0.3v7.5
		c-2.4,1.6-5,2.3-7.7,2.3C1055,870.2,1053.4,868.5,1053.4,865.2L1053.4,865.2L1053.4,865.2z M1088.7,850.6c1.7-3.4,4.9-5.1,9.6-5.1
		c0.7,0,1.3,0,1.7,0.1l1.2-4.7c-0.7-0.2-1.6-0.3-2.8-0.3c-2.3,0-4.3,0.6-6.1,1.8c-1.8,1.2-3.1,2.4-3.8,3.7l-0.6-4.8h-4.8v32.7h5.8
		V850.6L1088.7,850.6z M1122.1,873.7c1.8-0.7,3.3-1.6,4.6-2.6l0.6,3.5h4.7v-33.1h-5.8v25.3c-1,0.9-2.3,1.7-4,2.2
		c-1.6,0.5-3.3,0.8-5,0.8c-1.7,0-2.8-0.5-3.4-1.5c-0.6-1-0.8-2.6-0.8-4.7v-22.3h-5.8v22.4c0,3.6,0.7,6.3,2.1,8.2
		c1.4,1.9,3.8,2.9,7.4,2.9C1118.5,874.8,1120.3,874.4,1122.1,873.7L1122.1,873.7z M1143.7,843.9c-1.9,2.2-2.9,5-2.9,8.5
		c0,2.3,0.5,4.3,1.4,6.2c0.9,1.8,2.3,3.2,4.1,4.2c-1.7,2.2-2.5,4.1-2.5,5.9c0,1.8,0.6,3.1,1.7,4c-4,2.1-5.9,4.8-5.9,8.1
		c0,2.7,1.1,4.7,3.4,6.2c2.2,1.5,5.5,2.2,9.8,2.2c4.3,0,7.8-1.1,10.6-3.2c2.8-2.1,4.2-4.9,4.2-8.4c0-2.5-0.9-4.4-2.6-5.8
		c-1.7-1.4-4.1-2.1-7.2-2.1h-5.9c-2.3,0-3.4-0.7-3.4-2.2c0-1,0.3-2.2,1-3.7c1.1,0.2,2.2,0.3,3.3,0.3c3.8,0,6.6-1.2,8.6-3.3
		c2-2.2,3-4.9,3-8.2c0-3.3-0.8-5.9-2.4-7.9c2.9-0.4,5.1-0.8,6.8-1.1l-0.7-3.6c-3.4,0.6-6.8,0.9-10,0.9l-5.4-0.3
		C1148.5,840.6,1145.7,841.7,1143.7,843.9L1143.7,843.9z M1157.3,846.8c1,1.2,1.4,3,1.4,5.5c0,4.8-2.1,7.2-6.3,7.2
		c-4.2,0-6.3-2.4-6.3-7.2c0-4.8,2.1-7.2,6.3-7.2C1154.8,845.1,1156.4,845.7,1157.3,846.8L1157.3,846.8z M1160.9,875.6
		c0.8,0.5,1.2,1.4,1.2,2.6c0,2-0.8,3.5-2.4,4.7c-1.6,1.1-3.7,1.7-6.4,1.7c-2.7,0-4.8-0.4-6.2-1.1c-1.5-0.8-2.2-1.9-2.2-3.4
		c0-2.5,1.2-4.2,3.6-5.2h7.9C1158.5,874.8,1160,875,1160.9,875.6L1160.9,875.6z M1187,873.8c1.7-0.6,3-1.4,4-2.3
		c1,2.2,2.7,3.3,5,3.3c2.3,0,4.2-0.5,5.7-1.4l-1-3.6c-1.2,0.4-2.2,0.6-2.8,0.6c-1,0-1.6-0.8-1.6-2.3v-15.7c0-4.3-0.9-7.3-2.6-9.1
		c-1.7-1.8-4.7-2.7-8.8-2.7c-1.5,0-3.3,0.2-5.3,0.7c-2,0.5-3.7,1.1-4.9,1.9l1.4,4.1c3.3-1.2,6.1-1.7,8.5-1.7s4,0.5,4.8,1.4
		c0.8,0.9,1.3,2.6,1.3,5.1v5c-2.1-0.2-4.4-0.3-6.8-0.3c-2.5,0-4.8,0.5-7,1.6c-1.2,0.6-2.3,1.5-3,2.8c-0.8,1.2-1.2,2.8-1.2,4.6
		c0,2.8,0.8,5,2.5,6.6c1.7,1.6,3.9,2.5,6.7,2.5C1183.5,874.8,1185.3,874.5,1187,873.8L1187,873.8z M1177.8,865.2c0-3.4,2.6-5,7.6-5
		c2.3,0,4,0.1,5,0.3v7.5c-2.4,1.6-5,2.3-7.7,2.3C1179.5,870.2,1177.8,868.5,1177.8,865.2L1177.8,865.2L1177.8,865.2z"/>
</g>
</svg>
