<?xml version="1.0" encoding="utf-8"?>
<!-- Generator: Adobe Illustrator 22.0.1, SVG Export Plug-In . SVG Version: 6.00 Build 0)  -->
<svg version="1.1" id="Ebene_1" xmlns="http://www.w3.org/2000/svg" xmlns:xlink="http://www.w3.org/1999/xlink" x="0px" y="0px"
	 viewBox="0 0 375 600" style="enable-background:new 0 0 375 600;" xml:space="preserve">
<g>
	<path d="M60.9,391.2l-0.3-1.2c-0.4,0.1-0.7,0.2-1.1,0.2c-0.4,0-0.6,0-0.7-0.1c-0.1-0.1-0.2-0.2-0.2-0.3c0-0.1,0-0.3,0-0.5v-5.4H61
		l0.2-1.2h-2.5v-2.3l-1.4,0.3l-0.2,2.1l-1.6,0.1l-0.2,1l1.7,0.1v5.2c0,0.9,0.1,1.5,0.4,1.9c0.3,0.4,0.9,0.6,1.8,0.6
		C59.8,391.6,60.4,391.5,60.9,391.2L60.9,391.2L60.9,391.2z M65.4,382.8c-0.5,0.2-0.9,0.5-1.3,0.8v-4.5l-1.6,0.1v12h1.6v-6.4
		c0.3-0.3,0.7-0.6,1.1-0.8c0.5-0.2,0.9-0.3,1.3-0.3c0.4,0,0.7,0.1,0.8,0.4c0.1,0.3,0.2,0.7,0.2,1.2v5.9h1.5v-6
		c0-0.9-0.2-1.6-0.5-2.1c-0.3-0.5-0.9-0.8-1.8-0.8C66.4,382.5,65.9,382.6,65.4,382.8L65.4,382.8z M74.8,391.3
		c0.5-0.2,0.8-0.4,1.1-0.6c0.3,0.6,0.7,0.9,1.3,0.9s1.1-0.1,1.5-0.4l-0.3-1c-0.3,0.1-0.6,0.2-0.8,0.2c-0.3,0-0.4-0.2-0.4-0.6v-4.2
		c0-1.1-0.2-1.9-0.7-2.4c-0.5-0.5-1.2-0.7-2.4-0.7c-0.4,0-0.9,0.1-1.4,0.2c-0.5,0.1-1,0.3-1.3,0.5l0.4,1.1c0.9-0.3,1.6-0.5,2.3-0.5
		c0.6,0,1.1,0.1,1.3,0.4c0.2,0.2,0.3,0.7,0.3,1.4v1.3c-0.6-0.1-1.2-0.1-1.8-0.1c-0.7,0-1.3,0.1-1.9,0.4c-0.3,0.2-0.6,0.4-0.8,0.7
		c-0.2,0.3-0.3,0.7-0.3,1.2c0,0.7,0.2,1.3,0.7,1.8c0.4,0.4,1,0.7,1.8,0.7C73.9,391.6,74.3,391.5,74.8,391.3L74.8,391.3z M72.4,389
		c0-0.9,0.7-1.3,2-1.3c0.6,0,1.1,0,1.3,0.1v2c-0.6,0.4-1.3,0.6-2,0.6C72.8,390.4,72.4,389.9,72.4,389L72.4,389L72.4,389z
		 M84.5,391.2l-0.3-1.2c-0.4,0.1-0.7,0.2-1.1,0.2c-0.4,0-0.6,0-0.7-0.1c-0.1-0.1-0.2-0.2-0.2-0.3c0-0.1,0-0.3,0-0.5v-5.4h2.4
		l0.2-1.2h-2.5v-2.3l-1.4,0.3l-0.2,2.1l-1.6,0.1l-0.2,1l1.7,0.1v5.2c0,0.9,0.1,1.5,0.4,1.9c0.3,0.4,0.9,0.6,1.8,0.6
		C83.4,391.6,84,391.5,84.5,391.2L84.5,391.2L84.5,391.2z M90,379.9v11.5h1.7v-11.5H90L90,379.9z M97.8,389.6c0,1.3,0.6,2,1.7,2
		c0.7,0,1.3-0.1,1.7-0.3l-0.3-1.1c-0.4,0.1-0.7,0.2-1,0.2c-0.4,0-0.6-0.2-0.6-0.7v-10.3h-1.6V389.6L97.8,389.6z M103.9,382.6
		l-1.6,0.2v8.6h1.6V382.6L103.9,382.6z M102.3,380.8c0.2,0.2,0.5,0.3,0.7,0.3c0.3,0,0.5-0.1,0.7-0.3c0.2-0.2,0.3-0.5,0.3-0.7
		c0-0.3-0.1-0.5-0.3-0.7c-0.2-0.2-0.4-0.3-0.7-0.3c-0.3,0-0.5,0.1-0.7,0.3c-0.2,0.2-0.3,0.4-0.3,0.7
		C102,380.4,102.1,380.6,102.3,380.8L102.3,380.8z M107.8,386.7l3.8,4.7h1.9c-0.4-0.5-1.1-1.3-2-2.4c-0.9-1.1-1.6-1.9-2-2.4l3.5-3.8
		h-1.9l-3.3,3.8v-7.4l-1.6,0.1v12.1h1.6V386.7L107.8,386.7z M120.4,390.9l-0.4-1.1c-0.7,0.3-1.5,0.5-2.3,0.5c-0.8,0-1.4-0.3-1.8-0.9
		c-0.4-0.6-0.6-1.4-0.6-2.4h5.1c0.2-0.6,0.3-1.1,0.3-1.5c0-0.9-0.3-1.6-0.8-2.2c-0.5-0.5-1.3-0.8-2.2-0.8c-1.2,0-2.1,0.4-2.7,1.2
		c-0.7,0.8-1,1.9-1,3.2c0,1.3,0.3,2.4,0.9,3.3c0.6,0.9,1.6,1.3,2.9,1.3C118.6,391.6,119.5,391.3,120.4,390.9L120.4,390.9
		L120.4,390.9z M119.2,385.9l-3.7,0c0.1-0.4,0.2-0.8,0.5-1.3c0.2-0.2,0.4-0.4,0.7-0.6s0.7-0.2,1.1-0.2c0.4,0,0.8,0.2,1,0.5
		c0.3,0.4,0.4,0.8,0.4,1.5V385.9L119.2,385.9z M122.9,390.3c0.5,0.8,1.3,1.2,2.2,1.2c1,0,1.8-0.3,2.5-0.9l0.2,0.8h1.2v-12.2h-1.6
		v3.6c-0.5-0.3-1-0.4-1.7-0.4c-2.5,0-3.8,1.6-3.8,4.7C122.1,388.5,122.3,389.6,122.9,390.3L122.9,390.3z M127.5,384.1v5.4
		c-0.5,0.5-1.2,0.8-2.1,0.8c-1.2,0-1.8-1-1.8-3.1c0-2.3,0.7-3.4,2.2-3.4C126.5,383.8,127,383.9,127.5,384.1L127.5,384.1L127.5,384.1
		z M139.4,391.2l-0.3-1.2c-0.4,0.1-0.7,0.2-1.1,0.2c-0.4,0-0.6,0-0.7-0.1c-0.1-0.1-0.2-0.2-0.2-0.3c0-0.1,0-0.3,0-0.5v-5.4h2.4
		l0.2-1.2h-2.5v-2.3l-1.4,0.3l-0.2,2.1l-1.6,0.1l-0.2,1l1.7,0.1v5.2c0,0.9,0.1,1.5,0.4,1.9c0.3,0.4,0.9,0.6,1.8,0.6
		C138.3,391.6,138.9,391.5,139.4,391.2L139.4,391.2L139.4,391.2z M143.9,382.8c-0.5,0.2-0.9,0.5-1.3,0.8v-4.5l-1.6,0.1v12h1.6v-6.4
		c0.3-0.3,0.7-0.6,1.1-0.8c0.5-0.2,0.9-0.3,1.3-0.3c0.4,0,0.7,0.1,0.8,0.4c0.1,0.3,0.2,0.7,0.2,1.2v5.9h1.5v-6
		c0-0.9-0.2-1.6-0.5-2.1c-0.3-0.5-0.9-0.8-1.8-0.8C144.9,382.5,144.4,382.6,143.9,382.8L143.9,382.8z M156.1,390.9l-0.4-1.1
		c-0.7,0.3-1.5,0.5-2.3,0.5c-0.8,0-1.4-0.3-1.8-0.9c-0.4-0.6-0.6-1.4-0.6-2.4h5.1c0.2-0.6,0.3-1.1,0.3-1.5c0-0.9-0.3-1.6-0.8-2.2
		c-0.5-0.5-1.3-0.8-2.2-0.8c-1.2,0-2.1,0.4-2.7,1.2c-0.7,0.8-1,1.9-1,3.2c0,1.3,0.3,2.4,0.9,3.3c0.6,0.9,1.6,1.3,2.9,1.3
		C154.4,391.6,155.3,391.3,156.1,390.9L156.1,390.9L156.1,390.9z M154.9,385.9l-3.7,0c0.1-0.4,0.2-0.8,0.5-1.3
		c0.2-0.2,0.4-0.4,0.7-0.6s0.7-0.2,1.1-0.2c0.4,0,0.8,0.2,1.1,0.5c0.3,0.4,0.4,0.8,0.4,1.5V385.9L154.9,385.9z M168.4,384.9
		c0.3-0.3,0.7-0.5,1.1-0.8c0.4-0.2,0.9-0.3,1.3-0.3c0.4,0,0.7,0.1,0.8,0.4c0.1,0.3,0.2,0.7,0.2,1.2v5.9h1.6v-6
		c0-1.9-0.8-2.9-2.3-2.9c-0.5,0-1,0.1-1.5,0.4c-0.6,0.3-1,0.6-1.3,0.9c-0.3-0.8-1-1.3-2.1-1.3c-0.5,0-1,0.1-1.5,0.4
		c-0.5,0.3-0.9,0.5-1.3,0.8l-0.2-1.1h-1.3v8.7h1.6v-6.4c0.3-0.3,0.6-0.6,1.1-0.8c0.5-0.2,0.9-0.3,1.3-0.3s0.7,0.1,0.8,0.4
		c0.1,0.3,0.2,0.7,0.2,1.2v5.9h1.6v-5.9C168.4,385.2,168.4,385,168.4,384.9L168.4,384.9L168.4,384.9z M182.4,387
		c0-1.6-0.3-2.7-1-3.5c-0.6-0.7-1.5-1.1-2.6-1.1c-1.1,0-2,0.4-2.6,1.1c-0.7,0.7-1,1.9-1,3.5c0,1.6,0.3,2.7,1,3.5
		c0.6,0.7,1.5,1.1,2.6,1.1c1.1,0,2-0.4,2.6-1.1C182.1,389.7,182.4,388.6,182.4,387L182.4,387z M180.3,384.4c0.3,0.5,0.5,1.3,0.5,2.5
		c0,1.2-0.2,2.1-0.6,2.6s-0.9,0.8-1.4,0.8c-1.3,0-2-1.1-2-3.3c0-2.2,0.7-3.3,2-3.3C179.5,383.7,180,384,180.3,384.4L180.3,384.4z
		 M183.8,390.9c0.2,0.2,0.6,0.3,1.1,0.4c0.5,0.1,1,0.2,1.5,0.2c1,0,1.8-0.3,2.4-0.8c0.6-0.5,0.8-1.2,0.8-1.9c0-0.5-0.1-0.9-0.4-1.3
		c-0.3-0.3-0.6-0.6-1-0.8c-0.4-0.2-0.8-0.3-1.2-0.5c-0.4-0.1-0.8-0.3-1-0.6c-0.3-0.2-0.4-0.5-0.4-0.9c0-0.4,0.1-0.6,0.4-0.8
		c0.3-0.2,0.7-0.3,1.3-0.3c0.6,0,1.2,0.1,1.8,0.3l0.4-1.2c-0.6-0.3-1.3-0.5-2.3-0.5c-0.9,0-1.7,0.2-2.2,0.7
		c-0.6,0.5-0.8,1.1-0.8,1.9c0,0.5,0.1,1,0.4,1.3c0.3,0.4,0.6,0.6,1,0.8c0.4,0.2,0.8,0.3,1.2,0.5c0.4,0.1,0.7,0.3,1,0.6
		s0.4,0.5,0.4,0.9c0,0.4-0.1,0.6-0.4,0.9c-0.3,0.2-0.8,0.4-1.4,0.4c-0.6,0-1.3-0.2-2.1-0.5L183.8,390.9L183.8,390.9z M196.2,391.2
		l-0.3-1.2c-0.4,0.1-0.7,0.2-1.1,0.2c-0.4,0-0.6,0-0.7-0.1c-0.1-0.1-0.2-0.2-0.2-0.3c0-0.1,0-0.3,0-0.5v-5.4h2.4l0.2-1.2h-2.5v-2.3
		l-1.4,0.3l-0.2,2.1l-1.6,0.1l-0.2,1l1.7,0.1v5.2c0,0.9,0.1,1.5,0.4,1.9c0.3,0.4,0.9,0.6,1.8,0.6
		C195.1,391.6,195.6,391.5,196.2,391.2L196.2,391.2L196.2,391.2z M197.5,390.4c0,0.3,0.1,0.5,0.3,0.8c0.2,0.2,0.5,0.3,0.7,0.3
		c0.3,0,0.5-0.1,0.7-0.3c0.2-0.2,0.3-0.5,0.3-0.8c0-0.3-0.1-0.5-0.3-0.7c-0.2-0.2-0.5-0.3-0.7-0.3c-0.3,0-0.5,0.1-0.7,0.3
		C197.6,389.8,197.5,390.1,197.5,390.4L197.5,390.4z"/>
	<path d="M56.4,353v11.5H58V353H56.4L56.4,353z M67.7,364.4c0.5-0.2,0.9-0.4,1.2-0.7l0.2,0.9h1.3v-8.8h-1.5v6.8
		c-0.3,0.3-0.6,0.5-1.1,0.6c-0.4,0.1-0.9,0.2-1.3,0.2c-0.5,0-0.8-0.1-0.9-0.4c-0.1-0.3-0.2-0.7-0.2-1.3v-5.9h-1.5v6
		c0,1,0.2,1.7,0.6,2.2c0.4,0.5,1,0.8,2,0.8C66.8,364.7,67.3,364.6,67.7,364.4L67.7,364.4z M72,364.1c0.2,0.2,0.6,0.3,1.1,0.4
		c0.5,0.1,1,0.2,1.5,0.2c1,0,1.8-0.3,2.4-0.8c0.6-0.5,0.8-1.2,0.8-1.9c0-0.5-0.1-0.9-0.4-1.3c-0.3-0.3-0.6-0.6-1-0.8
		c-0.4-0.2-0.8-0.3-1.2-0.5c-0.4-0.1-0.8-0.3-1-0.6c-0.3-0.2-0.4-0.5-0.4-0.9s0.1-0.6,0.4-0.8c0.3-0.2,0.7-0.3,1.3-0.3
		c0.6,0,1.2,0.1,1.8,0.3l0.4-1.2c-0.6-0.3-1.3-0.5-2.3-0.5c-0.9,0-1.7,0.2-2.2,0.7c-0.6,0.5-0.8,1.1-0.8,1.9c0,0.5,0.1,1,0.4,1.3
		c0.3,0.4,0.6,0.6,1,0.8c0.4,0.2,0.8,0.3,1.2,0.5c0.4,0.1,0.7,0.3,1,0.6c0.3,0.2,0.4,0.5,0.4,0.9c0,0.4-0.1,0.6-0.4,0.9
		c-0.3,0.2-0.8,0.4-1.4,0.4c-0.6,0-1.3-0.2-2.1-0.5L72,364.1L72,364.1z M85.5,364l-0.4-1.1c-0.7,0.3-1.5,0.5-2.3,0.5
		c-0.8,0-1.4-0.3-1.8-0.9c-0.4-0.6-0.6-1.4-0.6-2.4h5.1c0.2-0.6,0.3-1.1,0.3-1.5c0-0.9-0.3-1.6-0.8-2.2c-0.5-0.5-1.3-0.8-2.2-0.8
		c-1.2,0-2.1,0.4-2.7,1.2c-0.7,0.8-1,1.9-1,3.2c0,1.3,0.3,2.4,0.9,3.3c0.6,0.9,1.6,1.3,2.9,1.3C83.8,364.7,84.7,364.5,85.5,364
		L85.5,364L85.5,364z M84.4,359l-3.7,0c0.1-0.4,0.2-0.8,0.5-1.3c0.2-0.2,0.4-0.4,0.7-0.6c0.3-0.2,0.7-0.2,1.1-0.2
		c0.4,0,0.8,0.2,1.1,0.5c0.3,0.4,0.4,0.8,0.4,1.5V359L84.4,359z M87.9,363.5c0.5,0.8,1.3,1.2,2.2,1.2c1,0,1.8-0.3,2.5-0.9l0.2,0.8
		h1.2v-12.2h-1.6v3.6c-0.5-0.3-1-0.4-1.7-0.4c-2.5,0-3.8,1.6-3.8,4.7C87.1,361.6,87.4,362.7,87.9,363.5L87.9,363.5z M92.5,357.2v5.4
		c-0.5,0.5-1.2,0.8-2.1,0.8c-1.2,0-1.8-1-1.8-3.1c0-2.3,0.7-3.4,2.2-3.4C91.5,356.9,92,357,92.5,357.2L92.5,357.2L92.5,357.2z
		 M104.1,364.4l-0.3-1.2c-0.4,0.1-0.7,0.2-1.1,0.2c-0.4,0-0.6,0-0.7-0.1c-0.1-0.1-0.2-0.2-0.2-0.3c0-0.1,0-0.3,0-0.5V357h2.4
		l0.2-1.2h-2.5v-2.3l-1.4,0.3l-0.2,2.1l-1.6,0.1l-0.2,1l1.7,0.1v5.2c0,0.9,0.1,1.5,0.4,1.9c0.3,0.4,0.9,0.6,1.8,0.6
		C103,364.7,103.6,364.6,104.1,364.4L104.1,364.4L104.1,364.4z M108.4,355.9c-0.5,0.2-0.9,0.5-1.3,0.8v-4.5l-1.6,0.1v12h1.6v-6.4
		c0.3-0.3,0.7-0.6,1.1-0.8c0.5-0.2,0.9-0.3,1.3-0.3c0.4,0,0.7,0.1,0.8,0.4c0.1,0.3,0.2,0.7,0.2,1.2v5.9h1.6v-6
		c0-0.9-0.2-1.6-0.5-2.1c-0.3-0.5-0.9-0.8-1.8-0.8C109.4,355.6,108.9,355.7,108.4,355.9L108.4,355.9z M120.4,364l-0.4-1.1
		c-0.7,0.3-1.5,0.5-2.3,0.5s-1.4-0.3-1.8-0.9c-0.4-0.6-0.6-1.4-0.6-2.4h5.1c0.2-0.6,0.3-1.1,0.3-1.5c0-0.9-0.3-1.6-0.8-2.2
		c-0.5-0.5-1.3-0.8-2.2-0.8c-1.2,0-2.1,0.4-2.7,1.2c-0.7,0.8-1,1.9-1,3.2c0,1.3,0.3,2.4,0.9,3.3c0.6,0.9,1.6,1.3,2.9,1.3
		C118.7,364.7,119.6,364.5,120.4,364L120.4,364L120.4,364z M119.2,359l-3.7,0c0.1-0.4,0.2-0.8,0.5-1.3c0.2-0.2,0.4-0.4,0.7-0.6
		s0.7-0.2,1.1-0.2c0.4,0,0.8,0.2,1.1,0.5c0.3,0.4,0.4,0.8,0.4,1.5V359L119.2,359z M132.3,358c0.3-0.3,0.7-0.5,1.1-0.8
		c0.4-0.2,0.9-0.3,1.3-0.3c0.4,0,0.7,0.1,0.8,0.4c0.1,0.3,0.2,0.7,0.2,1.2v5.9h1.5v-6c0-1.9-0.8-2.9-2.3-2.9c-0.5,0-1,0.1-1.6,0.4
		c-0.6,0.3-1,0.6-1.3,0.9c-0.3-0.8-1-1.3-2-1.3c-0.5,0-1,0.1-1.5,0.4c-0.5,0.3-0.9,0.5-1.3,0.8l-0.2-1h-1.3v8.7h1.5v-6.4
		c0.3-0.3,0.6-0.6,1.1-0.8c0.5-0.2,0.9-0.3,1.3-0.3c0.4,0,0.7,0.1,0.8,0.4c0.1,0.3,0.2,0.7,0.2,1.2v5.9h1.6v-5.9
		C132.4,358.3,132.4,358.1,132.3,358L132.3,358L132.3,358z M146.2,360.1c0-1.6-0.3-2.7-1-3.5c-0.6-0.7-1.5-1.1-2.6-1.1
		c-1.1,0-2,0.4-2.6,1.1c-0.7,0.7-1,1.9-1,3.5c0,1.6,0.3,2.7,1,3.5c0.6,0.7,1.5,1.1,2.6,1.1c1.1,0,2-0.4,2.6-1.1
		C145.9,362.9,146.2,361.7,146.2,360.1L146.2,360.1z M144.1,357.6c0.3,0.5,0.5,1.3,0.5,2.5c0,1.2-0.2,2.1-0.6,2.6
		c-0.4,0.5-0.9,0.8-1.4,0.8c-1.3,0-2-1.1-2-3.3c0-2.2,0.7-3.3,2-3.3C143.3,356.9,143.8,357.1,144.1,357.6L144.1,357.6z M147.5,364.1
		c0.2,0.2,0.6,0.3,1.1,0.4c0.5,0.1,1,0.2,1.5,0.2c1,0,1.8-0.3,2.4-0.8c0.6-0.5,0.8-1.2,0.8-1.9c0-0.5-0.1-0.9-0.4-1.3
		c-0.3-0.3-0.6-0.6-1-0.8c-0.4-0.2-0.8-0.3-1.2-0.5c-0.4-0.1-0.8-0.3-1-0.6c-0.3-0.2-0.4-0.5-0.4-0.9s0.1-0.6,0.4-0.8
		c0.3-0.2,0.7-0.3,1.3-0.3c0.6,0,1.2,0.1,1.8,0.3l0.4-1.2c-0.6-0.3-1.3-0.5-2.3-0.5c-0.9,0-1.7,0.2-2.2,0.7
		c-0.6,0.5-0.8,1.1-0.8,1.9c0,0.5,0.1,1,0.4,1.3c0.3,0.4,0.6,0.6,1,0.8c0.4,0.2,0.8,0.3,1.2,0.5c0.4,0.1,0.7,0.3,1,0.6
		c0.3,0.2,0.4,0.5,0.4,0.9c0,0.4-0.1,0.6-0.4,0.9c-0.3,0.2-0.8,0.4-1.4,0.4c-0.6,0-1.3-0.2-2.1-0.5L147.5,364.1L147.5,364.1z
		 M159.6,364.4l-0.3-1.2c-0.4,0.1-0.7,0.2-1.1,0.2c-0.4,0-0.6,0-0.7-0.1c-0.1-0.1-0.2-0.2-0.2-0.3c0-0.1,0-0.3,0-0.5V357h2.4
		l0.2-1.2h-2.5v-2.3l-1.4,0.3l-0.2,2.1l-1.6,0.1l-0.2,1l1.7,0.1v5.2c0,0.9,0.1,1.5,0.4,1.9c0.3,0.4,0.9,0.6,1.8,0.6
		C158.5,364.7,159.1,364.6,159.6,364.4L159.6,364.4L159.6,364.4z M171.3,360.1c0-1.6-0.3-2.7-1-3.5c-0.6-0.7-1.5-1.1-2.6-1.1
		s-2,0.4-2.6,1.1c-0.7,0.7-1,1.9-1,3.5c0,1.6,0.3,2.7,1,3.5c0.6,0.7,1.5,1.1,2.6,1.1c1.1,0,2-0.4,2.6-1.1
		C171,362.9,171.3,361.7,171.3,360.1L171.3,360.1z M169.2,357.6c0.3,0.5,0.5,1.3,0.5,2.5c0,1.2-0.2,2.1-0.6,2.6
		c-0.4,0.5-0.9,0.8-1.4,0.8c-1.3,0-2-1.1-2-3.3c0-2.2,0.7-3.3,2-3.3C168.4,356.9,168.9,357.1,169.2,357.6L169.2,357.6z M173.8,355.8
		l-1.4,0.1l-0.2,1l1.6,0.1v10.5l1.6,0.2V357h2.2l0.2-1.2h-2.4v-0.7c0-0.6,0.1-1.1,0.3-1.3c0.2-0.2,0.7-0.4,1.3-0.4
		c0.7,0,1.2,0.1,1.7,0.2l0.3-1.2c-0.7-0.2-1.4-0.3-2.1-0.3c-1.2,0-2,0.2-2.5,0.7c-0.5,0.5-0.7,1.3-0.7,2.4V355.8L173.8,355.8z
		 M183.6,364.4l-0.3-1.2c-0.4,0.1-0.7,0.2-1.1,0.2c-0.4,0-0.6,0-0.7-0.1c-0.1-0.1-0.2-0.2-0.2-0.3c0-0.1,0-0.3,0-0.5V357h2.4
		l0.2-1.2h-2.5v-2.3l-1.4,0.3l-0.2,2.1l-1.6,0.1l-0.2,1l1.7,0.1v5.2c0,0.9,0.1,1.5,0.4,1.9c0.3,0.4,0.9,0.6,1.8,0.6
		C182.5,364.7,183.1,364.6,183.6,364.4L183.6,364.4L183.6,364.4z M191.1,364l-0.4-1.1c-0.7,0.3-1.5,0.5-2.3,0.5s-1.4-0.3-1.8-0.9
		c-0.4-0.6-0.6-1.4-0.6-2.4h5.1c0.2-0.6,0.3-1.1,0.3-1.5c0-0.9-0.3-1.6-0.8-2.2c-0.5-0.5-1.3-0.8-2.2-0.8c-1.2,0-2.1,0.4-2.7,1.2
		c-0.7,0.8-1,1.9-1,3.2c0,1.3,0.3,2.4,0.9,3.3c0.6,0.9,1.6,1.3,2.9,1.3C189.4,364.7,190.3,364.5,191.1,364L191.1,364L191.1,364z
		 M189.9,359l-3.7,0c0.1-0.4,0.2-0.8,0.5-1.3c0.2-0.2,0.4-0.4,0.7-0.6c0.3-0.2,0.7-0.2,1.1-0.2s0.8,0.2,1.1,0.5
		c0.3,0.4,0.4,0.8,0.4,1.5V359L189.9,359z M199.2,356.4c-0.3-0.5-0.9-0.8-1.8-0.8c-0.5,0-1,0.1-1.6,0.4c-0.5,0.3-1,0.5-1.3,0.8
		l-0.2-1h-1.3v8.7h1.6v-6.4c0.3-0.3,0.7-0.6,1.1-0.8s0.9-0.3,1.4-0.3c0.4,0,0.7,0.1,0.8,0.4c0.1,0.3,0.2,0.7,0.2,1.2v5.9h1.5v-6
		C199.7,357.6,199.5,356.9,199.2,356.4L199.2,356.4z M203.3,362.5h-1.6c0.2,0.4,0.3,0.9,0.3,1.2c0,0.9-0.5,1.9-1.4,3h1.4
		c1-0.9,1.5-2,1.5-3.2C203.5,363.1,203.4,362.8,203.3,362.5L203.3,362.5L203.3,362.5z M212.2,364.4c0.5-0.2,0.8-0.4,1.1-0.6
		c0.3,0.6,0.7,0.9,1.3,0.9s1.1-0.1,1.5-0.4l-0.3-1c-0.3,0.1-0.6,0.2-0.8,0.2c-0.3,0-0.4-0.2-0.4-0.6v-4.2c0-1.1-0.2-1.9-0.7-2.4
		c-0.5-0.5-1.2-0.7-2.4-0.7c-0.4,0-0.9,0.1-1.4,0.2c-0.5,0.1-1,0.3-1.3,0.5l0.4,1.1c0.9-0.3,1.6-0.5,2.3-0.5c0.6,0,1.1,0.1,1.3,0.4
		c0.2,0.2,0.3,0.7,0.3,1.4v1.3c-0.6-0.1-1.2-0.1-1.8-0.1c-0.7,0-1.3,0.1-1.9,0.4c-0.3,0.2-0.6,0.4-0.8,0.7c-0.2,0.3-0.3,0.7-0.3,1.2
		c0,0.7,0.2,1.3,0.7,1.8c0.4,0.4,1,0.7,1.8,0.7C211.3,364.7,211.7,364.6,212.2,364.4L212.2,364.4z M209.7,362.1c0-0.9,0.7-1.3,2-1.3
		c0.6,0,1.1,0,1.3,0.1v2c-0.6,0.4-1.3,0.6-2,0.6C210.2,363.5,209.7,363,209.7,362.1L209.7,362.1L209.7,362.1z M216.6,364.1
		c0.2,0.2,0.6,0.3,1.1,0.4c0.5,0.1,1,0.2,1.5,0.2c1,0,1.8-0.3,2.4-0.8c0.6-0.5,0.8-1.2,0.8-1.9c0-0.5-0.1-0.9-0.4-1.3
		c-0.3-0.3-0.6-0.6-1-0.8c-0.4-0.2-0.8-0.3-1.2-0.5c-0.4-0.1-0.8-0.3-1-0.6c-0.3-0.2-0.4-0.5-0.4-0.9s0.1-0.6,0.4-0.8
		c0.3-0.2,0.7-0.3,1.3-0.3c0.6,0,1.2,0.1,1.8,0.3l0.4-1.2c-0.6-0.3-1.3-0.5-2.3-0.5c-0.9,0-1.7,0.2-2.2,0.7
		c-0.6,0.5-0.8,1.1-0.8,1.9c0,0.5,0.1,1,0.4,1.3c0.3,0.4,0.6,0.6,1,0.8c0.4,0.2,0.8,0.3,1.2,0.5c0.4,0.1,0.7,0.3,1,0.6
		c0.3,0.2,0.4,0.5,0.4,0.9c0,0.4-0.1,0.6-0.4,0.9c-0.3,0.2-0.8,0.4-1.4,0.4c-0.6,0-1.3-0.2-2.1-0.5L216.6,364.1L216.6,364.1z
		 M233.6,364.5h1.6l2.3-8.7h-1.5l-1.6,7l-1.7-7l-1.4,0.1l-1.7,6.9l-1.6-7h-1.6l2.3,8.7h1.6l1.7-6.8L233.6,364.5L233.6,364.5z
		 M244.8,364l-0.4-1.1c-0.7,0.3-1.5,0.5-2.3,0.5c-0.8,0-1.4-0.3-1.8-0.9c-0.4-0.6-0.6-1.4-0.6-2.4h5.1c0.2-0.6,0.3-1.1,0.3-1.5
		c0-0.9-0.3-1.6-0.8-2.2c-0.5-0.5-1.3-0.8-2.2-0.8c-1.2,0-2.1,0.4-2.7,1.2c-0.7,0.8-1,1.9-1,3.2c0,1.3,0.3,2.4,0.9,3.3
		c0.6,0.9,1.6,1.3,2.9,1.3C243.1,364.7,244,364.5,244.8,364L244.8,364L244.8,364z M243.6,359l-3.7,0c0.1-0.4,0.2-0.8,0.5-1.3
		c0.2-0.2,0.4-0.4,0.7-0.6s0.7-0.2,1.1-0.2c0.4,0,0.8,0.2,1.1,0.5c0.3,0.4,0.4,0.8,0.4,1.5V359L243.6,359z M246.8,362.7
		c0,1.3,0.6,2,1.7,2c0.7,0,1.3-0.1,1.7-0.3l-0.3-1.1c-0.4,0.1-0.7,0.2-1,0.2c-0.4,0-0.6-0.2-0.6-0.7v-10.3h-1.6V362.7L246.8,362.7z
		 M251.2,362.7c0,1.3,0.6,2,1.7,2c0.7,0,1.3-0.1,1.7-0.3l-0.3-1.1c-0.4,0.1-0.7,0.2-1,0.2c-0.4,0-0.6-0.2-0.6-0.7v-10.3h-1.6V362.7
		L251.2,362.7z M262.3,364.4c0.5-0.2,0.8-0.4,1.1-0.6c0.3,0.6,0.7,0.9,1.3,0.9c0.6,0,1.1-0.1,1.5-0.4l-0.3-1
		c-0.3,0.1-0.6,0.2-0.8,0.2c-0.3,0-0.4-0.2-0.4-0.6v-4.2c0-1.1-0.2-1.9-0.7-2.4c-0.5-0.5-1.2-0.7-2.4-0.7c-0.4,0-0.9,0.1-1.4,0.2
		c-0.5,0.1-1,0.3-1.3,0.5l0.4,1.1c0.9-0.3,1.6-0.5,2.3-0.5c0.6,0,1.1,0.1,1.3,0.4c0.2,0.2,0.3,0.7,0.3,1.4v1.3
		c-0.6-0.1-1.2-0.1-1.8-0.1c-0.7,0-1.3,0.1-1.9,0.4c-0.3,0.2-0.6,0.4-0.8,0.7c-0.2,0.3-0.3,0.7-0.3,1.2c0,0.7,0.2,1.3,0.7,1.8
		c0.4,0.4,1,0.7,1.8,0.7C261.4,364.7,261.9,364.6,262.3,364.4L262.3,364.4z M259.9,362.1c0-0.9,0.7-1.3,2-1.3c0.6,0,1.1,0,1.3,0.1v2
		c-0.6,0.4-1.3,0.6-2,0.6C260.3,363.5,259.9,363,259.9,362.1L259.9,362.1L259.9,362.1z M266.7,364.1c0.2,0.2,0.6,0.3,1.1,0.4
		c0.5,0.1,1,0.2,1.5,0.2c1,0,1.8-0.3,2.4-0.8c0.6-0.5,0.8-1.2,0.8-1.9c0-0.5-0.1-0.9-0.4-1.3c-0.3-0.3-0.6-0.6-1-0.8
		c-0.4-0.2-0.8-0.3-1.2-0.5c-0.4-0.1-0.8-0.3-1-0.6c-0.3-0.2-0.4-0.5-0.4-0.9s0.1-0.6,0.4-0.8c0.3-0.2,0.7-0.3,1.3-0.3
		c0.6,0,1.2,0.1,1.8,0.3l0.4-1.2c-0.6-0.3-1.3-0.5-2.3-0.5c-0.9,0-1.7,0.2-2.2,0.7c-0.6,0.5-0.8,1.1-0.8,1.9c0,0.5,0.1,1,0.4,1.3
		c0.3,0.4,0.6,0.6,1,0.8c0.4,0.2,0.8,0.3,1.2,0.5c0.4,0.1,0.7,0.3,1,0.6c0.3,0.2,0.4,0.5,0.4,0.9c0,0.4-0.1,0.6-0.4,0.9
		c-0.3,0.2-0.8,0.4-1.4,0.4c-0.6,0-1.3-0.2-2.1-0.5L266.7,364.1L266.7,364.1z M282,364.4l-0.3-1.2c-0.4,0.1-0.7,0.2-1.1,0.2
		c-0.4,0-0.6,0-0.7-0.1c-0.1-0.1-0.2-0.2-0.2-0.3c0-0.1,0-0.3,0-0.5V357h2.4l0.2-1.2h-2.5v-2.3l-1.4,0.3l-0.2,2.1l-1.6,0.1l-0.2,1
		l1.7,0.1v5.2c0,0.9,0.1,1.5,0.4,1.9c0.3,0.4,0.9,0.6,1.8,0.6C280.9,364.7,281.5,364.6,282,364.4L282,364.4L282,364.4z M286.3,355.9
		c-0.5,0.2-0.9,0.5-1.3,0.8v-4.5l-1.6,0.1v12h1.6v-6.4c0.3-0.3,0.7-0.6,1.1-0.8c0.5-0.2,0.9-0.3,1.3-0.3s0.7,0.1,0.8,0.4
		c0.1,0.3,0.2,0.7,0.2,1.2v5.9h1.6v-6c0-0.9-0.2-1.6-0.5-2.1c-0.3-0.5-0.9-0.8-1.8-0.8C287.3,355.6,286.8,355.7,286.3,355.9
		L286.3,355.9z M298.3,364l-0.4-1.1c-0.7,0.3-1.5,0.5-2.3,0.5c-0.8,0-1.4-0.3-1.8-0.9c-0.4-0.6-0.6-1.4-0.6-2.4h5.1
		c0.2-0.6,0.3-1.1,0.3-1.5c0-0.9-0.3-1.6-0.8-2.2c-0.5-0.5-1.3-0.8-2.2-0.8c-1.2,0-2.1,0.4-2.7,1.2c-0.7,0.8-1,1.9-1,3.2
		c0,1.3,0.3,2.4,0.9,3.3c0.6,0.9,1.6,1.3,2.9,1.3C296.6,364.7,297.5,364.5,298.3,364L298.3,364L298.3,364z M297.1,359l-3.7,0
		c0.1-0.4,0.2-0.8,0.5-1.3c0.2-0.2,0.4-0.4,0.7-0.6c0.3-0.2,0.7-0.2,1.1-0.2c0.4,0,0.8,0.2,1,0.5c0.3,0.4,0.4,0.8,0.4,1.5V359
		L297.1,359z M310.5,360.1c0-1.6-0.3-2.7-1-3.5c-0.6-0.7-1.5-1.1-2.6-1.1s-2,0.4-2.6,1.1c-0.7,0.7-1,1.9-1,3.5c0,1.6,0.3,2.7,1,3.5
		c0.6,0.7,1.5,1.1,2.6,1.1c1.1,0,2-0.4,2.6-1.1C310.2,362.9,310.5,361.7,310.5,360.1L310.5,360.1z M308.4,357.6
		c0.3,0.5,0.5,1.3,0.5,2.5c0,1.2-0.2,2.1-0.6,2.6c-0.4,0.5-0.9,0.8-1.4,0.8c-1.3,0-2-1.1-2-3.3c0-2.2,0.7-3.3,2-3.3
		C307.6,356.9,308.1,357.1,308.4,357.6L308.4,357.6z M318.4,356.4c-0.3-0.5-0.9-0.8-1.8-0.8c-0.5,0-1,0.1-1.6,0.4
		c-0.5,0.3-1,0.5-1.3,0.8l-0.2-1h-1.3v8.7h1.5v-6.4c0.3-0.3,0.7-0.6,1.1-0.8c0.5-0.2,0.9-0.3,1.4-0.3c0.4,0,0.7,0.1,0.8,0.4
		c0.1,0.3,0.2,0.7,0.2,1.2v5.9h1.5v-6C318.9,357.6,318.8,356.9,318.4,356.4L318.4,356.4z M327.1,364l-0.4-1.1
		c-0.7,0.3-1.5,0.5-2.3,0.5c-0.8,0-1.4-0.3-1.8-0.9c-0.4-0.6-0.6-1.4-0.6-2.4h5.1c0.2-0.6,0.3-1.1,0.3-1.5c0-0.9-0.3-1.6-0.8-2.2
		c-0.5-0.5-1.3-0.8-2.2-0.8c-1.2,0-2.1,0.4-2.7,1.2c-0.7,0.8-1,1.9-1,3.2c0,1.3,0.3,2.4,0.9,3.3c0.6,0.9,1.6,1.3,2.9,1.3
		C325.4,364.7,326.3,364.5,327.1,364L327.1,364L327.1,364z M325.9,359l-3.7,0c0.1-0.4,0.2-0.8,0.5-1.3c0.2-0.2,0.4-0.4,0.7-0.6
		s0.7-0.2,1.1-0.2c0.4,0,0.8,0.2,1,0.5c0.3,0.4,0.4,0.8,0.4,1.5V359L325.9,359z M328.5,364.1c0.2,0.2,0.6,0.3,1.1,0.4
		c0.5,0.1,1,0.2,1.5,0.2c1,0,1.8-0.3,2.4-0.8c0.6-0.5,0.8-1.2,0.8-1.9c0-0.5-0.1-0.9-0.4-1.3c-0.3-0.3-0.6-0.6-1-0.8
		c-0.4-0.2-0.8-0.3-1.2-0.5c-0.4-0.1-0.8-0.3-1-0.6c-0.3-0.2-0.4-0.5-0.4-0.9s0.1-0.6,0.4-0.8c0.3-0.2,0.7-0.3,1.3-0.3
		c0.6,0,1.2,0.1,1.8,0.3l0.4-1.2c-0.6-0.3-1.3-0.5-2.3-0.5c-0.9,0-1.7,0.2-2.2,0.7c-0.6,0.5-0.8,1.1-0.8,1.9c0,0.5,0.1,1,0.4,1.3
		c0.3,0.4,0.6,0.6,1,0.8c0.4,0.2,0.8,0.3,1.2,0.5c0.4,0.1,0.7,0.3,1,0.6c0.3,0.2,0.4,0.5,0.4,0.9c0,0.4-0.1,0.6-0.4,0.9
		c-0.3,0.2-0.8,0.4-1.4,0.4c-0.6,0-1.3-0.2-2.1-0.5L328.5,364.1L328.5,364.1z"/>
	<path d="M62.9,337.6h1.7l-3.8-11.5h-1.8l-3.8,11.5h1.7l1-3h4L62.9,337.6L62.9,337.6z M58.2,333.3l1.6-5.7l1.7,5.7H58.2L58.2,333.3z
		 M65.3,337.2c0.2,0.2,0.6,0.3,1.1,0.4c0.5,0.1,1,0.2,1.5,0.2c1,0,1.8-0.3,2.4-0.8c0.6-0.5,0.8-1.2,0.8-1.9c0-0.5-0.1-0.9-0.4-1.3
		c-0.3-0.3-0.6-0.6-1-0.8c-0.4-0.2-0.8-0.3-1.2-0.5c-0.4-0.1-0.8-0.3-1-0.6c-0.3-0.2-0.4-0.5-0.4-0.9c0-0.3,0.1-0.6,0.4-0.8
		c0.3-0.2,0.7-0.3,1.3-0.3c0.6,0,1.2,0.1,1.8,0.3l0.4-1.2c-0.6-0.3-1.3-0.5-2.3-0.5c-0.9,0-1.7,0.2-2.2,0.7
		c-0.6,0.5-0.8,1.1-0.8,1.9c0,0.5,0.1,1,0.4,1.3c0.3,0.3,0.6,0.6,1,0.8c0.4,0.2,0.8,0.3,1.2,0.5c0.4,0.1,0.7,0.3,1,0.6
		c0.3,0.2,0.4,0.5,0.4,0.9c0,0.4-0.1,0.6-0.4,0.9c-0.3,0.2-0.8,0.4-1.4,0.4c-0.6,0-1.3-0.2-2.1-0.5L65.3,337.2L65.3,337.2z
		 M79.9,337.6c0.5-0.2,0.8-0.4,1.1-0.6c0.3,0.6,0.7,0.9,1.3,0.9c0.6,0,1.1-0.1,1.5-0.4l-0.3-1c-0.3,0.1-0.6,0.2-0.8,0.2
		c-0.3,0-0.4-0.2-0.4-0.6v-4.2c0-1.1-0.2-1.9-0.7-2.4c-0.5-0.5-1.2-0.7-2.4-0.7c-0.4,0-0.9,0.1-1.4,0.2c-0.5,0.1-1,0.3-1.3,0.5
		l0.4,1.1c0.9-0.3,1.6-0.5,2.3-0.5c0.6,0,1.1,0.1,1.3,0.4c0.2,0.2,0.3,0.7,0.3,1.4v1.3c-0.6-0.1-1.2-0.1-1.8-0.1
		c-0.7,0-1.3,0.1-1.9,0.4c-0.3,0.2-0.6,0.4-0.8,0.7c-0.2,0.3-0.3,0.7-0.3,1.2c0,0.7,0.2,1.3,0.7,1.8c0.4,0.4,1,0.7,1.8,0.7
		C78.9,337.8,79.4,337.7,79.9,337.6L79.9,337.6z M77.4,335.3c0-0.9,0.7-1.3,2-1.3c0.6,0,1.1,0,1.3,0.1v2c-0.6,0.4-1.3,0.6-2,0.6
		C77.9,336.6,77.4,336.1,77.4,335.3L77.4,335.3L77.4,335.3z M90.1,331.4c0.5-0.9,1.3-1.4,2.6-1.4c0.2,0,0.3,0,0.4,0l0.3-1.2
		c-0.2-0.1-0.4-0.1-0.8-0.1c-0.6,0-1.2,0.2-1.6,0.5c-0.5,0.3-0.8,0.6-1,1l-0.2-1.3h-1.3v8.7h1.5V331.4L90.1,331.4z M100.5,337.1
		l-0.4-1.1c-0.7,0.3-1.5,0.5-2.3,0.5c-0.8,0-1.4-0.3-1.8-0.9c-0.4-0.6-0.6-1.4-0.6-2.4h5.1c0.2-0.6,0.3-1.1,0.3-1.5
		c0-0.9-0.3-1.6-0.8-2.2c-0.5-0.5-1.3-0.8-2.2-0.8c-1.2,0-2.1,0.4-2.7,1.2c-0.7,0.8-1,1.9-1,3.2c0,1.3,0.3,2.4,0.9,3.3
		c0.6,0.9,1.6,1.3,2.9,1.3C98.7,337.8,99.6,337.6,100.5,337.1L100.5,337.1L100.5,337.1z M99.3,332.1l-3.7,0c0.1-0.4,0.2-0.8,0.5-1.3
		c0.2-0.2,0.4-0.4,0.7-0.6c0.3-0.2,0.7-0.2,1.1-0.2c0.4,0,0.8,0.2,1.1,0.5c0.3,0.4,0.4,0.8,0.4,1.5V332.1L99.3,332.1z M103.4,328.9
		l-1.4,0.1l-0.2,1l1.6,0.1v10.5l1.6,0.2v-10.7h2.2l0.2-1.2h-2.4v-0.7c0-0.6,0.1-1.1,0.3-1.3c0.2-0.2,0.7-0.4,1.3-0.4
		c0.7,0,1.2,0.1,1.7,0.2l0.3-1.2c-0.7-0.2-1.4-0.3-2.1-0.3c-1.2,0-2,0.2-2.5,0.7c-0.5,0.5-0.7,1.3-0.7,2.4V328.9L103.4,328.9z
		 M114.5,337.1l-0.4-1.1c-0.7,0.3-1.5,0.5-2.3,0.5c-0.8,0-1.4-0.3-1.8-0.9c-0.4-0.6-0.6-1.4-0.6-2.4h5.1c0.2-0.6,0.3-1.1,0.3-1.5
		c0-0.9-0.3-1.6-0.8-2.2c-0.5-0.5-1.3-0.8-2.2-0.8c-1.2,0-2.1,0.4-2.7,1.2c-0.7,0.8-1,1.9-1,3.2c0,1.3,0.3,2.4,0.9,3.3
		c0.6,0.9,1.6,1.3,2.9,1.3C112.8,337.8,113.7,337.6,114.5,337.1L114.5,337.1L114.5,337.1z M113.3,332.1l-3.7,0
		c0.1-0.4,0.2-0.8,0.5-1.3c0.2-0.2,0.4-0.4,0.7-0.6c0.3-0.2,0.7-0.2,1.1-0.2s0.8,0.2,1.1,0.5c0.3,0.4,0.4,0.8,0.4,1.5V332.1
		L113.3,332.1z M118.2,331.4c0.5-0.9,1.3-1.4,2.6-1.4c0.2,0,0.3,0,0.4,0l0.3-1.2c-0.2-0.1-0.4-0.1-0.8-0.1c-0.6,0-1.2,0.2-1.6,0.5
		c-0.5,0.3-0.8,0.6-1,1l-0.2-1.3h-1.3v8.7h1.5V331.4L118.2,331.4z M128.5,337.1l-0.4-1.1c-0.7,0.3-1.5,0.5-2.3,0.5
		c-0.8,0-1.4-0.3-1.8-0.9c-0.4-0.6-0.6-1.4-0.6-2.4h5.1c0.2-0.6,0.3-1.1,0.3-1.5c0-0.9-0.3-1.6-0.8-2.2c-0.5-0.5-1.3-0.8-2.2-0.8
		c-1.2,0-2.1,0.4-2.7,1.2c-0.7,0.8-1,1.9-1,3.2c0,1.3,0.3,2.4,0.9,3.3c0.6,0.9,1.6,1.3,2.9,1.3C126.8,337.8,127.7,337.6,128.5,337.1
		L128.5,337.1L128.5,337.1z M127.4,332.1l-3.7,0c0.1-0.4,0.2-0.8,0.5-1.3c0.2-0.2,0.4-0.4,0.7-0.6c0.3-0.2,0.7-0.2,1.1-0.2
		c0.4,0,0.8,0.2,1.1,0.5c0.3,0.4,0.4,0.8,0.4,1.5V332.1L127.4,332.1z M136.8,329.5c-0.3-0.5-0.9-0.8-1.8-0.8c-0.5,0-1,0.1-1.6,0.4
		c-0.5,0.3-1,0.5-1.3,0.8l-0.2-1h-1.3v8.7h1.6v-6.4c0.3-0.3,0.7-0.6,1.1-0.8c0.5-0.2,0.9-0.3,1.4-0.3c0.4,0,0.7,0.1,0.8,0.4
		c0.1,0.3,0.2,0.7,0.2,1.2v5.9h1.6v-6C137.3,330.7,137.1,330,136.8,329.5L136.8,329.5z M145.3,337.4l-0.3-1.1
		c-0.6,0.1-1.1,0.2-1.6,0.2c-1.8,0-2.7-1.1-2.7-3.3c0-1.1,0.2-2,0.7-2.5c0.5-0.5,1-0.8,1.7-0.8c0.5,0,1,0.1,1.6,0.3l0.5-1.1
		c-0.6-0.3-1.4-0.5-2.1-0.5c-1.1,0-2,0.4-2.8,1.1c-0.8,0.8-1.1,1.9-1.1,3.4c0,1.5,0.4,2.7,1.1,3.4c0.8,0.8,1.7,1.1,2.9,1.1
		C143.8,337.9,144.5,337.7,145.3,337.4L145.3,337.4L145.3,337.4z M152.9,337.1l-0.4-1.1c-0.7,0.3-1.5,0.5-2.3,0.5
		c-0.8,0-1.4-0.3-1.8-0.9c-0.4-0.6-0.6-1.4-0.6-2.4h5.1c0.2-0.6,0.3-1.1,0.3-1.5c0-0.9-0.3-1.6-0.8-2.2c-0.5-0.5-1.3-0.8-2.2-0.8
		c-1.2,0-2.1,0.4-2.7,1.2c-0.7,0.8-1,1.9-1,3.2c0,1.3,0.3,2.4,0.9,3.3c0.6,0.9,1.6,1.3,2.9,1.3C151.1,337.8,152,337.6,152.9,337.1
		L152.9,337.1L152.9,337.1z M151.7,332.1l-3.7,0c0.1-0.4,0.2-0.8,0.5-1.3c0.2-0.2,0.4-0.4,0.7-0.6s0.7-0.2,1.1-0.2
		c0.4,0,0.8,0.2,1.1,0.5c0.3,0.4,0.4,0.8,0.4,1.5V332.1L151.7,332.1z M156.4,335.6h-1.6c0.2,0.4,0.3,0.9,0.3,1.2
		c0,0.9-0.5,1.9-1.4,3h1.4c1-0.9,1.5-2,1.5-3.2C156.6,336.2,156.5,335.9,156.4,335.6L156.4,335.6L156.4,335.6z M162.5,326.1v11.5
		h1.7v-11.5H162.5L162.5,326.1z M174.8,337.5l-0.3-1.2c-0.4,0.1-0.7,0.2-1.1,0.2c-0.4,0-0.6,0-0.7-0.1c-0.1-0.1-0.2-0.2-0.2-0.3
		c0-0.1,0-0.3,0-0.5v-5.4h2.4l0.2-1.2h-2.5v-2.3l-1.4,0.3l-0.2,2.1l-1.6,0.1l-0.2,1l1.7,0.1v5.2c0,0.9,0.1,1.5,0.4,1.9
		c0.3,0.4,0.9,0.6,1.8,0.6C173.7,337.8,174.2,337.7,174.8,337.5L174.8,337.5L174.8,337.5z M183.2,333.2c0-1.6-0.3-2.7-1-3.5
		c-0.6-0.7-1.5-1.1-2.6-1.1c-1.1,0-2,0.4-2.6,1.1c-0.7,0.7-1,1.9-1,3.5c0,1.6,0.3,2.7,1,3.5c0.6,0.7,1.5,1.1,2.6,1.1
		c1.1,0,2-0.4,2.6-1.1C182.8,336,183.2,334.8,183.2,333.2L183.2,333.2z M181.1,330.7c0.3,0.5,0.5,1.3,0.5,2.5c0,1.2-0.2,2.1-0.6,2.6
		c-0.4,0.5-0.9,0.8-1.4,0.8c-1.3,0-2-1.1-2-3.3c0-2.2,0.7-3.3,2-3.3C180.2,330,180.7,330.2,181.1,330.7L181.1,330.7z M191.9,333.2
		c0-1.6-0.3-2.7-1-3.5c-0.6-0.7-1.5-1.1-2.6-1.1c-1.1,0-2,0.4-2.6,1.1c-0.7,0.7-1,1.9-1,3.5c0,1.6,0.3,2.7,1,3.5
		c0.6,0.7,1.5,1.1,2.6,1.1s2-0.4,2.6-1.1C191.6,336,191.9,334.8,191.9,333.2L191.9,333.2z M189.8,330.7c0.3,0.5,0.5,1.3,0.5,2.5
		c0,1.2-0.2,2.1-0.6,2.6c-0.4,0.5-0.9,0.8-1.4,0.8c-1.3,0-2-1.1-2-3.3c0-2.2,0.7-3.3,2-3.3C189,330,189.5,330.2,189.8,330.7
		L189.8,330.7z M195.4,332.9l3.8,4.7h1.9c-0.4-0.5-1.1-1.3-2-2.4c-0.9-1.1-1.6-1.9-2-2.4l3.5-3.8h-1.9l-3.3,3.8v-7.4l-1.6,0.1v12.1
		h1.6V332.9L195.4,332.9z M210.5,337.5l-0.3-1.2c-0.4,0.1-0.7,0.2-1.1,0.2c-0.4,0-0.6,0-0.7-0.1c-0.1-0.1-0.2-0.2-0.2-0.3
		c0-0.1,0-0.3,0-0.5v-5.4h2.4l0.2-1.2h-2.5v-2.3l-1.4,0.3l-0.2,2.1l-1.6,0.1l-0.2,1l1.7,0.1v5.2c0,0.9,0.1,1.5,0.4,1.9
		c0.3,0.4,0.9,0.6,1.8,0.6C209.4,337.8,210,337.7,210.5,337.5L210.5,337.5L210.5,337.5z M215,329.1c-0.5,0.2-0.9,0.5-1.3,0.8v-4.5
		l-1.6,0.1v12h1.6v-6.4c0.3-0.3,0.7-0.6,1.1-0.8c0.5-0.2,0.9-0.3,1.3-0.3s0.7,0.1,0.8,0.4c0.1,0.3,0.2,0.7,0.2,1.2v5.9h1.6v-6
		c0-0.9-0.2-1.6-0.5-2.1c-0.3-0.5-0.9-0.8-1.8-0.8C216,328.7,215.5,328.8,215,329.1L215,329.1z M227.2,337.1l-0.4-1.1
		c-0.7,0.3-1.5,0.5-2.3,0.5s-1.4-0.3-1.8-0.9c-0.4-0.6-0.6-1.4-0.6-2.4h5.1c0.2-0.6,0.3-1.1,0.3-1.5c0-0.9-0.3-1.6-0.8-2.2
		c-0.5-0.5-1.3-0.8-2.2-0.8c-1.2,0-2.1,0.4-2.7,1.2c-0.7,0.8-1,1.9-1,3.2c0,1.3,0.3,2.4,0.9,3.3c0.6,0.9,1.6,1.3,2.9,1.3
		C225.5,337.8,226.4,337.6,227.2,337.1L227.2,337.1L227.2,337.1z M226,332.1l-3.7,0c0.1-0.4,0.2-0.8,0.5-1.3
		c0.2-0.2,0.4-0.4,0.7-0.6c0.3-0.2,0.7-0.2,1.1-0.2c0.4,0,0.8,0.2,1.1,0.5c0.3,0.4,0.4,0.8,0.4,1.5V332.1L226,332.1z M233.4,328.9
		L232,329l-0.2,1l1.6,0.1v10.5l1.6,0.2v-10.7h2.2l0.2-1.2H235v-0.7c0-0.6,0.1-1.1,0.3-1.3c0.2-0.2,0.7-0.4,1.3-0.4
		c0.7,0,1.2,0.1,1.7,0.2l0.3-1.2c-0.7-0.2-1.4-0.3-2.1-0.3c-1.2,0-2,0.2-2.5,0.7c-0.5,0.5-0.7,1.3-0.7,2.4V328.9L233.4,328.9z
		 M245.3,333.2c0-1.6-0.3-2.7-1-3.5c-0.6-0.7-1.5-1.1-2.6-1.1c-1.1,0-2,0.4-2.6,1.1c-0.7,0.7-1,1.9-1,3.5c0,1.6,0.3,2.7,1,3.5
		c0.6,0.7,1.5,1.1,2.6,1.1c1.1,0,2-0.4,2.6-1.1C245,336,245.3,334.8,245.3,333.2L245.3,333.2z M243.2,330.7c0.3,0.5,0.5,1.3,0.5,2.5
		c0,1.2-0.2,2.1-0.6,2.6c-0.4,0.5-0.9,0.8-1.4,0.8c-1.3,0-2-1.1-2-3.3c0-2.2,0.7-3.3,2-3.3C242.4,330,242.9,330.2,243.2,330.7
		L243.2,330.7z M253.4,329.5c-0.3-0.5-0.9-0.8-1.8-0.8c-0.5,0-1,0.1-1.6,0.4c-0.5,0.3-1,0.5-1.3,0.8l-0.2-1h-1.3v8.7h1.6v-6.4
		c0.3-0.3,0.7-0.6,1.1-0.8c0.5-0.2,0.9-0.3,1.4-0.3c0.4,0,0.7,0.1,0.8,0.4c0.1,0.3,0.2,0.7,0.2,1.2v5.9h1.6v-6
		C253.9,330.7,253.7,330,253.4,329.5L253.4,329.5z M260.9,337.5l-0.3-1.2c-0.4,0.1-0.7,0.2-1.1,0.2c-0.4,0-0.6,0-0.7-0.1
		c-0.1-0.1-0.2-0.2-0.2-0.3c0-0.1,0-0.3,0-0.5v-5.4h2.4l0.2-1.2h-2.5v-2.3l-1.4,0.3l-0.2,2.1l-1.6,0.1l-0.2,1l1.7,0.1v5.2
		c0,0.9,0.1,1.5,0.4,1.9c0.3,0.4,0.9,0.6,1.8,0.6C259.8,337.8,260.4,337.7,260.9,337.5L260.9,337.5L260.9,337.5z M262,337.2
		c0.2,0.2,0.6,0.3,1.1,0.4c0.5,0.1,1,0.2,1.5,0.2c1,0,1.8-0.3,2.4-0.8c0.6-0.5,0.8-1.2,0.8-1.9c0-0.5-0.1-0.9-0.4-1.3
		c-0.3-0.3-0.6-0.6-1-0.8c-0.4-0.2-0.8-0.3-1.2-0.5c-0.4-0.1-0.8-0.3-1-0.6c-0.3-0.2-0.4-0.5-0.4-0.9c0-0.3,0.1-0.6,0.4-0.8
		c0.3-0.2,0.7-0.3,1.3-0.3c0.6,0,1.2,0.1,1.8,0.3l0.4-1.2c-0.6-0.3-1.3-0.5-2.3-0.5s-1.7,0.2-2.2,0.7c-0.6,0.5-0.8,1.1-0.8,1.9
		c0,0.5,0.1,1,0.4,1.3c0.3,0.3,0.6,0.6,1,0.8c0.4,0.2,0.8,0.3,1.2,0.5c0.4,0.1,0.7,0.3,1,0.6c0.3,0.2,0.4,0.5,0.4,0.9
		c0,0.4-0.1,0.6-0.4,0.9c-0.3,0.2-0.8,0.4-1.4,0.4c-0.6,0-1.3-0.2-2.1-0.5L262,337.2L262,337.2z M277.7,337.5l-0.3-1.2
		c-0.4,0.1-0.7,0.2-1.1,0.2c-0.4,0-0.6,0-0.7-0.1c-0.1-0.1-0.2-0.2-0.2-0.3c0-0.1,0-0.3,0-0.5v-5.4h2.4l0.2-1.2h-2.5v-2.3l-1.4,0.3
		l-0.2,2.1l-1.6,0.1l-0.2,1l1.7,0.1v5.2c0,0.9,0.1,1.5,0.4,1.9c0.3,0.4,0.9,0.6,1.8,0.6C276.6,337.8,277.2,337.7,277.7,337.5
		L277.7,337.5L277.7,337.5z M282.2,329.1c-0.5,0.2-0.9,0.5-1.3,0.8v-4.5l-1.6,0.1v12h1.6v-6.4c0.3-0.3,0.7-0.6,1.1-0.8
		c0.5-0.2,0.9-0.3,1.3-0.3s0.7,0.1,0.8,0.4c0.1,0.3,0.2,0.7,0.2,1.2v5.9h1.6v-6c0-0.9-0.2-1.6-0.5-2.1c-0.3-0.5-0.9-0.8-1.8-0.8
		C283.2,328.7,282.7,328.8,282.2,329.1L282.2,329.1z M291.6,337.6c0.5-0.2,0.8-0.4,1.1-0.6c0.3,0.6,0.7,0.9,1.3,0.9
		c0.6,0,1.1-0.1,1.5-0.4l-0.3-1c-0.3,0.1-0.6,0.2-0.8,0.2c-0.3,0-0.4-0.2-0.4-0.6v-4.2c0-1.1-0.2-1.9-0.7-2.4
		c-0.5-0.5-1.2-0.7-2.4-0.7c-0.4,0-0.9,0.1-1.4,0.2c-0.5,0.1-1,0.3-1.3,0.5l0.4,1.1c0.9-0.3,1.6-0.5,2.3-0.5c0.6,0,1.1,0.1,1.3,0.4
		c0.2,0.2,0.3,0.7,0.3,1.4v1.3c-0.6-0.1-1.2-0.1-1.8-0.1c-0.7,0-1.3,0.1-1.9,0.4c-0.3,0.2-0.6,0.4-0.8,0.7c-0.2,0.3-0.3,0.7-0.3,1.2
		c0,0.7,0.2,1.3,0.7,1.8c0.4,0.4,1,0.7,1.8,0.7C290.6,337.8,291.1,337.7,291.6,337.6L291.6,337.6z M289.1,335.3c0-0.9,0.7-1.3,2-1.3
		c0.6,0,1.1,0,1.3,0.1v2c-0.6,0.4-1.3,0.6-2,0.6C289.6,336.6,289.1,336.1,289.1,335.3L289.1,335.3L289.1,335.3z M301.3,337.5
		l-0.3-1.2c-0.4,0.1-0.7,0.2-1.1,0.2c-0.4,0-0.6,0-0.7-0.1c-0.1-0.1-0.2-0.2-0.2-0.3c0-0.1,0-0.3,0-0.5v-5.4h2.4l0.2-1.2H299v-2.3
		l-1.4,0.3l-0.2,2.1l-1.6,0.1l-0.2,1l1.7,0.1v5.2c0,0.9,0.1,1.5,0.4,1.9c0.3,0.4,0.9,0.6,1.8,0.6
		C300.2,337.8,300.8,337.7,301.3,337.5L301.3,337.5L301.3,337.5z"/>
	<path d="M57.8,301.9l-1.6,0.2v8.6h1.6V301.9L57.8,301.9z M56.2,300.2c0.2,0.2,0.5,0.3,0.7,0.3c0.3,0,0.5-0.1,0.7-0.3
		c0.2-0.2,0.3-0.5,0.3-0.7c0-0.3-0.1-0.5-0.3-0.7c-0.2-0.2-0.4-0.3-0.7-0.3c-0.3,0-0.5,0.1-0.7,0.3c-0.2,0.2-0.3,0.4-0.3,0.7
		C55.9,299.7,56,300,56.2,300.2L56.2,300.2z M64.8,310.6l-0.3-1.2c-0.4,0.1-0.7,0.2-1.1,0.2c-0.4,0-0.6,0-0.7-0.1
		c-0.1-0.1-0.2-0.2-0.2-0.3c0-0.1,0-0.3,0-0.5v-5.4h2.4L65,302h-2.5v-2.3l-1.4,0.3l-0.2,2.1l-1.6,0.1l-0.2,1l1.7,0.1v5.2
		c0,0.9,0.1,1.5,0.4,1.9c0.3,0.4,0.9,0.6,1.8,0.6C63.7,310.9,64.3,310.8,64.8,310.6L64.8,310.6L64.8,310.6z M76.2,310.7h1.6L80,302
		h-1.5l-1.5,7l-1.7-7l-1.4,0.1l-1.7,6.9l-1.5-7H69l2.3,8.7h1.6l1.7-6.8L76.2,310.7L76.2,310.7z M84.8,310.7c0.5-0.2,0.8-0.4,1.1-0.6
		c0.3,0.6,0.7,0.9,1.3,0.9c0.6,0,1.1-0.1,1.5-0.4l-0.3-1c-0.3,0.1-0.6,0.2-0.8,0.2c-0.3,0-0.4-0.2-0.4-0.6V305
		c0-1.1-0.2-1.9-0.7-2.4c-0.5-0.5-1.2-0.7-2.4-0.7c-0.4,0-0.9,0.1-1.4,0.2c-0.5,0.1-1,0.3-1.3,0.5l0.4,1.1c0.9-0.3,1.6-0.5,2.3-0.5
		c0.6,0,1.1,0.1,1.3,0.4c0.2,0.2,0.3,0.7,0.3,1.4v1.3c-0.6-0.1-1.2-0.1-1.8-0.1c-0.7,0-1.3,0.1-1.9,0.4c-0.3,0.2-0.6,0.4-0.8,0.7
		c-0.2,0.3-0.3,0.7-0.3,1.2c0,0.7,0.2,1.3,0.7,1.8c0.4,0.4,1,0.7,1.8,0.7C83.9,310.9,84.4,310.9,84.8,310.7L84.8,310.7z M82.4,308.4
		c0-0.9,0.7-1.3,2-1.3c0.6,0,1.1,0,1.3,0.1v2c-0.6,0.4-1.3,0.6-2,0.6C82.9,309.7,82.4,309.3,82.4,308.4L82.4,308.4L82.4,308.4z
		 M89.4,310.3c0.2,0.2,0.6,0.3,1.1,0.4c0.5,0.1,1,0.2,1.5,0.2c1,0,1.8-0.3,2.4-0.8c0.6-0.5,0.8-1.2,0.8-1.9c0-0.5-0.1-0.9-0.4-1.3
		c-0.3-0.3-0.6-0.6-1-0.8c-0.4-0.2-0.8-0.3-1.2-0.5c-0.4-0.1-0.8-0.3-1-0.6c-0.3-0.2-0.4-0.5-0.4-0.9s0.1-0.6,0.4-0.8
		c0.3-0.2,0.7-0.3,1.3-0.3c0.6,0,1.2,0.1,1.8,0.3l0.4-1.2c-0.6-0.3-1.3-0.5-2.3-0.5c-0.9,0-1.7,0.2-2.2,0.7
		c-0.6,0.5-0.8,1.1-0.8,1.9c0,0.5,0.1,1,0.4,1.3c0.3,0.4,0.6,0.6,1,0.8c0.4,0.2,0.8,0.3,1.2,0.5c0.4,0.1,0.7,0.3,1,0.6
		c0.3,0.2,0.4,0.5,0.4,0.9c0,0.4-0.1,0.6-0.4,0.9c-0.3,0.2-0.8,0.4-1.4,0.4c-0.6,0-1.3-0.2-2.1-0.5L89.4,310.3L89.4,310.3z
		 M105.1,310.6l-0.3-1.2c-0.4,0.1-0.7,0.2-1.1,0.2c-0.4,0-0.6,0-0.7-0.1c-0.1-0.1-0.2-0.2-0.2-0.3c0-0.1,0-0.3,0-0.5v-5.4h2.4
		l0.2-1.2h-2.5v-2.3l-1.4,0.3l-0.2,2.1l-1.6,0.1l-0.2,1l1.7,0.1v5.2c0,0.9,0.1,1.5,0.4,1.9c0.3,0.4,0.9,0.6,1.8,0.6
		C104,310.9,104.5,310.8,105.1,310.6L105.1,310.6L105.1,310.6z M109.5,302.2c-0.5,0.2-0.9,0.5-1.3,0.8v-4.5l-1.6,0.1v12h1.6v-6.4
		c0.3-0.3,0.7-0.6,1.1-0.8c0.5-0.2,0.9-0.3,1.3-0.3c0.4,0,0.7,0.1,0.8,0.4c0.1,0.3,0.2,0.7,0.2,1.2v5.9h1.5v-6
		c0-0.9-0.2-1.6-0.5-2.1c-0.3-0.5-0.9-0.8-1.8-0.8C110.5,301.8,110,301.9,109.5,302.2L109.5,302.2z M121.7,310.2l-0.4-1.1
		c-0.7,0.3-1.5,0.5-2.3,0.5c-0.8,0-1.4-0.3-1.8-0.9c-0.4-0.6-0.6-1.4-0.6-2.4h5.1c0.2-0.6,0.3-1.1,0.3-1.5c0-0.9-0.3-1.6-0.8-2.2
		c-0.5-0.5-1.3-0.8-2.2-0.8c-1.2,0-2.1,0.4-2.7,1.2c-0.7,0.8-1,1.9-1,3.2c0,1.3,0.3,2.4,0.9,3.3c0.6,0.9,1.6,1.3,2.9,1.3
		C120,310.9,120.9,310.7,121.7,310.2L121.7,310.2L121.7,310.2z M120.5,305.2l-3.7,0c0.1-0.4,0.2-0.8,0.5-1.3
		c0.2-0.2,0.4-0.4,0.7-0.6c0.3-0.2,0.7-0.2,1.1-0.2s0.8,0.2,1.1,0.5c0.3,0.4,0.4,0.8,0.4,1.5V305.2L120.5,305.2z M133.3,310.7h1.6
		v-8.8l-1.6,0.1h-3.5v-0.7c0-0.6,0.1-1,0.4-1.3c0.3-0.3,0.7-0.4,1.2-0.4s1.2,0.1,2,0.2l0.3-1.3c-0.8-0.2-1.6-0.3-2.4-0.3
		c-2.1,0-3.2,1-3.2,3.1v0.6l-1.4,0.1l-0.2,1l1.6,0.1v10.5l1.6,0.2v-10.7h3.5V310.7L133.3,310.7z M138.8,304.5
		c0.5-0.9,1.3-1.4,2.6-1.4c0.2,0,0.3,0,0.4,0l0.3-1.2c-0.2-0.1-0.4-0.1-0.8-0.1c-0.6,0-1.2,0.2-1.6,0.5c-0.5,0.3-0.8,0.6-1,1
		l-0.2-1.3h-1.3v8.7h1.6V304.5L138.8,304.5z M142.8,310.3c0.2,0.2,0.6,0.3,1.1,0.4c0.5,0.1,1,0.2,1.5,0.2c1,0,1.8-0.3,2.4-0.8
		c0.6-0.5,0.8-1.2,0.8-1.9c0-0.5-0.1-0.9-0.4-1.3c-0.3-0.3-0.6-0.6-1-0.8c-0.4-0.2-0.8-0.3-1.2-0.5c-0.4-0.1-0.8-0.3-1-0.6
		c-0.3-0.2-0.4-0.5-0.4-0.9s0.1-0.6,0.4-0.8c0.3-0.2,0.7-0.3,1.3-0.3c0.6,0,1.2,0.1,1.8,0.3l0.4-1.2c-0.6-0.3-1.3-0.5-2.3-0.5
		c-0.9,0-1.7,0.2-2.2,0.7c-0.6,0.5-0.8,1.1-0.8,1.9c0,0.5,0.1,1,0.4,1.3c0.3,0.4,0.6,0.6,1,0.8c0.4,0.2,0.8,0.3,1.2,0.5
		c0.4,0.1,0.7,0.3,1,0.6c0.3,0.2,0.4,0.5,0.4,0.9c0,0.4-0.1,0.6-0.4,0.9c-0.3,0.2-0.8,0.4-1.4,0.4c-0.6,0-1.3-0.2-2.1-0.5
		L142.8,310.3L142.8,310.3z M155.1,310.6l-0.3-1.2c-0.4,0.1-0.7,0.2-1.1,0.2c-0.4,0-0.6,0-0.7-0.1c-0.1-0.1-0.2-0.2-0.2-0.3
		c0-0.1,0-0.3,0-0.5v-5.4h2.4l0.2-1.2h-2.5v-2.3l-1.4,0.3l-0.2,2.1l-1.6,0.1l-0.2,1l1.7,0.1v5.2c0,0.9,0.1,1.5,0.4,1.9
		c0.3,0.4,0.9,0.6,1.8,0.6C154,310.9,154.6,310.8,155.1,310.6L155.1,310.6L155.1,310.6z M160.9,302l-1.4,0.1l-0.2,1l1.6,0.1v10.5
		l1.6,0.2v-10.7h2.2l0.2-1.2h-2.4v-0.7c0-0.6,0.1-1.1,0.3-1.3c0.2-0.2,0.7-0.4,1.3-0.4c0.7,0,1.2,0.1,1.7,0.2l0.3-1.2
		c-0.7-0.2-1.4-0.3-2.1-0.3c-1.2,0-2,0.2-2.5,0.7c-0.5,0.5-0.7,1.3-0.7,2.4V302L160.9,302z M172.8,306.4c0-1.6-0.3-2.7-1-3.5
		c-0.6-0.7-1.5-1.1-2.6-1.1s-2,0.4-2.6,1.1c-0.7,0.7-1,1.9-1,3.5c0,1.6,0.3,2.7,1,3.5c0.6,0.7,1.5,1.1,2.6,1.1s2-0.4,2.6-1.1
		C172.5,309.1,172.8,307.9,172.8,306.4L172.8,306.4z M170.7,303.8c0.3,0.5,0.5,1.3,0.5,2.5s-0.2,2.1-0.6,2.6
		c-0.4,0.5-0.9,0.8-1.4,0.8c-1.3,0-2-1.1-2-3.3c0-2.2,0.7-3.3,2-3.3C169.9,303.1,170.4,303.3,170.7,303.8L170.7,303.8z M180.9,302.6
		c-0.3-0.5-0.9-0.8-1.8-0.8c-0.5,0-1,0.1-1.6,0.4c-0.5,0.3-1,0.5-1.3,0.8l-0.2-1.1h-1.3v8.7h1.5v-6.4c0.3-0.3,0.7-0.6,1.1-0.8
		c0.5-0.2,0.9-0.3,1.4-0.3c0.4,0,0.7,0.1,0.8,0.4c0.1,0.3,0.2,0.7,0.2,1.2v5.9h1.6v-6C181.4,303.8,181.2,303.1,180.9,302.6
		L180.9,302.6z M188.4,310.6l-0.3-1.2c-0.4,0.1-0.7,0.2-1.1,0.2c-0.4,0-0.6,0-0.7-0.1c-0.1-0.1-0.2-0.2-0.2-0.3c0-0.1,0-0.3,0-0.5
		v-5.4h2.4l0.2-1.2h-2.5v-2.3l-1.4,0.3l-0.2,2.1l-1.6,0.1l-0.2,1l1.7,0.1v5.2c0,0.9,0.1,1.5,0.4,1.9c0.3,0.4,0.9,0.6,1.8,0.6
		C187.3,310.9,187.9,310.8,188.4,310.6L188.4,310.6L188.4,310.6z M194.2,302l-1.4,0.1l-0.2,1l1.6,0.1v10.5l1.6,0.2v-10.7h2.2
		l0.2-1.2h-2.4v-0.7c0-0.6,0.1-1.1,0.3-1.3c0.2-0.2,0.7-0.4,1.3-0.4c0.7,0,1.2,0.1,1.7,0.2l0.3-1.2c-0.7-0.2-1.4-0.3-2.1-0.3
		c-1.2,0-2,0.2-2.5,0.7c-0.5,0.5-0.7,1.3-0.7,2.4V302L194.2,302z M202.8,310.7c0.5-0.2,0.8-0.4,1.1-0.6c0.3,0.6,0.7,0.9,1.3,0.9
		c0.6,0,1.1-0.1,1.5-0.4l-0.3-1c-0.3,0.1-0.6,0.2-0.8,0.2c-0.3,0-0.4-0.2-0.4-0.6V305c0-1.1-0.2-1.9-0.7-2.4s-1.2-0.7-2.4-0.7
		c-0.4,0-0.9,0.1-1.4,0.2c-0.5,0.1-1,0.3-1.3,0.5l0.4,1.1c0.9-0.3,1.6-0.5,2.3-0.5s1.1,0.1,1.3,0.4c0.2,0.2,0.3,0.7,0.3,1.4v1.3
		c-0.6-0.1-1.2-0.1-1.8-0.1c-0.7,0-1.3,0.1-1.9,0.4c-0.3,0.2-0.6,0.4-0.8,0.7c-0.2,0.3-0.3,0.7-0.3,1.2c0,0.7,0.2,1.3,0.7,1.8
		c0.4,0.4,1,0.7,1.8,0.7C201.8,310.9,202.3,310.9,202.8,310.7L202.8,310.7z M200.3,308.4c0-0.9,0.7-1.3,2-1.3c0.6,0,1.1,0,1.3,0.1v2
		c-0.6,0.4-1.3,0.6-2,0.6C200.8,309.7,200.3,309.3,200.3,308.4L200.3,308.4L200.3,308.4z M214.4,304.2c0.3-0.3,0.7-0.5,1.1-0.8
		c0.4-0.2,0.9-0.3,1.3-0.3c0.4,0,0.7,0.1,0.8,0.4c0.1,0.3,0.2,0.7,0.2,1.2v5.9h1.5v-6c0-1.9-0.8-2.9-2.3-2.9c-0.5,0-1,0.1-1.5,0.4
		c-0.6,0.3-1,0.6-1.3,0.9c-0.3-0.8-1-1.3-2-1.3c-0.5,0-1,0.1-1.5,0.4c-0.5,0.3-0.9,0.5-1.3,0.8l-0.2-1.1h-1.3v8.7h1.6v-6.4
		c0.3-0.3,0.6-0.6,1.1-0.8c0.5-0.2,0.9-0.3,1.3-0.3c0.4,0,0.7,0.1,0.8,0.4c0.1,0.3,0.2,0.7,0.2,1.2v5.9h1.6v-5.9
		C214.4,304.6,214.4,304.4,214.4,304.2L214.4,304.2L214.4,304.2z M223.2,301.9l-1.6,0.2v8.6h1.6V301.9L223.2,301.9z M221.6,300.2
		c0.2,0.2,0.5,0.3,0.7,0.3c0.3,0,0.5-0.1,0.7-0.3c0.2-0.2,0.3-0.5,0.3-0.7c0-0.3-0.1-0.5-0.3-0.7c-0.2-0.2-0.4-0.3-0.7-0.3
		c-0.3,0-0.5,0.1-0.7,0.3c-0.2,0.2-0.3,0.4-0.3,0.7C221.3,299.7,221.4,300,221.6,300.2L221.6,300.2z M225.5,309c0,1.3,0.6,2,1.7,2
		c0.7,0,1.3-0.1,1.7-0.3l-0.3-1.1c-0.4,0.1-0.7,0.2-1,0.2c-0.4,0-0.6-0.2-0.6-0.7v-10.3h-1.6V309L225.5,309z M228.9,313.1l-0.2,1.1
		c0.4,0.1,0.8,0.1,1.2,0.1c0.9,0,1.7-0.3,2.3-0.9c0.6-0.6,1.1-1.6,1.6-2.9l2.9-8.5H235l-2,7.1l-2.3-7.1l-1.6,0.1l3.2,8.6
		c-0.3,0.9-0.6,1.5-1,1.9c-0.4,0.4-0.9,0.5-1.5,0.5C229.3,313.2,229.1,313.2,228.9,313.1L228.9,313.1L228.9,313.1z M241.6,299.2
		v11.5h1.7v-11.5H241.6L241.6,299.2z M250.9,309.4v-5.5c0.7-0.5,1.4-0.8,2.1-0.8c1.2,0,1.7,1,1.7,3.1c0,2.3-0.7,3.4-2.2,3.4
		C252.1,309.6,251.5,309.5,250.9,309.4L250.9,309.4L250.9,309.4z M250.7,302h-1.3v12.6l1.5-0.2v-3.8c0.5,0.2,1,0.3,1.6,0.3
		c2.5,0,3.8-1.6,3.8-4.8c0-1.3-0.3-2.4-0.8-3.2c-0.5-0.8-1.3-1.2-2.2-1.2c-0.9,0-1.8,0.3-2.5,0.9L250.7,302L250.7,302z M262.2,310.6
		c0.5-0.2,0.9-0.4,1.2-0.7l0.2,0.9h1.3v-8.8h-1.6v6.8c-0.3,0.3-0.6,0.5-1.1,0.6c-0.4,0.1-0.9,0.2-1.3,0.2c-0.5,0-0.8-0.1-0.9-0.4
		c-0.1-0.3-0.2-0.7-0.2-1.3V302h-1.5v6c0,1,0.2,1.7,0.6,2.2c0.4,0.5,1,0.8,2,0.8C261.2,310.9,261.7,310.8,262.2,310.6L262.2,310.6z
		 M272.5,306.3c0,2.3-0.7,3.4-2.2,3.4c-0.7,0-1.2-0.1-1.6-0.3v-5.5c0.7-0.5,1.4-0.7,2.1-0.7C271.9,303.1,272.5,304.2,272.5,306.3
		L272.5,306.3L272.5,306.3z M267.1,298.7v11.5c0.9,0.6,2,0.8,3.2,0.8c2.5,0,3.8-1.7,3.8-5c0-1.3-0.3-2.3-0.9-3
		c-0.6-0.7-1.3-1.1-2.2-1.1c-0.4,0-0.9,0.1-1.4,0.3c-0.5,0.2-0.8,0.4-1,0.5v-4H267.1L267.1,298.7z M276.1,309c0,1.3,0.6,2,1.7,2
		c0.7,0,1.3-0.1,1.7-0.3l-0.3-1.1c-0.4,0.1-0.7,0.2-1,0.2c-0.4,0-0.6-0.2-0.6-0.7v-10.3h-1.6V309L276.1,309z M282.2,301.9l-1.6,0.2
		v8.6h1.6V301.9L282.2,301.9z M280.6,300.2c0.2,0.2,0.5,0.3,0.7,0.3c0.3,0,0.5-0.1,0.7-0.3c0.2-0.2,0.3-0.5,0.3-0.7
		c0-0.3-0.1-0.5-0.3-0.7c-0.2-0.2-0.4-0.3-0.7-0.3c-0.3,0-0.5,0.1-0.7,0.3c-0.2,0.2-0.3,0.4-0.3,0.7
		C280.3,299.7,280.4,300,280.6,300.2L280.6,300.2z M284,310.3c0.2,0.2,0.6,0.3,1.1,0.4c0.5,0.1,1,0.2,1.5,0.2c1,0,1.8-0.3,2.4-0.8
		c0.6-0.5,0.8-1.2,0.8-1.9c0-0.5-0.1-0.9-0.4-1.3c-0.3-0.3-0.6-0.6-1-0.8c-0.4-0.2-0.8-0.3-1.2-0.5c-0.4-0.1-0.8-0.3-1-0.6
		c-0.3-0.2-0.4-0.5-0.4-0.9s0.1-0.6,0.4-0.8c0.3-0.2,0.7-0.3,1.3-0.3c0.6,0,1.2,0.1,1.8,0.3l0.4-1.2c-0.6-0.3-1.3-0.5-2.3-0.5
		c-0.9,0-1.7,0.2-2.2,0.7c-0.6,0.5-0.8,1.1-0.8,1.9c0,0.5,0.1,1,0.4,1.3c0.3,0.4,0.6,0.6,1,0.8c0.4,0.2,0.8,0.3,1.2,0.5
		c0.4,0.1,0.7,0.3,1,0.6c0.3,0.2,0.4,0.5,0.4,0.9c0,0.4-0.1,0.6-0.4,0.9c-0.3,0.2-0.8,0.4-1.4,0.4c-0.6,0-1.3-0.2-2.1-0.5L284,310.3
		L284,310.3z M294.4,302.2c-0.5,0.2-0.9,0.5-1.3,0.8v-4.5l-1.6,0.1v12h1.6v-6.4c0.3-0.3,0.7-0.6,1.1-0.8c0.5-0.2,0.9-0.3,1.3-0.3
		c0.4,0,0.7,0.1,0.8,0.4c0.1,0.3,0.2,0.7,0.2,1.2v5.9h1.5v-6c0-0.9-0.2-1.6-0.5-2.1c-0.3-0.5-0.9-0.8-1.8-0.8
		C295.4,301.8,294.9,301.9,294.4,302.2L294.4,302.2z M306.6,310.2l-0.4-1.1c-0.7,0.3-1.5,0.5-2.3,0.5c-0.8,0-1.4-0.3-1.8-0.9
		c-0.4-0.6-0.6-1.4-0.6-2.4h5.1c0.2-0.6,0.3-1.1,0.3-1.5c0-0.9-0.3-1.6-0.8-2.2c-0.5-0.5-1.3-0.8-2.2-0.8c-1.2,0-2.1,0.4-2.7,1.2
		c-0.7,0.8-1,1.9-1,3.2c0,1.3,0.3,2.4,0.9,3.3s1.6,1.3,2.9,1.3C304.9,310.9,305.8,310.7,306.6,310.2L306.6,310.2L306.6,310.2z
		 M305.4,305.2l-3.7,0c0.1-0.4,0.2-0.8,0.5-1.3c0.2-0.2,0.4-0.4,0.7-0.6c0.3-0.2,0.7-0.2,1.1-0.2c0.4,0,0.8,0.2,1.1,0.5
		c0.3,0.4,0.4,0.8,0.4,1.5V305.2L305.4,305.2z M309.1,309.7c0.5,0.8,1.3,1.2,2.2,1.2c1,0,1.8-0.3,2.5-0.9l0.2,0.8h1.2v-12.2h-1.6
		v3.6c-0.5-0.3-1-0.4-1.7-0.4c-2.5,0-3.8,1.6-3.8,4.7C308.3,307.9,308.6,308.9,309.1,309.7L309.1,309.7z M313.8,303.4v5.4
		c-0.5,0.5-1.2,0.8-2.1,0.8c-1.2,0-1.8-1-1.8-3.1c0-2.3,0.7-3.4,2.2-3.4C312.7,303.1,313.3,303.2,313.8,303.4L313.8,303.4
		L313.8,303.4z M317.4,309.7c0,0.3,0.1,0.5,0.3,0.8c0.2,0.2,0.5,0.3,0.7,0.3c0.3,0,0.5-0.1,0.7-0.3c0.2-0.2,0.3-0.5,0.3-0.8
		c0-0.3-0.1-0.5-0.3-0.7c-0.2-0.2-0.5-0.3-0.7-0.3c-0.3,0-0.5,0.1-0.7,0.3C317.5,309.2,317.4,309.4,317.4,309.7L317.4,309.7z"/>
	<path d="M57.8,275l-1.6,0.2v8.6h1.6V275L57.8,275z M56.2,273.3c0.2,0.2,0.5,0.3,0.7,0.3c0.3,0,0.5-0.1,0.7-0.3
		c0.2-0.2,0.3-0.5,0.3-0.7s-0.1-0.5-0.3-0.7c-0.2-0.2-0.4-0.3-0.7-0.3c-0.3,0-0.5,0.1-0.7,0.3c-0.2,0.2-0.3,0.4-0.3,0.7
		S56,273.1,56.2,273.3L56.2,273.3z M66.2,275.7c-0.3-0.5-0.9-0.8-1.8-0.8c-0.5,0-1,0.1-1.6,0.4c-0.5,0.3-1,0.5-1.3,0.8l-0.2-1.1
		h-1.3v8.7h1.5v-6.4c0.3-0.3,0.7-0.6,1.1-0.8c0.5-0.2,0.9-0.3,1.4-0.3c0.4,0,0.7,0.1,0.8,0.4c0.1,0.3,0.2,0.7,0.2,1.2v5.9h1.5v-6
		C66.7,276.9,66.6,276.2,66.2,275.7L66.2,275.7z M78.7,283.4l-0.4-1.1c-0.7,0.3-1.5,0.5-2.3,0.5c-0.8,0-1.4-0.3-1.8-0.9
		c-0.4-0.6-0.6-1.4-0.6-2.4h5.1c0.2-0.6,0.3-1.1,0.3-1.5c0-0.9-0.3-1.6-0.8-2.2c-0.5-0.5-1.3-0.8-2.2-0.8c-1.2,0-2.1,0.4-2.7,1.2
		c-0.7,0.8-1,1.9-1,3.2c0,1.3,0.3,2.4,0.9,3.3c0.6,0.9,1.6,1.3,2.9,1.3C77,284.1,77.9,283.8,78.7,283.4L78.7,283.4L78.7,283.4z
		 M77.5,278.4l-3.7,0c0.1-0.4,0.2-0.8,0.5-1.3c0.2-0.2,0.4-0.4,0.7-0.6c0.3-0.2,0.7-0.2,1.1-0.2c0.4,0,0.8,0.2,1.1,0.5
		c0.3,0.4,0.4,0.8,0.4,1.5V278.4L77.5,278.4z M83.6,282.3l-2-7.2h-1.7l2.8,8.7h1.7l2.8-8.7h-1.6L83.6,282.3L83.6,282.3z M94.6,283.4
		l-0.4-1.1c-0.7,0.3-1.5,0.5-2.3,0.5c-0.8,0-1.4-0.3-1.8-0.9c-0.4-0.6-0.6-1.4-0.6-2.4h5.1c0.2-0.6,0.3-1.1,0.3-1.5
		c0-0.9-0.3-1.6-0.8-2.2c-0.5-0.5-1.3-0.8-2.2-0.8c-1.2,0-2.1,0.4-2.7,1.2c-0.7,0.8-1,1.9-1,3.2c0,1.3,0.3,2.4,0.9,3.3
		c0.6,0.9,1.6,1.3,2.9,1.3C92.9,284.1,93.8,283.8,94.6,283.4L94.6,283.4L94.6,283.4z M93.4,278.4l-3.7,0c0.1-0.4,0.2-0.8,0.5-1.3
		c0.2-0.2,0.4-0.4,0.7-0.6c0.3-0.2,0.7-0.2,1.1-0.2c0.4,0,0.8,0.2,1.1,0.5c0.3,0.4,0.4,0.8,0.4,1.5V278.4L93.4,278.4z M98.3,277.6
		c0.5-0.9,1.3-1.4,2.6-1.4c0.2,0,0.3,0,0.4,0l0.3-1.2c-0.2-0.1-0.4-0.1-0.8-0.1c-0.6,0-1.2,0.2-1.6,0.5c-0.5,0.3-0.8,0.6-1,1
		l-0.2-1.3h-1.3v8.7h1.5V277.6L98.3,277.6z M101.9,286.2l-0.2,1.1c0.4,0.1,0.8,0.1,1.2,0.1c0.9,0,1.7-0.3,2.3-0.9
		c0.6-0.6,1.1-1.6,1.6-2.9l2.9-8.5h-1.6l-2,7.1l-2.3-7.1l-1.6,0.1l3.2,8.6c-0.3,0.9-0.6,1.5-1,1.9c-0.4,0.4-0.9,0.5-1.5,0.5
		C102.3,286.3,102.1,286.3,101.9,286.2L101.9,286.2L101.9,286.2z M115.8,283.7l-0.3-1.2c-0.4,0.1-0.7,0.2-1.1,0.2s-0.6,0-0.7-0.1
		c-0.1-0.1-0.2-0.2-0.2-0.3c0-0.1,0-0.3,0-0.5v-5.4h2.4l0.2-1.2h-2.5v-2.3l-1.4,0.3l-0.2,2.1l-1.6,0.1l-0.2,1l1.7,0.1v5.2
		c0,0.9,0.1,1.5,0.4,1.9c0.3,0.4,0.9,0.6,1.8,0.6C114.7,284.1,115.3,283.9,115.8,283.7L115.8,283.7L115.8,283.7z M120.3,275.3
		c-0.5,0.2-0.9,0.5-1.3,0.8v-4.5l-1.6,0.1v12h1.6v-6.4c0.3-0.3,0.7-0.6,1.1-0.8c0.5-0.2,0.9-0.3,1.3-0.3c0.4,0,0.7,0.1,0.8,0.4
		c0.1,0.3,0.2,0.7,0.2,1.2v5.9h1.5v-6c0-0.9-0.2-1.6-0.5-2.1c-0.3-0.5-0.9-0.8-1.8-0.8C121.3,274.9,120.8,275.1,120.3,275.3
		L120.3,275.3z M127.9,275l-1.6,0.2v8.6h1.6V275L127.9,275z M126.4,273.3c0.2,0.2,0.5,0.3,0.7,0.3c0.3,0,0.5-0.1,0.7-0.3
		c0.2-0.2,0.3-0.5,0.3-0.7s-0.1-0.5-0.3-0.7c-0.2-0.2-0.4-0.3-0.7-0.3c-0.3,0-0.5,0.1-0.7,0.3c-0.2,0.2-0.3,0.4-0.3,0.7
		S126.2,273.1,126.4,273.3L126.4,273.3z M136.4,275.7c-0.3-0.5-0.9-0.8-1.8-0.8c-0.5,0-1,0.1-1.6,0.4c-0.5,0.3-1,0.5-1.3,0.8
		l-0.2-1.1h-1.3v8.7h1.6v-6.4c0.3-0.3,0.7-0.6,1.1-0.8c0.5-0.2,0.9-0.3,1.4-0.3c0.4,0,0.7,0.1,0.8,0.4c0.1,0.3,0.2,0.7,0.2,1.2v5.9
		h1.6v-6C136.9,276.9,136.7,276.2,136.4,275.7L136.4,275.7z M139.6,275.8c-0.5,0.6-0.8,1.3-0.8,2.3c0,0.6,0.1,1.2,0.4,1.6
		c0.3,0.5,0.6,0.9,1.1,1.1c-0.4,0.6-0.7,1.1-0.7,1.6c0,0.5,0.1,0.8,0.4,1.1c-1.1,0.6-1.6,1.3-1.6,2.2c0,0.7,0.3,1.3,0.9,1.7
		c0.6,0.4,1.5,0.6,2.6,0.6c1.1,0,2.1-0.3,2.8-0.8c0.7-0.6,1.1-1.3,1.1-2.2c0-0.7-0.2-1.2-0.7-1.5c-0.5-0.4-1.1-0.6-1.9-0.6h-1.6
		c-0.6,0-0.9-0.2-0.9-0.6c0-0.3,0.1-0.6,0.3-1c0.3,0.1,0.6,0.1,0.9,0.1c1,0,1.8-0.3,2.3-0.9c0.5-0.6,0.8-1.3,0.8-2.2
		c0-0.9-0.2-1.6-0.7-2.1c0.8-0.1,1.4-0.2,1.8-0.3l-0.2-1c-0.9,0.2-1.8,0.2-2.7,0.2l-1.4-0.1C140.9,274.9,140.2,275.2,139.6,275.8
		L139.6,275.8z M143.3,276.6c0.3,0.3,0.4,0.8,0.4,1.5c0,1.3-0.6,1.9-1.7,1.9c-1.1,0-1.7-0.6-1.7-1.9c0-1.3,0.6-1.9,1.7-1.9
		C142.6,276.1,143,276.3,143.3,276.6L143.3,276.6z M144.2,284.3c0.2,0.1,0.3,0.4,0.3,0.7c0,0.5-0.2,0.9-0.6,1.2
		c-0.4,0.3-1,0.5-1.7,0.5c-0.7,0-1.3-0.1-1.7-0.3s-0.6-0.5-0.6-0.9c0-0.7,0.3-1.1,1-1.4h2.1C143.6,284.1,144,284.1,144.2,284.3
		L144.2,284.3z M155.6,283.7l-0.3-1.2c-0.4,0.1-0.7,0.2-1.1,0.2c-0.4,0-0.6,0-0.7-0.1c-0.1-0.1-0.2-0.2-0.2-0.3c0-0.1,0-0.3,0-0.5
		v-5.4h2.4l0.2-1.2h-2.5v-2.3l-1.4,0.3l-0.2,2.1l-1.6,0.1l-0.2,1l1.7,0.1v5.2c0,0.9,0.1,1.5,0.4,1.9c0.3,0.4,0.9,0.6,1.8,0.6
		C154.5,284.1,155,283.9,155.6,283.7L155.6,283.7L155.6,283.7z M160.1,275.3c-0.5,0.2-0.9,0.5-1.3,0.8v-4.5l-1.6,0.1v12h1.6v-6.4
		c0.3-0.3,0.7-0.6,1.1-0.8c0.5-0.2,0.9-0.3,1.3-0.3c0.4,0,0.7,0.1,0.8,0.4c0.1,0.3,0.2,0.7,0.2,1.2v5.9h1.6v-6
		c0-0.9-0.2-1.6-0.5-2.1c-0.3-0.5-0.9-0.8-1.8-0.8C161.1,274.9,160.6,275.1,160.1,275.3L160.1,275.3z M169.4,283.8
		c0.5-0.2,0.8-0.4,1.1-0.6c0.3,0.6,0.7,0.9,1.3,0.9c0.6,0,1.1-0.1,1.5-0.4l-0.3-1c-0.3,0.1-0.6,0.2-0.8,0.2c-0.3,0-0.4-0.2-0.4-0.6
		v-4.2c0-1.1-0.2-1.9-0.7-2.4s-1.2-0.7-2.4-0.7c-0.4,0-0.9,0.1-1.4,0.2c-0.5,0.1-1,0.3-1.3,0.5l0.4,1.1c0.9-0.3,1.6-0.5,2.3-0.5
		c0.6,0,1.1,0.1,1.3,0.4c0.2,0.2,0.3,0.7,0.3,1.4v1.3c-0.6-0.1-1.2-0.1-1.8-0.1c-0.7,0-1.3,0.1-1.9,0.4c-0.3,0.2-0.6,0.4-0.8,0.7
		c-0.2,0.3-0.3,0.7-0.3,1.2c0,0.7,0.2,1.3,0.7,1.8c0.4,0.4,1,0.7,1.8,0.7C168.5,284.1,169,284,169.4,283.8L169.4,283.8z M167,281.5
		c0-0.9,0.7-1.3,2-1.3c0.6,0,1.1,0,1.3,0.1v2c-0.6,0.4-1.3,0.6-2,0.6C167.5,282.8,167,282.4,167,281.5L167,281.5L167,281.5z
		 M179.2,283.7l-0.3-1.2c-0.4,0.1-0.7,0.2-1.1,0.2c-0.4,0-0.6,0-0.7-0.1c-0.1-0.1-0.2-0.2-0.2-0.3c0-0.1,0-0.3,0-0.5v-5.4h2.4
		l0.2-1.2h-2.5v-2.3l-1.4,0.3l-0.2,2.1l-1.6,0.1l-0.2,1l1.7,0.1v5.2c0,0.9,0.1,1.5,0.4,1.9c0.3,0.4,0.9,0.6,1.8,0.6
		C178.1,284.1,178.6,283.9,179.2,283.7L179.2,283.7L179.2,283.7z M188.9,283.7l-0.3-1.2c-0.4,0.1-0.7,0.2-1.1,0.2
		c-0.4,0-0.6,0-0.7-0.1c-0.1-0.1-0.2-0.2-0.2-0.3c0-0.1,0-0.3,0-0.5v-5.4h2.4l0.2-1.2h-2.5v-2.3l-1.4,0.3l-0.2,2.1l-1.6,0.1l-0.2,1
		l1.7,0.1v5.2c0,0.9,0.1,1.5,0.4,1.9c0.3,0.4,0.9,0.6,1.8,0.6C187.8,284.1,188.3,283.9,188.9,283.7L188.9,283.7L188.9,283.7z
		 M189.4,286.2l-0.2,1.1c0.4,0.1,0.8,0.1,1.2,0.1c0.9,0,1.7-0.3,2.3-0.9c0.6-0.6,1.1-1.6,1.6-2.9l2.9-8.5h-1.6l-2,7.1l-2.3-7.1
		l-1.6,0.1l3.2,8.6c-0.3,0.9-0.6,1.5-1,1.9c-0.4,0.4-0.9,0.5-1.5,0.5C189.9,286.3,189.6,286.3,189.4,286.2L189.4,286.2L189.4,286.2z
		 M200.2,282.5V277c0.7-0.5,1.4-0.8,2.1-0.8c1.2,0,1.7,1,1.7,3.1c0,2.3-0.7,3.4-2.2,3.4C201.4,282.7,200.8,282.7,200.2,282.5
		L200.2,282.5L200.2,282.5z M200,275.1h-1.3v12.6l1.6-0.2v-3.8c0.5,0.2,1,0.3,1.6,0.3c2.5,0,3.8-1.6,3.8-4.8c0-1.3-0.3-2.4-0.8-3.2
		c-0.5-0.8-1.3-1.2-2.2-1.2c-0.9,0-1.8,0.3-2.5,0.9L200,275.1L200,275.1z M213.7,283.4l-0.4-1.1c-0.7,0.3-1.5,0.5-2.3,0.5
		c-0.8,0-1.4-0.3-1.8-0.9c-0.4-0.6-0.6-1.4-0.6-2.4h5.1c0.2-0.6,0.3-1.1,0.3-1.5c0-0.9-0.3-1.6-0.8-2.2c-0.5-0.5-1.3-0.8-2.2-0.8
		c-1.2,0-2.1,0.4-2.7,1.2c-0.7,0.8-1,1.9-1,3.2c0,1.3,0.3,2.4,0.9,3.3c0.6,0.9,1.6,1.3,2.9,1.3C212,284.1,212.9,283.8,213.7,283.4
		L213.7,283.4L213.7,283.4z M212.5,278.4l-3.7,0c0.1-0.4,0.2-0.8,0.5-1.3c0.2-0.2,0.4-0.4,0.7-0.6c0.3-0.2,0.7-0.2,1.1-0.2
		c0.4,0,0.8,0.2,1.1,0.5c0.3,0.4,0.4,0.8,0.4,1.5V278.4L212.5,278.4z M219.8,282.8c0.5,0.8,1.3,1.2,2.2,1.2c1,0,1.8-0.3,2.5-0.9
		l0.2,0.8h1.2v-12.2h-1.6v3.6c-0.5-0.3-1-0.4-1.7-0.4c-2.5,0-3.8,1.6-3.8,4.7C219,281,219.3,282,219.8,282.8L219.8,282.8z
		 M224.5,276.5v5.4c-0.5,0.5-1.2,0.8-2.1,0.8c-1.2,0-1.8-1-1.8-3.1c0-2.3,0.7-3.4,2.2-3.4C223.4,276.2,224,276.3,224.5,276.5
		L224.5,276.5L224.5,276.5z M234.4,283.4l-0.4-1.1c-0.7,0.3-1.5,0.5-2.3,0.5c-0.8,0-1.4-0.3-1.8-0.9c-0.4-0.6-0.6-1.4-0.6-2.4h5.1
		c0.2-0.6,0.3-1.1,0.3-1.5c0-0.9-0.3-1.6-0.8-2.2c-0.5-0.5-1.3-0.8-2.2-0.8c-1.2,0-2.1,0.4-2.7,1.2c-0.7,0.8-1,1.9-1,3.2
		c0,1.3,0.3,2.4,0.9,3.3c0.6,0.9,1.6,1.3,2.9,1.3C232.7,284.1,233.6,283.8,234.4,283.4L234.4,283.4L234.4,283.4z M233.3,278.4
		l-3.7,0c0.1-0.4,0.2-0.8,0.5-1.3c0.2-0.2,0.4-0.4,0.7-0.6c0.3-0.2,0.7-0.2,1.1-0.2c0.4,0,0.8,0.2,1.1,0.5c0.3,0.4,0.4,0.8,0.4,1.5
		V278.4L233.3,278.4z M236,283.4c0.2,0.2,0.6,0.3,1.1,0.4c0.5,0.1,1,0.2,1.5,0.2c1,0,1.8-0.3,2.4-0.8c0.6-0.5,0.8-1.2,0.8-1.9
		c0-0.5-0.1-0.9-0.4-1.3c-0.3-0.3-0.6-0.6-1-0.8c-0.4-0.2-0.8-0.3-1.2-0.5c-0.4-0.1-0.8-0.3-1-0.6c-0.3-0.2-0.4-0.5-0.4-0.9
		c0-0.3,0.1-0.6,0.4-0.8c0.3-0.2,0.7-0.3,1.3-0.3c0.6,0,1.2,0.1,1.8,0.3l0.4-1.2c-0.6-0.3-1.3-0.5-2.3-0.5s-1.7,0.2-2.2,0.7
		c-0.6,0.5-0.8,1.1-0.8,1.9c0,0.5,0.1,1,0.4,1.3s0.6,0.6,1,0.8c0.4,0.2,0.8,0.3,1.2,0.5c0.4,0.1,0.7,0.3,1,0.6
		c0.3,0.2,0.4,0.5,0.4,0.9c0,0.4-0.1,0.6-0.4,0.9c-0.3,0.2-0.8,0.4-1.4,0.4c-0.6,0-1.3-0.2-2.1-0.5L236,283.4L236,283.4z M245.2,275
		l-1.6,0.2v8.6h1.6V275L245.2,275z M243.6,273.3c0.2,0.2,0.5,0.3,0.7,0.3c0.3,0,0.5-0.1,0.7-0.3c0.2-0.2,0.3-0.5,0.3-0.7
		s-0.1-0.5-0.3-0.7c-0.2-0.2-0.4-0.3-0.7-0.3c-0.3,0-0.5,0.1-0.7,0.3c-0.2,0.2-0.3,0.4-0.3,0.7S243.4,273.1,243.6,273.3L243.6,273.3
		z M247.9,275.8c-0.5,0.6-0.8,1.3-0.8,2.3c0,0.6,0.1,1.2,0.4,1.6c0.3,0.5,0.6,0.9,1.1,1.1c-0.4,0.6-0.7,1.1-0.7,1.6
		c0,0.5,0.1,0.8,0.4,1.1c-1.1,0.6-1.6,1.3-1.6,2.2c0,0.7,0.3,1.3,0.9,1.7c0.6,0.4,1.5,0.6,2.6,0.6c1.1,0,2.1-0.3,2.8-0.8
		c0.7-0.6,1.1-1.3,1.1-2.2c0-0.7-0.2-1.2-0.7-1.5c-0.5-0.4-1.1-0.6-1.9-0.6h-1.6c-0.6,0-0.9-0.2-0.9-0.6c0-0.3,0.1-0.6,0.3-1
		c0.3,0.1,0.6,0.1,0.9,0.1c1,0,1.8-0.3,2.3-0.9c0.5-0.6,0.8-1.3,0.8-2.2c0-0.9-0.2-1.6-0.7-2.1c0.8-0.1,1.4-0.2,1.8-0.3l-0.2-1
		c-0.9,0.2-1.8,0.2-2.7,0.2l-1.4-0.1C249.2,274.9,248.5,275.2,247.9,275.8L247.9,275.8z M251.6,276.6c0.3,0.3,0.4,0.8,0.4,1.5
		c0,1.3-0.6,1.9-1.7,1.9c-1.1,0-1.7-0.6-1.7-1.9c0-1.3,0.6-1.9,1.7-1.9C250.9,276.1,251.3,276.3,251.6,276.6L251.6,276.6z
		 M252.5,284.3c0.2,0.1,0.3,0.4,0.3,0.7c0,0.5-0.2,0.9-0.6,1.2c-0.4,0.3-1,0.5-1.7,0.5c-0.7,0-1.3-0.1-1.7-0.3s-0.6-0.5-0.6-0.9
		c0-0.7,0.3-1.1,1-1.4h2.1C251.9,284.1,252.3,284.1,252.5,284.3L252.5,284.3z M262,275.7c-0.3-0.5-0.9-0.8-1.8-0.8
		c-0.5,0-1,0.1-1.6,0.4c-0.5,0.3-1,0.5-1.3,0.8l-0.2-1.1h-1.3v8.7h1.5v-6.4c0.3-0.3,0.7-0.6,1.1-0.8c0.5-0.2,0.9-0.3,1.4-0.3
		s0.7,0.1,0.8,0.4c0.1,0.3,0.2,0.7,0.2,1.2v5.9h1.5v-6C262.5,276.9,262.3,276.2,262,275.7L262,275.7z M269.9,275l-1.6,0.2v8.6h1.6
		V275L269.9,275z M268.4,273.3c0.2,0.2,0.5,0.3,0.7,0.3c0.3,0,0.5-0.1,0.7-0.3c0.2-0.2,0.3-0.5,0.3-0.7s-0.1-0.5-0.3-0.7
		c-0.2-0.2-0.4-0.3-0.7-0.3c-0.3,0-0.5,0.1-0.7,0.3c-0.2,0.2-0.3,0.4-0.3,0.7S268.2,273.1,268.4,273.3L268.4,273.3z M278.4,275.7
		c-0.3-0.5-0.9-0.8-1.8-0.8c-0.5,0-1,0.1-1.6,0.4c-0.5,0.3-1,0.5-1.3,0.8l-0.2-1.1h-1.3v8.7h1.6v-6.4c0.3-0.3,0.7-0.6,1.1-0.8
		c0.5-0.2,0.9-0.3,1.4-0.3s0.7,0.1,0.8,0.4c0.1,0.3,0.2,0.7,0.2,1.2v5.9h1.6v-6C278.9,276.9,278.7,276.2,278.4,275.7L278.4,275.7z
		 M283.9,282.3l-2-7.2h-1.7l2.8,8.7h1.7l2.8-8.7H286L283.9,282.3L283.9,282.3z M295.7,279.5c0-1.6-0.3-2.7-1-3.5
		c-0.6-0.7-1.5-1.1-2.6-1.1c-1.1,0-2,0.4-2.6,1.1c-0.7,0.7-1,1.9-1,3.5c0,1.6,0.3,2.7,1,3.5c0.6,0.7,1.5,1.1,2.6,1.1
		c1.1,0,2-0.4,2.6-1.1C295.4,282.2,295.7,281.1,295.7,279.5L295.7,279.5z M293.6,276.9c0.3,0.5,0.5,1.3,0.5,2.5s-0.2,2.1-0.6,2.6
		c-0.4,0.5-0.9,0.8-1.4,0.8c-1.3,0-2-1.1-2-3.3c0-2.2,0.7-3.3,2-3.3C292.8,276.2,293.3,276.5,293.6,276.9L293.6,276.9z M297.7,282.1
		c0,1.3,0.6,2,1.7,2c0.7,0,1.3-0.1,1.7-0.3l-0.3-1.1c-0.4,0.1-0.7,0.2-1,0.2c-0.4,0-0.6-0.2-0.6-0.7v-10.3h-1.6V282.1L297.7,282.1z
		 M304.9,282.3l-2-7.2h-1.7l2.8,8.7h1.7l2.8-8.7H307L304.9,282.3L304.9,282.3z M316,283.4l-0.4-1.1c-0.7,0.3-1.5,0.5-2.3,0.5
		c-0.8,0-1.4-0.3-1.8-0.9c-0.4-0.6-0.6-1.4-0.6-2.4h5.1c0.2-0.6,0.3-1.1,0.3-1.5c0-0.9-0.3-1.6-0.8-2.2c-0.5-0.5-1.3-0.8-2.2-0.8
		c-1.2,0-2.1,0.4-2.7,1.2c-0.7,0.8-1,1.9-1,3.2c0,1.3,0.3,2.4,0.9,3.3c0.6,0.9,1.6,1.3,2.9,1.3C314.3,284.1,315.2,283.8,316,283.4
		L316,283.4L316,283.4z M314.8,278.4l-3.7,0c0.1-0.4,0.2-0.8,0.5-1.3c0.2-0.2,0.4-0.4,0.7-0.6c0.3-0.2,0.7-0.2,1.1-0.2
		c0.4,0,0.8,0.2,1.1,0.5c0.3,0.4,0.4,0.8,0.4,1.5V278.4L314.8,278.4z M317.6,283.4c0.2,0.2,0.6,0.3,1.1,0.4c0.5,0.1,1,0.2,1.5,0.2
		c1,0,1.8-0.3,2.4-0.8c0.6-0.5,0.8-1.2,0.8-1.9c0-0.5-0.1-0.9-0.4-1.3c-0.3-0.3-0.6-0.6-1-0.8c-0.4-0.2-0.8-0.3-1.2-0.5
		c-0.4-0.1-0.8-0.3-1-0.6c-0.3-0.2-0.4-0.5-0.4-0.9c0-0.3,0.1-0.6,0.4-0.8c0.3-0.2,0.7-0.3,1.3-0.3c0.6,0,1.2,0.1,1.8,0.3l0.4-1.2
		c-0.6-0.3-1.3-0.5-2.3-0.5c-0.9,0-1.7,0.2-2.2,0.7c-0.6,0.5-0.8,1.1-0.8,1.9c0,0.5,0.1,1,0.4,1.3c0.3,0.4,0.6,0.6,1,0.8
		c0.4,0.2,0.8,0.3,1.2,0.5c0.4,0.1,0.7,0.3,1,0.6c0.3,0.2,0.4,0.5,0.4,0.9c0,0.4-0.1,0.6-0.4,0.9c-0.3,0.2-0.8,0.4-1.4,0.4
		c-0.6,0-1.3-0.2-2.1-0.5L317.6,283.4L317.6,283.4z M325.1,277.7c0,0.3,0.1,0.5,0.3,0.8c0.2,0.2,0.5,0.3,0.7,0.3
		c0.3,0,0.5-0.1,0.7-0.3c0.2-0.2,0.3-0.5,0.3-0.8c0-0.3-0.1-0.5-0.3-0.7c-0.2-0.2-0.5-0.3-0.7-0.3c-0.3,0-0.5,0.1-0.7,0.3
		C325.2,277.2,325.1,277.4,325.1,277.7L325.1,277.7z M326.9,281.8h-1.6c0.2,0.4,0.3,0.9,0.3,1.2c0,0.9-0.5,1.9-1.4,3h1.4
		c1-0.9,1.5-2,1.5-3.2C327.1,282.5,327.1,282.1,326.9,281.8L326.9,281.8L326.9,281.8z"/>
	<path d="M62.6,246.4c-0.4-0.4-0.8-0.6-1.4-0.7c-0.5-0.1-1.2-0.2-2.1-0.2h-2.7V257H58v-4.5h0.6c0.4,0,0.7,0,0.9,0l3.6,4.8l1.2-0.8
		l-3.2-4.1c0.5-0.1,0.9-0.3,1.3-0.6c0.7-0.6,1.1-1.5,1.1-2.8C63.6,247.8,63.2,247,62.6,246.4L62.6,246.4L62.6,246.4z M58.7,251.1H58
		v-4.4H59c1.2,0,1.9,0.2,2.3,0.6c0.4,0.4,0.6,0.9,0.6,1.7c0,0.8-0.2,1.3-0.7,1.7C60.8,251,60,251.1,58.7,251.1L58.7,251.1
		L58.7,251.1z M69.2,256.9c0.5-0.2,0.8-0.4,1.1-0.6c0.3,0.6,0.7,0.9,1.3,0.9c0.6,0,1.1-0.1,1.5-0.4l-0.3-1c-0.3,0.1-0.6,0.2-0.8,0.2
		c-0.3,0-0.4-0.2-0.4-0.6v-4.2c0-1.1-0.2-1.9-0.7-2.4c-0.5-0.5-1.2-0.7-2.4-0.7c-0.4,0-0.9,0.1-1.4,0.2c-0.5,0.1-1,0.3-1.3,0.5
		l0.4,1.1c0.9-0.3,1.6-0.5,2.3-0.5c0.6,0,1.1,0.1,1.3,0.4c0.2,0.2,0.3,0.7,0.3,1.4v1.3c-0.6-0.1-1.2-0.1-1.8-0.1
		c-0.7,0-1.3,0.1-1.9,0.4c-0.3,0.2-0.6,0.4-0.8,0.7c-0.2,0.3-0.3,0.7-0.3,1.2c0,0.7,0.2,1.3,0.7,1.8c0.4,0.4,1,0.7,1.8,0.7
		C68.3,257.2,68.8,257.1,69.2,256.9L69.2,256.9z M66.8,254.6c0-0.9,0.7-1.3,2-1.3c0.6,0,1.1,0,1.3,0.1v2c-0.6,0.4-1.3,0.6-2,0.6
		C67.2,256,66.8,255.5,66.8,254.6L66.8,254.6L66.8,254.6z M80.8,250.5c0.3-0.3,0.7-0.5,1.1-0.8c0.4-0.2,0.9-0.3,1.3-0.3
		c0.4,0,0.7,0.1,0.8,0.4c0.1,0.3,0.2,0.7,0.2,1.2v5.9h1.5v-6c0-1.9-0.8-2.9-2.3-2.9c-0.5,0-1,0.1-1.5,0.4c-0.6,0.3-1,0.6-1.3,0.9
		c-0.3-0.8-1-1.3-2-1.3c-0.5,0-1,0.1-1.5,0.4c-0.5,0.3-0.9,0.5-1.3,0.8l-0.2-1.1h-1.3v8.7h1.5v-6.4c0.3-0.3,0.6-0.6,1.1-0.8
		c0.5-0.2,0.9-0.3,1.3-0.3c0.4,0,0.7,0.1,0.8,0.4c0.1,0.3,0.2,0.7,0.2,1.2v5.9h1.5V251C80.9,250.8,80.9,250.6,80.8,250.5L80.8,250.5
		L80.8,250.5z M93.4,252.5c0,2.3-0.7,3.4-2.2,3.4c-0.7,0-1.2-0.1-1.6-0.3v-5.5c0.7-0.5,1.4-0.7,2.1-0.7
		C92.9,249.4,93.4,250.4,93.4,252.5L93.4,252.5L93.4,252.5z M88.1,244.9v11.5c0.9,0.6,2,0.8,3.2,0.8c2.5,0,3.8-1.7,3.8-5
		c0-1.3-0.3-2.3-0.9-3c-0.6-0.7-1.3-1.1-2.2-1.1c-0.4,0-0.9,0.1-1.4,0.3c-0.5,0.2-0.8,0.4-1,0.5v-4H88.1L88.1,244.9z M97,255.2
		c0,1.3,0.6,2,1.7,2c0.7,0,1.3-0.1,1.7-0.3l-0.3-1.1c-0.4,0.1-0.7,0.2-1,0.2c-0.4,0-0.6-0.2-0.6-0.7v-10.3H97V255.2L97,255.2z
		 M104.9,256.9c0.5-0.2,0.8-0.4,1.1-0.6c0.3,0.6,0.7,0.9,1.3,0.9c0.6,0,1.1-0.1,1.5-0.4l-0.3-1c-0.3,0.1-0.6,0.2-0.8,0.2
		c-0.3,0-0.4-0.2-0.4-0.6v-4.2c0-1.1-0.2-1.9-0.7-2.4s-1.2-0.7-2.4-0.7c-0.4,0-0.9,0.1-1.4,0.2c-0.5,0.1-1,0.3-1.3,0.5l0.4,1.1
		c0.9-0.3,1.6-0.5,2.3-0.5c0.6,0,1.1,0.1,1.3,0.4c0.2,0.2,0.3,0.7,0.3,1.4v1.3c-0.6-0.1-1.2-0.1-1.8-0.1c-0.7,0-1.3,0.1-1.9,0.4
		c-0.3,0.2-0.6,0.4-0.8,0.7s-0.3,0.7-0.3,1.2c0,0.7,0.2,1.3,0.7,1.8c0.4,0.4,1,0.7,1.8,0.7C103.9,257.2,104.4,257.1,104.9,256.9
		L104.9,256.9z M102.4,254.6c0-0.9,0.7-1.3,2-1.3c0.6,0,1.1,0,1.3,0.1v2c-0.6,0.4-1.3,0.6-2,0.6C102.9,256,102.4,255.5,102.4,254.6
		L102.4,254.6L102.4,254.6z M118.9,252.5c0,2.3-0.7,3.4-2.2,3.4c-0.7,0-1.2-0.1-1.6-0.3v-5.5c0.7-0.5,1.4-0.7,2.1-0.7
		C118.3,249.4,118.9,250.4,118.9,252.5L118.9,252.5L118.9,252.5z M113.5,244.9v11.5c0.9,0.6,2,0.8,3.2,0.8c2.5,0,3.8-1.7,3.8-5
		c0-1.3-0.3-2.3-0.9-3c-0.6-0.7-1.3-1.1-2.2-1.1c-0.4,0-0.9,0.1-1.4,0.3c-0.5,0.2-0.8,0.4-1,0.5v-4H113.5L113.5,244.9z M128.6,256.5
		l-0.4-1.1c-0.7,0.3-1.5,0.5-2.3,0.5s-1.4-0.3-1.8-0.9c-0.4-0.6-0.6-1.4-0.6-2.4h5.1c0.2-0.6,0.3-1.1,0.3-1.6c0-0.9-0.3-1.6-0.8-2.2
		c-0.5-0.5-1.3-0.8-2.2-0.8c-1.2,0-2.1,0.4-2.7,1.2c-0.7,0.8-1,1.9-1,3.2s0.3,2.4,0.9,3.3c0.6,0.9,1.6,1.3,2.9,1.3
		C126.8,257.2,127.7,256.9,128.6,256.5L128.6,256.5L128.6,256.5z M127.4,251.5l-3.7,0c0.1-0.4,0.2-0.8,0.5-1.3
		c0.2-0.2,0.4-0.4,0.7-0.6c0.3-0.2,0.7-0.2,1.1-0.2c0.4,0,0.8,0.2,1.1,0.5c0.3,0.4,0.4,0.8,0.4,1.5V251.5L127.4,251.5z M131.1,248.9
		c-0.5,0.6-0.8,1.3-0.8,2.3c0,0.6,0.1,1.2,0.4,1.6c0.3,0.5,0.6,0.9,1.1,1.1c-0.4,0.6-0.7,1.1-0.7,1.6c0,0.5,0.1,0.8,0.4,1.1
		c-1.1,0.6-1.6,1.3-1.6,2.2c0,0.7,0.3,1.3,0.9,1.7c0.6,0.4,1.5,0.6,2.6,0.6s2.1-0.3,2.8-0.8c0.7-0.6,1.1-1.3,1.1-2.2
		c0-0.7-0.2-1.2-0.7-1.5c-0.5-0.4-1.1-0.6-1.9-0.6h-1.6c-0.6,0-0.9-0.2-0.9-0.6c0-0.3,0.1-0.6,0.3-1c0.3,0.1,0.6,0.1,0.9,0.1
		c1,0,1.8-0.3,2.3-0.9c0.5-0.6,0.8-1.3,0.8-2.2c0-0.9-0.2-1.6-0.7-2.1c0.8-0.1,1.4-0.2,1.8-0.3l-0.2-1c-0.9,0.2-1.8,0.2-2.7,0.2
		l-1.4-0.1C132.4,248.1,131.6,248.4,131.1,248.9L131.1,248.9z M134.7,249.7c0.3,0.3,0.4,0.8,0.4,1.5c0,1.3-0.6,1.9-1.7,1.9
		c-1.1,0-1.7-0.6-1.7-1.9c0-1.3,0.6-1.9,1.7-1.9C134,249.3,134.5,249.4,134.7,249.7L134.7,249.7z M135.7,257.4
		c0.2,0.1,0.3,0.4,0.3,0.7c0,0.5-0.2,0.9-0.6,1.2c-0.4,0.3-1,0.5-1.7,0.5c-0.7,0-1.3-0.1-1.7-0.3c-0.4-0.2-0.6-0.5-0.6-0.9
		c0-0.7,0.3-1.1,1-1.4h2.1C135.1,257.2,135.5,257.2,135.7,257.4L135.7,257.4z M142.3,256.9c0.5-0.2,0.8-0.4,1.1-0.6
		c0.3,0.6,0.7,0.9,1.3,0.9s1.1-0.1,1.5-0.4l-0.3-1c-0.3,0.1-0.6,0.2-0.8,0.2c-0.3,0-0.4-0.2-0.4-0.6v-4.2c0-1.1-0.2-1.9-0.7-2.4
		c-0.5-0.5-1.2-0.7-2.4-0.7c-0.4,0-0.9,0.1-1.4,0.2c-0.5,0.1-1,0.3-1.3,0.5l0.4,1.1c0.9-0.3,1.6-0.5,2.3-0.5c0.6,0,1.1,0.1,1.3,0.4
		s0.3,0.7,0.3,1.4v1.3c-0.6-0.1-1.2-0.1-1.8-0.1c-0.7,0-1.3,0.1-1.9,0.4c-0.3,0.2-0.6,0.4-0.8,0.7c-0.2,0.3-0.3,0.7-0.3,1.2
		c0,0.7,0.2,1.3,0.7,1.8c0.4,0.4,1,0.7,1.8,0.7C141.4,257.2,141.8,257.1,142.3,256.9L142.3,256.9z M139.9,254.6c0-0.9,0.7-1.3,2-1.3
		c0.6,0,1.1,0,1.3,0.1v2c-0.6,0.4-1.3,0.6-2,0.6C140.3,256,139.9,255.5,139.9,254.6L139.9,254.6L139.9,254.6z M153.5,248.8
		c-0.3-0.5-0.9-0.8-1.8-0.8c-0.5,0-1,0.1-1.6,0.4c-0.5,0.3-1,0.5-1.3,0.8l-0.2-1.1h-1.3v8.7h1.6v-6.4c0.3-0.3,0.7-0.6,1.1-0.8
		c0.5-0.2,0.9-0.3,1.4-0.3s0.7,0.1,0.8,0.4c0.1,0.3,0.2,0.7,0.2,1.2v5.9h1.6v-6C154,250.1,153.9,249.3,153.5,248.8L153.5,248.8z
		 M163.2,256.9c0.5-0.2,0.8-0.4,1.1-0.6c0.3,0.6,0.7,0.9,1.3,0.9c0.6,0,1.1-0.1,1.5-0.4l-0.3-1c-0.3,0.1-0.6,0.2-0.8,0.2
		c-0.3,0-0.4-0.2-0.4-0.6v-4.2c0-1.1-0.2-1.9-0.7-2.4c-0.5-0.5-1.2-0.7-2.4-0.7c-0.4,0-0.9,0.1-1.4,0.2c-0.5,0.1-1,0.3-1.3,0.5
		l0.4,1.1c0.9-0.3,1.6-0.5,2.3-0.5c0.6,0,1.1,0.1,1.3,0.4c0.2,0.2,0.3,0.7,0.3,1.4v1.3c-0.6-0.1-1.2-0.1-1.8-0.1
		c-0.7,0-1.3,0.1-1.9,0.4c-0.3,0.2-0.6,0.4-0.8,0.7c-0.2,0.3-0.3,0.7-0.3,1.2c0,0.7,0.2,1.3,0.7,1.8c0.4,0.4,1,0.7,1.8,0.7
		C162.3,257.2,162.8,257.1,163.2,256.9L163.2,256.9z M160.8,254.6c0-0.9,0.7-1.3,2-1.3c0.6,0,1.1,0,1.3,0.1v2
		c-0.6,0.4-1.3,0.6-2,0.6C161.2,256,160.8,255.5,160.8,254.6L160.8,254.6L160.8,254.6z M167.8,256.5c0.2,0.2,0.6,0.3,1.1,0.4
		c0.5,0.1,1,0.2,1.5,0.2c1,0,1.8-0.3,2.4-0.8c0.6-0.5,0.8-1.2,0.8-1.9c0-0.5-0.1-0.9-0.4-1.3c-0.3-0.3-0.6-0.6-1-0.8
		c-0.4-0.2-0.8-0.3-1.2-0.5c-0.4-0.1-0.8-0.3-1-0.6c-0.3-0.2-0.4-0.5-0.4-0.9s0.1-0.6,0.4-0.8c0.3-0.2,0.7-0.3,1.3-0.3
		c0.6,0,1.2,0.1,1.8,0.3l0.4-1.2c-0.6-0.3-1.3-0.5-2.3-0.5c-0.9,0-1.7,0.2-2.2,0.7c-0.6,0.5-0.8,1.1-0.8,1.9c0,0.5,0.1,1,0.4,1.3
		c0.3,0.4,0.6,0.6,1,0.8c0.4,0.2,0.8,0.3,1.2,0.5c0.4,0.1,0.7,0.3,1,0.6c0.3,0.2,0.4,0.5,0.4,0.9c0,0.4-0.1,0.6-0.4,0.9
		c-0.3,0.2-0.8,0.4-1.4,0.4s-1.3-0.2-2.1-0.5L167.8,256.5L167.8,256.5z M182.3,256.9c0.5-0.2,0.8-0.4,1.1-0.6
		c0.3,0.6,0.7,0.9,1.3,0.9s1.1-0.1,1.5-0.4l-0.3-1c-0.3,0.1-0.6,0.2-0.8,0.2c-0.3,0-0.4-0.2-0.4-0.6v-4.2c0-1.1-0.2-1.9-0.7-2.4
		c-0.5-0.5-1.2-0.7-2.4-0.7c-0.4,0-0.9,0.1-1.4,0.2c-0.5,0.1-1,0.3-1.3,0.5l0.4,1.1c0.9-0.3,1.6-0.5,2.3-0.5s1.1,0.1,1.3,0.4
		c0.2,0.2,0.3,0.7,0.3,1.4v1.3c-0.6-0.1-1.2-0.1-1.8-0.1c-0.7,0-1.3,0.1-1.9,0.4c-0.3,0.2-0.6,0.4-0.8,0.7c-0.2,0.3-0.3,0.7-0.3,1.2
		c0,0.7,0.2,1.3,0.7,1.8c0.4,0.4,1,0.7,1.8,0.7C181.4,257.2,181.9,257.1,182.3,256.9L182.3,256.9z M179.9,254.6c0-0.9,0.7-1.3,2-1.3
		c0.6,0,1.1,0,1.3,0.1v2c-0.6,0.4-1.3,0.6-2,0.6C180.3,256,179.9,255.5,179.9,254.6L179.9,254.6L179.9,254.6z M191,255.2
		c0,1.3,0.6,2,1.7,2c0.7,0,1.3-0.1,1.7-0.3l-0.3-1.1c-0.4,0.1-0.7,0.2-1,0.2c-0.4,0-0.6-0.2-0.6-0.7v-10.3H191V255.2L191,255.2z
		 M201.7,256.5l-0.4-1.1c-0.7,0.3-1.5,0.5-2.3,0.5c-0.8,0-1.4-0.3-1.8-0.9c-0.4-0.6-0.6-1.4-0.6-2.4h5.1c0.2-0.6,0.3-1.1,0.3-1.6
		c0-0.9-0.3-1.6-0.8-2.2c-0.5-0.5-1.3-0.8-2.2-0.8c-1.2,0-2.1,0.4-2.7,1.2c-0.7,0.8-1,1.9-1,3.2s0.3,2.4,0.9,3.3
		c0.6,0.9,1.6,1.3,2.9,1.3C200,257.2,200.9,256.9,201.7,256.5L201.7,256.5L201.7,256.5z M200.5,251.5l-3.7,0
		c0.1-0.4,0.2-0.8,0.5-1.3c0.2-0.2,0.4-0.4,0.7-0.6c0.3-0.2,0.7-0.2,1.1-0.2c0.4,0,0.8,0.2,1.1,0.5c0.3,0.4,0.4,0.8,0.4,1.5V251.5
		L200.5,251.5z M207,256.9c0.5-0.2,0.8-0.4,1.1-0.6c0.3,0.6,0.7,0.9,1.3,0.9s1.1-0.1,1.5-0.4l-0.3-1c-0.3,0.1-0.6,0.2-0.8,0.2
		c-0.3,0-0.4-0.2-0.4-0.6v-4.2c0-1.1-0.2-1.9-0.7-2.4c-0.5-0.5-1.2-0.7-2.4-0.7c-0.4,0-0.9,0.1-1.4,0.2c-0.5,0.1-1,0.3-1.3,0.5
		l0.4,1.1c0.9-0.3,1.6-0.5,2.3-0.5c0.6,0,1.1,0.1,1.3,0.4c0.2,0.2,0.3,0.7,0.3,1.4v1.3c-0.6-0.1-1.2-0.1-1.8-0.1
		c-0.7,0-1.3,0.1-1.9,0.4c-0.3,0.2-0.6,0.4-0.8,0.7c-0.2,0.3-0.3,0.7-0.3,1.2c0,0.7,0.2,1.3,0.7,1.8s1,0.7,1.8,0.7
		C206.1,257.2,206.6,257.1,207,256.9L207,256.9z M204.6,254.6c0-0.9,0.7-1.3,2-1.3c0.6,0,1.1,0,1.3,0.1v2c-0.6,0.4-1.3,0.6-2,0.6
		C205,256,204.6,255.5,204.6,254.6L204.6,254.6L204.6,254.6z M213.7,250.7c0.5-0.9,1.3-1.4,2.6-1.4c0.2,0,0.3,0,0.4,0l0.3-1.2
		c-0.2-0.1-0.4-0.1-0.8-0.1c-0.6,0-1.2,0.2-1.6,0.5c-0.5,0.3-0.8,0.6-1,1l-0.2-1.3h-1.3v8.7h1.6V250.7L213.7,250.7z M224.5,248.8
		c-0.3-0.5-0.9-0.8-1.8-0.8c-0.5,0-1,0.1-1.6,0.4c-0.5,0.3-1,0.5-1.3,0.8l-0.2-1.1h-1.3v8.7h1.5v-6.4c0.3-0.3,0.7-0.6,1.1-0.8
		c0.5-0.2,0.9-0.3,1.4-0.3s0.7,0.1,0.8,0.4c0.1,0.3,0.2,0.7,0.2,1.2v5.9h1.6v-6C225,250.1,224.8,249.3,224.5,248.8L224.5,248.8z
		 M228.8,248.2l-1.6,0.2v8.6h1.6V248.2L228.8,248.2z M227.3,246.4c0.2,0.2,0.5,0.3,0.7,0.3s0.5-0.1,0.7-0.3c0.2-0.2,0.3-0.5,0.3-0.7
		s-0.1-0.5-0.3-0.7c-0.2-0.2-0.4-0.3-0.7-0.3s-0.5,0.1-0.7,0.3c-0.2,0.2-0.3,0.4-0.3,0.7S227.1,246.2,227.3,246.4L227.3,246.4z
		 M237.3,248.8c-0.3-0.5-0.9-0.8-1.8-0.8c-0.5,0-1,0.1-1.6,0.4c-0.5,0.3-1,0.5-1.3,0.8l-0.2-1.1h-1.3v8.7h1.6v-6.4
		c0.3-0.3,0.7-0.6,1.1-0.8c0.5-0.2,0.9-0.3,1.4-0.3c0.4,0,0.7,0.1,0.8,0.4c0.1,0.3,0.2,0.7,0.2,1.2v5.9h1.6v-6
		C237.8,250.1,237.6,249.3,237.3,248.8L237.3,248.8z M240.5,248.9c-0.5,0.6-0.8,1.3-0.8,2.3c0,0.6,0.1,1.2,0.4,1.6
		c0.3,0.5,0.6,0.9,1.1,1.1c-0.4,0.6-0.7,1.1-0.7,1.6c0,0.5,0.1,0.8,0.4,1.1c-1.1,0.6-1.6,1.3-1.6,2.2c0,0.7,0.3,1.3,0.9,1.7
		c0.6,0.4,1.5,0.6,2.6,0.6c1.1,0,2.1-0.3,2.8-0.8c0.7-0.6,1.1-1.3,1.1-2.2c0-0.7-0.2-1.2-0.7-1.5c-0.5-0.4-1.1-0.6-1.9-0.6h-1.6
		c-0.6,0-0.9-0.2-0.9-0.6c0-0.3,0.1-0.6,0.3-1c0.3,0.1,0.6,0.1,0.9,0.1c1,0,1.8-0.3,2.3-0.9c0.5-0.6,0.8-1.3,0.8-2.2
		c0-0.9-0.2-1.6-0.7-2.1c0.8-0.1,1.4-0.2,1.8-0.3l-0.2-1c-0.9,0.2-1.8,0.2-2.7,0.2l-1.4-0.1C241.8,248.1,241.1,248.4,240.5,248.9
		L240.5,248.9z M244.2,249.7c0.3,0.3,0.4,0.8,0.4,1.5c0,1.3-0.6,1.9-1.7,1.9c-1.1,0-1.7-0.6-1.7-1.9c0-1.3,0.6-1.9,1.7-1.9
		C243.5,249.3,243.9,249.4,244.2,249.7L244.2,249.7z M245.1,257.4c0.2,0.1,0.3,0.4,0.3,0.7c0,0.5-0.2,0.9-0.6,1.2
		c-0.4,0.3-1,0.5-1.7,0.5c-0.7,0-1.3-0.1-1.7-0.3s-0.6-0.5-0.6-0.9c0-0.7,0.3-1.1,1-1.4h2.1C244.5,257.2,244.9,257.2,245.1,257.4
		L245.1,257.4z M258.1,256.5l-0.4-1.1c-0.7,0.3-1.5,0.5-2.3,0.5c-0.8,0-1.4-0.3-1.8-0.9c-0.4-0.6-0.6-1.4-0.6-2.4h5.1
		c0.2-0.6,0.3-1.1,0.3-1.6c0-0.9-0.3-1.6-0.8-2.2c-0.5-0.5-1.3-0.8-2.2-0.8c-1.2,0-2.1,0.4-2.7,1.2c-0.7,0.8-1,1.9-1,3.2
		s0.3,2.4,0.9,3.3c0.6,0.9,1.6,1.3,2.9,1.3C256.4,257.2,257.3,256.9,258.1,256.5L258.1,256.5L258.1,256.5z M256.9,251.5l-3.7,0
		c0.1-0.4,0.2-0.8,0.5-1.3c0.2-0.2,0.4-0.4,0.7-0.6c0.3-0.2,0.7-0.2,1.1-0.2c0.4,0,0.8,0.2,1.1,0.5c0.3,0.4,0.4,0.8,0.4,1.5V251.5
		L256.9,251.5z M265,248.2l-1.8,3l-1.8-3h-1.8l2.8,4.1l-3.1,4.6h1.8l2.1-3.5l2.1,3.5h1.8l-3-4.6l2.8-4.1H265L265,248.2z
		 M274.1,256.5l-0.4-1.1c-0.7,0.3-1.5,0.5-2.3,0.5c-0.8,0-1.4-0.3-1.8-0.9c-0.4-0.6-0.6-1.4-0.6-2.4h5.1c0.2-0.6,0.3-1.1,0.3-1.6
		c0-0.9-0.3-1.6-0.8-2.2s-1.3-0.8-2.2-0.8c-1.2,0-2.1,0.4-2.7,1.2c-0.7,0.8-1,1.9-1,3.2s0.3,2.4,0.9,3.3c0.6,0.9,1.6,1.3,2.9,1.3
		C272.4,257.2,273.3,256.9,274.1,256.5L274.1,256.5L274.1,256.5z M272.9,251.5l-3.7,0c0.1-0.4,0.2-0.8,0.5-1.3
		c0.2-0.2,0.4-0.4,0.7-0.6c0.3-0.2,0.7-0.2,1.1-0.2c0.4,0,0.8,0.2,1.1,0.5c0.3,0.4,0.4,0.8,0.4,1.5V251.5L272.9,251.5z M277.8,250.7
		c0.5-0.9,1.3-1.4,2.6-1.4c0.2,0,0.3,0,0.4,0l0.3-1.2c-0.2-0.1-0.4-0.1-0.8-0.1c-0.6,0-1.2,0.2-1.6,0.5c-0.5,0.3-0.8,0.6-1,1
		l-0.2-1.3h-1.3v8.7h1.5V250.7L277.8,250.7z M287.7,256.8l-0.3-1.1c-0.6,0.1-1.1,0.2-1.6,0.2c-1.8,0-2.7-1.1-2.7-3.3
		c0-1.1,0.2-2,0.7-2.5c0.5-0.5,1-0.8,1.7-0.8c0.5,0,1,0.1,1.6,0.3l0.5-1.1c-0.6-0.3-1.4-0.5-2.1-0.5c-1.1,0-2,0.4-2.8,1.1
		c-0.8,0.8-1.1,1.9-1.1,3.4s0.4,2.7,1.1,3.4c0.8,0.8,1.7,1.1,2.9,1.1C286.3,257.2,287,257.1,287.7,256.8L287.7,256.8L287.7,256.8z
		 M291,248.2l-1.6,0.2v8.6h1.6V248.2L291,248.2z M289.5,246.4c0.2,0.2,0.5,0.3,0.7,0.3c0.3,0,0.5-0.1,0.7-0.3
		c0.2-0.2,0.3-0.5,0.3-0.7s-0.1-0.5-0.3-0.7c-0.2-0.2-0.4-0.3-0.7-0.3c-0.3,0-0.5,0.1-0.7,0.3c-0.2,0.2-0.3,0.4-0.3,0.7
		S289.3,246.2,289.5,246.4L289.5,246.4z M292.8,256.5c0.2,0.2,0.6,0.3,1.1,0.4c0.5,0.1,1,0.2,1.5,0.2c1,0,1.8-0.3,2.4-0.8
		c0.6-0.5,0.8-1.2,0.8-1.9c0-0.5-0.1-0.9-0.4-1.3s-0.6-0.6-1-0.8c-0.4-0.2-0.8-0.3-1.2-0.5c-0.4-0.1-0.8-0.3-1-0.6
		c-0.3-0.2-0.4-0.5-0.4-0.9s0.1-0.6,0.4-0.8c0.3-0.2,0.7-0.3,1.3-0.3c0.6,0,1.2,0.1,1.8,0.3l0.4-1.2c-0.6-0.3-1.3-0.5-2.3-0.5
		c-0.9,0-1.7,0.2-2.2,0.7c-0.6,0.5-0.8,1.1-0.8,1.9c0,0.5,0.1,1,0.4,1.3c0.3,0.4,0.6,0.6,1,0.8c0.4,0.2,0.8,0.3,1.2,0.5
		c0.4,0.1,0.7,0.3,1,0.6c0.3,0.2,0.4,0.5,0.4,0.9c0,0.4-0.1,0.6-0.4,0.9c-0.3,0.2-0.8,0.4-1.4,0.4c-0.6,0-1.3-0.2-2.1-0.5
		L292.8,256.5L292.8,256.5z M306.5,256.5l-0.4-1.1c-0.7,0.3-1.5,0.5-2.3,0.5c-0.8,0-1.4-0.3-1.8-0.9c-0.4-0.6-0.6-1.4-0.6-2.4h5.1
		c0.2-0.6,0.3-1.1,0.3-1.6c0-0.9-0.3-1.6-0.8-2.2c-0.5-0.5-1.3-0.8-2.2-0.8c-1.2,0-2.1,0.4-2.7,1.2c-0.7,0.8-1,1.9-1,3.2
		s0.3,2.4,0.9,3.3c0.6,0.9,1.6,1.3,2.9,1.3C304.8,257.2,305.7,256.9,306.5,256.5L306.5,256.5L306.5,256.5z M305.3,251.5l-3.7,0
		c0.1-0.4,0.2-0.8,0.5-1.3c0.2-0.2,0.4-0.4,0.7-0.6s0.7-0.2,1.1-0.2c0.4,0,0.8,0.2,1,0.5c0.3,0.4,0.4,0.8,0.4,1.5V251.5L305.3,251.5
		z"/>
	<path d="M50,247.2l-4.2,4.5v1.2l4.2,4.5l1.4-1.3l-3.7-3.8l3.7-3.8L50,247.2L50,247.2z M44.8,247.2l-4.2,4.5v1.2l4.2,4.5l1.4-1.3
		l-3.7-3.8l3.7-3.8L44.8,247.2L44.8,247.2z"/>
	<path d="M205.3,391l1.4,1.3l4.2-4.5v-1.2l-4.2-4.5l-1.4,1.2l3.7,3.8L205.3,391L205.3,391z M210.5,391l1.4,1.3l4.2-4.5v-1.2
		l-4.2-4.5l-1.4,1.2l3.7,3.8L210.5,391L210.5,391z"/>
	<path d="M64.5,191.8l9.2,12.9l5-3.1l-8-10.8c1-0.4,1.8-0.8,2.5-1.4c2.1-1.6,3.2-4.2,3.2-7.7c0-2.9-0.9-5.2-2.8-6.9
		c-1.1-1-2.3-1.7-3.7-2.1c-1.4-0.4-3.3-0.6-5.6-0.6h-9v31.1h6.7v-11.3h1.2C63.7,191.9,64.2,191.9,64.5,191.8L64.5,191.8L64.5,191.8z
		 M62.4,187h-0.5v-9.9h1.2c2.8,0,4.6,0.4,5.5,1.3s1.3,2.1,1.3,3.9c0,1.8-0.5,3-1.6,3.7C67.4,186.6,65.5,187,62.4,187L62.4,187
		L62.4,187z M102.6,198.6c-0.7,0.2-1.3,0.3-1.7,0.3c-0.8,0-1.2-0.4-1.2-1.3v-9.8c0-3.3-0.7-5.6-2-6.9s-3.6-2-6.8-2
		c-1.2,0-2.6,0.2-4.3,0.5c-1.7,0.4-3.1,0.9-4.2,1.6l1.3,4.1c2-0.7,3.7-1,5.3-1c1.6,0,2.7,0.2,3.3,0.7c0.7,0.5,1,1.5,1,3.1v2.3
		c-1.1-0.1-2.6-0.1-4.4-0.1c-1.8,0-3.6,0.4-5.3,1.2c-0.9,0.5-1.7,1.2-2.3,2.2c-0.6,1-0.9,2.2-0.9,3.6c0,2.1,0.6,3.8,1.9,5
		c1.2,1.2,3.1,1.8,5.5,1.8c2.4,0,4.5-0.7,6.3-2.2c0.9,1.4,2.3,2.1,4.2,2.1c1.9,0,3.6-0.4,5.2-1.3L102.6,198.6L102.6,198.6z
		 M86.5,196.3c0-2,1.5-3,4.6-3c0.7,0,1.4,0,2.3,0.1v4.9c-1.2,0.8-2.5,1.2-3.8,1.2C87.5,199.5,86.5,198.4,86.5,196.3L86.5,196.3
		L86.5,196.3z M112.7,182l-0.6-2.7h-5.3v23.9h6.5V186c1.2-1.1,2.7-1.7,4.4-1.7c0.7,0,1.2,0.1,1.6,0.3c0.8,0.4,1.3,1.6,1.3,3.5v15.2
		h6.5V187c0-0.4,0-0.8,0-1c1.2-1.1,2.7-1.7,4.4-1.7c0.7,0,1.2,0.1,1.6,0.3c0.8,0.4,1.3,1.6,1.3,3.5v15.2h6.5v-16.3
		c0-2.5-0.5-4.5-1.4-5.9c-0.9-1.4-2.8-2.1-5.4-2.1c-1.5,0-2.9,0.3-4.3,1c-1.4,0.6-2.6,1.4-3.4,2.3c-0.5-1.1-1.2-1.9-2.1-2.4
		c-0.9-0.5-2.1-0.8-3.7-0.8s-3.1,0.3-4.5,0.9C114.6,180.5,113.5,181.2,112.7,182L112.7,182L112.7,182z M145.9,170.6v31.6
		c1,0.4,2.4,0.8,4.4,1.1c2,0.3,3.8,0.5,5.5,0.5c4,0,6.9-1.2,8.6-3.5c1.8-2.3,2.7-5.7,2.7-10.2c0-3.6-0.8-6.4-2.5-8.3
		c-1.6-1.9-3.7-2.9-6.3-2.9c-1.1,0-2.2,0.2-3.3,0.6c-1.1,0.4-2,0.8-2.6,1.4v-10.3H145.9L145.9,170.6z M152.4,198.3v-12.8
		c1.4-0.8,2.7-1.3,4.1-1.3c1.4,0,2.4,0.5,3,1.5c0.7,1,1,2.7,1,5.2c0,2.5-0.4,4.4-1.3,5.7c-0.8,1.3-2.3,2-4.5,2
		C154,198.6,153.2,198.5,152.4,198.3L152.4,198.3L152.4,198.3z M182.4,198.3c-0.9,0.2-1.7,0.3-2.5,0.3c-0.8,0-1.3-0.2-1.6-0.6
		c-0.3-0.4-0.4-1-0.4-1.9v-25.4h-6.6v25.1c0,1,0,1.8,0.1,2.4c0,0.6,0.2,1.3,0.4,2.1c0.2,0.8,0.6,1.5,1.1,1.9
		c0.5,0.4,1.2,0.8,2.2,1.2c1,0.3,2.2,0.5,3.7,0.5c1.5,0,3-0.3,4.6-1L182.4,198.3L182.4,198.3z M206.5,198.6
		c-0.7,0.2-1.3,0.3-1.7,0.3c-0.8,0-1.2-0.4-1.2-1.3v-9.8c0-3.3-0.7-5.6-2-6.9c-1.3-1.3-3.6-2-6.8-2c-1.2,0-2.6,0.2-4.3,0.5
		c-1.7,0.4-3.1,0.9-4.2,1.6l1.3,4.1c2-0.7,3.7-1,5.3-1c1.6,0,2.7,0.2,3.3,0.7c0.7,0.5,1,1.5,1,3.1v2.3c-1.1-0.1-2.6-0.1-4.4-0.1
		c-1.8,0-3.6,0.4-5.3,1.2c-0.9,0.5-1.7,1.2-2.3,2.2c-0.6,1-0.9,2.2-0.9,3.6c0,2.1,0.6,3.8,1.9,5c1.2,1.2,3.1,1.8,5.5,1.8
		c2.4,0,4.5-0.7,6.3-2.2c0.9,1.4,2.3,2.1,4.2,2.1c1.9,0,3.6-0.4,5.2-1.3L206.5,198.6L206.5,198.6z M190.5,196.3c0-2,1.5-3,4.6-3
		c0.7,0,1.4,0,2.3,0.1v4.9c-1.2,0.8-2.5,1.2-3.8,1.2C191.5,199.5,190.5,198.4,190.5,196.3L190.5,196.3L190.5,196.3z"/>
	<path d="M62.9,422.6l0.2,7.2h1.3L64,419.7h-1.7l-2.8,7.5l-2.8-7.5h-1.7l-0.5,10.1H56l0.2-7.2c0-0.2,0-0.4,0-0.6c0-0.2,0-0.4,0-0.6
		l2.8,7.3h1.1l2.8-7.3c0,0.2,0,0.4,0,0.6C62.9,422.2,62.9,422.4,62.9,422.6L62.9,422.6L62.9,422.6z M72.9,429.8h1.5l-3.3-10.1h-1.6
		l-3.3,10.1h1.5l0.9-2.6h3.6L72.9,429.8L72.9,429.8z M68.8,426.1l1.4-5l1.5,5H68.8L68.8,426.1z M81.7,420.5
		c-0.3-0.3-0.7-0.5-1.2-0.7c-0.5-0.1-1.1-0.2-1.8-0.2h-2.4v10.1h1.5v-3.9h0.5c0.3,0,0.6,0,0.8,0l3.1,4.2l1.1-0.7l-2.8-3.6
		c0.4-0.1,0.8-0.3,1.1-0.6c0.6-0.5,1-1.3,1-2.4C82.6,421.8,82.3,421.1,81.7,420.5L81.7,420.5L81.7,420.5z M78.3,424.7h-0.6v-3.9h0.8
		c1,0,1.7,0.2,2.1,0.5c0.3,0.3,0.5,0.8,0.5,1.5c0,0.7-0.2,1.2-0.7,1.5C80.2,424.5,79.5,424.7,78.3,424.7L78.3,424.7L78.3,424.7z
		 M87,429.8h1.4V421h2.6v-1.3h-6.7v1.3H87V429.8L87,429.8z M93.1,419.7v10.1h1.5v-10.1H93.1L93.1,419.7z M95.1,416.1l-2.4,1.8
		l0.5,0.8l2.6-1.6L95.1,416.1L95.1,416.1z M105.2,419.7h-1.4v6.9c0,0.5,0,0.9,0.1,1.3l-4.8-8.2h-1.5v10.1H99v-6.9
		c0-0.5,0-0.9-0.1-1.3l4.8,8.2h1.5V419.7L105.2,419.7z M116.7,425.1c-0.3-0.3-0.6-0.5-0.8-0.6c-0.2-0.2-0.6-0.4-1.2-0.7
		c-0.5-0.3-0.9-0.5-1.3-0.8c-0.3-0.3-0.5-0.6-0.5-1s0.1-0.7,0.4-0.9c0.3-0.2,0.7-0.4,1.3-0.4c0.6,0,1.3,0.1,2,0.4l0.4-1.2
		c-0.9-0.3-1.7-0.5-2.6-0.5c-0.8,0-1.5,0.2-2.1,0.7c-0.6,0.5-0.9,1.1-0.9,1.9c0,0.8,0.3,1.4,0.8,1.9c0.3,0.2,0.5,0.4,0.7,0.5
		c0.2,0.1,0.6,0.3,1.2,0.6c0.6,0.3,1.1,0.6,1.4,0.9c0.4,0.3,0.5,0.7,0.5,1.1c0,0.4-0.2,0.8-0.5,1.1c-0.3,0.3-0.8,0.4-1.5,0.4
		c-0.7,0-1.5-0.2-2.5-0.6l-0.4,1.3c0.4,0.2,0.8,0.3,1.4,0.4c0.6,0.1,1.1,0.2,1.6,0.2c1,0,1.7-0.3,2.3-0.8c0.6-0.5,0.9-1.2,0.9-2
		C117.6,426.3,117.3,425.7,116.7,425.1L116.7,425.1L116.7,425.1z M120.4,421.1c-0.6,1-0.9,2.2-0.9,3.6c0,1.4,0.3,2.6,0.9,3.6
		c0.3,0.5,0.7,0.9,1.2,1.2c0.5,0.3,1.1,0.4,1.8,0.4c0.7,0,1.3-0.1,1.8-0.4c0.5-0.3,0.9-0.7,1.2-1.2c0.6-1,0.9-2.2,0.9-3.6
		c0-1.4-0.3-2.6-0.9-3.6c-0.3-0.5-0.7-0.9-1.2-1.2c-0.5-0.3-1.1-0.4-1.8-0.4c-0.7,0-1.3,0.1-1.8,0.4
		C121.1,420.2,120.7,420.6,120.4,421.1L120.4,421.1L120.4,421.1z M121,424.7c0-1.2,0.2-2.1,0.6-2.9c0.4-0.7,1-1.1,1.9-1.1
		c0.8,0,1.5,0.4,1.9,1.1c0.4,0.7,0.6,1.7,0.6,2.9c0,1.2-0.2,2.1-0.6,2.9s-1,1.1-1.9,1.1c-0.8,0-1.5-0.4-1.9-1.1
		C121.2,426.9,121,425.9,121,424.7L121,424.7z M138,422.6l0.2,7.2h1.3l-0.5-10.1h-1.7l-2.8,7.5l-2.8-7.5h-1.7l-0.5,10.1h1.3l0.2-7.2
		c0-0.2,0-0.4,0-0.6c0-0.2,0-0.4,0-0.6l2.8,7.3h1.1l2.8-7.3c0,0.2,0,0.4,0,0.6C137.9,422.2,138,422.4,138,422.6L138,422.6L138,422.6
		z M150.3,422.6l0.2,7.2h1.3l-0.5-10.1h-1.7l-2.8,7.5l-2.8-7.5h-1.7l-0.5,10.1h1.3l0.2-7.2c0-0.2,0-0.4,0-0.6c0-0.2,0-0.4,0-0.6
		l2.8,7.3h1.1l2.8-7.3c0,0.2,0,0.4,0,0.6C150.3,422.2,150.3,422.4,150.3,422.6L150.3,422.6L150.3,422.6z M160.4,429.8h1.5l-3.3-10.1
		h-1.6l-3.3,10.1h1.5l0.9-2.6h3.6L160.4,429.8L160.4,429.8z M156.3,426.1l1.4-5l1.5,5H156.3L156.3,426.1z M169.2,420.5
		c-0.3-0.3-0.7-0.5-1.2-0.7c-0.5-0.1-1.1-0.2-1.8-0.2h-2.4v10.1h1.5v-3.9h0.5c0.3,0,0.6,0,0.8,0l3.1,4.2l1.1-0.7l-2.8-3.6
		c0.4-0.1,0.8-0.3,1.1-0.6c0.6-0.5,1-1.3,1-2.4C170.1,421.8,169.8,421.1,169.2,420.5L169.2,420.5L169.2,420.5z M165.8,424.7h-0.6
		v-3.9h0.8c1,0,1.7,0.2,2.1,0.5c0.3,0.3,0.5,0.8,0.5,1.5c0,0.7-0.2,1.2-0.6,1.5C167.6,424.5,166.9,424.7,165.8,424.7L165.8,424.7
		L165.8,424.7z M173.5,428.8c0.6,0.8,1.5,1.2,2.8,1.1c1.3,0,2.2-0.4,2.8-1.1c0.5-0.6,0.7-1.6,0.7-2.7v-6.4h-1.5v6.2
		c0,1-0.1,1.7-0.4,2.1c-0.3,0.5-0.8,0.7-1.6,0.7c-0.8,0-1.3-0.2-1.6-0.7c-0.3-0.4-0.4-1.1-0.4-2.1v-6.2h-1.5v6.4
		C172.9,427.3,173.1,428.2,173.5,428.8L173.5,428.8L173.5,428.8z M186.8,420.7c0.6,0,1.2,0.1,1.9,0.2l0.3-1.1
		c-0.8-0.2-1.6-0.3-2.4-0.3c-1.3,0-2.3,0.4-3.1,1.3c-0.8,0.8-1.1,2.2-1.1,4c0,0.9,0.1,1.7,0.3,2.4c0.2,0.7,0.5,1.3,0.9,1.7
		c0.8,0.8,1.7,1.2,2.9,1.2c1,0,1.9-0.3,2.9-0.9v-4.3h-3.1v1.2h1.7v2.4c-0.5,0.2-1,0.3-1.5,0.3c-0.8,0-1.4-0.3-1.9-1
		c-0.5-0.7-0.8-1.7-0.8-3.1s0.3-2.4,0.8-3C185.1,421,185.8,420.7,186.8,420.7L186.8,420.7L186.8,420.7z M197.7,429.8h1.5l-3.3-10.1
		h-1.6l-3.3,10.1h1.5l0.9-2.6h3.6L197.7,429.8L197.7,429.8z M193.6,426.1l1.4-5l1.5,5H193.6L193.6,426.1z"/>
</g>
</svg>
