<?xml version="1.0" encoding="utf-8"?>
<!-- Generator: Adobe Illustrator 22.0.1, SVG Export Plug-In . SVG Version: 6.00 Build 0)  -->
<svg version="1.1" id="Ebene_1" xmlns="http://www.w3.org/2000/svg" xmlns:xlink="http://www.w3.org/1999/xlink" x="0px" y="0px"
	 viewBox="0 0 1540 1080" style="enable-background:new 0 0 1540 1080;" xml:space="preserve">
<style type="text/css">
	.st0{fill:none;}
	.st1{fill:#FFFFFF;stroke:#FFFFFF;stroke-miterlimit:10;}
	.st2{font-family:'Faustina-Medium';}
	.st3{font-size:120px;}
	.st4{font-family:'Faustina-Regular';}
	.st5{font-size:50px;}
	.st6{font-family:'Faustina-Bold';}
	.st7{font-size:250px;}
	.st8{letter-spacing:-7;}
</style>
<title>faustina__overview__landscape</title>
<g id="Page-1">
	<g id="Group-2">
		<rect id="Rectangle" y="0" class="st0" width="1540" height="1080"/>
		<g id="knowledge-of-art">
			<text transform="matrix(1 0 0 1 74 514)" class="st1 st2 st3">knowledge of art</text>
		</g>
		<g id="the-process-and-the">
			<text transform="matrix(1 0 0 1 74 649)" class="st1 st4 st5">the process and the product of planning,</text>
			<text transform="matrix(1 0 0 1 74 712)" class="st1 st4 st5">designing, and construc</text>
			<text transform="matrix(1 0 0 1 567.64 712)" class="st1 st4 st5">t</text>
			<text transform="matrix(1 0 0 1 585.04 712)" class="st1 st4 st5">ing buildings</text>
			<text transform="matrix(1 0 0 1 74 775)" class="st1 st4 st5">and other physical structure</text>
			<text transform="matrix(1 0 0 1 660.84 775)" class="st1 st4 st5">s</text>
			<text transform="matrix(1 0 0 1 680.99 775)" class="st1 st4 st5">.</text>
		</g>
		<g id="Faustina">
			<text transform="matrix(1 0 0 1 74 322)" class="st1 st6 st7 st8">F</text>
			<text transform="matrix(1 0 0 1 200.75 322)" class="st1 st6 st7">austina</text>
		</g>
	</g>
</g>
</svg>
