<?xml version="1.0" encoding="utf-8"?>
<!-- Generator: Adobe Illustrator 22.0.1, SVG Export Plug-In . SVG Version: 6.00 Build 0)  -->
<svg version="1.1" id="Ebene_1" xmlns="http://www.w3.org/2000/svg" xmlns:xlink="http://www.w3.org/1999/xlink" x="0px" y="0px"
	 viewBox="0 0 375 600" style="enable-background:new 0 0 375 600;" xml:space="preserve">
<style type="text/css">
	.st0{fill:#FFFFFF;stroke:#FFFFFF;stroke-miterlimit:10;}
	.st1{font-family:'Faustina-Bold';}
	.st2{font-size:71px;}
	.st3{letter-spacing:-2;}
	.st4{font-family:'Faustina-Medium';}
	.st5{font-size:32px;}
	.st6{fill:none;}
	.st7{font-family:'Faustina-Regular';}
	.st8{font-size:18px;}
</style>
<title>faustina__overview__portrait</title>
<g id="Page-1">
	<g id="Group">
		<g id="Faustina">
			<text transform="matrix(1 0 0 1 30 110)" class="st0 st1 st2 st3">F</text>
			<text transform="matrix(1 0 0 1 66 110)" class="st0 st1 st2">austina</text>
		</g>
		<g id="knowledge-of-art">
			<text transform="matrix(1 0 0 1 30 158)" class="st0 st4 st5">knowledge of art</text>
		</g>
		<rect id="Rectangle" y="0" class="st6" width="375" height="600"/>
		<g id="the-process-and-the">
			<text transform="matrix(1 0 0 1 30 215)" class="st0 st7 st8">the process and the product of planning,</text>
			<text transform="matrix(1 0 0 1 30 238)" class="st0 st7 st8">designing, and construc</text>
			<text transform="matrix(1 0 0 1 207.71 238)" class="st0 st7 st8">t</text>
			<text transform="matrix(1 0 0 1 213.97 238)" class="st0 st7 st8">ing buildings</text>
			<text transform="matrix(1 0 0 1 30 261)" class="st0 st7 st8">and other physical structure</text>
			<text transform="matrix(1 0 0 1 241.26 261)" class="st0 st7 st8">s</text>
			<text transform="matrix(1 0 0 1 248.52 261)" class="st0 st7 st8">.</text>
		</g>
	</g>
</g>
</svg>
