<?xml version="1.0" encoding="utf-8"?>
<!-- Generator: Adobe Illustrator 22.0.1, SVG Export Plug-In . SVG Version: 6.00 Build 0)  -->
<svg version="1.1" id="Ebene_1" xmlns="http://www.w3.org/2000/svg" xmlns:xlink="http://www.w3.org/1999/xlink" x="0px" y="0px"
	 viewBox="0 0 375 600" style="enable-background:new 0 0 375 600;" xml:space="preserve">
<style type="text/css">
	.st0{enable-background:new    ;}
	.st1{fill:#FFFFFF;}
</style>
<title>faustina__overview__portrait</title>
<g id="Page-1">
	<g id="Group">
		<g id="Faustina">
			<g class="st0">
				<path class="st1" d="M32.5,107.5l5.7-1.3V70.8l-5.7-1.3v-4h34.6v13.3h-4.8l-1.8-8h-9.1l-3.1,0.5v15.3h8.4l1.6-4.9H62v15.7h-3.8
					L56.7,92h-8.4v14.1l5.7,1.3v4H32.5V107.5z"/>
			</g>
			<g class="st0">
				<path class="st1" d="M70.9,109.7c-1.7-1.8-2.6-4-2.6-6.6c0-3,1.1-5.3,3.3-7.1c2.2-1.7,5-2.9,8.6-3.4l7.6-1.3v-4.7
					c0-1.8-0.4-3.2-1.1-4.1c-0.7-0.9-2.1-1.3-4.2-1.3c-1,0-1.8,0-2.3,0.1c-0.5,0.1-0.8,0.2-0.9,0.2l-1,6.5c-0.2,0.1-0.7,0.2-1.4,0.4
					c-0.7,0.2-1.5,0.3-2.4,0.3c-1.7,0-2.9-0.3-3.7-1c-0.8-0.6-1.2-1.7-1.2-3.2c0-2,0.8-3.7,2.4-5.1c1.6-1.4,3.6-2.4,6-3.1
					c2.4-0.7,4.6-1,6.8-1c4.2,0,7.3,0.7,9.3,2.2c2,1.5,3,4,3,7.5v20.7l5.2,1v3.6c-0.2,0.1-0.7,0.3-1.5,0.5c-0.8,0.2-1.8,0.5-2.9,0.7
					c-1.2,0.2-2.3,0.4-3.5,0.4c-1.8,0-3.2-0.3-3.9-0.8c-0.8-0.5-1.4-1.4-1.7-2.5h-0.6c-0.9,0.9-2.1,1.7-3.7,2.5
					c-1.6,0.8-3.5,1.2-5.7,1.2C75.3,112.4,72.7,111.5,70.9,109.7z M87.8,105v-8.8c-2.7,0.2-4.7,0.6-6,1.1c-1.4,0.5-2.3,1.1-2.7,1.8
					c-0.5,0.7-0.7,1.6-0.7,2.7c0,2.9,1.8,4.3,5.3,4.3C84.9,106.2,86.3,105.8,87.8,105z"/>
				<path class="st1" d="M111.7,109.9c-1.7-1.6-2.6-4.2-2.6-7.6V82.5l-5.7-1.1v-4.1l12.4-1.6l2.6,1v23.1c0,1.7,0.2,3,0.5,3.9
					c0.4,0.9,1,1.5,1.8,1.9c0.9,0.4,2.1,0.6,3.8,0.6c0.9,0,1.9-0.1,2.9-0.3c1-0.2,1.8-0.4,2.4-0.6V82.5l-5.8-1.1v-4.1l12.4-1.6
					l2.7,1v28.7l5.6,1.1v4.1l-12.4,1.6l-2-3.2h-0.6c-1.3,1-2.9,1.8-4.8,2.4s-3.7,1-5.4,1C116.1,112.4,113.4,111.5,111.7,109.9z"/>
				<path class="st1" d="M153.7,99.9l1.7,5.7c0.7,0.5,1.4,0.9,2.2,1.2c0.8,0.4,1.9,0.5,3.2,0.5c2.3,0,3.9-0.4,4.7-1.1
					c0.8-0.7,1.2-1.9,1.2-3.7c0-1.4-0.6-2.4-1.7-3c-1.1-0.6-2.9-1.1-5.3-1.7c-2.4-0.6-4.3-1.2-5.9-1.8c-1.5-0.6-2.9-1.7-4-3.2
					c-1.1-1.5-1.7-3.6-1.7-6.2c0-3.7,1.3-6.6,3.8-8.4c2.6-1.9,6.1-2.8,10.6-2.8c1.9,0,4,0.2,6.1,0.5s3.7,0.6,4.7,0.9L173,87h-4.5
					l-1.5-5c-0.1,0-0.3-0.2-0.7-0.3c-0.4-0.2-1-0.3-1.7-0.5c-0.7-0.1-1.5-0.2-2.3-0.2c-2.2,0-3.7,0.3-4.5,1
					c-0.8,0.7-1.2,1.6-1.2,2.7c0,1.2,0.5,2.1,1.5,2.7c1,0.6,2.7,1.2,5.1,1.9c2.4,0.7,4.4,1.3,6,2.1c1.6,0.7,2.9,1.8,4.1,3.4
					c1.1,1.6,1.7,3.7,1.7,6.3c0,4-1.4,6.9-4.1,8.7c-2.7,1.8-6,2.7-10,2.7c-2.4,0-4.8-0.3-7.3-0.8c-2.4-0.5-4.1-1.1-5-1.5l0.5-10.3
					H153.7z"/>
				<path class="st1" d="M176.5,81.5v-4.6l6.8-1.5l3.1-8.6h6.2v9.3h10v3.3l-1,2.1h-9v19.8c0,1.8,0.3,3,1,3.6
					c0.6,0.6,1.6,0.9,2.9,0.9c0.8,0,1.6-0.1,2.4-0.2c0.8-0.2,1.5-0.3,2-0.5c0.5-0.2,0.9-0.3,1-0.4l1.2,3.6c0.1,0-0.3,0.4-1.4,1.1
					s-2.4,1.3-3.9,1.9c-1.5,0.6-3.1,0.9-4.8,0.9c-3.6,0-6.1-0.8-7.6-2.3c-1.4-1.6-2.2-4-2.2-7.2V81.5H176.5z"/>
				<path class="st1" d="M205.9,107.6l5.6-1V82.5l-5.6-1.1v-4.1l12.4-1.6l2.6,1v30l5,1v3.9h-20V107.6z M211.1,70.1
					c-1-1.1-1.6-2.4-1.6-4.1c0-1.7,0.6-3.1,1.8-4.3c1.2-1.2,2.6-1.8,4.3-1.8c1.6,0,2.9,0.5,4,1.5c1,1,1.6,2.3,1.6,4
					s-0.6,3.2-1.7,4.4c-1.1,1.2-2.6,1.8-4.4,1.8C213.4,71.7,212.1,71.1,211.1,70.1z"/>
				<path class="st1" d="M228.1,107.6l5.6-1V82.5l-5.6-1.1v-4.1l12.4-1.6l2,3.3h0.3c1.8-1.1,3.6-2,5.5-2.7c1.9-0.7,3.7-1,5.2-1
					c6.7,0,10.1,3.4,10.1,10.2v21.2l5.3,1v3.9h-19.6v-3.9l5-1V87.1c0-2.1-0.4-3.6-1.2-4.3c-0.8-0.8-2.3-1.1-4.4-1.1
					c-1.6,0-3.4,0.2-5.5,0.6v24.4l5,1v3.9h-20V107.6z"/>
				<path class="st1" d="M274.3,109.7c-1.7-1.8-2.6-4-2.6-6.6c0-3,1.1-5.3,3.3-7.1c2.2-1.7,5-2.9,8.6-3.4l7.6-1.3v-4.7
					c0-1.8-0.4-3.2-1.1-4.1c-0.7-0.9-2.1-1.3-4.2-1.3c-1,0-1.8,0-2.3,0.1c-0.5,0.1-0.8,0.2-0.9,0.2l-1,6.5c-0.2,0.1-0.7,0.2-1.4,0.4
					c-0.7,0.2-1.5,0.3-2.4,0.3c-1.7,0-2.9-0.3-3.7-1c-0.8-0.6-1.2-1.7-1.2-3.2c0-2,0.8-3.7,2.4-5.1c1.6-1.4,3.6-2.4,6-3.1
					c2.4-0.7,4.6-1,6.8-1c4.2,0,7.3,0.7,9.3,2.2c2,1.5,3,4,3,7.5v20.7l5.2,1v3.6c-0.2,0.1-0.7,0.3-1.5,0.5c-0.8,0.2-1.8,0.5-2.9,0.7
					c-1.2,0.2-2.3,0.4-3.5,0.4c-1.8,0-3.2-0.3-3.9-0.8s-1.4-1.4-1.7-2.5h-0.6c-0.9,0.9-2.1,1.7-3.7,2.5c-1.6,0.8-3.5,1.2-5.7,1.2
					C278.7,112.4,276.1,111.5,274.3,109.7z M291.2,105v-8.8c-2.7,0.2-4.7,0.6-6,1.1c-1.4,0.5-2.3,1.1-2.7,1.8
					c-0.5,0.7-0.7,1.6-0.7,2.7c0,2.9,1.8,4.3,5.3,4.3C288.3,106.2,289.7,105.8,291.2,105z"/>
			</g>
		</g>
		<g id="knowledge-of-art">
			<g class="st0">
				<path class="st1" d="M33.1,157.6v-17.9l-2.6-0.4v-1.4l4.9-0.7l0.8,0.5v12.2h1.6l3.3-4v-0.4l-1.9-0.4v-1.4h6.6v1.4l-2,0.5
					l-3.6,4.6l4.2,7.2l2.7,0.6v1.4h-5.6v-0.6c0-0.4-0.1-0.7-0.3-0.9l-3.5-6.2h-1.3v5.8l2.3,0.4v1.4h-8v-1.4L33.1,157.6z"/>
				<path class="st1" d="M47,158.1l2.5-0.4v-11.2l-2.5-0.5v-1.5l5-0.9l0.4,1.2l0.1,0.1c0.5-0.3,1.3-0.7,2.2-1.1
					c1-0.4,1.9-0.5,2.8-0.5c1.4,0,2.4,0.4,3.2,1.2s1.1,1.9,1.1,3.3v9.9l2.5,0.4v1.4h-8v-1.4l2.4-0.4v-9.3c0-0.9-0.2-1.6-0.7-2
					s-1.3-0.6-2.4-0.6c-1.1,0-2.1,0.1-3,0.4v11.5l2.4,0.4v1.4H47V158.1z"/>
				<path class="st1" d="M67.4,157.7c-1.2-1.4-1.7-3.4-1.7-5.9c0-1.5,0.3-2.9,0.9-4.2c0.6-1.3,1.5-2.3,2.6-3.1
					c1.1-0.8,2.5-1.2,4.1-1.2c2.3,0,4,0.7,5.2,2.1c1.2,1.4,1.8,3.3,1.8,5.7c0,1.6-0.3,3.1-0.8,4.4c-0.6,1.3-1.4,2.4-2.5,3.2
					c-1.1,0.8-2.6,1.2-4.2,1.2C70.3,159.9,68.6,159.1,67.4,157.7z M76.1,156.3c0.5-1,0.8-2.6,0.8-4.6c0-2.2-0.3-3.8-0.8-4.8
					c-0.6-1-1.6-1.5-3-1.5c-1.1,0-1.9,0.2-2.5,0.7c-0.6,0.5-0.9,1.1-1.2,2c-0.2,0.9-0.3,2.1-0.3,3.5c0,2.1,0.3,3.6,0.9,4.6
					c0.6,1,1.7,1.5,3.3,1.5C74.6,157.8,75.6,157.3,76.1,156.3z"/>
				<path class="st1" d="M87.3,159.7l-5.1-14l-1.9-0.5v-1.5h7.5v1.6l-2.1,0.3v0.4l2.6,8.3l0.3,1.4l0.3-1.6l3-10.3h3.3l2.9,10.5
					l0.3,1.4l0.3-1.6l2.5-7.9l0-0.4l-2.1-0.3v-1.6h6.3v1.5l-1.9,0.5l-4.6,14h-2.1l-3.8-12.2l-3.6,12.2H87.3z"/>
				<path class="st1" d="M105.5,158.1l2.6-0.4v-17.8l-2.6-0.5v-1.5l4.8-0.7l0.9,0.3v20.2l2.4,0.4v1.4h-8.1V158.1z"/>
				<path class="st1" d="M116.8,157.8c-1.2-1.4-1.8-3.3-1.8-5.8c0-1.7,0.3-3.2,0.9-4.5c0.6-1.3,1.5-2.3,2.6-3
					c1.1-0.7,2.4-1.1,3.8-1.1c1.9,0,3.3,0.6,4.2,1.7c0.9,1.2,1.4,2.6,1.4,4.2c0,1.1-0.1,1.9-0.3,2.2c-0.2,0.4-0.6,0.6-1.2,0.6h-8
					c0,1.6,0.4,2.9,1.1,3.8s2,1.4,3.6,1.4c0.8,0,1.4-0.1,2-0.2c0.6-0.1,1-0.2,1.3-0.4c0.3-0.1,0.5-0.2,0.6-0.2l0.5,1.1
					c0,0-0.3,0.3-0.8,0.6c-0.5,0.4-1.2,0.7-2,1c-0.8,0.3-1.7,0.5-2.7,0.5C119.8,159.8,118,159.1,116.8,157.8z M124.6,150.2
					c0.1-0.4,0.1-0.8,0.1-1.2c0-1.2-0.2-2.1-0.6-2.7s-1.2-0.9-2.2-0.9c-1.2,0-2.1,0.4-2.6,1.3c-0.6,0.9-0.9,2.1-0.9,3.8L124.6,150.2
					z"/>
				<path class="st1" d="M132,158c-1.1-1.2-1.6-3.1-1.6-5.5c0-2.1,0.3-3.8,1-5.2c0.7-1.4,1.5-2.4,2.6-3s2.1-0.9,3.3-0.9
					c1.4,0,2.5,0.4,3.4,1.1l0-0.3l-0.1-0.4v-3.9l-2.6-0.7v-1.4l4.7-0.5l1,0.4v19.5l2.4,0.5v1.4l-4.7,0.7l-0.5-1.6l-0.1,0
					c-0.4,0.4-1,0.9-1.7,1.2c-0.8,0.4-1.6,0.6-2.7,0.6C134.6,159.8,133.1,159.2,132,158z M139.2,157.1c0.6-0.2,1-0.3,1.4-0.5V146
					c-0.9-0.3-1.8-0.5-2.8-0.5c-1.3,0-2.3,0.5-3,1.4c-0.7,0.9-1,2.5-1,4.7c0,2.1,0.3,3.6,0.8,4.4c0.6,0.9,1.5,1.3,2.9,1.3
					C138.1,157.4,138.7,157.3,139.2,157.1z"/>
				<path class="st1" d="M149,163.9c-1.2-0.6-1.7-1.5-1.7-2.7c0-0.9,0.3-1.6,1-2.3c0.7-0.6,1.5-1.2,2.4-1.7c-0.4-0.4-0.6-1-0.6-1.6
					c0-0.4,0.2-0.8,0.5-1.2c0.3-0.4,0.7-0.7,1.1-1c-1.3-0.3-2.3-0.8-2.9-1.7c-0.7-0.9-1-1.8-1-2.9s0.3-2.1,0.8-2.9s1.3-1.5,2.3-2
					c1-0.5,2.1-0.7,3.2-0.7c1.5,0,2.6,0.3,3.5,1c0.5-0.4,1-0.7,1.5-0.9c0.5-0.3,0.9-0.4,1.5-0.4c0.5,0,0.8,0.1,1.1,0.4
					c0.3,0.2,0.4,0.6,0.4,1.1c0,0.3-0.1,0.7-0.3,0.9s-0.4,0.5-0.5,0.7l-1-0.3c-0.1,0-0.3-0.1-0.6-0.2c-0.3-0.1-0.5-0.1-0.8-0.1
					c0.3,0.4,0.6,0.9,0.7,1.5s0.2,1.1,0.2,1.6c0,1-0.3,1.9-0.8,2.7c-0.6,0.8-1.3,1.4-2.3,1.9c-0.9,0.4-2,0.7-3.1,0.7h-0.4v1.6
					l3.5,0.6c1.6,0.3,2.8,0.7,3.6,1.3c0.8,0.5,1.2,1.4,1.2,2.5c0,1-0.4,1.9-1.1,2.7c-0.7,0.8-1.6,1.3-2.8,1.8
					c-1.2,0.4-2.5,0.6-3.9,0.6C151.7,164.8,150.2,164.5,149,163.9z M157.4,162.3c0.7-0.4,1.1-1,1.1-1.7c0-0.5-0.1-0.9-0.4-1.2
					c-0.3-0.3-0.8-0.6-1.6-0.7l-4.6-0.8c-0.4,0.4-0.8,0.8-1.1,1.3c-0.3,0.5-0.5,1-0.5,1.5c0,0.8,0.3,1.3,0.9,1.7
					c0.6,0.3,1.6,0.5,3.1,0.5C155.7,163,156.7,162.8,157.4,162.3z M155.9,151c0.5-0.5,0.7-1.3,0.7-2.5c0-1.1-0.2-1.9-0.6-2.4
					s-1.1-0.8-2.1-0.8c-1.1,0-1.8,0.3-2.3,0.8c-0.4,0.5-0.7,1.3-0.7,2.5c0,1.1,0.2,1.9,0.7,2.4c0.4,0.5,1.2,0.7,2.1,0.7
					S155.5,151.5,155.9,151z"/>
				<path class="st1" d="M164.2,157.8c-1.2-1.4-1.8-3.3-1.8-5.8c0-1.7,0.3-3.2,0.9-4.5c0.6-1.3,1.5-2.3,2.6-3
					c1.1-0.7,2.4-1.1,3.8-1.1c1.9,0,3.3,0.6,4.2,1.7c0.9,1.2,1.4,2.6,1.4,4.2c0,1.1-0.1,1.9-0.3,2.2c-0.2,0.4-0.6,0.6-1.2,0.6h-8
					c0,1.6,0.4,2.9,1.1,3.8s2,1.4,3.6,1.4c0.8,0,1.4-0.1,2-0.2c0.6-0.1,1-0.2,1.3-0.4c0.3-0.1,0.5-0.2,0.6-0.2l0.5,1.1
					c0,0-0.3,0.3-0.8,0.6c-0.5,0.4-1.2,0.7-2,1c-0.8,0.3-1.7,0.5-2.7,0.5C167.2,159.8,165.4,159.1,164.2,157.8z M172,150.2
					c0.1-0.4,0.1-0.8,0.1-1.2c0-1.2-0.2-2.1-0.6-2.7s-1.2-0.9-2.2-0.9c-1.2,0-2.1,0.4-2.6,1.3c-0.6,0.9-0.9,2.1-0.9,3.8L172,150.2z"
					/>
				<path class="st1" d="M185.3,157.7c-1.2-1.4-1.7-3.4-1.7-5.9c0-1.5,0.3-2.9,0.9-4.2c0.6-1.3,1.5-2.3,2.6-3.1
					c1.1-0.8,2.5-1.2,4.1-1.2c2.3,0,4,0.7,5.2,2.1c1.2,1.4,1.8,3.3,1.8,5.7c0,1.6-0.3,3.1-0.8,4.4c-0.6,1.3-1.4,2.4-2.5,3.2
					c-1.1,0.8-2.6,1.2-4.2,1.2C188.2,159.9,186.5,159.1,185.3,157.7z M194,156.3c0.5-1,0.8-2.6,0.8-4.6c0-2.2-0.3-3.8-0.8-4.8
					c-0.6-1-1.6-1.5-3-1.5c-1.1,0-1.9,0.2-2.5,0.7s-0.9,1.1-1.2,2c-0.2,0.9-0.3,2.1-0.3,3.5c0,2.1,0.3,3.6,0.9,4.6
					c0.6,1,1.7,1.5,3.3,1.5C192.5,157.8,193.5,157.3,194,156.3z"/>
				<path class="st1" d="M199.5,158.1l2.3-0.4v-12h-2.1V144l2.1-0.4c0-1.3,0.4-2.4,0.9-3.4s1.3-1.8,2.3-2.3c1-0.5,2.1-0.8,3.2-0.8
					c0.7,0,1.2,0.1,1.6,0.4s0.6,0.7,0.6,1.2c0,0.4-0.1,0.8-0.4,1.1c-0.2,0.3-0.5,0.5-0.7,0.6c0,0-0.2-0.1-0.8-0.2
					c-0.2,0-0.5-0.1-0.9-0.2c-0.5-0.1-0.8-0.2-1.1-0.3c-0.3-0.1-0.5-0.1-0.7-0.1c-0.3,0-0.7,0.1-1,0.2v3.8h4.1v1.1l-0.4,0.9h-3.7
					v11.9l3.3,0.5v1.5h-8.7V158.1z"/>
				<path class="st1" d="M217.5,158.6c-0.8-0.8-1.1-1.7-1.1-2.9c0-1.3,0.5-2.4,1.4-3.2s2.3-1.3,4.2-1.6l3-0.5v-2.3
					c0-0.9-0.2-1.6-0.7-2c-0.5-0.4-1.2-0.6-2.2-0.6c-0.5,0-0.9,0-1.2,0.1c-0.3,0.1-0.5,0.1-0.6,0.1l-0.5,2.9c0,0-0.2,0.1-0.4,0.1
					c-0.2,0.1-0.5,0.1-0.8,0.1c-0.5,0-0.9-0.1-1.2-0.4c-0.3-0.3-0.5-0.7-0.5-1.2c0-0.8,0.4-1.6,1.2-2.2c0.8-0.6,1.7-1.1,2.7-1.4
					c1.1-0.3,2-0.5,2.7-0.5c1.5,0,2.6,0.3,3.4,1c0.8,0.7,1.2,1.6,1.2,2.8v10l2.3,0.4v1.3c-0.1,0-0.3,0.1-0.6,0.2
					c-0.3,0.1-0.7,0.2-1.2,0.3c-0.5,0.1-1,0.1-1.5,0.1c-0.6,0-1.1-0.1-1.3-0.4c-0.3-0.3-0.4-0.6-0.5-1.1h-0.2
					c-0.3,0.3-0.8,0.7-1.6,1.1c-0.8,0.4-1.6,0.6-2.5,0.6C219.4,159.8,218.3,159.4,217.5,158.6z M224,157.3c0.5-0.1,0.8-0.3,1-0.4
					v-4.8c-1.9,0.1-3.3,0.5-4.1,0.9c-0.8,0.5-1.2,1.2-1.2,2.1c0,0.7,0.2,1.2,0.7,1.6c0.5,0.4,1.2,0.7,2.1,0.7
					C223.1,157.5,223.6,157.5,224,157.3z"/>
				<path class="st1" d="M234.1,157.6v-11.3l-2.5-0.5v-1.5l4.9-0.8l0.7,1.8c0.1-0.1,0.4-0.3,0.8-0.6c0.4-0.3,0.9-0.6,1.4-0.9
					c0.5-0.3,1-0.4,1.5-0.4c0.5,0,0.8,0.1,1.1,0.4c0.3,0.3,0.4,0.7,0.4,1.2c0,0.3-0.1,0.7-0.2,0.9c-0.1,0.3-0.3,0.5-0.5,0.7
					c-0.2,0.2-0.3,0.3-0.3,0.3l-1.7-0.5c-0.4-0.1-0.7-0.2-1.2-0.2c-0.2,0-0.6,0.1-1.2,0.2v11.1l3.1,0.4v1.5h-8.5v-1.4L234.1,157.6z"
					/>
				<path class="st1" d="M243.2,145.5V144l2.7-0.7l1-3.5h2.1v3.8h4.5v1.1l-0.4,0.9H249v10c0,0.7,0.1,1.1,0.4,1.4
					c0.3,0.2,0.7,0.4,1.3,0.4c0.5,0,1.1-0.1,1.6-0.2s0.9-0.2,0.9-0.2l0.4,1.2c0,0-0.2,0.2-0.6,0.4c-0.4,0.3-0.9,0.6-1.5,0.8
					c-0.6,0.2-1.2,0.4-1.8,0.4c-1.4,0-2.4-0.3-2.9-1c-0.6-0.7-0.8-1.6-0.8-2.8v-10.3H243.2z"/>
			</g>
		</g>
		<g id="the-process-and-the">
			<g class="st0">
				<path class="st1" d="M30.2,208.5v-0.8l1.4-0.4l0.4-1.9h1v2.1h2.5v0.5l-0.3,0.5h-2.3v5.9c0,0.4,0.1,0.6,0.2,0.7
					c0.1,0.1,0.4,0.2,0.7,0.2c0.3,0,0.6,0,0.9-0.1c0.3-0.1,0.5-0.1,0.6-0.1l0.2,0.6c0,0-0.1,0.1-0.3,0.2c-0.2,0.2-0.5,0.3-0.8,0.4
					s-0.6,0.2-0.9,0.2c-0.7,0-1.2-0.2-1.5-0.5c-0.3-0.3-0.4-0.8-0.4-1.5v-6H30.2z"/>
				<path class="st1" d="M36.6,215.8l1.5-0.3v-10.2l-1.4-0.3v-0.7l2.5-0.4l0.4,0.2v4.3c0.4-0.3,0.9-0.5,1.4-0.7
					c0.5-0.2,1-0.3,1.4-0.3c0.7,0,1.2,0.2,1.7,0.6c0.4,0.4,0.7,1,0.7,1.9v5.6l1.4,0.3v0.7h-4.3v-0.7l1.4-0.3v-5.4
					c0-0.5-0.2-0.9-0.5-1.1s-0.8-0.3-1.4-0.3c-0.2,0-0.5,0-0.9,0.1s-0.7,0.1-0.9,0.2v6.6l1.4,0.3v0.7h-4.4V215.8z"/>
				<path class="st1" d="M48,215.4c-0.7-0.8-1-1.9-1-3.1c0-0.9,0.2-1.8,0.5-2.5c0.3-0.7,0.8-1.3,1.4-1.7s1.3-0.6,2.1-0.6
					c1,0,1.7,0.3,2.2,1c0.5,0.6,0.7,1.4,0.7,2.3c0,0.6-0.1,1.1-0.2,1.3c-0.1,0.2-0.3,0.3-0.7,0.3h-4.5c0,0.9,0.2,1.7,0.7,2.2
					s1.2,0.9,2.2,0.9c0.4,0,0.8,0,1.1-0.1c0.3-0.1,0.6-0.1,0.7-0.2c0.2-0.1,0.3-0.1,0.3-0.1l0.3,0.5c0,0-0.1,0.1-0.4,0.4
					s-0.6,0.4-1.1,0.6c-0.4,0.2-0.9,0.3-1.5,0.3C49.6,216.7,48.6,216.3,48,215.4z M52.4,211.3c0-0.2,0.1-0.5,0.1-0.7
					c0-0.7-0.1-1.3-0.4-1.6c-0.3-0.4-0.7-0.5-1.4-0.5c-0.7,0-1.3,0.3-1.6,0.8c-0.3,0.5-0.5,1.3-0.5,2.2L52.4,211.3z"/>
				<path class="st1" d="M58.9,218.7l1.2-0.3v-9.4l-1.4-0.3v-0.7l2.7-0.5l0.2,0.7l0,0.1c0.3-0.3,0.8-0.5,1.2-0.7s0.9-0.3,1.3-0.3
					c1.1,0,1.9,0.4,2.5,1.1c0.6,0.7,0.9,1.7,0.9,3.1c0,1-0.2,1.9-0.5,2.6c-0.3,0.8-0.8,1.3-1.4,1.7c-0.6,0.4-1.3,0.6-2.1,0.6
					c-0.3,0-0.7-0.1-1-0.2c-0.3-0.1-0.6-0.3-0.9-0.5v2.6l1.6,0.2v0.8h-4.3V218.7z M65.2,214.6c0.4-0.5,0.6-1.4,0.6-2.6
					c0-1.2-0.2-2.1-0.5-2.6c-0.4-0.5-1-0.8-1.8-0.8c-0.6,0-1.2,0.1-1.9,0.3v6c0.2,0.1,0.5,0.2,0.8,0.3c0.3,0.1,0.6,0.1,1,0.1
					C64.2,215.5,64.8,215.2,65.2,214.6z"/>
				<path class="st1" d="M69.9,215.5V209l-1.4-0.3V208l2.6-0.5l0.3,1c0.1-0.1,0.2-0.2,0.4-0.4s0.5-0.3,0.8-0.5s0.6-0.2,0.8-0.2
					c0.2,0,0.4,0.1,0.6,0.2s0.2,0.4,0.2,0.6c0,0.2,0,0.4-0.1,0.5c-0.1,0.1-0.2,0.3-0.3,0.3c-0.1,0.1-0.1,0.1-0.2,0.1l-0.8-0.2
					c-0.1,0-0.2-0.1-0.3-0.1c-0.1,0-0.2,0-0.3,0c-0.2,0-0.3,0-0.5,0.1c-0.2,0-0.3,0.1-0.3,0.1v6.4l1.7,0.2v0.8h-4.4v-0.7L69.9,215.5
					z"/>
				<path class="st1" d="M76,215.5c-0.7-0.8-1-1.9-1-3.3c0-0.9,0.2-1.6,0.5-2.4c0.3-0.7,0.8-1.3,1.4-1.7c0.6-0.4,1.4-0.6,2.2-0.6
					c1.3,0,2.2,0.4,2.9,1.2c0.7,0.8,1,1.8,1,3.2c0,0.9-0.2,1.8-0.5,2.5c-0.3,0.7-0.8,1.3-1.4,1.8s-1.4,0.6-2.3,0.6
					C77.6,216.7,76.7,216.3,76,215.5z M80.9,214.7c0.3-0.6,0.5-1.5,0.5-2.6c0-1.3-0.2-2.2-0.5-2.8s-1-0.9-1.8-0.9
					c-0.6,0-1.1,0.1-1.5,0.4c-0.3,0.3-0.6,0.7-0.7,1.2c-0.1,0.5-0.2,1.2-0.2,2c0,1.2,0.2,2,0.6,2.6c0.4,0.6,1,0.9,2,0.9
					C80,215.6,80.6,215.3,80.9,214.7z"/>
				<path class="st1" d="M90.3,215.9c-0.3,0.2-0.6,0.4-1,0.5c-0.4,0.2-0.9,0.2-1.4,0.2c-0.7,0-1.4-0.2-2-0.5s-1-0.8-1.4-1.5
					s-0.5-1.5-0.5-2.4c0-0.9,0.2-1.7,0.5-2.4s0.8-1.3,1.4-1.8c0.6-0.4,1.4-0.7,2.2-0.7c0.9,0,1.5,0.2,2,0.7c0.5,0.4,0.7,1,0.7,1.6
					c0,0.2-0.1,0.4-0.2,0.6c-0.2,0.2-0.4,0.3-0.6,0.3c-0.2,0-0.3,0-0.4-0.1c-0.1,0-0.1-0.1-0.1-0.1l-0.3-1.7c0,0-0.1,0-0.2-0.1
					s-0.2-0.1-0.4-0.1c-0.2,0-0.4,0-0.6,0c-0.9,0-1.5,0.3-1.8,0.9s-0.5,1.5-0.5,2.7c0,1.2,0.2,2,0.7,2.6c0.5,0.5,1.2,0.8,2.2,0.8
					c0.3,0,0.7,0,1-0.1c0.3-0.1,0.5-0.1,0.7-0.2c0.2-0.1,0.3-0.1,0.3-0.1l0.2,0.5C90.7,215.6,90.6,215.7,90.3,215.9z"/>
				<path class="st1" d="M92.9,215.4c-0.7-0.8-1-1.9-1-3.1c0-0.9,0.2-1.8,0.5-2.5c0.3-0.7,0.8-1.3,1.4-1.7s1.3-0.6,2.1-0.6
					c1,0,1.7,0.3,2.2,1c0.5,0.6,0.7,1.4,0.7,2.3c0,0.6-0.1,1.1-0.2,1.3c-0.1,0.2-0.3,0.3-0.7,0.3h-4.5c0,0.9,0.2,1.7,0.7,2.2
					s1.2,0.9,2.2,0.9c0.4,0,0.8,0,1.1-0.1c0.3-0.1,0.6-0.1,0.7-0.2c0.2-0.1,0.3-0.1,0.3-0.1l0.3,0.5c0,0-0.1,0.1-0.4,0.4
					s-0.6,0.4-1.1,0.6c-0.4,0.2-0.9,0.3-1.5,0.3C94.5,216.7,93.5,216.3,92.9,215.4z M97.3,211.3c0-0.2,0.1-0.5,0.1-0.7
					c0-0.7-0.1-1.3-0.4-1.6c-0.3-0.4-0.7-0.5-1.4-0.5c-0.7,0-1.3,0.3-1.6,0.8c-0.3,0.5-0.5,1.3-0.5,2.2L97.3,211.3z"/>
				<path class="st1" d="M101.2,213.8l0.3,1.4c0.2,0.1,0.4,0.2,0.7,0.4c0.3,0.1,0.6,0.2,1,0.2c0.7,0,1.2-0.1,1.4-0.4
					c0.3-0.3,0.4-0.7,0.4-1.2c0-0.3-0.1-0.6-0.3-0.8c-0.2-0.2-0.4-0.3-0.6-0.4c-0.3-0.1-0.6-0.2-1.1-0.3c-0.6-0.1-1-0.3-1.4-0.5
					c-0.4-0.2-0.7-0.4-0.9-0.8c-0.3-0.3-0.4-0.8-0.4-1.4c0-0.8,0.3-1.4,0.9-1.9c0.6-0.4,1.4-0.7,2.4-0.7c0.5,0,1,0.1,1.5,0.2
					c0.5,0.1,0.9,0.2,1,0.3l-0.3,2.2h-0.7l-0.3-1.4c0,0-0.2-0.1-0.5-0.1c-0.3-0.1-0.7-0.1-1-0.1c-0.6,0-1.1,0.1-1.4,0.3
					c-0.3,0.2-0.4,0.5-0.4,1c0,0.3,0.1,0.5,0.3,0.7s0.4,0.3,0.6,0.4c0.2,0.1,0.6,0.2,1,0.3c0.6,0.2,1.1,0.3,1.4,0.5s0.7,0.4,1,0.8
					c0.3,0.4,0.4,0.8,0.4,1.4c0,1-0.3,1.7-0.9,2.1c-0.6,0.4-1.4,0.6-2.4,0.6c-0.6,0-1.2-0.1-1.7-0.2c-0.6-0.2-0.9-0.3-1.1-0.5
					l0.2-2.2H101.2z"/>
				<path class="st1" d="M108.6,213.8l0.3,1.4c0.2,0.1,0.4,0.2,0.7,0.4c0.3,0.1,0.6,0.2,1,0.2c0.7,0,1.2-0.1,1.4-0.4
					c0.3-0.3,0.4-0.7,0.4-1.2c0-0.3-0.1-0.6-0.3-0.8c-0.2-0.2-0.4-0.3-0.6-0.4c-0.3-0.1-0.6-0.2-1.1-0.3c-0.6-0.1-1-0.3-1.4-0.5
					c-0.4-0.2-0.7-0.4-0.9-0.8c-0.3-0.3-0.4-0.8-0.4-1.4c0-0.8,0.3-1.4,0.9-1.9c0.6-0.4,1.4-0.7,2.4-0.7c0.5,0,1,0.1,1.5,0.2
					c0.5,0.1,0.9,0.2,1,0.3l-0.3,2.2h-0.7l-0.3-1.4c0,0-0.2-0.1-0.5-0.1c-0.3-0.1-0.7-0.1-1-0.1c-0.6,0-1.1,0.1-1.4,0.3
					c-0.3,0.2-0.4,0.5-0.4,1c0,0.3,0.1,0.5,0.3,0.7s0.4,0.3,0.6,0.4c0.2,0.1,0.6,0.2,1,0.3c0.6,0.2,1.1,0.3,1.4,0.5s0.7,0.4,1,0.8
					c0.3,0.4,0.4,0.8,0.4,1.4c0,1-0.3,1.7-0.9,2.1c-0.6,0.4-1.4,0.6-2.4,0.6c-0.6,0-1.2-0.1-1.7-0.2c-0.6-0.2-0.9-0.3-1.1-0.5
					l0.2-2.2H108.6z"/>
				<path class="st1" d="M119.5,216c-0.4-0.4-0.6-1-0.6-1.6c0-1.5,1.1-2.4,3.2-2.7l1.6-0.2v-1.4c0-1-0.6-1.5-1.8-1.5
					c-0.3,0-0.5,0-0.7,0.1c-0.2,0-0.3,0.1-0.4,0.1l-0.3,1.7c0,0-0.1,0-0.2,0.1s-0.2,0.1-0.4,0.1c-0.2,0-0.4-0.1-0.6-0.2
					c-0.2-0.2-0.3-0.4-0.3-0.6c0-0.5,0.2-0.9,0.7-1.2c0.4-0.3,1-0.6,1.6-0.8c0.6-0.2,1.1-0.3,1.4-0.3c0.8,0,1.3,0.2,1.7,0.6
					c0.4,0.4,0.6,0.9,0.6,1.5v5.8l1.3,0.3v0.7c0,0-0.2,0.1-0.3,0.1c-0.2,0.1-0.4,0.1-0.6,0.2c-0.3,0.1-0.5,0.1-0.8,0.1
					c-0.5,0-0.8-0.3-0.9-0.8h-0.1c-0.2,0.2-0.5,0.4-0.9,0.6c-0.4,0.2-0.9,0.3-1.4,0.3C120.6,216.6,119.9,216.4,119.5,216z
					 M122.9,215.4c0.2,0,0.4-0.1,0.6-0.2c0.1-0.1,0.2-0.1,0.3-0.1v-2.9c-1.1,0.1-2,0.3-2.5,0.5c-0.5,0.3-0.8,0.7-0.8,1.3
					c0,0.4,0.1,0.7,0.4,1c0.3,0.3,0.7,0.4,1.2,0.4C122.4,215.5,122.6,215.5,122.9,215.4z"/>
				<path class="st1" d="M127.3,215.8l1.4-0.3v-6.4l-1.4-0.3v-0.7l2.7-0.5l0.1,0.6l0,0.1c1.1-0.6,2.1-0.9,2.9-0.9
					c0.7,0,1.3,0.2,1.7,0.6c0.4,0.4,0.6,1,0.6,1.8v5.6l1.4,0.3v0.7h-4.3v-0.7l1.4-0.3v-5.4c0-0.5-0.1-0.9-0.4-1.1
					c-0.3-0.2-0.8-0.3-1.4-0.3c-0.3,0-0.6,0-1,0.1s-0.6,0.1-0.8,0.2v6.6l1.4,0.3v0.7h-4.3V215.8z"/>
				<path class="st1" d="M138.9,215.6c-0.6-0.7-0.9-1.7-0.9-3.1c0-1.2,0.2-2.2,0.6-3c0.4-0.8,0.9-1.3,1.5-1.7s1.2-0.5,1.8-0.5
					c0.8,0,1.4,0.2,2,0.7v-2.8l-1.5-0.4v-0.7l2.4-0.3l0.5,0.3v11.1l1.3,0.3v0.7l-2.4,0.4l-0.2-0.9l-0.1,0c-0.2,0.3-0.6,0.5-1,0.7
					c-0.4,0.2-0.9,0.3-1.5,0.3C140.3,216.7,139.5,216.3,138.9,215.6z M142.8,215.3c0.3-0.1,0.6-0.2,0.9-0.3v-6.1
					c-0.2-0.1-0.4-0.1-0.7-0.2c-0.3-0.1-0.6-0.1-0.9-0.1c-0.8,0-1.4,0.3-1.9,0.8s-0.7,1.4-0.7,2.7c0,1.2,0.2,2.1,0.5,2.6
					c0.3,0.5,0.9,0.8,1.8,0.8C142.1,215.4,142.5,215.4,142.8,215.3z"/>
				<path class="st1" d="M150.7,208.5v-0.8l1.4-0.4l0.4-1.9h1v2.1h2.5v0.5l-0.3,0.5h-2.3v5.9c0,0.4,0.1,0.6,0.2,0.7
					c0.1,0.1,0.4,0.2,0.7,0.2c0.3,0,0.6,0,0.9-0.1c0.3-0.1,0.5-0.1,0.6-0.1l0.2,0.6c0,0-0.1,0.1-0.3,0.2c-0.2,0.2-0.5,0.3-0.8,0.4
					s-0.6,0.2-0.9,0.2c-0.7,0-1.2-0.2-1.5-0.5c-0.3-0.3-0.4-0.8-0.4-1.5v-6H150.7z"/>
				<path class="st1" d="M157.1,215.8l1.5-0.3v-10.2l-1.4-0.3v-0.7l2.5-0.4l0.4,0.2v4.3c0.4-0.3,0.9-0.5,1.4-0.7
					c0.5-0.2,1-0.3,1.4-0.3c0.7,0,1.2,0.2,1.7,0.6c0.4,0.4,0.7,1,0.7,1.9v5.6l1.4,0.3v0.7h-4.3v-0.7l1.4-0.3v-5.4
					c0-0.5-0.2-0.9-0.5-1.1s-0.8-0.3-1.4-0.3c-0.2,0-0.5,0-0.9,0.1s-0.7,0.1-0.9,0.2v6.6l1.4,0.3v0.7h-4.4V215.8z"/>
				<path class="st1" d="M168.5,215.4c-0.7-0.8-1-1.9-1-3.1c0-0.9,0.2-1.8,0.5-2.5c0.3-0.7,0.8-1.3,1.4-1.7s1.3-0.6,2.1-0.6
					c1,0,1.7,0.3,2.2,1c0.5,0.6,0.7,1.4,0.7,2.3c0,0.6-0.1,1.1-0.2,1.3c-0.1,0.2-0.3,0.3-0.7,0.3H169c0,0.9,0.2,1.7,0.7,2.2
					s1.2,0.9,2.2,0.9c0.4,0,0.8,0,1.1-0.1c0.3-0.1,0.6-0.1,0.7-0.2c0.2-0.1,0.3-0.1,0.3-0.1l0.3,0.5c0,0-0.1,0.1-0.4,0.4
					s-0.6,0.4-1.1,0.6c-0.4,0.2-0.9,0.3-1.5,0.3C170.1,216.7,169.1,216.3,168.5,215.4z M172.9,211.3c0-0.2,0.1-0.5,0.1-0.7
					c0-0.7-0.1-1.3-0.4-1.6c-0.3-0.4-0.7-0.5-1.4-0.5c-0.7,0-1.3,0.3-1.6,0.8c-0.3,0.5-0.5,1.3-0.5,2.2L172.9,211.3z"/>
				<path class="st1" d="M179.3,218.7l1.2-0.3v-9.4l-1.4-0.3v-0.7l2.7-0.5l0.2,0.7l0,0.1c0.3-0.3,0.8-0.5,1.2-0.7s0.9-0.3,1.3-0.3
					c1.1,0,1.9,0.4,2.5,1.1c0.6,0.7,0.9,1.7,0.9,3.1c0,1-0.2,1.9-0.5,2.6c-0.3,0.8-0.8,1.3-1.4,1.7c-0.6,0.4-1.3,0.6-2.1,0.6
					c-0.3,0-0.7-0.1-1-0.2c-0.3-0.1-0.6-0.3-0.9-0.5v2.6l1.6,0.2v0.8h-4.3V218.7z M185.7,214.6c0.4-0.5,0.6-1.4,0.6-2.6
					c0-1.2-0.2-2.1-0.5-2.6c-0.4-0.5-1-0.8-1.8-0.8c-0.6,0-1.2,0.1-1.9,0.3v6c0.2,0.1,0.5,0.2,0.8,0.3c0.3,0.1,0.6,0.1,1,0.1
					C184.7,215.5,185.3,215.2,185.7,214.6z"/>
				<path class="st1" d="M190.4,215.5V209l-1.4-0.3V208l2.6-0.5l0.3,1c0.1-0.1,0.2-0.2,0.4-0.4c0.2-0.2,0.5-0.3,0.8-0.5
					c0.3-0.2,0.6-0.2,0.8-0.2c0.2,0,0.4,0.1,0.6,0.2s0.2,0.4,0.2,0.6c0,0.2,0,0.4-0.1,0.5c-0.1,0.1-0.2,0.3-0.3,0.3
					s-0.1,0.1-0.2,0.1l-0.8-0.2c-0.1,0-0.2-0.1-0.3-0.1c-0.1,0-0.2,0-0.3,0c-0.2,0-0.3,0-0.5,0.1c-0.2,0-0.3,0.1-0.3,0.1v6.4
					l1.7,0.2v0.8h-4.4v-0.7L190.4,215.5z"/>
				<path class="st1" d="M196.5,215.5c-0.7-0.8-1-1.9-1-3.3c0-0.9,0.2-1.6,0.5-2.4c0.3-0.7,0.8-1.3,1.4-1.7c0.6-0.4,1.4-0.6,2.2-0.6
					c1.3,0,2.2,0.4,2.9,1.2c0.7,0.8,1,1.8,1,3.2c0,0.9-0.2,1.8-0.5,2.5c-0.3,0.7-0.8,1.3-1.4,1.8c-0.6,0.4-1.4,0.6-2.3,0.6
					C198.1,216.7,197.2,216.3,196.5,215.5z M201.4,214.7c0.3-0.6,0.5-1.5,0.5-2.6c0-1.3-0.2-2.2-0.5-2.8s-1-0.9-1.8-0.9
					c-0.6,0-1.1,0.1-1.5,0.4c-0.3,0.3-0.6,0.7-0.7,1.2c-0.1,0.5-0.2,1.2-0.2,2c0,1.2,0.2,2,0.6,2.6c0.4,0.6,1,0.9,2,0.9
					C200.5,215.6,201.1,215.3,201.4,214.7z"/>
				<path class="st1" d="M205.7,215.6c-0.6-0.7-0.9-1.7-0.9-3.1c0-1.2,0.2-2.2,0.6-3c0.4-0.8,0.9-1.3,1.5-1.7s1.2-0.5,1.8-0.5
					c0.8,0,1.4,0.2,2,0.7v-2.8l-1.5-0.4v-0.7l2.4-0.3l0.5,0.3v11.1l1.3,0.3v0.7l-2.4,0.4l-0.2-0.9l-0.1,0c-0.2,0.3-0.6,0.5-1,0.7
					c-0.4,0.2-0.9,0.3-1.5,0.3C207.1,216.7,206.3,216.3,205.7,215.6z M209.7,215.3c0.3-0.1,0.6-0.2,0.9-0.3v-6.1
					c-0.2-0.1-0.4-0.1-0.7-0.2c-0.3-0.1-0.6-0.1-0.9-0.1c-0.8,0-1.4,0.3-1.9,0.8c-0.4,0.5-0.7,1.4-0.7,2.7c0,1.2,0.2,2.1,0.5,2.6
					s0.9,0.8,1.8,0.8C209,215.4,209.3,215.4,209.7,215.3z"/>
				<path class="st1" d="M216,216c-0.5-0.4-0.7-1-0.7-1.8v-5.3l-1.5-0.3v-0.7l2.5-0.5l0.5,0.3v5.7c0,0.8,0.1,1.3,0.4,1.6
					c0.3,0.3,0.8,0.5,1.5,0.5c0.3,0,0.5,0,0.9-0.1c0.3-0.1,0.6-0.2,0.9-0.4v-6.1l-1.5-0.3v-0.7l2.5-0.5l0.5,0.3v7.5l1.3,0.3v0.7
					l-2.5,0.4l-0.3-0.9l0,0c-0.3,0.3-0.6,0.5-1.1,0.7c-0.5,0.2-0.9,0.3-1.4,0.3C217.1,216.7,216.5,216.4,216,216z"/>
				<path class="st1" d="M230.5,215.9c-0.3,0.2-0.6,0.4-1,0.5c-0.4,0.2-0.9,0.2-1.4,0.2c-0.7,0-1.4-0.2-2-0.5s-1-0.8-1.4-1.5
					s-0.5-1.5-0.5-2.4c0-0.9,0.2-1.7,0.5-2.4c0.3-0.7,0.8-1.3,1.4-1.8c0.6-0.4,1.4-0.7,2.2-0.7c0.9,0,1.5,0.2,2,0.7
					c0.5,0.4,0.7,1,0.7,1.6c0,0.2-0.1,0.4-0.2,0.6c-0.2,0.2-0.4,0.3-0.6,0.3c-0.2,0-0.3,0-0.4-0.1c-0.1,0-0.1-0.1-0.1-0.1l-0.3-1.7
					c0,0-0.1,0-0.2-0.1s-0.2-0.1-0.4-0.1c-0.2,0-0.4,0-0.6,0c-0.9,0-1.5,0.3-1.8,0.9s-0.5,1.5-0.5,2.7c0,1.2,0.2,2,0.7,2.6
					c0.5,0.5,1.2,0.8,2.2,0.8c0.3,0,0.7,0,1-0.1c0.3-0.1,0.5-0.1,0.7-0.2c0.2-0.1,0.3-0.1,0.3-0.1l0.2,0.5
					C230.9,215.6,230.8,215.7,230.5,215.9z"/>
				<path class="st1" d="M231.9,208.5v-0.8l1.4-0.4l0.4-1.9h1v2.1h2.5v0.5l-0.3,0.5h-2.3v5.9c0,0.4,0.1,0.6,0.2,0.7
					c0.1,0.1,0.4,0.2,0.7,0.2c0.3,0,0.6,0,0.9-0.1c0.3-0.1,0.5-0.1,0.6-0.1l0.2,0.6c0,0-0.1,0.1-0.3,0.2c-0.2,0.2-0.5,0.3-0.8,0.4
					s-0.6,0.2-0.9,0.2c-0.7,0-1.2-0.2-1.5-0.5c-0.3-0.3-0.4-0.8-0.4-1.5v-6H231.9z"/>
				<path class="st1" d="M242.9,215.5c-0.7-0.8-1-1.9-1-3.3c0-0.9,0.2-1.6,0.5-2.4c0.3-0.7,0.8-1.3,1.4-1.7c0.6-0.4,1.3-0.6,2.2-0.6
					c1.3,0,2.2,0.4,2.9,1.2c0.7,0.8,1,1.8,1,3.2c0,0.9-0.2,1.8-0.5,2.5c-0.3,0.7-0.8,1.3-1.4,1.8s-1.4,0.6-2.3,0.6
					C244.4,216.7,243.5,216.3,242.9,215.5z M247.7,214.7c0.3-0.6,0.5-1.5,0.5-2.6c0-1.3-0.2-2.2-0.5-2.8c-0.4-0.6-1-0.9-1.8-0.9
					c-0.6,0-1.1,0.1-1.5,0.4c-0.3,0.3-0.6,0.7-0.7,1.2c-0.1,0.5-0.2,1.2-0.2,2c0,1.2,0.2,2,0.6,2.6c0.4,0.6,1,0.9,2,0.9
					C246.8,215.6,247.4,215.3,247.7,214.7z"/>
				<path class="st1" d="M250.6,215.8l1.2-0.3v-6.9h-1.1v-0.8l1.1-0.2c0-0.7,0.2-1.3,0.6-1.9c0.3-0.6,0.8-1,1.3-1.3
					c0.5-0.3,1.1-0.5,1.7-0.5c0.3,0,0.6,0.1,0.7,0.2c0.2,0.2,0.3,0.4,0.3,0.6c0,0.2-0.1,0.4-0.2,0.5c-0.1,0.2-0.2,0.3-0.3,0.3
					c-0.6-0.2-1-0.3-1.3-0.3c-0.3-0.1-0.5-0.1-0.7-0.1c-0.2,0-0.4,0.1-0.6,0.2v2.3h2.3v0.6l-0.2,0.5h-2.1v6.8l1.9,0.3v0.7h-4.6
					V215.8z"/>
				<path class="st1" d="M259.8,218.7l1.2-0.3v-9.4l-1.4-0.3v-0.7l2.7-0.5l0.2,0.7l0,0.1c0.3-0.3,0.8-0.5,1.2-0.7
					c0.5-0.2,0.9-0.3,1.3-0.3c1.1,0,1.9,0.4,2.5,1.1c0.6,0.7,0.9,1.7,0.9,3.1c0,1-0.2,1.9-0.5,2.6c-0.3,0.8-0.8,1.3-1.4,1.7
					c-0.6,0.4-1.3,0.6-2.1,0.6c-0.3,0-0.7-0.1-1-0.2c-0.3-0.1-0.6-0.3-0.9-0.5v2.6l1.6,0.2v0.8h-4.3V218.7z M266.2,214.6
					c0.4-0.5,0.6-1.4,0.6-2.6c0-1.2-0.2-2.1-0.5-2.6c-0.4-0.5-1-0.8-1.8-0.8c-0.6,0-1.2,0.1-1.9,0.3v6c0.2,0.1,0.5,0.2,0.8,0.3
					c0.3,0.1,0.6,0.1,1,0.1C265.2,215.5,265.8,215.2,266.2,214.6z"/>
				<path class="st1" d="M269.4,215.8l1.4-0.3v-10.2l-1.4-0.3v-0.7l2.5-0.4l0.4,0.2v11.4l1.4,0.3v0.7h-4.3V215.8z"/>
				<path class="st1" d="M275.5,216c-0.4-0.4-0.6-1-0.6-1.6c0-1.5,1.1-2.4,3.2-2.7l1.6-0.2v-1.4c0-1-0.6-1.5-1.8-1.5
					c-0.3,0-0.5,0-0.7,0.1c-0.2,0-0.3,0.1-0.4,0.1l-0.3,1.7c0,0-0.1,0-0.2,0.1c-0.1,0-0.2,0.1-0.4,0.1c-0.2,0-0.4-0.1-0.6-0.2
					c-0.2-0.2-0.3-0.4-0.3-0.6c0-0.5,0.2-0.9,0.7-1.2c0.4-0.3,1-0.6,1.6-0.8c0.6-0.2,1.1-0.3,1.4-0.3c0.8,0,1.3,0.2,1.7,0.6
					c0.4,0.4,0.6,0.9,0.6,1.5v5.8l1.3,0.3v0.7c0,0-0.2,0.1-0.3,0.1c-0.2,0.1-0.4,0.1-0.6,0.2c-0.3,0.1-0.5,0.1-0.8,0.1
					c-0.5,0-0.8-0.3-0.9-0.8h-0.1c-0.2,0.2-0.5,0.4-0.9,0.6c-0.4,0.2-0.9,0.3-1.4,0.3C276.6,216.6,275.9,216.4,275.5,216z
					 M278.9,215.4c0.2,0,0.4-0.1,0.6-0.2c0.1-0.1,0.2-0.1,0.3-0.1v-2.9c-1.1,0.1-2,0.3-2.5,0.5c-0.5,0.3-0.8,0.7-0.8,1.3
					c0,0.4,0.1,0.7,0.4,1c0.3,0.3,0.7,0.4,1.2,0.4C278.4,215.5,278.6,215.5,278.9,215.4z"/>
				<path class="st1" d="M283.3,215.8l1.4-0.3v-6.4l-1.4-0.3v-0.7l2.7-0.5l0.1,0.6l0,0.1c1.1-0.6,2.1-0.9,2.9-0.9
					c0.7,0,1.3,0.2,1.7,0.6c0.4,0.4,0.6,1,0.6,1.8v5.6l1.4,0.3v0.7h-4.3v-0.7l1.4-0.3v-5.4c0-0.5-0.2-0.9-0.4-1.1
					c-0.3-0.2-0.8-0.3-1.4-0.3c-0.3,0-0.6,0-1,0.1s-0.6,0.1-0.8,0.2v6.6l1.4,0.3v0.7h-4.3V215.8z"/>
				<path class="st1" d="M293.7,215.8l1.4-0.3v-6.4l-1.4-0.3v-0.7l2.7-0.5l0.1,0.6l0,0.1c1.1-0.6,2.1-0.9,2.9-0.9
					c0.7,0,1.3,0.2,1.7,0.6c0.4,0.4,0.6,1,0.6,1.8v5.6l1.4,0.3v0.7h-4.3v-0.7l1.4-0.3v-5.4c0-0.5-0.1-0.9-0.4-1.1
					c-0.3-0.2-0.8-0.3-1.4-0.3c-0.3,0-0.6,0-1,0.1c-0.3,0-0.6,0.1-0.8,0.2v6.6l1.4,0.3v0.7h-4.3V215.8z"/>
				<path class="st1" d="M304.1,215.8l1.4-0.3v-6.4l-1.4-0.3v-0.7l2.5-0.5l0.4,0.2v7.7l1.4,0.3v0.7h-4.3V215.8z M305.3,206
					c-0.2-0.2-0.3-0.5-0.3-0.8c0-0.3,0.1-0.6,0.3-0.8c0.2-0.2,0.5-0.4,0.8-0.4s0.6,0.1,0.7,0.3c0.2,0.2,0.3,0.5,0.3,0.8
					s-0.1,0.6-0.3,0.9c-0.2,0.2-0.5,0.4-0.8,0.4C305.8,206.3,305.5,206.2,305.3,206z"/>
				<path class="st1" d="M309.3,215.8l1.4-0.3v-6.4l-1.4-0.3v-0.7l2.7-0.5l0.1,0.6l0,0.1c1.1-0.6,2.1-0.9,2.9-0.9
					c0.7,0,1.3,0.2,1.7,0.6c0.4,0.4,0.6,1,0.6,1.8v5.6l1.4,0.3v0.7h-4.3v-0.7l1.4-0.3v-5.4c0-0.5-0.2-0.9-0.5-1.1
					c-0.3-0.2-0.8-0.3-1.4-0.3c-0.3,0-0.6,0-1,0.1c-0.3,0-0.6,0.1-0.8,0.2v6.6l1.4,0.3v0.7h-4.3V215.8z"/>
				<path class="st1" d="M320.6,219c-0.7-0.3-1-0.8-1-1.5c0-0.5,0.2-1,0.6-1.3c0.4-0.4,0.9-0.7,1.4-1c-0.1-0.1-0.2-0.2-0.3-0.4
					c-0.1-0.2-0.1-0.3-0.1-0.5c0-0.2,0.1-0.4,0.2-0.6s0.3-0.4,0.6-0.5c-0.7-0.2-1.3-0.5-1.7-0.9c-0.4-0.5-0.5-1-0.5-1.6
					c0-0.6,0.2-1.1,0.5-1.6c0.3-0.5,0.7-0.8,1.3-1.1s1.1-0.4,1.8-0.4c0.8,0,1.4,0.2,1.9,0.6c0,0,0.2-0.1,0.5-0.4
					c0.3-0.2,0.7-0.4,1.1-0.4c0.5,0,0.8,0.3,0.8,0.8c0,0.3-0.1,0.5-0.3,0.8l-0.7-0.1c-0.1,0-0.2,0-0.4-0.1c-0.2,0-0.3,0-0.5,0
					c0.2,0.3,0.3,0.5,0.4,0.8s0.1,0.6,0.1,0.9c0,0.6-0.2,1.1-0.5,1.5c-0.3,0.4-0.7,0.8-1.2,1c-0.5,0.2-1.1,0.4-1.7,0.4h-0.2v1
					l1.9,0.4c0.9,0.2,1.5,0.4,2,0.7c0.4,0.3,0.7,0.8,0.7,1.4c0,0.6-0.2,1.1-0.6,1.5c-0.4,0.4-0.9,0.8-1.6,1
					c-0.7,0.2-1.4,0.4-2.2,0.4C322.1,219.5,321.2,219.3,320.6,219z M325.3,218.1c0.4-0.3,0.7-0.6,0.7-1.1c0-0.3-0.1-0.5-0.3-0.7
					s-0.5-0.3-1-0.4l-2.5-0.5c-0.3,0.2-0.6,0.5-0.8,0.8c-0.2,0.3-0.3,0.7-0.3,1c0,0.5,0.2,0.8,0.5,1c0.4,0.2,1,0.3,1.8,0.3
					C324.3,218.6,324.9,218.4,325.3,218.1z M324.5,211.7c0.3-0.3,0.4-0.8,0.4-1.4c0-0.6-0.1-1-0.4-1.3c-0.3-0.3-0.7-0.5-1.3-0.5
					c-0.6,0-1.1,0.2-1.4,0.5c-0.3,0.3-0.4,0.8-0.4,1.4c0,0.6,0.2,1.1,0.5,1.3c0.3,0.3,0.7,0.4,1.3,0.4S324.2,212,324.5,211.7z"/>
				<path class="st1" d="M327.9,218.6c0.2-0.4,0.4-0.8,0.5-1.1c0.1-0.4,0.2-0.7,0.2-0.9c0-0.2-0.1-0.4-0.2-0.6s-0.2-0.4-0.4-0.5
					c0.3-0.6,0.7-0.9,1.2-0.9c0.3,0,0.6,0.1,0.7,0.3s0.3,0.5,0.3,0.8c0,0.5-0.2,1.1-0.6,1.7s-0.8,1.1-1.1,1.4L327.9,218.6z"/>
			</g>
			<g class="st0">
				<path class="st1" d="M31.7,238.6c-0.6-0.7-0.9-1.7-0.9-3.1c0-1.2,0.2-2.2,0.6-3c0.4-0.8,0.9-1.3,1.5-1.7s1.2-0.5,1.8-0.5
					c0.8,0,1.4,0.2,2,0.7v-2.8l-1.5-0.4v-0.7l2.4-0.3l0.5,0.3v11.1l1.3,0.3v0.7l-2.4,0.4l-0.2-0.9l-0.1,0c-0.2,0.3-0.6,0.5-1,0.7
					c-0.4,0.2-0.9,0.3-1.5,0.3C33.1,239.7,32.3,239.3,31.7,238.6z M35.7,238.3c0.3-0.1,0.6-0.2,0.9-0.3v-6.1
					c-0.2-0.1-0.4-0.1-0.7-0.2c-0.3-0.1-0.6-0.1-0.9-0.1c-0.8,0-1.4,0.3-1.9,0.8s-0.7,1.4-0.7,2.7c0,1.2,0.2,2.1,0.5,2.6
					c0.3,0.5,0.9,0.8,1.8,0.8C35,238.4,35.3,238.4,35.7,238.3z"/>
				<path class="st1" d="M41.1,238.4c-0.7-0.8-1-1.9-1-3.1c0-0.9,0.2-1.8,0.5-2.5c0.3-0.7,0.8-1.3,1.4-1.7s1.3-0.6,2.1-0.6
					c1,0,1.7,0.3,2.2,1c0.5,0.6,0.7,1.4,0.7,2.3c0,0.6-0.1,1.1-0.2,1.3c-0.1,0.2-0.3,0.3-0.7,0.3h-4.5c0,0.9,0.2,1.7,0.7,2.2
					s1.2,0.9,2.2,0.9c0.4,0,0.8,0,1.1-0.1c0.3-0.1,0.6-0.1,0.7-0.2c0.2-0.1,0.3-0.1,0.3-0.1l0.3,0.5c0,0-0.1,0.1-0.4,0.4
					s-0.6,0.4-1.1,0.6c-0.4,0.2-0.9,0.3-1.5,0.3C42.7,239.7,41.8,239.3,41.1,238.4z M45.6,234.3c0-0.2,0.1-0.5,0.1-0.7
					c0-0.7-0.1-1.3-0.4-1.6c-0.3-0.4-0.7-0.5-1.4-0.5c-0.7,0-1.3,0.3-1.6,0.8c-0.3,0.5-0.5,1.3-0.5,2.2L45.6,234.3z"/>
				<path class="st1" d="M49.4,236.8l0.3,1.4c0.2,0.1,0.4,0.2,0.7,0.4c0.3,0.1,0.6,0.2,1,0.2c0.7,0,1.2-0.1,1.4-0.4
					c0.3-0.3,0.4-0.7,0.4-1.2c0-0.3-0.1-0.6-0.3-0.8c-0.2-0.2-0.4-0.3-0.6-0.4c-0.3-0.1-0.6-0.2-1.1-0.3c-0.6-0.1-1-0.3-1.4-0.5
					c-0.4-0.2-0.7-0.4-0.9-0.8c-0.3-0.3-0.4-0.8-0.4-1.4c0-0.8,0.3-1.4,0.9-1.9c0.6-0.4,1.4-0.7,2.4-0.7c0.5,0,1,0.1,1.5,0.2
					c0.5,0.1,0.9,0.2,1,0.3l-0.3,2.2h-0.7l-0.3-1.4c0,0-0.2-0.1-0.5-0.1c-0.3-0.1-0.7-0.1-1-0.1c-0.6,0-1.1,0.1-1.4,0.3
					c-0.3,0.2-0.4,0.5-0.4,1c0,0.3,0.1,0.5,0.3,0.7s0.4,0.3,0.6,0.4c0.2,0.1,0.6,0.2,1,0.3c0.6,0.2,1.1,0.3,1.4,0.5s0.7,0.4,1,0.8
					c0.3,0.4,0.4,0.8,0.4,1.4c0,1-0.3,1.7-0.9,2.1c-0.6,0.4-1.4,0.6-2.4,0.6c-0.6,0-1.2-0.1-1.7-0.2c-0.6-0.2-0.9-0.3-1.1-0.5
					l0.2-2.2H49.4z"/>
				<path class="st1" d="M55.9,238.8l1.4-0.3v-6.4l-1.4-0.3v-0.7l2.5-0.5l0.4,0.2v7.7l1.4,0.3v0.7h-4.3V238.8z M57.2,229
					c-0.2-0.2-0.3-0.5-0.3-0.8c0-0.3,0.1-0.6,0.3-0.8c0.2-0.2,0.5-0.4,0.8-0.4s0.6,0.1,0.7,0.3c0.2,0.2,0.3,0.5,0.3,0.8
					s-0.1,0.6-0.3,0.9c-0.2,0.2-0.5,0.4-0.8,0.4C57.6,229.3,57.3,229.2,57.2,229z"/>
				<path class="st1" d="M62,242c-0.7-0.3-1-0.8-1-1.5c0-0.5,0.2-1,0.6-1.3c0.4-0.4,0.9-0.7,1.4-1c-0.1-0.1-0.2-0.2-0.3-0.4
					s-0.1-0.3-0.1-0.5c0-0.2,0.1-0.4,0.2-0.6c0.2-0.2,0.3-0.4,0.6-0.5c-0.7-0.2-1.3-0.5-1.7-0.9c-0.4-0.5-0.5-1-0.5-1.6
					c0-0.6,0.2-1.1,0.5-1.6c0.3-0.5,0.7-0.8,1.3-1.1c0.5-0.3,1.1-0.4,1.8-0.4c0.8,0,1.4,0.2,1.9,0.6c0,0,0.2-0.1,0.5-0.4
					c0.3-0.2,0.7-0.4,1.1-0.4c0.5,0,0.8,0.3,0.8,0.8c0,0.3-0.1,0.5-0.3,0.8l-0.7-0.1c-0.1,0-0.2,0-0.4-0.1c-0.2,0-0.3,0-0.5,0
					c0.2,0.3,0.3,0.5,0.4,0.8s0.1,0.6,0.1,0.9c0,0.6-0.2,1.1-0.5,1.5c-0.3,0.4-0.7,0.8-1.2,1c-0.5,0.2-1.1,0.4-1.7,0.4h-0.2v1
					l1.9,0.4c0.9,0.2,1.5,0.4,2,0.7c0.4,0.3,0.7,0.8,0.7,1.4c0,0.6-0.2,1.1-0.6,1.5c-0.4,0.4-0.9,0.8-1.6,1
					c-0.7,0.2-1.4,0.4-2.2,0.4C63.5,242.5,62.7,242.3,62,242z M66.8,241.1c0.4-0.3,0.7-0.6,0.7-1.1c0-0.3-0.1-0.5-0.3-0.7
					s-0.5-0.3-1-0.4l-2.5-0.5c-0.3,0.2-0.6,0.5-0.8,0.8s-0.3,0.7-0.3,1c0,0.5,0.2,0.8,0.5,1c0.4,0.2,1,0.3,1.8,0.3
					C65.7,241.6,66.3,241.4,66.8,241.1z M66,234.7c0.3-0.3,0.4-0.8,0.4-1.4c0-0.6-0.1-1-0.4-1.3c-0.3-0.3-0.7-0.5-1.3-0.5
					c-0.6,0-1.1,0.2-1.4,0.5c-0.3,0.3-0.4,0.8-0.4,1.4c0,0.6,0.1,1.1,0.5,1.3c0.3,0.3,0.7,0.4,1.3,0.4S65.7,235,66,234.7z"/>
				<path class="st1" d="M69.4,238.8l1.4-0.3v-6.4l-1.4-0.3v-0.7l2.7-0.5l0.1,0.6l0,0.1c1.1-0.6,2.1-0.9,2.9-0.9
					c0.7,0,1.3,0.2,1.7,0.6c0.4,0.4,0.6,1,0.6,1.8v5.6l1.4,0.3v0.7h-4.3v-0.7l1.4-0.3v-5.4c0-0.5-0.1-0.9-0.4-1.1
					c-0.3-0.2-0.8-0.3-1.4-0.3c-0.3,0-0.6,0-1,0.1s-0.6,0.1-0.8,0.2v6.6l1.4,0.3v0.7h-4.3V238.8z"/>
				<path class="st1" d="M79.8,238.8l1.4-0.3v-6.4l-1.4-0.3v-0.7l2.5-0.5l0.4,0.2v7.7l1.4,0.3v0.7h-4.3V238.8z M81.1,229
					c-0.2-0.2-0.3-0.5-0.3-0.8c0-0.3,0.1-0.6,0.3-0.8c0.2-0.2,0.5-0.4,0.8-0.4s0.6,0.1,0.7,0.3c0.2,0.2,0.3,0.5,0.3,0.8
					s-0.1,0.6-0.3,0.9c-0.2,0.2-0.5,0.4-0.8,0.4C81.5,229.3,81.3,229.2,81.1,229z"/>
				<path class="st1" d="M85.1,238.8l1.4-0.3v-6.4l-1.4-0.3v-0.7l2.7-0.5l0.1,0.6l0,0.1c1.1-0.6,2.1-0.9,2.9-0.9
					c0.7,0,1.3,0.2,1.7,0.6c0.4,0.4,0.6,1,0.6,1.8v5.6l1.4,0.3v0.7h-4.3v-0.7l1.4-0.3v-5.4c0-0.5-0.1-0.9-0.4-1.1
					c-0.3-0.2-0.8-0.3-1.4-0.3c-0.3,0-0.6,0-1,0.1s-0.6,0.1-0.8,0.2v6.6l1.4,0.3v0.7h-4.3V238.8z"/>
				<path class="st1" d="M96.3,242c-0.7-0.3-1-0.8-1-1.5c0-0.5,0.2-1,0.6-1.3c0.4-0.4,0.9-0.7,1.4-1c-0.1-0.1-0.2-0.2-0.3-0.4
					s-0.1-0.3-0.1-0.5c0-0.2,0.1-0.4,0.2-0.6c0.2-0.2,0.3-0.4,0.6-0.5c-0.7-0.2-1.3-0.5-1.7-0.9c-0.4-0.5-0.5-1-0.5-1.6
					c0-0.6,0.2-1.1,0.5-1.6c0.3-0.5,0.7-0.8,1.3-1.1c0.5-0.3,1.1-0.4,1.8-0.4c0.8,0,1.4,0.2,1.9,0.6c0,0,0.2-0.1,0.5-0.4
					c0.3-0.2,0.7-0.4,1.1-0.4c0.5,0,0.8,0.3,0.8,0.8c0,0.3-0.1,0.5-0.3,0.8l-0.7-0.1c-0.1,0-0.2,0-0.4-0.1c-0.2,0-0.3,0-0.5,0
					c0.2,0.3,0.3,0.5,0.4,0.8s0.1,0.6,0.1,0.9c0,0.6-0.2,1.1-0.5,1.5c-0.3,0.4-0.7,0.8-1.2,1c-0.5,0.2-1.1,0.4-1.7,0.4h-0.2v1
					l1.9,0.4c0.9,0.2,1.5,0.4,2,0.7c0.4,0.3,0.7,0.8,0.7,1.4c0,0.6-0.2,1.1-0.6,1.5c-0.4,0.4-0.9,0.8-1.6,1
					c-0.7,0.2-1.4,0.4-2.2,0.4C97.8,242.5,97,242.3,96.3,242z M101.1,241.1c0.4-0.3,0.7-0.6,0.7-1.1c0-0.3-0.1-0.5-0.3-0.7
					s-0.5-0.3-1-0.4l-2.5-0.5c-0.3,0.2-0.6,0.5-0.8,0.8s-0.3,0.7-0.3,1c0,0.5,0.2,0.8,0.5,1c0.4,0.2,1,0.3,1.8,0.3
					C100,241.6,100.6,241.4,101.1,241.1z M100.3,234.7c0.3-0.3,0.4-0.8,0.4-1.4c0-0.6-0.1-1-0.4-1.3c-0.3-0.3-0.7-0.5-1.3-0.5
					c-0.6,0-1.1,0.2-1.4,0.5c-0.3,0.3-0.4,0.8-0.4,1.4c0,0.6,0.1,1.1,0.5,1.3c0.3,0.3,0.7,0.4,1.3,0.4S100,235,100.3,234.7z"/>
				<path class="st1" d="M103.7,241.6c0.2-0.4,0.4-0.8,0.5-1.1c0.1-0.4,0.2-0.7,0.2-0.9c0-0.2-0.1-0.4-0.2-0.6
					c-0.1-0.2-0.2-0.4-0.4-0.5c0.3-0.6,0.7-0.9,1.2-0.9c0.3,0,0.6,0.1,0.7,0.3c0.2,0.2,0.3,0.5,0.3,0.8c0,0.5-0.2,1.1-0.6,1.7
					c-0.4,0.6-0.8,1.1-1.1,1.4L103.7,241.6z"/>
				<path class="st1" d="M111.5,239c-0.4-0.4-0.6-1-0.6-1.6c0-1.5,1.1-2.4,3.2-2.7l1.6-0.2v-1.4c0-1-0.6-1.5-1.8-1.5
					c-0.3,0-0.5,0-0.7,0.1c-0.2,0-0.3,0.1-0.4,0.1l-0.3,1.7c0,0-0.1,0-0.2,0.1s-0.2,0.1-0.4,0.1c-0.2,0-0.4-0.1-0.6-0.2
					c-0.2-0.2-0.3-0.4-0.3-0.6c0-0.5,0.2-0.9,0.7-1.2c0.4-0.3,1-0.6,1.6-0.8c0.6-0.2,1.1-0.3,1.4-0.3c0.8,0,1.3,0.2,1.7,0.6
					c0.4,0.4,0.6,0.9,0.6,1.5v5.8l1.3,0.3v0.7c0,0-0.2,0.1-0.3,0.1c-0.2,0.1-0.4,0.1-0.6,0.2c-0.3,0.1-0.5,0.1-0.8,0.1
					c-0.5,0-0.8-0.3-0.9-0.8h-0.1c-0.2,0.2-0.5,0.4-0.9,0.6c-0.4,0.2-0.9,0.3-1.4,0.3C112.6,239.6,111.9,239.4,111.5,239z
					 M114.9,238.4c0.2,0,0.4-0.1,0.6-0.2c0.1-0.1,0.2-0.1,0.3-0.1v-2.9c-1.1,0.1-2,0.3-2.5,0.5c-0.5,0.3-0.8,0.7-0.8,1.3
					c0,0.4,0.1,0.7,0.4,1c0.3,0.3,0.7,0.4,1.2,0.4C114.4,238.5,114.6,238.5,114.9,238.4z"/>
				<path class="st1" d="M119.3,238.8l1.4-0.3v-6.4l-1.4-0.3v-0.7l2.7-0.5l0.1,0.6l0,0.1c1.1-0.6,2.1-0.9,2.9-0.9
					c0.7,0,1.3,0.2,1.7,0.6c0.4,0.4,0.6,1,0.6,1.8v5.6l1.4,0.3v0.7h-4.3v-0.7l1.4-0.3v-5.4c0-0.5-0.1-0.9-0.4-1.1
					c-0.3-0.2-0.8-0.3-1.4-0.3c-0.3,0-0.6,0-1,0.1s-0.6,0.1-0.8,0.2v6.6l1.4,0.3v0.7h-4.3V238.8z"/>
				<path class="st1" d="M130.9,238.6c-0.6-0.7-0.9-1.7-0.9-3.1c0-1.2,0.2-2.2,0.6-3c0.4-0.8,0.9-1.3,1.5-1.7s1.2-0.5,1.8-0.5
					c0.8,0,1.4,0.2,2,0.7v-2.8l-1.5-0.4v-0.7l2.4-0.3l0.5,0.3v11.1l1.3,0.3v0.7l-2.4,0.4l-0.2-0.9l-0.1,0c-0.2,0.3-0.6,0.5-1,0.7
					c-0.4,0.2-0.9,0.3-1.5,0.3C132.3,239.7,131.5,239.3,130.9,238.6z M134.8,238.3c0.3-0.1,0.6-0.2,0.9-0.3v-6.1
					c-0.2-0.1-0.4-0.1-0.7-0.2c-0.3-0.1-0.6-0.1-0.9-0.1c-0.8,0-1.4,0.3-1.9,0.8s-0.7,1.4-0.7,2.7c0,1.2,0.2,2.1,0.5,2.6
					c0.3,0.5,0.9,0.8,1.8,0.8C134.1,238.4,134.5,238.4,134.8,238.3z"/>
				<path class="st1" d="M149.3,238.9c-0.3,0.2-0.6,0.4-1,0.5c-0.4,0.2-0.9,0.2-1.4,0.2c-0.7,0-1.4-0.2-2-0.5s-1-0.8-1.4-1.5
					s-0.5-1.5-0.5-2.4c0-0.9,0.2-1.7,0.5-2.4s0.8-1.3,1.4-1.8c0.6-0.4,1.4-0.7,2.2-0.7c0.9,0,1.5,0.2,2,0.7c0.5,0.4,0.7,1,0.7,1.6
					c0,0.2-0.1,0.4-0.2,0.6c-0.2,0.2-0.4,0.3-0.6,0.3c-0.2,0-0.3,0-0.4-0.1c-0.1,0-0.1-0.1-0.1-0.1l-0.3-1.7c0,0-0.1,0-0.2-0.1
					s-0.2-0.1-0.4-0.1c-0.2,0-0.4,0-0.6,0c-0.9,0-1.5,0.3-1.8,0.9s-0.5,1.5-0.5,2.7c0,1.2,0.2,2,0.7,2.6c0.5,0.5,1.2,0.8,2.2,0.8
					c0.3,0,0.7,0,1-0.1c0.3-0.1,0.5-0.1,0.7-0.2c0.2-0.1,0.3-0.1,0.3-0.1l0.2,0.5C149.7,238.6,149.5,238.7,149.3,238.9z"/>
				<path class="st1" d="M151.8,238.5c-0.7-0.8-1-1.9-1-3.3c0-0.9,0.2-1.6,0.5-2.4c0.3-0.7,0.8-1.3,1.4-1.7c0.6-0.4,1.4-0.6,2.2-0.6
					c1.3,0,2.2,0.4,2.9,1.2c0.7,0.8,1,1.8,1,3.2c0,0.9-0.2,1.8-0.5,2.5c-0.3,0.7-0.8,1.3-1.4,1.8s-1.4,0.6-2.3,0.6
					C153.4,239.7,152.5,239.3,151.8,238.5z M156.7,237.7c0.3-0.6,0.5-1.5,0.5-2.6c0-1.3-0.2-2.2-0.5-2.8s-1-0.9-1.8-0.9
					c-0.6,0-1.1,0.1-1.5,0.4c-0.3,0.3-0.6,0.7-0.7,1.2c-0.1,0.5-0.2,1.2-0.2,2c0,1.2,0.2,2,0.6,2.6c0.4,0.6,1,0.9,2,0.9
					C155.8,238.6,156.4,238.3,156.7,237.7z"/>
				<path class="st1" d="M159.8,238.8l1.4-0.3v-6.4l-1.4-0.3v-0.7l2.7-0.5l0.1,0.6l0,0.1c1.1-0.6,2.1-0.9,2.9-0.9
					c0.7,0,1.3,0.2,1.7,0.6c0.4,0.4,0.6,1,0.6,1.8v5.6l1.4,0.3v0.7H165v-0.7l1.4-0.3v-5.4c0-0.5-0.1-0.9-0.4-1.1
					c-0.3-0.2-0.8-0.3-1.4-0.3c-0.3,0-0.6,0-1,0.1s-0.6,0.1-0.8,0.2v6.6l1.4,0.3v0.7h-4.3V238.8z"/>
				<path class="st1" d="M171.2,236.8l0.3,1.4c0.2,0.1,0.4,0.2,0.7,0.4c0.3,0.1,0.6,0.2,1,0.2c0.7,0,1.2-0.1,1.4-0.4
					c0.3-0.3,0.4-0.7,0.4-1.2c0-0.3-0.1-0.6-0.3-0.8c-0.2-0.2-0.4-0.3-0.6-0.4c-0.3-0.1-0.6-0.2-1.1-0.3c-0.6-0.1-1-0.3-1.4-0.5
					c-0.4-0.2-0.7-0.4-0.9-0.8c-0.3-0.3-0.4-0.8-0.4-1.4c0-0.8,0.3-1.4,0.9-1.9c0.6-0.4,1.4-0.7,2.4-0.7c0.5,0,1,0.1,1.5,0.2
					c0.5,0.1,0.9,0.2,1,0.3l-0.3,2.2h-0.7l-0.3-1.4c0,0-0.2-0.1-0.5-0.1c-0.3-0.1-0.7-0.1-1-0.1c-0.6,0-1.1,0.1-1.4,0.3
					c-0.3,0.2-0.4,0.5-0.4,1c0,0.3,0.1,0.5,0.3,0.7s0.4,0.3,0.6,0.4c0.2,0.1,0.6,0.2,1,0.3c0.6,0.2,1.1,0.3,1.4,0.5s0.7,0.4,1,0.8
					c0.3,0.4,0.4,0.8,0.4,1.4c0,1-0.3,1.7-0.9,2.1c-0.6,0.4-1.4,0.6-2.4,0.6c-0.6,0-1.2-0.1-1.7-0.2c-0.6-0.2-0.9-0.3-1.1-0.5
					l0.2-2.2H171.2z"/>
				<path class="st1" d="M177.4,231.5v-0.8l1.4-0.4l0.4-1.9h1v2.1h2.5v0.5l-0.3,0.5h-2.3v5.9c0,0.4,0.1,0.6,0.2,0.7
					c0.1,0.1,0.4,0.2,0.7,0.2c0.3,0,0.6,0,0.9-0.1c0.3-0.1,0.5-0.1,0.6-0.1l0.2,0.6c0,0-0.1,0.1-0.3,0.2c-0.2,0.2-0.5,0.3-0.8,0.4
					s-0.6,0.2-0.9,0.2c-0.7,0-1.2-0.2-1.5-0.5c-0.3-0.3-0.4-0.8-0.4-1.5v-6H177.4z"/>
				<path class="st1" d="M185.1,238.5V232l-1.4-0.3V231l2.6-0.5l0.3,1c0.1-0.1,0.2-0.2,0.4-0.4s0.5-0.3,0.8-0.5s0.6-0.2,0.8-0.2
					s0.4,0.1,0.6,0.2c0.1,0.2,0.2,0.4,0.2,0.6c0,0.2,0,0.4-0.1,0.5c-0.1,0.1-0.2,0.3-0.3,0.3s-0.1,0.1-0.2,0.1l-0.8-0.2
					c-0.1,0-0.2-0.1-0.3-0.1c-0.1,0-0.2,0-0.3,0c-0.2,0-0.3,0-0.5,0.1c-0.2,0-0.3,0.1-0.3,0.1v6.4l1.7,0.2v0.8h-4.4v-0.7
					L185.1,238.5z"/>
				<path class="st1" d="M192.1,239c-0.5-0.4-0.7-1-0.7-1.8v-5.3l-1.5-0.3v-0.7l2.5-0.5l0.5,0.3v5.7c0,0.8,0.1,1.3,0.4,1.6
					c0.3,0.3,0.8,0.5,1.5,0.5c0.3,0,0.5,0,0.9-0.1c0.3-0.1,0.6-0.2,0.9-0.4v-6.1l-1.5-0.3v-0.7l2.5-0.5l0.5,0.3v7.5l1.3,0.3v0.7
					l-2.5,0.4l-0.3-0.9l0,0c-0.3,0.3-0.6,0.5-1.1,0.7c-0.5,0.2-0.9,0.3-1.4,0.3C193.2,239.7,192.6,239.4,192.1,239z"/>
				<path class="st1" d="M206.6,238.9c-0.3,0.2-0.6,0.4-1,0.5s-0.9,0.2-1.4,0.2c-0.7,0-1.4-0.2-2-0.5s-1-0.8-1.4-1.5
					s-0.5-1.5-0.5-2.4c0-0.9,0.2-1.7,0.5-2.4s0.8-1.3,1.4-1.8c0.6-0.4,1.4-0.7,2.2-0.7c0.9,0,1.5,0.2,2,0.7c0.5,0.4,0.7,1,0.7,1.6
					c0,0.2-0.1,0.4-0.2,0.6s-0.4,0.3-0.6,0.3c-0.2,0-0.3,0-0.4-0.1c-0.1,0-0.1-0.1-0.1-0.1l-0.3-1.7c0,0-0.1,0-0.2-0.1
					c-0.1,0-0.2-0.1-0.4-0.1c-0.2,0-0.4,0-0.6,0c-0.9,0-1.5,0.3-1.8,0.9c-0.4,0.6-0.5,1.5-0.5,2.7c0,1.2,0.2,2,0.7,2.6
					c0.5,0.5,1.2,0.8,2.2,0.8c0.3,0,0.7,0,1-0.1c0.3-0.1,0.5-0.1,0.7-0.2c0.2-0.1,0.3-0.1,0.3-0.1l0.2,0.5
					C207,238.6,206.9,238.7,206.6,238.9z"/>
			</g>
			<g class="st0">
				<path class="st1" d="M207.9,231.5v-0.8l1.4-0.4l0.4-1.9h1v2.1h2.5v0.5l-0.3,0.5h-2.3v5.9c0,0.4,0.1,0.6,0.2,0.7s0.4,0.2,0.7,0.2
					c0.3,0,0.6,0,0.9-0.1c0.3-0.1,0.5-0.1,0.6-0.1l0.2,0.6c0,0-0.1,0.1-0.3,0.2c-0.2,0.2-0.5,0.3-0.8,0.4c-0.3,0.1-0.6,0.2-0.9,0.2
					c-0.7,0-1.2-0.2-1.5-0.5c-0.3-0.3-0.4-0.8-0.4-1.5v-6H207.9z"/>
			</g>
			<g class="st0">
				<path class="st1" d="M214.5,238.8l1.4-0.3v-6.4l-1.4-0.3v-0.7l2.5-0.5l0.4,0.2v7.7l1.4,0.3v0.7h-4.3V238.8z M215.7,229
					c-0.2-0.2-0.3-0.5-0.3-0.8c0-0.3,0.1-0.6,0.3-0.8c0.2-0.2,0.5-0.4,0.8-0.4c0.3,0,0.6,0.1,0.7,0.3c0.2,0.2,0.3,0.5,0.3,0.8
					s-0.1,0.6-0.3,0.9c-0.2,0.2-0.5,0.4-0.8,0.4C216.2,229.3,215.9,229.2,215.7,229z"/>
				<path class="st1" d="M219.7,238.8l1.4-0.3v-6.4l-1.4-0.3v-0.7l2.7-0.5l0.1,0.6l0,0.1c1.1-0.6,2.1-0.9,2.9-0.9
					c0.7,0,1.3,0.2,1.7,0.6c0.4,0.4,0.6,1,0.6,1.8v5.6l1.4,0.3v0.7h-4.3v-0.7l1.4-0.3v-5.4c0-0.5-0.2-0.9-0.5-1.1
					c-0.3-0.2-0.8-0.3-1.4-0.3c-0.3,0-0.6,0-1,0.1c-0.3,0-0.6,0.1-0.8,0.2v6.6l1.4,0.3v0.7h-4.3V238.8z"/>
				<path class="st1" d="M231,242c-0.7-0.3-1-0.8-1-1.5c0-0.5,0.2-1,0.6-1.3c0.4-0.4,0.9-0.7,1.4-1c-0.1-0.1-0.2-0.2-0.3-0.4
					c-0.1-0.2-0.1-0.3-0.1-0.5c0-0.2,0.1-0.4,0.2-0.6s0.3-0.4,0.6-0.5c-0.7-0.2-1.3-0.5-1.7-0.9c-0.4-0.5-0.5-1-0.5-1.6
					c0-0.6,0.2-1.1,0.5-1.6c0.3-0.5,0.7-0.8,1.3-1.1s1.1-0.4,1.8-0.4c0.8,0,1.4,0.2,1.9,0.6c0,0,0.2-0.1,0.5-0.4
					c0.3-0.2,0.7-0.4,1.1-0.4c0.5,0,0.8,0.3,0.8,0.8c0,0.3-0.1,0.5-0.3,0.8l-0.7-0.1c-0.1,0-0.2,0-0.4-0.1c-0.2,0-0.3,0-0.5,0
					c0.2,0.3,0.3,0.5,0.4,0.8s0.1,0.6,0.1,0.9c0,0.6-0.2,1.1-0.5,1.5c-0.3,0.4-0.7,0.8-1.2,1c-0.5,0.2-1.1,0.4-1.7,0.4h-0.2v1
					l1.9,0.4c0.9,0.2,1.5,0.4,2,0.7c0.4,0.3,0.7,0.8,0.7,1.4c0,0.6-0.2,1.1-0.6,1.5c-0.4,0.4-0.9,0.8-1.6,1
					c-0.7,0.2-1.4,0.4-2.2,0.4C232.5,242.5,231.6,242.3,231,242z M235.7,241.1c0.4-0.3,0.7-0.6,0.7-1.1c0-0.3-0.1-0.5-0.3-0.7
					s-0.5-0.3-1-0.4l-2.5-0.5c-0.3,0.2-0.6,0.5-0.8,0.8c-0.2,0.3-0.3,0.7-0.3,1c0,0.5,0.2,0.8,0.5,1c0.4,0.2,1,0.3,1.8,0.3
					C234.7,241.6,235.3,241.4,235.7,241.1z M234.9,234.7c0.3-0.3,0.4-0.8,0.4-1.4c0-0.6-0.1-1-0.4-1.3c-0.3-0.3-0.7-0.5-1.3-0.5
					c-0.6,0-1.1,0.2-1.4,0.5c-0.3,0.3-0.4,0.8-0.4,1.4c0,0.6,0.1,1.1,0.5,1.3c0.3,0.3,0.7,0.4,1.3,0.4S234.6,235,234.9,234.7z"/>
				<path class="st1" d="M245,239.4c-0.3-0.2-0.6-0.3-0.8-0.5h-0.1l-0.5,0.7h-0.7v-11.2l-1.5-0.2v-0.7l2.5-0.5l0.5,0.3v4.2
					c0.2-0.2,0.6-0.4,1-0.6c0.4-0.2,0.9-0.3,1.5-0.3c1,0,1.8,0.3,2.4,1c0.6,0.7,0.9,1.7,0.9,3.1c0,1.1-0.2,2-0.5,2.8
					c-0.3,0.8-0.8,1.3-1.4,1.7c-0.6,0.4-1.2,0.6-1.9,0.6C245.8,239.7,245.4,239.6,245,239.4z M247.9,237.8c0.4-0.6,0.6-1.5,0.6-2.7
					c0-1.2-0.2-2-0.5-2.6c-0.4-0.5-1-0.8-1.8-0.8c-0.6,0-1.2,0.1-1.9,0.3v6.3c0.2,0.1,0.5,0.2,0.8,0.2s0.7,0.1,1,0.1
					C246.9,238.6,247.5,238.3,247.9,237.8z"/>
				<path class="st1" d="M253.2,239c-0.5-0.4-0.7-1-0.7-1.8v-5.3l-1.5-0.3v-0.7l2.5-0.5l0.5,0.3v5.7c0,0.8,0.1,1.3,0.4,1.6
					c0.3,0.3,0.8,0.5,1.5,0.5c0.3,0,0.5,0,0.9-0.1c0.3-0.1,0.6-0.2,0.9-0.4v-6.1l-1.5-0.3v-0.7l2.5-0.5l0.5,0.3v7.5l1.3,0.3v0.7
					l-2.5,0.4l-0.3-0.9l0,0c-0.3,0.3-0.6,0.5-1.1,0.7c-0.5,0.2-0.9,0.3-1.4,0.3C254.3,239.7,253.6,239.4,253.2,239z"/>
				<path class="st1" d="M261.4,238.8l1.4-0.3v-6.4l-1.4-0.3v-0.7l2.5-0.5l0.4,0.2v7.7l1.4,0.3v0.7h-4.3V238.8z M262.7,229
					c-0.2-0.2-0.3-0.5-0.3-0.8c0-0.3,0.1-0.6,0.3-0.8c0.2-0.2,0.5-0.4,0.8-0.4c0.3,0,0.6,0.1,0.7,0.3c0.2,0.2,0.3,0.5,0.3,0.8
					s-0.1,0.6-0.3,0.9c-0.2,0.2-0.5,0.4-0.8,0.4C263.1,229.3,262.8,229.2,262.7,229z"/>
				<path class="st1" d="M266.5,238.8l1.4-0.3v-10.2l-1.4-0.3v-0.7l2.5-0.4l0.4,0.2v11.4l1.4,0.3v0.7h-4.3V238.8z"/>
				<path class="st1" d="M272.9,238.6c-0.6-0.7-0.9-1.7-0.9-3.1c0-1.2,0.2-2.2,0.6-3c0.4-0.8,0.9-1.3,1.5-1.7s1.2-0.5,1.8-0.5
					c0.8,0,1.4,0.2,2,0.7v-2.8l-1.5-0.4v-0.7l2.4-0.3l0.5,0.3v11.1l1.3,0.3v0.7l-2.4,0.4l-0.2-0.9l-0.1,0c-0.2,0.3-0.6,0.5-1,0.7
					c-0.4,0.2-0.9,0.3-1.5,0.3C274.3,239.7,273.5,239.3,272.9,238.6z M276.9,238.3c0.3-0.1,0.6-0.2,0.9-0.3v-6.1
					c-0.2-0.1-0.4-0.1-0.7-0.2c-0.3-0.1-0.6-0.1-0.9-0.1c-0.8,0-1.4,0.3-1.9,0.8c-0.4,0.5-0.7,1.4-0.7,2.7c0,1.2,0.2,2.1,0.5,2.6
					c0.3,0.5,0.9,0.8,1.8,0.8C276.2,238.4,276.5,238.4,276.9,238.3z"/>
				<path class="st1" d="M281.4,238.8l1.4-0.3v-6.4l-1.4-0.3v-0.7l2.5-0.5l0.4,0.2v7.7l1.4,0.3v0.7h-4.3V238.8z M282.7,229
					c-0.2-0.2-0.3-0.5-0.3-0.8c0-0.3,0.1-0.6,0.3-0.8c0.2-0.2,0.5-0.4,0.8-0.4c0.3,0,0.6,0.1,0.7,0.3c0.2,0.2,0.3,0.5,0.3,0.8
					s-0.1,0.6-0.3,0.9c-0.2,0.2-0.5,0.4-0.8,0.4C283.1,229.3,282.9,229.2,282.7,229z"/>
				<path class="st1" d="M286.7,238.8l1.4-0.3v-6.4l-1.4-0.3v-0.7l2.7-0.5l0.1,0.6l0,0.1c1.1-0.6,2.1-0.9,2.9-0.9
					c0.7,0,1.3,0.2,1.7,0.6c0.4,0.4,0.6,1,0.6,1.8v5.6l1.4,0.3v0.7h-4.3v-0.7l1.4-0.3v-5.4c0-0.5-0.2-0.9-0.5-1.1
					c-0.3-0.2-0.8-0.3-1.4-0.3c-0.3,0-0.6,0-1,0.1c-0.3,0-0.6,0.1-0.8,0.2v6.6l1.4,0.3v0.7h-4.3V238.8z"/>
				<path class="st1" d="M297.9,242c-0.7-0.3-1-0.8-1-1.5c0-0.5,0.2-1,0.6-1.3c0.4-0.4,0.9-0.7,1.4-1c-0.1-0.1-0.2-0.2-0.3-0.4
					c-0.1-0.2-0.1-0.3-0.1-0.5c0-0.2,0.1-0.4,0.2-0.6s0.3-0.4,0.6-0.5c-0.7-0.2-1.3-0.5-1.7-0.9c-0.4-0.5-0.5-1-0.5-1.6
					c0-0.6,0.2-1.1,0.5-1.6c0.3-0.5,0.7-0.8,1.3-1.1s1.1-0.4,1.8-0.4c0.8,0,1.4,0.2,1.9,0.6c0,0,0.2-0.1,0.5-0.4
					c0.3-0.2,0.7-0.4,1.1-0.4c0.5,0,0.8,0.3,0.8,0.8c0,0.3-0.1,0.5-0.3,0.8l-0.7-0.1c-0.1,0-0.2,0-0.4-0.1c-0.2,0-0.3,0-0.5,0
					c0.2,0.3,0.3,0.5,0.4,0.8s0.1,0.6,0.1,0.9c0,0.6-0.2,1.1-0.5,1.5c-0.3,0.4-0.7,0.8-1.2,1c-0.5,0.2-1.1,0.4-1.7,0.4h-0.2v1
					l1.9,0.4c0.9,0.2,1.5,0.4,2,0.7c0.4,0.3,0.7,0.8,0.7,1.4c0,0.6-0.2,1.1-0.6,1.5c-0.4,0.4-0.9,0.8-1.6,1
					c-0.7,0.2-1.4,0.4-2.2,0.4C299.4,242.5,298.6,242.3,297.9,242z M302.7,241.1c0.4-0.3,0.7-0.6,0.7-1.1c0-0.3-0.1-0.5-0.3-0.7
					s-0.5-0.3-1-0.4l-2.5-0.5c-0.3,0.2-0.6,0.5-0.8,0.8c-0.2,0.3-0.3,0.7-0.3,1c0,0.5,0.2,0.8,0.5,1c0.4,0.2,1,0.3,1.8,0.3
					C301.6,241.6,302.2,241.4,302.7,241.1z M301.9,234.7c0.3-0.3,0.4-0.8,0.4-1.4c0-0.6-0.1-1-0.4-1.3c-0.3-0.3-0.7-0.5-1.3-0.5
					c-0.6,0-1.1,0.2-1.4,0.5c-0.3,0.3-0.4,0.8-0.4,1.4c0,0.6,0.1,1.1,0.5,1.3c0.3,0.3,0.7,0.4,1.3,0.4S301.6,235,301.9,234.7z"/>
				<path class="st1" d="M306.4,236.8l0.3,1.4c0.2,0.1,0.4,0.2,0.7,0.4c0.3,0.1,0.6,0.2,1,0.2c0.7,0,1.2-0.1,1.4-0.4
					c0.3-0.3,0.4-0.7,0.4-1.2c0-0.3-0.1-0.6-0.3-0.8c-0.2-0.2-0.4-0.3-0.6-0.4c-0.3-0.1-0.6-0.2-1.1-0.3c-0.6-0.1-1-0.3-1.4-0.5
					s-0.7-0.4-0.9-0.8c-0.3-0.3-0.4-0.8-0.4-1.4c0-0.8,0.3-1.4,0.9-1.9c0.6-0.4,1.4-0.7,2.4-0.7c0.5,0,1,0.1,1.5,0.2
					c0.5,0.1,0.9,0.2,1,0.3l-0.3,2.2h-0.7l-0.3-1.4c0,0-0.2-0.1-0.5-0.1c-0.3-0.1-0.7-0.1-1-0.1c-0.6,0-1.1,0.1-1.4,0.3
					c-0.3,0.2-0.4,0.5-0.4,1c0,0.3,0.1,0.5,0.3,0.7s0.4,0.3,0.6,0.4c0.2,0.1,0.6,0.2,1,0.3c0.6,0.2,1.1,0.3,1.4,0.5s0.7,0.4,1,0.8
					c0.3,0.4,0.4,0.8,0.4,1.4c0,1-0.3,1.7-0.9,2.1c-0.6,0.4-1.4,0.6-2.4,0.6c-0.6,0-1.2-0.1-1.7-0.2c-0.6-0.2-0.9-0.3-1.1-0.5
					l0.2-2.2H306.4z"/>
			</g>
			<g class="st0">
				<path class="st1" d="M31.3,262c-0.4-0.4-0.6-1-0.6-1.6c0-1.5,1.1-2.4,3.2-2.7l1.6-0.2v-1.4c0-1-0.6-1.5-1.8-1.5
					c-0.3,0-0.5,0-0.7,0.1c-0.2,0-0.3,0.1-0.4,0.1l-0.3,1.7c0,0-0.1,0-0.2,0.1s-0.2,0.1-0.4,0.1c-0.2,0-0.4-0.1-0.6-0.2
					c-0.2-0.2-0.3-0.4-0.3-0.6c0-0.5,0.2-0.9,0.7-1.2c0.4-0.3,1-0.6,1.6-0.8c0.6-0.2,1.1-0.3,1.4-0.3c0.8,0,1.3,0.2,1.7,0.6
					c0.4,0.4,0.6,0.9,0.6,1.5v5.8l1.3,0.3v0.7c0,0-0.2,0.1-0.3,0.1c-0.2,0.1-0.4,0.1-0.6,0.2c-0.3,0.1-0.5,0.1-0.8,0.1
					c-0.5,0-0.8-0.3-0.9-0.8h-0.1c-0.2,0.2-0.5,0.4-0.9,0.6c-0.4,0.2-0.9,0.3-1.4,0.3C32.4,262.6,31.7,262.4,31.3,262z M34.7,261.4
					c0.2,0,0.4-0.1,0.6-0.2c0.1-0.1,0.2-0.1,0.3-0.1v-2.9c-1.1,0.1-2,0.3-2.5,0.5c-0.5,0.3-0.8,0.7-0.8,1.3c0,0.4,0.1,0.7,0.4,1
					c0.3,0.3,0.7,0.4,1.2,0.4C34.2,261.5,34.4,261.5,34.7,261.4z"/>
				<path class="st1" d="M39.1,261.8l1.4-0.3v-6.4l-1.4-0.3v-0.7l2.7-0.5l0.1,0.6l0,0.1c1.1-0.6,2.1-0.9,2.9-0.9
					c0.7,0,1.3,0.2,1.7,0.6c0.4,0.4,0.6,1,0.6,1.8v5.6l1.4,0.3v0.7h-4.3v-0.7l1.4-0.3v-5.4c0-0.5-0.1-0.9-0.4-1.1
					c-0.3-0.2-0.8-0.3-1.4-0.3c-0.3,0-0.6,0-1,0.1s-0.6,0.1-0.8,0.2v6.6l1.4,0.3v0.7h-4.3V261.8z"/>
				<path class="st1" d="M50.7,261.6c-0.6-0.7-0.9-1.7-0.9-3.1c0-1.2,0.2-2.2,0.6-3c0.4-0.8,0.9-1.3,1.5-1.7s1.2-0.5,1.8-0.5
					c0.8,0,1.4,0.2,2,0.7v-2.8l-1.5-0.4v-0.7l2.4-0.3l0.5,0.3v11.1l1.3,0.3v0.7l-2.4,0.4l-0.2-0.9l-0.1,0c-0.2,0.3-0.6,0.5-1,0.7
					c-0.4,0.2-0.9,0.3-1.5,0.3C52.1,262.7,51.3,262.3,50.7,261.6z M54.7,261.3c0.3-0.1,0.6-0.2,0.9-0.3v-6.1
					c-0.2-0.1-0.4-0.1-0.7-0.2c-0.3-0.1-0.6-0.1-0.9-0.1c-0.8,0-1.4,0.3-1.9,0.8s-0.7,1.4-0.7,2.7c0,1.2,0.2,2.1,0.5,2.6
					c0.3,0.5,0.9,0.8,1.8,0.8C54,261.4,54.3,261.4,54.7,261.3z"/>
				<path class="st1" d="M63.7,261.5c-0.7-0.8-1-1.9-1-3.3c0-0.9,0.2-1.6,0.5-2.4c0.3-0.7,0.8-1.3,1.4-1.7c0.6-0.4,1.4-0.6,2.2-0.6
					c1.3,0,2.2,0.4,2.9,1.2c0.7,0.8,1,1.8,1,3.2c0,0.9-0.2,1.8-0.5,2.5c-0.3,0.7-0.8,1.3-1.4,1.8s-1.4,0.6-2.3,0.6
					C65.3,262.7,64.4,262.3,63.7,261.5z M68.6,260.7c0.3-0.6,0.5-1.5,0.5-2.6c0-1.3-0.2-2.2-0.5-2.8s-1-0.9-1.8-0.9
					c-0.6,0-1.1,0.1-1.5,0.4c-0.3,0.3-0.6,0.7-0.7,1.2c-0.1,0.5-0.2,1.2-0.2,2c0,1.2,0.2,2,0.6,2.6c0.4,0.6,1,0.9,2,0.9
					C67.7,261.6,68.3,261.3,68.6,260.7z"/>
				<path class="st1" d="M71.5,254.5v-0.8l1.4-0.4l0.4-1.9h1v2.1h2.5v0.5l-0.3,0.5h-2.3v5.9c0,0.4,0.1,0.6,0.2,0.7
					c0.1,0.1,0.4,0.2,0.7,0.2c0.3,0,0.6,0,0.9-0.1c0.3-0.1,0.5-0.1,0.6-0.1l0.2,0.6c0,0-0.1,0.1-0.3,0.2c-0.2,0.2-0.5,0.3-0.8,0.4
					s-0.6,0.2-0.9,0.2c-0.7,0-1.2-0.2-1.5-0.5c-0.3-0.3-0.4-0.8-0.4-1.5v-6H71.5z"/>
				<path class="st1" d="M77.9,261.8l1.5-0.3v-10.2l-1.4-0.3v-0.7l2.5-0.4l0.4,0.2v4.3c0.4-0.3,0.9-0.5,1.4-0.7
					c0.5-0.2,1-0.3,1.4-0.3c0.7,0,1.2,0.2,1.7,0.6c0.4,0.4,0.7,1,0.7,1.9v5.6l1.4,0.3v0.7h-4.3v-0.7l1.4-0.3v-5.4
					c0-0.5-0.2-0.9-0.5-1.1s-0.8-0.3-1.4-0.3c-0.2,0-0.5,0-0.9,0.1s-0.7,0.1-0.9,0.2v6.6l1.4,0.3v0.7h-4.4V261.8z"/>
				<path class="st1" d="M89.2,261.4c-0.7-0.8-1-1.9-1-3.1c0-0.9,0.2-1.8,0.5-2.5c0.3-0.7,0.8-1.3,1.4-1.7s1.3-0.6,2.1-0.6
					c1,0,1.7,0.3,2.2,1c0.5,0.6,0.7,1.4,0.7,2.3c0,0.6-0.1,1.1-0.2,1.3c-0.1,0.2-0.3,0.3-0.7,0.3h-4.5c0,0.9,0.2,1.7,0.7,2.2
					s1.2,0.9,2.2,0.9c0.4,0,0.8,0,1.1-0.1c0.3-0.1,0.6-0.1,0.7-0.2c0.2-0.1,0.3-0.1,0.3-0.1l0.3,0.5c0,0-0.1,0.1-0.4,0.4
					s-0.6,0.4-1.1,0.6c-0.4,0.2-0.9,0.3-1.5,0.3C90.8,262.7,89.9,262.3,89.2,261.4z M93.7,257.3c0-0.2,0.1-0.5,0.1-0.7
					c0-0.7-0.1-1.3-0.4-1.6c-0.3-0.4-0.7-0.5-1.4-0.5c-0.7,0-1.3,0.3-1.6,0.8c-0.3,0.5-0.5,1.3-0.5,2.2L93.7,257.3z"/>
				<path class="st1" d="M97.8,261.5V255l-1.4-0.3V254l2.6-0.5l0.3,1c0.1-0.1,0.2-0.2,0.4-0.4s0.5-0.3,0.8-0.5s0.6-0.2,0.8-0.2
					c0.2,0,0.4,0.1,0.6,0.2s0.2,0.4,0.2,0.6c0,0.2,0,0.4-0.1,0.5c-0.1,0.1-0.2,0.3-0.3,0.3c-0.1,0.1-0.1,0.1-0.2,0.1l-0.8-0.2
					c-0.1,0-0.2-0.1-0.3-0.1c-0.1,0-0.2,0-0.3,0c-0.2,0-0.3,0-0.5,0.1c-0.2,0-0.3,0.1-0.3,0.1v6.4l1.7,0.2v0.8h-4.4v-0.7L97.8,261.5
					z"/>
				<path class="st1" d="M106.6,264.7l1.2-0.3v-9.4l-1.4-0.3v-0.7l2.7-0.5l0.2,0.7l0,0.1c0.3-0.3,0.8-0.5,1.2-0.7s0.9-0.3,1.3-0.3
					c1.1,0,1.9,0.4,2.5,1.1c0.6,0.7,0.9,1.7,0.9,3.1c0,1-0.2,1.9-0.5,2.6c-0.3,0.8-0.8,1.3-1.4,1.7c-0.6,0.4-1.3,0.6-2.1,0.6
					c-0.3,0-0.7-0.1-1-0.2c-0.3-0.1-0.6-0.3-0.9-0.5v2.6l1.6,0.2v0.8h-4.3V264.7z M112.9,260.6c0.4-0.5,0.6-1.4,0.6-2.6
					c0-1.2-0.2-2.1-0.5-2.6c-0.4-0.5-1-0.8-1.8-0.8c-0.6,0-1.2,0.1-1.9,0.3v6c0.2,0.1,0.5,0.2,0.8,0.3c0.3,0.1,0.6,0.1,1,0.1
					C111.9,261.5,112.5,261.2,112.9,260.6z"/>
				<path class="st1" d="M116.3,261.8l1.5-0.3v-10.2l-1.4-0.3v-0.7l2.5-0.4l0.4,0.2v4.3c0.4-0.3,0.9-0.5,1.4-0.7
					c0.5-0.2,1-0.3,1.4-0.3c0.7,0,1.2,0.2,1.7,0.6c0.4,0.4,0.7,1,0.7,1.9v5.6l1.4,0.3v0.7h-4.3v-0.7l1.4-0.3v-5.4
					c0-0.5-0.2-0.9-0.5-1.1s-0.8-0.3-1.4-0.3c-0.2,0-0.5,0-0.9,0.1s-0.7,0.1-0.9,0.2v6.6l1.4,0.3v0.7h-4.4V261.8z"/>
				<path class="st1" d="M134.7,253.6v0.8l-1,0.3l-3.8,9.8c-0.3,0.7-0.9,1-1.9,1c-0.2,0-0.4,0-0.7-0.1c-0.3,0-0.5-0.1-0.7-0.1v-0.7
					l2.1-0.5l1-2.1l-2.9-7.3l-1-0.3v-0.8h3.9v0.8l-1.2,0.2v0.3l1.9,4.9l0.1,0.6l0.2-0.8l1.8-4.7v-0.2l-1.2-0.2v-0.8H134.7z"/>
				<path class="st1" d="M135.9,259.8l0.3,1.4c0.2,0.1,0.4,0.2,0.7,0.4c0.3,0.1,0.6,0.2,1,0.2c0.7,0,1.2-0.1,1.4-0.4
					c0.3-0.3,0.4-0.7,0.4-1.2c0-0.3-0.1-0.6-0.3-0.8c-0.2-0.2-0.4-0.3-0.6-0.4c-0.3-0.1-0.6-0.2-1.1-0.3c-0.6-0.1-1-0.3-1.4-0.5
					c-0.4-0.2-0.7-0.4-0.9-0.8c-0.3-0.3-0.4-0.8-0.4-1.4c0-0.8,0.3-1.4,0.9-1.9c0.6-0.4,1.4-0.7,2.4-0.7c0.5,0,1,0.1,1.5,0.2
					c0.5,0.1,0.9,0.2,1,0.3l-0.3,2.2h-0.7l-0.3-1.4c0,0-0.2-0.1-0.5-0.1c-0.3-0.1-0.7-0.1-1-0.1c-0.6,0-1.1,0.1-1.4,0.3
					c-0.3,0.2-0.4,0.5-0.4,1c0,0.3,0.1,0.5,0.3,0.7s0.4,0.3,0.6,0.4c0.2,0.1,0.6,0.2,1,0.3c0.6,0.2,1.1,0.3,1.4,0.5s0.7,0.4,1,0.8
					c0.3,0.4,0.4,0.8,0.4,1.4c0,1-0.3,1.7-0.9,2.1c-0.6,0.4-1.4,0.6-2.4,0.6c-0.6,0-1.2-0.1-1.7-0.2c-0.6-0.2-0.9-0.3-1.1-0.5
					l0.2-2.2H135.9z"/>
				<path class="st1" d="M142.3,261.8l1.4-0.3v-6.4l-1.4-0.3v-0.7l2.5-0.5l0.4,0.2v7.7l1.4,0.3v0.7h-4.3V261.8z M143.6,252
					c-0.2-0.2-0.3-0.5-0.3-0.8c0-0.3,0.1-0.6,0.3-0.8c0.2-0.2,0.5-0.4,0.8-0.4s0.6,0.1,0.7,0.3c0.2,0.2,0.3,0.5,0.3,0.8
					s-0.1,0.6-0.3,0.9c-0.2,0.2-0.5,0.4-0.8,0.4C144,252.3,143.8,252.2,143.6,252z"/>
				<path class="st1" d="M153.9,261.9c-0.3,0.2-0.6,0.4-1,0.5c-0.4,0.2-0.9,0.2-1.4,0.2c-0.7,0-1.4-0.2-2-0.5s-1-0.8-1.4-1.5
					s-0.5-1.5-0.5-2.4c0-0.9,0.2-1.7,0.5-2.4s0.8-1.3,1.4-1.8c0.6-0.4,1.4-0.7,2.2-0.7c0.9,0,1.5,0.2,2,0.7c0.5,0.4,0.7,1,0.7,1.6
					c0,0.2-0.1,0.4-0.2,0.6c-0.2,0.2-0.4,0.3-0.6,0.3c-0.2,0-0.3,0-0.4-0.1c-0.1,0-0.1-0.1-0.1-0.1l-0.3-1.7c0,0-0.1,0-0.2-0.1
					s-0.2-0.1-0.4-0.1c-0.2,0-0.4,0-0.6,0c-0.9,0-1.5,0.3-1.8,0.9s-0.5,1.5-0.5,2.7c0,1.2,0.2,2,0.7,2.6c0.5,0.5,1.2,0.8,2.2,0.8
					c0.3,0,0.7,0,1-0.1c0.3-0.1,0.5-0.1,0.7-0.2c0.2-0.1,0.3-0.1,0.3-0.1l0.2,0.5C154.3,261.6,154.1,261.7,153.9,261.9z"/>
				<path class="st1" d="M156.3,262c-0.4-0.4-0.6-1-0.6-1.6c0-1.5,1.1-2.4,3.2-2.7l1.6-0.2v-1.4c0-1-0.6-1.5-1.8-1.5
					c-0.3,0-0.5,0-0.7,0.1c-0.2,0-0.3,0.1-0.4,0.1l-0.3,1.7c0,0-0.1,0-0.2,0.1s-0.2,0.1-0.4,0.1c-0.2,0-0.4-0.1-0.6-0.2
					c-0.2-0.2-0.3-0.4-0.3-0.6c0-0.5,0.2-0.9,0.7-1.2c0.4-0.3,1-0.6,1.6-0.8c0.6-0.2,1.1-0.3,1.4-0.3c0.8,0,1.3,0.2,1.7,0.6
					c0.4,0.4,0.6,0.9,0.6,1.5v5.8l1.3,0.3v0.7c0,0-0.2,0.1-0.3,0.1c-0.2,0.1-0.4,0.1-0.6,0.2c-0.3,0.1-0.5,0.1-0.8,0.1
					c-0.5,0-0.8-0.3-0.9-0.8h-0.1c-0.2,0.2-0.5,0.4-0.9,0.6c-0.4,0.2-0.9,0.3-1.4,0.3C157.4,262.6,156.7,262.4,156.3,262z
					 M159.7,261.4c0.2,0,0.4-0.1,0.6-0.2c0.1-0.1,0.2-0.1,0.3-0.1v-2.9c-1.1,0.1-2,0.3-2.5,0.5c-0.5,0.3-0.8,0.7-0.8,1.3
					c0,0.4,0.1,0.7,0.4,1c0.3,0.3,0.7,0.4,1.2,0.4C159.2,261.5,159.4,261.5,159.7,261.4z"/>
				<path class="st1" d="M164,261.8l1.4-0.3v-10.2l-1.4-0.3v-0.7l2.5-0.4l0.4,0.2v11.4l1.4,0.3v0.7H164V261.8z"/>
				<path class="st1" d="M173.8,259.8l0.3,1.4c0.2,0.1,0.4,0.2,0.7,0.4c0.3,0.1,0.6,0.2,1,0.2c0.7,0,1.2-0.1,1.4-0.4
					c0.3-0.3,0.4-0.7,0.4-1.2c0-0.3-0.1-0.6-0.3-0.8c-0.2-0.2-0.4-0.3-0.6-0.4c-0.3-0.1-0.6-0.2-1.1-0.3c-0.6-0.1-1-0.3-1.4-0.5
					c-0.4-0.2-0.7-0.4-0.9-0.8c-0.3-0.3-0.4-0.8-0.4-1.4c0-0.8,0.3-1.4,0.9-1.9c0.6-0.4,1.4-0.7,2.4-0.7c0.5,0,1,0.1,1.5,0.2
					c0.5,0.1,0.9,0.2,1,0.3l-0.3,2.2h-0.7l-0.3-1.4c0,0-0.2-0.1-0.5-0.1c-0.3-0.1-0.7-0.1-1-0.1c-0.6,0-1.1,0.1-1.4,0.3
					c-0.3,0.2-0.4,0.5-0.4,1c0,0.3,0.1,0.5,0.3,0.7s0.4,0.3,0.6,0.4c0.2,0.1,0.6,0.2,1,0.3c0.6,0.2,1.1,0.3,1.4,0.5s0.7,0.4,1,0.8
					c0.3,0.4,0.4,0.8,0.4,1.4c0,1-0.3,1.7-0.9,2.1c-0.6,0.4-1.4,0.6-2.4,0.6c-0.6,0-1.2-0.1-1.7-0.2c-0.6-0.2-0.9-0.3-1.1-0.5
					l0.2-2.2H173.8z"/>
				<path class="st1" d="M180,254.5v-0.8l1.4-0.4l0.4-1.9h1v2.1h2.5v0.5l-0.3,0.5h-2.3v5.9c0,0.4,0.1,0.6,0.2,0.7
					c0.1,0.1,0.4,0.2,0.7,0.2c0.3,0,0.6,0,0.9-0.1c0.3-0.1,0.5-0.1,0.6-0.1l0.2,0.6c0,0-0.1,0.1-0.3,0.2c-0.2,0.2-0.5,0.3-0.8,0.4
					s-0.6,0.2-0.9,0.2c-0.7,0-1.2-0.2-1.5-0.5c-0.3-0.3-0.4-0.8-0.4-1.5v-6H180z"/>
				<path class="st1" d="M187.7,261.5V255l-1.4-0.3V254l2.6-0.5l0.3,1c0.1-0.1,0.2-0.2,0.4-0.4c0.2-0.2,0.5-0.3,0.8-0.5
					c0.3-0.2,0.6-0.2,0.8-0.2c0.2,0,0.4,0.1,0.6,0.2s0.2,0.4,0.2,0.6c0,0.2,0,0.4-0.1,0.5c-0.1,0.1-0.2,0.3-0.3,0.3
					s-0.1,0.1-0.2,0.1l-0.8-0.2c-0.1,0-0.2-0.1-0.3-0.1c-0.1,0-0.2,0-0.3,0c-0.2,0-0.3,0-0.5,0.1c-0.2,0-0.3,0.1-0.3,0.1v6.4
					l1.7,0.2v0.8h-4.4v-0.7L187.7,261.5z"/>
				<path class="st1" d="M194.7,262c-0.5-0.4-0.7-1-0.7-1.8v-5.3l-1.5-0.3v-0.7l2.5-0.5l0.5,0.3v5.7c0,0.8,0.1,1.3,0.4,1.6
					c0.3,0.3,0.8,0.5,1.5,0.5c0.3,0,0.5,0,0.9-0.1c0.3-0.1,0.6-0.2,0.9-0.4v-6.1l-1.5-0.3v-0.7l2.5-0.5l0.5,0.3v7.5l1.3,0.3v0.7
					l-2.5,0.4l-0.3-0.9l0,0c-0.3,0.3-0.6,0.5-1.1,0.7c-0.5,0.2-0.9,0.3-1.4,0.3C195.8,262.7,195.2,262.4,194.7,262z"/>
				<path class="st1" d="M209.2,261.9c-0.3,0.2-0.6,0.4-1,0.5s-0.9,0.2-1.4,0.2c-0.7,0-1.4-0.2-2-0.5s-1-0.8-1.4-1.5
					s-0.5-1.5-0.5-2.4c0-0.9,0.2-1.7,0.5-2.4c0.3-0.7,0.8-1.3,1.4-1.8c0.6-0.4,1.4-0.7,2.2-0.7c0.9,0,1.5,0.2,2,0.7
					c0.5,0.4,0.7,1,0.7,1.6c0,0.2-0.1,0.4-0.2,0.6s-0.4,0.3-0.6,0.3c-0.2,0-0.3,0-0.4-0.1s-0.1-0.1-0.1-0.1l-0.3-1.7
					c0,0-0.1,0-0.2-0.1s-0.2-0.1-0.4-0.1c-0.2,0-0.4,0-0.6,0c-0.9,0-1.5,0.3-1.8,0.9s-0.5,1.5-0.5,2.7c0,1.2,0.2,2,0.7,2.6
					c0.5,0.5,1.2,0.8,2.2,0.8c0.3,0,0.7,0,1-0.1c0.3-0.1,0.5-0.1,0.7-0.2c0.2-0.1,0.3-0.1,0.3-0.1l0.2,0.5
					C209.6,261.6,209.5,261.7,209.2,261.9z"/>
				<path class="st1" d="M210.6,254.5v-0.8l1.4-0.4l0.4-1.9h1v2.1h2.5v0.5l-0.3,0.5h-2.3v5.9c0,0.4,0.1,0.6,0.2,0.7
					c0.1,0.1,0.4,0.2,0.7,0.2c0.3,0,0.6,0,0.9-0.1c0.3-0.1,0.5-0.1,0.6-0.1l0.2,0.6c0,0-0.1,0.1-0.3,0.2c-0.2,0.2-0.5,0.3-0.8,0.4
					s-0.6,0.2-0.9,0.2c-0.7,0-1.2-0.2-1.5-0.5c-0.3-0.3-0.4-0.8-0.4-1.5v-6H210.6z"/>
				<path class="st1" d="M218.8,262c-0.5-0.4-0.7-1-0.7-1.8v-5.3l-1.5-0.3v-0.7l2.5-0.5l0.5,0.3v5.7c0,0.8,0.1,1.3,0.4,1.6
					c0.3,0.3,0.8,0.5,1.5,0.5c0.3,0,0.5,0,0.9-0.1c0.3-0.1,0.6-0.2,0.9-0.4v-6.1l-1.5-0.3v-0.7l2.5-0.5l0.5,0.3v7.5l1.3,0.3v0.7
					l-2.5,0.4l-0.3-0.9l0,0c-0.3,0.3-0.6,0.5-1.1,0.7c-0.5,0.2-0.9,0.3-1.4,0.3C219.9,262.7,219.3,262.4,218.8,262z"/>
				<path class="st1" d="M228.3,261.5V255l-1.4-0.3V254l2.6-0.5l0.3,1c0.1-0.1,0.2-0.2,0.4-0.4s0.5-0.3,0.8-0.5s0.6-0.2,0.8-0.2
					s0.4,0.1,0.6,0.2c0.1,0.2,0.2,0.4,0.2,0.6c0,0.2,0,0.4-0.1,0.5c-0.1,0.1-0.2,0.3-0.3,0.3s-0.1,0.1-0.2,0.1l-0.8-0.2
					c-0.1,0-0.2-0.1-0.3-0.1c-0.1,0-0.2,0-0.3,0c-0.2,0-0.3,0-0.5,0.1c-0.2,0-0.3,0.1-0.3,0.1v6.4l1.7,0.2v0.8h-4.4v-0.7
					L228.3,261.5z"/>
				<path class="st1" d="M234.4,261.4c-0.7-0.8-1-1.9-1-3.1c0-0.9,0.2-1.8,0.5-2.5c0.3-0.7,0.8-1.3,1.4-1.7s1.3-0.6,2.1-0.6
					c1,0,1.7,0.3,2.2,1c0.5,0.6,0.7,1.4,0.7,2.3c0,0.6-0.1,1.1-0.2,1.3c-0.1,0.2-0.3,0.3-0.7,0.3H235c0,0.9,0.2,1.7,0.7,2.2
					c0.5,0.6,1.2,0.9,2.2,0.9c0.4,0,0.8,0,1.1-0.1c0.3-0.1,0.6-0.1,0.7-0.2c0.2-0.1,0.3-0.1,0.3-0.1l0.3,0.5c0,0-0.1,0.1-0.4,0.4
					c-0.3,0.2-0.6,0.4-1.1,0.6c-0.4,0.2-0.9,0.3-1.5,0.3C236.1,262.7,235.1,262.3,234.4,261.4z M238.9,257.3c0-0.2,0.1-0.5,0.1-0.7
					c0-0.7-0.1-1.3-0.4-1.6c-0.3-0.4-0.7-0.5-1.4-0.5c-0.7,0-1.3,0.3-1.6,0.8c-0.3,0.5-0.5,1.3-0.5,2.2L238.9,257.3z"/>
			</g>
			<g class="st0">
				<path class="st1" d="M242.8,259.8l0.3,1.4c0.2,0.1,0.4,0.2,0.7,0.4c0.3,0.1,0.6,0.2,1,0.2c0.7,0,1.2-0.1,1.4-0.4
					c0.3-0.3,0.4-0.7,0.4-1.2c0-0.3-0.1-0.6-0.3-0.8c-0.2-0.2-0.4-0.3-0.6-0.4c-0.3-0.1-0.6-0.2-1.1-0.3c-0.6-0.1-1-0.3-1.4-0.5
					s-0.7-0.4-0.9-0.8c-0.3-0.3-0.4-0.8-0.4-1.4c0-0.8,0.3-1.4,0.9-1.9c0.6-0.4,1.4-0.7,2.4-0.7c0.5,0,1,0.1,1.5,0.2
					c0.5,0.1,0.9,0.2,1,0.3l-0.3,2.2h-0.7l-0.3-1.4c0,0-0.2-0.1-0.5-0.1c-0.3-0.1-0.7-0.1-1-0.1c-0.6,0-1.1,0.1-1.4,0.3
					c-0.3,0.2-0.4,0.5-0.4,1c0,0.3,0.1,0.5,0.3,0.7s0.4,0.3,0.6,0.4c0.2,0.1,0.6,0.2,1,0.3c0.6,0.2,1.1,0.3,1.4,0.5s0.7,0.4,1,0.8
					c0.3,0.4,0.4,0.8,0.4,1.4c0,1-0.3,1.7-0.9,2.1c-0.6,0.4-1.4,0.6-2.4,0.6c-0.6,0-1.2-0.1-1.7-0.2c-0.6-0.2-0.9-0.3-1.1-0.5
					l0.2-2.2H242.8z"/>
			</g>
			<g class="st0">
				<path class="st1" d="M249.5,262.4c-0.2-0.2-0.3-0.5-0.3-0.8s0.1-0.6,0.3-0.9s0.5-0.4,0.8-0.4c0.3,0,0.6,0.1,0.7,0.3
					c0.2,0.2,0.3,0.5,0.3,0.8c0,0.3-0.1,0.6-0.3,0.9c-0.2,0.2-0.5,0.4-0.8,0.4C249.9,262.7,249.7,262.6,249.5,262.4z"/>
			</g>
		</g>
	</g>
</g>
</svg>
