<?xml version="1.0" encoding="utf-8"?>
<!-- Generator: Adobe Illustrator 22.0.1, SVG Export Plug-In . SVG Version: 6.00 Build 0)  -->
<svg version="1.1" id="Ebene_1" xmlns="http://www.w3.org/2000/svg" xmlns:xlink="http://www.w3.org/1999/xlink" x="0px" y="0px"
	 viewBox="0 0 1540 1080" style="enable-background:new 0 0 1540 1080;" xml:space="preserve">
<style type="text/css">
	.st0{enable-background:new    ;}
	.st1{fill:#FFFFFF;}
</style>
<title>faustina__overview__landscape</title>
<g id="Page-1">
	<g id="Group-2">
		<g id="knowledge-of-art">
			<g class="st0">
				<path class="st1" d="M85.8,506.9v-67.1l-9.6-1.7v-5.4l18.4-2.6l2.9,2V478h6l12.2-15.1v-1.4l-7-1.4v-5.4h24.6v5.3l-7.7,1.9
					L112,479.1l15.7,27.1l10,2.4v5.4h-21.1v-2.2c0-1.4-0.3-2.5-1-3.4l-13.2-23.3h-5v21.7l8.6,1.7v5.4H76.2v-5.4L85.8,506.9z"/>
				<path class="st1" d="M137.7,508.6l9.5-1.7v-42.1l-9.5-1.8v-5.5l18.7-3.2l1.7,4.6l0.4,0.5c2-1.3,4.8-2.6,8.4-4
					c3.6-1.4,7.1-2,10.4-2c5.2,0,9.2,1.4,11.9,4.3c2.8,2.9,4.1,7,4.1,12.4v37l9.4,1.7v5.4h-30v-5.4l9-1.7V472c0-3.4-0.9-5.9-2.6-7.4
					c-1.8-1.5-4.8-2.2-9-2.2c-4.2,0-8,0.4-11.3,1.3v43.2l9.1,1.7v5.4h-30.2V508.6z"/>
				<path class="st1" d="M214.3,507.3c-4.4-5.3-6.5-12.7-6.5-22.1c0-5.8,1.1-11.1,3.3-15.9c2.2-4.8,5.4-8.7,9.7-11.6
					c4.3-2.9,9.4-4.4,15.4-4.4c8.6,0,15.2,2.6,19.6,7.8c4.4,5.2,6.6,12.3,6.6,21.4c0,6.2-1,11.7-3.1,16.7c-2.1,5-5.3,8.9-9.5,11.8
					c-4.3,2.9-9.6,4.4-15.9,4.4C225.2,515.3,218.7,512.7,214.3,507.3z M246.8,501.9c1.9-3.8,2.9-9.6,2.9-17.3c0-8.3-1-14.3-3.1-17.9
					c-2.1-3.6-5.8-5.5-11.3-5.5c-4.1,0-7.2,0.9-9.3,2.6c-2.1,1.7-3.6,4.2-4.3,7.6c-0.8,3.3-1.1,7.7-1.1,13.3
					c0,7.8,1.1,13.6,3.4,17.4c2.2,3.8,6.3,5.6,12.2,5.6C241.3,507.6,244.9,505.7,246.8,501.9z"/>
				<path class="st1" d="M289,514.7l-19-52.7l-7-1.8v-5.6h28v6l-8,1.2v1.3l9.8,31l1.1,5.3l1.1-6.1l11.4-38.6h12.4l11,39.5l1,5.3
					l1.2-6.1l9.4-29.8l0.1-1.7l-7.9-1.2v-6h23.8v5.6l-7.2,2L333,514.7h-8L310.6,469L297,514.7H289z"/>
				<path class="st1" d="M357,508.6l9.6-1.7v-66.8l-9.6-1.8v-5.5l18-2.6l3.2,1.2v75.6l9.1,1.7v5.4H357V508.6z"/>
				<path class="st1" d="M399.5,507.5c-4.5-5.2-6.8-12.4-6.8-21.7c0-6.4,1.2-12.1,3.5-17c2.3-4.9,5.5-8.7,9.7-11.4
					c4.1-2.7,8.8-4,14.1-4c7.1,0,12.4,2.2,15.8,6.5c3.4,4.4,5.1,9.7,5.1,15.9c0,4.2-0.4,7-1.3,8.4c-0.8,1.4-2.3,2.2-4.5,2.2h-29.9
					c0,6,1.4,10.8,4.2,14.3c2.8,3.6,7.4,5.3,13.7,5.3c2.9,0,5.4-0.2,7.6-0.7c2.2-0.4,3.8-0.9,5-1.3c1.2-0.4,1.9-0.7,2.2-0.9l1.8,4
					c0,0.2-0.9,0.9-2.8,2.3c-1.9,1.4-4.3,2.7-7.3,3.9c-3,1.2-6.4,1.8-10.1,1.8C410.6,515.2,404,512.6,399.5,507.5z M428.7,479.2
					c0.2-1.4,0.4-3,0.4-4.6c0-4.6-0.8-8-2.3-10.2c-1.5-2.2-4.3-3.2-8.4-3.2c-4.5,0-7.8,1.6-9.8,4.9c-2.1,3.2-3.2,7.9-3.4,14.1
					L428.7,479.2z"/>
				<path class="st1" d="M456.6,508.4c-4.1-4.6-6.2-11.4-6.2-20.6c0-7.8,1.3-14.3,3.8-19.5c2.6-5.2,5.8-8.9,9.7-11.3
					c3.9-2.4,8-3.5,12.2-3.5c5.1,0,9.4,1.4,12.8,4.2l0.1-1.2L489,455v-14.8l-9.8-2.8v-5.3l17.8-2l3.7,1.7v73.1l8.9,1.9v5.3
					l-17.8,2.5l-1.9-6.1l-0.5-0.1c-1.5,1.7-3.7,3.2-6.5,4.7c-2.8,1.4-6.2,2.2-10,2.2C466.1,515.2,460.7,512.9,456.6,508.4z
					 M483.6,505.2c2.1-0.6,3.9-1.3,5.3-2v-39.8c-3.4-1.2-6.9-1.8-10.7-1.8c-5,0-8.7,1.7-11.3,5.2c-2.6,3.4-3.9,9.3-3.9,17.6
					c0,7.8,1.1,13.3,3.2,16.7c2.1,3.4,5.7,5,10.9,5C479.3,506.1,481.5,505.8,483.6,505.2z"/>
				<path class="st1" d="M520.3,530.7c-4.4-2.2-6.5-5.5-6.5-10.1c0-3.4,1.2-6.2,3.7-8.5c2.5-2.3,5.5-4.4,9-6.3
					c-1.4-1.6-2.2-3.6-2.2-6c0-1.5,0.6-3,1.7-4.5c1.2-1.5,2.6-2.7,4.3-3.8c-4.9-1-8.5-3.2-11-6.4c-2.4-3.2-3.7-6.9-3.7-11
					s1-7.7,3.1-10.9c2.1-3.2,4.9-5.6,8.6-7.3c3.6-1.7,7.7-2.6,12.2-2.6c5.4,0,9.8,1.2,13.1,3.6c1.9-1.4,3.7-2.5,5.5-3.5
					c1.7-1,3.5-1.5,5.5-1.5c1.8,0,3.1,0.5,4.1,1.4c1,0.9,1.4,2.3,1.4,4c0,1.3-0.3,2.5-1,3.5c-0.6,1.1-1.3,1.9-2,2.6l-3.8-1.2
					c-0.5-0.2-1.2-0.4-2.2-0.7c-1-0.3-2-0.5-3.1-0.5c1.2,1.7,2.1,3.5,2.7,5.6c0.6,2,0.9,4,0.9,5.9c0,3.8-1,7.3-3.1,10.3
					c-2.1,3-4.9,5.3-8.5,7c-3.6,1.6-7.5,2.5-11.7,2.5h-1.6v6.1l13.1,2.4c6.1,1.1,10.6,2.7,13.5,4.7c2.9,2,4.4,5.2,4.4,9.4
					c0,3.8-1.3,7.2-4,10c-2.6,2.8-6.2,5-10.6,6.6c-4.4,1.6-9.3,2.3-14.7,2.3C530.4,533.9,524.7,532.8,520.3,530.7z M551.8,524.7
					c2.7-1.6,4.1-3.7,4.1-6.4c0-1.8-0.5-3.2-1.6-4.4s-3.1-2.1-6.1-2.6l-17.2-3c-1.6,1.4-3,3-4.2,4.9s-1.8,3.8-1.8,5.8
					c0,2.9,1.2,5,3.5,6.2c2.3,1.3,6.2,1.9,11.5,1.9C545.2,527.1,549.1,526.3,551.8,524.7z M546.3,482.1c1.7-1.7,2.6-4.9,2.6-9.5
					c0-4-0.8-6.9-2.3-8.8c-1.6-1.9-4.2-2.8-8-2.8c-4,0-6.8,0.9-8.5,2.8c-1.6,1.9-2.5,5-2.5,9.4c0,4.2,0.8,7.1,2.5,8.9
					c1.7,1.8,4.4,2.6,8,2.6S544.5,483.9,546.3,482.1z"/>
				<path class="st1" d="M577.3,507.5c-4.5-5.2-6.8-12.4-6.8-21.7c0-6.4,1.2-12.1,3.5-17c2.3-4.9,5.5-8.7,9.7-11.4
					c4.1-2.7,8.8-4,14.1-4c7.1,0,12.4,2.2,15.8,6.5c3.4,4.4,5.1,9.7,5.1,15.9c0,4.2-0.4,7-1.3,8.4c-0.8,1.4-2.3,2.2-4.5,2.2H583
					c0,6,1.4,10.8,4.2,14.3c2.8,3.6,7.4,5.3,13.7,5.3c2.9,0,5.4-0.2,7.6-0.7c2.2-0.4,3.8-0.9,5-1.3c1.2-0.4,1.9-0.7,2.2-0.9l1.8,4
					c0,0.2-0.9,0.9-2.8,2.3c-1.9,1.4-4.3,2.7-7.3,3.9c-3,1.2-6.4,1.8-10.1,1.8C588.5,515.2,581.9,512.6,577.3,507.5z M606.6,479.2
					c0.2-1.4,0.4-3,0.4-4.6c0-4.6-0.8-8-2.3-10.2c-1.5-2.2-4.3-3.2-8.4-3.2c-4.5,0-7.8,1.6-9.8,4.9c-2.1,3.2-3.2,7.9-3.4,14.1
					L606.6,479.2z"/>
				<path class="st1" d="M656.4,507.3c-4.4-5.3-6.5-12.7-6.5-22.1c0-5.8,1.1-11.1,3.3-15.9c2.2-4.8,5.4-8.7,9.7-11.6
					c4.3-2.9,9.4-4.4,15.4-4.4c8.6,0,15.2,2.6,19.6,7.8c4.4,5.2,6.6,12.3,6.6,21.4c0,6.2-1,11.7-3.1,16.7c-2.1,5-5.3,8.9-9.5,11.8
					c-4.3,2.9-9.6,4.4-15.9,4.4C667.3,515.3,660.8,512.7,656.4,507.3z M688.9,501.9c1.9-3.8,2.9-9.6,2.9-17.3c0-8.3-1-14.3-3.1-17.9
					c-2.1-3.6-5.8-5.5-11.3-5.5c-4.1,0-7.2,0.9-9.3,2.6c-2.1,1.7-3.6,4.2-4.3,7.6c-0.8,3.3-1.1,7.7-1.1,13.3
					c0,7.8,1.1,13.6,3.4,17.4c2.2,3.8,6.3,5.6,12.2,5.6C683.4,507.6,686.9,505.7,688.9,501.9z"/>
				<path class="st1" d="M709.6,508.6l8.6-1.7V462h-7.8v-6.2l7.8-1.7c0.2-4.7,1.3-8.9,3.5-12.7s5.1-6.6,8.7-8.6
					c3.6-2,7.7-3.1,12.2-3.1c2.5,0,4.4,0.5,5.8,1.6c1.4,1.1,2.1,2.6,2.1,4.6c0,1.7-0.5,3.1-1.4,4.1c-0.9,1.1-1.7,1.8-2.5,2.1
					c0.2,0.1-0.8-0.2-2.9-0.8c-0.6-0.2-1.7-0.5-3.5-0.9c-1.8-0.4-3.2-0.8-4.2-1c-1-0.2-1.9-0.3-2.6-0.3c-1.3,0-2.5,0.3-3.6,0.8v14.4
					h15.4v4.1l-1.6,3.5h-13.8v44.5l12.5,1.9v5.5h-32.8V508.6z"/>
				<path class="st1" d="M777.2,510.8c-2.8-2.9-4.3-6.5-4.3-10.8c0-5,1.8-9.1,5.4-12.1c3.6-3,8.8-5,15.6-5.9l11.4-1.8v-8.6
					c0-3.4-0.9-5.8-2.6-7.4c-1.8-1.6-4.5-2.4-8.3-2.4c-1.8,0-3.3,0.1-4.5,0.4c-1.2,0.2-2,0.4-2.3,0.5l-1.8,11
					c-0.2,0.1-0.6,0.3-1.4,0.5c-0.8,0.3-1.8,0.4-3.1,0.4c-1.8,0-3.4-0.5-4.6-1.6c-1.2-1-1.8-2.5-1.8-4.4c0-3.1,1.4-5.8,4.3-8.1
					s6.3-4,10.3-5.2s7.4-1.8,10.3-1.8c5.6,0,9.9,1.3,12.8,3.8c3,2.6,4.4,6.1,4.4,10.7v37.4l8.6,1.7v5c-0.3,0.2-1.1,0.4-2.3,0.8
					c-1.2,0.4-2.7,0.8-4.6,1.1c-1.8,0.4-3.7,0.5-5.6,0.5c-2.3,0-4-0.5-4.9-1.5c-1-1-1.6-2.4-2-4.1h-0.6c-1.1,1.3-3.1,2.6-6,4
					c-2.9,1.4-6,2.1-9.5,2.1C784.4,515.1,780.1,513.6,777.2,510.8z M801.6,505.9c1.7-0.5,3-1,3.8-1.4v-17.9
					c-7.3,0.6-12.4,1.7-15.5,3.5c-3,1.8-4.6,4.4-4.6,7.9c0,2.5,0.9,4.5,2.7,6.2c1.8,1.6,4.4,2.5,7.7,2.5
					C797.9,506.7,799.9,506.4,801.6,505.9z"/>
				<path class="st1" d="M839.5,506.9v-42.4l-9.4-1.8v-5.5l18.4-3.1l2.5,6.6c0.4-0.4,1.4-1.2,2.9-2.3c1.5-1.2,3.3-2.3,5.3-3.4
					c2-1.1,3.9-1.6,5.5-1.6c1.8,0,3.1,0.5,4.1,1.6c1,1.1,1.5,2.6,1.5,4.5c0,1.3-0.3,2.5-0.8,3.5c-0.6,1.1-1.2,2-1.8,2.6
					c-0.6,0.7-1,1-1.1,1l-6.5-1.8c-1.4-0.4-2.8-0.6-4.3-0.6c-0.7,0-2.3,0.2-4.7,0.7v41.6l11.6,1.7v5.6h-31.9v-5.4L839.5,506.9z"/>
				<path class="st1" d="M873.7,461.7v-5.9l10-2.5l3.6-13.1h8v14.3h16.9v4l-1.7,3.2h-15.2v37.6c0,2.6,0.5,4.3,1.5,5.2
					c1,0.9,2.6,1.3,4.7,1.3c1.9,0,4-0.3,6.1-0.8c2.2-0.5,3.2-0.8,3.2-0.9l1.4,4.6c0.2,0-0.6,0.6-2.2,1.7c-1.6,1.1-3.6,2.1-5.8,3.1
					c-2.2,0.9-4.4,1.4-6.7,1.4c-5.2,0-8.8-1.2-10.9-3.7c-2.1-2.4-3.1-6-3.1-10.6v-38.8H873.7z"/>
			</g>
		</g>
		<g id="the-process-and-the">
			<g class="st0">
				<path class="st1" d="M74.6,626.9v-2.1l3.9-1l1.2-5.2h2.9v5.7h7.1v1.4l-0.7,1.2h-6.4v16.4c0,1,0.2,1.7,0.6,2
					c0.4,0.3,1,0.5,1.9,0.5c0.8,0,1.6-0.1,2.4-0.3c0.8-0.2,1.3-0.3,1.6-0.4l0.5,1.6c0.1,0-0.2,0.2-0.9,0.7s-1.4,0.9-2.3,1.2
					c-0.9,0.4-1.7,0.5-2.5,0.5c-2,0-3.4-0.5-4.2-1.4c-0.8-1-1.2-2.3-1.2-4.1v-16.8H74.6z"/>
				<path class="st1" d="M92.3,647l4-0.7v-28.3l-4-0.7v-2l7-1.1l1.1,0.5v11.8c1.1-0.7,2.4-1.3,3.9-1.8c1.5-0.5,2.8-0.7,3.9-0.7
					c1.9,0,3.5,0.5,4.7,1.7c1.2,1.1,1.9,2.8,1.9,5.2v15.6l4,0.7v2h-12v-2l3.9-0.7v-14.9c0-1.5-0.4-2.5-1.3-3.1
					c-0.9-0.6-2.2-0.9-4-0.9c-0.7,0-1.5,0.1-2.4,0.2c-1,0.1-1.8,0.3-2.6,0.5v18.3l3.9,0.7v2H92.3V647z"/>
				<path class="st1" d="M123.9,646c-1.8-2.3-2.8-5.2-2.8-8.7c0-2.6,0.5-5,1.4-7c1-2,2.3-3.7,4-4.8c1.7-1.2,3.6-1.7,5.8-1.7
					c2.7,0,4.8,0.9,6.1,2.7c1.4,1.8,2.1,3.9,2.1,6.5c0,1.8-0.2,2.9-0.5,3.5c-0.3,0.6-1,0.9-1.9,0.9h-12.6c0,2.5,0.6,4.6,1.9,6.2
					c1.2,1.6,3.2,2.4,6,2.4c1.2,0,2.2-0.1,3.1-0.3c0.9-0.2,1.6-0.4,2-0.5c0.5-0.2,0.8-0.3,0.9-0.4l0.7,1.4c0,0.1-0.4,0.4-1.1,1
					c-0.8,0.6-1.7,1.1-3,1.6c-1.2,0.5-2.6,0.7-4.1,0.7C128.4,649.5,125.7,648.3,123.9,646z M136.3,634.7c0.1-0.6,0.1-1.3,0.1-2
					c0-2-0.4-3.5-1.1-4.5c-0.7-1-2-1.5-3.8-1.5c-2,0-3.5,0.7-4.4,2.1c-1,1.4-1.5,3.5-1.5,6.2L136.3,634.7z"/>
				<path class="st1" d="M154.1,655.2l3.5-0.7v-26l-4-0.7v-2l7.4-1.4l0.6,2l0,0.2c1-0.8,2.1-1.5,3.4-2c1.3-0.5,2.5-0.7,3.6-0.7
					c3,0,5.3,1,6.9,2.9c1.6,2,2.4,4.8,2.4,8.5c0,2.8-0.5,5.2-1.4,7.3s-2.2,3.7-3.8,4.8c-1.7,1.1-3.6,1.7-5.8,1.7
					c-0.9,0-1.9-0.2-2.8-0.5c-0.9-0.3-1.8-0.7-2.5-1.2v7.2l4.4,0.6v2.2h-11.9V655.2z M171.8,643.8c1.1-1.5,1.6-3.9,1.6-7.2
					c0-3.3-0.5-5.7-1.5-7.1c-1-1.4-2.7-2.2-5-2.2c-1.7,0-3.4,0.2-5.2,0.8v16.8c0.6,0.4,1.4,0.7,2.3,0.9c0.9,0.2,1.8,0.3,2.6,0.3
					C169,646.1,170.7,645.3,171.8,643.8z"/>
				<path class="st1" d="M184.8,646.3v-18l-3.9-0.7v-2l7.2-1.4l0.8,2.8c0.2-0.2,0.6-0.5,1.2-1c0.6-0.5,1.4-1,2.2-1.4
					c0.8-0.4,1.6-0.7,2.2-0.7c0.7,0,1.2,0.2,1.6,0.7c0.4,0.5,0.6,1,0.6,1.8c0,0.5-0.1,1-0.3,1.4c-0.2,0.4-0.5,0.7-0.7,0.9
					s-0.4,0.3-0.5,0.4l-2.3-0.6c-0.3-0.1-0.6-0.2-0.9-0.2c-0.3,0-0.6-0.1-0.9-0.1c-0.5,0-0.9,0.1-1.4,0.2s-0.8,0.2-0.8,0.2v17.8
					l4.6,0.6v2.2h-12.1v-2L184.8,646.3z"/>
				<path class="st1" d="M201.8,646.1c-1.8-2.2-2.7-5.3-2.7-9.1c0-2.4,0.5-4.6,1.4-6.6c0.9-2,2.3-3.6,4-4.8c1.7-1.2,3.8-1.8,6.1-1.8
					c3.5,0,6.2,1.1,8,3.2c1.8,2.1,2.8,5.1,2.8,8.8c0,2.6-0.5,4.9-1.4,7c-0.9,2.1-2.2,3.7-4,4.9c-1.8,1.2-3.9,1.8-6.3,1.8
					C206.2,649.5,203.6,648.3,201.8,646.1z M215.4,644.1c0.9-1.6,1.4-4.1,1.4-7.3c0-3.5-0.5-6-1.5-7.7c-1-1.6-2.7-2.4-5.1-2.4
					c-1.8,0-3.2,0.4-4.1,1.1c-1,0.8-1.6,1.9-2,3.3c-0.4,1.4-0.5,3.3-0.5,5.6c0,3.2,0.5,5.6,1.6,7.3c1,1.7,2.9,2.5,5.4,2.5
					C212.9,646.5,214.5,645.7,215.4,644.1z"/>
				<path class="st1" d="M241.5,647.3c-0.7,0.5-1.7,1-2.9,1.5c-1.2,0.4-2.5,0.7-4,0.7c-2.1,0-3.9-0.5-5.5-1.4
					c-1.6-0.9-2.9-2.3-3.8-4.1c-0.9-1.8-1.4-4-1.4-6.6c0-2.4,0.4-4.7,1.3-6.7c0.9-2,2.2-3.7,3.9-4.9s3.8-1.9,6.1-1.9
					c2.4,0,4.3,0.6,5.6,1.8c1.4,1.2,2,2.7,2,4.4c0,0.6-0.2,1.1-0.7,1.6c-0.4,0.5-1,0.7-1.6,0.7c-0.5,0-0.9,0-1.2-0.1
					c-0.3-0.1-0.4-0.2-0.4-0.2l-0.8-4.7c-0.1,0-0.2-0.1-0.5-0.2c-0.3-0.1-0.6-0.2-1.1-0.3c-0.5-0.1-1-0.1-1.6-0.1
					c-2.4,0-4.1,0.8-5.1,2.4c-1,1.6-1.5,4.1-1.5,7.6c0,3.3,0.7,5.7,2,7.1c1.3,1.4,3.4,2.2,6.1,2.2c0.9,0,1.8-0.1,2.6-0.2
					c0.8-0.1,1.5-0.3,2-0.5c0.5-0.2,0.8-0.3,0.9-0.3l0.7,1.5C242.6,646.5,242.3,646.8,241.5,647.3z"/>
				<path class="st1" d="M248.6,646c-1.8-2.3-2.8-5.2-2.8-8.7c0-2.6,0.5-5,1.4-7c1-2,2.3-3.7,4-4.8c1.7-1.2,3.6-1.7,5.8-1.7
					c2.7,0,4.8,0.9,6.1,2.7c1.4,1.8,2.1,3.9,2.1,6.5c0,1.8-0.2,2.9-0.5,3.5c-0.3,0.6-1,0.9-1.9,0.9h-12.6c0,2.5,0.6,4.6,1.9,6.2
					c1.2,1.6,3.2,2.4,6,2.4c1.2,0,2.2-0.1,3.1-0.3c0.9-0.2,1.6-0.4,2-0.5c0.5-0.2,0.8-0.3,0.9-0.4l0.7,1.4c0,0.1-0.4,0.4-1.1,1
					c-0.8,0.6-1.7,1.1-3,1.6c-1.2,0.5-2.6,0.7-4.1,0.7C253.1,649.5,250.5,648.3,248.6,646z M261,634.7c0.1-0.6,0.1-1.3,0.1-2
					c0-2-0.4-3.5-1.1-4.5c-0.7-1-2-1.5-3.8-1.5c-2,0-3.5,0.7-4.4,2.1c-1,1.4-1.5,3.5-1.5,6.2L261,634.7z"/>
				<path class="st1" d="M271.7,641.4l0.7,3.9c0.5,0.4,1.2,0.7,2,1c0.8,0.3,1.7,0.4,2.8,0.4c1.9,0,3.3-0.4,4-1.2
					c0.8-0.8,1.1-1.8,1.1-3.2c0-0.9-0.2-1.6-0.7-2.1c-0.5-0.5-1.1-0.9-1.8-1.2c-0.7-0.3-1.7-0.6-3-0.9c-1.6-0.4-2.9-0.8-3.9-1.2
					c-1-0.4-1.9-1.1-2.6-2.1c-0.7-1-1.1-2.3-1.1-3.9c0-2.3,0.9-4,2.6-5.2c1.7-1.2,3.9-1.8,6.5-1.8c1.4,0,2.9,0.2,4.2,0.5
					s2.4,0.6,2.9,0.9l-0.7,6.2h-2.1l-0.7-4c0,0-0.5-0.2-1.5-0.4c-1-0.2-1.9-0.3-2.6-0.3c-1.8,0-3.1,0.3-3.8,0.9
					c-0.7,0.6-1.1,1.5-1.1,2.8c0,0.8,0.2,1.4,0.7,1.9c0.5,0.5,1,0.9,1.7,1.1c0.7,0.3,1.6,0.6,2.9,0.9c1.6,0.4,3,0.9,4,1.3
					c1,0.5,1.9,1.2,2.7,2.2c0.8,1,1.1,2.3,1.1,4c0,2.8-0.9,4.8-2.6,6c-1.7,1.2-3.9,1.8-6.7,1.8c-1.6,0-3.2-0.2-4.8-0.7
					c-1.5-0.4-2.6-0.9-3.1-1.3l0.6-6.1H271.7z"/>
				<path class="st1" d="M292.4,641.4l0.7,3.9c0.5,0.4,1.2,0.7,2,1c0.8,0.3,1.7,0.4,2.8,0.4c1.9,0,3.3-0.4,4-1.2
					c0.8-0.8,1.1-1.8,1.1-3.2c0-0.9-0.2-1.6-0.7-2.1c-0.5-0.5-1.1-0.9-1.8-1.2c-0.7-0.3-1.7-0.6-3-0.9c-1.6-0.4-2.9-0.8-3.9-1.2
					c-1-0.4-1.9-1.1-2.6-2.1c-0.7-1-1.1-2.3-1.1-3.9c0-2.3,0.9-4,2.6-5.2c1.7-1.2,3.9-1.8,6.5-1.8c1.4,0,2.9,0.2,4.2,0.5
					s2.4,0.6,2.9,0.9l-0.7,6.2h-2.1l-0.7-4c0,0-0.5-0.2-1.5-0.4c-1-0.2-1.9-0.3-2.6-0.3c-1.8,0-3.1,0.3-3.8,0.9
					c-0.7,0.6-1.1,1.5-1.1,2.8c0,0.8,0.2,1.4,0.7,1.9c0.5,0.5,1,0.9,1.7,1.1c0.7,0.3,1.6,0.6,2.9,0.9c1.6,0.4,3,0.9,4,1.3
					c1,0.5,1.9,1.2,2.7,2.2c0.8,1,1.1,2.3,1.1,4c0,2.8-0.9,4.8-2.6,6c-1.7,1.2-3.9,1.8-6.7,1.8c-1.6,0-3.2-0.2-4.8-0.7
					c-1.5-0.4-2.6-0.9-3.1-1.3l0.6-6.1H292.4z"/>
				<path class="st1" d="M322.6,647.6c-1.2-1.2-1.8-2.6-1.8-4.4c0-4.2,3-6.7,9-7.6l4.5-0.6v-3.8c0-2.8-1.6-4.2-4.9-4.2
					c-0.7,0-1.4,0.1-2,0.2c-0.6,0.1-1,0.2-1.1,0.2l-0.8,4.6c0,0-0.1,0.1-0.5,0.2c-0.3,0.1-0.7,0.1-1.1,0.1c-0.6,0-1.1-0.2-1.6-0.6
					c-0.5-0.4-0.7-1-0.7-1.7c0-1.3,0.6-2.4,1.8-3.3c1.2-0.9,2.7-1.7,4.3-2.2s3-0.8,4-0.8c2.1,0,3.7,0.5,4.9,1.6
					c1.1,1.1,1.7,2.5,1.7,4.1v16l3.5,0.7v1.9c-0.1,0.1-0.4,0.2-0.9,0.3c-0.5,0.1-1.1,0.3-1.8,0.4c-0.7,0.2-1.5,0.2-2.3,0.2
					c-1.5,0-2.3-0.8-2.4-2.3h-0.2c-0.4,0.5-1.3,1-2.5,1.6c-1.2,0.6-2.5,0.9-3.9,0.9C325.5,649.3,323.8,648.8,322.6,647.6z
					 M331.9,646c0.7-0.1,1.2-0.3,1.6-0.4c0.4-0.2,0.6-0.2,0.8-0.3v-8c-3.2,0.2-5.5,0.7-6.9,1.5c-1.4,0.8-2.2,2-2.2,3.5
					c0,1.1,0.4,2,1.2,2.7c0.8,0.7,1.9,1.1,3.4,1.1C330.6,646.2,331.3,646.1,331.9,646z"/>
				<path class="st1" d="M344.2,647l4-0.7v-17.8l-4-0.7v-2l7.5-1.4l0.4,1.7l0.1,0.3c3-1.6,5.7-2.5,8-2.5c2.1,0,3.7,0.6,4.8,1.8
					c1.1,1.2,1.7,2.9,1.7,5.1v15.6l4,0.7v2h-12v-2l3.9-0.7v-14.9c0-1.4-0.4-2.5-1.2-3.1c-0.8-0.6-2.2-1-4-1c-0.9,0-1.8,0.1-2.8,0.2
					c-1,0.1-1.7,0.3-2.3,0.4v18.3l3.9,0.7v2h-12V647z"/>
				<path class="st1" d="M376.4,646.6c-1.8-1.9-2.6-4.7-2.6-8.5c0-3.3,0.5-6.1,1.6-8.2c1.1-2.1,2.4-3.7,4.1-4.7s3.3-1.5,5-1.5
					c2.2,0,4,0.7,5.5,2V618l-4.1-1.2v-1.9l6.8-0.9l1.4,0.7v30.8l3.5,0.8v2l-6.8,1l-0.7-2.6l-0.2,0c-0.7,0.7-1.6,1.4-2.8,2
					c-1.2,0.6-2.6,0.9-4.2,0.9C380.3,649.5,378.1,648.5,376.4,646.6z M387.4,645.5c1-0.3,1.8-0.6,2.5-0.9v-16.9
					c-0.5-0.2-1.2-0.4-2.1-0.5s-1.7-0.2-2.6-0.2c-2.2,0-4,0.7-5.2,2.1c-1.2,1.4-1.8,3.9-1.8,7.4c0,3.3,0.5,5.7,1.4,7.2
					c0.9,1.5,2.6,2.3,4.9,2.3C385.5,646,386.5,645.8,387.4,645.5z"/>
				<path class="st1" d="M409.3,626.9v-2.1l3.9-1l1.2-5.2h2.9v5.7h7v1.4l-0.7,1.2h-6.3v16.4c0,1,0.2,1.7,0.6,2
					c0.4,0.3,1,0.5,1.9,0.5c0.8,0,1.6-0.1,2.4-0.3c0.8-0.2,1.3-0.3,1.6-0.4l0.5,1.6c0.1,0-0.2,0.2-0.9,0.7c-0.7,0.5-1.4,0.9-2.3,1.2
					c-0.9,0.4-1.7,0.5-2.5,0.5c-2,0-3.4-0.5-4.2-1.4c-0.8-1-1.2-2.3-1.2-4.1v-16.8H409.3z"/>
				<path class="st1" d="M427,647l4-0.7v-28.3l-4-0.7v-2l7-1.1l1.1,0.5v11.8c1.1-0.7,2.4-1.3,3.9-1.8c1.5-0.5,2.8-0.7,3.9-0.7
					c1.9,0,3.5,0.5,4.7,1.7c1.2,1.1,1.8,2.8,1.8,5.2v15.6l4,0.7v2h-12v-2l3.9-0.7v-14.9c0-1.5-0.4-2.5-1.3-3.1
					c-0.9-0.6-2.2-0.9-3.9-0.9c-0.7,0-1.5,0.1-2.5,0.2c-1,0.1-1.8,0.3-2.6,0.5v18.3l4,0.7v2H427V647z"/>
				<path class="st1" d="M458.6,646c-1.8-2.3-2.8-5.2-2.8-8.7c0-2.6,0.5-5,1.4-7s2.3-3.7,4-4.8c1.7-1.2,3.6-1.7,5.8-1.7
					c2.7,0,4.8,0.9,6.1,2.7c1.4,1.8,2,3.9,2,6.5c0,1.8-0.2,2.9-0.5,3.5c-0.3,0.6-1,0.9-1.9,0.9h-12.5c0,2.5,0.6,4.6,1.9,6.2
					c1.2,1.6,3.2,2.4,6,2.4c1.2,0,2.2-0.1,3.1-0.3c0.9-0.2,1.6-0.4,2-0.5c0.5-0.2,0.8-0.3,0.9-0.4l0.7,1.4c0,0.1-0.4,0.4-1.1,1
					c-0.8,0.6-1.7,1.1-3,1.6c-1.2,0.5-2.6,0.7-4.1,0.7C463.1,649.5,460.4,648.3,458.6,646z M471,634.7c0.1-0.6,0.1-1.3,0.1-2
					c0-2-0.4-3.5-1.1-4.5c-0.7-1-2-1.5-3.8-1.5c-2,0-3.5,0.7-4.5,2.1c-1,1.4-1.5,3.5-1.5,6.2L471,634.7z"/>
				<path class="st1" d="M488.8,655.2l3.5-0.7v-26l-4-0.7v-2l7.5-1.4l0.5,2l0,0.2c1-0.8,2.1-1.5,3.3-2s2.5-0.7,3.7-0.7
					c3,0,5.3,1,6.9,2.9c1.6,2,2.4,4.8,2.4,8.5c0,2.8-0.5,5.2-1.3,7.3c-0.9,2.1-2.2,3.7-3.8,4.8c-1.7,1.1-3.6,1.7-5.8,1.7
					c-0.9,0-1.9-0.2-2.8-0.5c-0.9-0.3-1.8-0.7-2.5-1.2v7.2l4.4,0.6v2.2h-11.9V655.2z M506.5,643.8c1.1-1.5,1.6-3.9,1.6-7.2
					c0-3.3-0.5-5.7-1.5-7.1c-1-1.4-2.7-2.2-5-2.2c-1.7,0-3.4,0.2-5.2,0.8v16.8c0.6,0.4,1.4,0.7,2.3,0.9c0.9,0.2,1.8,0.3,2.7,0.3
					C503.7,646.1,505.4,645.3,506.5,643.8z"/>
				<path class="st1" d="M519.5,646.3v-18l-3.9-0.7v-2l7.2-1.4l0.8,2.8c0.2-0.2,0.6-0.5,1.2-1c0.6-0.5,1.4-1,2.2-1.4
					c0.8-0.4,1.6-0.7,2.2-0.7c0.7,0,1.2,0.2,1.6,0.7c0.4,0.5,0.6,1,0.6,1.8c0,0.5-0.1,1-0.3,1.4c-0.2,0.4-0.5,0.7-0.7,0.9
					s-0.4,0.3-0.5,0.4l-2.3-0.6c-0.3-0.1-0.6-0.2-0.9-0.2c-0.3,0-0.6-0.1-0.9-0.1c-0.5,0-1,0.1-1.5,0.2s-0.8,0.2-0.8,0.2v17.8
					l4.6,0.6v2.2h-12.2v-2L519.5,646.3z"/>
				<path class="st1" d="M536.5,646.1c-1.8-2.2-2.7-5.3-2.7-9.1c0-2.4,0.5-4.6,1.4-6.6c0.9-2,2.3-3.6,4-4.8c1.7-1.2,3.8-1.8,6-1.8
					c3.5,0,6.2,1.1,8,3.2c1.8,2.1,2.8,5.1,2.8,8.8c0,2.6-0.5,4.9-1.4,7c-0.9,2.1-2.2,3.7-4,4.9c-1.8,1.2-3.9,1.8-6.3,1.8
					C540.9,649.5,538.3,648.3,536.5,646.1z M550.1,644.1c0.9-1.6,1.4-4.1,1.4-7.3c0-3.5-0.5-6-1.5-7.7c-1-1.6-2.7-2.4-5.1-2.4
					c-1.8,0-3.2,0.4-4.2,1.1c-1,0.8-1.6,1.9-2,3.3c-0.4,1.4-0.5,3.3-0.5,5.6c0,3.2,0.5,5.6,1.6,7.3c1,1.7,2.9,2.5,5.4,2.5
					C547.6,646.5,549.2,645.7,550.1,644.1z"/>
				<path class="st1" d="M562,646.6c-1.8-1.9-2.6-4.7-2.6-8.5c0-3.3,0.5-6.1,1.6-8.2c1.1-2.1,2.4-3.7,4.1-4.7c1.6-1,3.3-1.5,5-1.5
					c2.2,0,4,0.7,5.5,2V618l-4.1-1.2v-1.9l6.8-0.9l1.4,0.7v30.8l3.5,0.8v2l-6.8,1l-0.7-2.6l-0.2,0c-0.7,0.7-1.6,1.4-2.8,2
					c-1.2,0.6-2.6,0.9-4.1,0.9C566,649.5,563.8,648.5,562,646.6z M573.1,645.5c1-0.3,1.8-0.6,2.5-0.9v-16.9
					c-0.5-0.2-1.2-0.4-2.1-0.5c-0.9-0.2-1.7-0.2-2.6-0.2c-2.2,0-4,0.7-5.2,2.1c-1.2,1.4-1.8,3.9-1.8,7.4c0,3.3,0.5,5.7,1.4,7.2
					c0.9,1.5,2.6,2.3,4.9,2.3C571.1,646,572.1,645.8,573.1,645.5z"/>
				<path class="st1" d="M590.7,647.7c-1.3-1.2-1.9-2.9-1.9-5.1v-14.8l-4.2-0.7v-1.9l6.9-1.4l1.4,0.7v15.9c0,2.2,0.4,3.7,1.2,4.5
					c0.8,0.9,2.2,1.3,4.2,1.3c0.7,0,1.5-0.1,2.4-0.4c0.9-0.3,1.7-0.6,2.4-1v-17l-4.1-0.7v-1.9l6.9-1.4l1.4,0.7v21l3.5,0.8v1.9
					l-6.9,1l-0.8-2.5l-0.1,0c-0.7,0.8-1.8,1.5-3,2s-2.6,0.8-4,0.8C593.8,649.5,592,648.8,590.7,647.7z"/>
				<path class="st1" d="M631,647.3c-0.7,0.5-1.7,1-2.9,1.5c-1.2,0.4-2.5,0.7-4,0.7c-2.1,0-3.9-0.5-5.5-1.4
					c-1.6-0.9-2.9-2.3-3.8-4.1c-0.9-1.8-1.4-4-1.4-6.6c0-2.4,0.4-4.7,1.3-6.7c0.9-2,2.2-3.7,3.9-4.9s3.8-1.9,6.1-1.9
					c2.4,0,4.3,0.6,5.6,1.8c1.4,1.2,2,2.7,2,4.4c0,0.6-0.2,1.1-0.7,1.6c-0.4,0.5-1,0.7-1.6,0.7c-0.5,0-0.9,0-1.2-0.1
					c-0.3-0.1-0.4-0.2-0.4-0.2l-0.8-4.7c-0.1,0-0.2-0.1-0.5-0.2c-0.3-0.1-0.6-0.2-1.1-0.3c-0.5-0.1-1-0.1-1.6-0.1
					c-2.4,0-4.1,0.8-5.1,2.4c-1,1.6-1.5,4.1-1.5,7.6c0,3.3,0.7,5.7,2,7.1c1.3,1.4,3.3,2.2,6,2.2c0.9,0,1.8-0.1,2.6-0.2
					c0.8-0.1,1.5-0.3,2-0.5c0.5-0.2,0.8-0.3,1-0.3l0.7,1.5C632.1,646.5,631.7,646.8,631,647.3z"/>
				<path class="st1" d="M634.7,626.9v-2.1l3.9-1l1.2-5.2h2.9v5.7h7v1.4l-0.7,1.2h-6.3v16.4c0,1,0.2,1.7,0.6,2
					c0.4,0.3,1,0.5,1.9,0.5c0.8,0,1.6-0.1,2.4-0.3c0.8-0.2,1.3-0.3,1.6-0.4l0.5,1.6c0.1,0-0.2,0.2-0.9,0.7c-0.7,0.5-1.4,0.9-2.3,1.2
					c-0.9,0.4-1.7,0.5-2.5,0.5c-2,0-3.4-0.5-4.2-1.4c-0.8-1-1.2-2.3-1.2-4.1v-16.8H634.7z"/>
				<path class="st1" d="M665.3,646.1c-1.8-2.2-2.7-5.3-2.7-9.1c0-2.4,0.5-4.6,1.4-6.6c0.9-2,2.3-3.6,4-4.8c1.7-1.2,3.8-1.8,6-1.8
					c3.5,0,6.2,1.1,8,3.2c1.8,2.1,2.8,5.1,2.8,8.8c0,2.6-0.5,4.9-1.4,7c-0.9,2.1-2.2,3.7-4,4.9c-1.8,1.2-3.9,1.8-6.3,1.8
					C669.7,649.5,667.1,648.3,665.3,646.1z M678.8,644.1c0.9-1.6,1.4-4.1,1.4-7.3c0-3.5-0.5-6-1.5-7.7c-1-1.6-2.7-2.4-5.1-2.4
					c-1.8,0-3.2,0.4-4.2,1.1c-1,0.8-1.6,1.9-2,3.3c-0.4,1.4-0.5,3.3-0.5,5.6c0,3.2,0.5,5.6,1.6,7.3c1,1.7,2.9,2.5,5.4,2.5
					C676.3,646.5,677.9,645.7,678.8,644.1z"/>
				<path class="st1" d="M686.9,647l3.5-0.7v-19.1h-3v-2.4l3-0.6c0.1-2,0.7-3.7,1.6-5.3c0.9-1.5,2.1-2.8,3.6-3.6s3-1.3,4.7-1.3
					c0.9,0,1.6,0.2,2.1,0.7c0.5,0.5,0.7,1,0.7,1.7c0,0.6-0.2,1.1-0.5,1.5c-0.3,0.5-0.6,0.7-0.9,0.9c-1.7-0.4-2.9-0.8-3.7-1
					s-1.4-0.3-1.8-0.3c-0.6,0-1.2,0.2-1.6,0.5v6.3h6.4v1.5l-0.7,1.3h-5.7v19l5.2,0.8v2h-12.8V647z"/>
				<path class="st1" d="M712.4,655.2l3.5-0.7v-26l-4-0.7v-2l7.5-1.4l0.5,2l0,0.2c1-0.8,2.1-1.5,3.3-2s2.5-0.7,3.7-0.7
					c3,0,5.3,1,6.9,2.9c1.6,2,2.4,4.8,2.4,8.5c0,2.8-0.5,5.2-1.3,7.3c-0.9,2.1-2.2,3.7-3.8,4.8c-1.7,1.1-3.6,1.7-5.8,1.7
					c-0.9,0-1.9-0.2-2.8-0.5c-0.9-0.3-1.8-0.7-2.5-1.2v7.2l4.4,0.6v2.2h-11.9V655.2z M730.1,643.8c1.1-1.5,1.6-3.9,1.6-7.2
					c0-3.3-0.5-5.7-1.5-7.1c-1-1.4-2.7-2.2-5-2.2c-1.7,0-3.4,0.2-5.2,0.8v16.8c0.6,0.4,1.4,0.7,2.3,0.9c0.9,0.2,1.8,0.3,2.7,0.3
					C727.3,646.1,729,645.3,730.1,643.8z"/>
				<path class="st1" d="M739.1,647l4-0.7v-28.3l-4-0.7v-2l7-1.1l1.1,0.5v31.8l3.9,0.7v2h-12V647z"/>
				<path class="st1" d="M756,647.6c-1.2-1.2-1.8-2.6-1.8-4.4c0-4.2,3-6.7,8.9-7.6l4.5-0.6v-3.8c0-2.8-1.6-4.2-4.9-4.2
					c-0.7,0-1.4,0.1-2,0.2c-0.6,0.1-1,0.2-1.1,0.2l-0.8,4.6c0,0-0.1,0.1-0.4,0.2c-0.3,0.1-0.7,0.1-1.2,0.1c-0.6,0-1.1-0.2-1.6-0.6
					c-0.5-0.4-0.7-1-0.7-1.7c0-1.3,0.6-2.4,1.8-3.3c1.2-0.9,2.7-1.7,4.3-2.2s3-0.8,4-0.8c2.1,0,3.7,0.5,4.8,1.6
					c1.1,1.1,1.7,2.5,1.7,4.1v16l3.5,0.7v1.9c-0.1,0.1-0.4,0.2-0.9,0.3c-0.5,0.1-1.1,0.3-1.8,0.4c-0.7,0.2-1.5,0.2-2.3,0.2
					c-1.5,0-2.3-0.8-2.4-2.3h-0.2c-0.4,0.5-1.3,1-2.5,1.6c-1.2,0.6-2.5,0.9-3.9,0.9C758.9,649.3,757.2,648.8,756,647.6z M765.3,646
					c0.7-0.1,1.2-0.3,1.6-0.4c0.4-0.2,0.7-0.2,0.8-0.3v-8c-3.2,0.2-5.5,0.7-6.9,1.5c-1.4,0.8-2.2,2-2.2,3.5c0,1.1,0.4,2,1.2,2.7
					c0.8,0.7,1.9,1.1,3.4,1.1C764,646.2,764.7,646.1,765.3,646z"/>
				<path class="st1" d="M777.6,647l4-0.7v-17.8l-4-0.7v-2l7.5-1.4l0.4,1.7l0.1,0.3c3-1.6,5.7-2.5,8-2.5c2.1,0,3.7,0.6,4.8,1.8
					c1.1,1.2,1.7,2.9,1.7,5.1v15.6l4,0.7v2h-12v-2l3.9-0.7v-14.9c0-1.4-0.4-2.5-1.2-3.1c-0.8-0.6-2.2-1-4-1c-0.9,0-1.8,0.1-2.8,0.2
					c-1,0.1-1.7,0.3-2.3,0.4v18.3l3.9,0.7v2h-12V647z"/>
				<path class="st1" d="M806.4,647l4-0.7v-17.8l-4-0.7v-2l7.5-1.4l0.4,1.7l0.1,0.3c3-1.6,5.7-2.5,8-2.5c2.1,0,3.7,0.6,4.8,1.8
					c1.1,1.2,1.7,2.9,1.7,5.1v15.6l4,0.7v2h-12v-2l3.9-0.7v-14.9c0-1.4-0.4-2.5-1.2-3.1c-0.8-0.6-2.2-1-4-1c-0.9,0-1.8,0.1-2.8,0.2
					c-1,0.1-1.7,0.3-2.3,0.4v18.3l3.9,0.7v2h-12V647z"/>
				<path class="st1" d="M835.3,647l4-0.7v-17.8l-4-0.7v-2l6.9-1.4l1.2,0.5v21.5l3.9,0.7v2h-12V647z M838.9,619.8
					c-0.5-0.6-0.8-1.3-0.8-2.2c0-0.9,0.3-1.7,0.9-2.3c0.6-0.6,1.3-1,2.2-1c0.9,0,1.5,0.3,2,0.8s0.8,1.3,0.8,2.2
					c0,0.9-0.3,1.7-0.8,2.4c-0.5,0.7-1.3,1-2.2,1C840.1,620.6,839.4,620.3,838.9,619.8z"/>
				<path class="st1" d="M849.9,647l4-0.7v-17.8l-4-0.7v-2l7.5-1.4l0.4,1.7l0.1,0.3c3-1.6,5.7-2.5,8-2.5c2.1,0,3.7,0.6,4.8,1.8
					c1.1,1.2,1.7,2.9,1.7,5.1v15.6l4,0.7v2h-12v-2l3.9-0.7v-14.9c0-1.4-0.4-2.5-1.2-3.1c-0.8-0.6-2.2-1-4-1c-0.9,0-1.8,0.1-2.8,0.2
					c-1,0.1-1.7,0.3-2.3,0.4v18.3l3.9,0.7v2h-12V647z"/>
				<path class="st1" d="M881.2,655.9c-1.8-0.9-2.7-2.3-2.7-4.2c0-1.5,0.6-2.7,1.7-3.7c1.1-1,2.5-1.9,4-2.7
					c-0.3-0.3-0.5-0.6-0.7-1.1c-0.2-0.5-0.3-1-0.3-1.5c0-0.6,0.2-1.2,0.7-1.8c0.4-0.6,1-1.1,1.6-1.5c-2.1-0.4-3.6-1.3-4.6-2.6
					c-1-1.3-1.5-2.8-1.5-4.6c0-1.6,0.4-3,1.3-4.3c0.9-1.3,2-2.3,3.5-3.1s3.1-1.1,4.9-1.1c2.2,0,4,0.5,5.4,1.5c0,0,0.5-0.4,1.3-1.1
					c0.9-0.7,1.9-1,3-1c1.5,0,2.2,0.7,2.2,2.2c0,0.8-0.3,1.5-0.9,2.2l-1.9-0.4c-0.3,0-0.6-0.1-1-0.2c-0.4-0.1-0.8-0.1-1.3-0.1
					c0.5,0.7,0.9,1.5,1.1,2.3c0.2,0.9,0.4,1.7,0.4,2.5c0,1.6-0.4,3-1.3,4.2c-0.8,1.2-2,2.2-3.4,2.8c-1.4,0.7-3,1-4.6,1h-0.7v2.8
					l5.3,1c2.4,0.5,4.3,1.1,5.5,2c1.2,0.8,1.9,2.1,1.9,3.8c0,1.6-0.5,3-1.6,4.2c-1.1,1.2-2.5,2.1-4.3,2.8c-1.8,0.6-3.8,1-6,1
					C885.3,657.3,883,656.8,881.2,655.9z M894.3,653.6c1.2-0.8,1.8-1.7,1.8-3c0-0.8-0.2-1.4-0.7-1.9c-0.5-0.5-1.4-0.9-2.7-1.2
					l-6.9-1.3c-0.9,0.6-1.6,1.4-2.2,2.3c-0.6,0.9-1,1.8-1,2.6c0,1.3,0.5,2.2,1.5,2.8c1,0.5,2.7,0.8,5,0.8
					C891.4,654.7,893.1,654.3,894.3,653.6z M892.1,635.7c0.8-0.8,1.2-2.1,1.2-4c0-1.6-0.4-2.9-1.1-3.7c-0.8-0.8-2-1.3-3.7-1.3
					c-1.8,0-3.1,0.4-3.9,1.3c-0.8,0.9-1.2,2.2-1.2,4c0,1.7,0.4,2.9,1.2,3.7c0.8,0.8,2.1,1.2,3.7,1.2
					C890.1,636.8,891.3,636.5,892.1,635.7z"/>
				<path class="st1" d="M901.5,654.8c0.6-1.1,1.1-2.1,1.5-3.1c0.4-1,0.5-1.8,0.5-2.5c0-0.6-0.2-1.2-0.5-1.8c-0.3-0.5-0.7-1-1.1-1.3
					c0.8-1.7,1.9-2.5,3.3-2.5c0.9,0,1.6,0.3,2.1,0.9c0.5,0.6,0.8,1.3,0.8,2.2c0,1.5-0.6,3.1-1.7,4.8c-1.1,1.7-2.2,3-3.1,4
					L901.5,654.8z"/>
			</g>
			<g class="st0">
				<path class="st1" d="M78.6,709.6c-1.8-1.9-2.6-4.7-2.6-8.5c0-3.3,0.5-6.1,1.6-8.2c1.1-2.1,2.4-3.7,4.1-4.7
					c1.6-1,3.3-1.5,4.9-1.5c2.2,0,4,0.7,5.5,2V681l-4.1-1.2v-1.9l6.8-0.9l1.4,0.7v30.8l3.5,0.8v2l-6.8,1l-0.6-2.6l-0.2,0
					c-0.7,0.7-1.6,1.4-2.8,2c-1.2,0.6-2.6,0.9-4.1,0.9C82.6,712.5,80.4,711.5,78.6,709.6z M89.7,708.5c1-0.3,1.8-0.6,2.4-0.9v-16.9
					c-0.5-0.2-1.2-0.4-2.1-0.5c-0.9-0.2-1.7-0.2-2.6-0.2c-2.2,0-4,0.7-5.2,2.1c-1.2,1.4-1.8,3.9-1.8,7.4c0,3.3,0.5,5.7,1.4,7.2
					c0.9,1.5,2.6,2.3,4.9,2.3C87.8,709,88.7,708.8,89.7,708.5z"/>
				<path class="st1" d="M104.9,709c-1.8-2.3-2.8-5.2-2.8-8.7c0-2.6,0.5-5,1.4-7c1-2,2.3-3.7,4-4.8c1.7-1.2,3.6-1.7,5.8-1.7
					c2.7,0,4.8,0.9,6.1,2.7c1.4,1.8,2.1,3.9,2.1,6.5c0,1.8-0.2,2.9-0.5,3.5c-0.3,0.6-1,0.9-1.9,0.9h-12.6c0,2.5,0.6,4.6,1.9,6.2
					c1.2,1.6,3.2,2.4,6,2.4c1.2,0,2.2-0.1,3.1-0.3c0.9-0.2,1.6-0.4,2-0.5c0.5-0.2,0.8-0.3,0.9-0.4l0.7,1.4c0,0.1-0.4,0.4-1.1,1
					c-0.8,0.6-1.7,1.1-3,1.6c-1.2,0.5-2.6,0.7-4.1,0.7C109.4,712.5,106.7,711.3,104.9,709z M117.3,697.7c0.1-0.6,0.1-1.3,0.1-2
					c0-2-0.4-3.5-1.1-4.5c-0.7-1-2-1.5-3.8-1.5c-2,0-3.5,0.7-4.4,2.1c-1,1.4-1.5,3.5-1.5,6.2L117.3,697.7z"/>
				<path class="st1" d="M128,704.4l0.7,3.9c0.5,0.4,1.2,0.7,2,1c0.8,0.3,1.7,0.4,2.8,0.4c1.9,0,3.3-0.4,4-1.2
					c0.8-0.8,1.1-1.8,1.1-3.2c0-0.9-0.2-1.6-0.7-2.1c-0.5-0.5-1.1-0.9-1.8-1.2c-0.7-0.3-1.7-0.6-3-0.9c-1.6-0.4-2.9-0.8-3.9-1.2
					c-1-0.4-1.9-1.1-2.6-2.1c-0.7-1-1.1-2.3-1.1-3.9c0-2.3,0.9-4,2.6-5.2c1.7-1.2,3.9-1.8,6.5-1.8c1.4,0,2.9,0.2,4.2,0.5
					s2.4,0.6,2.9,0.9l-0.7,6.2H139l-0.7-4c0,0-0.5-0.2-1.5-0.4c-1-0.2-1.9-0.3-2.6-0.3c-1.8,0-3.1,0.3-3.8,0.9
					c-0.7,0.6-1.1,1.5-1.1,2.8c0,0.8,0.2,1.4,0.7,1.9c0.5,0.5,1,0.9,1.7,1.1c0.7,0.3,1.6,0.6,2.9,0.9c1.6,0.4,3,0.9,4,1.3
					c1,0.5,1.9,1.2,2.7,2.2c0.8,1,1.1,2.3,1.1,4c0,2.8-0.9,4.8-2.6,6c-1.7,1.2-3.9,1.8-6.7,1.8c-1.6,0-3.2-0.2-4.8-0.7
					c-1.5-0.4-2.6-0.9-3.1-1.3l0.6-6.1H128z"/>
				<path class="st1" d="M145.9,710l4-0.7v-17.8l-4-0.7v-2l7-1.4l1.1,0.5v21.5l3.9,0.7v2h-12V710z M149.4,682.8
					c-0.5-0.6-0.8-1.3-0.8-2.2c0-0.9,0.3-1.7,0.9-2.3c0.6-0.6,1.3-1,2.2-1c0.9,0,1.5,0.3,2,0.8s0.8,1.3,0.8,2.2
					c0,0.9-0.3,1.7-0.8,2.4c-0.5,0.7-1.3,1-2.2,1C150.6,683.6,149.9,683.3,149.4,682.8z"/>
				<path class="st1" d="M163,718.9c-1.8-0.9-2.7-2.3-2.7-4.2c0-1.5,0.6-2.7,1.7-3.7c1.1-1,2.5-1.9,4-2.7c-0.3-0.3-0.5-0.6-0.7-1.1
					c-0.2-0.5-0.3-1-0.3-1.5c0-0.6,0.2-1.2,0.7-1.8c0.4-0.6,1-1.1,1.6-1.5c-2.1-0.4-3.6-1.3-4.6-2.6c-1-1.3-1.5-2.8-1.5-4.6
					c0-1.6,0.4-3,1.3-4.3s2-2.3,3.5-3.1c1.5-0.8,3.1-1.1,4.9-1.1c2.2,0,4,0.5,5.4,1.5c0,0,0.5-0.4,1.3-1.1c0.9-0.7,1.9-1,3.1-1
					c1.5,0,2.2,0.7,2.2,2.2c0,0.8-0.3,1.5-0.9,2.2l-1.9-0.4c-0.3,0-0.6-0.1-1-0.2c-0.4-0.1-0.8-0.1-1.3-0.1c0.5,0.7,0.9,1.5,1.1,2.3
					c0.2,0.9,0.4,1.7,0.4,2.5c0,1.6-0.4,3-1.3,4.2c-0.9,1.2-2,2.2-3.4,2.8c-1.4,0.7-3,1-4.6,1h-0.6v2.8l5.3,1c2.4,0.5,4.3,1.1,5.5,2
					c1.2,0.8,1.9,2.1,1.9,3.8c0,1.6-0.5,3-1.6,4.2c-1.1,1.2-2.5,2.1-4.3,2.8c-1.8,0.6-3.8,1-6,1C167.1,720.3,164.8,719.8,163,718.9z
					 M176.1,716.6c1.2-0.8,1.8-1.7,1.8-3c0-0.8-0.2-1.4-0.7-1.9c-0.5-0.5-1.4-0.9-2.7-1.2l-6.9-1.3c-0.9,0.6-1.6,1.4-2.2,2.3
					c-0.6,0.9-1,1.8-1,2.6c0,1.3,0.5,2.2,1.5,2.8c1,0.5,2.7,0.8,5,0.8C173.1,717.7,174.9,717.3,176.1,716.6z M173.9,698.7
					c0.8-0.8,1.2-2.1,1.2-4c0-1.6-0.4-2.9-1.1-3.7c-0.8-0.8-2-1.3-3.7-1.3c-1.8,0-3.1,0.4-3.9,1.3c-0.8,0.9-1.2,2.2-1.2,4
					c0,1.7,0.4,2.9,1.2,3.7c0.8,0.8,2.1,1.2,3.7,1.2C171.8,699.8,173.1,699.5,173.9,698.7z"/>
				<path class="st1" d="M183.5,710l4-0.7v-17.8l-4-0.7v-2l7.5-1.4l0.4,1.7l0.1,0.3c3-1.6,5.7-2.5,8-2.5c2.1,0,3.7,0.6,4.8,1.8
					c1.1,1.2,1.7,2.9,1.7,5.1v15.6l4,0.7v2h-12v-2l3.9-0.7v-14.9c0-1.4-0.4-2.5-1.2-3.1c-0.8-0.6-2.2-1-4-1c-0.9,0-1.8,0.1-2.8,0.2
					c-1,0.1-1.7,0.3-2.3,0.4v18.3l3.9,0.7v2h-12V710z"/>
				<path class="st1" d="M212.4,710l4-0.7v-17.8l-4-0.7v-2l7-1.4l1.1,0.5v21.5l3.9,0.7v2h-12V710z M215.9,682.8
					c-0.5-0.6-0.8-1.3-0.8-2.2c0-0.9,0.3-1.7,0.9-2.3c0.6-0.6,1.3-1,2.2-1c0.9,0,1.5,0.3,2,0.8s0.8,1.3,0.8,2.2
					c0,0.9-0.3,1.7-0.8,2.4c-0.5,0.7-1.3,1-2.2,1C217.1,683.6,216.4,683.3,215.9,682.8z"/>
				<path class="st1" d="M226.9,710l4-0.7v-17.8l-4-0.7v-2l7.5-1.4l0.4,1.7l0.1,0.3c3-1.6,5.7-2.5,8-2.5c2.1,0,3.7,0.6,4.8,1.8
					c1.1,1.2,1.7,2.9,1.7,5.1v15.6l4,0.7v2h-12v-2l3.9-0.7v-14.9c0-1.4-0.4-2.5-1.2-3.1c-0.8-0.6-2.2-1-4-1c-0.9,0-1.8,0.1-2.8,0.2
					c-1,0.1-1.7,0.3-2.3,0.4v18.3l3.9,0.7v2h-12V710z"/>
				<path class="st1" d="M258.3,718.9c-1.8-0.9-2.7-2.3-2.7-4.2c0-1.5,0.6-2.7,1.7-3.7c1.1-1,2.5-1.9,4-2.7
					c-0.3-0.3-0.5-0.6-0.7-1.1c-0.2-0.5-0.3-1-0.3-1.5c0-0.6,0.2-1.2,0.7-1.8c0.4-0.6,1-1.1,1.6-1.5c-2.1-0.4-3.6-1.3-4.6-2.6
					c-1-1.3-1.5-2.8-1.5-4.6c0-1.6,0.4-3,1.3-4.3s2-2.3,3.5-3.1c1.5-0.8,3.1-1.1,4.9-1.1c2.2,0,4,0.5,5.4,1.5c0,0,0.5-0.4,1.3-1.1
					c0.9-0.7,1.9-1,3.1-1c1.5,0,2.2,0.7,2.2,2.2c0,0.8-0.3,1.5-0.9,2.2l-1.9-0.4c-0.3,0-0.6-0.1-1-0.2c-0.4-0.1-0.8-0.1-1.3-0.1
					c0.5,0.7,0.9,1.5,1.1,2.3c0.2,0.9,0.4,1.7,0.4,2.5c0,1.6-0.4,3-1.3,4.2c-0.9,1.2-2,2.2-3.4,2.8c-1.4,0.7-3,1-4.6,1h-0.6v2.8
					l5.3,1c2.4,0.5,4.3,1.1,5.5,2c1.2,0.8,1.9,2.1,1.9,3.8c0,1.6-0.5,3-1.6,4.2c-1.1,1.2-2.5,2.1-4.3,2.8c-1.8,0.6-3.8,1-6,1
					C262.4,720.3,260.1,719.8,258.3,718.9z M271.4,716.6c1.2-0.8,1.8-1.7,1.8-3c0-0.8-0.2-1.4-0.7-1.9c-0.5-0.5-1.4-0.9-2.7-1.2
					l-6.9-1.3c-0.9,0.6-1.6,1.4-2.2,2.3c-0.6,0.9-1,1.8-1,2.6c0,1.3,0.5,2.2,1.5,2.8c1,0.5,2.7,0.8,5,0.8
					C268.4,717.7,270.2,717.3,271.4,716.6z M269.2,698.7c0.8-0.8,1.2-2.1,1.2-4c0-1.6-0.4-2.9-1.1-3.7c-0.8-0.8-2-1.3-3.7-1.3
					c-1.8,0-3.1,0.4-3.9,1.3c-0.8,0.9-1.2,2.2-1.2,4c0,1.7,0.4,2.9,1.2,3.7c0.8,0.8,2.1,1.2,3.7,1.2
					C267.1,699.8,268.4,699.5,269.2,698.7z"/>
				<path class="st1" d="M278.6,717.8c0.6-1.1,1.1-2.1,1.4-3.1c0.4-1,0.6-1.8,0.6-2.5c0-0.6-0.2-1.2-0.5-1.8c-0.3-0.5-0.7-1-1.1-1.3
					c0.8-1.7,1.9-2.5,3.3-2.5c0.9,0,1.6,0.3,2.1,0.9c0.5,0.6,0.8,1.3,0.8,2.2c0,1.5-0.6,3.1-1.7,4.8c-1.1,1.7-2.2,3-3.1,4
					L278.6,717.8z"/>
				<path class="st1" d="M300.4,710.6c-1.2-1.2-1.8-2.6-1.8-4.4c0-4.2,3-6.7,9-7.6l4.5-0.6v-3.8c0-2.8-1.6-4.2-4.9-4.2
					c-0.7,0-1.4,0.1-2,0.2c-0.6,0.1-1,0.2-1.1,0.2l-0.8,4.6c0,0-0.1,0.1-0.5,0.2c-0.3,0.1-0.7,0.1-1.1,0.1c-0.6,0-1.1-0.2-1.6-0.6
					c-0.5-0.4-0.7-1-0.7-1.7c0-1.3,0.6-2.4,1.8-3.3c1.2-0.9,2.7-1.7,4.3-2.2s3-0.8,4-0.8c2.1,0,3.7,0.5,4.9,1.6
					c1.1,1.1,1.7,2.5,1.7,4.1v16l3.5,0.7v1.9c-0.1,0.1-0.4,0.2-0.9,0.3c-0.5,0.1-1.1,0.3-1.8,0.4c-0.7,0.2-1.5,0.2-2.3,0.2
					c-1.5,0-2.3-0.8-2.4-2.3h-0.2c-0.4,0.5-1.3,1-2.5,1.6c-1.2,0.6-2.5,0.9-3.9,0.9C303.3,712.3,301.6,711.8,300.4,710.6z
					 M309.7,709c0.7-0.1,1.2-0.3,1.6-0.4c0.4-0.2,0.6-0.2,0.8-0.3v-8c-3.2,0.2-5.5,0.7-6.9,1.5c-1.4,0.8-2.2,2-2.2,3.5
					c0,1.1,0.4,2,1.2,2.7c0.8,0.7,1.9,1.1,3.4,1.1C308.4,709.2,309.1,709.1,309.7,709z"/>
				<path class="st1" d="M322,710l4-0.7v-17.8l-4-0.7v-2l7.5-1.4l0.4,1.7l0.1,0.3c3-1.6,5.7-2.5,8-2.5c2.1,0,3.7,0.6,4.8,1.8
					c1.1,1.2,1.7,2.9,1.7,5.1v15.6l4,0.7v2h-12v-2l3.9-0.7v-14.9c0-1.4-0.4-2.5-1.2-3.1c-0.8-0.6-2.2-1-4-1c-0.9,0-1.8,0.1-2.8,0.2
					c-1,0.1-1.7,0.3-2.3,0.4v18.3l3.9,0.7v2h-12V710z"/>
				<path class="st1" d="M354.2,709.6c-1.8-1.9-2.6-4.7-2.6-8.5c0-3.3,0.5-6.1,1.6-8.2c1.1-2.1,2.4-3.7,4.1-4.7
					c1.6-1,3.3-1.5,4.9-1.5c2.2,0,4,0.7,5.5,2V681l-4.1-1.2v-1.9l6.8-0.9l1.4,0.7v30.8l3.5,0.8v2l-6.8,1l-0.6-2.6l-0.2,0
					c-0.7,0.7-1.6,1.4-2.8,2c-1.2,0.6-2.6,0.9-4.1,0.9C358.1,712.5,355.9,711.5,354.2,709.6z M365.2,708.5c1-0.3,1.8-0.6,2.4-0.9
					v-16.9c-0.5-0.2-1.2-0.4-2.1-0.5c-0.9-0.2-1.7-0.2-2.6-0.2c-2.2,0-4,0.7-5.2,2.1c-1.2,1.4-1.8,3.9-1.8,7.4
					c0,3.3,0.5,5.7,1.4,7.2c0.9,1.5,2.6,2.3,4.9,2.3C363.3,709,364.3,708.8,365.2,708.5z"/>
				<path class="st1" d="M405.3,710.3c-0.7,0.5-1.7,1-2.9,1.5c-1.2,0.4-2.5,0.7-4,0.7c-2.1,0-3.9-0.5-5.5-1.4
					c-1.6-0.9-2.9-2.3-3.8-4.1c-0.9-1.8-1.4-4-1.4-6.6c0-2.4,0.4-4.7,1.3-6.7c0.9-2,2.2-3.7,3.9-4.9s3.8-1.9,6.1-1.9
					c2.4,0,4.3,0.6,5.6,1.8c1.4,1.2,2,2.7,2,4.4c0,0.6-0.2,1.1-0.7,1.6c-0.4,0.5-1,0.7-1.6,0.7c-0.5,0-0.9,0-1.2-0.1
					c-0.3-0.1-0.4-0.2-0.4-0.2l-0.8-4.7c-0.1,0-0.2-0.1-0.5-0.2c-0.3-0.1-0.6-0.2-1.1-0.3c-0.5-0.1-1-0.1-1.6-0.1
					c-2.4,0-4.1,0.8-5.1,2.4c-1,1.6-1.5,4.1-1.5,7.6c0,3.3,0.7,5.7,2,7.1c1.3,1.4,3.3,2.2,6,2.2c0.9,0,1.8-0.1,2.6-0.2
					c0.8-0.1,1.5-0.3,2-0.5c0.5-0.2,0.8-0.3,1-0.3l0.7,1.5C406.4,709.5,406.1,709.8,405.3,710.3z"/>
				<path class="st1" d="M412.4,709.1c-1.8-2.2-2.7-5.3-2.7-9.1c0-2.4,0.5-4.6,1.4-6.6c0.9-2,2.3-3.6,4-4.8c1.7-1.2,3.8-1.8,6-1.8
					c3.5,0,6.2,1.1,8,3.2c1.8,2.1,2.8,5.1,2.8,8.8c0,2.6-0.5,4.9-1.4,7c-0.9,2.1-2.2,3.7-4,4.9c-1.8,1.2-3.9,1.8-6.3,1.8
					C416.8,712.5,414.2,711.3,412.4,709.1z M426,707.1c0.9-1.6,1.4-4.1,1.4-7.3c0-3.5-0.5-6-1.5-7.7c-1-1.6-2.7-2.4-5.1-2.4
					c-1.8,0-3.2,0.4-4.2,1.1c-1,0.8-1.6,1.9-2,3.3c-0.4,1.4-0.5,3.3-0.5,5.6c0,3.2,0.5,5.6,1.6,7.3c1,1.7,2.9,2.5,5.4,2.5
					C423.5,709.5,425.1,708.7,426,707.1z"/>
				<path class="st1" d="M434.6,710l4-0.7v-17.8l-4-0.7v-2l7.5-1.4l0.4,1.7l0.1,0.3c3-1.6,5.7-2.5,8-2.5c2.1,0,3.7,0.6,4.8,1.8
					c1.1,1.2,1.7,2.9,1.7,5.1v15.6l4,0.7v2h-12v-2l3.9-0.7v-14.9c0-1.4-0.4-2.5-1.2-3.1c-0.8-0.6-2.2-1-4-1c-0.9,0-1.8,0.1-2.8,0.2
					c-1,0.1-1.7,0.3-2.3,0.4v18.3l3.9,0.7v2h-12V710z"/>
				<path class="st1" d="M466.2,704.4l0.7,3.9c0.5,0.4,1.2,0.7,2,1c0.8,0.3,1.7,0.4,2.8,0.4c1.9,0,3.3-0.4,4-1.2
					c0.8-0.8,1.1-1.8,1.1-3.2c0-0.9-0.2-1.6-0.7-2.1c-0.5-0.5-1.1-0.9-1.8-1.2s-1.7-0.6-3-0.9c-1.6-0.4-2.9-0.8-3.9-1.2
					c-1-0.4-1.9-1.1-2.6-2.1s-1.1-2.3-1.1-3.9c0-2.3,0.8-4,2.5-5.2s3.9-1.8,6.5-1.8c1.4,0,2.8,0.2,4.2,0.5s2.4,0.6,2.9,0.9l-0.7,6.2
					h-2l-0.7-4c0,0-0.5-0.2-1.5-0.4c-1-0.2-1.8-0.3-2.7-0.3c-1.8,0-3.1,0.3-3.8,0.9c-0.7,0.6-1.1,1.5-1.1,2.8c0,0.8,0.2,1.4,0.7,1.9
					c0.5,0.5,1,0.9,1.7,1.1c0.7,0.3,1.6,0.6,2.9,0.9c1.6,0.4,3,0.9,4,1.3c1,0.5,2,1.2,2.7,2.2c0.8,1,1.1,2.3,1.1,4
					c0,2.8-0.9,4.8-2.6,6c-1.7,1.2-3.9,1.8-6.7,1.8c-1.6,0-3.2-0.2-4.8-0.7c-1.5-0.4-2.6-0.9-3.2-1.3l0.6-6.1H466.2z"/>
				<path class="st1" d="M483.4,689.9v-2.1l3.9-1l1.2-5.2h2.9v5.7h7v1.4l-0.7,1.2h-6.3v16.4c0,1,0.2,1.7,0.6,2
					c0.4,0.3,1,0.5,1.9,0.5c0.8,0,1.6-0.1,2.4-0.3c0.8-0.2,1.3-0.3,1.6-0.4l0.5,1.6c0.1,0-0.2,0.2-0.9,0.7c-0.7,0.5-1.4,0.9-2.3,1.2
					c-0.9,0.4-1.7,0.5-2.5,0.5c-2,0-3.4-0.5-4.2-1.4c-0.8-1-1.2-2.3-1.2-4.1v-16.8H483.4z"/>
				<path class="st1" d="M504.8,709.3v-18l-3.9-0.7v-2l7.2-1.4l0.8,2.8c0.2-0.2,0.6-0.5,1.2-1c0.6-0.5,1.4-1,2.2-1.4
					c0.8-0.4,1.6-0.7,2.2-0.7c0.7,0,1.2,0.2,1.6,0.7c0.4,0.5,0.6,1,0.6,1.8c0,0.5-0.1,1-0.3,1.4c-0.2,0.4-0.5,0.7-0.7,0.9
					s-0.4,0.3-0.5,0.4l-2.3-0.6c-0.3-0.1-0.6-0.2-0.9-0.2c-0.3,0-0.6-0.1-0.9-0.1c-0.5,0-1,0.1-1.5,0.2s-0.8,0.2-0.8,0.2v17.8
					l4.6,0.6v2.2h-12.2v-2L504.8,709.3z"/>
				<path class="st1" d="M524.3,710.7c-1.3-1.2-1.9-2.9-1.9-5.1v-14.8l-4.2-0.7v-1.9l6.9-1.4l1.4,0.7v15.9c0,2.2,0.4,3.7,1.2,4.5
					c0.8,0.9,2.2,1.3,4.2,1.3c0.7,0,1.5-0.1,2.4-0.4c0.9-0.3,1.7-0.6,2.4-1v-17l-4.1-0.7v-1.9l6.9-1.4l1.4,0.7v21l3.5,0.8v1.9
					l-6.9,1l-0.8-2.5l-0.1,0c-0.7,0.8-1.8,1.5-3,2s-2.6,0.8-4,0.8C527.4,712.5,525.6,711.8,524.3,710.7z"/>
				<path class="st1" d="M564.5,710.3c-0.7,0.5-1.7,1-2.9,1.5c-1.2,0.4-2.5,0.7-4,0.7c-2.1,0-3.9-0.5-5.5-1.4
					c-1.6-0.9-2.9-2.3-3.8-4.1c-0.9-1.8-1.4-4-1.4-6.6c0-2.4,0.4-4.7,1.3-6.7c0.9-2,2.2-3.7,3.9-4.9s3.8-1.9,6.1-1.9
					c2.4,0,4.3,0.6,5.6,1.8c1.4,1.2,2,2.7,2,4.4c0,0.6-0.2,1.1-0.7,1.6c-0.4,0.5-1,0.7-1.6,0.7c-0.5,0-0.9,0-1.2-0.1
					c-0.3-0.1-0.4-0.2-0.4-0.2l-0.8-4.7c-0.1,0-0.2-0.1-0.5-0.2c-0.3-0.1-0.6-0.2-1.1-0.3c-0.5-0.1-1-0.1-1.6-0.1
					c-2.4,0-4.1,0.8-5.1,2.4c-1,1.6-1.5,4.1-1.5,7.6c0,3.3,0.7,5.7,2,7.1c1.3,1.4,3.3,2.2,6,2.2c0.9,0,1.8-0.1,2.6-0.2
					c0.8-0.1,1.5-0.3,2-0.5c0.5-0.2,0.8-0.3,1-0.3l0.7,1.5C565.6,709.5,565.3,709.8,564.5,710.3z"/>
			</g>
			<g class="st0">
				<path class="st1" d="M568.3,689.9v-2.1l3.9-1l1.2-5.2h2.9v5.7h7.1v1.4l-0.7,1.2h-6.4v16.4c0,1,0.2,1.7,0.6,2
					c0.4,0.3,1,0.5,1.9,0.5c0.8,0,1.6-0.1,2.4-0.3c0.8-0.2,1.3-0.3,1.6-0.4l0.5,1.6c0.1,0-0.2,0.2-0.9,0.7s-1.4,0.9-2.3,1.2
					c-0.9,0.4-1.7,0.5-2.5,0.5c-2,0-3.4-0.5-4.2-1.4c-0.8-1-1.2-2.3-1.2-4.1v-16.8H568.3z"/>
			</g>
			<g class="st0">
				<path class="st1" d="M586.4,710l4-0.7v-17.8l-4-0.7v-2l7-1.4l1.1,0.5v21.5l3.9,0.7v2h-12V710z M590,682.8
					c-0.5-0.6-0.8-1.3-0.8-2.2c0-0.9,0.3-1.7,0.9-2.3c0.6-0.6,1.3-1,2.2-1c0.9,0,1.5,0.3,2,0.8s0.8,1.3,0.8,2.2
					c0,0.9-0.3,1.7-0.8,2.4c-0.5,0.7-1.3,1-2.2,1C591.2,683.6,590.5,683.3,590,682.8z"/>
				<path class="st1" d="M601,710l4-0.7v-17.8l-4-0.7v-2l7.5-1.4l0.4,1.7l0.1,0.3c3-1.6,5.7-2.5,8-2.5c2.1,0,3.7,0.6,4.8,1.8
					c1.1,1.2,1.7,2.9,1.7,5.1v15.6l4,0.7v2h-12v-2l3.9-0.7v-14.9c0-1.4-0.4-2.5-1.2-3.1c-0.8-0.6-2.2-1-4-1c-0.9,0-1.8,0.1-2.8,0.2
					c-1,0.1-1.7,0.3-2.3,0.4v18.3l3.9,0.7v2h-12V710z"/>
				<path class="st1" d="M632.3,718.9c-1.8-0.9-2.7-2.3-2.7-4.2c0-1.5,0.6-2.7,1.7-3.7c1.1-1,2.5-1.9,4-2.7
					c-0.3-0.3-0.5-0.6-0.7-1.1c-0.2-0.5-0.3-1-0.3-1.5c0-0.6,0.2-1.2,0.7-1.8c0.4-0.6,1-1.1,1.6-1.5c-2.1-0.4-3.6-1.3-4.6-2.6
					c-1-1.3-1.5-2.8-1.5-4.6c0-1.6,0.4-3,1.3-4.3s2-2.3,3.5-3.1c1.5-0.8,3.1-1.1,4.9-1.1c2.2,0,4,0.5,5.4,1.5c0,0,0.5-0.4,1.3-1.1
					c0.9-0.7,1.9-1,3.1-1c1.5,0,2.2,0.7,2.2,2.2c0,0.8-0.3,1.5-0.9,2.2l-1.9-0.4c-0.3,0-0.6-0.1-1-0.2c-0.4-0.1-0.8-0.1-1.3-0.1
					c0.5,0.7,0.9,1.5,1.1,2.3c0.2,0.9,0.4,1.7,0.4,2.5c0,1.6-0.4,3-1.3,4.2c-0.9,1.2-2,2.2-3.4,2.8c-1.4,0.7-3,1-4.6,1h-0.6v2.8
					l5.3,1c2.4,0.5,4.3,1.1,5.5,2c1.2,0.8,1.9,2.1,1.9,3.8c0,1.6-0.5,3-1.6,4.2c-1.1,1.2-2.5,2.1-4.3,2.8c-1.8,0.6-3.8,1-6,1
					C636.4,720.3,634.1,719.8,632.3,718.9z M645.4,716.6c1.2-0.8,1.8-1.7,1.8-3c0-0.8-0.2-1.4-0.7-1.9c-0.5-0.5-1.4-0.9-2.7-1.2
					l-6.9-1.3c-0.9,0.6-1.6,1.4-2.2,2.3c-0.6,0.9-1,1.8-1,2.6c0,1.3,0.5,2.2,1.5,2.8c1,0.5,2.7,0.8,5,0.8
					C642.5,717.7,644.2,717.3,645.4,716.6z M643.2,698.7c0.8-0.8,1.2-2.1,1.2-4c0-1.6-0.4-2.9-1.1-3.7c-0.8-0.8-2-1.3-3.7-1.3
					c-1.8,0-3.1,0.4-3.9,1.3c-0.8,0.9-1.2,2.2-1.2,4c0,1.7,0.4,2.9,1.2,3.7c0.8,0.8,2.1,1.2,3.7,1.2
					C641.2,699.8,642.4,699.5,643.2,698.7z"/>
				<path class="st1" d="M671.3,711.8c-1-0.5-1.7-1-2.3-1.5h-0.4l-1.4,1.9h-2V681l-4.1-0.7v-1.9l6.9-1.4l1.4,0.7v11.7
					c0.7-0.6,1.6-1.2,2.8-1.8c1.2-0.5,2.6-0.8,4.2-0.8c2.8,0,5,0.9,6.7,2.8c1.7,1.9,2.5,4.7,2.5,8.6c0,3-0.5,5.6-1.4,7.8
					c-1,2.1-2.2,3.8-3.8,4.8c-1.6,1.1-3.4,1.7-5.3,1.7C673.5,712.5,672.3,712.2,671.3,711.8z M679.3,707.2c1.1-1.5,1.7-4.1,1.7-7.6
					c0-3.3-0.5-5.6-1.5-7.1s-2.7-2.2-5-2.2c-1.6,0-3.4,0.2-5.1,0.8v17.5c0.6,0.2,1.3,0.5,2.2,0.7c0.9,0.2,1.9,0.3,2.8,0.3
					C676.5,709.5,678.2,708.8,679.3,707.2z"/>
				<path class="st1" d="M693.9,710.7c-1.3-1.2-1.9-2.9-1.9-5.1v-14.8l-4.1-0.7v-1.9l6.9-1.4l1.4,0.7v15.9c0,2.2,0.4,3.7,1.2,4.5
					c0.8,0.9,2.2,1.3,4.2,1.3c0.7,0,1.5-0.1,2.4-0.4c0.9-0.3,1.7-0.6,2.4-1v-17l-4.1-0.7v-1.9l6.9-1.4l1.4,0.7v21l3.6,0.8v1.9l-7,1
					l-0.8-2.5l0,0c-0.7,0.8-1.8,1.5-3.1,2c-1.3,0.5-2.6,0.8-3.9,0.8C697,712.5,695.2,711.8,693.9,710.7z"/>
				<path class="st1" d="M716.7,710l4-0.7v-17.8l-4-0.7v-2l7-1.4l1.1,0.5v21.5l3.9,0.7v2h-12V710z M720.3,682.8
					c-0.5-0.6-0.8-1.3-0.8-2.2c0-0.9,0.3-1.7,0.9-2.3c0.6-0.6,1.3-1,2.2-1c0.9,0,1.5,0.3,2,0.8s0.8,1.3,0.8,2.2
					c0,0.9-0.3,1.7-0.8,2.4c-0.5,0.7-1.3,1-2.2,1C721.5,683.6,720.8,683.3,720.3,682.8z"/>
				<path class="st1" d="M730.9,710l4-0.7v-28.3l-4-0.7v-2l6.9-1.1l1.1,0.5v31.8l3.9,0.7v2h-12V710z"/>
				<path class="st1" d="M748.8,709.6c-1.8-1.9-2.6-4.7-2.6-8.5c0-3.3,0.5-6.1,1.6-8.2c1.1-2.1,2.4-3.7,4.1-4.7
					c1.6-1,3.3-1.5,4.9-1.5c2.2,0,4,0.7,5.5,2V681l-4.1-1.2v-1.9l6.8-0.9l1.4,0.7v30.8l3.5,0.8v2l-6.8,1l-0.6-2.6l-0.2,0
					c-0.7,0.7-1.6,1.4-2.8,2c-1.2,0.6-2.6,0.9-4.1,0.9C752.7,712.5,750.5,711.5,748.8,709.6z M759.8,708.5c1-0.3,1.8-0.6,2.4-0.9
					v-16.9c-0.5-0.2-1.2-0.4-2.1-0.5c-0.9-0.2-1.7-0.2-2.6-0.2c-2.2,0-4,0.7-5.2,2.1c-1.2,1.4-1.8,3.9-1.8,7.4
					c0,3.3,0.5,5.7,1.4,7.2c0.9,1.5,2.6,2.3,4.9,2.3C757.9,709,758.9,708.8,759.8,708.5z"/>
				<path class="st1" d="M772.4,710l4-0.7v-17.8l-4-0.7v-2l6.9-1.4l1.2,0.5v21.5l3.9,0.7v2h-12V710z M776,682.8
					c-0.5-0.6-0.8-1.3-0.8-2.2c0-0.9,0.3-1.7,0.9-2.3c0.6-0.6,1.3-1,2.2-1c0.9,0,1.5,0.3,2,0.8s0.8,1.3,0.8,2.2
					c0,0.9-0.3,1.7-0.8,2.4c-0.5,0.7-1.3,1-2.2,1C777.2,683.6,776.5,683.3,776,682.8z"/>
				<path class="st1" d="M787,710l4-0.7v-17.8l-4-0.7v-2l7.5-1.4l0.4,1.7l0.1,0.3c3-1.6,5.7-2.5,8-2.5c2.1,0,3.7,0.6,4.8,1.8
					c1.2,1.2,1.7,2.9,1.7,5.1v15.6l4,0.7v2h-12v-2l3.9-0.7v-14.9c0-1.4-0.4-2.5-1.2-3.1c-0.8-0.6-2.2-1-4-1c-0.9,0-1.8,0.1-2.8,0.2
					c-1,0.1-1.7,0.3-2.3,0.4v18.3l3.9,0.7v2h-12V710z"/>
				<path class="st1" d="M818.3,718.9c-1.8-0.9-2.7-2.3-2.7-4.2c0-1.5,0.6-2.7,1.7-3.7c1.1-1,2.5-1.9,4-2.7
					c-0.3-0.3-0.5-0.6-0.7-1.1c-0.2-0.5-0.3-1-0.3-1.5c0-0.6,0.2-1.2,0.7-1.8c0.4-0.6,1-1.1,1.6-1.5c-2.1-0.4-3.6-1.3-4.6-2.6
					c-1-1.3-1.5-2.8-1.5-4.6c0-1.6,0.4-3,1.3-4.3c0.9-1.3,2-2.3,3.5-3.1s3.1-1.1,4.9-1.1c2.2,0,4,0.5,5.4,1.5c0,0,0.5-0.4,1.3-1.1
					c0.9-0.7,1.9-1,3-1c1.5,0,2.2,0.7,2.2,2.2c0,0.8-0.3,1.5-0.9,2.2l-1.9-0.4c-0.3,0-0.6-0.1-1-0.2c-0.4-0.1-0.8-0.1-1.3-0.1
					c0.5,0.7,0.9,1.5,1.1,2.3c0.2,0.9,0.4,1.7,0.4,2.5c0,1.6-0.4,3-1.3,4.2c-0.8,1.2-2,2.2-3.4,2.8c-1.4,0.7-3,1-4.6,1h-0.7v2.8
					l5.3,1c2.4,0.5,4.3,1.1,5.5,2c1.2,0.8,1.9,2.1,1.9,3.8c0,1.6-0.5,3-1.6,4.2c-1.1,1.2-2.5,2.1-4.3,2.8c-1.8,0.6-3.8,1-6,1
					C822.4,720.3,820.1,719.8,818.3,718.9z M831.4,716.6c1.2-0.8,1.8-1.7,1.8-3c0-0.8-0.2-1.4-0.7-1.9c-0.5-0.5-1.4-0.9-2.7-1.2
					l-6.9-1.3c-0.9,0.6-1.6,1.4-2.2,2.3c-0.6,0.9-1,1.8-1,2.6c0,1.3,0.5,2.2,1.5,2.8c1,0.5,2.7,0.8,5,0.8
					C828.5,717.7,830.2,717.3,831.4,716.6z M829.2,698.7c0.8-0.8,1.2-2.1,1.2-4c0-1.6-0.4-2.9-1.1-3.7c-0.8-0.8-2-1.3-3.7-1.3
					c-1.8,0-3.1,0.4-3.9,1.3c-0.8,0.9-1.2,2.2-1.2,4c0,1.7,0.4,2.9,1.2,3.7c0.8,0.8,2.1,1.2,3.7,1.2
					C827.2,699.8,828.4,699.5,829.2,698.7z"/>
				<path class="st1" d="M841.7,704.4l0.7,3.9c0.5,0.4,1.2,0.7,2,1c0.8,0.3,1.7,0.4,2.8,0.4c1.9,0,3.3-0.4,4-1.2
					c0.8-0.8,1.1-1.8,1.1-3.2c0-0.9-0.2-1.6-0.7-2.1c-0.5-0.5-1.1-0.9-1.8-1.2c-0.7-0.3-1.7-0.6-3-0.9c-1.6-0.4-2.9-0.8-3.9-1.2
					c-1-0.4-1.9-1.1-2.6-2.1c-0.7-1-1.1-2.3-1.1-3.9c0-2.3,0.9-4,2.6-5.2c1.7-1.2,3.9-1.8,6.5-1.8c1.4,0,2.9,0.2,4.2,0.5
					s2.4,0.6,2.9,0.9l-0.7,6.2h-2.1l-0.7-4c0,0-0.5-0.2-1.5-0.4c-1-0.2-1.9-0.3-2.6-0.3c-1.8,0-3.1,0.3-3.8,0.9s-1.1,1.5-1.1,2.8
					c0,0.8,0.2,1.4,0.7,1.9c0.5,0.5,1,0.9,1.7,1.1c0.7,0.3,1.6,0.6,2.9,0.9c1.6,0.4,3,0.9,4,1.3c1,0.5,1.9,1.2,2.7,2.2
					c0.8,1,1.1,2.3,1.1,4c0,2.8-0.9,4.8-2.6,6c-1.7,1.2-3.9,1.8-6.7,1.8c-1.6,0-3.2-0.2-4.8-0.7s-2.6-0.9-3.1-1.3l0.6-6.1H841.7z"/>
			</g>
			<g class="st0">
				<path class="st1" d="M77.6,773.6c-1.2-1.2-1.8-2.6-1.8-4.4c0-4.2,3-6.7,9-7.6l4.5-0.6v-3.8c0-2.8-1.6-4.2-4.9-4.2
					c-0.7,0-1.4,0.1-2,0.2c-0.6,0.1-1,0.2-1.1,0.2l-0.8,4.6c0,0-0.1,0.1-0.5,0.2c-0.3,0.1-0.7,0.1-1.1,0.1c-0.6,0-1.1-0.2-1.6-0.6
					c-0.5-0.4-0.7-1-0.7-1.7c0-1.3,0.6-2.4,1.8-3.3c1.2-0.9,2.7-1.7,4.3-2.2s3-0.8,4-0.8c2.1,0,3.7,0.5,4.9,1.6
					c1.1,1.1,1.7,2.5,1.7,4.1v16l3.5,0.7v1.9c-0.1,0.1-0.4,0.2-0.9,0.3c-0.5,0.1-1.1,0.3-1.8,0.4c-0.7,0.2-1.5,0.2-2.3,0.2
					c-1.5,0-2.3-0.8-2.4-2.3h-0.2c-0.4,0.5-1.3,1-2.5,1.6c-1.2,0.6-2.5,0.9-3.9,0.9C80.6,775.3,78.8,774.8,77.6,773.6z M87,772
					c0.7-0.1,1.2-0.3,1.6-0.4c0.4-0.2,0.6-0.2,0.8-0.3v-8c-3.2,0.2-5.5,0.7-6.9,1.5c-1.4,0.8-2.2,2-2.2,3.5c0,1.1,0.4,2,1.2,2.7
					c0.8,0.7,1.9,1.1,3.4,1.1C85.6,772.2,86.3,772.1,87,772z"/>
				<path class="st1" d="M99.3,773l4-0.7v-17.8l-4-0.7v-2l7.5-1.4l0.4,1.7l0.1,0.3c3-1.6,5.7-2.5,8-2.5c2.1,0,3.7,0.6,4.8,1.8
					c1.1,1.2,1.7,2.9,1.7,5.1v15.6l4,0.7v2h-12v-2l3.9-0.7v-14.9c0-1.4-0.4-2.5-1.2-3.1c-0.8-0.6-2.2-1-4-1c-0.9,0-1.8,0.1-2.8,0.2
					c-1,0.1-1.7,0.3-2.3,0.4v18.3l3.9,0.7v2h-12V773z"/>
				<path class="st1" d="M131.4,772.6c-1.8-1.9-2.6-4.7-2.6-8.5c0-3.3,0.5-6.1,1.6-8.2c1.1-2.1,2.4-3.7,4.1-4.7
					c1.6-1,3.3-1.5,4.9-1.5c2.2,0,4,0.7,5.5,2V744l-4.1-1.2v-1.9l6.8-0.9l1.4,0.7v30.8l3.5,0.8v2l-6.8,1l-0.6-2.6l-0.2,0
					c-0.7,0.7-1.6,1.4-2.8,2c-1.2,0.6-2.6,0.9-4.1,0.9C135.4,775.5,133.2,774.5,131.4,772.6z M142.5,771.5c1-0.3,1.8-0.6,2.4-0.9
					v-16.9c-0.5-0.2-1.2-0.4-2.1-0.5c-0.9-0.2-1.7-0.2-2.6-0.2c-2.2,0-4,0.7-5.2,2.1c-1.2,1.4-1.8,3.9-1.8,7.4
					c0,3.3,0.5,5.7,1.4,7.2c0.9,1.5,2.6,2.3,4.9,2.3C140.5,772,141.5,771.8,142.5,771.5z"/>
				<path class="st1" d="M167.7,772.1c-1.8-2.2-2.7-5.3-2.7-9.1c0-2.4,0.5-4.6,1.4-6.6c0.9-2,2.3-3.6,4-4.8c1.7-1.2,3.8-1.8,6.1-1.8
					c3.5,0,6.2,1.1,8,3.2c1.8,2.1,2.8,5.1,2.8,8.8c0,2.6-0.5,4.9-1.4,7c-0.9,2.1-2.2,3.7-4,4.9c-1.8,1.2-3.9,1.8-6.3,1.8
					C172.1,775.5,169.5,774.3,167.7,772.1z M181.3,770.1c0.9-1.6,1.4-4.1,1.4-7.3c0-3.5-0.5-6-1.5-7.7c-1-1.6-2.7-2.4-5.1-2.4
					c-1.8,0-3.2,0.4-4.1,1.1c-1,0.8-1.6,1.9-2,3.3c-0.4,1.4-0.5,3.3-0.5,5.6c0,3.2,0.5,5.6,1.6,7.3c1,1.7,2.9,2.5,5.4,2.5
					C178.8,772.5,180.4,771.7,181.3,770.1z"/>
				<path class="st1" d="M189.2,752.9v-2.1l3.9-1l1.2-5.2h2.9v5.7h7.1v1.4l-0.7,1.2h-6.4v16.4c0,1,0.2,1.7,0.6,2
					c0.4,0.3,1,0.5,1.9,0.5c0.8,0,1.6-0.1,2.4-0.3c0.8-0.2,1.3-0.3,1.6-0.4l0.5,1.6c0.1,0-0.2,0.2-0.9,0.7s-1.4,0.9-2.3,1.2
					c-0.9,0.4-1.7,0.5-2.5,0.5c-2,0-3.4-0.5-4.2-1.4c-0.8-1-1.2-2.3-1.2-4.1v-16.8H189.2z"/>
				<path class="st1" d="M206.9,773l4-0.7v-28.3l-4-0.7v-2l7-1.1l1.1,0.5v11.8c1.1-0.7,2.4-1.3,3.9-1.8c1.5-0.5,2.8-0.7,3.9-0.7
					c1.9,0,3.5,0.5,4.7,1.7c1.2,1.1,1.9,2.8,1.9,5.2v15.6l4,0.7v2h-12v-2l3.9-0.7v-14.9c0-1.5-0.4-2.5-1.3-3.1
					c-0.9-0.6-2.2-0.9-4-0.9c-0.7,0-1.5,0.1-2.4,0.2c-1,0.1-1.8,0.3-2.6,0.5v18.3l3.9,0.7v2h-12.1V773z"/>
				<path class="st1" d="M238.5,772c-1.8-2.3-2.8-5.2-2.8-8.7c0-2.6,0.5-5,1.4-7c1-2,2.3-3.7,4-4.8c1.7-1.2,3.6-1.7,5.8-1.7
					c2.7,0,4.8,0.9,6.1,2.7c1.4,1.8,2.1,3.9,2.1,6.5c0,1.8-0.2,2.9-0.5,3.5c-0.3,0.6-1,0.9-1.9,0.9h-12.6c0,2.5,0.6,4.6,1.9,6.2
					c1.2,1.6,3.2,2.4,6,2.4c1.2,0,2.2-0.1,3.1-0.3c0.9-0.2,1.6-0.4,2-0.5c0.5-0.2,0.8-0.3,0.9-0.4l0.7,1.4c0,0.1-0.4,0.4-1.1,1
					c-0.8,0.6-1.7,1.1-3,1.6c-1.2,0.5-2.6,0.7-4.1,0.7C243,775.5,240.3,774.3,238.5,772z M250.9,760.7c0.1-0.6,0.1-1.3,0.1-2
					c0-2-0.4-3.5-1.1-4.5c-0.7-1-2-1.5-3.8-1.5c-2,0-3.5,0.7-4.4,2.1c-1,1.4-1.5,3.5-1.5,6.2L250.9,760.7z"/>
				<path class="st1" d="M262.4,772.3v-18l-3.9-0.7v-2l7.2-1.4l0.8,2.8c0.2-0.2,0.6-0.5,1.2-1c0.6-0.5,1.4-1,2.2-1.4
					c0.8-0.4,1.6-0.7,2.2-0.7c0.7,0,1.2,0.2,1.6,0.7c0.4,0.5,0.6,1,0.6,1.8c0,0.5-0.1,1-0.3,1.4c-0.2,0.4-0.5,0.7-0.7,0.9
					s-0.4,0.3-0.5,0.4l-2.3-0.6c-0.3-0.1-0.6-0.2-0.9-0.2c-0.3,0-0.6-0.1-0.9-0.1c-0.5,0-0.9,0.1-1.4,0.2s-0.8,0.2-0.8,0.2v17.8
					l4.6,0.6v2.2h-12.1v-2L262.4,772.3z"/>
				<path class="st1" d="M286.7,781.2l3.5-0.7v-26l-4-0.7v-2l7.4-1.4l0.6,2l0,0.2c1-0.8,2.1-1.5,3.4-2c1.3-0.5,2.5-0.7,3.6-0.7
					c3,0,5.3,1,6.9,2.9c1.6,2,2.4,4.8,2.4,8.5c0,2.8-0.5,5.2-1.4,7.3s-2.2,3.7-3.8,4.8c-1.7,1.1-3.6,1.7-5.8,1.7
					c-0.9,0-1.9-0.2-2.8-0.5c-0.9-0.3-1.8-0.7-2.5-1.2v7.2l4.4,0.6v2.2h-11.9V781.2z M304.3,769.8c1.1-1.5,1.6-3.9,1.6-7.2
					c0-3.3-0.5-5.7-1.5-7.1c-1-1.4-2.7-2.2-5-2.2c-1.7,0-3.4,0.2-5.2,0.8v16.8c0.6,0.4,1.4,0.7,2.3,0.9c0.9,0.2,1.8,0.3,2.6,0.3
					C301.5,772.1,303.2,771.3,304.3,769.8z"/>
				<path class="st1" d="M313.6,773l4-0.7v-28.3l-4-0.7v-2l7-1.1l1.1,0.5v11.8c1.1-0.7,2.4-1.3,3.9-1.8c1.5-0.5,2.8-0.7,3.9-0.7
					c1.9,0,3.5,0.5,4.7,1.7c1.2,1.1,1.9,2.8,1.9,5.2v15.6l4,0.7v2h-12v-2l3.9-0.7v-14.9c0-1.5-0.4-2.5-1.3-3.1
					c-0.9-0.6-2.2-0.9-4-0.9c-0.7,0-1.5,0.1-2.4,0.2c-1,0.1-1.8,0.3-2.6,0.5v18.3l3.9,0.7v2h-12.1V773z"/>
				<path class="st1" d="M364.9,750.3v2.1l-2.7,0.8l-10.6,27.2c-0.7,1.9-2.5,2.8-5.2,2.8c-0.6,0-1.2,0-1.9-0.1
					c-0.7-0.1-1.3-0.2-1.8-0.4v-1.9l5.7-1.5l2.7-5.9l-8.2-20.3l-2.9-0.8v-2.2h11v2.2l-3.3,0.5v0.8l5.2,13.5l0.4,1.7l0.6-2.2l5-13
					v-0.6l-3.2-0.6v-2.3H364.9z"/>
				<path class="st1" d="M368.1,767.4l0.7,3.9c0.5,0.4,1.2,0.7,2,1c0.8,0.3,1.7,0.4,2.8,0.4c1.9,0,3.3-0.4,4-1.2
					c0.8-0.8,1.1-1.8,1.1-3.2c0-0.9-0.2-1.6-0.7-2.1c-0.5-0.5-1.1-0.9-1.8-1.2s-1.7-0.6-3-0.9c-1.6-0.4-2.9-0.8-3.9-1.2
					c-1-0.4-1.9-1.1-2.6-2.1c-0.7-1-1.1-2.3-1.1-3.9c0-2.3,0.9-4,2.6-5.2c1.7-1.2,3.9-1.8,6.5-1.8c1.4,0,2.8,0.2,4.2,0.5
					s2.4,0.6,2.9,0.9l-0.7,6.2h-2l-0.7-4c0,0-0.5-0.2-1.5-0.4c-1-0.2-1.8-0.3-2.7-0.3c-1.8,0-3.1,0.3-3.8,0.9
					c-0.7,0.6-1.1,1.5-1.1,2.8c0,0.8,0.2,1.4,0.7,1.9c0.5,0.5,1,0.9,1.7,1.1c0.7,0.3,1.6,0.6,2.9,0.9c1.6,0.4,3,0.9,4,1.3
					c1,0.5,2,1.2,2.7,2.2c0.8,1,1.1,2.3,1.1,4c0,2.8-0.9,4.8-2.6,6c-1.7,1.2-3.9,1.8-6.7,1.8c-1.6,0-3.2-0.2-4.8-0.7
					c-1.5-0.4-2.6-0.9-3.1-1.3l0.6-6.1H368.1z"/>
				<path class="st1" d="M386,773l4-0.7v-17.8l-4-0.7v-2l6.9-1.4l1.2,0.5v21.5l3.9,0.7v2h-12V773z M389.5,745.8
					c-0.5-0.6-0.8-1.3-0.8-2.2c0-0.9,0.3-1.7,0.9-2.3c0.6-0.6,1.3-1,2.2-1c0.9,0,1.5,0.3,2,0.8s0.8,1.3,0.8,2.2
					c0,0.9-0.3,1.7-0.8,2.4c-0.5,0.7-1.3,1-2.2,1C390.7,746.6,390,746.3,389.5,745.8z"/>
				<path class="st1" d="M418.1,773.3c-0.7,0.5-1.7,1-2.9,1.5c-1.2,0.4-2.5,0.7-4,0.7c-2.1,0-3.9-0.5-5.5-1.4
					c-1.6-0.9-2.9-2.3-3.8-4.1c-0.9-1.8-1.4-4-1.4-6.6c0-2.4,0.4-4.7,1.3-6.7c0.9-2,2.2-3.7,3.9-4.9s3.8-1.9,6.1-1.9
					c2.4,0,4.3,0.6,5.6,1.8c1.4,1.2,2,2.7,2,4.4c0,0.6-0.2,1.1-0.7,1.6c-0.4,0.5-1,0.7-1.6,0.7c-0.5,0-0.9,0-1.2-0.1
					c-0.3-0.1-0.4-0.2-0.4-0.2l-0.8-4.7c-0.1,0-0.2-0.1-0.5-0.2c-0.3-0.1-0.6-0.2-1.1-0.3c-0.5-0.1-1-0.1-1.6-0.1
					c-2.4,0-4.1,0.8-5.1,2.4c-1,1.6-1.5,4.1-1.5,7.6c0,3.3,0.7,5.7,2,7.1c1.3,1.4,3.3,2.2,6,2.2c0.9,0,1.8-0.1,2.6-0.2
					c0.8-0.1,1.5-0.3,2-0.5c0.5-0.2,0.8-0.3,1-0.3l0.7,1.5C419.2,772.5,418.8,772.8,418.1,773.3z"/>
				<path class="st1" d="M424.8,773.6c-1.2-1.2-1.8-2.6-1.8-4.4c0-4.2,3-6.7,8.9-7.6l4.5-0.6v-3.8c0-2.8-1.6-4.2-4.9-4.2
					c-0.7,0-1.4,0.1-2,0.2c-0.6,0.1-1,0.2-1.1,0.2l-0.8,4.6c0,0-0.1,0.1-0.4,0.2c-0.3,0.1-0.7,0.1-1.2,0.1c-0.6,0-1.1-0.2-1.6-0.6
					c-0.5-0.4-0.7-1-0.7-1.7c0-1.3,0.6-2.4,1.8-3.3c1.2-0.9,2.7-1.7,4.3-2.2s3-0.8,4-0.8c2.1,0,3.7,0.5,4.8,1.6
					c1.1,1.1,1.7,2.5,1.7,4.1v16l3.5,0.7v1.9c-0.1,0.1-0.4,0.2-0.9,0.3c-0.5,0.1-1.1,0.3-1.8,0.4c-0.7,0.2-1.5,0.2-2.3,0.2
					c-1.5,0-2.3-0.8-2.4-2.3h-0.2c-0.4,0.5-1.3,1-2.5,1.6c-1.2,0.6-2.5,0.9-3.9,0.9C427.8,775.3,426,774.8,424.8,773.6z M434.2,772
					c0.7-0.1,1.2-0.3,1.6-0.4c0.4-0.2,0.7-0.2,0.8-0.3v-8c-3.2,0.2-5.5,0.7-6.9,1.5c-1.4,0.8-2.2,2-2.2,3.5c0,1.1,0.4,2,1.2,2.7
					c0.8,0.7,1.9,1.1,3.4,1.1C432.8,772.2,433.5,772.1,434.2,772z"/>
				<path class="st1" d="M446.1,773l4-0.7v-28.3l-4-0.7v-2l7-1.1l1.1,0.5v31.8l3.9,0.7v2h-12V773z"/>
				<path class="st1" d="M473.5,767.4l0.7,3.9c0.5,0.4,1.2,0.7,2,1c0.8,0.3,1.7,0.4,2.8,0.4c1.9,0,3.3-0.4,4-1.2
					c0.8-0.8,1.1-1.8,1.1-3.2c0-0.9-0.2-1.6-0.7-2.1c-0.5-0.5-1.1-0.9-1.8-1.2s-1.7-0.6-3-0.9c-1.6-0.4-2.9-0.8-3.9-1.2
					c-1-0.4-1.9-1.1-2.6-2.1s-1.1-2.3-1.1-3.9c0-2.3,0.8-4,2.5-5.2s3.9-1.8,6.5-1.8c1.4,0,2.8,0.2,4.2,0.5s2.4,0.6,2.9,0.9l-0.7,6.2
					h-2l-0.7-4c0,0-0.5-0.2-1.5-0.4c-1-0.2-1.8-0.3-2.7-0.3c-1.8,0-3.1,0.3-3.8,0.9c-0.7,0.6-1.1,1.5-1.1,2.8c0,0.8,0.2,1.4,0.7,1.9
					c0.5,0.5,1,0.9,1.7,1.1c0.7,0.3,1.6,0.6,2.9,0.9c1.6,0.4,3,0.9,4,1.3c1,0.5,2,1.2,2.7,2.2c0.8,1,1.1,2.3,1.1,4
					c0,2.8-0.9,4.8-2.6,6c-1.7,1.2-3.9,1.8-6.7,1.8c-1.6,0-3.2-0.2-4.8-0.7c-1.5-0.4-2.6-0.9-3.2-1.3l0.6-6.1H473.5z"/>
				<path class="st1" d="M490.7,752.9v-2.1l3.9-1l1.2-5.2h2.9v5.7h7v1.4l-0.7,1.2h-6.3v16.4c0,1,0.2,1.7,0.6,2
					c0.4,0.3,1,0.5,1.9,0.5c0.8,0,1.6-0.1,2.4-0.3c0.8-0.2,1.3-0.3,1.6-0.4l0.5,1.6c0.1,0-0.2,0.2-0.9,0.7c-0.7,0.5-1.4,0.9-2.3,1.2
					c-0.9,0.4-1.7,0.5-2.5,0.5c-2,0-3.4-0.5-4.2-1.4c-0.8-1-1.2-2.3-1.2-4.1v-16.8H490.7z"/>
				<path class="st1" d="M512.1,772.3v-18l-3.9-0.7v-2l7.2-1.4l0.8,2.8c0.2-0.2,0.6-0.5,1.2-1c0.6-0.5,1.4-1,2.2-1.4
					c0.8-0.4,1.6-0.7,2.2-0.7c0.7,0,1.2,0.2,1.6,0.7c0.4,0.5,0.6,1,0.6,1.8c0,0.5-0.1,1-0.3,1.4c-0.2,0.4-0.5,0.7-0.7,0.9
					s-0.4,0.3-0.5,0.4l-2.3-0.6c-0.3-0.1-0.6-0.2-0.9-0.2c-0.3,0-0.6-0.1-0.9-0.1c-0.5,0-1,0.1-1.5,0.2s-0.8,0.2-0.8,0.2v17.8
					l4.6,0.6v2.2h-12.2v-2L512.1,772.3z"/>
				<path class="st1" d="M531.6,773.7c-1.3-1.2-1.9-2.9-1.9-5.1v-14.8l-4.2-0.7v-1.9l6.9-1.4l1.4,0.7v15.9c0,2.2,0.4,3.7,1.2,4.5
					c0.8,0.9,2.2,1.3,4.2,1.3c0.7,0,1.5-0.1,2.4-0.4c0.9-0.3,1.7-0.6,2.4-1v-17l-4.1-0.7v-1.9l6.9-1.4l1.4,0.7v21l3.5,0.8v1.9
					l-6.9,1l-0.8-2.5l-0.1,0c-0.7,0.8-1.8,1.5-3,2s-2.6,0.8-4,0.8C534.7,775.5,532.9,774.8,531.6,773.7z"/>
				<path class="st1" d="M571.8,773.3c-0.7,0.5-1.7,1-2.9,1.5c-1.2,0.4-2.5,0.7-4,0.7c-2.1,0-3.9-0.5-5.5-1.4
					c-1.6-0.9-2.9-2.3-3.8-4.1c-0.9-1.8-1.4-4-1.4-6.6c0-2.4,0.4-4.7,1.3-6.7c0.9-2,2.2-3.7,3.9-4.9s3.8-1.9,6.1-1.9
					c2.4,0,4.3,0.6,5.6,1.8c1.4,1.2,2,2.7,2,4.4c0,0.6-0.2,1.1-0.7,1.6c-0.4,0.5-1,0.7-1.6,0.7c-0.5,0-0.9,0-1.2-0.1
					c-0.3-0.1-0.4-0.2-0.4-0.2l-0.8-4.7c-0.1,0-0.2-0.1-0.5-0.2c-0.3-0.1-0.6-0.2-1.1-0.3c-0.5-0.1-1-0.1-1.6-0.1
					c-2.4,0-4.1,0.8-5.1,2.4c-1,1.6-1.5,4.1-1.5,7.6c0,3.3,0.7,5.7,2,7.1c1.3,1.4,3.3,2.2,6,2.2c0.9,0,1.8-0.1,2.6-0.2
					c0.8-0.1,1.5-0.3,2-0.5c0.5-0.2,0.8-0.3,1-0.3l0.7,1.5C572.9,772.5,572.6,772.8,571.8,773.3z"/>
				<path class="st1" d="M575.6,752.9v-2.1l3.9-1l1.2-5.2h2.9v5.7h7v1.4l-0.7,1.2h-6.3v16.4c0,1,0.2,1.7,0.6,2
					c0.4,0.3,1,0.5,1.9,0.5c0.8,0,1.6-0.1,2.4-0.3c0.8-0.2,1.3-0.3,1.6-0.4l0.5,1.6c0.1,0-0.2,0.2-0.9,0.7c-0.7,0.5-1.4,0.9-2.3,1.2
					c-0.9,0.4-1.7,0.5-2.5,0.5c-2,0-3.4-0.5-4.2-1.4c-0.8-1-1.2-2.3-1.2-4.1v-16.8H575.6z"/>
				<path class="st1" d="M598.5,773.7c-1.3-1.2-1.9-2.9-1.9-5.1v-14.8l-4.2-0.7v-1.9l6.9-1.4l1.4,0.7v15.9c0,2.2,0.4,3.7,1.2,4.5
					c0.8,0.9,2.2,1.3,4.2,1.3c0.7,0,1.5-0.1,2.4-0.4c0.9-0.3,1.7-0.6,2.4-1v-17l-4.1-0.7v-1.9l6.9-1.4l1.4,0.7v21l3.5,0.8v1.9
					l-6.9,1l-0.8-2.5l-0.1,0c-0.7,0.8-1.8,1.5-3,2s-2.6,0.8-4,0.8C601.6,775.5,599.8,774.8,598.5,773.7z"/>
				<path class="st1" d="M624.9,772.3v-18l-3.9-0.7v-2l7.2-1.4l0.8,2.8c0.2-0.2,0.6-0.5,1.2-1c0.6-0.5,1.4-1,2.2-1.4
					c0.8-0.4,1.6-0.7,2.2-0.7c0.7,0,1.2,0.2,1.6,0.7c0.4,0.5,0.6,1,0.6,1.8c0,0.5-0.1,1-0.3,1.4c-0.2,0.4-0.5,0.7-0.7,0.9
					s-0.4,0.3-0.5,0.4l-2.3-0.6c-0.3-0.1-0.6-0.2-0.9-0.2c-0.3,0-0.6-0.1-0.9-0.1c-0.5,0-1,0.1-1.5,0.2s-0.8,0.2-0.8,0.2v17.8
					l4.6,0.6v2.2h-12.2v-2L624.9,772.3z"/>
				<path class="st1" d="M641.9,772c-1.8-2.3-2.8-5.2-2.8-8.7c0-2.6,0.5-5,1.4-7s2.3-3.7,4-4.8c1.7-1.2,3.6-1.7,5.8-1.7
					c2.7,0,4.8,0.9,6.1,2.7c1.4,1.8,2,3.9,2,6.5c0,1.8-0.2,2.9-0.5,3.5c-0.3,0.6-1,0.9-1.9,0.9h-12.5c0,2.5,0.6,4.6,1.9,6.2
					c1.2,1.6,3.2,2.4,6,2.4c1.2,0,2.2-0.1,3.1-0.3c0.9-0.2,1.6-0.4,2-0.5c0.5-0.2,0.8-0.3,0.9-0.4l0.7,1.4c0,0.1-0.4,0.4-1.1,1
					c-0.8,0.6-1.7,1.1-3,1.6c-1.2,0.5-2.6,0.7-4.1,0.7C646.4,775.5,643.7,774.3,641.9,772z M654.3,760.7c0.1-0.6,0.1-1.3,0.1-2
					c0-2-0.4-3.5-1.1-4.5c-0.7-1-2-1.5-3.8-1.5c-2,0-3.5,0.7-4.5,2.1c-1,1.4-1.5,3.5-1.5,6.2L654.3,760.7z"/>
			</g>
			<g class="st0">
				<path class="st1" d="M665,767.4l0.7,3.9c0.5,0.4,1.2,0.7,2,1c0.8,0.3,1.7,0.4,2.8,0.4c1.9,0,3.3-0.4,4-1.2
					c0.8-0.8,1.1-1.8,1.1-3.2c0-0.9-0.2-1.6-0.7-2.1c-0.5-0.5-1.1-0.9-1.8-1.2c-0.7-0.3-1.7-0.6-3-0.9c-1.6-0.4-2.9-0.8-3.9-1.2
					c-1-0.4-1.9-1.1-2.6-2.1c-0.7-1-1.1-2.3-1.1-3.9c0-2.3,0.9-4,2.6-5.2c1.7-1.2,3.9-1.8,6.5-1.8c1.4,0,2.9,0.2,4.2,0.5
					s2.4,0.6,2.9,0.9l-0.7,6.2H676l-0.7-4c0,0-0.5-0.2-1.5-0.4c-1-0.2-1.9-0.3-2.6-0.3c-1.8,0-3.1,0.3-3.8,0.9
					c-0.7,0.6-1.1,1.5-1.1,2.8c0,0.8,0.2,1.4,0.7,1.9c0.5,0.5,1,0.9,1.7,1.1c0.7,0.3,1.6,0.6,2.9,0.9c1.6,0.4,3,0.9,4,1.3
					c1,0.5,1.9,1.2,2.7,2.2c0.8,1,1.1,2.3,1.1,4c0,2.8-0.9,4.8-2.6,6c-1.7,1.2-3.9,1.8-6.7,1.8c-1.6,0-3.2-0.2-4.8-0.7
					c-1.5-0.4-2.6-0.9-3.1-1.3l0.6-6.1H665z"/>
			</g>
			<g class="st0">
				<path class="st1" d="M683.6,774.7c-0.5-0.6-0.8-1.3-0.8-2.3s0.3-1.7,0.9-2.4c0.6-0.7,1.3-1,2.2-1c0.9,0,1.6,0.3,2.1,0.8
					s0.8,1.3,0.8,2.2c0,1-0.3,1.8-0.8,2.5c-0.5,0.7-1.3,1-2.3,1C684.8,775.5,684.1,775.3,683.6,774.7z"/>
			</g>
		</g>
		<g id="Faustina">
			<g class="st0">
				<path class="st1" d="M82.8,308l20-4.8V178.8l-20-4.8v-14h121.8v47h-17l-6.2-28h-32l-11,1.8v54H168l5.5-17.2h13.2v55.2h-13.2
					l-5.5-19.2h-29.8v49.8l20,4.8v14H82.8V308z"/>
			</g>
			<g class="st0">
				<path class="st1" d="M218.1,315.8c-6.1-6.2-9.1-13.9-9.1-23.2c0-10.5,3.8-18.8,11.5-24.9c7.7-6.1,17.8-10.1,30.2-12.1l26.8-4.5
					v-16.5c0-6.5-1.2-11.3-3.8-14.4c-2.5-3.1-7.4-4.6-14.8-4.6c-3.7,0-6.4,0.2-8.2,0.5c-1.8,0.3-2.9,0.6-3.2,0.8l-3.5,22.8
					c-0.7,0.3-2.3,0.8-4.9,1.5c-2.6,0.7-5.4,1-8.4,1c-5.8,0-10.2-1.1-13-3.4c-2.8-2.2-4.2-6-4.2-11.4c0-7,2.9-13,8.6-17.9
					c5.8-4.9,12.8-8.6,21.1-11c8.3-2.4,16.3-3.6,24-3.6c14.7,0,25.5,2.6,32.6,7.8c7.1,5.2,10.6,13.9,10.6,26.2v73l18.2,3.5V318
					c-0.8,0.3-2.6,0.9-5.4,1.8c-2.8,0.8-6.2,1.7-10.4,2.5c-4.2,0.8-8.2,1.2-12.2,1.2c-6.5,0-11.1-1-13.9-2.9s-4.8-4.9-6.1-8.9h-2.2
					c-3,3-7.3,6-13,8.9c-5.7,2.9-12.3,4.4-20,4.4C233.3,325,224.2,321.9,218.1,315.8z M277.5,299.3v-31c-9.3,0.8-16.4,2.2-21.2,4
					c-4.8,1.8-8,4-9.6,6.5c-1.6,2.5-2.4,5.7-2.4,9.5c0,10.2,6.2,15.2,18.5,15.2C267.2,303.5,272.2,302.1,277.5,299.3z"/>
				<path class="st1" d="M361.6,316.4c-6.1-5.8-9.1-14.6-9.1-26.6v-70l-20-4v-14.5l43.8-5.8l9.2,3.5v81.5c0,6,0.6,10.6,1.9,13.8
					c1.2,3.2,3.4,5.4,6.5,6.8c3.1,1.3,7.5,2,13.4,2c3.2,0,6.5-0.3,10.1-1c3.6-0.7,6.4-1.4,8.4-2.2v-80l-20.2-4v-14.5l43.8-5.8
					l9.5,3.5v101l19.8,4v14.5l-43.8,5.8l-7-11.2h-2.2c-4.5,3.5-10.1,6.4-16.9,8.6s-13,3.4-18.9,3.4
					C377.1,325,367.7,322.1,361.6,316.4z"/>
				<path class="st1" d="M509.5,281l6,20c2.3,1.7,5,3.1,7.9,4.4c2.9,1.2,6.7,1.9,11.4,1.9c8.2,0,13.7-1.2,16.6-3.8
					c2.9-2.5,4.4-6.8,4.4-13c0-5-2-8.5-5.9-10.5c-3.9-2-10.1-4-18.6-6c-8.3-2-15.2-4.1-20.6-6.4c-5.4-2.2-10.1-6-14-11.2
					c-3.9-5.2-5.9-12.5-5.9-21.9c0-13.2,4.5-23.1,13.5-29.8c9-6.7,21.4-10,37.2-10c6.8,0,14,0.6,21.5,1.8c7.5,1.2,13,2.2,16.5,3.2
					l-2,36h-15.8l-5.2-17.8c-0.3-0.2-1.2-0.5-2.6-1.1c-1.4-0.6-3.4-1.1-5.9-1.6s-5.2-0.8-8-0.8c-7.7,0-13,1.2-15.9,3.5
					c-2.9,2.3-4.4,5.5-4.4,9.5c0,4.3,1.8,7.5,5.4,9.5c3.6,2,9.6,4.2,18.1,6.8c8.5,2.3,15.5,4.8,21.1,7.2c5.6,2.5,10.4,6.5,14.4,12
					s6,12.9,6,22.2c0,14.2-4.8,24.4-14.4,30.8c-9.6,6.3-21.3,9.5-35.1,9.5c-8.5,0-17-1-25.6-2.9c-8.6-1.9-14.5-3.7-17.6-5.4
					l1.8-36.2H509.5z"/>
				<path class="st1" d="M589.7,216.3V200l24-5.2l11-30.2h22v32.8H682v11.5l-3.5,7.5h-31.8V286c0,6.3,1.1,10.6,3.4,12.8
					c2.2,2.2,5.6,3.2,10.1,3.2c2.8,0,5.7-0.3,8.5-0.9c2.8-0.6,5.2-1.2,7-1.9c1.8-0.7,3-1.1,3.5-1.2l4.2,12.8c0.5,0-1.2,1.2-5,3.8
					c-3.8,2.5-8.4,4.8-13.8,6.8c-5.3,2-10.9,3-16.8,3c-12.7,0-21.5-2.8-26.6-8.2c-5.1-5.5-7.6-14-7.6-25.5v-74.2H589.7z"/>
				<path class="st1" d="M693.2,308.3l19.8-3.5v-85l-19.8-4v-14.5l43.5-5.8l9.2,3.5v105.8l17.5,3.5V322h-70.2V308.3z M711.5,176.1
					c-3.7-3.8-5.5-8.5-5.5-14.4c0-5.8,2.1-10.9,6.2-15.1c4.2-4.2,9.2-6.4,15-6.4c5.7,0,10.3,1.8,14,5.2c3.7,3.5,5.5,8.2,5.5,14.2
					s-2,11.2-6,15.5c-4,4.3-9.2,6.5-15.5,6.5C719.7,181.8,715.2,179.9,711.5,176.1z"/>
				<path class="st1" d="M771.5,308.3l19.8-3.5v-85l-19.8-4v-14.5l43.5-5.8l7,11.8h1c6.2-4,12.6-7.2,19.4-9.5
					c6.8-2.3,12.9-3.5,18.4-3.5c23.7,0,35.5,12,35.5,36v74.5l18.5,3.5V322h-69v-13.8l17.5-3.5V236c0-7.5-1.4-12.6-4.1-15.2
					c-2.8-2.7-8-4-15.6-4c-5.7,0-12.1,0.7-19.2,2v86l17.5,3.5V322h-70.2V308.3z"/>
				<path class="st1" d="M934.4,315.8c-6.1-6.2-9.1-13.9-9.1-23.2c0-10.5,3.8-18.8,11.5-24.9c7.7-6.1,17.8-10.1,30.2-12.1l26.8-4.5
					v-16.5c0-6.5-1.2-11.3-3.8-14.4c-2.5-3.1-7.4-4.6-14.8-4.6c-3.7,0-6.4,0.2-8.2,0.5c-1.8,0.3-2.9,0.6-3.2,0.8l-3.5,22.8
					c-0.7,0.3-2.3,0.8-4.9,1.5c-2.6,0.7-5.4,1-8.4,1c-5.8,0-10.2-1.1-13-3.4c-2.8-2.2-4.2-6-4.2-11.4c0-7,2.9-13,8.6-17.9
					c5.8-4.9,12.8-8.6,21.1-11c8.3-2.4,16.3-3.6,24-3.6c14.7,0,25.5,2.6,32.6,7.8c7.1,5.2,10.6,13.9,10.6,26.2v73l18.2,3.5V318
					c-0.8,0.3-2.6,0.9-5.4,1.8c-2.8,0.8-6.2,1.7-10.4,2.5c-4.2,0.8-8.2,1.2-12.2,1.2c-6.5,0-11.1-1-13.9-2.9s-4.8-4.9-6.1-8.9h-2.2
					c-3,3-7.3,6-13,8.9c-5.7,2.9-12.3,4.4-20,4.4C949.6,325,940.4,321.9,934.4,315.8z M993.7,299.3v-31c-9.3,0.8-16.4,2.2-21.2,4
					c-4.8,1.8-8,4-9.6,6.5c-1.6,2.5-2.4,5.7-2.4,9.5c0,10.2,6.2,15.2,18.5,15.2C983.5,303.5,988.4,302.1,993.7,299.3z"/>
			</g>
		</g>
	</g>
</g>
</svg>
