<svg id="Ebene_1" data-name="Ebene 1" xmlns="http://www.w3.org/2000/svg" viewBox="0 0 375 600"><title>hochformat_Text</title><path d="M60.36,89.68a23.58,23.58,0,0,1-8.78-1.48,16,16,0,0,1-6.08-4.14,16.89,16.89,0,0,1-3.57-6.26,25.82,25.82,0,0,1-1.15-7.92V38.7h9.14V69a19.66,19.66,0,0,0,.76,5.8,10,10,0,0,0,2.16,3.92A8.55,8.55,0,0,0,56.15,81a12.06,12.06,0,0,0,4.29.72A12.29,12.29,0,0,0,64.75,81a8.48,8.48,0,0,0,3.35-2.23,10,10,0,0,0,2.16-3.92A19.33,19.33,0,0,0,71,69V38.7h9.14V69.88A25.21,25.21,0,0,1,79,77.8a17.52,17.52,0,0,1-3.6,6.26,16.1,16.1,0,0,1-6.16,4.14A24.21,24.21,0,0,1,60.36,89.68Z"/><path d="M125.23,69.8A23.63,23.63,0,0,1,123.9,78a17.68,17.68,0,0,1-3.81,6.22,16.38,16.38,0,0,1-6,4,21.77,21.77,0,0,1-8,1.37,49.59,49.59,0,0,1-8.24-.65,50.91,50.91,0,0,1-6.52-1.44V34.16L100,32.72V52.24a20.56,20.56,0,0,1,3.71-1.44,16.91,16.91,0,0,1,4.86-.65,17.22,17.22,0,0,1,7.09,1.4,13.89,13.89,0,0,1,5.22,4,18.37,18.37,0,0,1,3.21,6.23A27.37,27.37,0,0,1,125.23,69.8Zm-8.92-.14c0-3.7-.74-6.62-2.2-8.78s-3.78-3.24-7-3.24a12.66,12.66,0,0,0-4.07.64A13.3,13.3,0,0,0,100,59.72V81.4c.63.14,1.43.27,2.42.39A29.94,29.94,0,0,0,106,82a9.31,9.31,0,0,0,7.56-3.27C115.39,76.51,116.31,73.5,116.31,69.66Z"/><path d="M165.12,87.44c-1.68.44-3.86.88-6.55,1.34a53.8,53.8,0,0,1-8.86.68,19.39,19.39,0,0,1-7.59-1.3,12.17,12.17,0,0,1-4.9-3.6,14.21,14.21,0,0,1-2.63-5.5,29.69,29.69,0,0,1-.79-7V50.94h8.71V70.67q0,6,1.77,8.64c1.17,1.73,3.23,2.59,6.15,2.59,1.06,0,2.17-.05,3.35-.14a18.9,18.9,0,0,0,2.63-.36V50.94h8.71Z"/><path d="M176.21,52.16a58,58,0,0,1,6.55-1.36,55.54,55.54,0,0,1,8.93-.65,20.5,20.5,0,0,1,7.7,1.26,12,12,0,0,1,4.94,3.53,13.55,13.55,0,0,1,2.59,5.47,30.72,30.72,0,0,1,.75,7V88.6H199V68.8a29,29,0,0,0-.39-5.15,9.23,9.23,0,0,0-1.3-3.46,5.18,5.18,0,0,0-2.45-1.94,10.25,10.25,0,0,0-3.78-.61,30,30,0,0,0-3.46.21c-1.19.15-2.08.27-2.66.36V88.6h-8.71Z"/><path d="M217.9,41l8.71-1.44V50.94H240v7.27H226.61V73.55q0,4.53,1.44,6.48T233,82a16.26,16.26,0,0,0,4.21-.5,29,29,0,0,0,2.91-.94l1.44,6.91a32.07,32.07,0,0,1-4,1.34,21.78,21.78,0,0,1-5.76.68,18.21,18.21,0,0,1-6.73-1.08,9.86,9.86,0,0,1-4.28-3.13,12.52,12.52,0,0,1-2.24-5,31,31,0,0,1-.64-6.66Z"/><path d="M279.31,87.44c-1.68.44-3.86.88-6.55,1.34a53.76,53.76,0,0,1-8.85.68,19.41,19.41,0,0,1-7.6-1.3,12.17,12.17,0,0,1-4.9-3.6,14.06,14.06,0,0,1-2.62-5.5,29.17,29.17,0,0,1-.8-7V50.94h8.72V70.67c0,4,.58,6.91,1.76,8.64s3.23,2.59,6.15,2.59c1.06,0,2.18-.05,3.35-.14a18.9,18.9,0,0,0,2.63-.36V50.94h8.71Z"/><path d="M46.14,137.92a8.24,8.24,0,0,0,4.54-1.07,3.82,3.82,0,0,0,1.62-3.44,4.54,4.54,0,0,0-.53-2.29,4.91,4.91,0,0,0-1.38-1.56,8.9,8.9,0,0,0-2-1.07l-2.34-1c-1-.41-2-.83-2.77-1.25a9.31,9.31,0,0,1-2.09-1.46A5.52,5.52,0,0,1,39.89,123a6.19,6.19,0,0,1-.45-2.45,5.77,5.77,0,0,1,2.13-4.86,9.39,9.39,0,0,1,5.9-1.66,13,13,0,0,1,2,.15,14.83,14.83,0,0,1,3.37.9,5.76,5.76,0,0,1,1.17.61l-.87,2a8.7,8.7,0,0,0-2.53-1.15,11.52,11.52,0,0,0-3.23-.43,9.76,9.76,0,0,0-2.17.23,4.77,4.77,0,0,0-1.71.76,3.79,3.79,0,0,0-1.14,1.31,4.17,4.17,0,0,0-.41,1.91,4,4,0,0,0,.43,1.94,4.15,4.15,0,0,0,1.21,1.37,10.27,10.27,0,0,0,1.81,1c.7.31,1.46.63,2.27,1,1,.41,1.92.81,2.79,1.22a10.16,10.16,0,0,1,2.29,1.44,6.09,6.09,0,0,1,1.55,2,6.68,6.68,0,0,1,.57,2.91,5.83,5.83,0,0,1-2.36,5.08A10.74,10.74,0,0,1,46.1,140a17.49,17.49,0,0,1-2.62-.18,16.8,16.8,0,0,1-2.13-.45,11.33,11.33,0,0,1-1.58-.56,10.55,10.55,0,0,1-1-.5l.79-2.12c.24.14.57.31,1,.5a13.21,13.21,0,0,0,1.44.56,13.68,13.68,0,0,0,1.88.45A13.5,13.5,0,0,0,46.14,137.92Z"/><path d="M61.58,146.16H59.24V121.54a19.66,19.66,0,0,1,6.77-1,10.11,10.11,0,0,1,3.73.66,8.25,8.25,0,0,1,2.88,1.93,8.75,8.75,0,0,1,1.87,3.06,11.78,11.78,0,0,1,.67,4.07,13,13,0,0,1-.56,3.9A8.65,8.65,0,0,1,73,137.21a7.41,7.41,0,0,1-2.65,2,8.44,8.44,0,0,1-3.58.72,8.76,8.76,0,0,1-3.18-.52,8.62,8.62,0,0,1-2-1Zm0-10a8.1,8.1,0,0,0,.81.54,6.72,6.72,0,0,0,1.14.54,9.19,9.19,0,0,0,1.4.42,8.16,8.16,0,0,0,1.59.16,6.28,6.28,0,0,0,2.89-.6,5,5,0,0,0,1.89-1.61,7,7,0,0,0,1-2.42,13.16,13.16,0,0,0,.32-2.93,8,8,0,0,0-1.83-5.64,6.39,6.39,0,0,0-4.86-2,20.35,20.35,0,0,0-2.79.16,10.52,10.52,0,0,0-1.61.35Z"/><path d="M86.57,120.53a12.66,12.66,0,0,1,2.18.18,6.83,6.83,0,0,1,1.42.36l-.47,2a5.74,5.74,0,0,0-1.17-.3,13.18,13.18,0,0,0-2.32-.16,11.27,11.27,0,0,0-2.43.21,8,8,0,0,0-1.21.36V139.5H80.23V121.75a18.26,18.26,0,0,1,2.49-.81A15.7,15.7,0,0,1,86.57,120.53Z"/><path d="M99.35,120.46a8.19,8.19,0,0,1,3.11.52,5.42,5.42,0,0,1,2.07,1.44,5.63,5.63,0,0,1,1.15,2.18,9.9,9.9,0,0,1,.36,2.73v11.74a9.79,9.79,0,0,1-1,.23c-.46.09-1,.18-1.58.27s-1.27.18-2,.24-1.48.09-2.25.09a10.56,10.56,0,0,1-2.72-.33,5.84,5.84,0,0,1-2.16-1,4.91,4.91,0,0,1-1.44-1.8,6.21,6.21,0,0,1-.52-2.69,5.5,5.5,0,0,1,.57-2.59,5,5,0,0,1,1.62-1.78,7.17,7.17,0,0,1,2.49-1,14,14,0,0,1,3.13-.33,9.83,9.83,0,0,1,1.06.06c.37,0,.73.08,1.08.14l.9.18a2.52,2.52,0,0,1,.52.16v-1.15a11.68,11.68,0,0,0-.14-1.89,4.34,4.34,0,0,0-.63-1.66,3.46,3.46,0,0,0-1.37-1.18,5.11,5.11,0,0,0-2.32-.46,12.05,12.05,0,0,0-3.06.29c-.67.2-1.16.35-1.48.47l-.32-2a9,9,0,0,1,1.89-.54A16,16,0,0,1,99.35,120.46Zm.21,17.35c.92,0,1.71,0,2.4-.09a15.27,15.27,0,0,0,1.74-.24v-6.55a6.93,6.93,0,0,0-1.26-.37,10.52,10.52,0,0,0-2.37-.2,14.07,14.07,0,0,0-1.8.12,5.47,5.47,0,0,0-1.73.54,3.67,3.67,0,0,0-1.3,1.14,3.29,3.29,0,0,0-.5,1.9,4.08,4.08,0,0,0,.34,1.77,2.87,2.87,0,0,0,1,1.15,4.27,4.27,0,0,0,1.52.63A9.17,9.17,0,0,0,99.56,137.81Z"/><path d="M119.72,139.9a9.81,9.81,0,0,1-3.81-.69,7.17,7.17,0,0,1-2.76-2,8.7,8.7,0,0,1-1.67-3.06,12.88,12.88,0,0,1-.58-3.94,12.63,12.63,0,0,1,.6-4,8.75,8.75,0,0,1,1.71-3.09,7.45,7.45,0,0,1,2.7-2,8.63,8.63,0,0,1,3.56-.7,14.9,14.9,0,0,1,2.83.25,7,7,0,0,1,2,.65l-.61,2a7.34,7.34,0,0,0-1.62-.57,10.34,10.34,0,0,0-2.41-.22,5.67,5.67,0,0,0-4.7,2,8.84,8.84,0,0,0-1.6,5.67,12.07,12.07,0,0,0,.36,3,6.1,6.1,0,0,0,1.17,2.38,5.38,5.38,0,0,0,2.09,1.54,7.62,7.62,0,0,0,3.11.56,8.09,8.09,0,0,0,2.54-.34,10.35,10.35,0,0,0,1.49-.59l.51,2a8.92,8.92,0,0,1-2,.71A12.45,12.45,0,0,1,119.72,139.9Z"/><path d="M128.58,139.5V112l2.34-.44v9.87a15.16,15.16,0,0,1,2.34-.67,12.71,12.71,0,0,1,2.38-.23,9.2,9.2,0,0,1,3.6.61,5.63,5.63,0,0,1,2.3,1.75,6.72,6.72,0,0,1,1.21,2.71,17.24,17.24,0,0,1,.34,3.5v10.4h-2.34v-9.65a17.71,17.71,0,0,0-.27-3.35,5.61,5.61,0,0,0-.9-2.23A3.51,3.51,0,0,0,137.9,123a7.8,7.8,0,0,0-2.62-.38,9,9,0,0,0-1.32.11c-.47.07-.9.15-1.31.24a10.44,10.44,0,0,0-1.1.27,4.36,4.36,0,0,0-.63.21v16Z"/><path d="M148,130.18a11.76,11.76,0,0,1,.7-4.27,9.58,9.58,0,0,1,1.83-3,7.23,7.23,0,0,1,2.6-1.82,7.79,7.79,0,0,1,3-.59,7,7,0,0,1,5.46,2.23q2,2.24,2,6.87c0,.2,0,.39,0,.58s0,.37-.05.54H150.43a8.28,8.28,0,0,0,1.69,5.26q1.59,1.83,5,1.83a10.27,10.27,0,0,0,3-.36,12.86,12.86,0,0,0,1.62-.61l.43,2a9.87,9.87,0,0,1-1.89.68,12.11,12.11,0,0,1-3.26.4,10.81,10.81,0,0,1-4.17-.72,7.46,7.46,0,0,1-2.85-2,8,8,0,0,1-1.62-3.08A14.11,14.11,0,0,1,148,130.18Zm13.21-1.48a7.42,7.42,0,0,0-1.37-4.53,4.41,4.41,0,0,0-3.67-1.63,4.84,4.84,0,0,0-2.25.51,5.83,5.83,0,0,0-1.73,1.35,6.18,6.18,0,0,0-1.15,2,8,8,0,0,0-.49,2.34Z"/><path d="M182.63,137c.51-1,1-2.21,1.56-3.54s1-2.72,1.53-4.15.95-2.86,1.37-4.31.78-2.82,1.07-4.09h2.34q-.66,2.55-1.45,5c-.53,1.65-1.09,3.28-1.69,4.86s-1.2,3.11-1.84,4.57-1.26,2.85-1.87,4.14h-2.18q-.94-1.94-1.88-4.14c-.63-1.46-1.24-3-1.83-4.57s-1.16-3.21-1.69-4.86-1-3.34-1.45-5h2.49c.29,1.27.64,2.63,1.06,4.09s.88,2.89,1.37,4.31,1,2.81,1.54,4.15S182.13,136,182.63,137Z"/><path d="M193.16,130.18a12,12,0,0,1,.7-4.27,9.42,9.42,0,0,1,1.84-3,7.28,7.28,0,0,1,2.59-1.82,7.84,7.84,0,0,1,3-.59,7,7,0,0,1,5.45,2.23q2,2.24,2,6.87c0,.2,0,.39,0,.58s0,.37-.06.54H195.65a8.22,8.22,0,0,0,1.69,5.26q1.57,1.83,5,1.83a10.15,10.15,0,0,0,3-.36,11.73,11.73,0,0,0,1.62-.61l.43,2a9.35,9.35,0,0,1-1.89.68,12,12,0,0,1-3.25.4,10.83,10.83,0,0,1-4.18-.72,7.5,7.5,0,0,1-2.84-2,7.78,7.78,0,0,1-1.62-3.08A14.1,14.1,0,0,1,193.16,130.18Zm13.21-1.48a7.36,7.36,0,0,0-1.36-4.53,4.43,4.43,0,0,0-3.68-1.63,4.84,4.84,0,0,0-2.25.51,5.78,5.78,0,0,0-1.72,1.35,6.2,6.2,0,0,0-1.16,2,8.33,8.33,0,0,0-.48,2.34Z"/><path d="M220.34,120.53a12.66,12.66,0,0,1,2.18.18,6.65,6.65,0,0,1,1.42.36l-.47,2a5.74,5.74,0,0,0-1.17-.3,13.18,13.18,0,0,0-2.32-.16,11.27,11.27,0,0,0-2.43.21,8.42,8.42,0,0,0-1.21.36V139.5H214V121.75a18.26,18.26,0,0,1,2.49-.81A15.7,15.7,0,0,1,220.34,120.53Z"/><path d="M229.81,122a8.16,8.16,0,0,1,2-1,8.77,8.77,0,0,1,3.19-.53,8.48,8.48,0,0,1,3.58.72,7.4,7.4,0,0,1,2.64,2,8.67,8.67,0,0,1,1.64,3.08,12.77,12.77,0,0,1,.56,3.9,11.51,11.51,0,0,1-.67,4.07,8.6,8.6,0,0,1-1.87,3.06,8.07,8.07,0,0,1-2.88,1.93,10,10,0,0,1-3.72.66,21.26,21.26,0,0,1-4.11-.32,20.05,20.05,0,0,1-2.66-.69V112l2.34-.44Zm0,15.31a10.56,10.56,0,0,0,1.6.34,20.56,20.56,0,0,0,2.79.16,6.32,6.32,0,0,0,4.86-2,7.93,7.93,0,0,0,1.84-5.64,12.59,12.59,0,0,0-.33-2.93,6.75,6.75,0,0,0-1-2.41,5.19,5.19,0,0,0-1.89-1.64,6.19,6.19,0,0,0-2.9-.61,7.36,7.36,0,0,0-1.58.16,10.22,10.22,0,0,0-1.41.41,8,8,0,0,0-1.13.54c-.33.2-.59.38-.81.54Z"/><path d="M251.34,115.27a1.74,1.74,0,0,1-.51,1.32,1.69,1.69,0,0,1-1.22.48,1.73,1.73,0,0,1-1.23-.48,1.77,1.77,0,0,1-.5-1.32,1.75,1.75,0,0,1,.5-1.31,1.7,1.7,0,0,1,1.23-.49,1.66,1.66,0,0,1,1.22.49A1.72,1.72,0,0,1,251.34,115.27Zm-.54,24.23h-2.34V120.89h2.34Z"/><path d="M257,121.54c.69-.19,1.63-.41,2.81-.65a21.93,21.93,0,0,1,4.32-.36,9,9,0,0,1,3.54.61,5.41,5.41,0,0,1,2.27,1.75,7.15,7.15,0,0,1,1.21,2.71,15.88,15.88,0,0,1,.36,3.5v10.4h-2.34v-9.65a17.71,17.71,0,0,0-.27-3.35,5.61,5.61,0,0,0-.9-2.23,3.55,3.55,0,0,0-1.66-1.24,7.53,7.53,0,0,0-2.57-.38,19.81,19.81,0,0,0-2.87.18,8.23,8.23,0,0,0-1.56.33V139.5H257Z"/><path d="M292.27,138.92a20.25,20.25,0,0,1-2.67.69,21.14,21.14,0,0,1-4.1.32,10.11,10.11,0,0,1-3.73-.66,8.25,8.25,0,0,1-2.88-1.93,8.9,8.9,0,0,1-1.87-3.06,11.74,11.74,0,0,1-.66-4.07,13.08,13.08,0,0,1,.55-3.9,9,9,0,0,1,1.64-3.08,7.35,7.35,0,0,1,2.65-2,8.48,8.48,0,0,1,3.58-.72A8.81,8.81,0,0,1,288,121a8.16,8.16,0,0,1,2,1V112l2.34-.44Zm-2.34-14.65q-.33-.24-.81-.54a8.13,8.13,0,0,0-1.14-.54,10.49,10.49,0,0,0-1.4-.41,7.36,7.36,0,0,0-1.58-.16,6.16,6.16,0,0,0-2.9.61,5.19,5.19,0,0,0-1.89,1.64,7,7,0,0,0-1,2.41,13.16,13.16,0,0,0-.32,2.93,7.93,7.93,0,0,0,1.84,5.64,6.32,6.32,0,0,0,4.86,2,20.56,20.56,0,0,0,2.79-.16,10.85,10.85,0,0,0,1.6-.34Z"/><path d="M297.34,130.18a12,12,0,0,1,.7-4.27,9.42,9.42,0,0,1,1.84-3,7.28,7.28,0,0,1,2.59-1.82,7.87,7.87,0,0,1,3-.59,7,7,0,0,1,5.45,2.23q2,2.24,2,6.87c0,.2,0,.39,0,.58s0,.37-.05.54H299.83a8.22,8.22,0,0,0,1.69,5.26c1.06,1.22,2.73,1.83,5,1.83a10.15,10.15,0,0,0,3-.36,11.73,11.73,0,0,0,1.62-.61l.44,2a9.87,9.87,0,0,1-1.89.68,12.11,12.11,0,0,1-3.26.4,10.83,10.83,0,0,1-4.18-.72,7.5,7.5,0,0,1-2.84-2,7.78,7.78,0,0,1-1.62-3.08A14.1,14.1,0,0,1,297.34,130.18Zm13.22-1.48a7.42,7.42,0,0,0-1.37-4.53,4.42,4.42,0,0,0-3.67-1.63,4.78,4.78,0,0,0-2.25.51,5.7,5.7,0,0,0-1.73,1.35,6,6,0,0,0-1.15,2,8,8,0,0,0-.49,2.34Z"/><path d="M320.38,120.89h7.42v2h-7.42v9.9a10,10,0,0,0,.27,2.57,3.55,3.55,0,0,0,.78,1.53,2.42,2.42,0,0,0,1.22.72,6.53,6.53,0,0,0,1.58.18,6.78,6.78,0,0,0,2.38-.34,10.41,10.41,0,0,0,1.4-.63l.58,1.95a9.73,9.73,0,0,1-4.5,1.15,8.14,8.14,0,0,1-2.9-.45,4.21,4.21,0,0,1-1.87-1.37,5.52,5.52,0,0,1-1-2.29,16,16,0,0,1-.29-3.24V115.42l2.34-.44Z"/><path d="M43.66,193.2a5.36,5.36,0,0,1-2.12-.38,3.66,3.66,0,0,1-1.41-1,4.24,4.24,0,0,1-.78-1.56,7,7,0,0,1-.25-1.92v-7.85h1.23v7.69a5.78,5.78,0,0,0,.24,1.77,3.58,3.58,0,0,0,.67,1.24,2.74,2.74,0,0,0,1,.72,3.94,3.94,0,0,0,1.37.23,3.88,3.88,0,0,0,1.36-.23,2.74,2.74,0,0,0,1-.72,3.42,3.42,0,0,0,.67-1.24,5.48,5.48,0,0,0,.25-1.77v-7.69h1.22v7.85a7.37,7.37,0,0,1-.24,1.92,4.26,4.26,0,0,1-.79,1.56,3.66,3.66,0,0,1-1.41,1A5.34,5.34,0,0,1,43.66,193.2Z"/><path d="M51.32,184q.52-.15,1.41-.33a11,11,0,0,1,2.16-.18,4.35,4.35,0,0,1,1.77.31,2.7,2.7,0,0,1,1.14.87,3.59,3.59,0,0,1,.6,1.36,7.91,7.91,0,0,1,.18,1.75v5.2H57.41V188.1a8.75,8.75,0,0,0-.14-1.67,2.8,2.8,0,0,0-.45-1.12,1.82,1.82,0,0,0-.82-.62,4,4,0,0,0-1.29-.19,9.83,9.83,0,0,0-1.43.09,4.15,4.15,0,0,0-.79.17v8.17H51.32Z"/><path d="M67.34,184.58c-.28.3-.64.74-1.08,1.29s-.92,1.17-1.42,1.85-1,1.38-1.49,2.12-.93,1.44-1.3,2.1h5.46v1H60.7v-.85c.31-.59.7-1.24,1.16-2s.93-1.4,1.43-2.09,1-1.33,1.45-1.94l1.18-1.49H61v-1h6.37Z"/><path d="M72.58,183.41a4,4,0,0,1,1.56.26,2.59,2.59,0,0,1,1,.72,2.73,2.73,0,0,1,.58,1.09,4.92,4.92,0,0,1,.18,1.36v5.87a3.76,3.76,0,0,1-.52.12l-.79.13c-.3,0-.64.09-1,.12s-.74,0-1.13,0a5.33,5.33,0,0,1-1.36-.17,2.84,2.84,0,0,1-1.08-.51,2.48,2.48,0,0,1-.72-.9,3.14,3.14,0,0,1-.26-1.34,2.77,2.77,0,0,1,.29-1.3,2.46,2.46,0,0,1,.81-.89,3.76,3.76,0,0,1,1.24-.51,7,7,0,0,1,1.57-.16l.53,0a4.68,4.68,0,0,1,.54.07l.45.09a1.16,1.16,0,0,1,.26.08V187a5.78,5.78,0,0,0-.07-.94,2,2,0,0,0-.32-.83,1.71,1.71,0,0,0-.68-.59,2.54,2.54,0,0,0-1.16-.23,6.26,6.26,0,0,0-1.53.14c-.34.1-.58.18-.74.24l-.16-1a5.12,5.12,0,0,1,.94-.27A8.52,8.52,0,0,1,72.58,183.41Zm.11,8.67c.46,0,.85,0,1.2,0a7.63,7.63,0,0,0,.87-.12v-3.28a3.16,3.16,0,0,0-.63-.18,5.31,5.31,0,0,0-1.19-.1,7,7,0,0,0-.9.06,2.47,2.47,0,0,0-.86.27,1.79,1.79,0,0,0-.65.57,1.6,1.6,0,0,0-.25,1,2,2,0,0,0,.17.88,1.45,1.45,0,0,0,.49.58,2.12,2.12,0,0,0,.75.31A4.34,4.34,0,0,0,72.69,192.08Zm-.54-11.27a.85.85,0,0,1-.23.63.81.81,0,0,1-.6.24.78.78,0,0,1-.59-.24.82.82,0,0,1-.24-.63.85.85,0,0,1,.24-.63.81.81,0,0,1,.59-.23.85.85,0,0,1,.6.23A.89.89,0,0,1,72.15,180.81Zm3.1,0a.82.82,0,0,1-.24.63.78.78,0,0,1-.59.24.81.81,0,0,1-.6-.24.85.85,0,0,1-.23-.63.89.89,0,0,1,.23-.63.85.85,0,0,1,.6-.23.81.81,0,0,1,.59.23A.85.85,0,0,1,75.25,180.81Z"/><path d="M78.92,192.93V179.18l1.17-.22v4.93a7.81,7.81,0,0,1,1.17-.33,5.93,5.93,0,0,1,1.19-.12,4.51,4.51,0,0,1,1.8.31,2.73,2.73,0,0,1,1.15.87A3.31,3.31,0,0,1,86,186a8.59,8.59,0,0,1,.17,1.75v5.2H85V188.1a8.84,8.84,0,0,0-.13-1.67,2.8,2.8,0,0,0-.45-1.12,1.82,1.82,0,0,0-.84-.62,4.08,4.08,0,0,0-1.31-.19,3.85,3.85,0,0,0-.66.06,6,6,0,0,0-.66.12,5.61,5.61,0,0,0-.55.13,1.89,1.89,0,0,0-.31.11v8Z"/><path d="M91.52,193.09a3.94,3.94,0,0,1-1-.15,1.73,1.73,0,0,1-1.19-1.14,3.44,3.44,0,0,1-.15-1.1V179.18l1.17-.22v11.7a2.51,2.51,0,0,0,.08.69,1,1,0,0,0,.25.42.93.93,0,0,0,.42.22,5.51,5.51,0,0,0,.62.13Z"/><path d="M95.19,180.81a.9.9,0,0,1-.25.66.87.87,0,0,1-.61.24.84.84,0,0,1-.87-.9.85.85,0,0,1,.25-.65.87.87,0,0,1,.62-.25.88.88,0,0,1,.61.25A.89.89,0,0,1,95.19,180.81Zm-.27,12.12H93.75v-9.31h1.17Z"/><path d="M104.08,191.85a2.21,2.21,0,0,1-.32.21l-.53.24a5.2,5.2,0,0,1-.72.21,5.05,5.05,0,0,1-.91.08,4.92,4.92,0,0,1-1.57-.26,3.43,3.43,0,0,1-1.32-.79,3.86,3.86,0,0,1-.91-1.39,5.59,5.59,0,0,1-.34-2.08,5.5,5.5,0,0,1,.3-1.84,4.38,4.38,0,0,1,.88-1.46,3.94,3.94,0,0,1,1.38-1,4.73,4.73,0,0,1,1.85-.35,10.52,10.52,0,0,1,2.08.17c.52.12,1,.23,1.28.34v8.49a3.66,3.66,0,0,1-1.08,3,5,5,0,0,1-3.25.89,8.9,8.9,0,0,1-1.63-.13,8.33,8.33,0,0,1-1.25-.32l.23-1.06a5.15,5.15,0,0,0,1.18.34,7.63,7.63,0,0,0,1.5.15,3.67,3.67,0,0,0,2.4-.64,2.76,2.76,0,0,0,.75-2.19Zm0-7.09a5.79,5.79,0,0,0-.79-.17,8,8,0,0,0-1.38-.09,3.19,3.19,0,0,0-1.35.27,2.78,2.78,0,0,0-1,.73,3.16,3.16,0,0,0-.63,1.14,4.46,4.46,0,0,0-.22,1.45,4.35,4.35,0,0,0,.25,1.57,3,3,0,0,0,.66,1.07,2.47,2.47,0,0,0,.93.61,3.19,3.19,0,0,0,1.06.18,4.24,4.24,0,0,0,1.45-.23,3.49,3.49,0,0,0,1-.54Z"/><path d="M107.77,188.27a6,6,0,0,1,.35-2.14,4.86,4.86,0,0,1,.92-1.52,3.61,3.61,0,0,1,1.3-.91,4,4,0,0,1,1.5-.29,3.53,3.53,0,0,1,2.73,1.11,5,5,0,0,1,1,3.44,2.81,2.81,0,0,1,0,.29,2.45,2.45,0,0,1,0,.27H109a4.15,4.15,0,0,0,.85,2.63,3.17,3.17,0,0,0,2.52.91,5.05,5.05,0,0,0,1.51-.18,7.55,7.55,0,0,0,.81-.3l.22,1a5.41,5.41,0,0,1-1,.34,6,6,0,0,1-1.63.2,5.38,5.38,0,0,1-2.08-.36,3.82,3.82,0,0,1-1.43-1,4.06,4.06,0,0,1-.81-1.54A7.13,7.13,0,0,1,107.77,188.27Zm6.61-.74a3.69,3.69,0,0,0-.69-2.27,2.2,2.2,0,0,0-1.83-.81,2.44,2.44,0,0,0-1.13.25,2.85,2.85,0,0,0-.86.68,3.1,3.1,0,0,0-.58,1,3.81,3.81,0,0,0-.24,1.17Z"/><path d="M126.87,193.2a5.39,5.39,0,0,1-2.12-.38,3.66,3.66,0,0,1-1.41-1,4.24,4.24,0,0,1-.78-1.56,7.37,7.37,0,0,1-.25-1.92v-7.85h1.23v7.69a5.78,5.78,0,0,0,.24,1.77,3.44,3.44,0,0,0,.68,1.24,2.71,2.71,0,0,0,1,.72,4.2,4.2,0,0,0,2.74,0,2.71,2.71,0,0,0,1-.72,3.59,3.59,0,0,0,.68-1.24,5.78,5.78,0,0,0,.24-1.77v-7.69h1.22v7.85a7.37,7.37,0,0,1-.24,1.92,4.24,4.24,0,0,1-.78,1.56,3.62,3.62,0,0,1-1.42,1A5.31,5.31,0,0,1,126.87,193.2Z"/><path d="M136.44,192.1a3.71,3.71,0,0,0,1.67-.33,1.16,1.16,0,0,0,.66-1.13,1.6,1.6,0,0,0-.12-.65,1.26,1.26,0,0,0-.39-.48,3.24,3.24,0,0,0-.71-.42l-1.09-.46c-.35-.15-.68-.29-1-.44a4.06,4.06,0,0,1-.83-.53,2.12,2.12,0,0,1-.79-1.72,2.27,2.27,0,0,1,.86-1.83,3.58,3.58,0,0,1,2.35-.7,6.27,6.27,0,0,1,1.57.16,4.26,4.26,0,0,1,.87.29l-.27,1a6.82,6.82,0,0,0-.72-.29,4.87,4.87,0,0,0-1.51-.18,3.5,3.5,0,0,0-.74.08,2,2,0,0,0-.63.26,1.26,1.26,0,0,0-.43.43,1.17,1.17,0,0,0-.16.64,1.45,1.45,0,0,0,.14.65,1.49,1.49,0,0,0,.43.48,3.83,3.83,0,0,0,.68.38l.93.4c.36.14.7.29,1,.44a3.84,3.84,0,0,1,.88.54,2.61,2.61,0,0,1,.61.75,2.43,2.43,0,0,1,.23,1.11,2.17,2.17,0,0,1-.94,1.91,4.53,4.53,0,0,1-2.59.64,6.46,6.46,0,0,1-1.87-.2,7.44,7.44,0,0,1-.86-.32l.3-1.06.24.12.48.18a7.28,7.28,0,0,0,.73.17A5.78,5.78,0,0,0,136.44,192.1Z"/><path d="M141.68,188.27a6,6,0,0,1,.35-2.14,4.86,4.86,0,0,1,.92-1.52,3.61,3.61,0,0,1,1.3-.91,4,4,0,0,1,1.5-.29,3.53,3.53,0,0,1,2.73,1.11,5,5,0,0,1,1,3.44v.29l0,.27h-6.54a4.15,4.15,0,0,0,.85,2.63,3.17,3.17,0,0,0,2.52.91,5.05,5.05,0,0,0,1.51-.18,7.55,7.55,0,0,0,.81-.3l.22,1a5.1,5.1,0,0,1-1,.34,6,6,0,0,1-1.63.2,5.38,5.38,0,0,1-2.08-.36,3.82,3.82,0,0,1-1.43-1,3.91,3.91,0,0,1-.8-1.54A7.13,7.13,0,0,1,141.68,188.27Zm6.61-.74a3.69,3.69,0,0,0-.69-2.27,2.2,2.2,0,0,0-1.83-.81,2.44,2.44,0,0,0-1.13.25,3,3,0,0,0-.86.68,3.1,3.1,0,0,0-.58,1,4.13,4.13,0,0,0-.24,1.17Z"/><path d="M155.27,183.44a6.24,6.24,0,0,1,1.09.09,3.33,3.33,0,0,1,.71.18l-.23,1a2.37,2.37,0,0,0-.59-.15,6.11,6.11,0,0,0-1.16-.08,5.63,5.63,0,0,0-1.21.1,6,6,0,0,0-.61.18v8.16H152.1v-8.88a9.34,9.34,0,0,1,1.25-.4A7.55,7.55,0,0,1,155.27,183.44Z"/><path d="M159.41,191.22c0,.11,0,.2,0,.29v.21a7.19,7.19,0,0,1-.31,2.14,8.23,8.23,0,0,1-.88,1.93l-.86-.4a6.07,6.07,0,0,0,.58-1.66,9,9,0,0,0,.17-1.81v-.36c0-.1,0-.21,0-.34Z"/><path d="M164.83,196.29a2.38,2.38,0,0,1-.49,0,1.92,1.92,0,0,1-.45-.13l.17-1a2.79,2.79,0,0,0,.34.07,2,2,0,0,0,.41,0,1.52,1.52,0,0,0,1.42-.6,3.61,3.61,0,0,0,.35-1.78v-9.27h1.17v9.22a4.25,4.25,0,0,1-.67,2.61A2.7,2.7,0,0,1,164.83,196.29ZM168,180.81a.87.87,0,0,1-.26.66.84.84,0,0,1-.61.24.92.92,0,0,1-.61-1.55.86.86,0,0,1,.61-.25.85.85,0,0,1,.61.25A.86.86,0,0,1,168,180.81Z"/><path d="M170.28,188.27a5.81,5.81,0,0,1,.36-2.14,4.84,4.84,0,0,1,.91-1.52,3.61,3.61,0,0,1,1.3-.91,4.12,4.12,0,0,1,1.5-.29,3.53,3.53,0,0,1,2.73,1.11,5,5,0,0,1,1,3.44c0,.1,0,.19,0,.29l0,.27h-6.53a4.09,4.09,0,0,0,.84,2.63,3.17,3.17,0,0,0,2.52.91,5.05,5.05,0,0,0,1.51-.18,6.17,6.17,0,0,0,.81-.3l.22,1a5.22,5.22,0,0,1-.94.34,6.11,6.11,0,0,1-1.63.2,5.4,5.4,0,0,1-2.09-.36,3.71,3.71,0,0,1-1.42-1,3.8,3.8,0,0,1-.81-1.54A7.13,7.13,0,0,1,170.28,188.27Zm6.61-.74a3.69,3.69,0,0,0-.68-2.27,2.24,2.24,0,0,0-1.84-.81,2.4,2.4,0,0,0-1.12.25,3,3,0,0,0-.87.68,3.08,3.08,0,0,0-.57,1,4.14,4.14,0,0,0-.25,1.17Z"/><path d="M188.1,192.64a10,10,0,0,1-3.38.5,5,5,0,0,1-1.86-.33,4,4,0,0,1-1.44-1,4.38,4.38,0,0,1-.94-1.53,5.9,5.9,0,0,1-.33-2,6.43,6.43,0,0,1,.28-1.95,4.38,4.38,0,0,1,.82-1.54,3.76,3.76,0,0,1,1.32-1,4.72,4.72,0,0,1,3.38-.09,3.82,3.82,0,0,1,1,.49v-5l1.17-.22Zm-1.17-7.33a4.53,4.53,0,0,0-.4-.27,5.15,5.15,0,0,0-.57-.27,4.44,4.44,0,0,0-.7-.2,3.42,3.42,0,0,0-.79-.08,3.15,3.15,0,0,0-1.45.3,2.71,2.71,0,0,0-1,.82,3.49,3.49,0,0,0-.52,1.21,6.28,6.28,0,0,0-.16,1.46,4,4,0,0,0,.92,2.82,3.14,3.14,0,0,0,2.43,1,8.8,8.8,0,0,0,1.39-.08,4.61,4.61,0,0,0,.8-.17Z"/><path d="M190.64,188.27a6,6,0,0,1,.35-2.14,4.86,4.86,0,0,1,.92-1.52,3.61,3.61,0,0,1,1.3-.91,4,4,0,0,1,1.5-.29,3.53,3.53,0,0,1,2.73,1.11,5,5,0,0,1,1,3.44,2.81,2.81,0,0,1,0,.29,2.45,2.45,0,0,1,0,.27h-6.54a4.15,4.15,0,0,0,.85,2.63,3.17,3.17,0,0,0,2.52.91,5.05,5.05,0,0,0,1.51-.18,7.55,7.55,0,0,0,.81-.3l.22,1a5.41,5.41,0,0,1-.95.34,6,6,0,0,1-1.63.2,5.47,5.47,0,0,1-2.09-.36,3.87,3.87,0,0,1-1.42-1,4.06,4.06,0,0,1-.81-1.54A7.54,7.54,0,0,1,190.64,188.27Zm6.61-.74a3.69,3.69,0,0,0-.69-2.27,2.2,2.2,0,0,0-1.83-.81,2.44,2.44,0,0,0-1.13.25,2.85,2.85,0,0,0-.86.68,3.1,3.1,0,0,0-.58,1,3.81,3.81,0,0,0-.24,1.17Z"/><path d="M204.23,183.44a6.24,6.24,0,0,1,1.09.09,3.33,3.33,0,0,1,.71.18l-.23,1a2.37,2.37,0,0,0-.59-.15,6.11,6.11,0,0,0-1.16-.08,5.63,5.63,0,0,0-1.21.1,6,6,0,0,0-.61.18v8.16h-1.17v-8.88a9.34,9.34,0,0,1,1.25-.4A7.55,7.55,0,0,1,204.23,183.44Z"/><path d="M217.59,191.13c-.12-.3-.3-.7-.52-1.19s-.47-1-.75-1.61-.56-1.18-.85-1.8-.57-1.2-.83-1.74l-.71-1.42c-.2-.41-.35-.7-.45-.86-.15,1.5-.28,3.13-.37,4.88s-.17,3.61-.24,5.54h-1.2c.1-2.27.23-4.44.36-6.52s.31-4.06.52-6h1.08c.36.6.74,1.3,1.15,2.08s.82,1.61,1.22,2.45l1.17,2.5c.38.83.71,1.57,1,2.23.29-.66.62-1.4,1-2.23l1.17-2.5c.41-.84.81-1.66,1.22-2.45s.8-1.48,1.16-2.08h1q.31,2.85.52,6c.13,2.08.26,4.25.36,6.52h-1.24c-.07-1.93-.15-3.78-.24-5.54s-.21-3.38-.37-4.88c-.1.16-.25.45-.45.86s-.44.88-.7,1.42-.54,1.12-.83,1.74-.57,1.22-.85,1.8-.52,1.12-.74,1.61-.4.89-.52,1.19Z"/><path d="M226.91,188.27a6,6,0,0,1,.35-2.14,4.86,4.86,0,0,1,.92-1.52,3.61,3.61,0,0,1,1.3-.91,4,4,0,0,1,1.5-.29,3.53,3.53,0,0,1,2.73,1.11,5,5,0,0,1,1,3.44,2.81,2.81,0,0,1,0,.29,2.45,2.45,0,0,1,0,.27h-6.54a4.15,4.15,0,0,0,.85,2.63,3.17,3.17,0,0,0,2.52.91,5.05,5.05,0,0,0,1.51-.18,7.55,7.55,0,0,0,.81-.3l.22,1a5.41,5.41,0,0,1-.95.34,6,6,0,0,1-1.63.2,5.47,5.47,0,0,1-2.09-.36,3.79,3.79,0,0,1-1.42-1,4.06,4.06,0,0,1-.81-1.54A7.54,7.54,0,0,1,226.91,188.27Zm6.61-.74a3.76,3.76,0,0,0-.69-2.27,2.2,2.2,0,0,0-1.83-.81,2.44,2.44,0,0,0-1.13.25,2.85,2.85,0,0,0-.86.68,3.1,3.1,0,0,0-.58,1,3.81,3.81,0,0,0-.24,1.17Z"/><path d="M237.33,184q.53-.15,1.41-.33a11,11,0,0,1,2.16-.18,4.35,4.35,0,0,1,1.77.31,2.67,2.67,0,0,1,1.13.87,3.46,3.46,0,0,1,.61,1.36,7.91,7.91,0,0,1,.18,1.75v5.2h-1.17V188.1a8.75,8.75,0,0,0-.14-1.67,2.8,2.8,0,0,0-.45-1.12,1.79,1.79,0,0,0-.83-.62,3.88,3.88,0,0,0-1.28-.19,9.83,9.83,0,0,0-1.43.09,4,4,0,0,0-.79.17v8.17h-1.17Z"/><path d="M249.48,192.1a3.73,3.73,0,0,0,1.67-.33,1.17,1.17,0,0,0,.65-1.13,1.61,1.61,0,0,0-.11-.65,1.26,1.26,0,0,0-.39-.48,3.5,3.5,0,0,0-.71-.42l-1.09-.46c-.35-.15-.68-.29-1-.44a4.06,4.06,0,0,1-.83-.53,2.12,2.12,0,0,1-.79-1.72,2.24,2.24,0,0,1,.86-1.83,3.57,3.57,0,0,1,2.34-.7,6.35,6.35,0,0,1,1.58.16,4.76,4.76,0,0,1,.87.29l-.27,1a6.35,6.35,0,0,0-.73-.29,4.76,4.76,0,0,0-1.5-.18,3.67,3.67,0,0,0-.75.08,2,2,0,0,0-.62.26,1.26,1.26,0,0,0-.43.43,1.17,1.17,0,0,0-.16.64,1.45,1.45,0,0,0,.14.65,1.49,1.49,0,0,0,.43.48,3.83,3.83,0,0,0,.68.38l.93.4c.36.14.7.29,1,.44a3.77,3.77,0,0,1,.87.54,2.49,2.49,0,0,1,.62.75,2.43,2.43,0,0,1,.23,1.11,2.17,2.17,0,0,1-.94,1.91,4.55,4.55,0,0,1-2.59.64,6.46,6.46,0,0,1-1.87-.2,7.44,7.44,0,0,1-.86-.32l.3-1.06.24.12.48.18a7.28,7.28,0,0,0,.73.17A5.7,5.7,0,0,0,249.48,192.1Z"/><path d="M259.13,193.13a4.93,4.93,0,0,1-1.91-.35,3.41,3.41,0,0,1-1.37-1,4.2,4.2,0,0,1-.84-1.53,6.42,6.42,0,0,1-.29-2,6.31,6.31,0,0,1,.3-2,4.5,4.5,0,0,1,.85-1.54,3.61,3.61,0,0,1,1.35-1,4.25,4.25,0,0,1,1.78-.35,7.91,7.91,0,0,1,1.42.12,3.4,3.4,0,0,1,1,.33l-.3,1a3.67,3.67,0,0,0-.81-.28,4.93,4.93,0,0,0-1.21-.11,2.83,2.83,0,0,0-2.35,1,4.44,4.44,0,0,0-.8,2.83,6,6,0,0,0,.18,1.52,3,3,0,0,0,.59,1.19,2.83,2.83,0,0,0,1,.78,4,4,0,0,0,1.56.27,3.9,3.9,0,0,0,1.27-.17,4.94,4.94,0,0,0,.74-.29l.26,1a4.78,4.78,0,0,1-1,.36A6.26,6.26,0,0,1,259.13,193.13Z"/><path d="M263.56,192.93V179.18l1.17-.22v4.93a7.81,7.81,0,0,1,1.17-.33,5.93,5.93,0,0,1,1.19-.12,4.51,4.51,0,0,1,1.8.31,2.73,2.73,0,0,1,1.15.87,3.31,3.31,0,0,1,.6,1.36,8.59,8.59,0,0,1,.17,1.75v5.2h-1.17V188.1a8.84,8.84,0,0,0-.13-1.67,2.8,2.8,0,0,0-.45-1.12,1.82,1.82,0,0,0-.84-.62,4.08,4.08,0,0,0-1.31-.19,3.85,3.85,0,0,0-.66.06,6,6,0,0,0-.66.12l-.55.13a1.89,1.89,0,0,0-.31.11v8Z"/><path d="M38.53,209.87a5.82,5.82,0,0,1,.35-2.14,4.68,4.68,0,0,1,.92-1.52,3.58,3.58,0,0,1,1.29-.91,4.12,4.12,0,0,1,1.5-.29,3.53,3.53,0,0,1,2.73,1.11,5,5,0,0,1,1,3.44,2.81,2.81,0,0,1,0,.29l0,.27H39.77a4.15,4.15,0,0,0,.84,2.63,3.17,3.17,0,0,0,2.52.91,5.17,5.17,0,0,0,1.52-.18,7.55,7.55,0,0,0,.81-.3l.21,1a5.22,5.22,0,0,1-.94.34,6.06,6.06,0,0,1-1.63.2,5.43,5.43,0,0,1-2.09-.36,3.71,3.71,0,0,1-1.42-1,4.06,4.06,0,0,1-.81-1.54A7.08,7.08,0,0,1,38.53,209.87Zm6.6-.74a3.69,3.69,0,0,0-.68-2.27,2.22,2.22,0,0,0-1.84-.81,2.4,2.4,0,0,0-1.12.25,3,3,0,0,0-.87.68,3.28,3.28,0,0,0-.57,1,4.14,4.14,0,0,0-.25,1.17Z"/><path d="M50.39,202.41a.9.9,0,0,1-.25.66.88.88,0,0,1-.62.24.92.92,0,0,1-.61-1.55.86.86,0,0,1,.61-.25.86.86,0,0,1,.87.9Zm-.27,12.12H49v-9.31h1.17Z"/><path d="M53.21,205.55q.52-.15,1.41-.33a11,11,0,0,1,2.16-.18,4.35,4.35,0,0,1,1.77.31,2.7,2.7,0,0,1,1.14.87,3.59,3.59,0,0,1,.6,1.36,7.91,7.91,0,0,1,.18,1.75v5.2H59.3V209.7a8.75,8.75,0,0,0-.14-1.67,2.8,2.8,0,0,0-.45-1.12,1.82,1.82,0,0,0-.82-.62,4,4,0,0,0-1.29-.19,9.83,9.83,0,0,0-1.43.09,4.15,4.15,0,0,0-.79.17v8.17H53.21Z"/><path d="M67.63,202.05h1.23v12.48H67.63Z"/><path d="M72,205.55q.53-.15,1.41-.33a11,11,0,0,1,2.16-.18,4.35,4.35,0,0,1,1.77.31,2.76,2.76,0,0,1,1.14.87,3.59,3.59,0,0,1,.6,1.36,7.91,7.91,0,0,1,.18,1.75v5.2H78.11V209.7A8.75,8.75,0,0,0,78,208a2.8,2.8,0,0,0-.45-1.12,1.82,1.82,0,0,0-.82-.62,4,4,0,0,0-1.29-.19,9.83,9.83,0,0,0-1.43.09,4,4,0,0,0-.79.17v8.17H72Z"/><path d="M89.66,214.24a10,10,0,0,1-3.38.5,5,5,0,0,1-1.86-.33,4,4,0,0,1-1.44-1,4.24,4.24,0,0,1-.94-1.53,5.9,5.9,0,0,1-.33-2,6.43,6.43,0,0,1,.28-1.95,4.38,4.38,0,0,1,.82-1.54,3.76,3.76,0,0,1,1.32-1,4.72,4.72,0,0,1,3.38-.09,3.82,3.82,0,0,1,1,.49v-5l1.17-.22Zm-1.17-7.33a4.53,4.53,0,0,0-.4-.27,5.15,5.15,0,0,0-.57-.27,4.44,4.44,0,0,0-.7-.2,3.42,3.42,0,0,0-.79-.08,3.15,3.15,0,0,0-1.45.3,2.71,2.71,0,0,0-1,.82,3.49,3.49,0,0,0-.52,1.21,6.28,6.28,0,0,0-.16,1.46,4,4,0,0,0,.92,2.82,3.14,3.14,0,0,0,2.43,1,8.8,8.8,0,0,0,1.39-.08,4.61,4.61,0,0,0,.8-.17Z"/><path d="M94.2,202.41a.84.84,0,0,1-.86.9.88.88,0,0,1-.62-.24,1,1,0,0,1,0-1.31.89.89,0,0,1,.62-.25.86.86,0,0,1,.61.25A.85.85,0,0,1,94.2,202.41Zm-.27,12.12H92.76v-9.31h1.17Z"/><path d="M99.84,213.27c.26-.52.51-1.11.78-1.77s.52-1.36.77-2.07.47-1.44.68-2.16.39-1.41.53-2.05h1.18c-.22.85-.46,1.69-.73,2.52s-.55,1.64-.84,2.43-.61,1.56-.93,2.29-.63,1.42-.93,2.07H99.26c-.31-.65-.63-1.34-.94-2.07s-.62-1.5-.92-2.29-.57-1.6-.84-2.43-.51-1.67-.72-2.52h1.24c.14.64.32,1.32.53,2.05s.44,1.44.69,2.16.5,1.4.77,2.07S99.59,212.75,99.84,213.27Z"/><path d="M107.1,202.41a.86.86,0,0,1-.25.66.84.84,0,0,1-.61.24.92.92,0,0,1-.61-1.55.86.86,0,0,1,.61-.25.86.86,0,0,1,.86.9Zm-.27,12.12h-1.16v-9.31h1.16Z"/><path d="M117.33,214.24a11,11,0,0,1-1.33.34,10.64,10.64,0,0,1-2,.16,5.06,5.06,0,0,1-1.87-.33,4,4,0,0,1-1.44-1,4.36,4.36,0,0,1-.93-1.53,5.67,5.67,0,0,1-.34-2,6.76,6.76,0,0,1,.28-1.95,4.54,4.54,0,0,1,.82-1.54,3.76,3.76,0,0,1,1.32-1,4.74,4.74,0,0,1,3.39-.09,3.82,3.82,0,0,1,1,.49v-5l1.17-.22Zm-1.17-7.33a4.89,4.89,0,0,0-.41-.27,5.92,5.92,0,0,0-.56-.27,4.77,4.77,0,0,0-.7-.2,3.5,3.5,0,0,0-.8-.08,3.17,3.17,0,0,0-1.45.3,2.67,2.67,0,0,0-.94.82,3.49,3.49,0,0,0-.52,1.21,6.28,6.28,0,0,0-.16,1.46,4,4,0,0,0,.91,2.82,3.17,3.17,0,0,0,2.43,1,8.94,8.94,0,0,0,1.4-.08,4.84,4.84,0,0,0,.8-.17Z"/><path d="M127.57,214.2c-.35.1-.81.21-1.4.33a11,11,0,0,1-2.16.18,4.28,4.28,0,0,1-1.75-.31,2.8,2.8,0,0,1-1.13-.86,3.36,3.36,0,0,1-.62-1.35,7.33,7.33,0,0,1-.19-1.75v-5.22h1.17v4.84a8.87,8.87,0,0,0,.14,1.68,2.82,2.82,0,0,0,.47,1.11,1.85,1.85,0,0,0,.84.61,3.78,3.78,0,0,0,1.25.19,10.08,10.08,0,0,0,1.44-.09,3.49,3.49,0,0,0,.77-.17v-8.17h1.17Z"/><path d="M137.81,214.2c-.35.1-.81.21-1.4.33a11,11,0,0,1-2.16.18,4.28,4.28,0,0,1-1.75-.31,2.87,2.87,0,0,1-1.13-.86,3.36,3.36,0,0,1-.62-1.35,7.33,7.33,0,0,1-.19-1.75v-5.22h1.17v4.84a8.87,8.87,0,0,0,.14,1.68,2.82,2.82,0,0,0,.47,1.11,1.91,1.91,0,0,0,.84.61,3.78,3.78,0,0,0,1.25.19,10.08,10.08,0,0,0,1.44-.09,3.34,3.34,0,0,0,.77-.17v-8.17h1.17Z"/><path d="M140.91,205.55c.35-.1.8-.21,1.36-.33a10.66,10.66,0,0,1,2.17-.18,3,3,0,0,1,2.55,1l.35-.24a4.9,4.9,0,0,1,.66-.36,4.62,4.62,0,0,1,.93-.3,4.74,4.74,0,0,1,1.18-.13,4,4,0,0,1,1.72.32,2.41,2.41,0,0,1,1,.88,3.66,3.66,0,0,1,.49,1.36,11.49,11.49,0,0,1,.13,1.73v5.2h-1.18V209.7a12.38,12.38,0,0,0-.08-1.59,3,3,0,0,0-.32-1.11,1.54,1.54,0,0,0-.69-.67,2.62,2.62,0,0,0-1.17-.23,4.84,4.84,0,0,0-1,.1,4.1,4.1,0,0,0-.77.25,3.19,3.19,0,0,0-.53.28l-.3.22a5.78,5.78,0,0,1,.25,1.05,9.69,9.69,0,0,1,.08,1.24v5.29H146.6V209.7a14.5,14.5,0,0,0-.08-1.59,3,3,0,0,0-.34-1.11,1.59,1.59,0,0,0-.71-.67,2.74,2.74,0,0,0-1.21-.23,9.55,9.55,0,0,0-1.43.09,3.52,3.52,0,0,0-.75.17v8.17h-1.17Z"/><path d="M167.69,214.2c-.35.1-.81.21-1.4.33a11,11,0,0,1-2.16.18,4.28,4.28,0,0,1-1.75-.31,2.8,2.8,0,0,1-1.13-.86,3.36,3.36,0,0,1-.62-1.35,7.33,7.33,0,0,1-.19-1.75v-5.22h1.17v4.84a8.87,8.87,0,0,0,.14,1.68,2.82,2.82,0,0,0,.47,1.11,1.91,1.91,0,0,0,.84.61,3.78,3.78,0,0,0,1.25.19,10.08,10.08,0,0,0,1.44-.09,3.49,3.49,0,0,0,.77-.17v-8.17h1.17Z"/><path d="M170.79,205.55c.35-.1.81-.21,1.4-.33a11,11,0,0,1,2.16-.18,4.35,4.35,0,0,1,1.77.31,2.64,2.64,0,0,1,1.14.87,3.59,3.59,0,0,1,.6,1.36,7.91,7.91,0,0,1,.18,1.75v5.2h-1.17V209.7a8.84,8.84,0,0,0-.13-1.67,2.8,2.8,0,0,0-.45-1.12,1.84,1.84,0,0,0-.83-.62,3.9,3.9,0,0,0-1.29-.19,9.83,9.83,0,0,0-1.43.09,4,4,0,0,0-.78.17v8.17h-1.17Z"/><path d="M188.43,214.24a11,11,0,0,1-1.33.34,10.68,10.68,0,0,1-2.06.16,5,5,0,0,1-1.86-.33,4,4,0,0,1-1.44-1,4.36,4.36,0,0,1-.93-1.53,5.67,5.67,0,0,1-.34-2,6.43,6.43,0,0,1,.28-1.95,4.54,4.54,0,0,1,.82-1.54,3.76,3.76,0,0,1,1.32-1,4.74,4.74,0,0,1,3.39-.09,4,4,0,0,1,1,.49v-5l1.17-.22Zm-1.17-7.33a4.89,4.89,0,0,0-.41-.27,5.92,5.92,0,0,0-.56-.27,4.57,4.57,0,0,0-.71-.2,3.36,3.36,0,0,0-.79-.08,3.17,3.17,0,0,0-1.45.3,2.67,2.67,0,0,0-.94.82,3.31,3.31,0,0,0-.52,1.21,6.28,6.28,0,0,0-.17,1.46,4,4,0,0,0,.92,2.82,3.14,3.14,0,0,0,2.43,1,8.94,8.94,0,0,0,1.4-.08,4.84,4.84,0,0,0,.8-.17Z"/><path d="M195.63,205.55c.34-.1.81-.21,1.4-.33a11,11,0,0,1,2.16-.18,4.35,4.35,0,0,1,1.77.31,2.64,2.64,0,0,1,1.14.87,3.59,3.59,0,0,1,.6,1.36,7.91,7.91,0,0,1,.18,1.75v5.2h-1.17V209.7a8.84,8.84,0,0,0-.13-1.67,2.8,2.8,0,0,0-.45-1.12,1.84,1.84,0,0,0-.83-.62,3.9,3.9,0,0,0-1.29-.19,9.83,9.83,0,0,0-1.43.09,4,4,0,0,0-.78.17v8.17h-1.17Z"/><path d="M213,214.2q-.53.15-1.41.33a11,11,0,0,1-2.16.18,4.2,4.2,0,0,1-1.74-.31,2.83,2.83,0,0,1-1.14-.86,3.5,3.5,0,0,1-.62-1.35,7.33,7.33,0,0,1-.19-1.75v-5.22h1.17v4.84a8,8,0,0,0,.15,1.68,2.82,2.82,0,0,0,.46,1.11,1.91,1.91,0,0,0,.84.61,3.78,3.78,0,0,0,1.25.19,10.08,10.08,0,0,0,1.44-.09,3.64,3.64,0,0,0,.78-.17v-8.17H213Z"/><path d="M219.28,205a6.33,6.33,0,0,1,1.09.09,3.33,3.33,0,0,1,.71.18l-.24,1a2.26,2.26,0,0,0-.58-.15,6.17,6.17,0,0,0-1.16-.08,5.74,5.74,0,0,0-1.22.1l-.6.18v8.16h-1.17v-8.88a9.12,9.12,0,0,1,1.24-.4A7.64,7.64,0,0,1,219.28,205Z"/><path d="M38.53,231.47a5.82,5.82,0,0,1,.35-2.14,4.68,4.68,0,0,1,.92-1.52,3.58,3.58,0,0,1,1.29-.91,4.12,4.12,0,0,1,1.5-.29,3.53,3.53,0,0,1,2.73,1.11,5,5,0,0,1,1,3.44,2.81,2.81,0,0,1,0,.29l0,.27H39.77a4.15,4.15,0,0,0,.84,2.63,3.17,3.17,0,0,0,2.52.91,5.17,5.17,0,0,0,1.52-.18,7.55,7.55,0,0,0,.81-.3l.21,1a5.22,5.22,0,0,1-.94.34,6.06,6.06,0,0,1-1.63.2A5.43,5.43,0,0,1,41,236a3.71,3.71,0,0,1-1.42-1,4.06,4.06,0,0,1-.81-1.54A7.08,7.08,0,0,1,38.53,231.47Zm6.6-.74a3.69,3.69,0,0,0-.68-2.27,2.22,2.22,0,0,0-1.84-.81,2.4,2.4,0,0,0-1.12.25,3,3,0,0,0-.87.68,3.28,3.28,0,0,0-.57,1,4.14,4.14,0,0,0-.25,1.17Z"/><path d="M50.39,224a.9.9,0,0,1-.25.66.88.88,0,0,1-.62.24.92.92,0,0,1-.61-1.55.86.86,0,0,1,.61-.25.86.86,0,0,1,.87.9Zm-.27,12.12H49v-9.31h1.17Z"/><path d="M53.21,227.15q.52-.15,1.41-.33a11,11,0,0,1,2.16-.18,4.35,4.35,0,0,1,1.77.31,2.7,2.7,0,0,1,1.14.87,3.59,3.59,0,0,1,.6,1.36,7.91,7.91,0,0,1,.18,1.75v5.2H59.3V231.3a8.75,8.75,0,0,0-.14-1.67,2.8,2.8,0,0,0-.45-1.12,1.82,1.82,0,0,0-.82-.62,4,4,0,0,0-1.29-.19,9.83,9.83,0,0,0-1.43.09,4.15,4.15,0,0,0-.79.17v8.17H53.21Z"/><path d="M62.9,231.47a6,6,0,0,1,.35-2.14,4.68,4.68,0,0,1,.92-1.52,3.67,3.67,0,0,1,1.29-.91,4.14,4.14,0,0,1,1.51-.29,3.49,3.49,0,0,1,2.72,1.11,5,5,0,0,1,1,3.44,2.81,2.81,0,0,1,0,.29,2.48,2.48,0,0,1,0,.27H64.14a4.15,4.15,0,0,0,.85,2.63,3.14,3.14,0,0,0,2.52.91,5.1,5.1,0,0,0,1.51-.18,7.55,7.55,0,0,0,.81-.3l.21,1a4.93,4.93,0,0,1-.94.34,6.06,6.06,0,0,1-1.63.2,5.43,5.43,0,0,1-2.09-.36A3.79,3.79,0,0,1,64,235a4.06,4.06,0,0,1-.81-1.54A7.08,7.08,0,0,1,62.9,231.47Zm6.6-.74a3.69,3.69,0,0,0-.68-2.27,2.21,2.21,0,0,0-1.84-.81,2.4,2.4,0,0,0-1.12.25,2.85,2.85,0,0,0-.86.68,3.1,3.1,0,0,0-.58,1,3.81,3.81,0,0,0-.24,1.17Z"/><path d="M80.18,235.34a4.07,4.07,0,0,0,2.27-.54,1.89,1.89,0,0,0,.81-1.72,2.29,2.29,0,0,0-.26-1.14,2.49,2.49,0,0,0-.7-.78,4.67,4.67,0,0,0-1-.54l-1.17-.47a14,14,0,0,1-1.38-.63,4.64,4.64,0,0,1-1.05-.73,2.76,2.76,0,0,1-.65-.92,2.94,2.94,0,0,1-.23-1.23,2.88,2.88,0,0,1,1.06-2.43,4.7,4.7,0,0,1,3-.83,6.4,6.4,0,0,1,1,.08,5.84,5.84,0,0,1,.91.19,5.49,5.49,0,0,1,.78.26,2.6,2.6,0,0,1,.58.3l-.43,1a4.52,4.52,0,0,0-1.27-.58,5.91,5.91,0,0,0-1.61-.21,5.22,5.22,0,0,0-1.09.11,2.45,2.45,0,0,0-.85.38,1.91,1.91,0,0,0-.57.66,2,2,0,0,0-.21,1,1.91,1.91,0,0,0,.22,1,2,2,0,0,0,.6.69,5.18,5.18,0,0,0,.91.52l1.13.49c.5.2,1,.4,1.4.61a4.62,4.62,0,0,1,1.14.72,3,3,0,0,1,.78,1,3.32,3.32,0,0,1,.28,1.45,2.91,2.91,0,0,1-1.18,2.54,5.32,5.32,0,0,1-3.19.85,8.42,8.42,0,0,1-2.38-.32,5.91,5.91,0,0,1-.79-.28,4.6,4.6,0,0,1-.5-.25l.39-1.06a5.38,5.38,0,0,0,.49.25,5.17,5.17,0,0,0,.72.28,6.81,6.81,0,0,0,.94.23A6.71,6.71,0,0,0,80.18,235.34Z"/><path d="M87.9,239.46H86.73V227.15a10.77,10.77,0,0,1,1.33-.35,11.51,11.51,0,0,1,2-.16A4.87,4.87,0,0,1,92,227a4.14,4.14,0,0,1,1.44,1,4.36,4.36,0,0,1,.93,1.53,5.88,5.88,0,0,1,.34,2,6.77,6.77,0,0,1-.28,2,4.5,4.5,0,0,1-.82,1.53,3.77,3.77,0,0,1-1.33,1,4.21,4.21,0,0,1-1.79.36,4.28,4.28,0,0,1-1.59-.26,4.17,4.17,0,0,1-1-.49Zm0-5a2.77,2.77,0,0,0,.4.27,4.52,4.52,0,0,0,1.27.48,3.5,3.5,0,0,0,.8.08,3.27,3.27,0,0,0,1.44-.29,2.59,2.59,0,0,0,1-.81,3.58,3.58,0,0,0,.52-1.21,6.31,6.31,0,0,0,.16-1.47,4,4,0,0,0-.91-2.81,3.18,3.18,0,0,0-2.43-1,8.68,8.68,0,0,0-1.4.09,4.84,4.84,0,0,0-.8.17Z"/><path d="M100.39,226.64a6.24,6.24,0,0,1,1.09.09,3.33,3.33,0,0,1,.71.18l-.23,1a2.37,2.37,0,0,0-.59-.15,6.11,6.11,0,0,0-1.16-.08,5.63,5.63,0,0,0-1.21.1,6,6,0,0,0-.61.18v8.16H97.22v-8.88a9.34,9.34,0,0,1,1.25-.4A7.55,7.55,0,0,1,100.39,226.64Z"/><path d="M106.78,226.61a4,4,0,0,1,1.56.26,2.59,2.59,0,0,1,1,.72,2.73,2.73,0,0,1,.58,1.09,4.92,4.92,0,0,1,.18,1.36v5.87a3.76,3.76,0,0,1-.52.12l-.79.13c-.3.05-.64.09-1,.12s-.74.05-1.13.05a5.33,5.33,0,0,1-1.36-.17,2.84,2.84,0,0,1-1.08-.51,2.48,2.48,0,0,1-.72-.9,3.14,3.14,0,0,1-.26-1.34,2.77,2.77,0,0,1,.29-1.3,2.46,2.46,0,0,1,.81-.89,3.76,3.76,0,0,1,1.24-.51,7,7,0,0,1,1.57-.16l.53,0a5,5,0,0,1,.54.07l.45.09a1.16,1.16,0,0,1,.26.08v-.58a5.78,5.78,0,0,0-.07-.94,2.15,2.15,0,0,0-.32-.83,1.71,1.71,0,0,0-.68-.59,2.57,2.57,0,0,0-1.16-.23,6.26,6.26,0,0,0-1.53.14c-.34.1-.58.18-.74.24l-.16-1a5.12,5.12,0,0,1,.94-.27A8.52,8.52,0,0,1,106.78,226.61Zm.11,8.67c.46,0,.85,0,1.2,0a7.63,7.63,0,0,0,.87-.12v-3.28a3.16,3.16,0,0,0-.63-.18,5.31,5.31,0,0,0-1.19-.1,7,7,0,0,0-.9.06,2.47,2.47,0,0,0-.86.27,1.79,1.79,0,0,0-.65.57,1.6,1.6,0,0,0-.25.95,2,2,0,0,0,.17.88,1.43,1.43,0,0,0,.48.58,2.17,2.17,0,0,0,.76.31A4.34,4.34,0,0,0,106.89,235.28Z"/><path d="M117,236.33a4.93,4.93,0,0,1-1.91-.35,3.52,3.52,0,0,1-1.38-1,4.33,4.33,0,0,1-.83-1.53,6.42,6.42,0,0,1-.29-2,6.31,6.31,0,0,1,.3-2,4.34,4.34,0,0,1,.85-1.54,3.61,3.61,0,0,1,1.35-1,4.25,4.25,0,0,1,1.78-.35,7.91,7.91,0,0,1,1.42.12,3.5,3.5,0,0,1,1,.33l-.3,1a3.67,3.67,0,0,0-.81-.28,4.93,4.93,0,0,0-1.21-.11,2.83,2.83,0,0,0-2.35,1,4.44,4.44,0,0,0-.8,2.83A6,6,0,0,0,114,233a3,3,0,0,0,.59,1.19,2.75,2.75,0,0,0,1,.78,4,4,0,0,0,1.56.27,3.94,3.94,0,0,0,1.27-.17,4.94,4.94,0,0,0,.74-.29l.26,1a4.78,4.78,0,0,1-1,.36A6.26,6.26,0,0,1,117,236.33Z"/><path d="M121.4,236.13V222.38l1.17-.22v4.93a7.81,7.81,0,0,1,1.17-.33,5.93,5.93,0,0,1,1.19-.12,4.51,4.51,0,0,1,1.8.31,2.73,2.73,0,0,1,1.15.87,3.31,3.31,0,0,1,.6,1.36,8.59,8.59,0,0,1,.17,1.75v5.2h-1.17V231.3a8.84,8.84,0,0,0-.13-1.67,2.8,2.8,0,0,0-.45-1.12,1.82,1.82,0,0,0-.84-.62,4.08,4.08,0,0,0-1.31-.19,3.85,3.85,0,0,0-.66.06,6,6,0,0,0-.66.12,5.61,5.61,0,0,0-.55.13,1.57,1.57,0,0,0-.31.11v8Z"/><path d="M131.08,231.47a6,6,0,0,1,.35-2.14,4.86,4.86,0,0,1,.92-1.52,3.61,3.61,0,0,1,1.3-.91,4,4,0,0,1,1.5-.29,3.53,3.53,0,0,1,2.73,1.11,5,5,0,0,1,1,3.44,2.81,2.81,0,0,1,0,.29,2.45,2.45,0,0,1,0,.27h-6.54a4.15,4.15,0,0,0,.85,2.63,3.17,3.17,0,0,0,2.52.91,5.1,5.1,0,0,0,1.51-.18,7.55,7.55,0,0,0,.81-.3l.22,1a5.41,5.41,0,0,1-.95.34,6,6,0,0,1-1.63.2,5.47,5.47,0,0,1-2.09-.36,3.79,3.79,0,0,1-1.42-1,4.06,4.06,0,0,1-.81-1.54A7.08,7.08,0,0,1,131.08,231.47Zm6.61-.74a3.69,3.69,0,0,0-.69-2.27,2.2,2.2,0,0,0-1.83-.81,2.44,2.44,0,0,0-1.13.25,2.85,2.85,0,0,0-.86.68,3.1,3.1,0,0,0-.58,1,3.81,3.81,0,0,0-.24,1.17Z"/><path d="M143.16,235.35a1.05,1.05,0,0,1-.26.71,1,1,0,0,1-.73.28.94.94,0,0,1-.73-.28,1.05,1.05,0,0,1-.26-.71,1,1,0,0,1,.26-.7.94.94,0,0,1,.73-.29,1,1,0,0,1,.73.29A1,1,0,0,1,143.16,235.35Z"/><path d="M150.11,223.65h1.22v12.48h-1.22Z"/><path d="M154.5,236.13V222.38l1.17-.22v4.93a7.81,7.81,0,0,1,1.17-.33,5.93,5.93,0,0,1,1.19-.12,4.51,4.51,0,0,1,1.8.31,2.73,2.73,0,0,1,1.15.87,3.31,3.31,0,0,1,.6,1.36,7.93,7.93,0,0,1,.17,1.75v5.2h-1.17V231.3a8.84,8.84,0,0,0-.13-1.67,2.8,2.8,0,0,0-.45-1.12,1.82,1.82,0,0,0-.84-.62,4.08,4.08,0,0,0-1.31-.19,3.85,3.85,0,0,0-.66.06,6.45,6.45,0,0,0-.66.12L156,228a1.89,1.89,0,0,0-.31.11v8Z"/><path d="M167.91,226.64a6.41,6.41,0,0,1,1.09.09,3.33,3.33,0,0,1,.71.18l-.24,1a2.26,2.26,0,0,0-.58-.15,6.17,6.17,0,0,0-1.16-.08,5.74,5.74,0,0,0-1.22.1l-.6.18v8.16h-1.17v-8.88a9.12,9.12,0,0,1,1.24-.4A7.64,7.64,0,0,1,167.91,226.64Z"/><path d="M170.91,231.47a6,6,0,0,1,.35-2.14,4.86,4.86,0,0,1,.92-1.52,3.61,3.61,0,0,1,1.3-.91,4.08,4.08,0,0,1,1.5-.29,3.53,3.53,0,0,1,2.73,1.11,5,5,0,0,1,1,3.44c0,.1,0,.19,0,.29l0,.27h-6.53a4.09,4.09,0,0,0,.84,2.63,3.17,3.17,0,0,0,2.52.91,5.05,5.05,0,0,0,1.51-.18,6.17,6.17,0,0,0,.81-.3l.22,1a5.1,5.1,0,0,1-.95.34,6,6,0,0,1-1.62.2,5.4,5.4,0,0,1-2.09-.36,3.71,3.71,0,0,1-1.42-1,3.8,3.8,0,0,1-.81-1.54A7.07,7.07,0,0,1,170.91,231.47Zm6.61-.74a3.69,3.69,0,0,0-.68-2.27,2.24,2.24,0,0,0-1.84-.81,2.37,2.37,0,0,0-1.12.25,3,3,0,0,0-1.44,1.66,4.14,4.14,0,0,0-.25,1.17Z"/><path d="M184.88,231.47a6,6,0,0,1,.35-2.14,4.86,4.86,0,0,1,.92-1.52,3.61,3.61,0,0,1,1.3-.91,4,4,0,0,1,1.5-.29,3.53,3.53,0,0,1,2.73,1.11,5,5,0,0,1,1,3.44,2.81,2.81,0,0,1,0,.29,2.45,2.45,0,0,1,0,.27h-6.54a4.15,4.15,0,0,0,.85,2.63,3.17,3.17,0,0,0,2.52.91,5.05,5.05,0,0,0,1.51-.18,7.55,7.55,0,0,0,.81-.3l.22,1a5.41,5.41,0,0,1-.95.34,6,6,0,0,1-1.63.2,5.47,5.47,0,0,1-2.09-.36,3.87,3.87,0,0,1-1.42-1,4.06,4.06,0,0,1-.81-1.54A7.48,7.48,0,0,1,184.88,231.47Zm6.61-.74a3.69,3.69,0,0,0-.69-2.27,2.2,2.2,0,0,0-1.83-.81,2.44,2.44,0,0,0-1.13.25,2.85,2.85,0,0,0-.86.68,3.1,3.1,0,0,0-.58,1,3.81,3.81,0,0,0-.24,1.17Z"/><path d="M196.74,224a.84.84,0,0,1-.86.9.84.84,0,0,1-.61-.24,1,1,0,0,1,0-1.31.85.85,0,0,1,.61-.25.86.86,0,0,1,.61.25A.85.85,0,0,1,196.74,224Zm-.27,12.12H195.3v-9.31h1.17Z"/><path d="M205.63,235.05a2.21,2.21,0,0,1-.32.21l-.53.24a5.2,5.2,0,0,1-.72.21,5,5,0,0,1-2.48-.18,3.43,3.43,0,0,1-1.32-.79,3.86,3.86,0,0,1-.91-1.39,5.59,5.59,0,0,1-.34-2.08,5.27,5.27,0,0,1,.31-1.84,4.2,4.2,0,0,1,.87-1.46,4,4,0,0,1,1.39-1,4.68,4.68,0,0,1,1.84-.35,10.45,10.45,0,0,1,2.08.17c.52.12.95.23,1.29.34v8.49a3.66,3.66,0,0,1-1.08,3,5,5,0,0,1-3.26.89,9.05,9.05,0,0,1-1.63-.13,8.66,8.66,0,0,1-1.25-.32l.23-1.06a5.15,5.15,0,0,0,1.18.34,7.63,7.63,0,0,0,1.5.15,3.72,3.72,0,0,0,2.41-.64,2.76,2.76,0,0,0,.74-2.19Zm0-7.09a6.36,6.36,0,0,0-.8-.17,8,8,0,0,0-1.38-.09,3.14,3.14,0,0,0-1.34.27,2.81,2.81,0,0,0-1,.73,3.16,3.16,0,0,0-.63,1.14,4.46,4.46,0,0,0-.22,1.45,4.57,4.57,0,0,0,.25,1.57,3,3,0,0,0,.66,1.07,2.47,2.47,0,0,0,.93.61,3.23,3.23,0,0,0,1.06.18,4.2,4.2,0,0,0,1.45-.23,3.43,3.43,0,0,0,1-.54Z"/><path d="M209.33,231.47a5.82,5.82,0,0,1,.35-2.14,4.84,4.84,0,0,1,.91-1.52,3.61,3.61,0,0,1,1.3-.91,4.12,4.12,0,0,1,1.5-.29,3.53,3.53,0,0,1,2.73,1.11,5,5,0,0,1,1,3.44c0,.1,0,.19,0,.29l0,.27h-6.53a4.09,4.09,0,0,0,.84,2.63,3.17,3.17,0,0,0,2.52.91,5.17,5.17,0,0,0,1.52-.18,6.48,6.48,0,0,0,.8-.3l.22,1a5.22,5.22,0,0,1-.94.34,6.11,6.11,0,0,1-1.63.2,5.4,5.4,0,0,1-2.09-.36,3.71,3.71,0,0,1-1.42-1,3.92,3.92,0,0,1-.81-1.54A7.08,7.08,0,0,1,209.33,231.47Zm6.6-.74a3.69,3.69,0,0,0-.68-2.27,2.22,2.22,0,0,0-1.84-.81,2.4,2.4,0,0,0-1.12.25,3,3,0,0,0-.87.68,3.08,3.08,0,0,0-.57,1,4.14,4.14,0,0,0-.25,1.17Z"/><path d="M219.75,227.15c.34-.1.81-.21,1.4-.33a11,11,0,0,1,2.16-.18,4.35,4.35,0,0,1,1.77.31,2.64,2.64,0,0,1,1.14.87,3.59,3.59,0,0,1,.6,1.36,7.91,7.91,0,0,1,.18,1.75v5.2h-1.17V231.3a8.84,8.84,0,0,0-.13-1.67,2.8,2.8,0,0,0-.45-1.12,1.84,1.84,0,0,0-.83-.62,3.9,3.9,0,0,0-1.29-.19,9.83,9.83,0,0,0-1.43.09,4,4,0,0,0-.78.17v8.17h-1.17Z"/><path d="M229.43,231.47a6,6,0,0,1,.35-2.14,4.86,4.86,0,0,1,.92-1.52,3.61,3.61,0,0,1,1.3-.91,4,4,0,0,1,1.5-.29,3.53,3.53,0,0,1,2.73,1.11,5,5,0,0,1,1,3.44,2.81,2.81,0,0,1,0,.29,2.45,2.45,0,0,1,0,.27h-6.54a4.15,4.15,0,0,0,.85,2.63,3.17,3.17,0,0,0,2.52.91,5.1,5.1,0,0,0,1.51-.18,7.55,7.55,0,0,0,.81-.3l.22,1a5.41,5.41,0,0,1-1,.34,6,6,0,0,1-1.63.2,5.47,5.47,0,0,1-2.09-.36,3.79,3.79,0,0,1-1.42-1,4.06,4.06,0,0,1-.81-1.54A7.08,7.08,0,0,1,229.43,231.47Zm6.61-.74a3.76,3.76,0,0,0-.69-2.27,2.2,2.2,0,0,0-1.83-.81,2.44,2.44,0,0,0-1.13.25,2.85,2.85,0,0,0-.86.68,3.1,3.1,0,0,0-.58,1,3.81,3.81,0,0,0-.24,1.17Z"/><path d="M241.51,235.35a1.05,1.05,0,0,1-.26.71,1,1,0,0,1-.73.28.94.94,0,0,1-.73-.28,1,1,0,0,1-.26-.71,1,1,0,0,1,.26-.7.94.94,0,0,1,.73-.29,1,1,0,0,1,.73.29A1,1,0,0,1,241.51,235.35Z"/></svg>