<?xml version="1.0" encoding="utf-8"?>
<!-- Generator: Adobe Illustrator 22.1.0, SVG Export Plug-In . SVG Version: 6.00 Build 0)  -->
<svg version="1.1" xmlns="http://www.w3.org/2000/svg" xmlns:xlink="http://www.w3.org/1999/xlink" x="0px" y="0px"
	 viewBox="0 0 1440 617" style="enable-background:new 0 0 1440 617;" xml:space="preserve">
<style type="text/css">
	.st0{fill:#6851FF;}
	.st1{opacity:0.3;clip-path:url(#SVGID_2_);fill:#84B9FF;}
	.st2{clip-path:url(#SVGID_2_);fill:#FFFFFF;}
	.st3{opacity:0.3;}
	.st4{fill:#FFFFFF;}
</style>
<g id="Layer_1">
	<rect class="st0" width="1440" height="617"/>
</g>
<g id="Layer_2">
	<g>
		<defs>
			<rect id="SVGID_1_" x="-9" y="-2" width="1458" height="625"/>
		</defs>
		<clipPath id="SVGID_2_">
			<use xlink:href="#SVGID_1_"  style="overflow:visible;"/>
		</clipPath>
		<path class="st1" d="M1402.2,104.8V69.4h-16.5v35.4h-19.8v14.9h19.8v75.6c0,27.2,15.3,37.3,36.6,37.3c9.9,0,15.6-1.9,17.5-2.6
			v-14.4c-1.9,0.9-8.3,2.1-13.5,2.1c-15.8,0-24.1-4.7-24.1-24.6v-73.4h39.9v-14.9H1402.2z M1328.5,243.2h-19.4v16.1h10.4
			c-1.4,9.2-7.3,12.8-15.8,12.8v8.5c15.6,0,24.8-9.2,24.8-25.5V243.2z M1307.8,104.8V69.4h-16.5v35.4h-19.8v14.9h19.8v75.6
			c0,27.2,15.3,37.3,36.6,37.3c9.9,0,15.6-1.9,17.5-2.6v-14.4c-1.9,0.9-8.3,2.1-13.5,2.1c-15.8,0-24.1-4.7-24.1-24.6v-73.4h39.9
			v-14.9H1307.8z M1238.3,87.5c26.9,0,38.3-17.2,38-41.8h-13.5c0,16.8-7.1,27.9-24.6,27.9s-24.6-11.1-24.6-27.9h-13.5
			C1200.1,70.3,1211.4,87.5,1238.3,87.5 M1230.1,229.9h16.5V104.8h-16.5V229.9z M1106.1,84.9l22-26.7l22,26.7h16.3l-30.9-39.2h-14.6
			l-30.9,39.2H1106.1z M1128.1,123.2l28.6,106.7h22l26.9-125.2H1189l-21.7,107.9l-29-107.9h-20.1l-29,107.9l-21.7-107.9h-16.5
			l26.9,125.2h21.7L1128.1,123.2z M944.1,45.7L975,84.9h14.6l30.9-39.2h-16.3l-22,26.9l-22-26.9H944.1z M982.1,116.1
			c23.9,0,35,17.2,35.9,44.4h-71.8C946.9,133.3,958.5,116.1,982.1,116.1 M1034.8,174.2v-9.4c0-34.7-15.8-62.6-52.4-62.6
			c-36.6,0-52.9,27.9-52.9,62.6v5.2c0,34.7,16.3,62.6,54.1,62.6c35.2,0,51.2-22.4,51.2-41.8v-0.9H1019c0,13.5-10.4,28.8-35.4,28.8
			c-25,0-36.6-17-37.3-44.4H1034.8z M801.5,93.7h81.9v34.7h-81.9V93.7z M883.4,45.7v34h-81.9v-34h-17v184.2h17v-86.4h81.9v86.4h17
			V45.7H883.4z"/>
		<path class="st1" d="M698.3,45.7L677,84.9h17l22.2-39.2H698.3z M708.7,102.2c-16.8,0-28.3,8.7-34.9,19.1l-2.4-16.5h-13.7l1.4,35.4
			v89.7h16.5v-92.8c5.2-8.3,14.4-18.9,33.3-18.9h3.3v-15.8C712,102.4,710.3,102.2,708.7,102.2 M589.9,54h-20.8v20.8h20.8V54z
			 M579.3,116.1c23.8,0,34.9,17.2,35.9,44.4h-71.8C544.1,133.3,555.6,116.1,579.3,116.1 M631.9,174.2v-9.4
			c0-34.7-15.8-62.6-52.4-62.6c-36.6,0-52.9,27.9-52.9,62.6v5.2c0,34.7,16.3,62.6,54.1,62.6c35.2,0,51.2-22.4,51.2-41.8v-0.9h-15.8
			c0,13.5-10.4,28.8-35.4,28.8c-25,0-36.6-17-37.3-44.4H631.9z M420.3,136.4c5-8.3,14.6-19.4,31.6-19.4c23.6,0,34.7,18.4,34.7,47.5
			v5.7c0,29-11.1,47.5-34.7,47.5c-17,0-26.7-11.1-31.6-19.4V136.4z M455.8,232.5c34.2,0,47.9-27.6,47.9-62.3v-5.7
			c0-34.7-13.7-62.3-47.9-62.3c-19.1,0-30.7,9-37.3,19.6l-2.4-17h-13.7l1.4,35.4v137h16.5v-61.4
			C426.9,225.2,438.3,232.5,455.8,232.5 M347.8,53.8c0,7.8-3.8,10.2-8.5,10.2c-9.4,0-18.4-12.8-33.1-12.8
			c-11.3,0-19.1,7.6-19.1,24.3h13c0-7.8,3.8-10.2,8.5-10.2c9.4,0,18.4,12.8,33.1,12.8c11.3,0,19.1-7.6,19.1-24.3H347.8z M324,217.7
			c-24.8,0-35.9-18.9-35.9-47.5v-5.7c0-28.6,11.1-47.5,35.9-47.5c24.8,0,35.9,18.9,35.9,47.5v5.7C359.9,198.8,348.8,217.7,324,217.7
			 M324,232.5c36.8,0,52.7-27.6,52.7-62.3v-5.7c0-34.7-15.8-62.3-52.7-62.3c-36.8,0-52.7,27.6-52.7,62.3v5.7
			C271.3,204.9,287.1,232.5,324,232.5 M173.6,84.9l22-26.7l22,26.7h16.3l-30.9-39.2h-14.6l-30.9,39.2H173.6z M195.5,217.7
			c-24.8,0-35.9-18.9-35.9-47.5v-5.7c0-28.6,11.1-47.5,35.9-47.5s35.9,18.9,35.9,47.5v5.7C231.4,198.8,220.3,217.7,195.5,217.7
			 M195.5,232.5c36.8,0,52.7-27.6,52.7-62.3v-5.7c0-34.7-15.8-62.3-52.7-62.3s-52.7,27.6-52.7,62.3v5.7
			C142.9,204.9,158.7,232.5,195.5,232.5 M28.8,5.6l25,26H69l25-26H77.5L61.4,21.4L45.3,5.6H28.8z M16.3,142.6v-9.4
			c0-52.4,14.2-74.6,44.9-74.6h1.7c27.6,0,39.2,16.3,39.2,54.3h17.5v-6.6c0-41.6-18.9-63.1-58.1-63.1c-42.3,0-62.6,26.2-62.6,90v9.4
			c0,63.8,20.3,90,62.6,90c39.2,0,58.1-21.5,58.1-60.2V170H102c0,30.5-11.6,47.2-39.2,47.2h-1.7C30.2,217.2,16.3,195,16.3,142.6"/>
		<path class="st2" d="M1235.2,713.5v-15h-18.4v15h-8v16h8V747c0,15.5,8.5,20.9,21.2,20.9c5,0,8-0.9,8.9-1.4v-15
			c-0.5,0.2-3,0.6-4.6,0.6c-4.2,0-7.1-1.1-7.1-7.1v-15.5h12.7v-16H1235.2z M1191.2,713.5v-15h-18.4v15h-8v16h8V747
			c0,15.5,8.5,20.9,21.2,20.9c5,0,8-0.9,8.9-1.4v-15c-0.5,0.2-3,0.6-4.6,0.6c-4.2,0-7.1-1.1-7.1-7.1v-15.5h12.7v-16H1191.2z
			 M1158.8,688.5h-19v19h19V688.5z M1140.1,766.5h18.4v-53h-18.4V766.5z M1096.3,732.5l6,34h23l8.5-53h-18l-2.5,33l-6-33h-22l-6,33
			l-2.5-33h-18l8.5,53h23L1096.3,732.5z M1030.5,725.9c4.3,0,6.6,2,7.1,7.6h-14.2C1023.9,727.9,1026.2,725.9,1030.5,725.9
			 M1056,746.5v-8c0-15.5-8-26.4-25.1-26.4c-17.1,0-25.9,10.9-25.9,26.4v3c0,15.5,8.4,26.4,26.5,26.4c15.4,0,24.5-7.4,24.5-18v-0.4
			h-17.3c0,2.5-3.1,4.6-7.1,4.6c-4.6,0-7.6-1.6-8.2-7.6H1056z M978.5,688.5v30h-19v-30h-19v78h19v-31.6h19v31.6h19v-78H978.5z
			 M912.1,712.1c-6,0-10.7,2.9-13.9,7.3l-1.1-5.9h-16.6l1,15v38h18.4v-32c1.2-1.5,4.7-3.5,10.7-3.5h3v-18.8
			C913.1,712.1,912.6,712.1,912.1,712.1 M848.5,725.9c4.3,0,6.6,2,7.1,7.6h-14.2C841.9,727.9,844.2,725.9,848.5,725.9 M874,746.5v-8
			c0-15.5-8-26.4-25.1-26.4S823,723,823,738.5v3c0,15.5,8.4,26.4,26.5,26.4c15.4,0,24.5-7.4,24.5-18v-0.4h-17.3
			c0,2.5-3.1,4.6-7.1,4.6c-4.6,0-7.6-1.6-8.2-7.6H874z M785.3,732c1-1.5,3.7-4.1,7.7-4.1c5,0,6.7,3.6,6.7,10.1v4
			c0,6.5-1.7,10.1-6.7,10.1c-4,0-6.7-2.6-7.7-4.1V732z M798.5,767.9c14.5,0,19.5-10.4,19.5-25.9v-4c0-15.5-5-25.9-19.5-25.9
			c-7.2,0-11.9,3.1-14.9,7.6l-1.1-6.2h-16.6l1,15v58h18.4v-24C788.3,765.8,792.5,767.9,798.5,767.9 M734,752.1
			c-5,0-7.2-3.6-7.2-10.1v-4c0-6.5,2.2-10.1,7.2-10.1s7.2,3.6,7.2,10.1v4C741.2,748.5,739,752.1,734,752.1 M734,767.9
			c17.5,0,25.5-10.4,25.5-25.9v-4c0-15.5-8-25.9-25.5-25.9s-25.5,10.4-25.5,25.9v4C708.5,757.5,716.5,767.9,734,767.9 M678,752.1
			c-5,0-7.2-3.6-7.2-10.1v-4c0-6.5,2.2-10.1,7.2-10.1s7.2,3.6,7.2,10.1v4C685.2,748.5,683,752.1,678,752.1 M678,767.9
			c17.5,0,25.5-10.4,25.5-25.9v-4c0-15.5-8-25.9-25.5-25.9s-25.5,10.4-25.5,25.9v4C652.5,757.5,660.5,767.9,678,767.9 M606.6,729.5
			v-4c0-13.5,1.4-22,10.9-22h1c7.5,0,9,6,9,15h19v-3.9c0-20.1-9.9-27.5-29-27.5c-21,0-30.2,11.4-30.2,38.4v4
			c0,27,9.2,38.4,30.2,38.4c19.1,0,29-7.4,29-27.5v-0.9h-19c0,7-2.3,12-9,12h-1C608,751.5,606.6,743,606.6,729.5 M496.3,688.5
			l30.8,30.8H479v16.4h48.1l-30.8,30.8h23.1l39-39l-39-39H496.3z"/>
	</g>
	<g class="st3">
		<path class="st4" d="M120.8,365.8h2c13.4,0,18-10,18-24h38v1.8c0,40.2-19.8,55-58,55c-42,0-60.4-22.8-60.4-76.8v-8
			c0-54,18.4-76.8,60.4-76.8c38.2,0,58,14.8,58,55v7.8h-38c0-18-3-30-18-30h-2c-19,0-21.8,17-21.8,44v8
			C99,348.8,101.8,365.8,120.8,365.8z"/>
		<path class="st4" d="M190.8,346.8v-8c0-31,16-51.8,51-51.8s51,20.8,51,51.8v8c0,31-16,51.8-51,51.8S190.8,377.8,190.8,346.8z
			 M256.2,346.8v-8c0-13-4.4-20.2-14.4-20.2c-10,0-14.4,7.2-14.4,20.2v8c0,13,4.4,20.2,14.4,20.2C251.8,367,256.2,359.8,256.2,346.8
			z"/>
		<path class="st4" d="M302.8,346.8v-8c0-31,16-51.8,51-51.8s51,20.8,51,51.8v8c0,31-16,51.8-51,51.8S302.8,377.8,302.8,346.8z
			 M368.2,346.8v-8c0-13-4.4-20.2-14.4-20.2c-10,0-14.4,7.2-14.4,20.2v8c0,13,4.4,20.2,14.4,20.2C363.8,367,368.2,359.8,368.2,346.8
			z"/>
		<path class="st4" d="M456.4,387.8v48h-36.8v-116l-2-30h33.2l2.2,12.4c6-9,15.4-15.2,29.8-15.2c29,0,39,20.8,39,51.8v8
			c0,31-10,51.8-39,51.8C470.8,398.6,462.4,394.4,456.4,387.8z M456.4,358.8c2,3,7.4,8.2,15.4,8.2c10,0,13.4-7.2,13.4-20.2v-8
			c0-13-3.4-20.2-13.4-20.2c-8,0-13.4,5.2-15.4,8.2V358.8z"/>
		<path class="st4" d="M568.6,355.8c1.2,12,7.2,15.2,16.4,15.2c8,0,14.2-4.2,14.2-9.2h34.6v0.8c0,21.2-18.2,36-49,36
			c-36.2,0-53-21.8-53-52.8v-6c0-31,17.6-52.8,51.8-52.8c34.2,0,50.2,21.8,50.2,52.8v16H568.6z M568.6,329.8H597
			c-1-11.2-5.6-15.2-14.2-15.2C574.2,314.6,569.6,318.6,568.6,329.8z"/>
		<path class="st4" d="M713,287.2v37.6h-6c-12,0-19,4-21.4,7v64h-36.8v-76l-2-30H680l2.2,11.8c6.4-8.8,15.8-14.6,27.8-14.6
			C711,287,712,287,713,287.2z"/>
		<path class="st4" d="M880.8,239.8v156h-38v-63.2h-38v63.2h-38v-156h38v60h38v-60H880.8z"/>
		<path class="st4" d="M932.6,355.8c1.2,12,7.2,15.2,16.4,15.2c8,0,14.2-4.2,14.2-9.2h34.6v0.8c0,21.2-18.2,36-49,36
			c-36.2,0-53-21.8-53-52.8v-6c0-31,17.6-52.8,51.8-52.8c34.2,0,50.2,21.8,50.2,52.8v16H932.6z M932.6,329.8H961
			c-1-11.2-5.6-15.2-14.2-15.2S933.6,318.6,932.6,329.8z"/>
		<path class="st4" d="M1066.4,395.8h-46l-17-106h36l5,66l12-66h44l12,66l5-66h36l-17,106h-46l-12-68L1066.4,395.8z"/>
		<path class="st4" d="M1203.4,277.8h-38v-38h38V277.8z M1166,289.8h36.8v106H1166V289.8z"/>
		<path class="st4" d="M1293.6,289.8v32h-25.4v31c0,12,5.8,14.2,14.2,14.2c3.2,0,8.2-0.8,9.2-1.2v30c-1.8,1-7.8,2.8-17.8,2.8
			c-25.4,0-42.4-10.8-42.4-41.8v-35h-16v-32h16v-30h36.8v30H1293.6z"/>
		<path class="st4" d="M1381.6,289.8v32h-25.4v31c0,12,5.8,14.2,14.2,14.2c3.2,0,8.2-0.8,9.2-1.2v30c-1.8,1-7.8,2.8-17.8,2.8
			c-25.4,0-42.4-10.8-42.4-41.8v-35h-16v-32h16v-30h36.8v30H1381.6z"/>
	</g>
	<g class="st3">
		<path class="st4" d="M120.2,370.4h1.8c15.8,0,21.6-11,21.6-27.8H176v1.8c0,38.4-18.8,54-55.8,54c-40.6,0-58.6-22.6-58.6-76.6v-8
			c0-54,18-76.6,58.6-76.6c37,0,55.8,15.6,55.8,54.6v7.2h-32.4c0-21.4-4.6-33.8-21.6-33.8h-1.8c-20.8,0-25.8,17.4-25.8,48.6v8
			C94.4,353,99.4,370.4,120.2,370.4z"/>
		<path class="st4" d="M189.8,346.4v-7.2c0-30.6,15.6-52,49.6-52c34.2,0,49.6,21.4,49.6,52v7.2c0,30.6-15.4,52-49.6,52
			C205.4,398.4,189.8,377,189.8,346.4z M257.4,346.4v-7.2c0-15.6-5.4-24.8-18-24.8c-12.4,0-18,9.2-18,24.8v7.2
			c0,15.6,5.6,24.8,18,24.8C252,371.2,257.4,362,257.4,346.4z"/>
		<path class="st4" d="M301,346.4v-7.2c0-30.6,15.6-52,49.6-52c34.2,0,49.6,21.4,49.6,52v7.2c0,30.6-15.4,52-49.6,52
			C316.6,398.4,301,377,301,346.4z M368.6,346.4v-7.2c0-15.6-5.4-24.8-18-24.8c-12.4,0-18,9.2-18,24.8v7.2c0,15.6,5.6,24.8,18,24.8
			C363.2,371.2,368.6,362,368.6,346.4z"/>
		<path class="st4" d="M448.4,386.8v49h-31.6v-116l-1.8-30h28.2l2.2,13c6-9,15.4-15.6,30.2-15.6c29,0,39.4,21.4,39.4,52v7.2
			c0,30.6-10.4,52-39.4,52C463,398.4,454.4,393.8,448.4,386.8z M448.4,324.4v36.8c2.6,3.8,8.6,10,18,10c12.2,0,17-9.2,17-24.8v-7.2
			c0-15.6-4.8-24.8-17-24.8C457,314.4,451,320.6,448.4,324.4z"/>
		<path class="st4" d="M558.6,354.2c1.2,14.8,8.2,20.2,20,20.2c11,0,17.8-6.2,17.8-12.6h29.8v0.8c0,20.2-17.2,35.8-47.8,35.8
			c-35.2,0-51.4-22.2-51.4-52.8V340c0-30.6,16.8-52.8,50.2-52.8c33.6,0,49,22.2,49,52.8v14.2H558.6z M558.8,331.4h35.6
			c-1-13.8-6.6-20.2-17.8-20.2S559.8,317.6,558.8,331.4z"/>
		<path class="st4" d="M702.8,287.4v30.4h-5.4c-12.8,0-20,5.2-22.8,9.2v68.8H643v-76l-1.8-30h28.2l2.2,12.4c6.2-8.8,15.8-15,28.2-15
			C700.8,287.2,702,287.2,702.8,287.4z"/>
		<path class="st4" d="M868.6,239.8v156h-32.4v-65.6h-45.4v65.6h-32.4v-156h32.4v62.4h45.4v-62.4H868.6z"/>
		<path class="st4" d="M917.4,354.2c1.2,14.8,8.2,20.2,20,20.2c11,0,17.8-6.2,17.8-12.6H985v0.8c0,20.2-17.2,35.8-47.8,35.8
			c-35.2,0-51.4-22.2-51.4-52.8V340c0-30.6,16.8-52.8,50.2-52.8c33.6,0,49,22.2,49,52.8v14.2H917.4z M917.6,331.4h35.6
			c-1-13.8-6.6-20.2-17.8-20.2C924.2,311.2,918.6,317.6,917.6,331.4z"/>
		<path class="st4" d="M1050.4,395.8h-39.8l-18.2-106h31l8,71.8l14.8-71.8h37.8l15,71.8l8-71.8h31l-18.4,106H1080l-14.8-73
			L1050.4,395.8z"/>
		<path class="st4" d="M1185,274.8h-33.2v-33.4h33.2V274.8z M1152.6,289.8h31.6v106h-31.6V289.8z"/>
		<path class="st4" d="M1273.8,289.8v27.6h-27.2v38.2c0,13,6,15.6,15.6,15.6c3.4,0,8.4-0.8,9.6-1.4v26c-1.8,1-7.4,2.6-17,2.6
			c-23.8,0-39.8-10.2-39.8-39.4v-41.6h-16.2v-27.6h16.2v-30h31.6v30H1273.8z"/>
		<path class="st4" d="M1360,289.8v27.6h-27.2v38.2c0,13,6,15.6,15.6,15.6c3.4,0,8.4-0.8,9.6-1.4v26c-1.8,1-7.4,2.6-17,2.6
			c-23.8,0-39.8-10.2-39.8-39.4v-41.6H1285v-27.6h16.2v-30h31.6v30H1360z"/>
	</g>
	<g class="st3">
		<path class="st4" d="M119.4,375h1.8c18.2,0,25.2-12.2,25.2-31.8h27v2c0,36.8-18,53.2-53.8,53.2c-39,0-57-22.6-57-76.6v-8
			c0-54,18-76.6,57-76.6c35.8,0,53.8,16.4,53.8,54.4v6.8h-27c0-24.8-6.2-37.8-25.2-37.8h-1.8c-22.2,0-29.4,18-29.4,53.2v8
			C90,357,97,375,119.4,375z"/>
		<path class="st4" d="M189,346v-6.4c0-30.4,14.8-52.4,48-52.4c33.2,0,48,22,48,52.4v6.4c0,30.2-14.8,52.4-48,52.4
			C203.8,398.4,189,376.2,189,346z M259,346v-6.4c0-18.4-6.8-29.8-22-29.8s-22,11.4-22,29.8v6.4c0,18.2,6.8,29.6,22,29.6
			S259,364.2,259,346z"/>
		<path class="st4" d="M299.6,346v-6.4c0-30.4,14.8-52.4,48-52.4c33.2,0,48,22,48,52.4v6.4c0,30.2-14.8,52.4-48,52.4
			C314.4,398.4,299.6,376.2,299.6,346z M369.6,346v-6.4c0-18.4-6.8-29.8-22-29.8s-22,11.4-22,29.8v6.4c0,18.2,6.8,29.6,22,29.6
			S369.6,364.2,369.6,346z"/>
		<path class="st4" d="M440.4,386v49.8h-26v-116l-1.6-30h23L438,303c5.8-9,15.4-15.8,30.6-15.8c29,0,39.6,22,39.6,52.4v6.4
			c0,30.2-10.6,52.4-39.6,52.4C455.4,398.4,446.4,393.4,440.4,386z M440.4,363.6c3.2,5,9.8,12,20.8,12c14.8,0,21-11,21-29.6v-6.4
			c0-18.6-6.2-29.8-21-29.8c-11,0-17.6,7.2-20.8,12.2V363.6z"/>
		<path class="st4" d="M548.8,352.4c1,17.4,9,25.8,23.8,25.8c14.2,0,21.6-8.4,21.6-16.4h24.6v0.8c0,19-16,35.8-46.4,35.8
			c-34.2,0-49.6-22.8-49.6-53v-5.2c0-30.2,15.8-53,48.6-53c32.6,0,47.4,22.8,47.4,53v12.2H548.8z M548.8,333.2h43.8
			c-0.8-16.8-7.6-25.8-21.8-25.8C556.8,307.4,549.8,316.4,548.8,333.2z"/>
		<path class="st4" d="M692.8,287.4v25.2h-4.4c-14,0-21.4,6.4-24.6,11.2v72h-26v-76l-1.8-30h23l2.2,12.8c6-8.8,15.6-15.4,28.6-15.4
			C691,287.2,692.2,287.4,692.8,287.4z"/>
		<path class="st4" d="M856.6,239.8v156h-26.8v-68h-53v68H750v-156h26.8v64.8h53v-64.8H856.6z"/>
		<path class="st4" d="M902,352.4c1,17.4,9,25.8,23.8,25.8c14.2,0,21.6-8.4,21.6-16.4H972v0.8c0,19-16,35.8-46.4,35.8
			c-34.2,0-49.6-22.8-49.6-53v-5.2c0-30.2,15.8-53,48.6-53c32.6,0,47.4,22.8,47.4,53v12.2H902z M902,333.2h43.8
			c-0.8-16.8-7.6-25.8-21.8-25.8C910,307.4,903,316.4,902,333.2z"/>
		<path class="st4" d="M1034.2,395.8h-33l-19.6-106h25.4l11.4,78l18-78h31.2l18,78l11.4-78h25.6l-19.8,106h-33l-17.8-78.6
			L1034.2,395.8z"/>
		<path class="st4" d="M1166.2,271.4h-28.4v-28.2h28.4V271.4z M1139,289.8h26v106h-26V289.8z"/>
		<path class="st4" d="M1253.2,289.8v22.8h-29.4v45.8c0,14.2,6.4,17.2,17.2,17.2c3.8,0,9-0.8,10.2-1.4v21.6c-1.6,0.8-7,2.6-16.4,2.6
			c-21.8,0-37-9.8-37-37.2v-48.6h-16.2v-22.8h16.2v-30h26v30H1253.2z"/>
		<path class="st4" d="M1337.4,289.8v22.8H1308v45.8c0,14.2,6.4,17.2,17.2,17.2c3.8,0,9-0.8,10.2-1.4v21.6c-1.6,0.8-7,2.6-16.4,2.6
			c-21.8,0-37-9.8-37-37.2v-48.6h-16.2v-22.8h16.2v-30h26v30H1337.4z"/>
	</g>
	<g class="st3">
		<path class="st4" d="M118.8,379.8h1.4c20.8,0,29.2-13.2,29.2-35.8h21v2c0,35-17,52.2-51.6,52.2c-37.4,0-55-22.4-55-76.4v-8
			c0-54,17.6-76.4,55-76.4c34.6,0,51.6,17.2,51.6,54v6.2h-21c0-28.4-8-41.8-29.2-41.8h-1.4c-24.2,0-33.6,18.4-33.6,58v8
			C85.2,361.4,94.4,379.8,118.8,379.8z"/>
		<path class="st4" d="M188.2,345.6V340c0-29.8,14.2-52.6,46.4-52.6c32.2,0,46.4,22.8,46.4,52.6v5.6c0,29.8-14.2,52.6-46.4,52.6
			C202.4,398.2,188.2,375.4,188.2,345.6z M260.8,345.6V340c0-21.2-8.2-35-26.2-35c-18,0-26.2,13.8-26.2,35v5.6
			c0,21.2,8.2,35,26.2,35C252.6,380.6,260.8,366.8,260.8,345.6z"/>
		<path class="st4" d="M297.8,345.6V340c0-29.8,14.2-52.6,46.4-52.6c32.2,0,46.4,22.8,46.4,52.6v5.6c0,29.8-14.2,52.6-46.4,52.6
			C312,398.2,297.8,375.4,297.8,345.6z M370.4,345.6V340c0-21.2-8.2-35-26.2-35c-18,0-26.2,13.8-26.2,35v5.6c0,21.2,8.2,35,26.2,35
			C362.2,380.6,370.4,366.8,370.4,345.6z"/>
		<path class="st4" d="M431.2,384.6v51.2h-20v-116l-1.4-30h17.4l2,14c5.6-9.2,15.4-16.4,31.2-16.4c29,0,40.2,22.8,40.2,52.6v5.6
			c0,29.8-11.2,52.6-40.2,52.6C446.2,398.2,437,392.4,431.2,384.6z M431.2,366.4c3.8,5.8,11.2,14.2,24,14.2
			c17.4,0,25.2-13.4,25.2-35V340c0-21.6-7.8-35-25.2-35c-12.8,0-20.2,8.4-24,14.2V366.4z"/>
		<path class="st4" d="M537.6,350.4c0.8,20.6,9.6,31.8,27.8,31.8c17.6,0,25.6-10.8,25.6-20.4h19.2v0.8c0,17.8-14.8,35.6-45,35.6
			c-33.2,0-47.8-23.2-47.8-53v-4.8c0-29.8,14.8-53,46.8-53c31.8,0,46,23.2,46,53v10H537.6z M537.6,335.2H590
			c-0.8-20-9-31.8-26.2-31.8S538.2,315.2,537.6,335.2z"/>
		<path class="st4" d="M681,287.6v19.2h-3.6c-15,0-22.6,7.8-26.4,13.6v75.4h-20v-76l-1.4-30h17.2l2,13.6c6-9,15.6-16,29.2-16
			C679.2,287.4,680.6,287.6,681,287.6z"/>
		<path class="st4" d="M842.6,239.8v156h-20.8v-70.4h-61v70.4H740v-156h20.8V307h61v-67.2H842.6z"/>
		<path class="st4" d="M884.6,350.4c0.8,20.6,9.6,31.8,27.8,31.8c17.6,0,25.6-10.8,25.6-20.4h19.2v0.8c0,17.8-14.8,35.6-45,35.6
			c-33.2,0-47.8-23.2-47.8-53v-4.8c0-29.8,14.8-53,46.8-53c31.8,0,46,23.2,46,53v10H884.6z M884.6,335.2H937
			c-0.8-20-9-31.8-26.2-31.8C893.6,303.4,885.2,315.2,884.6,335.2z"/>
		<path class="st4" d="M1015.6,395.8h-25.8l-21.2-106h19.8l14.8,84.6l21.2-84.6h24.2l21.2,84.6l15-84.6h19.8l-21.4,106h-25.6
			l-21-84.4L1015.6,395.8z"/>
		<path class="st4" d="M1144.6,267.8h-22.8V245h22.8V267.8z M1123.2,289.8h20v106h-20V289.8z"/>
		<path class="st4" d="M1230.2,289.8v17.8h-31.6v54c0,15.4,6.6,19,18.6,19c4.2,0,9.4-1,11-1.6v16.8c-1.6,0.8-6.8,2.4-15.6,2.4
			c-20,0-34-9.2-34-34.4v-56.2H1162v-17.8h16.6v-30h20v30H1230.2z"/>
		<path class="st4" d="M1312.4,289.8v17.8h-31.6v54c0,15.4,6.6,19,18.6,19c4.2,0,9.4-1,11-1.6v16.8c-1.6,0.8-6.8,2.4-15.6,2.4
			c-20,0-34-9.2-34-34.4v-56.2h-16.6v-17.8h16.6v-30h20v30H1312.4z"/>
	</g>
	<g class="st3">
		<path class="st4" d="M118,385h1.4c23.4,0,33.2-14.2,33.2-40h14.8v2c0,32.8-16,51-49.2,51c-35.8,0-53-22.2-53-76.2v-8
			c0-54,17.2-76.2,53-76.2c33.2,0,49.2,18.2,49.2,53.4v5.6h-14.8c0-32.2-9.8-46-33.2-46H118c-26,0-38,18.8-38,63.2v8
			C80,366.2,91.8,385,118,385z"/>
		<path class="st4" d="M187.2,345.2v-4.8c0-29.4,13.4-52.8,44.6-52.8c31.2,0,44.6,23.4,44.6,52.8v4.8c0,29.4-13.4,52.8-44.6,52.8
			C200.6,398,187.2,374.6,187.2,345.2z M262.2,345.2v-4.8c0-24.2-9.4-40.2-30.4-40.2c-21,0-30.4,16-30.4,40.2v4.8
			c0,24.2,9.4,40.2,30.4,40.2C252.8,385.4,262.2,369.4,262.2,345.2z"/>
		<path class="st4" d="M296,345.2v-4.8c0-29.4,13.4-52.8,44.6-52.8c31.2,0,44.6,23.4,44.6,52.8v4.8c0,29.4-13.4,52.8-44.6,52.8
			C309.4,398,296,374.6,296,345.2z M371,345.2v-4.8c0-24.2-9.4-40.2-30.4-40.2c-21,0-30.4,16-30.4,40.2v4.8
			c0,24.2,9.4,40.2,30.4,40.2C361.6,385.4,371,369.4,371,345.2z"/>
		<path class="st4" d="M422.2,383.8v52h-14v-116l-1.2-30h11.6l2,14.4c5.6-9,15.4-16.6,31.6-16.6c29,0,40.6,23.4,40.6,52.8v4.8
			c0,29.4-11.6,52.8-40.6,52.8C437.4,398,427.8,391.8,422.2,383.8z M422.2,369c4.2,7,12.4,16.4,26.8,16.4c20,0,29.4-15.6,29.4-40.2
			v-4.8c0-24.6-9.4-40.2-29.4-40.2c-14.4,0-22.6,9.4-26.8,16.4V369z"/>
		<path class="st4" d="M526.4,348.6c0.6,23.2,10.4,37.6,31.6,37.6s30-13,30-24.4h13.4v0.8c0,16.4-13.6,35.4-43.4,35.4
			c-32,0-45.8-23.6-45.8-53v-4.4c0-29.4,13.8-53,44.8-53s44.4,23.6,44.4,53v8H526.4z M526.4,337h60.8c-0.8-23-10.2-37.6-30.4-37.6
			C536.8,299.4,527,314,526.4,337z"/>
		<path class="st4" d="M669.4,287.8v13.4h-2.8c-16,0-23.8,9-28.2,16v78.6h-14v-76l-1.2-30h11.6l2,14c5.6-8.8,15.4-16.2,29.6-16.2
			C667.8,287.6,669.2,287.8,669.4,287.8z"/>
		<path class="st4" d="M828.8,239.8v156h-14.4v-73.2H745v73.2h-14.4v-156H745v70h69.4v-70H828.8z"/>
		<path class="st4" d="M867.6,348.6c0.6,23.2,10.4,37.6,31.6,37.6c21.2,0,30-13,30-24.4h13.4v0.8c0,16.4-13.6,35.4-43.4,35.4
			c-32,0-45.8-23.6-45.8-53v-4.4c0-29.4,13.8-53,44.8-53c31,0,44.4,23.6,44.4,53v8H867.6z M867.6,337h60.8
			c-0.8-23-10.2-37.6-30.4-37.6C878,299.4,868.2,314,867.6,337z"/>
		<path class="st4" d="M997.4,395.8H979l-22.8-106h14l18.4,91.4l24.6-91.4h17l24.6,91.4l18.4-91.4h14l-22.8,106h-18.6l-24.2-90.4
			L997.4,395.8z"/>
		<path class="st4" d="M1124,264.8h-18v-18h18V264.8z M1108,289.8h14v106h-14V289.8z"/>
		<path class="st4" d="M1207.4,289.8v12.6h-33.8v62.2c0,16.8,7,20.8,20.4,20.8c4.4,0,9.8-1,11.4-1.8v12.2c-1.6,0.6-6.4,2.2-14.8,2.2
			c-18,0-31-8.6-31-31.6v-64h-16.8v-12.6h16.8v-30h14v30H1207.4z"/>
		<path class="st4" d="M1287.4,289.8v12.6h-33.8v62.2c0,16.8,7,20.8,20.4,20.8c4.4,0,9.8-1,11.4-1.8v12.2c-1.6,0.6-6.4,2.2-14.8,2.2
			c-18,0-31-8.6-31-31.6v-64h-16.8v-12.6h16.8v-30h14v30H1287.4z"/>
	</g>
	<g class="st3">
		<path class="st4" d="M117.2,390.2h1.2c26.2,0,37.4-15.4,37.4-44.4h8.4v2c0,31-14.8,50-46.8,50c-34,0-51-22-51-76v-8
			c0-54,17-76,51-76c32,0,46.8,19,46.8,53v5h-8.4c0-36-11.6-50.4-37.4-50.4h-1.2c-27.8,0-42.4,19.4-42.4,68.4v8
			C74.8,370.8,89,390.2,117.2,390.2z"/>
		<path class="st4" d="M186.2,344.8v-4c0-29,12.8-53,43-53c30.2,0,43,24,43,53v4c0,29-12.8,53-43,53
			C199,397.8,186.2,373.8,186.2,344.8z M263.8,344.8v-4c0-27-10.8-45.4-34.6-45.4c-23.8,0-34.6,18.4-34.6,45.4v4
			c0,27,10.8,45.4,34.6,45.4C253,390.2,263.8,371.8,263.8,344.8z"/>
		<path class="st4" d="M294.2,344.8v-4c0-29,12.8-53,43-53c30.2,0,43,24,43,53v4c0,29-12.8,53-43,53
			C307,397.8,294.2,373.8,294.2,344.8z M371.8,344.8v-4c0-27-10.8-45.4-34.6-45.4c-23.8,0-34.6,18.4-34.6,45.4v4
			c0,27,10.8,45.4,34.6,45.4C361,390.2,371.8,371.8,371.8,344.8z"/>
		<path class="st4" d="M413.2,382.8v53h-8v-116l-1-30h6l1.8,15c5.4-9,15.2-17,32.2-17c29,0,41,24,41,53v4c0,29-12,53-41,53
			C428.4,397.8,418.6,391,413.2,382.8z M413.2,371.8c5,8,13.8,18.4,30,18.4c22.6,0,33.6-17.8,33.6-45.4v-4c0-27.6-11-45.4-33.6-45.4
			c-16.2,0-25,10.4-30,18.4V371.8z"/>
		<path class="st4" d="M515.6,346.6c0.4,26,11,43.6,35.6,43.6s34-15.4,34-28.4h8v0.8c0,15.2-12.4,35.2-42,35.2c-31,0-44-24-44-53v-4
			c0-29,12.8-53,43-53c30.2,0,43,24,43,53v5.8H515.6z M515.6,339h69.2c-0.6-26-11.4-43.6-34.6-43.6C526.8,295.4,516,313,515.6,339z"
			/>
		<path class="st4" d="M658.2,288v7.4h-2c-17,0-25,10.4-30,18.4v82h-8v-76l-1-30h6l1.8,15c5.4-9,15.2-17,30.2-17
			C656.6,287.8,658.2,288,658.2,288z"/>
		<path class="st4" d="M815.2,239.8v156h-8V320h-78v75.8h-8v-156h8v72.6h78v-72.6H815.2z"/>
		<path class="st4" d="M850.6,346.6c0.4,26,11,43.6,35.6,43.6s34-15.4,34-28.4h8v0.8c0,15.2-12.4,35.2-42,35.2c-31,0-44-24-44-53v-4
			c0-29,12.8-53,43-53s43,24,43,53v5.8H850.6z M850.6,339h69.2c-0.6-26-11.4-43.6-34.6-43.6C861.8,295.4,851,313,850.6,339z"/>
		<path class="st4" d="M979.4,395.8h-11.2l-24.4-106h8.2l22,98l27.8-98h10l27.8,98l22-98h8.2l-24.4,106h-11.2l-27.4-96.2
			L979.4,395.8z"/>
		<path class="st4" d="M1102.8,260.8h-12v-12h12V260.8z M1092.8,289.8h8v106h-8V289.8z"/>
		<path class="st4" d="M1184.8,289.8v7.6h-36v70.4c0,18,7.4,22.4,22,22.4c4.8,0,10.2-1,12-1.8v7.4c-1.4,0.6-6,2-14,2
			c-16,0-28-8-28-29v-71.4h-17v-7.6h17v-30h8v30H1184.8z"/>
		<path class="st4" d="M1262.8,289.8v7.6h-36v70.4c0,18,7.4,22.4,22,22.4c4.8,0,10.2-1,12-1.8v7.4c-1.4,0.6-6,2-14,2
			c-16,0-28-8-28-29v-71.4h-17v-7.6h17v-30h8v30H1262.8z"/>
	</g>
	<g>
		<path class="st4" d="M1011.9,544l19-19h-37.4v-1h37.4l-19-19h1.4l19.5,19.5l-19.5,19.5H1011.9z"/>
		<path class="st4" d="M1078.5,544v-19.3c0-4.8-2-6.6-6.1-6.6s-6.6,2.5-8,4.7V544h-1v-19.3c0-4.8-2-6.6-6-6.6s-6.6,2.5-8,4.7V544h-1
			v-20.5l-0.2-6h0.8l0.3,4.1c1.4-2.1,4-4.4,8.2-4.4c3.7,0,5.9,1.5,6.7,4.6c1.3-2.2,3.9-4.6,8.3-4.6c4.7,0,7,2.5,7,7.3V544H1078.5z"
			/>
		<path class="st4" d="M1085.1,537.2c0-6,4.3-7.1,8.2-7.7l9-1.4v-1.7c0-4.5-1-8.3-7.5-8.3s-7.5,3.8-7.5,8.3h-1v-0.5
			c0-4.5,1.6-8.8,8.5-8.8s8.5,4.3,8.5,8.8V538l0.2,6h-0.8l-0.4-4.2c-1.4,1.9-4.1,4.5-9.9,4.5c-4.2,0-7.4-2.3-7.4-6.5V537.2z
			 M1102.2,538.1v-9l-9.3,1.5c-3.7,0.6-6.8,1.8-6.8,6.6v0.6c0,2.9,2.1,5.5,6.5,5.5C1098.9,543.3,1101.3,539.8,1102.2,538.1z"/>
		<path class="st4" d="M1127.8,521.2V504h1v34l0.2,6h-0.8l-0.3-4c-1.2,1.8-3.9,4.2-8.3,4.2c-6.7,0-10.2-5-10.2-13.1v-1
			c0-8.1,3.5-13.1,10.2-13.1C1123.8,517.2,1126.5,519.5,1127.8,521.2z M1119.6,518.2c-6.1,0-9.2,4.7-9.2,12.1v1
			c0,7.4,3.1,12.1,9.2,12.1c4.3,0,6.8-2.6,8.1-4.7v-15.8C1126.4,520.8,1124,518.2,1119.6,518.2z"/>
		<path class="st4" d="M1136,531.2c0,7,3,12.1,9.8,12.1c6.8,0,9.2-4.2,9.2-7.8h1v0.2c0,3.8-2.9,8.6-10.2,8.6
			c-7.6,0-10.8-5.8-10.8-13.1v-1c0-7.3,3.1-13.1,10.5-13.1s10.5,5.8,10.5,13.1v1H1136z M1136,530.2h19c0-7.1-3-12.1-9.5-12.1
			S1136,523.2,1136,530.2z"/>
		<path class="st4" d="M1174.5,517.5h8.3v1h-8.3V544h-1v-25.5h-4.2v-1h4.2v-7c0-5.4,3.1-6.8,6.6-6.8c1.8,0,3,0.4,3.2,0.5v1
			c-0.4-0.2-1.8-0.5-3-0.5c-3.4,0-5.8,1.1-5.8,6.1V517.5z"/>
		<path class="st4" d="M1187.2,531.2v-1c0-8.1,3.7-13.1,10.4-13.1c6.7,0,10.4,5,10.4,13.1v1c0,8.1-3.7,13.1-10.4,13.1
			C1190.9,544.3,1187.2,539.3,1187.2,531.2z M1207,531.2v-1c0-7.4-3.3-12.1-9.4-12.1c-6.1,0-9.4,4.7-9.4,12.1v1
			c0,7.4,3.3,12.1,9.4,12.1C1203.7,543.3,1207,538.6,1207,531.2z"/>
		<path class="st4" d="M1223.5,517.2v1h-0.5c-4.4,0-6.8,2.6-7.8,4.8V544h-1v-20.5l-0.2-6h0.8l0.4,4.1c1.2-2,3.6-4.4,7.7-4.4
			C1223.2,517.2,1223.5,517.2,1223.5,517.2z"/>
		<path class="st4" d="M1246.8,517.2v1h-0.5c-4.4,0-6.8,2.6-7.8,4.8V544h-1v-20.5l-0.2-6h0.8l0.4,4.1c1.2-2,3.6-4.4,7.7-4.4
			C1246.5,517.2,1246.8,517.2,1246.8,517.2z"/>
		<path class="st4" d="M1251.5,531.2c0,7,3,12.1,9.8,12.1c6.8,0,9.2-4.2,9.2-7.8h1v0.2c0,3.8-2.9,8.6-10.2,8.6
			c-7.6,0-10.8-5.8-10.8-13.1v-1c0-7.3,3.1-13.1,10.5-13.1s10.5,5.8,10.5,13.1v1H1251.5z M1251.5,530.2h19c0-7.1-3-12.1-9.5-12.1
			S1251.5,523.2,1251.5,530.2z"/>
		<path class="st4" d="M1276.8,537.2c0-6,4.3-7.1,8.2-7.7l9-1.4v-1.7c0-4.5-1-8.3-7.5-8.3c-6.5,0-7.5,3.8-7.5,8.3h-1v-0.5
			c0-4.5,1.6-8.8,8.5-8.8s8.5,4.3,8.5,8.8V538l0.2,6h-0.8l-0.4-4.2c-1.4,1.9-4.2,4.5-9.9,4.5c-4.3,0-7.4-2.3-7.4-6.5V537.2z
			 M1294,538.1v-9l-9.4,1.5c-3.7,0.6-6.8,1.8-6.8,6.6v0.6c0,2.9,2.1,5.5,6.5,5.5C1290.6,543.3,1293,539.8,1294,538.1z"/>
		<path class="st4" d="M1319.5,521.2V504h1v34l0.2,6h-0.8l-0.3-4c-1.2,1.8-3.9,4.2-8.3,4.2c-6.7,0-10.2-5-10.2-13.1v-1
			c0-8.1,3.5-13.1,10.2-13.1C1315.6,517.2,1318.2,519.5,1319.5,521.2z M1311.4,518.2c-6.1,0-9.2,4.7-9.2,12.1v1
			c0,7.4,3.1,12.1,9.2,12.1c4.3,0,6.8-2.6,8.1-4.7v-15.8C1318.1,520.8,1315.7,518.2,1311.4,518.2z"/>
		<path class="st4" d="M1329.5,510h-2v-2h2V510z M1328,517.5h1V544h-1V517.5z"/>
		<path class="st4" d="M1353.5,544v-18.8c0-5.2-2.5-7.1-7-7.1c-4.8,0-7.6,2.5-9,4.7V544h-1v-20.5l-0.2-6h0.8l0.4,4.1
			c1.5-2.1,4.3-4.4,9.2-4.4c5.2,0,8,2.5,8,7.8v19H1353.5z"/>
		<path class="st4" d="M1360.2,544.5V544h1c0,5.8,2.2,9.3,8.8,9.3c6.2,0,8.5-3.6,8.5-9.3v-5.8c-1.3,1.8-4,4-8.2,4
			c-6.7,0-10.1-4.5-10.1-12.1v-1c0-7.6,3.4-12.1,10.1-12.1c4.4,0,7.1,2.5,8.3,4.2l0.3-4h0.8l-0.2,6v21.1c0,5.7-2.8,9.8-9.5,9.8
			C1363,554.3,1360.2,550.2,1360.2,544.5z M1378.5,522.8c-1.3-2-3.8-4.7-8.1-4.7c-6.1,0-9.2,4.2-9.2,11.1v1c0,6.9,3.1,11.1,9.2,11.1
			c4.3,0,6.8-2.6,8.1-4.7V522.8z"/>
	</g>
	<g>
		<path class="st4" d="M116.8,238.6c30.2,0,44,15.6,44,53.2v4h-4c0-39.6-12-53.2-39.4-53.2h-1.2c-29.6,0-45.4,19.6-45.4,71.2v8
			c0,51.6,15.8,71.2,45.4,71.2h1.2c25,0,39.4-14,39.4-47.2h4v2.8c0,29-13.2,48.4-44,48.4c-33,0-50-21.2-50-75.2v-8
			C66.8,259.8,83.8,238.6,116.8,238.6z"/>
		<path class="st4" d="M183.4,344.8v-4c0-32.4,14.8-52.2,41.6-52.2c26.8,0,41.6,19.8,41.6,52.2v4c0,32.4-14.8,52.2-41.6,52.2
			C198.2,397,183.4,377.2,183.4,344.8z M262.6,344.8v-4c0-29.6-13.2-48.2-37.6-48.2c-24.4,0-37.6,18.6-37.6,48.2v4
			c0,29.6,13.2,48.2,37.6,48.2C249.4,393,262.6,374.4,262.6,344.8z"/>
		<path class="st4" d="M288.6,344.8v-4c0-32.4,14.8-52.2,41.6-52.2c26.8,0,41.6,19.8,41.6,52.2v4c0,32.4-14.8,52.2-41.6,52.2
			C303.4,397,288.6,377.2,288.6,344.8z M367.8,344.8v-4c0-29.6-13.2-48.2-37.6-48.2c-24.4,0-37.6,18.6-37.6,48.2v4
			c0,29.6,13.2,48.2,37.6,48.2C354.6,393,367.8,374.4,367.8,344.8z"/>
		<path class="st4" d="M400.8,380.8v55h-4v-122l-1-24h3l1.4,15.8c4.8-7,15.6-17,33-17c26.8,0,40.6,19.8,40.6,52.2v4
			c0,32.4-13.8,52.2-40.6,52.2C416.4,397,406,387.8,400.8,380.8z M400.8,374.4c5.4,8.2,15.2,18.6,32.4,18.6
			c24.4,0,36.6-18.6,36.6-48.2v-4c0-29.6-12.2-48.2-36.6-48.2c-17.2,0-27,10.4-32.4,18.6V374.4z"/>
		<path class="st4" d="M499.8,344.8c0,28,11.8,48.2,39,48.2c27.2,0,37-17,37-31.2h4v1c0,15-11.6,34.2-41,34.2c-30.2,0-43-23-43-52.2
			v-4c0-29.2,12.4-52.2,42-52.2s42,23,42,52.2v4H499.8z M499.8,340.8h76c0-28.2-12.2-48.2-38-48.2
			C512,292.6,499.8,312.6,499.8,340.8z"/>
		<path class="st4" d="M641.8,288.8v3.8H640c-17.6,0-27.2,10.2-31.2,19v84.2h-4v-82l-1-24h3l1.4,16.2c4.8-8,14.6-17.4,30.6-17.4
			C640.6,288.6,641.8,288.8,641.8,288.8z"/>
		<path class="st4" d="M792.2,239.8v156h-4v-77.6h-84v77.6h-4v-156h4v74.4h84v-74.4H792.2z"/>
		<path class="st4" d="M823.2,344.8c0,28,11.8,48.2,39,48.2c27.2,0,37-17,37-31.2h4v1c0,15-11.6,34.2-41,34.2c-30.2,0-43-23-43-52.2
			v-4c0-29.2,12.4-52.2,42-52.2s42,23,42,52.2v4H823.2z M823.2,340.8h76c0-28.2-12.2-48.2-38-48.2S823.2,312.6,823.2,340.8z"/>
		<path class="st4" d="M948.4,395.8h-4.8l-25.2-106h4.2l23.6,100.8l30.6-100.8h4l30.6,100.8l23.6-100.8h4.2l-25.2,106h-4.8
			l-30.4-99.6L948.4,395.8z"/>
		<path class="st4" d="M1067.8,259.8h-8v-8h8V259.8z M1061.8,289.8h4v106h-4V289.8z"/>
		<path class="st4" d="M1145.8,289.8v4h-37v75c0,19.8,9.4,24.2,23,24.2c5,0,10.4-1.2,12-2v4c-1,0.4-5.4,2-12.8,2
			c-14,0-26.2-5.4-26.2-27v-76.2h-17v-4h17v-30h4v30H1145.8z"/>
		<path class="st4" d="M1217.8,289.8v4h-37v75c0,19.8,9.4,24.2,23,24.2c5,0,10.4-1.2,12-2v4c-1,0.4-5.4,2-12.8,2
			c-14,0-26.2-5.4-26.2-27v-76.2h-17v-4h17v-30h4v30H1217.8z"/>
	</g>
</g>
</svg>
