<?xml version="1.0" encoding="utf-8"?>
<!-- Generator: Adobe Illustrator 22.1.0, SVG Export Plug-In . SVG Version: 6.00 Build 0)  -->
<svg version="1.1" id="Ebene_1" xmlns="http://www.w3.org/2000/svg" xmlns:xlink="http://www.w3.org/1999/xlink" x="0px" y="0px"
	 viewBox="0 0 375 600" style="enable-background:new 0 0 375 600;" xml:space="preserve">
<style type="text/css">
	.st0{fill:#FFFFFF;}
</style>
<title>hochformat_Text_Ubuntu@3x</title>
<desc>Created with Sketch.</desc>
<g id="hochformat_Text_Ubuntu">
	<path id="Ubuntu" class="st0" d="M55.3,96c-3.5,0-6.5-0.5-9.1-1.5c-2.5-1-4.6-2.4-6.3-4.1c-1.7-1.8-2.9-3.8-3.7-6.3s-1.2-5.1-1.2-8
		v-31h11.2v30.1c0,2,0.2,3.7,0.7,5.1c0.5,1.4,1.1,2.6,1.9,3.5c0.8,0.9,1.8,1.5,2.9,1.9s2.4,0.6,3.7,0.6c2.7,0,5-0.8,6.7-2.5
		s2.6-4.5,2.6-8.6V45.1h11.2v31c0,2.9-0.4,5.6-1.2,8.1c-0.8,2.4-2.1,4.5-3.7,6.3c-1.7,1.8-3.8,3.1-6.4,4.1S58.8,96,55.3,96z
		 M110.2,75.8c0-6.9-2.5-10.4-7.6-10.4c-1.1,0-2.2,0.1-3.3,0.4c-1.1,0.3-2,0.6-2.6,1.1v19.5c0.5,0.1,1.2,0.2,2,0.3
		c0.8,0.1,1.7,0.1,2.7,0.1c2.9,0,5.1-1,6.6-3C109.5,81.8,110.2,79.1,110.2,75.8z M121.2,76.1c0,3-0.4,5.8-1.3,8.2
		c-0.9,2.4-2.2,4.5-3.9,6.3c-1.7,1.7-3.7,3.1-6.2,4s-5.2,1.4-8.4,1.4c-1.3,0-2.7-0.1-4.1-0.2c-1.4-0.1-2.8-0.3-4.2-0.5
		s-2.7-0.4-3.9-0.7c-1.2-0.3-2.4-0.5-3.3-0.8V40.9l10.7-1.7V58c1.2-0.5,2.4-0.9,3.7-1.2c1.3-0.3,2.7-0.4,4.2-0.4
		c2.7,0,5.1,0.5,7.1,1.4s3.8,2.3,5.2,4s2.4,3.8,3.2,6.2C120.8,70.4,121.2,73.1,121.2,76.1z M161.8,93.7c-1.8,0.5-4.2,1-7.1,1.5
		c-2.9,0.5-5.9,0.7-9.1,0.7c-3.2,0-5.9-0.4-8-1.3c-2.1-0.9-3.8-2.1-5.1-3.6s-2.1-3.4-2.7-5.6s-0.8-4.5-0.8-7.1V57.1h10.7v19.8
		c0,3.5,0.5,6,1.4,7.5s2.6,2.3,5.1,2.3c0.8,0,1.6,0,2.4-0.1c0.9-0.1,1.6-0.2,2.3-0.3V57.1h10.7V93.7z M171.8,58.4
		c1.8-0.5,4.2-1,7.1-1.5c2.9-0.5,5.9-0.7,9.1-0.7c3.2,0,5.9,0.4,8,1.3c2.1,0.8,3.8,2,5.1,3.6c1.2,1.5,2.1,3.4,2.7,5.5
		c0.5,2.1,0.8,4.5,0.8,7.1V95h-10.7V74.9c0-3.5-0.5-5.9-1.4-7.3c-0.9-1.4-2.6-2.2-5.1-2.2c-0.8,0-1.6,0-2.4,0.1
		c-0.9,0.1-1.6,0.2-2.3,0.3V95h-10.7V58.4z M213.9,47.7l10.7-1.7v11.2h12.9v8.9h-12.9v13.3c0,2.3,0.4,4.1,1.2,5.4s2.4,2,4.8,2
		c1.2,0,2.3-0.1,3.6-0.3c1.2-0.2,2.3-0.5,3.3-0.9l1.5,8.4c-1.3,0.5-2.7,1-4.3,1.4c-1.6,0.4-3.5,0.6-5.8,0.6c-2.9,0-5.4-0.4-7.3-1.2
		c-1.9-0.8-3.5-1.9-4.6-3.3c-1.2-1.4-2-3.1-2.4-5.1c-0.5-2-0.7-4.2-0.7-6.7V47.7z M278.5,93.7c-1.8,0.5-4.2,1-7.1,1.5
		c-2.9,0.5-5.9,0.7-9.1,0.7c-3.2,0-5.9-0.4-8-1.3s-3.8-2.1-5.1-3.6c-1.2-1.6-2.1-3.4-2.7-5.6c-0.5-2.2-0.8-4.5-0.8-7.1V57.1h10.7
		v19.8c0,3.5,0.5,6,1.4,7.5c0.9,1.5,2.6,2.3,5.1,2.3c0.8,0,1.6,0,2.4-0.1c0.9-0.1,1.6-0.2,2.3-0.3V57.1h10.7V93.7z"/>
	<path id="Sprache-verbindet." class="st0" d="M40.9,162c4.5,0,6.7-1.5,6.7-4.6c0-0.9-0.2-1.7-0.6-2.4c-0.4-0.7-0.9-1.2-1.6-1.7
		c-0.7-0.5-1.4-0.9-2.3-1.3s-1.8-0.7-2.8-1.1c-1.1-0.4-2.2-0.8-3.2-1.3c-1-0.5-1.9-1.1-2.6-1.7s-1.3-1.4-1.7-2.4
		c-0.4-0.9-0.6-2-0.6-3.3c0-2.7,0.9-4.8,2.7-6.2c1.8-1.5,4.3-2.2,7.5-2.2c1.8,0,3.5,0.2,5,0.6c1.5,0.4,2.6,0.8,3.3,1.3l-1.4,3.5
		c-0.6-0.4-1.5-0.8-2.8-1.1s-2.6-0.6-4.2-0.6c-0.8,0-1.6,0.1-2.3,0.3c-0.7,0.2-1.3,0.4-1.8,0.8s-0.9,0.8-1.3,1.3
		c-0.3,0.5-0.5,1.2-0.5,1.9c0,0.8,0.2,1.5,0.5,2.1c0.3,0.6,0.8,1,1.4,1.5c0.6,0.4,1.3,0.8,2,1.2s1.6,0.7,2.6,1.1
		c1.3,0.5,2.5,1.1,3.6,1.6s2.1,1.2,2.9,1.9s1.4,1.6,1.9,2.6s0.7,2.2,0.7,3.7c0,2.7-1,4.7-2.9,6.2c-2,1.4-4.7,2.2-8.2,2.2
		c-1.2,0-2.3-0.1-3.3-0.2s-1.9-0.4-2.7-0.6s-1.5-0.5-2-0.7c-0.6-0.2-1-0.5-1.3-0.6l1.3-3.5c0.7,0.4,1.7,0.8,3.1,1.3
		C37.2,161.7,38.9,162,40.9,162z M72.8,153.6c0-2.7-0.7-4.7-2-6.2s-3.1-2.2-5.3-2.2c-1.2,0-2.2,0-2.9,0.1c-0.7,0.1-1.2,0.2-1.6,0.3
		v14.4c0.5,0.4,1.2,0.8,2.2,1.2c0.9,0.4,2,0.6,3.1,0.6c1.2,0,2.2-0.2,3-0.6c0.8-0.4,1.5-1,2-1.8c0.5-0.7,0.9-1.6,1.1-2.6
		S72.8,154.8,72.8,153.6z M77.1,153.6c0,1.7-0.2,3.3-0.7,4.8c-0.5,1.5-1.1,2.7-2,3.8c-0.9,1.1-2,1.9-3.2,2.5
		c-1.3,0.6-2.7,0.9-4.4,0.9c-1.3,0-2.5-0.2-3.5-0.5s-1.8-0.7-2.3-1v9.2h-4.1v-30.3c1-0.2,2.2-0.5,3.6-0.8s3.1-0.4,5-0.4
		c1.8,0,3.3,0.3,4.8,0.8s2.6,1.3,3.6,2.4s1.8,2.3,2.3,3.8S77.1,151.8,77.1,153.6z M91.3,141.6c0.4,0,0.8,0,1.2,0.1
		c0.5,0,0.9,0.1,1.3,0.2s0.8,0.1,1.2,0.2s0.6,0.1,0.8,0.2l-0.7,3.6c-0.3-0.1-0.9-0.3-1.6-0.4c-0.7-0.2-1.7-0.2-2.9-0.2
		c-0.8,0-1.5,0.1-2.3,0.2c-0.7,0.2-1.2,0.3-1.5,0.3V165h-4.1v-21.9c1-0.4,2.2-0.7,3.6-1C87.9,141.8,89.5,141.6,91.3,141.6z
		 M107.6,162.1c1,0,1.8,0,2.6-0.1c0.7,0,1.4-0.1,1.9-0.2v-6.8c-0.3-0.1-0.8-0.3-1.4-0.4c-0.7-0.1-1.5-0.2-2.4-0.2
		c-0.6,0-1.3,0-2,0.1c-0.7,0.1-1.3,0.3-1.9,0.6c-0.6,0.3-1,0.7-1.4,1.1c-0.4,0.5-0.6,1.1-0.6,1.9c0,1.5,0.5,2.5,1.4,3.1
		C104.7,161.8,106,162.1,107.6,162.1z M107.2,141.5c1.6,0,3,0.2,4.2,0.6c1.1,0.4,2,1,2.7,1.8c0.7,0.8,1.2,1.7,1.5,2.8
		c0.3,1.1,0.4,2.3,0.4,3.5v14.3c-0.4,0.1-0.8,0.1-1.5,0.2c-0.6,0.1-1.3,0.2-2.1,0.3c-0.8,0.1-1.6,0.2-2.6,0.2
		c-0.9,0.1-1.8,0.1-2.8,0.1c-1.3,0-2.5-0.1-3.6-0.4c-1.1-0.3-2-0.7-2.8-1.3s-1.4-1.3-1.8-2.3c-0.4-0.9-0.7-2.1-0.7-3.4
		c0-1.3,0.3-2.3,0.8-3.3c0.5-0.9,1.2-1.6,2.1-2.2s1.9-1,3.1-1.2c1.2-0.3,2.4-0.4,3.7-0.4c0.4,0,0.8,0,1.3,0.1c0.4,0,0.9,0.1,1.3,0.2
		c0.4,0.1,0.7,0.1,1,0.2s0.5,0.1,0.6,0.1v-1.1c0-0.7-0.1-1.3-0.2-2s-0.4-1.2-0.8-1.8c-0.4-0.5-0.9-0.9-1.6-1.2s-1.5-0.5-2.6-0.5
		c-1.3,0-2.5,0.1-3.5,0.3c-1,0.2-1.8,0.4-2.3,0.6l-0.5-3.4c0.5-0.2,1.4-0.5,2.6-0.7C104.4,141.7,105.8,141.5,107.2,141.5z
		 M132.7,165.5c-1.8,0-3.5-0.3-4.9-0.9c-1.4-0.6-2.6-1.4-3.5-2.5c-1-1.1-1.7-2.3-2.1-3.8s-0.7-3.1-0.7-4.8s0.3-3.4,0.8-4.8
		c0.5-1.5,1.2-2.7,2.2-3.8c0.9-1.1,2.1-1.9,3.5-2.5c1.4-0.6,2.9-0.9,4.6-0.9c1,0,2.1,0.1,3.1,0.3c1,0.2,2,0.5,2.9,0.8l-0.9,3.5
		c-0.6-0.3-1.3-0.5-2.1-0.7c-0.8-0.2-1.7-0.3-2.6-0.3c-2.3,0-4,0.7-5.3,2.2c-1.2,1.4-1.8,3.5-1.8,6.3c0,1.2,0.1,2.4,0.4,3.4
		c0.3,1,0.7,1.9,1.3,2.6s1.4,1.3,2.3,1.7c0.9,0.4,2.1,0.6,3.4,0.6c1.1,0,2.1-0.1,2.9-0.3s1.6-0.4,2.1-0.7l0.6,3.4
		c-0.2,0.1-0.6,0.3-1,0.4s-0.9,0.2-1.5,0.4c-0.6,0.1-1.2,0.2-1.8,0.3C133.9,165.5,133.3,165.5,132.7,165.5z M143.3,165v-33.4
		l4.1-0.7v11.7c0.8-0.3,1.6-0.5,2.4-0.7c0.9-0.2,1.7-0.2,2.6-0.2c1.8,0,3.3,0.3,4.5,0.8c1.2,0.5,2.2,1.2,2.9,2.2
		c0.7,0.9,1.2,2,1.5,3.3c0.3,1.3,0.4,2.7,0.4,4.3V165h-4.1v-12c0-1.4-0.1-2.6-0.3-3.6c-0.2-1-0.5-1.8-0.9-2.4
		c-0.4-0.6-1-1.1-1.8-1.3s-1.6-0.4-2.7-0.4c-0.4,0-0.9,0-1.4,0.1c-0.5,0.1-0.9,0.1-1.3,0.2s-0.8,0.2-1.1,0.2
		c-0.3,0.1-0.6,0.2-0.7,0.2v19H143.3z M167.1,153.6c0-2,0.3-3.8,0.9-5.3c0.6-1.5,1.4-2.8,2.3-3.8c1-1,2.1-1.7,3.3-2.2
		c1.3-0.5,2.6-0.7,3.9-0.7c3.1,0,5.4,1,7.1,2.9c1.6,1.9,2.5,4.8,2.5,8.8v0.7c0,0.3,0,0.5,0,0.8h-15.7c0.2,2.4,0.9,4.2,2.1,5.4
		c1.2,1.2,3.1,1.8,5.6,1.8c1.4,0,2.6-0.1,3.6-0.4c1-0.2,1.7-0.5,2.2-0.7l0.6,3.4c-0.5,0.3-1.4,0.5-2.6,0.8s-2.7,0.4-4.2,0.4
		c-2,0-3.7-0.3-5.2-0.9c-1.5-0.6-2.6-1.4-3.6-2.5c-0.9-1.1-1.6-2.3-2.1-3.8C167.3,156.9,167.1,155.3,167.1,153.6z M182.8,151.4
		c0-1.8-0.4-3.4-1.4-4.6s-2.3-1.8-3.9-1.8c-0.9,0-1.8,0.2-2.5,0.6s-1.3,0.8-1.8,1.4c-0.5,0.6-0.9,1.3-1.2,2
		c-0.3,0.8-0.5,1.5-0.5,2.3H182.8z M51.4,191.1c-1.1,4.3-2.5,8.4-4,12.3c-1.5,3.9-3,7.5-4.5,10.6h-3.7c-1.4-3.1-2.9-6.6-4.5-10.6
		c-1.5-3.9-2.9-8-4-12.3h4.4c0.4,1.4,0.8,3,1.3,4.6c0.5,1.6,1,3.2,1.5,4.8c0.5,1.6,1.1,3.1,1.7,4.6c0.6,1.5,1.1,2.8,1.6,4
		c0.5-1.2,1-2.5,1.6-4c0.6-1.5,1.1-3,1.7-4.6c0.5-1.6,1.1-3.2,1.5-4.8c0.5-1.6,0.9-3.2,1.3-4.6H51.4z M53.7,202.6
		c0-2,0.3-3.8,0.9-5.3c0.6-1.5,1.4-2.8,2.3-3.8c1-1,2.1-1.7,3.3-2.2c1.3-0.5,2.6-0.7,3.9-0.7c3.1,0,5.4,1,7.1,2.9
		c1.6,1.9,2.5,4.8,2.5,8.8v0.7c0,0.3,0,0.5,0,0.8H58c0.2,2.4,0.9,4.2,2.1,5.4c1.2,1.2,3.1,1.8,5.6,1.8c1.4,0,2.6-0.1,3.6-0.4
		c1-0.2,1.7-0.5,2.2-0.7l0.6,3.4c-0.5,0.3-1.4,0.5-2.6,0.8s-2.7,0.4-4.2,0.4c-2,0-3.7-0.3-5.2-0.9c-1.5-0.6-2.6-1.4-3.6-2.5
		s-1.6-2.3-2.1-3.8C53.9,205.9,53.7,204.3,53.7,202.6z M69.4,200.4c0-1.8-0.4-3.4-1.4-4.6s-2.3-1.8-3.9-1.8c-0.9,0-1.8,0.2-2.5,0.6
		c-0.7,0.4-1.3,0.8-1.8,1.4c-0.5,0.6-0.9,1.3-1.2,2c-0.3,0.8-0.5,1.5-0.6,2.3H69.4z M88,190.6c0.4,0,0.8,0,1.2,0.1
		c0.5,0,0.9,0.1,1.3,0.2s0.8,0.1,1.2,0.2s0.6,0.1,0.8,0.2l-0.7,3.6c-0.3-0.1-0.9-0.3-1.6-0.4c-0.7-0.2-1.7-0.2-2.9-0.2
		c-0.8,0-1.5,0.1-2.3,0.2s-1.2,0.3-1.5,0.3V214h-4.1v-21.9c1-0.4,2.2-0.7,3.6-1C84.6,190.8,86.2,190.6,88,190.6z M100.7,192.1
		c0.5-0.3,1.3-0.7,2.3-1c1-0.4,2.2-0.5,3.5-0.5c1.6,0,3.1,0.3,4.4,0.9s2.4,1.4,3.2,2.5c0.9,1.1,1.5,2.3,2,3.8s0.7,3.1,0.7,4.8
		c0,1.8-0.3,3.5-0.8,5c-0.5,1.5-1.3,2.7-2.3,3.8s-2.2,1.8-3.6,2.4c-1.4,0.6-3,0.8-4.8,0.8c-1.9,0-3.6-0.1-5.1-0.4
		c-1.5-0.3-2.7-0.5-3.6-0.8v-32.8l4.1-0.7V192.1z M100.7,210.4c0.4,0.1,1,0.2,1.7,0.3c0.7,0.1,1.7,0.2,2.8,0.2c2.2,0,4-0.7,5.3-2.2
		c1.3-1.5,2-3.5,2-6.2c0-1.2-0.1-2.3-0.4-3.3c-0.2-1-0.6-1.9-1.1-2.7c-0.5-0.7-1.2-1.3-2-1.8s-1.8-0.6-3-0.6c-1.1,0-2.1,0.2-3.1,0.6
		c-0.9,0.4-1.7,0.8-2.2,1.2V210.4z M126.6,214h-4.1v-22.9h4.1V214z M124.5,187c-0.7,0-1.4-0.2-1.9-0.7c-0.5-0.5-0.8-1.1-0.8-2
		s0.3-1.5,0.8-2c0.5-0.5,1.1-0.7,1.9-0.7s1.4,0.2,1.9,0.7c0.5,0.5,0.8,1.1,0.8,2s-0.3,1.5-0.8,2C125.9,186.7,125.2,187,124.5,187z
		 M133.6,191.8c0.9-0.2,2.2-0.5,3.7-0.7c1.6-0.3,3.3-0.4,5.4-0.4c1.8,0,3.3,0.3,4.5,0.8c1.2,0.5,2.2,1.2,2.9,2.2
		c0.7,0.9,1.2,2,1.5,3.3c0.3,1.3,0.4,2.7,0.4,4.3V214H148v-12c0-1.4-0.1-2.6-0.3-3.6c-0.2-1-0.5-1.8-0.9-2.4c-0.4-0.6-1-1.1-1.8-1.3
		s-1.6-0.4-2.7-0.4c-0.4,0-0.9,0-1.4,0c-0.5,0-0.9,0.1-1.3,0.1c-0.4,0-0.8,0.1-1.1,0.2c-0.3,0.1-0.6,0.1-0.7,0.1V214h-4.1V191.8z
		 M173.7,196c-0.5-0.4-1.2-0.8-2.2-1.2s-2-0.6-3.1-0.6c-1.2,0-2.2,0.2-3,0.6c-0.8,0.4-1.5,1-2,1.8c-0.5,0.7-0.9,1.6-1.1,2.7
		s-0.4,2.1-0.4,3.3c0,2.7,0.7,4.7,2,6.2c1.3,1.5,3.1,2.2,5.3,2.2c1.1,0,2-0.1,2.8-0.2c0.7-0.1,1.3-0.2,1.7-0.3V196z M173.7,180.6
		l4.1-0.7v33.5c-0.9,0.3-2.1,0.5-3.6,0.8c-1.5,0.3-3.2,0.4-5.1,0.4c-1.8,0-3.3-0.3-4.8-0.8c-1.4-0.6-2.6-1.3-3.6-2.4
		c-1-1-1.8-2.3-2.3-3.8s-0.8-3.1-0.8-5c0-1.8,0.2-3.4,0.7-4.8s1.1-2.7,2-3.8c0.9-1.1,2-1.9,3.2-2.5c1.3-0.6,2.7-0.9,4.4-0.9
		c1.3,0,2.5,0.2,3.5,0.5c1,0.4,1.8,0.7,2.3,1V180.6z M183.5,202.6c0-2,0.3-3.8,0.9-5.3c0.6-1.5,1.4-2.8,2.3-3.8c1-1,2.1-1.7,3.3-2.2
		c1.3-0.5,2.6-0.7,3.9-0.7c3.1,0,5.4,1,7.1,2.9c1.6,1.9,2.5,4.8,2.5,8.8v0.7c0,0.3,0,0.5,0,0.8h-15.7c0.2,2.4,0.9,4.2,2.1,5.4
		c1.2,1.2,3.1,1.8,5.6,1.8c1.4,0,2.6-0.1,3.6-0.4c1-0.2,1.7-0.5,2.2-0.7l0.6,3.4c-0.5,0.3-1.4,0.5-2.6,0.8s-2.7,0.4-4.2,0.4
		c-2,0-3.7-0.3-5.2-0.9c-1.5-0.6-2.6-1.4-3.6-2.5c-0.9-1.1-1.6-2.3-2.1-3.8C183.7,205.9,183.5,204.3,183.5,202.6z M199.2,200.4
		c0-1.8-0.4-3.4-1.4-4.6s-2.3-1.8-3.9-1.8c-0.9,0-1.8,0.2-2.5,0.6s-1.3,0.8-1.8,1.4s-0.9,1.3-1.2,2s-0.5,1.5-0.6,2.3H199.2z
		 M213.2,191.1h8.7v3.4h-8.7v10.6c0,1.1,0.1,2.1,0.3,2.8c0.2,0.7,0.4,1.3,0.8,1.8c0.4,0.4,0.8,0.7,1.3,0.9c0.5,0.2,1.1,0.3,1.8,0.3
		c1.2,0,2.2-0.1,3-0.4c0.7-0.3,1.3-0.5,1.6-0.6l0.8,3.4c-0.4,0.2-1.1,0.5-2.2,0.8s-2.2,0.5-3.5,0.5c-1.6,0-2.8-0.2-3.8-0.6
		c-1-0.4-1.8-1-2.4-1.8c-0.6-0.8-1-1.8-1.3-2.9c-0.2-1.2-0.4-2.5-0.4-4v-20.4l4.1-0.7V191.1z M232.4,211.6c0,0.8-0.3,1.5-0.8,2.1
		s-1.2,0.9-2.2,0.9c-0.9,0-1.6-0.3-2.2-0.9c-0.5-0.6-0.8-1.3-0.8-2.1c0-0.8,0.3-1.5,0.8-2.1c0.5-0.6,1.2-0.9,2.2-0.9
		c0.9,0,1.6,0.3,2.2,0.9S232.4,210.8,232.4,211.6z"/>
	<path id="Unzählige-User_x2C_-jede" class="st0" d="M36.9,271.3c-0.9,0-1.7-0.1-2.4-0.4c-0.7-0.3-1.2-0.7-1.6-1.1
		c-0.4-0.5-0.7-1.1-1-1.7s-0.3-1.4-0.3-2.2v-8.7h1.9v8.5c0,1.4,0.3,2.4,0.9,3c0.6,0.6,1.4,0.9,2.4,0.9c0.5,0,0.9-0.1,1.3-0.2
		c0.4-0.2,0.8-0.4,1-0.7c0.3-0.3,0.5-0.7,0.7-1.2s0.2-1.1,0.2-1.8v-8.5h1.9v8.7c0,0.8-0.1,1.5-0.3,2.2c-0.2,0.7-0.5,1.2-1,1.7
		c-0.4,0.5-1,0.9-1.6,1.1S37.8,271.3,36.9,271.3z M45.4,260.9c0.4-0.1,1-0.2,1.7-0.3c0.7-0.1,1.5-0.2,2.4-0.2c0.8,0,1.5,0.1,2.1,0.4
		s1,0.6,1.3,1c0.3,0.4,0.6,0.9,0.7,1.5c0.1,0.6,0.2,1.2,0.2,1.9v5.8h-1.9v-5.4c0-0.6,0-1.2-0.1-1.6c-0.1-0.5-0.2-0.8-0.4-1.1
		s-0.5-0.5-0.8-0.6c-0.3-0.1-0.7-0.2-1.2-0.2c-0.2,0-0.4,0-0.6,0s-0.4,0-0.6,0c-0.2,0-0.4,0-0.5,0.1c-0.2,0-0.3,0-0.3,0.1v8.8h-1.9
		V260.9z M63.7,262c-0.3,0.3-0.6,0.7-1.1,1.3c-0.5,0.6-1,1.2-1.5,1.9c-0.5,0.7-1.1,1.4-1.6,2.1c-0.5,0.7-1,1.5-1.4,2.1h5.7v1.6H56
		v-1.2c0.3-0.6,0.7-1.2,1.2-1.9c0.5-0.7,1-1.4,1.5-2.1c0.5-0.7,1-1.4,1.5-2c0.5-0.6,0.9-1.1,1.3-1.6h-5.1v-1.6h7.5V262z M69.8,269.7
		c0.4,0,0.8,0,1.2,0c0.3,0,0.6-0.1,0.9-0.1v-3.1c-0.1-0.1-0.3-0.1-0.7-0.2s-0.7-0.1-1.1-0.1c-0.3,0-0.6,0-0.9,0.1
		c-0.3,0-0.6,0.1-0.9,0.2c-0.3,0.1-0.5,0.3-0.6,0.5c-0.2,0.2-0.3,0.5-0.3,0.9c0,0.7,0.2,1.1,0.6,1.4C68.5,269.5,69,269.7,69.8,269.7
		z M69.6,260.3c0.7,0,1.4,0.1,1.9,0.3s0.9,0.5,1.2,0.8s0.5,0.8,0.7,1.3c0.1,0.5,0.2,1,0.2,1.6v6.5c-0.2,0-0.4,0.1-0.7,0.1
		c-0.3,0-0.6,0.1-1,0.1c-0.4,0-0.8,0.1-1.2,0.1c-0.4,0-0.8,0-1.2,0c-0.6,0-1.1-0.1-1.6-0.2c-0.5-0.1-0.9-0.3-1.3-0.6
		c-0.4-0.3-0.6-0.6-0.8-1c-0.2-0.4-0.3-0.9-0.3-1.5c0-0.6,0.1-1.1,0.4-1.5c0.2-0.4,0.5-0.7,0.9-1c0.4-0.3,0.9-0.4,1.4-0.6
		c0.5-0.1,1.1-0.2,1.7-0.2c0.2,0,0.4,0,0.6,0c0.2,0,0.4,0,0.6,0.1c0.2,0,0.3,0.1,0.5,0.1c0.1,0,0.2,0,0.3,0.1v-0.5
		c0-0.3,0-0.6-0.1-0.9c-0.1-0.3-0.2-0.6-0.4-0.8c-0.2-0.2-0.4-0.4-0.7-0.6c-0.3-0.1-0.7-0.2-1.2-0.2c-0.6,0-1.1,0-1.6,0.1
		c-0.5,0.1-0.8,0.2-1,0.3l-0.2-1.5c0.2-0.1,0.6-0.2,1.2-0.3C68.4,260.4,69,260.3,69.6,260.3z M68,258.7c-0.3,0-0.6-0.1-0.8-0.3
		c-0.2-0.2-0.3-0.5-0.3-0.9s0.1-0.6,0.3-0.9c0.2-0.2,0.5-0.3,0.8-0.3c0.3,0,0.6,0.1,0.8,0.3c0.2,0.2,0.3,0.5,0.3,0.9
		s-0.1,0.6-0.3,0.9C68.6,258.6,68.3,258.7,68,258.7z M71.8,258.7c-0.3,0-0.6-0.1-0.8-0.3c-0.2-0.2-0.3-0.5-0.3-0.9s0.1-0.6,0.3-0.9
		c0.2-0.2,0.5-0.3,0.8-0.3s0.6,0.1,0.8,0.3c0.2,0.2,0.4,0.5,0.4,0.9s-0.1,0.6-0.4,0.9C72.4,258.6,72.1,258.7,71.8,258.7z M76.7,271
		v-15.2l1.9-0.3v5.3c0.3-0.1,0.7-0.2,1.1-0.3s0.8-0.1,1.2-0.1c0.8,0,1.5,0.1,2.1,0.4s1,0.6,1.3,1c0.3,0.4,0.6,0.9,0.7,1.5
		c0.1,0.6,0.2,1.2,0.2,1.9v5.8h-1.9v-5.4c0-0.6,0-1.2-0.1-1.6c-0.1-0.5-0.2-0.8-0.4-1.1c-0.2-0.3-0.5-0.5-0.8-0.6
		c-0.3-0.1-0.7-0.2-1.2-0.2c-0.2,0-0.4,0-0.6,0c-0.2,0-0.4,0.1-0.6,0.1c-0.2,0-0.4,0.1-0.5,0.1c-0.2,0-0.3,0.1-0.3,0.1v8.6H76.7z
		 M91.2,271.2c-1.1,0-2-0.3-2.4-0.7c-0.5-0.5-0.7-1.2-0.7-2.2v-12.5l1.9-0.3V268c0,0.3,0,0.6,0.1,0.8c0.1,0.2,0.1,0.4,0.3,0.5
		s0.3,0.2,0.5,0.3c0.2,0.1,0.4,0.1,0.7,0.2L91.2,271.2z M95.4,271h-1.9v-10.4h1.9V271z M94.5,258.7c-0.3,0-0.6-0.1-0.8-0.3
		c-0.2-0.2-0.3-0.5-0.3-0.9s0.1-0.7,0.3-0.9c0.2-0.2,0.5-0.3,0.8-0.3s0.6,0.1,0.8,0.3c0.2,0.2,0.3,0.5,0.3,0.9s-0.1,0.7-0.3,0.9
		C95.1,258.6,94.8,258.7,94.5,258.7z M105.2,270c-0.2,0.1-0.5,0.2-0.9,0.4c-0.5,0.2-1,0.2-1.6,0.2c-0.6,0-1.2-0.1-1.8-0.3
		c-0.6-0.2-1-0.5-1.4-0.9c-0.4-0.4-0.7-0.9-1-1.6c-0.2-0.6-0.4-1.4-0.4-2.2c0-0.8,0.1-1.5,0.3-2.1s0.6-1.2,1-1.6
		c0.4-0.5,1-0.8,1.6-1.1c0.6-0.3,1.3-0.4,2.1-0.4c0.9,0,1.6,0.1,2.3,0.2c0.6,0.1,1.2,0.2,1.6,0.4v9.3c0,1.6-0.4,2.8-1.2,3.5
		c-0.8,0.7-2.1,1.1-3.8,1.1c-0.7,0-1.3-0.1-1.8-0.2s-1.1-0.2-1.5-0.4l0.3-1.6c0.4,0.1,0.8,0.3,1.4,0.4c0.5,0.1,1.1,0.2,1.7,0.2
		c1.1,0,1.9-0.2,2.4-0.7s0.7-1.1,0.7-2.1V270z M105.1,262.2c-0.2-0.1-0.4-0.1-0.8-0.1c-0.3,0-0.7-0.1-1.3-0.1c-1,0-1.8,0.3-2.3,1
		c-0.5,0.7-0.8,1.5-0.8,2.6c0,0.6,0.1,1.1,0.2,1.5c0.2,0.4,0.4,0.8,0.6,1.1s0.6,0.5,0.9,0.6s0.7,0.2,1.1,0.2c0.5,0,0.9-0.1,1.4-0.2
		c0.4-0.1,0.7-0.3,1-0.5V262.2z M109.6,265.8c0-0.9,0.1-1.7,0.4-2.4c0.3-0.7,0.6-1.3,1.1-1.7s0.9-0.8,1.5-1c0.6-0.2,1.2-0.3,1.8-0.3
		c1.4,0,2.5,0.4,3.2,1.3c0.7,0.9,1.1,2.2,1.1,4v0.3c0,0.1,0,0.2,0,0.3h-7.1c0.1,1.1,0.4,1.9,0.9,2.5s1.4,0.8,2.6,0.8
		c0.7,0,1.2-0.1,1.7-0.2c0.4-0.1,0.8-0.2,1-0.3l0.3,1.6c-0.2,0.1-0.6,0.2-1.2,0.4c-0.6,0.1-1.2,0.2-1.9,0.2c-0.9,0-1.7-0.1-2.3-0.4
		c-0.7-0.3-1.2-0.6-1.6-1.1c-0.4-0.5-0.7-1.1-0.9-1.7S109.6,266.6,109.6,265.8z M116.8,264.8c0-0.8-0.2-1.5-0.6-2.1
		c-0.4-0.5-1-0.8-1.8-0.8c-0.4,0-0.8,0.1-1.1,0.2c-0.3,0.2-0.6,0.4-0.8,0.6c-0.2,0.3-0.4,0.6-0.5,0.9c-0.1,0.3-0.2,0.7-0.2,1.1
		H116.8z M131.3,271.3c-0.9,0-1.7-0.1-2.4-0.4s-1.2-0.7-1.6-1.1c-0.4-0.5-0.7-1.1-0.9-1.7c-0.2-0.7-0.3-1.4-0.3-2.2v-8.7h1.9v8.5
		c0,1.4,0.3,2.4,0.9,3c0.6,0.6,1.4,0.9,2.4,0.9c0.5,0,0.9-0.1,1.4-0.2c0.4-0.2,0.8-0.4,1-0.7c0.3-0.3,0.5-0.7,0.7-1.2
		s0.2-1.1,0.2-1.8v-8.5h1.9v8.7c0,0.8-0.1,1.5-0.3,2.2s-0.5,1.2-1,1.7c-0.4,0.5-1,0.9-1.6,1.1S132.2,271.3,131.3,271.3z
		 M142.2,269.7c0.8,0,1.3-0.1,1.7-0.3c0.4-0.2,0.6-0.5,0.6-1c0-0.5-0.2-0.8-0.5-1.1s-1-0.6-1.8-0.9c-0.4-0.2-0.8-0.3-1.2-0.5
		c-0.4-0.2-0.7-0.4-0.9-0.6c-0.3-0.2-0.5-0.5-0.6-0.8c-0.2-0.3-0.2-0.7-0.2-1.2c0-0.9,0.3-1.6,1-2.2s1.6-0.8,2.8-0.8
		c0.3,0,0.6,0,0.9,0.1c0.3,0,0.6,0.1,0.8,0.1c0.3,0,0.5,0.1,0.7,0.1c0.2,0.1,0.3,0.1,0.5,0.1l-0.3,1.6c-0.2-0.1-0.5-0.2-0.9-0.3
		c-0.4-0.1-0.9-0.2-1.5-0.2c-0.5,0-1,0.1-1.4,0.3s-0.6,0.5-0.6,1c0,0.2,0,0.4,0.1,0.6s0.2,0.3,0.4,0.5c0.2,0.1,0.4,0.3,0.7,0.4
		c0.3,0.1,0.6,0.2,1,0.4c0.5,0.2,0.9,0.4,1.3,0.6c0.4,0.2,0.7,0.4,1,0.6c0.3,0.2,0.5,0.5,0.6,0.9s0.2,0.8,0.2,1.2
		c0,1-0.4,1.7-1.1,2.2c-0.7,0.5-1.7,0.7-3.1,0.7c-0.9,0-1.6-0.1-2.2-0.2c-0.5-0.2-0.9-0.3-1.1-0.4l0.3-1.6c0.2,0.1,0.6,0.2,1,0.4
		C140.8,269.6,141.4,269.7,142.2,269.7z M148.1,265.8c0-0.9,0.1-1.7,0.4-2.4s0.6-1.3,1.1-1.7s0.9-0.8,1.5-1c0.6-0.2,1.2-0.3,1.8-0.3
		c1.4,0,2.5,0.4,3.2,1.3c0.7,0.9,1.1,2.2,1.1,4v0.3c0,0.1,0,0.2,0,0.3H150c0.1,1.1,0.4,1.9,0.9,2.5c0.5,0.6,1.4,0.8,2.6,0.8
		c0.7,0,1.2-0.1,1.7-0.2c0.4-0.1,0.8-0.2,1-0.3l0.3,1.6c-0.2,0.1-0.6,0.2-1.2,0.4c-0.6,0.1-1.2,0.2-1.9,0.2c-0.9,0-1.7-0.1-2.3-0.4
		c-0.7-0.3-1.2-0.6-1.6-1.1c-0.4-0.5-0.7-1.1-0.9-1.7S148.1,266.6,148.1,265.8z M155.2,264.8c0-0.8-0.2-1.5-0.6-2.1
		c-0.4-0.5-1-0.8-1.8-0.8c-0.4,0-0.8,0.1-1.1,0.2c-0.3,0.2-0.6,0.4-0.8,0.6s-0.4,0.6-0.5,0.9c-0.1,0.3-0.2,0.7-0.2,1.1H155.2z
		 M163.7,260.4c0.2,0,0.3,0,0.6,0s0.4,0,0.6,0.1c0.2,0,0.4,0.1,0.6,0.1c0.2,0,0.3,0.1,0.4,0.1l-0.3,1.6c-0.1-0.1-0.4-0.1-0.7-0.2
		c-0.3-0.1-0.8-0.1-1.3-0.1c-0.3,0-0.7,0-1,0.1s-0.6,0.1-0.7,0.2v8.7h-1.9v-10c0.4-0.2,1-0.3,1.6-0.5
		C162.2,260.5,162.9,260.4,163.7,260.4z M168.4,268.7c0,0.1,0,0.2,0,0.3v0.3c0,0.8-0.1,1.7-0.4,2.5c-0.2,0.8-0.6,1.6-1,2.4l-1.4-0.5
		c0.3-0.7,0.6-1.4,0.7-2.1c0.1-0.7,0.2-1.4,0.2-2c0-0.2,0-0.3,0-0.5s0-0.3,0-0.5H168.4z M29.9,297.7c-0.2,0-0.4,0-0.6-0.1
		c-0.3,0-0.5-0.1-0.6-0.2l0.2-1.5c0.1,0,0.3,0.1,0.5,0.1s0.3,0,0.5,0c0.6,0,1.1-0.2,1.4-0.6c0.3-0.4,0.4-1,0.4-1.7v-10.2h1.9v10.2
		c0,1.3-0.3,2.3-0.9,3C31.9,297.4,31.1,297.7,29.9,297.7z M32.5,281.7c-0.3,0-0.6-0.1-0.9-0.3c-0.2-0.2-0.4-0.5-0.4-0.9
		s0.1-0.7,0.4-0.9c0.2-0.2,0.5-0.3,0.9-0.3s0.6,0.1,0.8,0.3c0.2,0.2,0.4,0.5,0.4,0.9s-0.1,0.7-0.4,0.9
		C33.1,281.6,32.9,281.7,32.5,281.7z M36.1,288.8c0-0.9,0.1-1.7,0.4-2.4c0.3-0.7,0.6-1.3,1.1-1.7s0.9-0.8,1.5-1
		c0.6-0.2,1.2-0.3,1.8-0.3c1.4,0,2.5,0.4,3.2,1.3c0.7,0.9,1.1,2.2,1.1,4v0.3c0,0.1,0,0.2,0,0.3H38c0.1,1.1,0.4,1.9,0.9,2.5
		s1.4,0.8,2.6,0.8c0.7,0,1.2-0.1,1.6-0.2c0.4-0.1,0.8-0.2,1-0.3l0.3,1.6c-0.2,0.1-0.6,0.2-1.2,0.4s-1.2,0.2-1.9,0.2
		c-0.9,0-1.7-0.1-2.3-0.4c-0.7-0.3-1.2-0.6-1.6-1.1c-0.4-0.5-0.7-1.1-1-1.7S36.1,289.6,36.1,288.8z M43.2,287.8
		c0-0.8-0.2-1.5-0.6-2.1c-0.4-0.5-1-0.8-1.8-0.8c-0.4,0-0.8,0.1-1.1,0.2c-0.3,0.2-0.6,0.4-0.8,0.6s-0.4,0.6-0.5,0.9
		c-0.1,0.3-0.2,0.7-0.2,1.1H43.2z M54.6,285.8c-0.2-0.2-0.6-0.4-1-0.5c-0.4-0.2-0.9-0.3-1.4-0.3c-0.5,0-1,0.1-1.4,0.3
		c-0.4,0.2-0.7,0.5-0.9,0.8s-0.4,0.7-0.5,1.2c-0.1,0.5-0.2,1-0.2,1.5c0,1.2,0.3,2.2,0.9,2.8c0.6,0.7,1.4,1,2.4,1
		c0.5,0,0.9,0,1.3-0.1c0.3,0,0.6-0.1,0.8-0.1V285.8z M54.6,278.8l1.9-0.3v15.2c-0.4,0.1-1,0.2-1.6,0.4c-0.7,0.1-1.4,0.2-2.3,0.2
		c-0.8,0-1.5-0.1-2.2-0.4c-0.6-0.3-1.2-0.6-1.6-1.1s-0.8-1-1-1.7c-0.2-0.7-0.4-1.4-0.4-2.3c0-0.8,0.1-1.5,0.3-2.2
		c0.2-0.7,0.5-1.2,0.9-1.7s0.9-0.9,1.5-1.1s1.2-0.4,2-0.4c0.6,0,1.1,0.1,1.6,0.2s0.8,0.3,1,0.5V278.8z M59,288.8
		c0-0.9,0.1-1.7,0.4-2.4c0.3-0.7,0.6-1.3,1.1-1.7s0.9-0.8,1.5-1c0.6-0.2,1.2-0.3,1.8-0.3c1.4,0,2.5,0.4,3.2,1.3
		c0.7,0.9,1.1,2.2,1.1,4v0.3c0,0.1,0,0.2,0,0.3H61c0.1,1.1,0.4,1.9,0.9,2.5c0.5,0.6,1.4,0.8,2.6,0.8c0.7,0,1.2-0.1,1.6-0.2
		c0.4-0.1,0.8-0.2,1-0.3l0.3,1.6c-0.2,0.1-0.6,0.2-1.2,0.4c-0.6,0.1-1.2,0.2-1.9,0.2c-0.9,0-1.7-0.1-2.3-0.4
		c-0.7-0.3-1.2-0.6-1.6-1.1c-0.4-0.5-0.7-1.1-1-1.7C59.1,290.3,59,289.6,59,288.8z M66.2,287.8c0-0.8-0.2-1.5-0.6-2.1
		c-0.4-0.5-1-0.8-1.8-0.8c-0.4,0-0.8,0.1-1.1,0.2c-0.3,0.2-0.6,0.4-0.8,0.6c-0.2,0.3-0.4,0.6-0.5,0.9c-0.1,0.3-0.2,0.7-0.2,1.1H66.2
		z M74.6,283.4c0.2,0,0.3,0,0.6,0c0.2,0,0.4,0,0.6,0.1c0.2,0,0.4,0.1,0.5,0.1c0.2,0,0.3,0.1,0.4,0.1l-0.3,1.6
		c-0.1-0.1-0.4-0.1-0.7-0.2c-0.3-0.1-0.8-0.1-1.3-0.1c-0.3,0-0.7,0-1,0.1c-0.3,0.1-0.6,0.1-0.7,0.2v8.7h-1.9v-10
		c0.4-0.2,1-0.3,1.6-0.5C73.1,283.5,73.8,283.4,74.6,283.4z M89.5,292.1c-0.1-0.3-0.3-0.7-0.5-1.2c-0.2-0.5-0.5-1-0.7-1.6
		s-0.5-1.2-0.8-1.8c-0.3-0.6-0.6-1.2-0.8-1.7c-0.3-0.5-0.5-1-0.7-1.4s-0.4-0.8-0.5-1c-0.1,1.6-0.3,3.3-0.4,5.1
		c-0.1,1.8-0.2,3.7-0.2,5.5h-1.9c0.1-1.2,0.1-2.4,0.2-3.6s0.1-2.4,0.2-3.6c0.1-1.2,0.2-2.3,0.3-3.4c0.1-1.1,0.2-2.2,0.3-3.2h1.7
		c0.4,0.6,0.7,1.3,1.2,2.1c0.4,0.8,0.8,1.6,1.2,2.5c0.4,0.9,0.8,1.7,1.2,2.6c0.4,0.9,0.7,1.7,1.1,2.4c0.3-0.7,0.7-1.5,1.1-2.4
		c0.4-0.9,0.8-1.7,1.2-2.6c0.4-0.9,0.8-1.7,1.2-2.5c0.4-0.8,0.8-1.5,1.2-2.1h1.7c0.5,4.5,0.8,9.1,1,13.9h-1.9
		c-0.1-1.9-0.1-3.7-0.2-5.5s-0.2-3.5-0.4-5.1c-0.1,0.2-0.3,0.6-0.5,1s-0.5,0.9-0.7,1.4c-0.3,0.5-0.5,1.1-0.8,1.7
		c-0.3,0.6-0.6,1.2-0.8,1.8s-0.5,1.1-0.7,1.6c-0.2,0.5-0.4,0.9-0.5,1.2H89.5z M100,288.8c0-0.9,0.1-1.7,0.4-2.4
		c0.3-0.7,0.6-1.3,1.1-1.7s0.9-0.8,1.5-1c0.6-0.2,1.2-0.3,1.8-0.3c1.4,0,2.5,0.4,3.2,1.3c0.7,0.9,1.1,2.2,1.1,4v0.3
		c0,0.1,0,0.2,0,0.3h-7.1c0.1,1.1,0.4,1.9,0.9,2.5s1.4,0.8,2.6,0.8c0.7,0,1.2-0.1,1.7-0.2c0.4-0.1,0.8-0.2,1-0.3l0.3,1.6
		c-0.2,0.1-0.6,0.2-1.2,0.4c-0.6,0.1-1.2,0.2-1.9,0.2c-0.9,0-1.7-0.1-2.3-0.4c-0.7-0.3-1.2-0.6-1.6-1.1c-0.4-0.5-0.7-1.1-0.9-1.7
		C100.1,290.3,100,289.6,100,288.8z M107.1,287.8c0-0.8-0.2-1.5-0.6-2.1c-0.4-0.5-1-0.8-1.8-0.8c-0.4,0-0.8,0.1-1.1,0.2
		c-0.3,0.2-0.6,0.4-0.8,0.6s-0.4,0.6-0.5,0.9c-0.1,0.3-0.2,0.7-0.2,1.1H107.1z M111.7,283.9c0.4-0.1,1-0.2,1.7-0.3
		c0.7-0.1,1.5-0.2,2.4-0.2c0.8,0,1.5,0.1,2.1,0.4s1,0.6,1.3,1c0.3,0.4,0.6,0.9,0.7,1.5c0.1,0.6,0.2,1.2,0.2,1.9v5.8h-1.9v-5.4
		c0-0.6,0-1.2-0.1-1.6c-0.1-0.5-0.2-0.8-0.4-1.1c-0.2-0.3-0.5-0.5-0.8-0.6c-0.3-0.1-0.7-0.2-1.2-0.2c-0.2,0-0.4,0-0.6,0
		s-0.4,0-0.6,0c-0.2,0-0.4,0-0.5,0.1s-0.3,0-0.3,0.1v8.8h-1.9V283.9z M125.6,292.7c0.8,0,1.3-0.1,1.7-0.3c0.4-0.2,0.5-0.5,0.5-1
		c0-0.5-0.2-0.8-0.5-1.1c-0.4-0.3-1-0.6-1.8-0.9c-0.4-0.2-0.8-0.3-1.1-0.5c-0.4-0.2-0.7-0.4-1-0.6c-0.3-0.2-0.5-0.5-0.6-0.8
		c-0.2-0.3-0.2-0.7-0.2-1.2c0-0.9,0.3-1.6,1-2.2c0.7-0.5,1.6-0.8,2.8-0.8c0.3,0,0.6,0,0.9,0.1c0.3,0,0.6,0.1,0.8,0.1
		c0.3,0,0.5,0.1,0.7,0.1s0.3,0.1,0.4,0.1l-0.3,1.6c-0.2-0.1-0.5-0.2-0.9-0.3c-0.4-0.1-0.9-0.2-1.5-0.2c-0.5,0-1,0.1-1.4,0.3
		c-0.4,0.2-0.6,0.5-0.6,1c0,0.2,0,0.4,0.1,0.6s0.2,0.3,0.4,0.5s0.4,0.3,0.7,0.4c0.3,0.1,0.6,0.2,1,0.4c0.5,0.2,0.9,0.4,1.3,0.6
		c0.4,0.2,0.7,0.4,1,0.6c0.3,0.2,0.5,0.5,0.6,0.9s0.2,0.8,0.2,1.2c0,1-0.4,1.7-1.1,2.2c-0.7,0.5-1.7,0.7-3.1,0.7
		c-0.9,0-1.6-0.1-2.2-0.2c-0.5-0.2-0.9-0.3-1.1-0.4l0.3-1.6c0.2,0.1,0.6,0.2,1,0.4C124.2,292.6,124.9,292.7,125.6,292.7z
		 M136.7,294.2c-0.8,0-1.6-0.1-2.2-0.4c-0.6-0.3-1.2-0.6-1.6-1.1s-0.8-1-1-1.7s-0.3-1.4-0.3-2.2c0-0.8,0.1-1.5,0.4-2.2
		c0.2-0.7,0.6-1.2,1-1.7c0.4-0.5,0.9-0.9,1.6-1.1c0.6-0.3,1.3-0.4,2.1-0.4c0.5,0,0.9,0,1.4,0.1c0.5,0.1,0.9,0.2,1.3,0.4l-0.4,1.6
		c-0.3-0.1-0.6-0.2-1-0.3c-0.4-0.1-0.8-0.1-1.2-0.1c-1,0-1.8,0.3-2.4,1c-0.6,0.7-0.8,1.6-0.8,2.9c0,0.6,0.1,1.1,0.2,1.5
		c0.1,0.5,0.3,0.9,0.6,1.2c0.3,0.3,0.6,0.6,1.1,0.8c0.4,0.2,0.9,0.3,1.6,0.3c0.5,0,0.9,0,1.3-0.1c0.4-0.1,0.7-0.2,0.9-0.3l0.3,1.6
		c-0.1,0.1-0.3,0.1-0.5,0.2c-0.2,0.1-0.4,0.1-0.7,0.2c-0.3,0-0.5,0.1-0.8,0.1S136.9,294.2,136.7,294.2z M141.4,294v-15.2l1.9-0.3
		v5.3c0.3-0.1,0.7-0.2,1.1-0.3c0.4-0.1,0.8-0.1,1.2-0.1c0.8,0,1.5,0.1,2.1,0.4c0.5,0.2,1,0.6,1.3,1c0.3,0.4,0.6,0.9,0.7,1.5
		s0.2,1.2,0.2,1.9v5.8H148v-5.4c0-0.6,0-1.2-0.1-1.6c-0.1-0.5-0.2-0.8-0.4-1.1s-0.5-0.5-0.8-0.6c-0.3-0.1-0.7-0.2-1.2-0.2
		c-0.2,0-0.4,0-0.6,0s-0.4,0.1-0.6,0.1c-0.2,0-0.4,0.1-0.5,0.1c-0.2,0-0.3,0.1-0.3,0.1v8.6H141.4z M156.9,288.8
		c0-0.9,0.1-1.7,0.4-2.4c0.3-0.7,0.6-1.3,1.1-1.7s0.9-0.8,1.5-1c0.6-0.2,1.2-0.3,1.8-0.3c1.4,0,2.5,0.4,3.2,1.3
		c0.7,0.9,1.1,2.2,1.1,4v0.3c0,0.1,0,0.2,0,0.3h-7.1c0.1,1.1,0.4,1.9,0.9,2.5c0.5,0.6,1.4,0.8,2.6,0.8c0.7,0,1.2-0.1,1.7-0.2
		c0.4-0.1,0.8-0.2,1-0.3l0.3,1.6c-0.2,0.1-0.6,0.2-1.2,0.4c-0.6,0.1-1.2,0.2-1.9,0.2c-0.9,0-1.7-0.1-2.4-0.4
		c-0.7-0.3-1.2-0.6-1.6-1.1c-0.4-0.5-0.7-1.1-0.9-1.7C157,290.3,156.9,289.6,156.9,288.8z M164,287.8c0-0.8-0.2-1.5-0.6-2.1
		c-0.4-0.5-1-0.8-1.8-0.8c-0.4,0-0.8,0.1-1.1,0.2c-0.3,0.2-0.6,0.4-0.8,0.6s-0.4,0.6-0.5,0.9c-0.1,0.3-0.2,0.7-0.2,1.1H164z
		 M170.5,294h-1.9v-10.4h1.9V294z M169.6,281.7c-0.3,0-0.6-0.1-0.9-0.3c-0.2-0.2-0.3-0.5-0.3-0.9s0.1-0.7,0.3-0.9
		c0.2-0.2,0.5-0.3,0.9-0.3c0.3,0,0.6,0.1,0.8,0.3c0.2,0.2,0.4,0.5,0.4,0.9s-0.1,0.7-0.4,0.9C170.2,281.6,169.9,281.7,169.6,281.7z
		 M173.7,283.9c0.4-0.1,1-0.2,1.7-0.3s1.5-0.2,2.4-0.2c0.8,0,1.5,0.1,2.1,0.4c0.5,0.2,1,0.6,1.3,1c0.3,0.4,0.6,0.9,0.7,1.5
		s0.2,1.2,0.2,1.9v5.8h-1.9v-5.4c0-0.6,0-1.2-0.1-1.6c-0.1-0.5-0.2-0.8-0.4-1.1s-0.5-0.5-0.8-0.6c-0.3-0.1-0.7-0.2-1.2-0.2
		c-0.2,0-0.4,0-0.6,0s-0.4,0-0.6,0c-0.2,0-0.4,0-0.5,0.1s-0.3,0-0.3,0.1v8.8h-1.9V283.9z M189.9,280.1h1.9V294h-1.9V280.1z
		 M195.2,283.9c0.4-0.1,1-0.2,1.7-0.3c0.7-0.1,1.5-0.2,2.4-0.2c0.8,0,1.5,0.1,2.1,0.4c0.5,0.2,1,0.6,1.3,1c0.3,0.4,0.6,0.9,0.7,1.5
		c0.1,0.6,0.2,1.2,0.2,1.9v5.8h-1.9v-5.4c0-0.6,0-1.2-0.1-1.6c-0.1-0.5-0.2-0.8-0.4-1.1c-0.2-0.3-0.5-0.5-0.8-0.6
		c-0.3-0.1-0.7-0.2-1.2-0.2c-0.2,0-0.4,0-0.6,0s-0.4,0-0.6,0c-0.2,0-0.4,0-0.5,0.1s-0.3,0-0.3,0.1v8.8h-1.9V283.9z M213.4,285.8
		c-0.2-0.2-0.6-0.4-1-0.5c-0.4-0.2-0.9-0.3-1.4-0.3c-0.5,0-1,0.1-1.4,0.3c-0.4,0.2-0.7,0.5-0.9,0.8s-0.4,0.7-0.5,1.2
		c-0.1,0.5-0.2,1-0.2,1.5c0,1.2,0.3,2.2,0.9,2.8c0.6,0.7,1.4,1,2.4,1c0.5,0,0.9,0,1.3-0.1s0.6-0.1,0.8-0.1V285.8z M213.4,278.8
		l1.9-0.3v15.2c-0.4,0.1-1,0.2-1.6,0.4s-1.4,0.2-2.3,0.2c-0.8,0-1.5-0.1-2.2-0.4c-0.6-0.3-1.2-0.6-1.6-1.1s-0.8-1-1.1-1.7
		s-0.4-1.4-0.4-2.3c0-0.8,0.1-1.5,0.3-2.2c0.2-0.7,0.5-1.2,0.9-1.7c0.4-0.5,0.9-0.9,1.5-1.1c0.6-0.3,1.2-0.4,2-0.4
		c0.6,0,1.1,0.1,1.6,0.2c0.5,0.2,0.8,0.3,1,0.5V278.8z M220.3,294h-1.9v-10.4h1.9V294z M219.4,281.7c-0.3,0-0.6-0.1-0.9-0.3
		s-0.4-0.5-0.4-0.9s0.1-0.7,0.4-0.9s0.5-0.3,0.9-0.3c0.3,0,0.6,0.1,0.8,0.3c0.2,0.2,0.4,0.5,0.4,0.9s-0.1,0.7-0.4,0.9
		C220,281.6,219.7,281.7,219.4,281.7z M231.6,283.6c-0.5,1.9-1.1,3.8-1.8,5.6c-0.7,1.8-1.4,3.4-2,4.8h-1.7c-0.7-1.4-1.3-3-2-4.8
		c-0.7-1.8-1.3-3.7-1.8-5.6h2c0.2,0.7,0.3,1.3,0.6,2.1c0.2,0.7,0.5,1.5,0.7,2.2c0.2,0.7,0.5,1.4,0.8,2.1c0.3,0.7,0.5,1.3,0.7,1.8
		c0.2-0.5,0.5-1.1,0.7-1.8c0.3-0.7,0.5-1.4,0.8-2.1c0.2-0.7,0.5-1.5,0.7-2.2c0.2-0.7,0.4-1.4,0.6-2.1H231.6z M235.4,294h-1.9v-10.4
		h1.9V294z M234.5,281.7c-0.3,0-0.6-0.1-0.8-0.3s-0.4-0.5-0.4-0.9s0.1-0.7,0.4-0.9s0.5-0.3,0.8-0.3c0.3,0,0.6,0.1,0.9,0.3
		s0.3,0.5,0.3,0.9s-0.1,0.7-0.3,0.9S234.8,281.7,234.5,281.7z M245.3,285.8c-0.2-0.2-0.6-0.4-1-0.5c-0.4-0.2-0.9-0.3-1.4-0.3
		c-0.5,0-1,0.1-1.4,0.3s-0.7,0.5-0.9,0.8c-0.2,0.3-0.4,0.7-0.5,1.2c-0.1,0.5-0.2,1-0.2,1.5c0,1.2,0.3,2.2,0.9,2.8
		c0.6,0.7,1.4,1,2.4,1c0.5,0,0.9,0,1.3-0.1c0.3,0,0.6-0.1,0.8-0.1V285.8z M245.3,278.8l1.9-0.3v15.2c-0.4,0.1-1,0.2-1.6,0.4
		s-1.4,0.2-2.3,0.2c-0.8,0-1.5-0.1-2.2-0.4c-0.6-0.3-1.2-0.6-1.6-1.1c-0.5-0.5-0.8-1-1.1-1.7c-0.2-0.7-0.4-1.4-0.4-2.3
		c0-0.8,0.1-1.5,0.3-2.2c0.2-0.7,0.5-1.2,0.9-1.7c0.4-0.5,0.9-0.9,1.5-1.1s1.2-0.4,2-0.4c0.6,0,1.1,0.1,1.6,0.2s0.8,0.3,1,0.5V278.8
		z M258.7,293.7c-0.4,0.1-1,0.2-1.7,0.3c-0.7,0.1-1.5,0.2-2.4,0.2c-0.8,0-1.5-0.1-2-0.4c-0.5-0.2-1-0.6-1.3-1
		c-0.3-0.4-0.6-0.9-0.7-1.5c-0.1-0.6-0.2-1.2-0.2-1.9v-5.8h1.9v5.4c0,1.3,0.2,2.2,0.6,2.7c0.4,0.5,1.1,0.8,2,0.8c0.2,0,0.4,0,0.6,0
		s0.4,0,0.6,0c0.2,0,0.4,0,0.5-0.1c0.2,0,0.3,0,0.3-0.1v-8.8h1.9V293.7z M270.2,293.7c-0.4,0.1-1,0.2-1.7,0.3s-1.5,0.2-2.4,0.2
		c-0.8,0-1.5-0.1-2-0.4c-0.5-0.2-1-0.6-1.3-1c-0.3-0.4-0.6-0.9-0.7-1.5c-0.1-0.6-0.2-1.2-0.2-1.9v-5.8h1.9v5.4
		c0,1.3,0.2,2.2,0.6,2.7c0.4,0.5,1.1,0.8,2,0.8c0.2,0,0.4,0,0.6,0c0.2,0,0.4,0,0.6,0c0.2,0,0.4,0,0.5-0.1c0.2,0,0.3,0,0.3-0.1v-8.8
		h1.9V293.7z M273.4,283.9c0.4-0.1,1-0.2,1.7-0.3c0.7-0.1,1.5-0.2,2.4-0.2c0.7,0,1.2,0.1,1.7,0.3s0.8,0.4,1.1,0.8
		c0.1-0.1,0.2-0.2,0.4-0.3c0.2-0.1,0.4-0.2,0.7-0.4s0.6-0.2,1-0.3c0.4-0.1,0.7-0.1,1.2-0.1c0.8,0,1.5,0.1,2,0.4
		c0.5,0.2,0.9,0.6,1.2,1c0.3,0.4,0.5,0.9,0.6,1.5s0.1,1.2,0.1,1.9v5.8h-1.9v-5.4c0-0.6,0-1.1-0.1-1.6s-0.2-0.8-0.3-1.1
		c-0.2-0.3-0.4-0.5-0.7-0.6c-0.3-0.1-0.7-0.2-1.1-0.2c-0.6,0-1.1,0.1-1.6,0.2c-0.4,0.2-0.7,0.3-0.8,0.5c0.1,0.3,0.2,0.7,0.2,1.1
		c0.1,0.4,0.1,0.8,0.1,1.3v5.8h-1.9v-5.4c0-0.6,0-1.1-0.1-1.6c-0.1-0.4-0.2-0.8-0.4-1.1c-0.2-0.3-0.4-0.5-0.7-0.6
		c-0.3-0.1-0.6-0.2-1.1-0.2c-0.2,0-0.4,0-0.6,0c-0.2,0-0.4,0-0.6,0s-0.4,0-0.5,0.1s-0.3,0-0.3,0.1v8.8h-1.9V283.9z M39.9,316.7
		c-0.4,0.1-1,0.2-1.7,0.3c-0.7,0.1-1.5,0.2-2.4,0.2c-0.8,0-1.5-0.1-2-0.4c-0.5-0.2-1-0.6-1.3-1c-0.3-0.4-0.6-0.9-0.7-1.5
		c-0.1-0.6-0.2-1.2-0.2-1.9v-5.8h1.9v5.4c0,1.3,0.2,2.2,0.6,2.7c0.4,0.5,1.1,0.8,2,0.8c0.2,0,0.4,0,0.6,0c0.2,0,0.4,0,0.6,0
		c0.2,0,0.4,0,0.5-0.1c0.2,0,0.3,0,0.3-0.1v-8.8h1.9V316.7z M43.1,306.9c0.4-0.1,1-0.2,1.7-0.3c0.7-0.1,1.5-0.2,2.4-0.2
		c0.8,0,1.5,0.1,2.1,0.4s1,0.6,1.3,1c0.3,0.4,0.6,0.9,0.7,1.5c0.1,0.6,0.2,1.2,0.2,1.9v5.8h-1.9v-5.4c0-0.6,0-1.2-0.1-1.6
		c-0.1-0.5-0.2-0.8-0.4-1.1s-0.5-0.5-0.8-0.6c-0.3-0.1-0.7-0.2-1.2-0.2c-0.2,0-0.4,0-0.6,0c-0.2,0-0.4,0-0.6,0c-0.2,0-0.4,0-0.5,0.1
		c-0.2,0-0.3,0-0.3,0.1v8.8h-1.9V306.9z M61.3,308.8c-0.2-0.2-0.6-0.4-1-0.5c-0.4-0.2-0.9-0.3-1.4-0.3c-0.5,0-1,0.1-1.4,0.3
		c-0.4,0.2-0.7,0.5-0.9,0.8c-0.2,0.3-0.4,0.7-0.5,1.2c-0.1,0.5-0.2,1-0.2,1.5c0,1.2,0.3,2.2,0.9,2.8c0.6,0.7,1.4,1,2.4,1
		c0.5,0,0.9,0,1.3-0.1c0.3,0,0.6-0.1,0.8-0.1V308.8z M61.3,301.8l1.9-0.3v15.2c-0.4,0.1-1,0.2-1.6,0.4s-1.4,0.2-2.3,0.2
		c-0.8,0-1.5-0.1-2.2-0.4c-0.6-0.3-1.2-0.6-1.6-1.1c-0.5-0.5-0.8-1-1.1-1.7c-0.2-0.7-0.4-1.4-0.4-2.3c0-0.8,0.1-1.5,0.3-2.2
		c0.2-0.7,0.5-1.2,0.9-1.7s0.9-0.9,1.5-1.1c0.6-0.3,1.2-0.4,2-0.4c0.6,0,1.1,0.1,1.6,0.2s0.8,0.3,1,0.5V301.8z M71,306.9
		c0.4-0.1,1-0.2,1.7-0.3c0.7-0.1,1.5-0.2,2.4-0.2c0.8,0,1.5,0.1,2.1,0.4c0.5,0.2,1,0.6,1.3,1c0.3,0.4,0.6,0.9,0.7,1.5
		c0.1,0.6,0.2,1.2,0.2,1.9v5.8h-1.9v-5.4c0-0.6,0-1.2-0.1-1.6c-0.1-0.5-0.2-0.8-0.4-1.1c-0.2-0.3-0.5-0.5-0.8-0.6
		c-0.3-0.1-0.7-0.2-1.2-0.2c-0.2,0-0.4,0-0.6,0s-0.4,0-0.6,0c-0.2,0-0.4,0-0.5,0.1s-0.3,0-0.3,0.1v8.8H71V306.9z M90.7,316.7
		c-0.4,0.1-1,0.2-1.7,0.3s-1.5,0.2-2.4,0.2c-0.8,0-1.5-0.1-2-0.4s-1-0.6-1.3-1s-0.6-0.9-0.7-1.5c-0.1-0.6-0.2-1.2-0.2-1.9v-5.8h1.9
		v5.4c0,1.3,0.2,2.2,0.6,2.7c0.4,0.5,1.1,0.8,2,0.8c0.2,0,0.4,0,0.6,0s0.4,0,0.6,0c0.2,0,0.4,0,0.5-0.1c0.2,0,0.3,0,0.3-0.1v-8.8
		h1.9V316.7z M97.8,306.4c0.2,0,0.3,0,0.5,0c0.2,0,0.4,0,0.6,0.1c0.2,0,0.4,0.1,0.6,0.1c0.2,0,0.3,0.1,0.4,0.1l-0.3,1.6
		c-0.1-0.1-0.4-0.1-0.7-0.2S98,308,97.5,308c-0.3,0-0.7,0-1,0.1c-0.3,0.1-0.6,0.1-0.7,0.2v8.7h-1.9v-10c0.4-0.2,1-0.3,1.6-0.5
		C96.2,306.5,96.9,306.4,97.8,306.4z M105.7,311.8c0-0.9,0.1-1.7,0.4-2.4c0.3-0.7,0.6-1.3,1.1-1.7s0.9-0.8,1.5-1
		c0.6-0.2,1.2-0.3,1.8-0.3c1.4,0,2.5,0.4,3.2,1.3c0.7,0.9,1.1,2.2,1.1,4v0.3c0,0.1,0,0.2,0,0.3h-7.1c0.1,1.1,0.4,1.9,0.9,2.5
		s1.4,0.8,2.6,0.8c0.7,0,1.2-0.1,1.6-0.2c0.4-0.1,0.8-0.2,1-0.3l0.3,1.6c-0.2,0.1-0.6,0.2-1.2,0.4c-0.6,0.1-1.2,0.2-1.9,0.2
		c-0.9,0-1.7-0.1-2.3-0.4c-0.7-0.3-1.2-0.6-1.6-1.1c-0.4-0.5-0.7-1.1-1-1.7C105.8,313.3,105.7,312.6,105.7,311.8z M112.8,310.8
		c0-0.8-0.2-1.5-0.6-2.1c-0.4-0.5-1-0.8-1.8-0.8c-0.4,0-0.8,0.1-1.1,0.2c-0.3,0.2-0.6,0.4-0.8,0.6s-0.4,0.6-0.5,0.9
		c-0.1,0.3-0.2,0.7-0.2,1.1H112.8z M119.3,317h-1.9v-10.4h1.9V317z M118.4,304.7c-0.3,0-0.6-0.1-0.8-0.3c-0.2-0.2-0.3-0.5-0.3-0.9
		s0.1-0.7,0.3-0.9c0.2-0.2,0.5-0.3,0.8-0.3s0.6,0.1,0.8,0.3s0.3,0.5,0.3,0.9s-0.1,0.7-0.3,0.9S118.7,304.7,118.4,304.7z
		 M122.5,306.9c0.4-0.1,1-0.2,1.7-0.3c0.7-0.1,1.5-0.2,2.4-0.2c0.8,0,1.5,0.1,2.1,0.4c0.5,0.2,1,0.6,1.3,1c0.3,0.4,0.6,0.9,0.7,1.5
		s0.2,1.2,0.2,1.9v5.8H129v-5.4c0-0.6,0-1.2-0.1-1.6c-0.1-0.5-0.2-0.8-0.4-1.1c-0.2-0.3-0.5-0.5-0.8-0.6c-0.3-0.1-0.7-0.2-1.2-0.2
		c-0.2,0-0.4,0-0.6,0s-0.4,0-0.6,0s-0.4,0-0.5,0.1c-0.2,0-0.3,0-0.3,0.1v8.8h-1.9V306.9z M133.4,311.8c0-0.9,0.1-1.7,0.4-2.4
		c0.3-0.7,0.6-1.3,1.1-1.7s0.9-0.8,1.5-1c0.6-0.2,1.2-0.3,1.8-0.3c1.4,0,2.5,0.4,3.2,1.3c0.7,0.9,1.1,2.2,1.1,4v0.3
		c0,0.1,0,0.2,0,0.3h-7.1c0.1,1.1,0.4,1.9,0.9,2.5c0.5,0.6,1.4,0.8,2.6,0.8c0.7,0,1.2-0.1,1.7-0.2c0.4-0.1,0.8-0.2,1-0.3l0.3,1.6
		c-0.2,0.1-0.6,0.2-1.2,0.4c-0.6,0.1-1.2,0.2-1.9,0.2c-0.9,0-1.7-0.1-2.4-0.4c-0.7-0.3-1.2-0.6-1.6-1.1c-0.4-0.5-0.7-1.1-0.9-1.7
		C133.5,313.3,133.4,312.6,133.4,311.8z M140.5,310.8c0-0.8-0.2-1.5-0.6-2.1c-0.4-0.5-1-0.8-1.8-0.8c-0.4,0-0.8,0.1-1.1,0.2
		c-0.3,0.2-0.6,0.4-0.8,0.6s-0.4,0.6-0.5,0.9c-0.1,0.3-0.2,0.7-0.2,1.1H140.5z M153.1,315.6c2,0,3-0.7,3-2.1c0-0.4-0.1-0.8-0.3-1.1
		c-0.2-0.3-0.4-0.6-0.7-0.8s-0.7-0.4-1.1-0.6s-0.8-0.3-1.2-0.5c-0.5-0.2-1-0.4-1.4-0.6s-0.8-0.5-1.2-0.8c-0.3-0.3-0.6-0.7-0.8-1.1
		c-0.2-0.4-0.3-0.9-0.3-1.5c0-1.2,0.4-2.2,1.2-2.8c0.8-0.7,2-1,3.4-1c0.8,0,1.6,0.1,2.3,0.3s1.2,0.4,1.5,0.6l-0.6,1.6
		c-0.3-0.2-0.7-0.3-1.2-0.5s-1.2-0.2-1.9-0.2c-0.4,0-0.7,0-1,0.1c-0.3,0.1-0.6,0.2-0.8,0.4s-0.4,0.4-0.6,0.6s-0.2,0.5-0.2,0.9
		c0,0.4,0.1,0.7,0.2,0.9s0.4,0.5,0.6,0.7s0.6,0.4,0.9,0.5c0.4,0.2,0.7,0.3,1.2,0.5c0.6,0.2,1.1,0.5,1.6,0.7c0.5,0.2,0.9,0.5,1.3,0.9
		s0.6,0.7,0.8,1.2c0.2,0.5,0.3,1,0.3,1.7c0,1.2-0.4,2.1-1.3,2.8c-0.9,0.7-2.1,1-3.8,1c-0.5,0-1,0-1.5-0.1s-0.9-0.2-1.2-0.3
		s-0.7-0.2-0.9-0.3c-0.3-0.1-0.5-0.2-0.6-0.3l0.6-1.6c0.3,0.2,0.8,0.4,1.4,0.6C151.4,315.5,152.2,315.6,153.1,315.6z M167.6,311.8
		c0-1.2-0.3-2.1-0.9-2.8c-0.6-0.7-1.4-1-2.4-1c-0.6,0-1,0-1.3,0.1s-0.6,0.1-0.8,0.1v6.6c0.2,0.2,0.6,0.4,1,0.5
		c0.4,0.2,0.9,0.3,1.4,0.3c0.5,0,1-0.1,1.4-0.3s0.7-0.5,0.9-0.8c0.2-0.3,0.4-0.7,0.5-1.2C167.6,312.9,167.6,312.4,167.6,311.8z
		 M169.6,311.8c0,0.8-0.1,1.5-0.3,2.2s-0.5,1.2-0.9,1.7c-0.4,0.5-0.9,0.9-1.5,1.1s-1.2,0.4-2,0.4c-0.6,0-1.1-0.1-1.6-0.2
		s-0.8-0.3-1-0.5v4.2h-1.9v-13.8c0.4-0.1,1-0.2,1.7-0.4c0.7-0.1,1.4-0.2,2.3-0.2c0.8,0,1.5,0.1,2.2,0.4c0.6,0.3,1.2,0.6,1.6,1.1
		s0.8,1,1.1,1.7C169.5,310.2,169.6,311,169.6,311.8z M176,306.4c0.2,0,0.3,0,0.6,0s0.4,0,0.6,0.1c0.2,0,0.4,0.1,0.6,0.1
		s0.3,0.1,0.4,0.1l-0.3,1.6c-0.1-0.1-0.4-0.1-0.7-0.2c-0.3-0.1-0.8-0.1-1.3-0.1c-0.3,0-0.7,0-1,0.1c-0.3,0.1-0.6,0.1-0.7,0.2v8.7
		h-1.9v-10c0.4-0.2,1-0.3,1.6-0.5C174.5,306.5,175.2,306.4,176,306.4z M183.4,315.7c0.4,0,0.8,0,1.2,0c0.3,0,0.6-0.1,0.9-0.1v-3.1
		c-0.1-0.1-0.4-0.1-0.7-0.2s-0.7-0.1-1.1-0.1c-0.3,0-0.6,0-0.9,0.1c-0.3,0-0.6,0.1-0.9,0.2c-0.3,0.1-0.5,0.3-0.6,0.5
		c-0.2,0.2-0.3,0.5-0.3,0.9c0,0.7,0.2,1.1,0.6,1.4C182.1,315.5,182.7,315.7,183.4,315.7z M183.3,306.3c0.7,0,1.4,0.1,1.9,0.3
		s0.9,0.5,1.2,0.8c0.3,0.4,0.5,0.8,0.7,1.3s0.2,1,0.2,1.6v6.5c-0.2,0-0.4,0.1-0.7,0.1s-0.6,0.1-1,0.1s-0.8,0.1-1.2,0.1
		c-0.4,0-0.8,0-1.2,0c-0.6,0-1.1-0.1-1.6-0.2c-0.5-0.1-0.9-0.3-1.3-0.6c-0.4-0.3-0.6-0.6-0.8-1c-0.2-0.4-0.3-0.9-0.3-1.5
		c0-0.6,0.1-1.1,0.4-1.5c0.2-0.4,0.6-0.7,0.9-1c0.4-0.3,0.9-0.4,1.4-0.6c0.5-0.1,1.1-0.2,1.7-0.2c0.2,0,0.4,0,0.6,0
		c0.2,0,0.4,0,0.6,0.1c0.2,0,0.3,0.1,0.5,0.1c0.1,0,0.2,0,0.3,0.1v-0.5c0-0.3,0-0.6-0.1-0.9c-0.1-0.3-0.2-0.6-0.4-0.8
		s-0.4-0.4-0.7-0.6c-0.3-0.1-0.7-0.2-1.2-0.2c-0.6,0-1.1,0-1.6,0.1c-0.5,0.1-0.8,0.2-1,0.3l-0.2-1.5c0.2-0.1,0.6-0.2,1.2-0.3
		C182,306.4,182.6,306.3,183.3,306.3z M194.9,317.2c-0.8,0-1.6-0.1-2.2-0.4s-1.2-0.6-1.6-1.1c-0.4-0.5-0.8-1-1-1.7s-0.3-1.4-0.3-2.2
		c0-0.8,0.1-1.5,0.4-2.2c0.2-0.7,0.6-1.2,1-1.7c0.4-0.5,0.9-0.9,1.6-1.1c0.6-0.3,1.3-0.4,2.1-0.4c0.5,0,0.9,0,1.4,0.1
		c0.5,0.1,0.9,0.2,1.3,0.4l-0.4,1.6c-0.3-0.1-0.6-0.2-1-0.3c-0.4-0.1-0.8-0.1-1.2-0.1c-1,0-1.8,0.3-2.4,1c-0.6,0.7-0.8,1.6-0.8,2.9
		c0,0.6,0.1,1.1,0.2,1.5c0.1,0.5,0.3,0.9,0.6,1.2c0.3,0.3,0.6,0.6,1.1,0.8c0.4,0.2,0.9,0.3,1.6,0.3c0.5,0,0.9,0,1.3-0.1
		c0.4-0.1,0.7-0.2,0.9-0.3l0.3,1.6c-0.1,0.1-0.3,0.1-0.5,0.2s-0.4,0.1-0.7,0.2c-0.3,0-0.5,0.1-0.8,0.1
		C195.4,317.2,195.1,317.2,194.9,317.2z M199.7,317v-15.2l1.9-0.3v5.3c0.3-0.1,0.7-0.2,1.1-0.3c0.4-0.1,0.8-0.1,1.2-0.1
		c0.8,0,1.5,0.1,2.1,0.4c0.5,0.2,1,0.6,1.3,1c0.3,0.4,0.6,0.9,0.7,1.5s0.2,1.2,0.2,1.9v5.8h-1.9v-5.4c0-0.6,0-1.2-0.1-1.6
		c-0.1-0.5-0.2-0.8-0.4-1.1s-0.5-0.5-0.8-0.6c-0.3-0.1-0.7-0.2-1.2-0.2c-0.2,0-0.4,0-0.6,0s-0.4,0.1-0.6,0.1c-0.2,0-0.4,0.1-0.5,0.1
		c-0.2,0-0.3,0.1-0.3,0.1v8.6H199.7z M210.5,311.8c0-0.9,0.1-1.7,0.4-2.4c0.3-0.7,0.6-1.3,1.1-1.7s0.9-0.8,1.5-1
		c0.6-0.2,1.2-0.3,1.8-0.3c1.4,0,2.5,0.4,3.2,1.3c0.7,0.9,1.1,2.2,1.1,4v0.3c0,0.1,0,0.2,0,0.3h-7.1c0.1,1.1,0.4,1.9,0.9,2.5
		c0.5,0.6,1.4,0.8,2.6,0.8c0.7,0,1.2-0.1,1.6-0.2c0.4-0.1,0.8-0.2,1-0.3l0.3,1.6c-0.2,0.1-0.6,0.2-1.2,0.4s-1.2,0.2-1.9,0.2
		c-0.9,0-1.7-0.1-2.4-0.4c-0.7-0.3-1.2-0.6-1.6-1.1c-0.4-0.5-0.7-1.1-0.9-1.7S210.5,312.6,210.5,311.8z M217.6,310.8
		c0-0.8-0.2-1.5-0.6-2.1c-0.4-0.5-1-0.8-1.8-0.8c-0.4,0-0.8,0.1-1.1,0.2c-0.3,0.2-0.6,0.4-0.8,0.6s-0.4,0.6-0.5,0.9
		c-0.1,0.3-0.2,0.7-0.2,1.1H217.6z M224.5,315.9c0,0.4-0.1,0.7-0.4,0.9c-0.2,0.3-0.6,0.4-1,0.4c-0.4,0-0.7-0.1-1-0.4
		c-0.2-0.3-0.4-0.6-0.4-0.9c0-0.4,0.1-0.7,0.4-0.9c0.2-0.3,0.6-0.4,1-0.4c0.4,0,0.7,0.1,1,0.4C224.3,315.2,224.5,315.6,224.5,315.9z
		 M31.7,326.1h1.9V340h-1.9V326.1z M37,340v-15.2l1.9-0.3v5.3c0.3-0.1,0.7-0.2,1.1-0.3c0.4-0.1,0.8-0.1,1.2-0.1
		c0.8,0,1.5,0.1,2.1,0.4s1,0.6,1.3,1c0.3,0.4,0.6,0.9,0.7,1.5s0.2,1.2,0.2,1.9v5.8h-1.9v-5.4c0-0.6,0-1.2-0.1-1.6
		c-0.1-0.5-0.2-0.8-0.4-1.1s-0.5-0.5-0.8-0.6c-0.3-0.1-0.7-0.2-1.2-0.2c-0.2,0-0.4,0-0.6,0c-0.2,0-0.4,0.1-0.6,0.1
		c-0.2,0-0.4,0.1-0.5,0.1c-0.2,0-0.3,0.1-0.3,0.1v8.6H37z M52.2,329.4c0.2,0,0.3,0,0.5,0c0.2,0,0.4,0,0.6,0.1c0.2,0,0.4,0.1,0.5,0.1
		s0.3,0.1,0.4,0.1l-0.3,1.6c-0.1-0.1-0.4-0.1-0.7-0.2c-0.3-0.1-0.8-0.1-1.3-0.1c-0.3,0-0.7,0-1,0.1s-0.6,0.1-0.7,0.2v8.7h-1.9v-10
		c0.4-0.2,1-0.3,1.6-0.5C50.7,329.5,51.4,329.4,52.2,329.4z M55.5,334.8c0-0.9,0.1-1.7,0.4-2.4c0.3-0.7,0.6-1.3,1.1-1.7
		s0.9-0.8,1.5-1c0.6-0.2,1.2-0.3,1.8-0.3c1.4,0,2.5,0.4,3.2,1.3c0.7,0.9,1.1,2.2,1.1,4v0.3c0,0.1,0,0.2,0,0.3h-7.1
		c0.1,1.1,0.4,1.9,0.9,2.5c0.5,0.6,1.4,0.8,2.6,0.8c0.7,0,1.2-0.1,1.7-0.2c0.4-0.1,0.8-0.2,1-0.3l0.3,1.6c-0.2,0.1-0.6,0.2-1.2,0.4
		s-1.2,0.2-1.9,0.2c-0.9,0-1.7-0.1-2.3-0.4c-0.7-0.3-1.2-0.6-1.6-1.1c-0.4-0.5-0.7-1.1-1-1.7C55.6,336.3,55.5,335.6,55.5,334.8z
		 M62.7,333.8c0-0.8-0.2-1.5-0.6-2.1c-0.4-0.5-1-0.8-1.8-0.8c-0.4,0-0.8,0.1-1.1,0.2c-0.3,0.2-0.6,0.4-0.8,0.6
		c-0.2,0.3-0.4,0.6-0.5,0.9c-0.1,0.3-0.2,0.7-0.2,1.1H62.7z M71.3,334.8c0-0.9,0.1-1.7,0.4-2.4c0.3-0.7,0.6-1.3,1.1-1.7
		s0.9-0.8,1.5-1c0.6-0.2,1.2-0.3,1.8-0.3c1.4,0,2.5,0.4,3.2,1.3c0.7,0.9,1.1,2.2,1.1,4v0.3c0,0.1,0,0.2,0,0.3h-7.1
		c0.1,1.1,0.4,1.9,0.9,2.5s1.4,0.8,2.6,0.8c0.7,0,1.2-0.1,1.7-0.2c0.4-0.1,0.8-0.2,1-0.3l0.3,1.6c-0.2,0.1-0.6,0.2-1.2,0.4
		c-0.6,0.1-1.2,0.2-1.9,0.2c-0.9,0-1.7-0.1-2.3-0.4c-0.7-0.3-1.2-0.6-1.6-1.1c-0.4-0.5-0.7-1.1-0.9-1.7
		C71.4,336.3,71.3,335.6,71.3,334.8z M78.5,333.8c0-0.8-0.2-1.5-0.6-2.1c-0.4-0.5-1-0.8-1.8-0.8c-0.4,0-0.8,0.1-1.1,0.2
		c-0.3,0.2-0.6,0.4-0.8,0.6s-0.4,0.6-0.5,0.9c-0.1,0.3-0.2,0.7-0.2,1.1H78.5z M85,340h-1.9v-10.4H85V340z M84,327.7
		c-0.3,0-0.6-0.1-0.8-0.3c-0.2-0.2-0.3-0.5-0.3-0.9s0.1-0.7,0.3-0.9c0.2-0.2,0.5-0.3,0.8-0.3c0.3,0,0.6,0.1,0.9,0.3
		c0.2,0.2,0.3,0.5,0.3,0.9s-0.1,0.7-0.3,0.9C84.6,327.6,84.4,327.7,84,327.7z M94.7,339c-0.2,0.1-0.5,0.2-0.9,0.4
		c-0.5,0.2-1,0.2-1.6,0.2c-0.6,0-1.2-0.1-1.8-0.3c-0.6-0.2-1-0.5-1.5-0.9c-0.4-0.4-0.7-0.9-1-1.6c-0.2-0.6-0.4-1.4-0.4-2.2
		c0-0.8,0.1-1.5,0.3-2.1s0.6-1.2,1-1.6c0.4-0.5,1-0.8,1.6-1.1c0.6-0.3,1.3-0.4,2.1-0.4c0.9,0,1.6,0.1,2.3,0.2
		c0.6,0.1,1.2,0.2,1.6,0.4v9.3c0,1.6-0.4,2.8-1.2,3.5c-0.8,0.7-2.1,1.1-3.8,1.1c-0.7,0-1.3-0.1-1.8-0.2s-1.1-0.2-1.5-0.4l0.3-1.6
		c0.4,0.1,0.8,0.3,1.4,0.4c0.5,0.1,1.1,0.2,1.7,0.2c1.1,0,1.9-0.2,2.4-0.7c0.5-0.4,0.7-1.1,0.7-2.1V339z M94.7,331.2
		c-0.2-0.1-0.4-0.1-0.8-0.1c-0.3,0-0.7-0.1-1.3-0.1c-1,0-1.8,0.3-2.3,1s-0.8,1.5-0.8,2.6c0,0.6,0.1,1.1,0.2,1.5
		c0.2,0.4,0.4,0.8,0.6,1.1s0.6,0.5,0.9,0.6c0.3,0.1,0.7,0.2,1.1,0.2c0.5,0,0.9-0.1,1.4-0.2c0.4-0.1,0.7-0.3,1-0.5V331.2z
		 M99.1,334.8c0-0.9,0.1-1.7,0.4-2.4s0.6-1.3,1.1-1.7s0.9-0.8,1.5-1c0.6-0.2,1.2-0.3,1.8-0.3c1.4,0,2.5,0.4,3.2,1.3
		c0.7,0.9,1.1,2.2,1.1,4v0.3c0,0.1,0,0.2,0,0.3h-7.1c0.1,1.1,0.4,1.9,0.9,2.5s1.4,0.8,2.6,0.8c0.7,0,1.2-0.1,1.7-0.2
		c0.4-0.1,0.8-0.2,1-0.3l0.3,1.6c-0.2,0.1-0.6,0.2-1.2,0.4c-0.6,0.1-1.2,0.2-1.9,0.2c-0.9,0-1.7-0.1-2.3-0.4
		c-0.7-0.3-1.2-0.6-1.6-1.1c-0.4-0.5-0.7-1.1-1-1.7C99.2,336.3,99.1,335.6,99.1,334.8z M106.3,333.8c0-0.8-0.2-1.5-0.6-2.1
		c-0.4-0.5-1-0.8-1.8-0.8c-0.4,0-0.8,0.1-1.1,0.2c-0.3,0.2-0.6,0.4-0.8,0.6s-0.4,0.6-0.5,0.9c-0.1,0.3-0.2,0.7-0.2,1.1H106.3z
		 M110.9,329.9c0.4-0.1,1-0.2,1.7-0.3c0.7-0.1,1.5-0.2,2.4-0.2c0.8,0,1.5,0.1,2.1,0.4s1,0.6,1.3,1c0.3,0.4,0.6,0.9,0.7,1.5
		c0.1,0.6,0.2,1.2,0.2,1.9v5.8h-1.9v-5.4c0-0.6,0-1.2-0.1-1.6c-0.1-0.5-0.2-0.8-0.4-1.1c-0.2-0.3-0.5-0.5-0.8-0.6
		c-0.3-0.1-0.7-0.2-1.2-0.2c-0.2,0-0.4,0-0.6,0s-0.4,0-0.6,0s-0.4,0-0.5,0.1c-0.2,0-0.3,0-0.3,0.1v8.8h-1.9V329.9z M121.8,334.8
		c0-0.9,0.1-1.7,0.4-2.4c0.3-0.7,0.6-1.3,1.1-1.7s0.9-0.8,1.5-1c0.6-0.2,1.2-0.3,1.8-0.3c1.4,0,2.5,0.4,3.2,1.3
		c0.7,0.9,1.1,2.2,1.1,4v0.3c0,0.1,0,0.2,0,0.3h-7.1c0.1,1.1,0.4,1.9,0.9,2.5s1.4,0.8,2.6,0.8c0.7,0,1.2-0.1,1.7-0.2
		c0.4-0.1,0.8-0.2,1-0.3l0.3,1.6c-0.2,0.1-0.6,0.2-1.2,0.4s-1.2,0.2-1.9,0.2c-0.9,0-1.7-0.1-2.3-0.4c-0.7-0.3-1.2-0.6-1.6-1.1
		c-0.4-0.5-0.7-1.1-0.9-1.7S121.8,335.6,121.8,334.8z M128.9,333.8c0-0.8-0.2-1.5-0.6-2.1c-0.4-0.5-1-0.8-1.8-0.8
		c-0.4,0-0.8,0.1-1.1,0.2c-0.3,0.2-0.6,0.4-0.8,0.6s-0.4,0.6-0.5,0.9c-0.1,0.3-0.2,0.7-0.2,1.1H128.9z M135.8,338.9
		c0,0.4-0.1,0.7-0.4,0.9c-0.2,0.3-0.6,0.4-1,0.4s-0.7-0.1-1-0.4c-0.2-0.3-0.4-0.6-0.4-0.9c0-0.4,0.1-0.7,0.4-0.9
		c0.2-0.3,0.6-0.4,1-0.4s0.7,0.1,1,0.4C135.6,338.2,135.8,338.6,135.8,338.9z"/>
</g>
</svg>
