<svg xmlns="http://www.w3.org/2000/svg" xmlns:xlink="http://www.w3.org/1999/xlink" viewBox="0 0 2100 900"><defs><style>.cls-1{isolation:isolate;}.cls-2{fill:url(#linear-gradient);}.cls-3{opacity:0.8;mix-blend-mode:multiply;}.cls-4{fill:none;}.cls-5{fill:#5e2750;}.cls-6{fill:#e95420;}.cls-7{fill:#fff;}</style><linearGradient id="linear-gradient" x1="-21.8" y1="840.1" x2="2121.8" y2="59.9" gradientUnits="userSpaceOnUse"><stop offset="0" stop-color="#5e2750"/><stop offset="0.22" stop-color="#803244"/><stop offset="0.75" stop-color="#cb4a2a"/><stop offset="1" stop-color="#e95420"/></linearGradient></defs><title>ubuntu_farben</title><g class="cls-1"><g id="verlauf"><rect class="cls-2" width="2100" height="900"/></g><g id="Icons"><g class="cls-3"><path class="cls-4" d="M573.68,502.15q0,25.61,1.71,52.91t4.26,51.21c.5,4.66,1,9.19,1.5,13.62h57.63c2.3-5.71,4.27-15.1,6-28.16s3.42-27.6,5.12-43.52,3.15-33,4.27-51.21,1.71-35.84,1.71-52.91q0-64.06-19.55-108.55Q573.67,387.54,573.68,502.15Z"/><path class="cls-5" d="M579.65,606.27q-2.55-23.92-4.26-51.21t-1.71-52.91q0-114.63,62.62-166.61-17.44-39.69-50.43-63.82-29.85-21.86-76.5-34.36-27.51,32.56-45.78,75.35-29.83,70-29.86,172.38,0,72.78,5.87,134.8H581.15C580.65,615.46,580.15,610.93,579.65,606.27Z"/><path class="cls-5" d="M465.09,778.61q6.69,32.77,13,58.06H2100V678H772.7q-11.1,60-21.28,100.66Z"/><path class="cls-5" d="M2100,278.57V119.85H841.64q-90.46,0-164.66,18.76c1.49,1.13,3,2.24,4.47,3.4q54.64,42.63,84.48,112.64a311.28,311.28,0,0,1,10.89,29.76q44.22-5.84,98.95-5.84Z"/><path class="cls-6" d="M636.3,335.54Q655.85,380,655.85,444.09q0,25.61-1.71,52.91t-4.27,51.21q-2.55,23.88-5.12,43.52c-1.7,13.06-3.67,22.45-6,28.16H581.15q1.82,16,3.62,29.9c1.71,13.06,3.68,22.45,6,28.16h182q3.81-20.64,7.74-43.55Q795.8,544.79,795.8,427q0-81.61-19-142.62Q690,295.87,643.66,329.77C641.13,331.62,638.69,333.55,636.3,335.54Z"/><path class="cls-6" d="M548.08,200.06q54.6-42.67,128.86-61.44h0q-53.16-40-124.39-58.05-74.24-18.8-164.7-18.77H0V220.51H353.76q93,0,155.61,16.85A259.49,259.49,0,0,1,548.08,200.06Z"/><path class="cls-6" d="M439.6,619.89H0V778.61H465.09q-7.75-38-16-86.15Q443.21,658.23,439.6,619.89Z"/><path class="cls-6" d="M584.77,649.79q-1.8-13.89-3.62-29.9H439.6q3.63,38.33,9.49,72.57,8.25,48.12,16,86.15H751.42Q761.61,738,772.7,678h-182C588.45,672.24,586.48,662.85,584.77,649.79Z"/><path class="cls-5" d="M681.45,142c-1.47-1.16-3-2.27-4.47-3.4h0q-74.25,18.76-128.86,61.44a259.49,259.49,0,0,0-38.71,37.3q46.64,12.52,76.5,34.36,33,24.13,50.43,63.82c2.39-2,4.83-3.92,7.36-5.77Q690,295.86,776.82,284.41a311.28,311.28,0,0,0-10.89-29.76Q736.1,184.65,681.45,142Z"/></g><path class="cls-7" d="M456.9,627q-29.23,0-50.74-9T370.9,593.22A100.91,100.91,0,0,1,350.48,556a155.84,155.84,0,0,1-6.67-46.44v-187h41.71V504.85q0,44.73,19.78,64.93T456.9,590a81.66,81.66,0,0,0,29-4.94,57.91,57.91,0,0,0,22.57-15.27q9.46-10.32,14.62-26.44t5.16-38.49V322.53H570V509.58A156.17,156.17,0,0,1,563.33,556a99.5,99.5,0,0,1-20.64,37.2q-14,15.71-35.26,24.72T456.9,627Z"/><path class="cls-7" d="M679.21,406.81q7.31-4.72,22.14-9.89t34.19-5.16q24.08,0,42.78,8.6a89,89,0,0,1,31.61,24.08q12.9,15.48,19.56,37t6.67,47.3q0,27.09-8,48.81a102.56,102.56,0,0,1-22.57,36.76,99.36,99.36,0,0,1-35.26,23.22q-20.64,8.18-46.44,8.17-28,0-49.45-3.87t-35.26-7.74V293.72l40-6.88Zm0,178.88a128,128,0,0,0,17,3.23,205.17,205.17,0,0,0,27.31,1.5q32.25,0,51.6-21.28t19.35-60.42A144.78,144.78,0,0,0,791,476.47a72.78,72.78,0,0,0-11.18-26,54.12,54.12,0,0,0-20-17.2Q747.58,427,730.38,427a79.33,79.33,0,0,0-30.1,5.59q-13.77,5.59-21.07,11.61Z"/><path class="cls-7" d="M1070.5,614.07q-13.76,3.45-36.33,7.31t-52.25,3.87q-25.8,0-43.43-7.52t-28.38-21.29A86.57,86.57,0,0,1,894.63,564a169.45,169.45,0,0,1-4.73-41.5V396.92h40v117q0,40.86,12.9,58.48T986.22,590q6.45,0,13.33-.43t12.9-1.07q6-.65,11-1.29a31.78,31.78,0,0,0,7.09-1.51V396.92h40Z"/><path class="cls-7" d="M1139.3,403.37q13.76-3.44,36.55-7.31t52.46-3.87q26.65,0,44.29,7.53t28.17,21.07q10.53,13.54,14.83,32.46a188.82,188.82,0,0,1,4.3,41.71V620.52h-40v-117q0-20.64-2.79-35.26t-9.25-23.65a36.65,36.65,0,0,0-17.2-13.11q-10.76-4.08-26.66-4.09-6.45,0-13.33.43T1197.56,429q-6.22.65-11.18,1.5c-3.29.58-5.66,1-7.09,1.29V620.52h-40Z"/><path class="cls-7" d="M1423.53,396.92h84.71v33.54h-84.71v103.2q0,16.77,2.58,27.74t7.74,17.2a27.81,27.81,0,0,0,12.9,8.81,57.17,57.17,0,0,0,18.06,2.58q18.06,0,29-4.08t15.27-5.81l7.74,33.11q-6,3-21.07,7.53t-34.4,4.51q-22.8,0-37.63-5.8A54.79,54.79,0,0,1,1399.88,602q-9-11.61-12.69-28.59t-3.65-39.35V334.57l40-6.88Z"/><path class="cls-7" d="M1737,614.07q-13.77,3.45-36.33,7.31t-52.25,3.87q-25.8,0-43.43-7.52t-28.38-21.29A86.27,86.27,0,0,1,1561.12,564a169,169,0,0,1-4.73-41.5V396.92h40v117q0,40.86,12.9,58.48T1652.71,590q6.45,0,13.33-.43t12.9-1.07q6-.65,11-1.29a31.91,31.91,0,0,0,7.09-1.51V396.92h40Z"/></g></g></svg>