<?xml version="1.0" encoding="utf-8"?>
<!-- Generator: Adobe Illustrator 22.1.0, SVG Export Plug-In . SVG Version: 6.00 Build 0)  -->
<svg version="1.1" id="Ebene_1" xmlns="http://www.w3.org/2000/svg" xmlns:xlink="http://www.w3.org/1999/xlink" x="0px" y="0px"
	 viewBox="0 0 1540 1080" style="enable-background:new 0 0 1540 1080;" xml:space="preserve">
<style type="text/css">
	.st0{fill:#FFFFFF;}
</style>
<title>querformat_Text_Ubuntu</title>
<desc>Created with Sketch.</desc>
<g id="querformat_Text_Ubuntu">
	<path id="Ubuntu-Copy" class="st0" d="M155.7,279.7c-9.2,0-17.2-1.3-23.9-3.9s-12.3-6.2-16.6-10.8s-7.6-10.1-9.7-16.5
		c-2.1-6.4-3.1-13.5-3.1-21.2v-81.9h29.6v79.4c0,5.3,0.6,9.8,1.8,13.6c1.2,3.7,2.8,6.8,4.9,9.1c2.1,2.3,4.6,4,7.6,5s6.2,1.5,9.8,1.5
		c7.2,0,13.1-2.2,17.6-6.6s6.7-12,6.7-22.6v-79.4H210v81.9c0,7.7-1.1,14.8-3.2,21.3c-2.2,6.5-5.4,12-9.9,16.6
		c-4.4,4.6-10.1,8.2-16.9,10.7C173.2,278.4,165.1,279.7,155.7,279.7z M300.7,226.3c0-18.2-6.7-27.4-20.1-27.4
		c-2.9,0-5.8,0.4-8.6,1.1c-2.9,0.8-5.2,1.7-6.9,2.8v51.5c1.4,0.3,3.2,0.5,5.3,0.7c2.2,0.2,4.5,0.3,7,0.3c7.7,0,13.6-2.7,17.5-8
		C298.7,242,300.7,235,300.7,226.3z M329.5,227c0,8-1.2,15.2-3.5,21.7c-2.3,6.5-5.7,12-10.2,16.5c-4.4,4.6-9.9,8.1-16.3,10.5
		c-6.5,2.5-13.8,3.7-22,3.7c-3.4,0-7-0.2-10.7-0.5c-3.7-0.3-7.4-0.7-11-1.2c-3.6-0.5-7.1-1.1-10.4-1.8c-3.3-0.7-6.2-1.4-8.7-2.2
		V134.1l28.3-4.6v49.8c3.2-1.4,6.5-2.5,9.9-3.2s7.1-1.1,11-1.1c7.1,0,13.4,1.2,18.8,3.7s10,6,13.7,10.5c3.7,4.6,6.5,10,8.4,16.4
		C328.6,212.1,329.5,219.2,329.5,227z M436.7,273.6c-4.8,1.4-11,2.7-18.6,3.9s-15.6,1.8-23.9,1.8c-8.5,0-15.5-1.1-21.2-3.4
		c-5.6-2.3-10.1-5.5-13.4-9.6c-3.3-4.1-5.6-9-7-14.7s-2.1-12-2.1-18.8v-55.7h28.3v52.2c0,9.1,1.2,15.7,3.6,19.8
		c2.4,4.1,6.9,6.1,13.5,6.1c2,0,4.2-0.1,6.5-0.3s4.3-0.4,6.1-0.7v-77.1h28.3V273.6z M463.3,180.5c4.8-1.4,11-2.7,18.6-3.9
		s15.6-1.8,23.9-1.8c8.5,0,15.5,1.1,21.2,3.3c5.6,2.2,10.1,5.4,13.4,9.4c3.3,4.1,5.6,8.9,7,14.4c1.4,5.6,2.1,11.8,2.1,18.6V277
		h-28.3v-53c0-9.1-1.2-15.6-3.6-19.4s-6.9-5.7-13.5-5.7c-2,0-4.2,0.1-6.5,0.3c-2.3,0.2-4.3,0.4-6.1,0.7V277h-28.3V180.5z
		 M574.3,152.2l28.3-4.6v29.4h34v23.6h-34v35.2c0,6,1,10.7,3.1,14.2c2.1,3.5,6.3,5.3,12.6,5.3c3,0,6.2-0.3,9.4-0.9s6.2-1.4,8.8-2.4
		l4,22c-3.4,1.4-7.2,2.6-11.4,3.6c-4.2,1-9.3,1.5-15.4,1.5c-7.7,0-14.1-1-19.2-3.1c-5.1-2.1-9.1-5-12.2-8.7c-3-3.7-5.2-8.3-6.4-13.6
		c-1.2-5.3-1.8-11.2-1.8-17.7V152.2z M744.9,273.6c-4.8,1.4-11,2.7-18.6,3.9s-15.6,1.8-23.9,1.8c-8.5,0-15.5-1.1-21.2-3.4
		c-5.6-2.3-10.1-5.5-13.4-9.6c-3.3-4.1-5.6-9-7-14.7c-1.4-5.7-2.1-12-2.1-18.8v-55.7h28.3v52.2c0,9.1,1.2,15.7,3.6,19.8
		c2.4,4.1,6.9,6.1,13.5,6.1c2,0,4.2-0.1,6.5-0.3s4.3-0.4,6.1-0.7v-77.1h28.3V273.6z"/>
	<path id="Sprache-verbindet." class="st0" d="M110.9,366c4.5,0,6.7-1.5,6.7-4.6c0-0.9-0.2-1.7-0.6-2.4s-0.9-1.2-1.6-1.7
		c-0.7-0.5-1.4-0.9-2.3-1.3c-0.9-0.4-1.8-0.7-2.8-1.1c-1.1-0.4-2.2-0.8-3.2-1.3c-1-0.5-1.9-1.1-2.6-1.7s-1.3-1.4-1.7-2.4
		c-0.4-0.9-0.6-2-0.6-3.3c0-2.7,0.9-4.8,2.7-6.2c1.8-1.5,4.3-2.2,7.5-2.2c1.8,0,3.5,0.2,5,0.6c1.5,0.4,2.6,0.8,3.3,1.3l-1.4,3.5
		c-0.6-0.4-1.5-0.8-2.8-1.1s-2.6-0.5-4.2-0.5c-0.8,0-1.6,0.1-2.3,0.3c-0.7,0.2-1.3,0.4-1.8,0.8c-0.5,0.4-0.9,0.8-1.3,1.3
		c-0.3,0.5-0.5,1.2-0.5,1.9c0,0.8,0.2,1.5,0.5,2.1s0.8,1,1.4,1.5c0.6,0.4,1.3,0.8,2,1.2c0.8,0.4,1.6,0.7,2.6,1.1
		c1.3,0.5,2.5,1.1,3.6,1.6c1.1,0.5,2.1,1.2,2.9,1.9s1.4,1.6,1.9,2.6c0.4,1,0.7,2.2,0.7,3.7c0,2.7-1,4.7-2.9,6.2
		c-2,1.4-4.7,2.2-8.2,2.2c-1.2,0-2.3-0.1-3.3-0.2c-1-0.2-1.9-0.4-2.7-0.6c-0.8-0.2-1.5-0.5-2-0.7c-0.6-0.2-1-0.5-1.3-0.6l1.3-3.5
		c0.7,0.4,1.7,0.8,3.1,1.3C107.2,365.7,108.9,366,110.9,366z M142.8,357.6c0-2.7-0.7-4.7-2-6.2s-3.1-2.2-5.3-2.2
		c-1.2,0-2.2,0-2.9,0.1c-0.7,0.1-1.2,0.2-1.6,0.3v14.4c0.5,0.4,1.2,0.8,2.2,1.2c0.9,0.4,2,0.6,3.1,0.6c1.2,0,2.2-0.2,3-0.6
		c0.8-0.4,1.5-1,2-1.8c0.5-0.7,0.9-1.6,1.1-2.6C142.7,359.9,142.8,358.8,142.8,357.6z M147.1,357.6c0,1.7-0.2,3.3-0.7,4.8
		c-0.5,1.5-1.1,2.7-2,3.8s-2,1.9-3.2,2.5s-2.7,0.9-4.4,0.9c-1.3,0-2.5-0.2-3.5-0.5c-1-0.4-1.8-0.7-2.3-1v9.2h-4.1v-30.3
		c1-0.2,2.2-0.5,3.6-0.8c1.5-0.3,3.1-0.4,5-0.4c1.8,0,3.3,0.3,4.8,0.8c1.4,0.6,2.6,1.3,3.6,2.4c1,1,1.8,2.3,2.3,3.8
		C146.8,354.1,147.1,355.8,147.1,357.6z M161.3,345.6c0.4,0,0.8,0,1.2,0.1s0.9,0.1,1.3,0.2s0.8,0.1,1.2,0.2s0.6,0.1,0.8,0.2
		l-0.7,3.6c-0.3-0.1-0.9-0.3-1.6-0.4c-0.7-0.2-1.7-0.2-2.9-0.2c-0.8,0-1.5,0.1-2.3,0.2c-0.7,0.2-1.2,0.3-1.5,0.3V369h-4.1v-21.9
		c1-0.4,2.2-0.7,3.6-1C157.9,345.8,159.5,345.6,161.3,345.6z M177.6,366.1c1,0,1.8,0,2.6-0.1s1.4-0.1,1.9-0.2v-6.8
		c-0.3-0.1-0.8-0.3-1.4-0.4c-0.7-0.1-1.5-0.2-2.4-0.2c-0.6,0-1.3,0-2,0.1c-0.7,0.1-1.3,0.3-1.9,0.5s-1,0.7-1.4,1.1
		c-0.4,0.5-0.6,1.1-0.6,1.9c0,1.5,0.5,2.5,1.4,3.1S176,366.1,177.6,366.1z M177.2,345.5c1.6,0,3,0.2,4.2,0.6c1.1,0.4,2,1,2.7,1.8
		c0.7,0.8,1.2,1.7,1.5,2.8s0.4,2.3,0.4,3.5v14.3c-0.4,0.1-0.8,0.1-1.5,0.2c-0.6,0.1-1.3,0.2-2.1,0.3c-0.8,0.1-1.6,0.2-2.6,0.2
		c-0.9,0.1-1.8,0.1-2.8,0.1c-1.3,0-2.5-0.1-3.6-0.4c-1.1-0.3-2-0.7-2.8-1.3c-0.8-0.6-1.4-1.3-1.8-2.3c-0.4-0.9-0.7-2.1-0.7-3.4
		c0-1.3,0.3-2.3,0.8-3.3c0.5-0.9,1.2-1.6,2.1-2.2s1.9-1,3.1-1.2s2.4-0.4,3.7-0.4c0.4,0,0.8,0,1.3,0.1c0.4,0,0.9,0.1,1.3,0.2
		c0.4,0.1,0.7,0.1,1,0.2c0.3,0.1,0.5,0.1,0.6,0.1v-1.1c0-0.7-0.1-1.3-0.2-2s-0.4-1.2-0.8-1.8s-0.9-0.9-1.6-1.2s-1.5-0.5-2.6-0.5
		c-1.3,0-2.5,0.1-3.5,0.3c-1,0.2-1.8,0.4-2.3,0.6l-0.5-3.4c0.5-0.2,1.4-0.5,2.6-0.7S175.8,345.5,177.2,345.5z M202.7,369.5
		c-1.8,0-3.5-0.3-4.9-0.9s-2.6-1.4-3.5-2.5s-1.7-2.3-2.1-3.8s-0.7-3.1-0.7-4.8s0.3-3.4,0.8-4.8s1.2-2.7,2.2-3.8s2.1-1.9,3.5-2.5
		c1.4-0.6,2.9-0.9,4.6-0.9c1,0,2.1,0.1,3.1,0.3c1,0.2,2,0.5,2.9,0.8l-0.9,3.5c-0.6-0.3-1.3-0.5-2.1-0.7c-0.8-0.2-1.7-0.3-2.6-0.3
		c-2.3,0-4,0.7-5.3,2.2c-1.2,1.4-1.8,3.5-1.8,6.3c0,1.2,0.1,2.4,0.4,3.4c0.3,1,0.7,1.9,1.3,2.6s1.4,1.3,2.3,1.7
		c0.9,0.4,2.1,0.6,3.4,0.6c1.1,0,2.1-0.1,2.9-0.3s1.6-0.4,2.1-0.7l0.6,3.4c-0.2,0.1-0.6,0.3-1,0.4s-0.9,0.2-1.5,0.4
		c-0.6,0.1-1.2,0.2-1.8,0.3C203.9,369.5,203.3,369.5,202.7,369.5z M213.3,369v-33.4l4.1-0.7v11.7c0.8-0.3,1.6-0.5,2.4-0.7
		c0.9-0.2,1.7-0.2,2.6-0.2c1.8,0,3.3,0.3,4.5,0.8c1.2,0.5,2.2,1.2,2.9,2.2c0.7,0.9,1.2,2,1.5,3.3s0.4,2.7,0.4,4.3V369h-4.1v-12
		c0-1.4-0.1-2.6-0.3-3.6c-0.2-1-0.5-1.8-0.9-2.4s-1-1.1-1.8-1.3c-0.7-0.3-1.6-0.4-2.7-0.4c-0.4,0-0.9,0-1.4,0.1
		c-0.5,0.1-0.9,0.1-1.3,0.2s-0.8,0.2-1.1,0.2c-0.3,0.1-0.6,0.2-0.7,0.2v19H213.3z M237.1,357.6c0-2,0.3-3.8,0.9-5.3s1.4-2.8,2.3-3.8
		c1-1,2.1-1.7,3.3-2.2c1.3-0.5,2.6-0.7,3.9-0.7c3.1,0,5.4,1,7.1,2.9c1.6,1.9,2.5,4.8,2.5,8.8v0.7c0,0.3,0,0.5,0,0.8h-15.7
		c0.2,2.4,0.9,4.2,2.1,5.4c1.2,1.2,3.1,1.8,5.6,1.8c1.4,0,2.6-0.1,3.6-0.4c1-0.2,1.7-0.5,2.2-0.7l0.6,3.4c-0.5,0.3-1.4,0.5-2.6,0.8
		s-2.7,0.4-4.2,0.4c-2,0-3.7-0.3-5.2-0.9c-1.5-0.6-2.6-1.4-3.6-2.5c-0.9-1.1-1.6-2.3-2.1-3.8C237.3,360.9,237.1,359.3,237.1,357.6z
		 M252.8,355.4c0-1.8-0.4-3.4-1.4-4.6s-2.3-1.8-3.9-1.8c-0.9,0-1.8,0.2-2.5,0.6s-1.3,0.8-1.8,1.4c-0.5,0.6-0.9,1.3-1.2,2
		c-0.3,0.8-0.5,1.5-0.5,2.3H252.8z M291,346.1c-1.1,4.3-2.5,8.4-4,12.3s-3,7.5-4.5,10.6h-3.7c-1.4-3.1-2.9-6.6-4.5-10.6
		s-2.9-8-4-12.3h4.4c0.4,1.4,0.8,3,1.3,4.6c0.5,1.6,1,3.2,1.5,4.8c0.5,1.6,1.1,3.1,1.6,4.6c0.6,1.5,1.1,2.8,1.6,4
		c0.5-1.2,1-2.5,1.6-4c0.6-1.5,1.1-3,1.6-4.6c0.5-1.6,1.1-3.2,1.5-4.8c0.5-1.6,0.9-3.2,1.3-4.6H291z M293.3,357.6
		c0-2,0.3-3.8,0.9-5.3s1.4-2.8,2.3-3.8c1-1,2.1-1.7,3.3-2.2c1.3-0.5,2.6-0.7,3.9-0.7c3.1,0,5.4,1,7.1,2.9c1.6,1.9,2.5,4.8,2.5,8.8
		v0.7c0,0.3,0,0.5,0,0.8h-15.7c0.2,2.4,0.9,4.2,2.1,5.4c1.2,1.2,3.1,1.8,5.6,1.8c1.4,0,2.6-0.1,3.6-0.4c1-0.2,1.7-0.5,2.2-0.7
		l0.6,3.4c-0.5,0.3-1.4,0.5-2.6,0.8s-2.7,0.4-4.2,0.4c-2,0-3.7-0.3-5.2-0.9c-1.5-0.6-2.6-1.4-3.6-2.5c-0.9-1.1-1.6-2.3-2.1-3.8
		C293.6,360.9,293.3,359.3,293.3,357.6z M309,355.4c0-1.8-0.4-3.4-1.4-4.6s-2.3-1.8-3.9-1.8c-0.9,0-1.8,0.2-2.5,0.6
		c-0.7,0.4-1.3,0.8-1.8,1.4c-0.5,0.6-0.9,1.3-1.2,2c-0.3,0.8-0.5,1.5-0.6,2.3H309z M327.7,345.6c0.4,0,0.8,0,1.2,0.1
		s0.9,0.1,1.3,0.2s0.8,0.1,1.2,0.2s0.6,0.1,0.8,0.2l-0.7,3.6c-0.3-0.1-0.9-0.3-1.6-0.4c-0.7-0.2-1.7-0.2-2.9-0.2
		c-0.8,0-1.5,0.1-2.3,0.2c-0.7,0.2-1.2,0.3-1.5,0.3V369h-4.1v-21.9c1-0.4,2.2-0.7,3.6-1C324.3,345.8,325.9,345.6,327.7,345.6z
		 M340.3,347.1c0.5-0.3,1.3-0.7,2.3-1c1-0.4,2.2-0.5,3.5-0.5c1.6,0,3.1,0.3,4.4,0.9s2.4,1.4,3.2,2.5s1.5,2.3,2,3.8
		c0.5,1.5,0.7,3.1,0.7,4.8c0,1.8-0.3,3.5-0.8,5c-0.5,1.5-1.3,2.7-2.3,3.8s-2.2,1.8-3.6,2.4c-1.4,0.6-3,0.8-4.8,0.8
		c-1.9,0-3.6-0.1-5.1-0.4c-1.5-0.3-2.7-0.5-3.6-0.8v-32.8l4.1-0.7V347.1z M340.3,365.4c0.4,0.1,1,0.2,1.7,0.3
		c0.7,0.1,1.7,0.2,2.8,0.2c2.2,0,4-0.7,5.3-2.2c1.3-1.5,2-3.5,2-6.2c0-1.2-0.1-2.3-0.4-3.3s-0.6-1.9-1.1-2.7c-0.5-0.7-1.2-1.3-2-1.8
		c-0.8-0.4-1.8-0.6-3-0.6c-1.1,0-2.1,0.2-3.1,0.6c-0.9,0.4-1.7,0.8-2.2,1.2V365.4z M366.2,369h-4.1v-22.9h4.1V369z M364.1,342
		c-0.7,0-1.4-0.2-1.9-0.7s-0.8-1.1-0.8-2c0-0.8,0.3-1.5,0.8-2c0.5-0.5,1.1-0.7,1.9-0.7s1.4,0.2,1.9,0.7c0.5,0.5,0.8,1.1,0.8,2
		c0,0.8-0.3,1.5-0.8,2S364.9,342,364.1,342z M373.2,346.8c0.9-0.2,2.2-0.5,3.7-0.7c1.6-0.3,3.3-0.4,5.4-0.4c1.8,0,3.3,0.3,4.5,0.8
		s2.2,1.2,2.9,2.2c0.7,0.9,1.2,2,1.5,3.3s0.4,2.7,0.4,4.3V369h-4.1v-12c0-1.4-0.1-2.6-0.3-3.6c-0.2-1-0.5-1.8-0.9-2.4
		s-1-1.1-1.8-1.3c-0.7-0.3-1.6-0.4-2.7-0.4c-0.4,0-0.9,0-1.4,0s-0.9,0.1-1.3,0.1c-0.4,0-0.8,0.1-1.1,0.2c-0.3,0.1-0.6,0.1-0.7,0.1
		V369h-4.1V346.8z M413.3,351c-0.5-0.4-1.2-0.8-2.2-1.2c-0.9-0.4-2-0.6-3.1-0.6c-1.2,0-2.2,0.2-3,0.6c-0.8,0.4-1.5,1-2,1.8
		c-0.5,0.7-0.9,1.6-1.1,2.7c-0.2,1-0.4,2.1-0.4,3.3c0,2.7,0.7,4.7,2,6.2c1.3,1.5,3.1,2.2,5.3,2.2c1.1,0,2-0.1,2.8-0.2
		c0.7-0.1,1.3-0.2,1.7-0.3V351z M413.3,335.6l4.1-0.7v33.5c-0.9,0.3-2.1,0.5-3.6,0.8c-1.5,0.3-3.2,0.4-5.1,0.4
		c-1.8,0-3.3-0.3-4.8-0.8c-1.4-0.6-2.6-1.3-3.6-2.4s-1.8-2.3-2.3-3.8c-0.5-1.5-0.8-3.1-0.8-5c0-1.8,0.2-3.4,0.7-4.8
		c0.5-1.5,1.1-2.7,2-3.8s2-1.9,3.2-2.5s2.7-0.9,4.4-0.9c1.3,0,2.5,0.2,3.5,0.5c1,0.4,1.8,0.7,2.3,1V335.6z M423.1,357.6
		c0-2,0.3-3.8,0.9-5.3s1.4-2.8,2.3-3.8c1-1,2.1-1.7,3.3-2.2c1.3-0.5,2.6-0.7,3.9-0.7c3.1,0,5.4,1,7.1,2.9c1.6,1.9,2.5,4.8,2.5,8.8
		v0.7c0,0.3,0,0.5,0,0.8h-15.7c0.2,2.4,0.9,4.2,2.1,5.4c1.2,1.2,3.1,1.8,5.6,1.8c1.4,0,2.6-0.1,3.6-0.4c1-0.2,1.7-0.5,2.2-0.7
		l0.6,3.4c-0.5,0.3-1.4,0.5-2.6,0.8s-2.7,0.4-4.2,0.4c-2,0-3.7-0.3-5.2-0.9c-1.5-0.6-2.6-1.4-3.6-2.5c-0.9-1.1-1.6-2.3-2.1-3.8
		C423.4,360.9,423.1,359.3,423.1,357.6z M438.8,355.4c0-1.8-0.4-3.4-1.4-4.6s-2.3-1.8-3.9-1.8c-0.9,0-1.8,0.2-2.5,0.6
		s-1.3,0.8-1.8,1.4c-0.5,0.6-0.9,1.3-1.2,2c-0.3,0.8-0.5,1.5-0.5,2.3H438.8z M452.8,346.1h8.7v3.4h-8.7v10.6c0,1.1,0.1,2.1,0.3,2.8
		c0.2,0.7,0.4,1.3,0.8,1.8c0.4,0.4,0.8,0.7,1.3,0.9c0.5,0.2,1.1,0.3,1.8,0.3c1.2,0,2.2-0.1,3-0.4c0.7-0.3,1.3-0.5,1.6-0.6l0.8,3.4
		c-0.4,0.2-1.1,0.5-2.2,0.8s-2.2,0.5-3.5,0.5c-1.6,0-2.8-0.2-3.9-0.6c-1-0.4-1.8-1-2.4-1.8c-0.6-0.8-1-1.8-1.3-2.9
		c-0.2-1.2-0.4-2.5-0.4-4v-20.4l4.1-0.7V346.1z M472,366.6c0,0.8-0.3,1.5-0.8,2.1c-0.5,0.6-1.2,0.9-2.2,0.9s-1.6-0.3-2.2-0.9
		c-0.5-0.6-0.8-1.3-0.8-2.1c0-0.8,0.3-1.5,0.8-2.1c0.5-0.6,1.2-0.9,2.2-0.9s1.6,0.3,2.2,0.9C471.8,365.1,472,365.8,472,366.6z"/>
	<path id="Unzählige-User_x2C_-jede" class="st0" d="M106.9,426.3c-0.9,0-1.7-0.1-2.4-0.4c-0.7-0.3-1.2-0.7-1.6-1.1
		c-0.4-0.5-0.7-1.1-0.9-1.7s-0.3-1.4-0.3-2.2v-8.7h1.9v8.5c0,1.4,0.3,2.4,0.9,3c0.6,0.6,1.4,0.9,2.4,0.9c0.5,0,0.9-0.1,1.4-0.2
		c0.4-0.2,0.8-0.4,1-0.7c0.3-0.3,0.5-0.7,0.7-1.2s0.2-1.1,0.2-1.8v-8.5h1.9v8.7c0,0.8-0.1,1.5-0.3,2.2c-0.2,0.7-0.5,1.2-1,1.7
		c-0.4,0.5-1,0.9-1.6,1.1C108.6,426.2,107.8,426.3,106.9,426.3z M115.4,415.9c0.4-0.1,1-0.2,1.7-0.3c0.7-0.1,1.5-0.2,2.4-0.2
		c0.8,0,1.5,0.1,2.1,0.4s1,0.6,1.3,1c0.3,0.4,0.6,0.9,0.7,1.5c0.1,0.6,0.2,1.2,0.2,1.9v5.8h-1.9v-5.4c0-0.6,0-1.2-0.1-1.6
		c-0.1-0.5-0.2-0.8-0.4-1.1c-0.2-0.3-0.5-0.5-0.8-0.6c-0.3-0.1-0.7-0.2-1.2-0.2c-0.2,0-0.4,0-0.6,0s-0.4,0-0.6,0s-0.4,0-0.5,0.1
		c-0.2,0-0.3,0-0.3,0.1v8.8h-1.9V415.9z M133.7,417c-0.3,0.3-0.7,0.7-1.1,1.3c-0.5,0.6-1,1.2-1.5,1.9c-0.5,0.7-1.1,1.4-1.6,2.1
		c-0.5,0.7-1,1.5-1.4,2.1h5.7v1.6H126v-1.2c0.3-0.6,0.7-1.2,1.2-1.9s1-1.4,1.5-2.1c0.5-0.7,1-1.4,1.5-2c0.5-0.6,0.9-1.1,1.3-1.6
		h-5.1v-1.6h7.5V417z M139.8,424.7c0.4,0,0.8,0,1.2,0c0.3,0,0.6-0.1,0.9-0.1v-3.1c-0.1-0.1-0.4-0.1-0.7-0.2s-0.7-0.1-1.1-0.1
		c-0.3,0-0.6,0-0.9,0.1c-0.3,0-0.6,0.1-0.9,0.2c-0.3,0.1-0.5,0.3-0.6,0.5c-0.2,0.2-0.3,0.5-0.3,0.9c0,0.7,0.2,1.1,0.6,1.4
		C138.5,424.5,139,424.7,139.8,424.7z M139.6,415.3c0.7,0,1.4,0.1,1.9,0.3s0.9,0.5,1.2,0.8s0.5,0.8,0.7,1.3s0.2,1,0.2,1.6v6.5
		c-0.2,0-0.4,0.1-0.7,0.1s-0.6,0.1-1,0.1s-0.8,0.1-1.2,0.1c-0.4,0-0.8,0-1.2,0c-0.6,0-1.1-0.1-1.6-0.2s-0.9-0.3-1.3-0.6
		s-0.6-0.6-0.8-1c-0.2-0.4-0.3-0.9-0.3-1.5c0-0.6,0.1-1.1,0.3-1.5c0.2-0.4,0.6-0.7,1-1c0.4-0.3,0.9-0.4,1.4-0.6
		c0.5-0.1,1.1-0.2,1.7-0.2c0.2,0,0.4,0,0.6,0c0.2,0,0.4,0,0.6,0.1c0.2,0,0.3,0.1,0.5,0.1s0.2,0,0.3,0.1v-0.5c0-0.3,0-0.6-0.1-0.9
		c-0.1-0.3-0.2-0.6-0.4-0.8c-0.2-0.2-0.4-0.4-0.7-0.6c-0.3-0.1-0.7-0.2-1.2-0.2c-0.6,0-1.2,0-1.6,0.1c-0.5,0.1-0.8,0.2-1,0.3
		l-0.2-1.5c0.2-0.1,0.6-0.2,1.2-0.3C138.4,415.4,139,415.3,139.6,415.3z M138,413.7c-0.3,0-0.6-0.1-0.8-0.3
		c-0.2-0.2-0.4-0.5-0.4-0.9s0.1-0.6,0.4-0.9c0.2-0.2,0.5-0.3,0.8-0.3s0.6,0.1,0.8,0.3s0.3,0.5,0.3,0.9s-0.1,0.6-0.3,0.9
		S138.3,413.7,138,413.7z M141.8,413.7c-0.3,0-0.6-0.1-0.8-0.3c-0.2-0.2-0.3-0.5-0.3-0.9s0.1-0.6,0.3-0.9c0.2-0.2,0.5-0.3,0.8-0.3
		c0.3,0,0.6,0.1,0.8,0.3s0.3,0.5,0.3,0.9s-0.1,0.6-0.3,0.9S142.1,413.7,141.8,413.7z M146.7,426v-15.2l1.9-0.3v5.3
		c0.3-0.1,0.7-0.2,1.1-0.3c0.4-0.1,0.8-0.1,1.2-0.1c0.8,0,1.5,0.1,2.1,0.4c0.5,0.2,1,0.6,1.3,1c0.3,0.4,0.6,0.9,0.7,1.5
		c0.1,0.6,0.2,1.2,0.2,1.9v5.8h-1.9v-5.4c0-0.6,0-1.2-0.1-1.6c-0.1-0.5-0.2-0.8-0.4-1.1c-0.2-0.3-0.5-0.5-0.8-0.6
		c-0.3-0.1-0.7-0.2-1.2-0.2c-0.2,0-0.4,0-0.6,0s-0.4,0.1-0.6,0.1c-0.2,0-0.4,0.1-0.5,0.1c-0.2,0-0.3,0.1-0.3,0.1v8.6H146.7z
		 M161.2,426.2c-1.1,0-2-0.3-2.4-0.7c-0.5-0.5-0.7-1.2-0.7-2.2v-12.5l1.9-0.3V423c0,0.3,0,0.6,0.1,0.8c0.1,0.2,0.1,0.4,0.3,0.5
		s0.3,0.2,0.5,0.3c0.2,0.1,0.4,0.1,0.7,0.2L161.2,426.2z M165.4,426h-1.9v-10.4h1.9V426z M164.5,413.7c-0.3,0-0.6-0.1-0.9-0.3
		c-0.2-0.2-0.3-0.5-0.3-0.9s0.1-0.7,0.3-0.9c0.2-0.2,0.5-0.3,0.9-0.3s0.6,0.1,0.9,0.3c0.2,0.2,0.3,0.5,0.3,0.9s-0.1,0.7-0.3,0.9
		C165.1,413.6,164.8,413.7,164.5,413.7z M175.2,425c-0.2,0.1-0.5,0.2-0.9,0.4c-0.5,0.2-1,0.2-1.6,0.2c-0.6,0-1.2-0.1-1.8-0.3
		c-0.6-0.2-1-0.5-1.5-0.9c-0.4-0.4-0.7-0.9-1-1.6c-0.2-0.6-0.4-1.4-0.4-2.2c0-0.8,0.1-1.5,0.3-2.1s0.6-1.2,1-1.6
		c0.4-0.5,1-0.8,1.6-1.1c0.6-0.3,1.3-0.4,2.1-0.4c0.9,0,1.6,0.1,2.3,0.2c0.6,0.1,1.2,0.2,1.6,0.4v9.3c0,1.6-0.4,2.8-1.2,3.5
		c-0.8,0.7-2.1,1.1-3.8,1.1c-0.7,0-1.3-0.1-1.9-0.2s-1.1-0.2-1.5-0.4l0.3-1.6c0.4,0.1,0.8,0.3,1.4,0.4c0.5,0.1,1.1,0.2,1.7,0.2
		c1.1,0,1.9-0.2,2.4-0.7c0.5-0.4,0.7-1.1,0.7-2.1V425z M175.1,417.2c-0.2-0.1-0.4-0.1-0.8-0.1s-0.7-0.1-1.3-0.1c-1,0-1.8,0.3-2.3,1
		c-0.5,0.7-0.8,1.5-0.8,2.6c0,0.6,0.1,1.1,0.2,1.5c0.2,0.4,0.4,0.8,0.6,1.1c0.3,0.3,0.6,0.5,0.9,0.6s0.7,0.2,1.1,0.2
		c0.5,0,0.9-0.1,1.4-0.2c0.4-0.1,0.7-0.3,1-0.5V417.2z M179.6,420.8c0-0.9,0.1-1.7,0.4-2.4c0.3-0.7,0.6-1.3,1.1-1.7s0.9-0.8,1.5-1
		c0.6-0.2,1.2-0.3,1.8-0.3c1.4,0,2.5,0.4,3.2,1.3c0.7,0.9,1.1,2.2,1.1,4v0.3c0,0.1,0,0.2,0,0.3h-7.1c0.1,1.1,0.4,1.9,0.9,2.5
		s1.4,0.8,2.6,0.8c0.7,0,1.2-0.1,1.7-0.2c0.4-0.1,0.8-0.2,1-0.3l0.3,1.6c-0.2,0.1-0.6,0.2-1.2,0.4c-0.6,0.1-1.2,0.2-1.9,0.2
		c-0.9,0-1.7-0.1-2.4-0.4c-0.7-0.3-1.2-0.6-1.6-1.1c-0.4-0.5-0.7-1.1-1-1.7C179.7,422.3,179.6,421.6,179.6,420.8z M186.8,419.8
		c0-0.8-0.2-1.5-0.6-2.1c-0.4-0.5-1-0.8-1.8-0.8c-0.4,0-0.8,0.1-1.1,0.2c-0.3,0.2-0.6,0.4-0.8,0.6s-0.4,0.6-0.5,0.9
		c-0.1,0.3-0.2,0.7-0.2,1.1H186.8z M201.3,426.3c-0.9,0-1.7-0.1-2.4-0.4s-1.2-0.7-1.6-1.1c-0.4-0.5-0.7-1.1-0.9-1.7
		s-0.3-1.4-0.3-2.2v-8.7h1.9v8.5c0,1.4,0.3,2.4,0.9,3c0.6,0.6,1.4,0.9,2.4,0.9c0.5,0,0.9-0.1,1.4-0.2c0.4-0.2,0.8-0.4,1-0.7
		c0.3-0.3,0.5-0.7,0.7-1.2s0.2-1.1,0.2-1.8v-8.5h1.9v8.7c0,0.8-0.1,1.5-0.3,2.2s-0.5,1.2-1,1.7c-0.4,0.5-1,0.9-1.6,1.1
		S202.2,426.3,201.3,426.3z M212.2,424.7c0.8,0,1.3-0.1,1.7-0.3c0.4-0.2,0.6-0.5,0.6-1c0-0.5-0.2-0.8-0.5-1.1s-1-0.6-1.8-0.9
		c-0.4-0.2-0.8-0.3-1.2-0.5c-0.4-0.2-0.7-0.4-0.9-0.6c-0.3-0.2-0.5-0.5-0.6-0.8c-0.2-0.3-0.2-0.7-0.2-1.2c0-0.9,0.3-1.6,1-2.2
		s1.6-0.8,2.8-0.8c0.3,0,0.6,0,0.9,0.1c0.3,0,0.6,0.1,0.8,0.1c0.3,0,0.5,0.1,0.7,0.1c0.2,0.1,0.3,0.1,0.5,0.1l-0.3,1.6
		c-0.2-0.1-0.5-0.2-0.9-0.3c-0.4-0.1-0.9-0.2-1.5-0.2c-0.5,0-1,0.1-1.4,0.3s-0.6,0.5-0.6,1c0,0.2,0,0.4,0.1,0.6s0.2,0.3,0.4,0.5
		c0.2,0.1,0.4,0.3,0.7,0.4c0.3,0.1,0.6,0.2,1,0.4c0.5,0.2,0.9,0.4,1.3,0.6c0.4,0.2,0.7,0.4,1,0.6c0.3,0.2,0.5,0.5,0.6,0.9
		s0.2,0.8,0.2,1.2c0,1-0.4,1.7-1.1,2.2c-0.7,0.5-1.7,0.7-3.1,0.7c-0.9,0-1.6-0.1-2.2-0.2c-0.5-0.2-0.9-0.3-1.1-0.4l0.3-1.6
		c0.2,0.1,0.6,0.2,1,0.4C210.8,424.6,211.4,424.7,212.2,424.7z M218.1,420.8c0-0.9,0.1-1.7,0.4-2.4s0.6-1.3,1.1-1.7s0.9-0.8,1.5-1
		c0.6-0.2,1.2-0.3,1.8-0.3c1.4,0,2.5,0.4,3.2,1.3c0.7,0.9,1.1,2.2,1.1,4v0.3c0,0.1,0,0.2,0,0.3H220c0.1,1.1,0.4,1.9,0.9,2.5
		c0.5,0.6,1.4,0.8,2.6,0.8c0.7,0,1.2-0.1,1.7-0.2c0.4-0.1,0.8-0.2,1-0.3l0.3,1.6c-0.2,0.1-0.6,0.2-1.2,0.4c-0.6,0.1-1.2,0.2-1.9,0.2
		c-0.9,0-1.7-0.1-2.3-0.4c-0.7-0.3-1.2-0.6-1.6-1.1c-0.4-0.5-0.7-1.1-0.9-1.7S218.1,421.6,218.1,420.8z M225.2,419.8
		c0-0.8-0.2-1.5-0.6-2.1c-0.4-0.5-1-0.8-1.8-0.8c-0.4,0-0.8,0.1-1.1,0.2c-0.3,0.2-0.6,0.4-0.8,0.6s-0.4,0.6-0.5,0.9
		c-0.1,0.3-0.2,0.7-0.2,1.1H225.2z M233.7,415.4c0.2,0,0.3,0,0.6,0s0.4,0,0.6,0.1c0.2,0,0.4,0.1,0.6,0.1s0.3,0.1,0.4,0.1l-0.3,1.6
		c-0.1-0.1-0.4-0.1-0.7-0.2c-0.3-0.1-0.8-0.1-1.3-0.1c-0.3,0-0.7,0-1,0.1s-0.6,0.1-0.7,0.2v8.7h-1.9v-10c0.4-0.2,1-0.3,1.6-0.5
		C232.2,415.5,232.9,415.4,233.7,415.4z M238.4,423.7c0,0.1,0,0.2,0,0.3v0.3c0,0.8-0.1,1.7-0.4,2.5c-0.2,0.8-0.6,1.6-1,2.4l-1.4-0.5
		c0.3-0.7,0.6-1.4,0.7-2.1c0.1-0.7,0.2-1.4,0.2-2c0-0.2,0-0.3,0-0.5s0-0.3,0-0.5H238.4z M248.9,429.7c-0.2,0-0.4,0-0.6-0.1
		c-0.3,0-0.5-0.1-0.6-0.2l0.2-1.5c0.1,0,0.3,0.1,0.5,0.1c0.2,0,0.3,0,0.5,0c0.6,0,1.1-0.2,1.4-0.6c0.3-0.4,0.4-1,0.4-1.7v-10.2h1.9
		v10.2c0,1.3-0.3,2.3-0.9,3C251,429.4,250.1,429.7,248.9,429.7z M251.6,413.7c-0.3,0-0.6-0.1-0.8-0.3c-0.2-0.2-0.4-0.5-0.4-0.9
		s0.1-0.7,0.4-0.9c0.2-0.2,0.5-0.3,0.8-0.3c0.3,0,0.6,0.1,0.9,0.3s0.3,0.5,0.3,0.9s-0.1,0.7-0.3,0.9S251.9,413.7,251.6,413.7z
		 M255.1,420.8c0-0.9,0.1-1.7,0.4-2.4c0.3-0.7,0.6-1.3,1.1-1.7s0.9-0.8,1.5-1c0.6-0.2,1.2-0.3,1.8-0.3c1.4,0,2.5,0.4,3.2,1.3
		c0.7,0.9,1.1,2.2,1.1,4v0.3c0,0.1,0,0.2,0,0.3h-7.1c0.1,1.1,0.4,1.9,0.9,2.5s1.4,0.8,2.6,0.8c0.7,0,1.2-0.1,1.6-0.2
		c0.4-0.1,0.8-0.2,1-0.3l0.3,1.6c-0.2,0.1-0.6,0.2-1.2,0.4c-0.6,0.1-1.2,0.2-1.9,0.2c-0.9,0-1.7-0.1-2.3-0.4
		c-0.7-0.3-1.2-0.6-1.6-1.1c-0.4-0.5-0.7-1.1-1-1.7C255.2,422.3,255.1,421.6,255.1,420.8z M262.3,419.8c0-0.8-0.2-1.5-0.6-2.1
		c-0.4-0.5-1-0.8-1.8-0.8c-0.4,0-0.8,0.1-1.1,0.2c-0.3,0.2-0.6,0.4-0.8,0.6c-0.2,0.3-0.4,0.6-0.5,0.9c-0.1,0.3-0.2,0.7-0.2,1.1
		H262.3z M273.6,417.8c-0.2-0.2-0.6-0.4-1-0.5c-0.4-0.2-0.9-0.3-1.4-0.3c-0.5,0-1,0.1-1.4,0.3s-0.7,0.5-0.9,0.8
		c-0.2,0.3-0.4,0.7-0.5,1.2c-0.1,0.5-0.2,1-0.2,1.5c0,1.2,0.3,2.2,0.9,2.8c0.6,0.7,1.4,1,2.4,1c0.5,0,0.9,0,1.3-0.1s0.6-0.1,0.8-0.1
		V417.8z M273.6,410.8l1.9-0.3v15.2c-0.4,0.1-1,0.2-1.6,0.4c-0.7,0.1-1.4,0.2-2.3,0.2c-0.8,0-1.5-0.1-2.2-0.4
		c-0.6-0.3-1.2-0.6-1.6-1.1s-0.8-1-1-1.7c-0.2-0.7-0.4-1.4-0.4-2.3c0-0.8,0.1-1.5,0.3-2.2c0.2-0.7,0.5-1.2,0.9-1.7
		c0.4-0.5,0.9-0.9,1.5-1.1c0.6-0.3,1.2-0.4,2-0.4c0.6,0,1.1,0.1,1.6,0.2c0.5,0.2,0.8,0.3,1,0.5V410.8z M278.1,420.8
		c0-0.9,0.1-1.7,0.4-2.4c0.3-0.7,0.6-1.3,1.1-1.7s0.9-0.8,1.5-1c0.6-0.2,1.2-0.3,1.8-0.3c1.4,0,2.5,0.4,3.2,1.3
		c0.7,0.9,1.1,2.2,1.1,4v0.3c0,0.1,0,0.2,0,0.3H280c0.1,1.1,0.4,1.9,0.9,2.5c0.5,0.6,1.4,0.8,2.6,0.8c0.7,0,1.2-0.1,1.7-0.2
		c0.4-0.1,0.8-0.2,1-0.3l0.3,1.6c-0.2,0.1-0.6,0.2-1.2,0.4s-1.2,0.2-1.9,0.2c-0.9,0-1.7-0.1-2.4-0.4c-0.7-0.3-1.2-0.6-1.6-1.1
		c-0.4-0.5-0.7-1.1-0.9-1.7C278.2,422.3,278.1,421.6,278.1,420.8z M285.2,419.8c0-0.8-0.2-1.5-0.6-2.1c-0.4-0.5-1-0.8-1.8-0.8
		c-0.4,0-0.8,0.1-1.1,0.2c-0.3,0.2-0.6,0.4-0.8,0.6c-0.2,0.3-0.4,0.6-0.5,0.9c-0.1,0.3-0.2,0.7-0.2,1.1H285.2z M293.7,415.4
		c0.2,0,0.3,0,0.6,0s0.4,0,0.6,0.1c0.2,0,0.4,0.1,0.6,0.1c0.2,0,0.3,0.1,0.4,0.1l-0.3,1.6c-0.1-0.1-0.4-0.1-0.7-0.2
		s-0.8-0.1-1.3-0.1c-0.3,0-0.7,0-1,0.1s-0.6,0.1-0.7,0.2v8.7h-1.9v-10c0.4-0.2,1-0.3,1.6-0.5C292.1,415.5,292.9,415.4,293.7,415.4z
		 M308.5,424.1c-0.1-0.3-0.3-0.7-0.5-1.2c-0.2-0.5-0.5-1-0.7-1.6s-0.5-1.2-0.8-1.8c-0.3-0.6-0.6-1.2-0.8-1.7c-0.3-0.5-0.5-1-0.7-1.4
		s-0.4-0.8-0.5-1c-0.1,1.6-0.3,3.3-0.4,5.1s-0.2,3.7-0.2,5.5h-1.9c0.1-1.2,0.1-2.4,0.2-3.6c0.1-1.2,0.1-2.4,0.2-3.6
		c0.1-1.2,0.2-2.3,0.3-3.4c0.1-1.1,0.2-2.2,0.3-3.2h1.7c0.4,0.6,0.7,1.3,1.2,2.1c0.4,0.8,0.8,1.6,1.2,2.5c0.4,0.9,0.8,1.7,1.2,2.6
		c0.4,0.9,0.7,1.7,1.1,2.4c0.3-0.7,0.7-1.5,1.1-2.4c0.4-0.9,0.8-1.7,1.2-2.6c0.4-0.9,0.8-1.7,1.2-2.5c0.4-0.8,0.8-1.5,1.2-2.1h1.7
		c0.5,4.5,0.8,9.1,1,13.9h-1.9c-0.1-1.9-0.1-3.7-0.2-5.5c-0.1-1.8-0.2-3.5-0.4-5.1c-0.1,0.2-0.3,0.6-0.5,1s-0.5,0.9-0.7,1.4
		c-0.3,0.5-0.5,1.1-0.8,1.7c-0.3,0.6-0.6,1.2-0.8,1.8c-0.3,0.6-0.5,1.1-0.7,1.6c-0.2,0.5-0.4,0.9-0.5,1.2H308.5z M319,420.8
		c0-0.9,0.1-1.7,0.4-2.4c0.3-0.7,0.6-1.3,1.1-1.7s0.9-0.8,1.5-1c0.6-0.2,1.2-0.3,1.8-0.3c1.4,0,2.5,0.4,3.2,1.3
		c0.7,0.9,1.1,2.2,1.1,4v0.3c0,0.1,0,0.2,0,0.3H321c0.1,1.1,0.4,1.9,0.9,2.5s1.4,0.8,2.6,0.8c0.7,0,1.2-0.1,1.6-0.2
		c0.4-0.1,0.8-0.2,1-0.3l0.3,1.6c-0.2,0.1-0.6,0.2-1.2,0.4s-1.2,0.2-1.9,0.2c-0.9,0-1.7-0.1-2.4-0.4c-0.7-0.3-1.2-0.6-1.6-1.1
		c-0.4-0.5-0.7-1.1-1-1.7C319.1,422.3,319,421.6,319,420.8z M326.2,419.8c0-0.8-0.2-1.5-0.6-2.1c-0.4-0.5-1-0.8-1.8-0.8
		c-0.4,0-0.8,0.1-1.1,0.2c-0.3,0.2-0.6,0.4-0.8,0.6s-0.4,0.6-0.5,0.9c-0.1,0.3-0.2,0.7-0.2,1.1H326.2z M330.8,415.9
		c0.4-0.1,1-0.2,1.7-0.3c0.7-0.1,1.5-0.2,2.4-0.2c0.8,0,1.5,0.1,2.1,0.4c0.5,0.2,1,0.6,1.3,1c0.3,0.4,0.6,0.9,0.7,1.5
		s0.2,1.2,0.2,1.9v5.8h-1.9v-5.4c0-0.6,0-1.2-0.1-1.6c-0.1-0.5-0.2-0.8-0.4-1.1c-0.2-0.3-0.5-0.5-0.8-0.6c-0.3-0.1-0.7-0.2-1.2-0.2
		c-0.2,0-0.4,0-0.6,0c-0.2,0-0.4,0-0.6,0s-0.4,0-0.5,0.1s-0.3,0-0.3,0.1v8.8h-1.9V415.9z M344.7,424.7c0.8,0,1.3-0.1,1.7-0.3
		c0.4-0.2,0.6-0.5,0.6-1c0-0.5-0.2-0.8-0.5-1.1c-0.4-0.3-1-0.6-1.8-0.9c-0.4-0.2-0.8-0.3-1.1-0.5c-0.4-0.2-0.7-0.4-1-0.6
		c-0.3-0.2-0.5-0.5-0.6-0.8c-0.2-0.3-0.2-0.7-0.2-1.2c0-0.9,0.3-1.6,1-2.2c0.7-0.5,1.6-0.8,2.8-0.8c0.3,0,0.6,0,0.9,0.1
		c0.3,0,0.6,0.1,0.8,0.1c0.3,0,0.5,0.1,0.7,0.1s0.3,0.1,0.4,0.1l-0.3,1.6c-0.2-0.1-0.5-0.2-0.9-0.3c-0.4-0.1-0.9-0.2-1.5-0.2
		c-0.5,0-1,0.1-1.4,0.3s-0.6,0.5-0.6,1c0,0.2,0,0.4,0.1,0.6c0.1,0.2,0.2,0.3,0.4,0.5c0.2,0.1,0.4,0.3,0.7,0.4c0.3,0.1,0.6,0.2,1,0.4
		c0.5,0.2,0.9,0.4,1.3,0.6c0.4,0.2,0.7,0.4,1,0.6c0.3,0.2,0.5,0.5,0.6,0.9s0.2,0.8,0.2,1.2c0,1-0.4,1.7-1.1,2.2
		c-0.7,0.5-1.7,0.7-3.1,0.7c-0.9,0-1.6-0.1-2.2-0.2c-0.5-0.2-0.9-0.3-1.1-0.4l0.3-1.6c0.2,0.1,0.6,0.2,1,0.4
		C343.3,424.6,343.9,424.7,344.7,424.7z M355.7,426.2c-0.8,0-1.6-0.1-2.2-0.4c-0.6-0.3-1.2-0.6-1.6-1.1c-0.4-0.5-0.8-1-1-1.7
		c-0.2-0.7-0.3-1.4-0.3-2.2c0-0.8,0.1-1.5,0.4-2.2c0.2-0.7,0.6-1.2,1-1.7c0.4-0.5,0.9-0.9,1.6-1.1c0.6-0.3,1.3-0.4,2.1-0.4
		c0.5,0,0.9,0,1.4,0.1c0.5,0.1,0.9,0.2,1.3,0.4l-0.4,1.6c-0.3-0.1-0.6-0.2-1-0.3c-0.4-0.1-0.8-0.1-1.2-0.1c-1,0-1.8,0.3-2.4,1
		c-0.6,0.7-0.8,1.6-0.8,2.9c0,0.6,0.1,1.1,0.2,1.5c0.1,0.5,0.3,0.9,0.6,1.2c0.3,0.3,0.6,0.6,1.1,0.8c0.4,0.2,0.9,0.3,1.6,0.3
		c0.5,0,0.9,0,1.3-0.1c0.4-0.1,0.7-0.2,0.9-0.3l0.3,1.6c-0.1,0.1-0.3,0.1-0.5,0.2c-0.2,0.1-0.4,0.1-0.7,0.2s-0.5,0.1-0.8,0.1
		C356.2,426.2,356,426.2,355.7,426.2z M360.5,426v-15.2l1.9-0.3v5.3c0.3-0.1,0.7-0.2,1.1-0.3c0.4-0.1,0.8-0.1,1.2-0.1
		c0.8,0,1.5,0.1,2.1,0.4s1,0.6,1.3,1c0.3,0.4,0.6,0.9,0.7,1.5s0.2,1.2,0.2,1.9v5.8H367v-5.4c0-0.6,0-1.2-0.1-1.6
		c-0.1-0.5-0.2-0.8-0.4-1.1c-0.2-0.3-0.5-0.5-0.8-0.6c-0.3-0.1-0.7-0.2-1.2-0.2c-0.2,0-0.4,0-0.6,0c-0.2,0-0.4,0.1-0.6,0.1
		s-0.4,0.1-0.5,0.1c-0.2,0-0.3,0.1-0.3,0.1v8.6H360.5z M375.9,420.8c0-0.9,0.1-1.7,0.4-2.4s0.6-1.3,1.1-1.7s0.9-0.8,1.5-1
		c0.6-0.2,1.2-0.3,1.8-0.3c1.4,0,2.5,0.4,3.2,1.3c0.7,0.9,1.1,2.2,1.1,4v0.3c0,0.1,0,0.2,0,0.3h-7.1c0.1,1.1,0.4,1.9,0.9,2.5
		s1.4,0.8,2.6,0.8c0.7,0,1.2-0.1,1.6-0.2c0.4-0.1,0.8-0.2,1-0.3l0.3,1.6c-0.2,0.1-0.6,0.2-1.2,0.4c-0.6,0.1-1.2,0.2-1.9,0.2
		c-0.9,0-1.7-0.1-2.4-0.4c-0.7-0.3-1.2-0.6-1.6-1.1c-0.4-0.5-0.7-1.1-1-1.7S375.9,421.6,375.9,420.8z M383.1,419.8
		c0-0.8-0.2-1.5-0.6-2.1c-0.4-0.5-1-0.8-1.8-0.8c-0.4,0-0.8,0.1-1.1,0.2c-0.3,0.2-0.6,0.4-0.8,0.6c-0.2,0.3-0.4,0.6-0.5,0.9
		c-0.1,0.3-0.2,0.7-0.2,1.1H383.1z M389.6,426h-1.9v-10.4h1.9V426z M388.6,413.7c-0.3,0-0.6-0.1-0.9-0.3s-0.3-0.5-0.3-0.9
		s0.1-0.7,0.3-0.9s0.5-0.3,0.9-0.3s0.6,0.1,0.9,0.3s0.4,0.5,0.4,0.9s-0.1,0.7-0.4,0.9S389,413.7,388.6,413.7z M392.8,415.9
		c0.4-0.1,1-0.2,1.7-0.3s1.5-0.2,2.4-0.2c0.8,0,1.5,0.1,2.1,0.4c0.5,0.2,1,0.6,1.3,1c0.3,0.4,0.6,0.9,0.7,1.5s0.2,1.2,0.2,1.9v5.8
		h-1.9v-5.4c0-0.6,0-1.2-0.1-1.6c-0.1-0.5-0.2-0.8-0.4-1.1c-0.2-0.3-0.5-0.5-0.8-0.6c-0.3-0.1-0.7-0.2-1.2-0.2c-0.2,0-0.4,0-0.6,0
		c-0.2,0-0.4,0-0.6,0s-0.4,0-0.5,0.1c-0.2,0-0.3,0-0.3,0.1v8.8h-1.9V415.9z M409,412.1h1.9V426H409V412.1z M414.2,415.9
		c0.4-0.1,1-0.2,1.7-0.3s1.5-0.2,2.4-0.2c0.8,0,1.5,0.1,2.1,0.4s1,0.6,1.3,1c0.3,0.4,0.6,0.9,0.7,1.5s0.2,1.2,0.2,1.9v5.8h-1.9v-5.4
		c0-0.6,0-1.2-0.1-1.6c-0.1-0.5-0.2-0.8-0.4-1.1s-0.5-0.5-0.8-0.6c-0.3-0.1-0.7-0.2-1.2-0.2c-0.2,0-0.4,0-0.6,0c-0.2,0-0.4,0-0.6,0
		c-0.2,0-0.4,0-0.5,0.1c-0.2,0-0.3,0-0.3,0.1v8.8h-1.9V415.9z M432.4,417.8c-0.2-0.2-0.6-0.4-1-0.5c-0.4-0.2-0.9-0.3-1.4-0.3
		c-0.5,0-1,0.1-1.4,0.3s-0.7,0.5-0.9,0.8c-0.2,0.3-0.4,0.7-0.5,1.2c-0.1,0.5-0.2,1-0.2,1.5c0,1.2,0.3,2.2,0.9,2.8
		c0.6,0.7,1.4,1,2.4,1c0.5,0,0.9,0,1.3-0.1s0.6-0.1,0.8-0.1V417.8z M432.4,410.8l1.9-0.3v15.2c-0.4,0.1-1,0.2-1.6,0.4
		c-0.7,0.1-1.4,0.2-2.3,0.2c-0.8,0-1.5-0.1-2.2-0.4c-0.6-0.3-1.2-0.6-1.6-1.1s-0.8-1-1-1.7c-0.2-0.7-0.4-1.4-0.4-2.3
		c0-0.8,0.1-1.5,0.3-2.2c0.2-0.7,0.5-1.2,0.9-1.7c0.4-0.5,0.9-0.9,1.5-1.1c0.6-0.3,1.2-0.4,2-0.4c0.6,0,1.1,0.1,1.6,0.2
		s0.8,0.3,1,0.5V410.8z M439.4,426h-1.9v-10.4h1.9V426z M438.4,413.7c-0.3,0-0.6-0.1-0.9-0.3s-0.4-0.5-0.4-0.9s0.1-0.7,0.4-0.9
		s0.5-0.3,0.9-0.3c0.3,0,0.6,0.1,0.8,0.3s0.4,0.5,0.4,0.9s-0.1,0.7-0.4,0.9S438.8,413.7,438.4,413.7z M450.7,415.6
		c-0.5,1.9-1.1,3.8-1.8,5.6c-0.7,1.8-1.4,3.4-2,4.8h-1.7c-0.7-1.4-1.3-3-2-4.8c-0.7-1.8-1.3-3.7-1.8-5.6h2c0.2,0.7,0.4,1.3,0.6,2.1
		c0.2,0.7,0.5,1.5,0.7,2.2c0.2,0.7,0.5,1.4,0.8,2.1c0.3,0.7,0.5,1.3,0.7,1.8c0.2-0.5,0.5-1.1,0.7-1.8c0.3-0.7,0.5-1.4,0.8-2.1
		c0.2-0.7,0.5-1.5,0.7-2.2c0.2-0.7,0.4-1.4,0.6-2.1H450.7z M454.5,426h-1.9v-10.4h1.9V426z M453.5,413.7c-0.3,0-0.6-0.1-0.8-0.3
		c-0.2-0.2-0.4-0.5-0.4-0.9s0.1-0.7,0.4-0.9c0.2-0.2,0.5-0.3,0.8-0.3c0.3,0,0.6,0.1,0.9,0.3s0.4,0.5,0.4,0.9s-0.1,0.7-0.4,0.9
		S453.9,413.7,453.5,413.7z M464.4,417.8c-0.2-0.2-0.6-0.4-1-0.5c-0.4-0.2-0.9-0.3-1.4-0.3c-0.5,0-1,0.1-1.4,0.3s-0.7,0.5-0.9,0.8
		c-0.2,0.3-0.4,0.7-0.5,1.2c-0.1,0.5-0.2,1-0.2,1.5c0,1.2,0.3,2.2,0.9,2.8c0.6,0.7,1.4,1,2.4,1c0.5,0,0.9,0,1.3-0.1s0.6-0.1,0.8-0.1
		V417.8z M464.4,410.8l1.9-0.3v15.2c-0.4,0.1-1,0.2-1.6,0.4c-0.7,0.1-1.4,0.2-2.3,0.2c-0.8,0-1.5-0.1-2.2-0.4
		c-0.6-0.3-1.2-0.6-1.6-1.1s-0.8-1-1-1.7c-0.2-0.7-0.4-1.4-0.4-2.3c0-0.8,0.1-1.5,0.3-2.2c0.2-0.7,0.5-1.2,0.9-1.7
		c0.4-0.5,0.9-0.9,1.5-1.1c0.6-0.3,1.2-0.4,2-0.4c0.6,0,1.1,0.1,1.6,0.2c0.5,0.2,0.8,0.3,1,0.5V410.8z M477.7,425.7
		c-0.4,0.1-1,0.2-1.7,0.3s-1.5,0.2-2.4,0.2c-0.8,0-1.5-0.1-2-0.4c-0.5-0.2-1-0.6-1.3-1c-0.3-0.4-0.6-0.9-0.7-1.5
		c-0.1-0.6-0.2-1.2-0.2-1.9v-5.8h1.9v5.4c0,1.3,0.2,2.2,0.6,2.7c0.4,0.5,1.1,0.8,2,0.8c0.2,0,0.4,0,0.6,0c0.2,0,0.4,0,0.6,0
		c0.2,0,0.4,0,0.5-0.1c0.2,0,0.3,0,0.3-0.1v-8.8h1.9V425.7z M489.2,425.7c-0.4,0.1-1,0.2-1.7,0.3c-0.7,0.1-1.5,0.2-2.4,0.2
		c-0.8,0-1.5-0.1-2-0.4s-1-0.6-1.3-1c-0.3-0.4-0.6-0.9-0.7-1.5c-0.1-0.6-0.2-1.2-0.2-1.9v-5.8h1.9v5.4c0,1.3,0.2,2.2,0.6,2.7
		c0.4,0.5,1.1,0.8,2,0.8c0.2,0,0.4,0,0.6,0c0.2,0,0.4,0,0.6,0c0.2,0,0.4,0,0.5-0.1c0.2,0,0.3,0,0.3-0.1v-8.8h1.9V425.7z
		 M492.4,415.9c0.4-0.1,1-0.2,1.7-0.3s1.5-0.2,2.4-0.2c0.7,0,1.2,0.1,1.7,0.3s0.8,0.4,1.1,0.8c0.1-0.1,0.2-0.2,0.4-0.3
		s0.4-0.2,0.7-0.4s0.6-0.2,1-0.3s0.7-0.1,1.2-0.1c0.8,0,1.5,0.1,2,0.4c0.5,0.2,0.9,0.6,1.2,1c0.3,0.4,0.5,0.9,0.6,1.5
		c0.1,0.6,0.1,1.2,0.1,1.9v5.8h-1.9v-5.4c0-0.6,0-1.1-0.1-1.6s-0.2-0.8-0.3-1.1s-0.4-0.5-0.7-0.6c-0.3-0.1-0.7-0.2-1.1-0.2
		c-0.6,0-1.1,0.1-1.5,0.2c-0.4,0.2-0.7,0.3-0.8,0.5c0.1,0.3,0.2,0.7,0.2,1.1c0.1,0.4,0.1,0.8,0.1,1.3v5.8h-1.9v-5.4
		c0-0.6,0-1.1-0.1-1.6c-0.1-0.4-0.2-0.8-0.4-1.1s-0.4-0.5-0.7-0.6c-0.3-0.1-0.6-0.2-1.1-0.2c-0.2,0-0.4,0-0.6,0c-0.2,0-0.4,0-0.6,0
		c-0.2,0-0.4,0-0.5,0.1c-0.2,0-0.3,0-0.3,0.1v8.8h-1.9V415.9z M109.9,448.7c-0.4,0.1-1,0.2-1.7,0.3s-1.5,0.2-2.4,0.2
		c-0.8,0-1.5-0.1-2-0.4s-1-0.6-1.3-1s-0.6-0.9-0.7-1.5c-0.1-0.6-0.2-1.2-0.2-1.9v-5.8h1.9v5.4c0,1.3,0.2,2.2,0.6,2.7
		c0.4,0.5,1.1,0.8,2,0.8c0.2,0,0.4,0,0.6,0s0.4,0,0.6,0c0.2,0,0.4,0,0.5-0.1c0.2,0,0.3,0,0.3-0.1v-8.8h1.9V448.7z M113.1,438.9
		c0.4-0.1,1-0.2,1.7-0.3c0.7-0.1,1.5-0.2,2.4-0.2c0.8,0,1.5,0.1,2.1,0.4s1,0.6,1.3,1c0.3,0.4,0.6,0.9,0.7,1.5
		c0.1,0.6,0.2,1.2,0.2,1.9v5.8h-1.9v-5.4c0-0.6,0-1.2-0.1-1.6c-0.1-0.5-0.2-0.8-0.4-1.1c-0.2-0.3-0.5-0.5-0.8-0.6
		c-0.3-0.1-0.7-0.2-1.2-0.2c-0.2,0-0.4,0-0.6,0s-0.4,0-0.6,0s-0.4,0-0.5,0.1c-0.2,0-0.3,0-0.3,0.1v8.8h-1.9V438.9z M131.3,440.8
		c-0.2-0.2-0.6-0.4-1-0.5c-0.4-0.2-0.9-0.3-1.4-0.3c-0.5,0-1,0.1-1.4,0.3c-0.4,0.2-0.7,0.5-0.9,0.8c-0.2,0.3-0.4,0.7-0.5,1.2
		c-0.1,0.5-0.2,1-0.2,1.5c0,1.2,0.3,2.2,0.9,2.8c0.6,0.7,1.4,1,2.4,1c0.5,0,0.9,0,1.3-0.1c0.3,0,0.6-0.1,0.8-0.1V440.8z
		 M131.3,433.8l1.9-0.3v15.2c-0.4,0.1-1,0.2-1.6,0.4s-1.4,0.2-2.3,0.2c-0.8,0-1.5-0.1-2.2-0.4c-0.6-0.3-1.2-0.6-1.6-1.1
		c-0.5-0.5-0.8-1-1.1-1.7s-0.4-1.4-0.4-2.3c0-0.8,0.1-1.5,0.3-2.2c0.2-0.7,0.5-1.2,0.9-1.7s0.9-0.9,1.5-1.1s1.2-0.4,2-0.4
		c0.6,0,1.1,0.1,1.6,0.2s0.8,0.3,1,0.5V433.8z M141,438.9c0.4-0.1,1-0.2,1.7-0.3c0.7-0.1,1.5-0.2,2.4-0.2c0.8,0,1.5,0.1,2.1,0.4
		c0.5,0.2,1,0.6,1.3,1c0.3,0.4,0.6,0.9,0.7,1.5s0.2,1.2,0.2,1.9v5.8h-1.9v-5.4c0-0.6,0-1.2-0.1-1.6c-0.1-0.5-0.2-0.8-0.4-1.1
		s-0.5-0.5-0.8-0.6c-0.3-0.1-0.7-0.2-1.2-0.2c-0.2,0-0.4,0-0.6,0s-0.4,0-0.6,0s-0.4,0-0.5,0.1c-0.2,0-0.3,0-0.3,0.1v8.8H141V438.9z
		 M160.7,448.7c-0.4,0.1-1,0.2-1.7,0.3c-0.7,0.1-1.5,0.2-2.4,0.2c-0.8,0-1.5-0.1-2-0.4c-0.5-0.2-1-0.6-1.3-1
		c-0.3-0.4-0.6-0.9-0.7-1.5c-0.1-0.6-0.2-1.2-0.2-1.9v-5.8h1.9v5.4c0,1.3,0.2,2.2,0.6,2.7c0.4,0.5,1.1,0.8,2,0.8c0.2,0,0.4,0,0.6,0
		s0.4,0,0.6,0c0.2,0,0.4,0,0.5-0.1c0.2,0,0.3,0,0.3-0.1v-8.8h1.9V448.7z M167.8,438.4c0.2,0,0.3,0,0.6,0s0.4,0,0.6,0.1
		c0.2,0,0.4,0.1,0.6,0.1s0.3,0.1,0.4,0.1l-0.3,1.6c-0.1-0.1-0.4-0.1-0.7-0.2c-0.3-0.1-0.8-0.1-1.3-0.1c-0.3,0-0.7,0-1,0.1
		c-0.3,0.1-0.6,0.1-0.7,0.2v8.7h-1.9v-10c0.4-0.2,1-0.3,1.6-0.5C166.2,438.5,166.9,438.4,167.8,438.4z M175.7,443.8
		c0-0.9,0.1-1.7,0.4-2.4s0.6-1.3,1.1-1.7s0.9-0.8,1.5-1c0.6-0.2,1.2-0.3,1.8-0.3c1.4,0,2.5,0.4,3.2,1.3c0.7,0.9,1.1,2.2,1.1,4v0.3
		c0,0.1,0,0.2,0,0.3h-7.1c0.1,1.1,0.4,1.9,0.9,2.5c0.5,0.6,1.4,0.8,2.6,0.8c0.7,0,1.2-0.1,1.7-0.2c0.4-0.1,0.8-0.2,1-0.3l0.3,1.6
		c-0.2,0.1-0.6,0.2-1.2,0.4c-0.6,0.1-1.2,0.2-1.9,0.2c-0.9,0-1.7-0.1-2.3-0.4c-0.7-0.3-1.2-0.6-1.6-1.1c-0.4-0.5-0.7-1.1-0.9-1.7
		C175.8,445.3,175.7,444.6,175.7,443.8z M182.8,442.8c0-0.8-0.2-1.5-0.6-2.1c-0.4-0.5-1-0.8-1.8-0.8c-0.4,0-0.8,0.1-1.1,0.2
		c-0.3,0.2-0.6,0.4-0.8,0.6s-0.4,0.6-0.5,0.9c-0.1,0.3-0.2,0.7-0.2,1.1H182.8z M189.3,449h-1.9v-10.4h1.9V449z M188.4,436.7
		c-0.3,0-0.6-0.1-0.9-0.3c-0.2-0.2-0.3-0.5-0.3-0.9s0.1-0.7,0.3-0.9c0.2-0.2,0.5-0.3,0.9-0.3s0.6,0.1,0.9,0.3
		c0.2,0.2,0.3,0.5,0.3,0.9s-0.1,0.7-0.3,0.9C189,436.6,188.7,436.7,188.4,436.7z M192.5,438.9c0.4-0.1,1-0.2,1.7-0.3
		c0.7-0.1,1.5-0.2,2.4-0.2c0.8,0,1.5,0.1,2.1,0.4c0.5,0.2,1,0.6,1.3,1c0.3,0.4,0.6,0.9,0.7,1.5s0.2,1.2,0.2,1.9v5.8H199v-5.4
		c0-0.6,0-1.2-0.1-1.6c-0.1-0.5-0.2-0.8-0.4-1.1c-0.2-0.3-0.5-0.5-0.8-0.6c-0.3-0.1-0.7-0.2-1.2-0.2c-0.2,0-0.4,0-0.6,0
		c-0.2,0-0.4,0-0.6,0c-0.2,0-0.4,0-0.5,0.1s-0.3,0-0.3,0.1v8.8h-1.9V438.9z M203.4,443.8c0-0.9,0.1-1.7,0.4-2.4
		c0.3-0.7,0.6-1.3,1.1-1.7s0.9-0.8,1.5-1c0.6-0.2,1.2-0.3,1.8-0.3c1.4,0,2.5,0.4,3.2,1.3c0.7,0.9,1.1,2.2,1.1,4v0.3
		c0,0.1,0,0.2,0,0.3h-7.1c0.1,1.1,0.4,1.9,0.9,2.5c0.5,0.6,1.4,0.8,2.6,0.8c0.7,0,1.2-0.1,1.7-0.2c0.4-0.1,0.8-0.2,1-0.3l0.3,1.6
		c-0.2,0.1-0.6,0.2-1.2,0.4c-0.6,0.1-1.2,0.2-1.9,0.2c-0.9,0-1.7-0.1-2.4-0.4c-0.7-0.3-1.2-0.6-1.6-1.1c-0.4-0.5-0.7-1.1-0.9-1.7
		C203.5,445.3,203.4,444.6,203.4,443.8z M210.5,442.8c0-0.8-0.2-1.5-0.6-2.1c-0.4-0.5-1-0.8-1.8-0.8c-0.4,0-0.8,0.1-1.1,0.2
		c-0.3,0.2-0.6,0.4-0.8,0.6s-0.4,0.6-0.5,0.9c-0.1,0.3-0.2,0.7-0.2,1.1H210.5z M223.1,447.6c2,0,3-0.7,3-2.1c0-0.4-0.1-0.8-0.3-1.1
		c-0.2-0.3-0.4-0.6-0.7-0.8s-0.7-0.4-1.1-0.6s-0.8-0.3-1.2-0.5c-0.5-0.2-1-0.4-1.4-0.6s-0.8-0.5-1.2-0.8c-0.3-0.3-0.6-0.7-0.8-1.1
		c-0.2-0.4-0.3-0.9-0.3-1.5c0-1.2,0.4-2.2,1.2-2.8c0.8-0.7,2-1,3.4-1c0.8,0,1.6,0.1,2.3,0.3s1.2,0.4,1.5,0.6l-0.6,1.6
		c-0.3-0.2-0.7-0.3-1.2-0.5s-1.2-0.2-1.9-0.2c-0.4,0-0.7,0-1,0.1c-0.3,0.1-0.6,0.2-0.8,0.4s-0.4,0.4-0.6,0.6s-0.2,0.5-0.2,0.9
		c0,0.4,0.1,0.7,0.2,0.9s0.4,0.5,0.6,0.7s0.6,0.4,0.9,0.5c0.4,0.2,0.7,0.3,1.2,0.5c0.6,0.2,1.1,0.5,1.6,0.7c0.5,0.2,0.9,0.5,1.3,0.9
		s0.6,0.7,0.8,1.2c0.2,0.5,0.3,1,0.3,1.7c0,1.2-0.4,2.1-1.3,2.8c-0.9,0.7-2.1,1-3.8,1c-0.5,0-1,0-1.5-0.1s-0.9-0.2-1.2-0.3
		s-0.7-0.2-0.9-0.3c-0.3-0.1-0.5-0.2-0.6-0.3l0.6-1.6c0.3,0.2,0.8,0.4,1.4,0.6C221.4,447.5,222.2,447.6,223.1,447.6z M237.6,443.8
		c0-1.2-0.3-2.1-0.9-2.8c-0.6-0.7-1.4-1-2.4-1c-0.6,0-1,0-1.3,0.1s-0.6,0.1-0.8,0.1v6.6c0.2,0.2,0.6,0.4,1,0.5
		c0.4,0.2,0.9,0.3,1.4,0.3c0.5,0,1-0.1,1.4-0.3s0.7-0.5,0.9-0.8c0.2-0.3,0.4-0.7,0.5-1.2C237.6,444.9,237.6,444.4,237.6,443.8z
		 M239.6,443.8c0,0.8-0.1,1.5-0.3,2.2s-0.5,1.2-0.9,1.7c-0.4,0.5-0.9,0.9-1.5,1.1s-1.2,0.4-2,0.4c-0.6,0-1.1-0.1-1.6-0.2
		s-0.8-0.3-1-0.5v4.2h-1.9v-13.8c0.4-0.1,1-0.2,1.7-0.4c0.7-0.1,1.4-0.2,2.3-0.2c0.8,0,1.5,0.1,2.2,0.4c0.6,0.3,1.2,0.6,1.6,1.1
		s0.8,1,1.1,1.7C239.5,442.2,239.6,443,239.6,443.8z M246,438.4c0.2,0,0.3,0,0.6,0s0.4,0,0.6,0.1c0.2,0,0.4,0.1,0.6,0.1
		s0.3,0.1,0.4,0.1l-0.3,1.6c-0.1-0.1-0.4-0.1-0.7-0.2c-0.3-0.1-0.8-0.1-1.3-0.1c-0.3,0-0.7,0-1,0.1c-0.3,0.1-0.6,0.1-0.7,0.2v8.7
		h-1.9v-10c0.4-0.2,1-0.3,1.6-0.5C244.5,438.5,245.2,438.4,246,438.4z M253.4,447.7c0.4,0,0.8,0,1.2,0c0.3,0,0.6-0.1,0.9-0.1v-3.1
		c-0.1-0.1-0.4-0.1-0.7-0.2s-0.7-0.1-1.1-0.1c-0.3,0-0.6,0-0.9,0.1c-0.3,0-0.6,0.1-0.9,0.2c-0.3,0.1-0.5,0.3-0.6,0.5
		c-0.2,0.2-0.3,0.5-0.3,0.9c0,0.7,0.2,1.1,0.6,1.4C252.1,447.5,252.7,447.7,253.4,447.7z M253.3,438.3c0.7,0,1.4,0.1,1.9,0.3
		s0.9,0.5,1.2,0.8s0.5,0.8,0.7,1.3c0.1,0.5,0.2,1,0.2,1.6v6.5c-0.2,0-0.4,0.1-0.7,0.1c-0.3,0-0.6,0.1-1,0.1s-0.8,0.1-1.2,0.1
		c-0.4,0-0.8,0-1.2,0c-0.6,0-1.1-0.1-1.6-0.2c-0.5-0.1-0.9-0.3-1.3-0.6c-0.4-0.3-0.6-0.6-0.8-1c-0.2-0.4-0.3-0.9-0.3-1.5
		c0-0.6,0.1-1.1,0.4-1.5c0.2-0.4,0.6-0.7,0.9-1c0.4-0.3,0.9-0.4,1.4-0.6c0.5-0.1,1.1-0.2,1.7-0.2c0.2,0,0.4,0,0.6,0
		c0.2,0,0.4,0,0.6,0.1c0.2,0,0.3,0.1,0.5,0.1c0.1,0,0.2,0,0.3,0.1v-0.5c0-0.3,0-0.6-0.1-0.9c-0.1-0.3-0.2-0.6-0.4-0.8
		s-0.4-0.4-0.7-0.6c-0.3-0.1-0.7-0.2-1.2-0.2c-0.6,0-1.1,0-1.6,0.1c-0.5,0.1-0.8,0.2-1,0.3l-0.2-1.5c0.2-0.1,0.6-0.2,1.2-0.3
		C252,438.4,252.6,438.3,253.3,438.3z M264.9,449.2c-0.8,0-1.6-0.1-2.2-0.4c-0.6-0.3-1.2-0.6-1.6-1.1c-0.4-0.5-0.8-1-1-1.7
		c-0.2-0.7-0.3-1.4-0.3-2.2c0-0.8,0.1-1.5,0.4-2.2c0.2-0.7,0.6-1.2,1-1.7c0.4-0.5,1-0.9,1.6-1.1s1.3-0.4,2.1-0.4
		c0.5,0,0.9,0,1.4,0.1c0.5,0.1,0.9,0.2,1.3,0.4l-0.4,1.6c-0.3-0.1-0.6-0.2-1-0.3c-0.4-0.1-0.8-0.1-1.2-0.1c-1,0-1.8,0.3-2.4,1
		c-0.6,0.7-0.8,1.6-0.8,2.9c0,0.6,0.1,1.1,0.2,1.5c0.1,0.5,0.3,0.9,0.6,1.2c0.3,0.3,0.6,0.6,1,0.8c0.4,0.2,0.9,0.3,1.6,0.3
		c0.5,0,0.9,0,1.3-0.1c0.4-0.1,0.7-0.2,0.9-0.3l0.3,1.6c-0.1,0.1-0.3,0.1-0.5,0.2c-0.2,0.1-0.4,0.1-0.7,0.2c-0.3,0-0.5,0.1-0.8,0.1
		C265.4,449.2,265.1,449.2,264.9,449.2z M269.7,449v-15.2l1.9-0.3v5.3c0.3-0.1,0.7-0.2,1.1-0.3s0.8-0.1,1.2-0.1
		c0.8,0,1.5,0.1,2.1,0.4c0.5,0.2,1,0.6,1.3,1c0.3,0.4,0.6,0.9,0.7,1.5c0.1,0.6,0.2,1.2,0.2,1.9v5.8h-1.9v-5.4c0-0.6,0-1.2-0.1-1.6
		c-0.1-0.5-0.2-0.8-0.4-1.1c-0.2-0.3-0.5-0.5-0.8-0.6c-0.3-0.1-0.7-0.2-1.2-0.2c-0.2,0-0.4,0-0.6,0c-0.2,0-0.4,0.1-0.6,0.1
		s-0.4,0.1-0.5,0.1c-0.2,0-0.3,0.1-0.3,0.1v8.6H269.7z M280.5,443.8c0-0.9,0.1-1.7,0.4-2.4s0.6-1.3,1.1-1.7s0.9-0.8,1.5-1
		c0.6-0.2,1.2-0.3,1.8-0.3c1.4,0,2.5,0.4,3.2,1.3c0.7,0.9,1.1,2.2,1.1,4v0.3c0,0.1,0,0.2,0,0.3h-7.1c0.1,1.1,0.4,1.9,0.9,2.5
		s1.4,0.8,2.6,0.8c0.7,0,1.2-0.1,1.6-0.2c0.4-0.1,0.8-0.2,1-0.3l0.3,1.6c-0.2,0.1-0.6,0.2-1.2,0.4c-0.6,0.1-1.2,0.2-1.9,0.2
		c-0.9,0-1.7-0.1-2.3-0.4c-0.7-0.3-1.2-0.6-1.6-1.1c-0.4-0.5-0.7-1.1-1-1.7S280.5,444.6,280.5,443.8z M287.6,442.8
		c0-0.8-0.2-1.5-0.6-2.1c-0.4-0.5-1-0.8-1.8-0.8c-0.4,0-0.8,0.1-1.1,0.2c-0.3,0.2-0.6,0.4-0.8,0.6c-0.2,0.3-0.4,0.6-0.5,0.9
		c-0.1,0.3-0.2,0.7-0.2,1.1H287.6z M294.5,447.9c0,0.4-0.1,0.7-0.4,0.9c-0.2,0.3-0.6,0.4-1,0.4s-0.7-0.1-1-0.4
		c-0.2-0.3-0.4-0.6-0.4-0.9c0-0.4,0.1-0.7,0.4-0.9c0.2-0.3,0.6-0.4,1-0.4s0.7,0.1,1,0.4C294.3,447.2,294.5,447.6,294.5,447.9z
		 M301.9,435.1h1.9V449h-1.9V435.1z M307.2,449v-15.2l1.9-0.3v5.3c0.3-0.1,0.7-0.2,1.1-0.3s0.8-0.1,1.2-0.1c0.8,0,1.5,0.1,2.1,0.4
		s1,0.6,1.3,1c0.3,0.4,0.6,0.9,0.7,1.5s0.2,1.2,0.2,1.9v5.8h-1.9v-5.4c0-0.6,0-1.2-0.1-1.6c-0.1-0.5-0.2-0.8-0.4-1.1
		s-0.5-0.5-0.8-0.6c-0.3-0.1-0.7-0.2-1.2-0.2c-0.2,0-0.4,0-0.6,0s-0.4,0.1-0.6,0.1c-0.2,0-0.4,0.1-0.5,0.1c-0.2,0-0.3,0.1-0.3,0.1
		v8.6H307.2z M322.4,438.4c0.2,0,0.3,0,0.5,0s0.4,0,0.6,0.1c0.2,0,0.4,0.1,0.5,0.1c0.2,0,0.3,0.1,0.4,0.1l-0.3,1.6
		c-0.1-0.1-0.4-0.1-0.7-0.2s-0.8-0.1-1.3-0.1c-0.3,0-0.7,0-1,0.1s-0.6,0.1-0.7,0.2v8.7h-1.9v-10c0.4-0.2,1-0.3,1.6-0.5
		C320.9,438.5,321.6,438.4,322.4,438.4z M325.7,443.8c0-0.9,0.1-1.7,0.4-2.4c0.3-0.7,0.6-1.3,1.1-1.7s0.9-0.8,1.5-1
		c0.6-0.2,1.2-0.3,1.8-0.3c1.4,0,2.5,0.4,3.2,1.3c0.7,0.9,1.1,2.2,1.1,4v0.3c0,0.1,0,0.2,0,0.3h-7.1c0.1,1.1,0.4,1.9,0.9,2.5
		s1.4,0.8,2.6,0.8c0.7,0,1.2-0.1,1.6-0.2c0.4-0.1,0.8-0.2,1-0.3l0.3,1.6c-0.2,0.1-0.6,0.2-1.2,0.4c-0.6,0.1-1.2,0.2-1.9,0.2
		c-0.9,0-1.7-0.1-2.4-0.4c-0.7-0.3-1.2-0.6-1.6-1.1c-0.4-0.5-0.7-1.1-1-1.7S325.7,444.6,325.7,443.8z M332.9,442.8
		c0-0.8-0.2-1.5-0.6-2.1c-0.4-0.5-1-0.8-1.8-0.8c-0.4,0-0.8,0.1-1.1,0.2c-0.3,0.2-0.6,0.4-0.8,0.6s-0.4,0.6-0.5,0.9
		c-0.1,0.3-0.2,0.7-0.2,1.1H332.9z M341.5,443.8c0-0.9,0.1-1.7,0.4-2.4s0.6-1.3,1.1-1.7s0.9-0.8,1.5-1c0.6-0.2,1.2-0.3,1.8-0.3
		c1.4,0,2.5,0.4,3.2,1.3c0.7,0.9,1.1,2.2,1.1,4v0.3c0,0.1,0,0.2,0,0.3h-7.1c0.1,1.1,0.4,1.9,0.9,2.5c0.5,0.6,1.4,0.8,2.6,0.8
		c0.7,0,1.2-0.1,1.6-0.2c0.4-0.1,0.8-0.2,1-0.3l0.3,1.6c-0.2,0.1-0.6,0.2-1.2,0.4c-0.6,0.1-1.2,0.2-1.9,0.2c-0.9,0-1.7-0.1-2.4-0.4
		c-0.7-0.3-1.2-0.6-1.6-1.1c-0.4-0.5-0.7-1.1-0.9-1.7S341.5,444.6,341.5,443.8z M348.7,442.8c0-0.8-0.2-1.5-0.6-2.1
		c-0.4-0.5-1-0.8-1.8-0.8c-0.4,0-0.8,0.1-1.1,0.2c-0.3,0.2-0.6,0.4-0.8,0.6c-0.2,0.3-0.4,0.6-0.5,0.9c-0.1,0.3-0.2,0.7-0.2,1.1
		H348.7z M355.2,449h-1.9v-10.4h1.9V449z M354.2,436.7c-0.3,0-0.6-0.1-0.9-0.3s-0.4-0.5-0.4-0.9s0.1-0.7,0.4-0.9s0.5-0.3,0.9-0.3
		s0.6,0.1,0.9,0.3s0.4,0.5,0.4,0.9s-0.1,0.7-0.4,0.9S354.6,436.7,354.2,436.7z M364.9,448c-0.2,0.1-0.5,0.2-0.9,0.4
		c-0.5,0.2-1,0.2-1.6,0.2c-0.6,0-1.2-0.1-1.8-0.3c-0.6-0.2-1-0.5-1.5-0.9c-0.4-0.4-0.7-0.9-1-1.6c-0.2-0.6-0.4-1.4-0.4-2.2
		c0-0.8,0.1-1.5,0.3-2.1c0.2-0.6,0.6-1.2,1-1.6c0.4-0.5,1-0.8,1.6-1.1c0.6-0.3,1.3-0.4,2.1-0.4c0.9,0,1.6,0.1,2.3,0.2
		c0.6,0.1,1.2,0.2,1.6,0.4v9.3c0,1.6-0.4,2.8-1.2,3.5c-0.8,0.7-2.1,1.1-3.8,1.1c-0.7,0-1.3-0.1-1.9-0.2c-0.6-0.1-1.1-0.2-1.5-0.4
		l0.3-1.6c0.4,0.1,0.8,0.3,1.4,0.4c0.5,0.1,1.1,0.2,1.7,0.2c1.1,0,1.9-0.2,2.4-0.7s0.7-1.1,0.7-2.1V448z M364.9,440.2
		c-0.2-0.1-0.4-0.1-0.8-0.1c-0.3,0-0.7-0.1-1.3-0.1c-1,0-1.8,0.3-2.3,1s-0.8,1.5-0.8,2.6c0,0.6,0.1,1.1,0.2,1.5
		c0.2,0.4,0.4,0.8,0.6,1.1c0.3,0.3,0.6,0.5,0.9,0.6s0.7,0.2,1,0.2c0.5,0,0.9-0.1,1.4-0.2c0.4-0.1,0.7-0.3,1-0.5V440.2z M369.3,443.8
		c0-0.9,0.1-1.7,0.4-2.4s0.6-1.3,1.1-1.7s0.9-0.8,1.5-1c0.6-0.2,1.2-0.3,1.8-0.3c1.4,0,2.5,0.4,3.2,1.3c0.7,0.9,1.1,2.2,1.1,4v0.3
		c0,0.1,0,0.2,0,0.3h-7.1c0.1,1.1,0.4,1.9,0.9,2.5s1.4,0.8,2.6,0.8c0.7,0,1.2-0.1,1.6-0.2c0.4-0.1,0.8-0.2,1-0.3l0.3,1.6
		c-0.2,0.1-0.6,0.2-1.2,0.4c-0.6,0.1-1.2,0.2-1.9,0.2c-0.9,0-1.7-0.1-2.3-0.4c-0.7-0.3-1.2-0.6-1.6-1.1c-0.4-0.5-0.7-1.1-1-1.7
		S369.3,444.6,369.3,443.8z M376.5,442.8c0-0.8-0.2-1.5-0.6-2.1c-0.4-0.5-1-0.8-1.8-0.8c-0.4,0-0.8,0.1-1.1,0.2
		c-0.3,0.2-0.6,0.4-0.8,0.6c-0.2,0.3-0.4,0.6-0.5,0.9c-0.1,0.3-0.2,0.7-0.2,1.1H376.5z M381.1,438.9c0.4-0.1,1-0.2,1.7-0.3
		c0.7-0.1,1.5-0.2,2.4-0.2c0.8,0,1.5,0.1,2.1,0.4c0.5,0.2,1,0.6,1.3,1c0.3,0.4,0.6,0.9,0.7,1.5s0.2,1.2,0.2,1.9v5.8h-1.9v-5.4
		c0-0.6,0-1.2-0.1-1.6c-0.1-0.5-0.2-0.8-0.4-1.1c-0.2-0.3-0.5-0.5-0.8-0.6c-0.3-0.1-0.7-0.2-1.2-0.2c-0.2,0-0.4,0-0.6,0
		c-0.2,0-0.4,0-0.6,0s-0.4,0-0.5,0.1c-0.2,0-0.3,0-0.3,0.1v8.8h-1.9V438.9z M392,443.8c0-0.9,0.1-1.7,0.4-2.4s0.6-1.3,1.1-1.7
		s0.9-0.8,1.5-1c0.6-0.2,1.2-0.3,1.8-0.3c1.4,0,2.5,0.4,3.2,1.3c0.7,0.9,1.1,2.2,1.1,4v0.3c0,0.1,0,0.2,0,0.3h-7.1
		c0.1,1.1,0.4,1.9,0.9,2.5s1.4,0.8,2.6,0.8c0.7,0,1.2-0.1,1.6-0.2c0.4-0.1,0.8-0.2,1-0.3l0.3,1.6c-0.2,0.1-0.6,0.2-1.2,0.4
		c-0.6,0.1-1.2,0.2-1.9,0.2c-0.9,0-1.7-0.1-2.3-0.4c-0.7-0.3-1.2-0.6-1.6-1.1c-0.4-0.5-0.7-1.1-1-1.7S392,444.6,392,443.8z
		 M399.1,442.8c0-0.8-0.2-1.5-0.6-2.1c-0.4-0.5-1-0.8-1.8-0.8c-0.4,0-0.8,0.1-1.1,0.2c-0.3,0.2-0.6,0.4-0.8,0.6
		c-0.2,0.3-0.4,0.6-0.5,0.9c-0.1,0.3-0.2,0.7-0.2,1.1H399.1z M406,447.9c0,0.4-0.1,0.7-0.4,0.9c-0.2,0.3-0.6,0.4-1,0.4
		s-0.7-0.1-1-0.4c-0.2-0.3-0.4-0.6-0.4-0.9c0-0.4,0.1-0.7,0.4-0.9c0.2-0.3,0.6-0.4,1-0.4s0.7,0.1,1,0.4
		C405.8,447.2,406,447.6,406,447.9z"/>
</g>
</svg>
