<?xml version="1.0" encoding="utf-8"?>
<!-- Generator: Adobe Illustrator 22.1.0, SVG Export Plug-In . SVG Version: 6.00 Build 0)  -->
<svg version="1.1" id="Ebene_1" xmlns="http://www.w3.org/2000/svg" xmlns:xlink="http://www.w3.org/1999/xlink" x="0px" y="0px"
	 viewBox="0 0 1540 1080" style="enable-background:new 0 0 1540 1080;" xml:space="preserve">
<style type="text/css">
	.st0{fill:#B4D6C6;}
	.st1{fill:#1B3440;}
</style>
<rect class="st0" width="1540" height="1080"/>
<title>querformat_Text</title>
<g>
	<path class="st1" d="M105.6,103.7l1.6-11.1h51.3l94.2,142.1V109.9l-27.1-6.2l1.8-11.1H297l-1.9,11.1l-24.5,5.6v165.4l-22.4,4.5
		L151,134.1v124.1l26.8,5l-1.6,11.7h-69.6l1.2-10.8l24.5-6.9v-146L105.6,103.7z"/>
	<path class="st1" d="M350.9,279.2c-9.5,0-18.4-2.6-26.9-7.7c-8.4-5.1-15.3-12.8-20.4-22.9c-5.2-10.2-7.8-22.3-7.8-36.5
		c0-14,3-26.2,8.9-36.6c5.9-10.4,13.5-18.5,22.8-24c9.3-5.6,18.8-8.3,28.6-8.3c7.2,0,13.8,1.8,19.8,5.3c6,3.6,10.7,8.8,14.1,15.8
		c3.5,7,5.2,15.5,5.2,25.4c0,2.2-0.2,5.3-0.7,9.3s-1,7.2-1.6,9.7l-70.9,0.9c0.4,8.2,2.1,16.2,5.3,23.9c3.1,7.7,7.7,14,13.7,19
		c6,4.9,13.3,7.4,21.9,7.4c4.7,0,8.4-0.1,11.1-0.4c2.7-0.2,5.9-1,9.5-2.1c3.6-1.2,7.8-3,12.6-5.6l3.1,7.8c-5.9,6.2-13,11-21.3,14.4
		S360.4,279.2,350.9,279.2z M348.8,157.5c-4.1,0-8.1,1.5-12,4.5s-7.2,7.5-9.9,13.6c-2.7,6.1-4.3,13.6-4.8,22.6l46-3.4
		c0.3-1.1,0.5-2.7,0.7-4.8c0.1-2.1,0.2-3.9,0.2-5.3C369,166.6,362.3,157.5,348.8,157.5z"/>
	<path class="st1" d="M425.5,168.2l-20.2-8.1l2.1-11.6l39.3-3.1l3.7,3.5v79.4c0,19.8,7.5,29.7,22.6,29.7c6.2,0,11.4-1,15.6-2.9
		c4.2-2,8.1-4.7,11.6-8.3V169l-23.3-6.2l1.5-13.5l43.1-4l3.1,3.5v94.3c0,4.7,0.6,8.2,1.8,10.6c1.2,2.4,2.9,4.1,4.9,5.1
		c2.1,1,5.1,1.9,9.1,2.8l6.7,1.5l-1.3,12.2c-4.6,1.1-8.3,1.8-11.3,2.2c-2.9,0.4-6.5,0.6-10.8,0.6c-7,0-12.4-2-16-5.9
		s-5.5-9-5.5-15.4v-1.3H500c-10.4,15-24.3,22.6-41.9,22.6c-10.2,0-18.1-3.3-24-10c-5.8-6.7-8.7-17.5-8.7-32.4v-67.5H425.5z"/>
	<path class="st1" d="M564.2,163.1h-18.6v-7.9c6-4.9,12.2-10.9,18.6-18c6.4-7.1,12.3-14.3,17.6-21.5h7.8v34.9H631l-1.3,12.9h-40.4
		l-0.4,64.7c0,7.3,0.7,13.1,2.2,17.3s3.8,7.2,6.9,8.9c3.1,1.8,7.3,2.6,12.5,2.6c3.2,0,6.4-0.6,9.5-1.8s5.8-2.6,8.1-4
		c2.3-1.5,3.4-2.2,3.4-2.3l3.1,7.9c-4.6,6.7-10.3,12-17.1,15.8s-14.4,5.7-22.6,5.7c-9.9,0-17.6-3.1-23.1-9.3
		c-5.5-6.2-8.2-16.9-8.1-32.2L564.2,163.1z"/>
	<path class="st1" d="M701.6,278.8c-12.6,0-23.4-2.9-32.4-8.6c-9-5.8-15.9-13.6-20.7-23.7c-4.7-10-7.1-21.4-7.1-34.1
		c0-14.3,3-26.7,8.9-37.3c6-10.6,13.8-18.7,23.5-24.2c9.7-5.6,20.1-8.3,31.3-8.3c11.8,0,22.1,2.8,30.8,8.5s15.4,13.6,20.1,23.8
		c4.6,10.2,7,22,7,35.4c0,13.3-2.7,25.1-8.1,35.6c-5.4,10.5-12.8,18.6-22.2,24.3S713,278.8,701.6,278.8z M699,157.9
		c-7,0-12.9,2-17.7,6c-4.7,4-8.2,9.4-10.5,16c-2.2,6.7-3.4,14-3.4,22c0,10.8,1.3,21,4,30.5c2.6,9.5,6.9,17.2,12.7,23.1
		c5.9,6,13.3,8.9,22.4,8.9c6.5,0,12.1-2,16.7-6.1c4.6-4.1,8-9.3,10.3-15.7c2.2-6.4,3.4-13.3,3.4-20.5c0-10.5-1.3-20.7-3.9-30.5
		c-2.6-9.8-6.7-17.8-12.5-24.2C714.9,161.1,707.7,157.9,699,157.9z"/>
	<path class="st1" d="M837.3,274.8h-68l1.5-10.7l22.1-6v-88.9l-22.6-7.6l1.5-11.1l43.7-5.7l2.5,2.8l-2.5,18.8h1.5
		c5.6-6.6,12.2-12.2,19.8-16.6s15.7-6.6,24.3-6.6c11.4,0,20.2,3.6,26.2,10.8c6.1,7.2,9.1,17.4,9.1,30.6v73.5l21.1,5.1l-1.5,11.6
		h-65.8l1.5-10.7l20.2-6v-67.8c0-9.1-2.3-15.8-7-20.3c-4.6-4.4-10.8-6.7-18.5-6.7c-5.5,0-10.7,1.1-15.8,3.3s-9.4,5.3-13,9.3v82.2
		l21.8,5.1L837.3,274.8z"/>
</g>
<g>
	<path class="st1" d="M139.3,444.3h-36l1.3-4.9l11.6-3.1l10.6-66.7l-11.8-2.8l1.5-5h36.2l-1.5,5l-11.5,2.5l-4.6,29.1h41.7l4.6-28.8
		l-11.8-2.8l1.5-5h36.2l-1.5,5l-11.4,2.5l-10.6,67.5l11.8,2.2l-1.6,5.4h-36.1l1.5-4.9l11.6-3.1l4.9-31.1H134l-5,31.6l12,2.2
		L139.3,444.3z"/>
	<path class="st1" d="M247.1,419.2c-1,6.5-1.5,10.8-1.5,13.1c0,1.9,0.3,3.3,0.8,4.1c0.5,0.8,1.4,1.3,2.6,1.5l5,0.8l-1.2,4.6
		c-3.8,1.4-7.1,2.1-10,2.1c-2.6,0-4.7-0.7-6.3-2s-2.4-3.1-2.4-5.3c0-0.8,0.1-1.7,0.4-2.6h-0.8c-1.6,2.9-3.8,5.3-6.6,7.3
		c-2.8,1.9-5.8,2.9-9,2.9c-2.7,0-5.1-0.8-7.1-2.4s-3.6-3.8-4.6-6.8c-1.1-3-1.6-6.4-1.6-10.4c0-8.2,1.7-15.4,5.2-21.6
		s7.8-10.9,13.1-14.1s10.4-4.9,15.6-4.9c7,0,11.5,1.2,13.3,3.5L247.1,419.2z M234.8,430.9l5.7-36.2c-1.7-1.5-4.3-2.3-7.9-2.3
		c-3.4,0-6.4,1.5-9,4.6s-4.7,7-6.1,11.7c-1.4,4.7-2.2,9.5-2.2,14.3c0,4.9,0.7,8.5,2,10.8c1.4,2.3,3.4,3.5,6,3.5
		c2.3,0,4.3-0.5,6.1-1.6C231.2,434.5,233,432.9,234.8,430.9z"/>
	<path class="st1" d="M260.8,364.3l0.6-5.3c3-1.5,6.4-2.2,10.2-2.2c3.3,0,5.6,0.6,6.9,1.9s2,3.3,2,6c0,1.5-0.1,3.1-0.4,4.9
		l-7.8,49.5c-1,6.5-1.5,11-1.5,13.7c0,1.6,0.4,2.8,1.1,3.5c0.7,0.8,1.7,1.2,2.8,1.4c1.1,0.2,2.6,0.2,4.5,0.2l-0.5,5.4
		c-1.1,0.6-2.5,1.1-4.2,1.5s-3.4,0.6-5.1,0.6c-3.5,0-5.9-0.7-7.4-2.1s-2.2-3.7-2.2-6.7c0-1.2,0.2-2.9,0.5-5.2l9.5-61.5
		c0.1-0.7,0.1-1.2,0.1-1.5c0-1.6-0.5-2.7-1.5-3.3c-1-0.6-2.5-0.8-4.5-0.8H260.8z"/>
	<path class="st1" d="M286.4,364.3l0.6-5.3c3-1.5,6.4-2.2,10.2-2.2c3.3,0,5.6,0.6,6.9,1.9s2,3.3,2,6c0,1.5-0.1,3.1-0.4,4.9
		l-7.8,49.5c-1,6.5-1.5,11-1.5,13.7c0,1.6,0.4,2.8,1.1,3.5c0.7,0.8,1.7,1.2,2.8,1.4c1.1,0.2,2.6,0.2,4.5,0.2l-0.5,5.4
		c-1.1,0.6-2.5,1.1-4.2,1.5s-3.4,0.6-5.1,0.6c-3.5,0-5.9-0.7-7.4-2.1s-2.2-3.7-2.2-6.7c0-1.2,0.2-2.9,0.5-5.2l9.5-61.5
		c0.1-0.7,0.1-1.2,0.1-1.5c0-1.6-0.5-2.7-1.5-3.3c-1-0.6-2.5-0.8-4.5-0.8H286.4z"/>
	<path class="st1" d="M358,410.1c0,6-1.3,11.7-3.8,17.3c-2.5,5.5-6.1,10-10.6,13.5s-9.6,5.2-15.3,5.2c-4.1,0-7.6-1.1-10.5-3.3
		c-2.9-2.2-5.1-5.1-6.5-8.9c-1.5-3.7-2.2-8-2.2-12.7c0-6.2,1.3-12.1,3.9-17.7s6.2-10,10.8-13.4c4.6-3.4,9.7-5.1,15.4-5.1
		c4.1,0,7.6,1.2,10.4,3.6s4.9,5.5,6.3,9.3C357.3,401.6,358,405.7,358,410.1z M332.4,438c4.6,0,8.2-2.2,10.8-6.7s3.8-10.6,3.8-18.4
		c0-5.8-1.1-10.5-3.2-14.4c-2.1-3.8-5.4-5.7-9.9-5.7c-2.7,0-5.2,1-7.2,3c-2.1,2-3.7,4.9-4.9,8.8c-1.2,3.9-1.8,8.5-1.8,14
		c0,4.2,0.5,7.7,1.6,10.7c1.1,2.9,2.6,5.2,4.4,6.6C327.9,437.3,330,438,332.4,438z"/>
	<path class="st1" d="M461.1,445.9l-9.8-64.8l-26.2,62.8l-11,2l-12.4-76.4l-8.8-2.8l1.3-5h34.1l-1.7,5l-11.5,2.5l8.4,58.3l26.2-62.6
		l12-1.7l9.4,63.1l22.8-56.9l-11.6-2.8l1.5-5h29.8l-1.5,5l-8.4,2.5l-32.1,74.7L461.1,445.9z"/>
	<path class="st1" d="M521.7,446.3c-11,0-16.5-7.1-16.5-21.2c0-7,1.3-13.6,3.9-19.8c2.6-6.1,6-11,10.4-14.7s8.9-5.5,13.8-5.5
		c3.7,0,6.6,1.2,8.8,3.6s3.3,5.6,3.3,9.6c0,8-2.8,13.6-8.4,16.7c-5.6,3.1-12.5,4.5-20.7,4.3c-0.1,1.8-0.1,3-0.1,3.8
		c0,4.7,0.8,8.3,2.4,10.8c1.6,2.4,4.1,3.7,7.5,3.7c3.3,0,6.2-0.5,8.7-1.6s4.5-2.2,5.9-3.4l1.7,3c-1.1,1.6-2.7,3.3-4.8,4.9
		c-2.1,1.7-4.6,3-7.4,4.2C527.3,445.7,524.5,446.3,521.7,446.3z M529.2,391.3c-1.9,0-3.7,0.7-5.5,2.1s-3.3,3.8-4.6,7.3
		s-2.1,8.1-2.4,13.8c3.7,0,6.9-0.4,9.6-1.2c2.7-0.7,4.8-2.1,6.5-4.2s2.5-5,2.5-8.8c0-2.5-0.6-4.6-1.7-6.3
		C532.6,392.1,531.1,391.3,529.2,391.3z"/>
	<path class="st1" d="M552,364.3l0.6-5.3c3-1.5,6.4-2.2,10.2-2.2c3.3,0,5.6,0.6,6.9,1.9c1.3,1.3,2,3.3,2,6c0,1.5-0.1,3.1-0.4,4.9
		l-7.8,49.5c-1,6.5-1.5,11-1.5,13.7c0,1.6,0.4,2.8,1.1,3.5c0.7,0.8,1.7,1.2,2.8,1.4c1.1,0.2,2.6,0.2,4.5,0.2l-0.5,5.4
		c-1.1,0.6-2.5,1.1-4.2,1.5s-3.4,0.6-5.1,0.6c-3.5,0-5.9-0.7-7.4-2.1s-2.2-3.7-2.2-6.7c0-1.2,0.2-2.9,0.5-5.2l9.5-61.5
		c0.1-0.7,0.1-1.2,0.1-1.5c0-1.6-0.5-2.7-1.5-3.3c-1-0.6-2.5-0.8-4.5-0.8H552z"/>
	<path class="st1" d="M589.3,421.2c-0.5,3.1-0.7,5.5-0.7,7.2c0,2.9,0.6,4.9,1.8,6s3.3,1.7,6.2,1.7c2.4,0,4.8-0.7,7-2.2l0.9,3.5
		c-1.9,2.5-4.1,4.5-6.7,5.9c-2.5,1.5-5.3,2.2-8.3,2.2c-4,0-6.9-1.1-8.7-3.3c-1.8-2.2-2.7-5.4-2.7-9.8c0-1.9,0.2-4.4,0.7-7.5
		l4.9-31.7h-6.6l0.7-6.4h7l2.3-14.5h10.2l-2.3,14.5h14.6l-1.3,6.4H594L589.3,421.2z"/>
</g>
<g>
	<path class="st1" d="M118.9,624.2H102l0.5-2.5l5.9-1.9v-33.3l-5.9-1l0.3-2.6c7.1-1.1,12.9-1.7,17.5-1.7c6.1,0,10.9,1,14.6,2.9
		s6.2,4.4,7.8,7.5c1.5,3.1,2.3,6.5,2.3,10.4c0,4-1,7.7-3,11.1c-2,3.4-4.9,6.1-8.8,8.1C129.3,623.1,124.5,624.2,118.9,624.2z
		 M114.9,584.8v35.8h5c3.9,0,7.2-0.8,9.9-2.3c2.7-1.5,4.7-3.5,6-6.1s2-5.4,2-8.5c0-3.6-0.7-6.8-2.1-9.7s-3.5-5.2-6.3-6.8
		s-6.2-2.5-10.3-2.5C117.2,584.7,115.8,584.7,114.9,584.8z"/>
	<path class="st1" d="M153.8,625c-1.2,0-2.3-0.3-3.3-0.8s-1.8-1.3-2.4-2.3c-0.6-1-0.9-2.2-0.9-3.5c0-1.8,0.6-3.4,1.7-5
		c1.1-1.5,2.9-2.9,5.2-3.9s5.3-1.7,8.9-2v-1.9c0-2.6-0.5-4.8-1.4-6.5s-2.5-2.6-4.6-2.6c-1.1,0-1.8,0.2-2.3,0.6
		c-0.5,0.4-0.8,1.1-0.9,1.9c-0.1,0.9-0.3,2.5-0.5,4.8c-1.3,0-2.5-0.2-3.4-0.6c-0.9-0.4-1.4-1.4-1.4-2.9c0-1.2,0.6-2.3,1.9-3.4
		c1.3-1.1,2.8-2,4.6-2.6c1.8-0.7,3.6-1,5.2-1c3,0,5.2,0.8,6.5,2.5s2,4.3,2,8v12.4c0,1.1,0.1,1.9,0.3,2.5s0.6,1,1.1,1.3
		s1.3,0.6,2.4,0.7l1.7,0.3l-0.4,2.9c-0.3,0-0.9,0.1-1.6,0.3c-1.1,0.3-2.1,0.4-3.1,0.4c-1.2,0-2.2-0.2-3-0.7s-1.4-1-1.7-1.7
		c-0.4-0.7-0.5-1.4-0.5-2.2v-0.5h-0.4c-0.7,1.3-1.8,2.5-3.3,3.6C158.3,624.4,156.3,625,153.8,625z M162.9,609.5
		c-3.6,0.7-6.1,1.7-7.6,2.9s-2.2,2.7-2.2,4.4c0,0.6,0.1,1.2,0.4,1.8c0.3,0.6,0.7,1.1,1.3,1.5s1.3,0.6,2.1,0.6c1.1,0,2.2-0.3,3.3-1
		c1.1-0.6,2-1.3,2.7-2.1V609.5z"/>
	<path class="st1" d="M186.4,625.3c-2,0-3.7-0.2-5.2-0.7s-2.7-1.1-3.5-2s-1.2-1.7-1.2-2.6c0-1.3,0.4-2.4,1.1-3.3
		c0.8-0.9,1.8-1.4,3-1.5c0.8,2.2,1.7,3.9,2.9,5s2.5,1.7,3.9,1.7c1.3,0,2.4-0.3,3.2-0.8c0.8-0.6,1.3-1.4,1.3-2.6c0-0.7-0.3-1.4-0.8-2
		s-1.1-1.2-1.9-1.7c-0.8-0.5-1.8-1.2-3.2-1.9c-1.9-1.1-3.4-2-4.6-2.9c-1.2-0.9-2.2-1.9-3-3.2s-1.2-2.7-1.2-4.3
		c0-1.4,0.4-2.8,1.2-4.2s1.9-2.5,3.5-3.5s3.4-1.4,5.6-1.4c1.6,0,3.1,0.3,4.4,0.8c1.3,0.5,2.3,1.3,3,2.2s1,2,1,3.1
		c0,1.3-0.4,2.4-1.3,3.2s-2,1.3-3.5,1.4c-0.4-2.6-1.1-4.5-2-5.8s-2-1.9-3.3-1.9c-1.2,0-2.1,0.4-2.8,1.2s-1,1.8-1,2.9
		c0,0.9,0.3,1.7,0.9,2.5c0.6,0.7,1.3,1.4,2.1,2s2,1.3,3.5,2.1c1.8,1,3.3,1.9,4.4,2.7c1.1,0.8,2.1,1.8,2.9,3c0.8,1.2,1.2,2.5,1.2,4
		c0,1.6-0.5,3.1-1.5,4.4c-1,1.3-2.3,2.4-3.9,3.1C189.8,624.9,188.1,625.3,186.4,625.3z"/>
	<path class="st1" d="M209.5,624.2l0.3-2.5l5.1-1.9l14.6-37.9l5.2-1.1l13.3,39.1l4.7,1.5l-0.3,2.7h-17.6l0.4-2.5l5.8-1.9l-3.7-10.4
		H223l-3.5,10.5l6.4,1.5l-0.4,2.7h-16V624.2z M224.3,605.9h12l-5.7-17.1L224.3,605.9z"/>
	<path class="st1" d="M257.1,585.3l-5.2-1.8l0.4-2.6l9.5-0.7l0.8,0.8v14.2l-0.5,3.6h0.4c1.5-1.7,3-3,4.6-3.9s3.3-1.4,5.1-1.4
		c2.2,0,4.1,0.6,5.8,1.8c1.7,1.2,3,3,3.9,5.2s1.4,4.7,1.4,7.6c0,3.5-0.8,6.5-2.3,9.1s-3.6,4.5-6.2,5.8s-5.4,2-8.4,2
		c-1.6,0-3.3-0.2-5-0.6c-1.7-0.4-3.1-1-4.4-1.8v-37.3H257.1z M262.7,601.2v17.7c0.7,0.7,1.7,1.2,3,1.7c1.3,0.4,2.7,0.6,4.2,0.6
		c1.3,0,2.6-0.4,3.7-1.2s2-2,2.7-3.7c0.7-1.6,1-3.7,1-6.1c0-2-0.2-3.9-0.6-5.7c-0.4-1.9-1.2-3.4-2.3-4.7c-1.1-1.3-2.5-1.9-4.3-1.9
		C267.2,597.9,264.7,599,262.7,601.2z"/>
	<path class="st1" d="M283.9,624.2l0.4-2.7l5.2-1.3V585l-5.4-1.8l0.4-2.6l9.8-0.8l0.9,0.8v39.6l5.4,1.2l-0.4,2.7L283.9,624.2
		L283.9,624.2z"/>
	<path class="st1" d="M309.8,625c-1.2,0-2.3-0.3-3.3-0.8s-1.8-1.3-2.4-2.3s-0.9-2.2-0.9-3.5c0-1.8,0.6-3.4,1.7-5
		c1.1-1.5,2.9-2.9,5.2-3.9s5.3-1.7,8.9-2v-1.9c0-2.6-0.5-4.8-1.4-6.5s-2.5-2.6-4.6-2.6c-1.1,0-1.8,0.2-2.3,0.6
		c-0.5,0.4-0.8,1.1-0.9,1.9c-0.1,0.9-0.3,2.5-0.5,4.8c-1.3,0-2.5-0.2-3.4-0.6c-0.9-0.4-1.4-1.4-1.4-2.9c0-1.2,0.6-2.3,1.9-3.4
		c1.3-1.1,2.8-2,4.6-2.6c1.8-0.7,3.6-1,5.2-1c3,0,5.2,0.8,6.5,2.5s2,4.3,2,8v12.4c0,1.1,0.1,1.9,0.3,2.5s0.6,1,1.1,1.3
		s1.3,0.6,2.4,0.7l1.7,0.3l-0.4,2.9c-0.3,0-0.9,0.1-1.6,0.3c-1.1,0.3-2.1,0.4-3.1,0.4c-1.2,0-2.2-0.2-3-0.7s-1.4-1-1.7-1.7
		c-0.4-0.7-0.5-1.4-0.5-2.2v-0.5h-0.4c-0.7,1.3-1.8,2.5-3.3,3.6C314.2,624.4,312.2,625,309.8,625z M318.8,609.5
		c-3.6,0.7-6.1,1.7-7.6,2.9s-2.2,2.7-2.2,4.4c0,0.6,0.1,1.2,0.4,1.8s0.7,1.1,1.3,1.5s1.3,0.6,2.1,0.6c1.1,0,2.2-0.3,3.3-1
		c1.1-0.6,2-1.3,2.7-2.1L318.8,609.5L318.8,609.5z"/>
	<path class="st1" d="M333.7,599.3l-4.7-1.9l0.5-2.7l9.2-0.7l0.9,0.8v18.5c0,4.6,1.8,6.9,5.3,6.9c1.4,0,2.6-0.2,3.6-0.7
		s1.9-1.1,2.7-1.9v-18.1l-5.4-1.4l0.3-3.1l10-0.9l0.7,0.8v22c0,1.1,0.1,1.9,0.4,2.5s0.7,1,1.1,1.2c0.5,0.2,1.2,0.4,2.1,0.6l1.6,0.3
		l-0.3,2.8c-1.1,0.3-1.9,0.4-2.6,0.5s-1.5,0.1-2.5,0.1c-1.6,0-2.9-0.5-3.7-1.4s-1.3-2.1-1.3-3.6v-0.3h-0.4c-2.4,3.5-5.7,5.3-9.8,5.3
		c-2.4,0-4.2-0.8-5.6-2.3c-1.4-1.6-2-4.1-2-7.6v-15.7H333.7z"/>
	<path class="st1" d="M383.9,624.2h-19.4l0.4-2.5l5.2-1.5v-22.8H365l0.4-2.5l4.7-0.8c0.4-3.3,1.2-6.1,2.6-8.5c1.4-2.3,3-4.1,4.8-5.3
		s3.6-1.8,5.4-1.8c1.9,0,3.5,0.3,4.6,1c1.2,0.7,1.8,1.6,1.8,2.9c0,0.8-0.3,1.5-1,2.3s-1.4,1.3-2,1.5c-0.9-1.1-1.8-2-2.9-2.9
		c-1.1-0.8-2.1-1.3-3.1-1.3c-1.4,0-2.5,0.6-3.2,1.9c-0.7,1.2-1.1,3.4-1.2,6.6l-0.1,3.7h8.8l-0.4,3h-8.4V620l8.4,1.3L383.9,624.2z"/>
	<path class="st1" d="M397.8,624.9c-2.1,0-3.9-0.6-5.6-1.7c-1.7-1.1-3-2.7-4-4.9s-1.5-4.8-1.5-7.8c0-3.2,0.7-6.1,2.2-8.7
		c1.5-2.6,3.4-4.7,5.7-6.2c2.3-1.5,4.7-2.3,7-2.3c1.1,0,2.2,0.1,3.3,0.4c1.1,0.3,2,0.6,2.5,1.1h0.2l-0.4-4.4V585l-5.2-1.9l0.5-2.6
		l9.5-0.8l0.7,0.8v36.1c0,1.1,0.1,2,0.4,2.5c0.3,0.6,0.7,0.9,1.1,1.1c0.5,0.2,1.2,0.4,2.2,0.6l1.5,0.3l-0.4,2.8
		c-1,0.3-1.9,0.5-2.5,0.5c-0.6,0.1-1.5,0.1-2.5,0.1c-1.6,0-2.9-0.5-3.8-1.4s-1.3-2.1-1.3-3.6v-0.2h-0.3c-1.1,1.5-2.5,2.8-4,3.8
		S400,624.9,397.8,624.9z M400,596.7c-2.5,0-4.4,1.1-5.5,3.2s-1.7,4.9-1.7,8.5c0,2.6,0.3,4.8,1,6.7s1.5,3.2,2.7,4.1
		c1.1,0.9,2.4,1.4,3.9,1.4c1.3,0,2.7-0.3,4-1c1.4-0.7,2.4-1.4,3-2.2v-16c-0.9-1.4-2-2.5-3.4-3.4C402.5,597.2,401.2,596.7,400,596.7z
		"/>
	<path class="st1" d="M427.3,625c-1.2,0-2.3-0.3-3.3-0.8s-1.8-1.3-2.4-2.3s-0.9-2.2-0.9-3.5c0-1.8,0.6-3.4,1.7-5
		c1.1-1.5,2.9-2.9,5.2-3.9s5.3-1.7,8.9-2v-1.9c0-2.6-0.5-4.8-1.4-6.5s-2.5-2.6-4.6-2.6c-1.1,0-1.8,0.2-2.3,0.6
		c-0.5,0.4-0.8,1.1-0.9,1.9c-0.1,0.9-0.3,2.5-0.5,4.8c-1.3,0-2.5-0.2-3.4-0.6c-0.9-0.4-1.4-1.4-1.4-2.9c0-1.2,0.6-2.3,1.9-3.4
		c1.3-1.1,2.8-2,4.6-2.6c1.8-0.7,3.6-1,5.2-1c3,0,5.2,0.8,6.5,2.5s2,4.3,2,8v12.4c0,1.1,0.1,1.9,0.3,2.5s0.6,1,1.1,1.3
		s1.3,0.6,2.4,0.7l1.7,0.3l-0.4,2.9c-0.3,0-0.9,0.1-1.6,0.3c-1.1,0.3-2.1,0.4-3.1,0.4c-1.2,0-2.2-0.2-3-0.7s-1.4-1-1.7-1.7
		c-0.4-0.7-0.5-1.4-0.5-2.2v-0.5H437c-0.7,1.3-1.8,2.5-3.3,3.6C431.8,624.4,429.8,625,427.3,625z M436.4,609.5
		c-3.6,0.7-6.1,1.7-7.6,2.9s-2.2,2.7-2.2,4.4c0,0.6,0.1,1.2,0.4,1.8s0.7,1.1,1.3,1.5s1.3,0.6,2.1,0.6c1.1,0,2.2-0.3,3.3-1
		c1.1-0.6,2-1.3,2.7-2.1L436.4,609.5L436.4,609.5z"/>
	<path class="st1" d="M451.4,598.1H447v-1.8c1.4-1.1,2.8-2.5,4.3-4.2s2.9-3.3,4.1-5h1.8v8.1h9.7l-0.3,3h-9.4l-0.1,15.1
		c0,1.7,0.2,3.1,0.5,4c0.3,1,0.9,1.7,1.6,2.1c0.7,0.4,1.7,0.6,2.9,0.6c0.8,0,1.5-0.1,2.2-0.4c0.7-0.3,1.4-0.6,1.9-0.9
		c0.5-0.3,0.8-0.5,0.8-0.5l0.7,1.8c-1.1,1.6-2.4,2.8-4,3.7s-3.3,1.3-5.3,1.3c-2.3,0-4.1-0.7-5.4-2.2c-1.3-1.4-1.9-3.9-1.9-7.5
		L451.4,598.1z"/>
	<path class="st1" d="M474.2,599.3l-4.7-1.9l0.5-2.7l9.2-0.7l0.9,0.8v18.5c0,4.6,1.8,6.9,5.3,6.9c1.4,0,2.6-0.2,3.6-0.7
		s1.9-1.1,2.7-1.9v-18.1l-5.4-1.4l0.3-3.1l10-0.9l0.7,0.8v22c0,1.1,0.1,1.9,0.4,2.5s0.7,1,1.1,1.2c0.5,0.2,1.2,0.4,2.1,0.6l1.6,0.3
		l-0.3,2.8c-1.1,0.3-1.9,0.4-2.6,0.5s-1.5,0.1-2.5,0.1c-1.6,0-2.9-0.5-3.7-1.4s-1.3-2.1-1.3-3.6v-0.3h-0.4c-2.4,3.5-5.7,5.3-9.8,5.3
		c-2.4,0-4.2-0.8-5.6-2.3c-1.4-1.6-2-4.1-2-7.6v-15.7H474.2z"/>
	<path class="st1" d="M520.9,624.2h-15.8l0.3-2.5l5.1-1.4v-20.7l-5.5-1.7l0.3-2.6l10.4-1.4l0.6,0.7l-0.6,4.3h0.3
		c1.2-1.5,2.7-2.8,4.5-3.8s3.7-1.5,5.7-1.5c1.7,0,3.3,0.5,4.7,1.4s2.4,2.3,2.9,4.3h0.4c1.2-1.5,2.7-2.8,4.4-3.8s3.6-1.5,5.7-1.5
		c5.4,0,8.1,3.2,8.1,9.5v16.9l4.7,1.2l-0.4,2.7h-14.5l0.2-2.5l4.3-1.4v-16.1c0-1.7-0.5-3.1-1.5-4.3c-1-1.1-2.4-1.7-4.2-1.7
		c-1.4,0-2.5,0.3-3.5,0.9s-2,1.4-3,2.5v18.7l5.1,1.2l-0.3,2.7h-15.1l0.4-2.5l4.5-1.4v-16.1c0-1.2-0.3-2.2-0.8-3.1
		c-0.5-0.9-1.2-1.6-2.1-2.1c-0.9-0.5-1.9-0.8-3-0.8c-1.3,0-2.5,0.3-3.7,0.8s-2.2,1.2-3,2.2v19.1l4.9,1.2L520.9,624.2z"/>
	<path class="st1" d="M569.4,596.9l0.3-2.6H585l-0.3,2.5l-5,1.4l6.4,19.3l6.6-19.2l-5.5-1.4l0.5-2.6h13.1l-0.4,2.5l-3.7,1.4
		l-9.3,26.2l-4.3,0.6l-9.5-26.8L569.4,596.9z"/>
	<path class="st1" d="M614.9,625.1c-2.9,0-5.5-0.7-7.6-2s-3.7-3.2-4.8-5.5s-1.7-5-1.7-7.9c0-3.3,0.7-6.2,2.1-8.7
		c1.4-2.5,3.2-4.4,5.5-5.7s4.7-1.9,7.3-1.9c2.8,0,5.2,0.7,7.2,2s3.6,3.2,4.7,5.6c1.1,2.4,1.6,5.1,1.6,8.3c0,3.1-0.6,5.9-1.9,8.3
		c-1.3,2.4-3,4.3-5.2,5.7C620,624.4,617.6,625.1,614.9,625.1z M614.3,596.9c-1.6,0-3,0.5-4.1,1.4s-1.9,2.2-2.4,3.7
		c-0.5,1.6-0.8,3.3-0.8,5.1c0,2.5,0.3,4.9,0.9,7.1c0.6,2.2,1.6,4,3,5.4s3.1,2.1,5.2,2.1c1.5,0,2.8-0.5,3.9-1.4
		c1.1-0.9,1.9-2.2,2.4-3.7s0.8-3.1,0.8-4.8c0-2.5-0.3-4.8-0.9-7.1c-0.6-2.3-1.6-4.2-2.9-5.7S616.3,596.9,614.3,596.9z"/>
	<path class="st1" d="M646.6,624.2h-15.9l0.3-2.5l5.2-1.4v-20.7l-5.3-1.8l0.3-2.6l10.2-1.3l0.6,0.6l-0.6,4.4h0.3
		c1.3-1.5,2.8-2.8,4.6-3.9s3.7-1.5,5.7-1.5c2.7,0,4.7,0.8,6.1,2.5c1.4,1.7,2.1,4.1,2.1,7.1v17.2l4.9,1.2l-0.3,2.7h-15.3l0.3-2.5
		l4.7-1.4v-15.8c0-2.1-0.5-3.7-1.6-4.7s-2.5-1.6-4.3-1.6c-1.3,0-2.5,0.3-3.7,0.8s-2.2,1.2-3,2.2v19.2l5.1,1.2L646.6,624.2z"/>
	<path class="st1" d="M679.1,584.2l0.5-2.6h18.8l-0.3,2.6l-5.9,1.6v34.1l6.5,1.5l-0.4,2.7h-18.9l0.3-2.5l5.9-1.9V586L679.1,584.2z
		 M693,603.5v-0.7c0.5-0.5,1.4-1.5,2.6-2.9c1.2-1.4,2.1-2.4,2.6-3l8.4-11l-5.3-1.6l0.3-2.6h16.9l-0.4,2.6l-6,1.6l-12.7,16l7.8,9.2
		c2.1,2.4,3.6,4.2,4.8,5.4c1.1,1.2,2.3,2.2,3.4,3c1.1,0.8,2.4,1.4,3.8,1.9l1.3,0.4l-0.3,2.4c-1.4,0.5-2.9,0.8-4.5,0.8
		c-2.6,0-5-0.8-7.2-2.5s-4.4-4.1-6.6-7.1L693,603.5z"/>
	<path class="st1" d="M728.9,625c-1.2,0-2.3-0.3-3.3-0.8s-1.8-1.3-2.4-2.3c-0.6-1-0.9-2.2-0.9-3.5c0-1.8,0.6-3.4,1.7-5
		c1.1-1.5,2.9-2.9,5.2-3.9s5.3-1.7,8.9-2v-1.9c0-2.6-0.5-4.8-1.4-6.5s-2.5-2.6-4.6-2.6c-1.1,0-1.8,0.2-2.3,0.6
		c-0.5,0.4-0.8,1.1-0.9,1.9c-0.1,0.9-0.3,2.5-0.5,4.8c-1.3,0-2.5-0.2-3.4-0.6c-0.9-0.4-1.4-1.4-1.4-2.9c0-1.2,0.6-2.3,1.9-3.4
		c1.3-1.1,2.8-2,4.6-2.6c1.8-0.7,3.6-1,5.2-1c3,0,5.2,0.8,6.5,2.5s2,4.3,2,8v12.4c0,1.1,0.1,1.9,0.3,2.5s0.6,1,1.1,1.3
		s1.3,0.6,2.4,0.7l1.7,0.3l-0.4,2.9c-0.3,0-0.9,0.1-1.6,0.3c-1.1,0.3-2.1,0.4-3.1,0.4c-1.2,0-2.2-0.2-3-0.7s-1.4-1-1.7-1.7
		c-0.4-0.7-0.5-1.4-0.5-2.2v-0.5h-0.4c-0.7,1.3-1.8,2.5-3.3,3.6C733.3,624.4,731.3,625,728.9,625z M737.9,609.5
		c-3.6,0.7-6.1,1.7-7.6,2.9s-2.2,2.7-2.2,4.4c0,0.6,0.1,1.2,0.4,1.8c0.3,0.6,0.7,1.1,1.3,1.5s1.3,0.6,2.1,0.6c1.1,0,2.2-0.3,3.3-1
		c1.1-0.6,2-1.3,2.7-2.1V609.5z"/>
	<path class="st1" d="M752.8,599.3l-4.7-1.9l0.5-2.7l9.2-0.7l0.9,0.8v18.5c0,4.6,1.8,6.9,5.3,6.9c1.4,0,2.6-0.2,3.6-0.7
		s1.9-1.1,2.7-1.9v-18.1l-5.4-1.4l0.3-3.1l10-0.9l0.7,0.8v22c0,1.1,0.1,1.9,0.4,2.5s0.7,1,1.1,1.2c0.5,0.2,1.2,0.4,2.1,0.6l1.6,0.3
		l-0.3,2.8c-1.1,0.3-1.9,0.4-2.6,0.5s-1.5,0.1-2.5,0.1c-1.6,0-2.9-0.5-3.7-1.4s-1.3-2.1-1.3-3.6v-0.3h-0.4c-2.4,3.5-5.7,5.3-9.8,5.3
		c-2.4,0-4.2-0.8-5.6-2.3c-1.4-1.6-2-4.1-2-7.6L752.8,599.3L752.8,599.3z"/>
	<path class="st1" d="M803,624.2h-19.4l0.4-2.5l5.2-1.5v-22.8h-5.1l0.4-2.5l4.7-0.8c0.4-3.3,1.2-6.1,2.6-8.5c1.4-2.3,3-4.1,4.8-5.3
		s3.6-1.8,5.4-1.8c1.9,0,3.5,0.3,4.6,1c1.2,0.7,1.8,1.6,1.8,2.9c0,0.8-0.3,1.5-1,2.3s-1.4,1.3-2,1.5c-0.9-1.1-1.8-2-2.9-2.9
		c-1.1-0.8-2.1-1.3-3.1-1.3c-1.4,0-2.5,0.6-3.2,1.9c-0.7,1.2-1.1,3.4-1.2,6.6l-0.1,3.7h8.8l-0.4,3h-8.4V620l8.4,1.3L803,624.2z"/>
	<path class="st1" d="M814,585.3l-5.2-1.8l0.4-2.6l9.5-0.7l0.8,0.8v14.2l-0.5,3.6h0.4c1.5-1.7,3-3,4.6-3.9s3.3-1.4,5.1-1.4
		c2.2,0,4.1,0.6,5.8,1.8s3,3,3.9,5.2s1.4,4.7,1.4,7.6c0,3.5-0.8,6.5-2.3,9.1s-3.6,4.5-6.2,5.8c-2.6,1.3-5.4,2-8.4,2
		c-1.6,0-3.3-0.2-5-0.6c-1.7-0.4-3.1-1-4.4-1.8v-37.3H814z M819.6,601.2v17.7c0.7,0.7,1.7,1.2,3,1.7c1.3,0.4,2.7,0.6,4.2,0.6
		c1.3,0,2.6-0.4,3.7-1.2c1.1-0.8,2-2,2.7-3.7c0.7-1.6,1-3.7,1-6.1c0-2-0.2-3.9-0.6-5.7c-0.4-1.9-1.2-3.4-2.3-4.7s-2.5-1.9-4.3-1.9
		C824.1,597.9,821.7,599,819.6,601.2z"/>
	<path class="st1" d="M849.6,625c-1.2,0-2.3-0.3-3.3-0.8s-1.8-1.3-2.4-2.3c-0.6-1-0.9-2.2-0.9-3.5c0-1.8,0.6-3.4,1.7-5
		c1.1-1.5,2.9-2.9,5.2-3.9c2.4-1.1,5.3-1.7,8.9-2v-1.9c0-2.6-0.5-4.8-1.4-6.5s-2.5-2.6-4.6-2.6c-1.1,0-1.8,0.2-2.3,0.6
		c-0.5,0.4-0.8,1.1-0.9,1.9c-0.1,0.9-0.3,2.5-0.5,4.8c-1.3,0-2.5-0.2-3.4-0.6c-0.9-0.4-1.4-1.4-1.4-2.9c0-1.2,0.6-2.3,1.9-3.4
		s2.8-2,4.6-2.6c1.8-0.7,3.6-1,5.2-1c3,0,5.2,0.8,6.5,2.5s2,4.3,2,8v12.4c0,1.1,0.1,1.9,0.3,2.5s0.6,1,1.1,1.3s1.3,0.6,2.4,0.7
		l1.7,0.3l-0.4,2.9c-0.3,0-0.9,0.1-1.6,0.3c-1.1,0.3-2.1,0.4-3.1,0.4c-1.2,0-2.2-0.2-3-0.7s-1.4-1-1.7-1.7s-0.5-1.4-0.5-2.2v-0.5
		h-0.4c-0.7,1.3-1.8,2.5-3.3,3.6S852,625,849.6,625z M858.6,609.5c-3.6,0.7-6.1,1.7-7.6,2.9s-2.2,2.7-2.2,4.4c0,0.6,0.1,1.2,0.4,1.8
		s0.7,1.1,1.3,1.5s1.3,0.6,2.1,0.6c1.1,0,2.2-0.3,3.3-1c1.1-0.6,2-1.3,2.7-2.1V609.5z"/>
	<path class="st1" d="M890.8,624.2h-18.9l0.3-2.5l5.2-1.4v-21l-5.6-1.7l0.5-2.6l9.8-1.3l0.8,0.8l-0.7,7.9h0.6c0.6-2,1.4-3.7,2.3-5.1
		c0.9-1.4,1.9-2.4,3-3.1c1-0.7,2.1-1,3.1-1c1.1,0,2,0.4,2.7,1.1c0.7,0.8,1.1,1.7,1.1,2.7c0,1.4-0.6,2.7-1.9,3.8
		c-0.7-0.4-1.4-0.7-2.1-1c-0.7-0.2-1.4-0.4-2.1-0.4c-0.7,0-1.4,0.3-2.3,0.8s-1.6,1.4-2.2,2.5c-0.7,1.1-1.1,2.5-1.4,4.1V620l8,1.2
		L890.8,624.2z"/>
	<path class="st1" d="M909.2,625.2c-2.2,0-4.3-0.6-6.3-1.8s-3.6-3-4.8-5.3c-1.2-2.4-1.8-5.2-1.8-8.5s0.7-6.1,2.1-8.5
		c1.4-2.4,3.2-4.3,5.3-5.6c2.2-1.3,4.4-1.9,6.7-1.9c1.7,0,3.2,0.4,4.6,1.2c1.4,0.8,2.5,2.1,3.3,3.7s1.2,3.6,1.2,5.9
		c0,0.5-0.1,1.2-0.2,2.2c-0.1,0.9-0.2,1.7-0.4,2.3l-16.5,0.2c0.1,1.9,0.5,3.8,1.2,5.6s1.8,3.3,3.2,4.4c1.4,1.2,3.1,1.7,5.1,1.7
		c1.1,0,2,0,2.6-0.1s1.4-0.2,2.2-0.5s1.8-0.7,2.9-1.3l0.7,1.8c-1.4,1.4-3,2.6-5,3.4C913.5,624.8,911.4,625.2,909.2,625.2z
		 M908.7,596.8c-1,0-1.9,0.3-2.8,1c-0.9,0.7-1.7,1.8-2.3,3.2s-1,3.2-1.1,5.3l10.7-0.8c0.1-0.2,0.1-0.6,0.2-1.1
		c0-0.5,0.1-0.9,0.1-1.2C913.4,598.9,911.9,596.8,908.7,596.8z"/>
	<path class="st1" d="M939.1,624.2h-15.8l0.3-2.5l5.1-1.4v-20.7l-5.5-1.7l0.3-2.6l10.4-1.4l0.6,0.7l-0.6,4.3h0.3
		c1.2-1.5,2.7-2.8,4.5-3.8s3.7-1.5,5.7-1.5c1.7,0,3.3,0.5,4.7,1.4s2.4,2.3,2.9,4.3h0.4c1.2-1.5,2.7-2.8,4.4-3.8s3.6-1.5,5.7-1.5
		c5.4,0,8.1,3.2,8.1,9.5v16.9l4.7,1.2l-0.4,2.7h-14.5l0.2-2.5l4.3-1.4v-16.1c0-1.7-0.5-3.1-1.5-4.3c-1-1.1-2.4-1.7-4.2-1.7
		c-1.4,0-2.5,0.3-3.5,0.9c-1,0.6-2,1.4-3,2.5v18.7l5.1,1.2l-0.3,2.7h-15.1l0.4-2.5l4.5-1.4v-16.1c0-1.2-0.3-2.2-0.8-3.1
		c-0.5-0.9-1.2-1.6-2.1-2.1c-0.9-0.5-1.9-0.8-3-0.8c-1.3,0-2.5,0.3-3.7,0.8s-2.2,1.2-3,2.2v19.1l4.9,1.2L939.1,624.2z"/>
	<path class="st1" d="M987.4,584.2l0.3-2.6h17.6l-0.5,2.6l-5.7,1.3l8.3,29.4l9.6-31.5l6-0.9l8.5,31.9l8.9-28.7l-6.2-1.4l0.4-2.6
		h15.3l-0.4,2.6l-4.2,1.3l-12.5,38.5l-5.3,1l-9-33.3l-9.7,32.4l-5.6,1l-11.1-39.3L987.4,584.2z"/>
	<path class="st1" d="M1054,625c-1.2,0-2.3-0.3-3.3-0.8s-1.8-1.3-2.4-2.3s-0.9-2.2-0.9-3.5c0-1.8,0.6-3.4,1.7-5
		c1.1-1.5,2.9-2.9,5.2-3.9c2.4-1.1,5.3-1.7,8.9-2v-1.9c0-2.6-0.5-4.8-1.4-6.5s-2.5-2.6-4.6-2.6c-1.1,0-1.8,0.2-2.3,0.6
		c-0.5,0.4-0.8,1.1-0.9,1.9c-0.1,0.9-0.3,2.5-0.5,4.8c-1.3,0-2.5-0.2-3.4-0.6c-0.9-0.4-1.4-1.4-1.4-2.9c0-1.2,0.6-2.3,1.9-3.4
		c1.3-1.1,2.8-2,4.6-2.6c1.8-0.7,3.6-1,5.2-1c3,0,5.2,0.8,6.5,2.5s2,4.3,2,8v12.4c0,1.1,0.1,1.9,0.3,2.5s0.6,1,1.1,1.3
		s1.3,0.6,2.4,0.7l1.7,0.3l-0.4,2.9c-0.3,0-0.9,0.1-1.6,0.3c-1.1,0.3-2.1,0.4-3.1,0.4c-1.2,0-2.2-0.2-3-0.7s-1.4-1-1.7-1.7
		s-0.5-1.4-0.5-2.2v-0.5h-0.4c-0.7,1.3-1.8,2.5-3.3,3.6S1056.4,625,1054,625z M1063,609.5c-3.6,0.7-6.1,1.7-7.6,2.9
		s-2.2,2.7-2.2,4.4c0,0.6,0.1,1.2,0.4,1.8s0.7,1.1,1.3,1.5c0.6,0.4,1.3,0.6,2.1,0.6c1.1,0,2.2-0.3,3.3-1c1.1-0.6,2-1.3,2.7-2.1
		L1063,609.5L1063,609.5z"/>
	<path class="st1" d="M1086.5,625.3c-2,0-3.7-0.2-5.2-0.7s-2.7-1.1-3.5-2s-1.2-1.7-1.2-2.6c0-1.3,0.4-2.4,1.1-3.3
		c0.8-0.9,1.8-1.4,3-1.5c0.8,2.2,1.7,3.9,2.9,5c1.2,1.1,2.5,1.7,3.9,1.7c1.3,0,2.4-0.3,3.2-0.8c0.8-0.6,1.3-1.4,1.3-2.6
		c0-0.7-0.3-1.4-0.8-2s-1.1-1.2-1.9-1.7s-1.8-1.2-3.2-1.9c-1.9-1.1-3.4-2-4.6-2.9s-2.2-1.9-3-3.2s-1.2-2.7-1.2-4.3
		c0-1.4,0.4-2.8,1.2-4.2c0.8-1.4,1.9-2.5,3.5-3.5c1.5-0.9,3.4-1.4,5.6-1.4c1.6,0,3.1,0.3,4.4,0.8s2.3,1.3,3,2.2s1,2,1,3.1
		c0,1.3-0.4,2.4-1.3,3.2s-2,1.3-3.5,1.4c-0.4-2.6-1.1-4.5-2-5.8s-2-1.9-3.3-1.9c-1.2,0-2.1,0.4-2.8,1.2c-0.7,0.8-1,1.8-1,2.9
		c0,0.9,0.3,1.7,0.9,2.5c0.6,0.7,1.3,1.4,2.1,2c0.8,0.6,2,1.3,3.5,2.1c1.8,1,3.3,1.9,4.4,2.7s2.1,1.8,2.9,3s1.2,2.5,1.2,4
		c0,1.6-0.5,3.1-1.5,4.4c-1,1.3-2.3,2.4-3.9,3.1C1090,624.9,1088.3,625.3,1086.5,625.3z"/>
	<path class="st1" d="M1110.1,625.3c-2,0-3.7-0.2-5.2-0.7s-2.7-1.1-3.5-2s-1.2-1.7-1.2-2.6c0-1.3,0.4-2.4,1.1-3.3
		c0.8-0.9,1.8-1.4,3-1.5c0.8,2.2,1.7,3.9,2.9,5c1.2,1.1,2.5,1.7,3.9,1.7c1.3,0,2.4-0.3,3.2-0.8c0.8-0.6,1.3-1.4,1.3-2.6
		c0-0.7-0.3-1.4-0.8-2s-1.1-1.2-1.9-1.7s-1.8-1.2-3.2-1.9c-1.9-1.1-3.4-2-4.6-2.9s-2.2-1.9-3-3.2s-1.2-2.7-1.2-4.3
		c0-1.4,0.4-2.8,1.2-4.2c0.8-1.4,1.9-2.5,3.5-3.5c1.5-0.9,3.4-1.4,5.6-1.4c1.6,0,3.1,0.3,4.4,0.8s2.3,1.3,3,2.2s1,2,1,3.1
		c0,1.3-0.4,2.4-1.3,3.2s-2,1.3-3.5,1.4c-0.4-2.6-1.1-4.5-2-5.8s-2-1.9-3.3-1.9c-1.2,0-2.1,0.4-2.8,1.2c-0.7,0.8-1,1.8-1,2.9
		c0,0.9,0.3,1.7,0.9,2.5c0.6,0.7,1.3,1.4,2.1,2c0.8,0.6,2,1.3,3.5,2.1c1.8,1,3.3,1.9,4.4,2.7s2.1,1.8,2.9,3s1.2,2.5,1.2,4
		c0,1.6-0.5,3.1-1.5,4.4c-1,1.3-2.3,2.4-3.9,3.1C1113.5,624.9,1111.8,625.3,1110.1,625.3z"/>
	<path class="st1" d="M1136.5,625.2c-2.2,0-4.3-0.6-6.3-1.8s-3.6-3-4.8-5.3c-1.2-2.4-1.8-5.2-1.8-8.5s0.7-6.1,2.1-8.5
		s3.2-4.3,5.3-5.6c2.2-1.3,4.4-1.9,6.7-1.9c1.7,0,3.2,0.4,4.6,1.2s2.5,2.1,3.3,3.7s1.2,3.6,1.2,5.9c0,0.5-0.1,1.2-0.2,2.2
		c-0.1,0.9-0.2,1.7-0.4,2.3l-16.5,0.2c0.1,1.9,0.5,3.8,1.2,5.6s1.8,3.3,3.2,4.4c1.4,1.2,3.1,1.7,5.1,1.7c1.1,0,2,0,2.6-0.1
		s1.4-0.2,2.2-0.5c0.8-0.3,1.8-0.7,2.9-1.3l0.7,1.8c-1.4,1.4-3,2.6-5,3.4C1140.9,624.8,1138.8,625.2,1136.5,625.2z M1136.1,596.8
		c-1,0-1.9,0.3-2.8,1s-1.7,1.8-2.3,3.2s-1,3.2-1.1,5.3l10.7-0.8c0.1-0.2,0.1-0.6,0.2-1.1c0-0.5,0.1-0.9,0.1-1.2
		C1140.8,598.9,1139.2,596.8,1136.1,596.8z"/>
	<path class="st1" d="M1169.5,624.2h-18.9l0.3-2.5l5.2-1.4v-21l-5.6-1.7l0.5-2.6l9.8-1.3l0.8,0.8l-0.7,7.9h0.6
		c0.6-2,1.4-3.7,2.3-5.1c0.9-1.4,1.9-2.4,3-3.1c1-0.7,2.1-1,3.1-1c1.1,0,2,0.4,2.7,1.1c0.7,0.8,1.1,1.7,1.1,2.7
		c0,1.4-0.6,2.7-1.9,3.8c-0.7-0.4-1.4-0.7-2.1-1c-0.7-0.2-1.4-0.4-2.1-0.4s-1.4,0.3-2.3,0.8s-1.6,1.4-2.2,2.5
		c-0.7,1.1-1.1,2.5-1.4,4.1V620l8,1.2L1169.5,624.2z"/>
	<path class="st1" d="M1187.5,624.2l0.4-2.7l5.2-1.3v-21l-5.2-1.9l0.4-2.6l9.6-0.8l0.9,0.9v25.4l5.5,1.2l-0.4,2.7L1187.5,624.2
		L1187.5,624.2z M1195.6,587.6c-0.7,0-1.4-0.2-2-0.6c-0.6-0.4-1.1-0.9-1.5-1.6c-0.4-0.6-0.5-1.4-0.5-2.1c0-1.1,0.4-2,1.2-2.7
		s1.8-1.1,2.9-1.1s2.1,0.4,2.9,1.1s1.2,1.7,1.2,2.8c0,0.8-0.2,1.4-0.6,2.1c-0.4,0.6-0.9,1.1-1.5,1.5
		C1197,587.4,1196.3,587.6,1195.6,587.6z"/>
	<path class="st1" d="M1222.5,624.2h-15.9l0.3-2.5l5.2-1.4v-20.7l-5.3-1.8l0.3-2.6l10.2-1.3l0.6,0.6l-0.6,4.4h0.3
		c1.3-1.5,2.8-2.8,4.6-3.9s3.7-1.5,5.7-1.5c2.7,0,4.7,0.8,6.1,2.5s2.1,4.1,2.1,7.1v17.2l4.9,1.2l-0.3,2.7h-15.3l0.3-2.5l4.7-1.4
		v-15.8c0-2.1-0.5-3.7-1.6-4.7s-2.5-1.6-4.3-1.6c-1.3,0-2.5,0.3-3.7,0.8s-2.2,1.2-3,2.2v19.2l5.1,1.2L1222.5,624.2z"/>
	<path class="st1" d="M122.4,710.2h-20.3l0.4-2.5l5.7-1.6v-33.6l-5.8-1l0.3-2.6c3.1-0.5,5.9-0.8,8.5-1.1s5.2-0.4,7.8-0.4
		c5.1,0,9.3,0.9,12.4,2.8s4.7,5.1,4.7,9.7c0,2.6-0.7,5-2.2,7c-1.4,2.1-3.4,3.7-5.8,4.8c-2.4,1.2-5,1.7-7.8,1.7c-0.6,0-1.4,0-2.4-0.1
		h-1l-0.6-2.8h1.8c3.7-0.1,6.4-0.9,8.2-2.5c1.8-1.6,2.7-3.9,2.7-6.9c0-3.2-0.9-5.8-2.6-7.8c-1.8-2-4.5-3-8.2-3c-0.6,0-1.2,0-2,0.1
		s-1.3,0.1-1.5,0.1V706l8.1,1.3L122.4,710.2z"/>
	<path class="st1" d="M136.5,670.2l0.4-2.6h34l-1.1,10.9l-3-0.4l-1.4-7.3h-16.1v16.3h9.9l1.4-4.1l3.2-0.5l-1.2,13.3l-2.9,0.4l-1.2-6
		h-9.4v16.6H166l3.3-7.9l2.8,0.4l-1,10.7h-34.7l0.3-2.5l5.7-1.6v-34.4L136.5,670.2z"/>
	<path class="st1" d="M173.2,667.6h38l-1.2,11.6l-3.2-0.5l-1.3-7.9H195v35.5l6.3,1.2l-0.5,2.7h-18.4l0.2-2.5l5.8-1.6v-35.2h-10.1
		l-1.8,8.3l-3.1-0.4L173.2,667.6z"/>
	<path class="st1" d="M206.6,696.6l0.4-3.4l13.9-0.6l-0.4,3.5L206.6,696.6z"/>
	<path class="st1" d="M222.6,670.2l0.4-2.6h33.9l-1.4,11l-3-0.5l-1.2-7.4h-15.9v16.5h9.8l1.4-4.1l3.1-0.5l-0.9,13.4l-3,0.5l-1-6.2
		h-9.4V706l8,1.3l-0.4,2.8h-20.2l0.3-2.5l5.7-1.6v-34.4L222.6,670.2z"/>
	<path class="st1" d="M258.2,710.2l0.4-2.7l5.2-1.3V671l-5.4-1.8l0.4-2.6l9.8-0.8l0.9,0.8v39.6l5.4,1.2l-0.4,2.7L258.2,710.2
		L258.2,710.2z"/>
	<path class="st1" d="M284.1,711c-1.2,0-2.3-0.3-3.3-0.8s-1.8-1.3-2.4-2.3s-0.9-2.2-0.9-3.5c0-1.8,0.6-3.4,1.7-5
		c1.1-1.5,2.9-2.9,5.2-3.9s5.3-1.7,8.9-2v-1.9c0-2.6-0.5-4.8-1.4-6.5s-2.5-2.6-4.6-2.6c-1.1,0-1.8,0.2-2.3,0.6
		c-0.5,0.4-0.8,1.1-0.9,1.9c-0.1,0.9-0.3,2.5-0.5,4.8c-1.3,0-2.5-0.2-3.4-0.6c-0.9-0.4-1.4-1.4-1.4-2.9c0-1.2,0.6-2.3,1.9-3.4
		c1.3-1.1,2.8-2,4.6-2.6c1.8-0.7,3.6-1,5.2-1c3,0,5.2,0.8,6.5,2.5s2,4.3,2,8v12.4c0,1.1,0.1,1.9,0.3,2.5s0.6,1,1.1,1.3
		s1.3,0.6,2.4,0.7l1.7,0.3l-0.4,2.9c-0.3,0-0.9,0.1-1.6,0.3c-1.1,0.3-2.1,0.4-3.1,0.4c-1.2,0-2.2-0.2-3-0.7s-1.4-1-1.7-1.7
		c-0.4-0.7-0.5-1.4-0.5-2.2v-0.5h-0.4c-0.7,1.3-1.8,2.5-3.3,3.6C288.5,710.4,286.5,711,284.1,711z M293.1,695.5
		c-3.6,0.7-6.1,1.7-7.6,2.9s-2.2,2.7-2.2,4.4c0,0.6,0.1,1.2,0.4,1.8s0.7,1.1,1.3,1.5s1.3,0.6,2.1,0.6c1.1,0,2.2-0.3,3.3-1
		c1.1-0.6,2-1.3,2.7-2.1L293.1,695.5L293.1,695.5z"/>
	<path class="st1" d="M316.6,711.3c-2,0-3.7-0.2-5.2-0.7s-2.7-1.1-3.5-2s-1.2-1.7-1.2-2.6c0-1.3,0.4-2.4,1.1-3.3
		c0.8-0.9,1.8-1.4,3-1.5c0.8,2.2,1.7,3.9,2.9,5c1.2,1.1,2.5,1.7,3.9,1.7c1.3,0,2.4-0.3,3.2-0.8c0.8-0.6,1.3-1.4,1.3-2.6
		c0-0.7-0.3-1.4-0.8-2s-1.1-1.2-1.9-1.7s-1.8-1.2-3.2-1.9c-1.9-1.1-3.4-2-4.6-2.9s-2.2-1.9-3-3.2s-1.2-2.7-1.2-4.3
		c0-1.4,0.4-2.8,1.2-4.2c0.8-1.4,1.9-2.5,3.5-3.5s3.4-1.4,5.6-1.4c1.6,0,3.1,0.3,4.4,0.8s2.3,1.3,3,2.2s1,2,1,3.1
		c0,1.3-0.4,2.4-1.3,3.2s-2,1.3-3.5,1.4c-0.4-2.6-1.1-4.5-2-5.8s-2-1.9-3.3-1.9c-1.2,0-2.1,0.4-2.8,1.2c-0.7,0.8-1,1.8-1,2.9
		c0,0.9,0.3,1.7,0.9,2.5c0.6,0.7,1.3,1.4,2.1,2c0.8,0.6,2,1.3,3.5,2.1c1.8,1,3.3,1.9,4.4,2.7s2.1,1.8,2.9,3s1.2,2.5,1.2,4
		c0,1.6-0.5,3.1-1.5,4.4c-1,1.3-2.3,2.4-3.9,3.1C320,710.9,318.3,711.3,316.6,711.3z"/>
	<path class="st1" d="M343.6,711.2c-2.7,0-5-0.7-7.1-2.1c-2.1-1.4-3.6-3.2-4.8-5.6c-1.1-2.3-1.7-4.9-1.7-7.6c0-3.3,0.7-6.1,2.1-8.7
		s3.2-4.5,5.4-5.8s4.6-2.1,7.1-2.1c1.8,0,3.3,0.2,4.6,0.7s2.1,1.1,2.8,1.9c0.6,0.8,0.9,1.7,0.9,2.6c0,1-0.4,1.9-1.1,2.5
		c-0.8,0.6-1.8,1-3.2,1.1c-0.7-1.6-1.4-3-2.3-4c-0.8-1.1-1.9-1.6-3.2-1.6c-1.3,0-2.5,0.4-3.5,1.3c-1,0.8-1.8,2-2.4,3.6
		c-0.6,1.5-0.8,3.3-0.8,5.4c0,2.1,0.4,4.2,1.1,6.4c0.8,2.2,1.9,4.1,3.4,5.6s3.4,2.3,5.6,2.3c1.5,0,2.8-0.2,3.8-0.5
		c1-0.4,2.1-0.9,3.1-1.5l0.9,2c-1,1.1-2.4,2.1-4.4,3C347.8,710.8,345.7,711.2,343.6,711.2z"/>
	<path class="st1" d="M372.2,710.2h-15.9l0.4-2.7l5.3-1.3V671l-5.5-1.8l0.4-2.6l9.9-0.8l0.9,0.8v14.5l-0.5,3.6h0.3
		c3.2-3.6,6.6-5.3,10-5.3c2.6,0,4.7,0.7,6.1,2.2s2.2,4.2,2.2,8v16.6l5,1.2l-0.4,2.7h-15.3l0.4-2.5l4.7-1.4v-15.9
		c0-2.2-0.6-3.8-1.7-4.8s-2.5-1.5-4.1-1.5c-1.1,0-2.2,0.2-3.3,0.7s-2.2,1.2-3.3,2.4v19.1l5,1.2L372.2,710.2z"/>
	<path class="st1" d="M404.4,711.2c-2.2,0-4.3-0.6-6.3-1.8s-3.6-3-4.8-5.3c-1.2-2.4-1.8-5.2-1.8-8.5s0.7-6.1,2.1-8.5
		s3.1-4.3,5.3-5.6c2.2-1.3,4.4-1.9,6.7-1.9c1.7,0,3.2,0.4,4.6,1.2s2.5,2.1,3.3,3.7c0.8,1.6,1.2,3.6,1.2,5.9c0,0.5-0.1,1.2-0.2,2.2
		c-0.1,0.9-0.2,1.7-0.4,2.3l-16.5,0.2c0.1,1.9,0.5,3.8,1.2,5.6s1.8,3.3,3.2,4.4s3.1,1.7,5.1,1.7c1.1,0,2,0,2.6-0.1s1.4-0.2,2.2-0.5
		c0.8-0.3,1.8-0.7,2.9-1.3l0.7,1.8c-1.4,1.4-3,2.6-5,3.4S406.6,711.2,404.4,711.2z M403.9,682.8c-1,0-1.9,0.3-2.8,1
		s-1.7,1.8-2.3,3.2c-0.6,1.4-1,3.2-1.1,5.3l10.7-0.8c0.1-0.2,0.1-0.6,0.2-1.1s0.1-0.9,0.1-1.2C408.6,684.9,407.1,682.8,403.9,682.8z
		"/>
	<path class="st1" d="M434.3,710.2h-15.9l0.3-2.5l5.2-1.4v-20.7l-5.3-1.8l0.3-2.6l10.2-1.3l0.6,0.6l-0.6,4.4h0.3
		c1.3-1.5,2.8-2.8,4.6-3.9s3.7-1.5,5.7-1.5c2.7,0,4.7,0.8,6.1,2.5s2.1,4.1,2.1,7.1v17.2l4.9,1.2l-0.3,2.7h-15.3l0.3-2.5l4.7-1.4
		v-15.8c0-2.1-0.5-3.7-1.6-4.7s-2.5-1.6-4.3-1.6c-1.3,0-2.5,0.3-3.7,0.8s-2.2,1.2-3,2.2v19.2l5.1,1.2L434.3,710.2z"/>
	<path class="st1" d="M469.9,671.3l-5.2-1.8l0.4-2.6l9.5-0.7l0.8,0.8v14.2l-0.5,3.6h0.4c1.5-1.7,3-3,4.6-3.9s3.3-1.4,5.1-1.4
		c2.2,0,4.1,0.6,5.8,1.8c1.7,1.2,3,3,3.9,5.2s1.4,4.7,1.4,7.6c0,3.5-0.8,6.5-2.3,9.1s-3.6,4.5-6.2,5.8s-5.4,2-8.4,2
		c-1.6,0-3.3-0.2-5-0.6c-1.7-0.4-3.1-1-4.4-1.8v-37.3H469.9z M475.4,687.2v17.7c0.7,0.7,1.7,1.2,3,1.7c1.3,0.4,2.7,0.6,4.2,0.6
		c1.3,0,2.6-0.4,3.7-1.2s2-2,2.7-3.7c0.7-1.6,1-3.7,1-6.1c0-2-0.2-3.9-0.6-5.7c-0.4-1.9-1.2-3.4-2.3-4.7c-1.1-1.3-2.5-1.9-4.3-1.9
		C480,683.9,477.5,685,475.4,687.2z"/>
	<path class="st1" d="M512.3,711.2c-2.2,0-4.3-0.6-6.3-1.8s-3.6-3-4.8-5.3c-1.2-2.4-1.8-5.2-1.8-8.5s0.7-6.1,2.1-8.5
		s3.1-4.3,5.3-5.6c2.2-1.3,4.4-1.9,6.7-1.9c1.7,0,3.2,0.4,4.6,1.2c1.4,0.8,2.5,2.1,3.3,3.7c0.8,1.6,1.2,3.6,1.2,5.9
		c0,0.5-0.1,1.2-0.2,2.2c-0.1,0.9-0.2,1.7-0.4,2.3l-16.5,0.2c0.1,1.9,0.5,3.8,1.2,5.6s1.8,3.3,3.2,4.4s3.1,1.7,5.1,1.7
		c1.1,0,2,0,2.6-0.1s1.4-0.2,2.2-0.5s1.8-0.7,2.9-1.3l0.7,1.8c-1.4,1.4-3,2.6-5,3.4S514.6,711.2,512.3,711.2z M511.8,682.8
		c-1,0-1.9,0.3-2.8,1s-1.7,1.8-2.3,3.2c-0.6,1.4-1,3.2-1.1,5.3l10.7-0.8c0.1-0.2,0.1-0.6,0.2-1.1s0.1-0.9,0.1-1.2
		C516.6,684.9,515,682.8,511.8,682.8z"/>
	<path class="st1" d="M526.8,707.2l16.7-23.7H532l-2,6.3l-2.6-0.4l0.3-9.1h23v2.5l-17.2,23.9h12.3l3.2-6l2.3,0.3l-1.4,9.1H527
		L526.8,707.2z"/>
	<path class="st1" d="M553.8,710.2l0.4-2.7l5.2-1.3v-21l-5.2-1.9l0.4-2.6l9.6-0.8l0.9,0.9v25.4l5.5,1.2l-0.4,2.7L553.8,710.2
		L553.8,710.2z M561.9,673.6c-0.7,0-1.4-0.2-2-0.6c-0.6-0.4-1.1-0.9-1.5-1.6c-0.4-0.6-0.5-1.4-0.5-2.1c0-1.1,0.4-2,1.2-2.7
		s1.8-1.1,2.9-1.1c1.1,0,2.1,0.4,2.9,1.1s1.2,1.7,1.2,2.8c0,0.8-0.2,1.4-0.6,2.1c-0.4,0.6-0.9,1.1-1.5,1.5S562.7,673.6,561.9,673.6z
		"/>
	<path class="st1" d="M584.3,711.2c-2.2,0-4.3-0.6-6.3-1.8s-3.6-3-4.8-5.3c-1.2-2.4-1.8-5.2-1.8-8.5s0.7-6.1,2.1-8.5
		c1.4-2.4,3.1-4.3,5.3-5.6s4.4-1.9,6.7-1.9c1.7,0,3.2,0.4,4.6,1.2c1.4,0.8,2.5,2.1,3.3,3.7c0.8,1.6,1.2,3.6,1.2,5.9
		c0,0.5-0.1,1.2-0.2,2.2c-0.1,0.9-0.2,1.7-0.4,2.3l-16.5,0.2c0.1,1.9,0.5,3.8,1.2,5.6s1.8,3.3,3.2,4.4s3.1,1.7,5.1,1.7
		c1.1,0,2,0,2.6-0.1s1.4-0.2,2.2-0.5s1.8-0.7,2.9-1.3l0.7,1.8c-1.4,1.4-3,2.6-5,3.4S586.6,711.2,584.3,711.2z M583.9,682.8
		c-1,0-1.9,0.3-2.8,1c-0.9,0.7-1.7,1.8-2.3,3.2s-1,3.2-1.1,5.3l10.7-0.8c0.1-0.2,0.1-0.6,0.2-1.1s0.1-0.9,0.1-1.2
		C588.6,684.9,587,682.8,583.9,682.8z"/>
	<path class="st1" d="M613.8,710.2h-15.9l0.4-2.7l5.3-1.3V671l-5.5-1.8l0.4-2.6l9.9-0.8l0.9,0.8v14.5l-0.5,3.6h0.3
		c3.2-3.6,6.6-5.3,10-5.3c2.6,0,4.7,0.7,6.1,2.2c1.4,1.5,2.2,4.2,2.2,8v16.6l5,1.2l-0.4,2.7h-15.3l0.4-2.5l4.7-1.4v-15.9
		c0-2.2-0.6-3.8-1.7-4.8s-2.5-1.5-4.1-1.5c-1.1,0-2.2,0.2-3.3,0.7s-2.2,1.2-3.3,2.4v19.1l5,1.2L613.8,710.2z"/>
	<path class="st1" d="M636.4,684.1H632v-1.8c1.4-1.1,2.8-2.5,4.3-4.2s2.9-3.3,4.1-5h1.8v8.1h9.7l-0.3,3h-9.4l-0.1,15.1
		c0,1.7,0.2,3.1,0.5,4c0.3,1,0.9,1.7,1.6,2.1c0.7,0.4,1.7,0.6,2.9,0.6c0.8,0,1.5-0.1,2.2-0.4c0.7-0.3,1.4-0.6,1.9-0.9
		c0.5-0.3,0.8-0.5,0.8-0.5l0.7,1.8c-1.1,1.6-2.4,2.8-4,3.7s-3.3,1.3-5.3,1.3c-2.3,0-4.1-0.7-5.4-2.2c-1.3-1.4-1.9-3.9-1.9-7.5
		L636.4,684.1z"/>
	<path class="st1" d="M676.7,711.3c-2,0-3.7-0.2-5.2-0.7s-2.7-1.1-3.5-2s-1.2-1.7-1.2-2.6c0-1.3,0.4-2.4,1.1-3.3
		c0.8-0.9,1.8-1.4,3-1.5c0.8,2.2,1.7,3.9,2.9,5s2.5,1.7,3.9,1.7c1.3,0,2.4-0.3,3.2-0.8c0.8-0.6,1.3-1.4,1.3-2.6c0-0.7-0.3-1.4-0.8-2
		s-1.1-1.2-1.9-1.7c-0.8-0.5-1.8-1.2-3.2-1.9c-1.9-1.1-3.4-2-4.6-2.9c-1.2-0.9-2.2-1.9-3-3.2s-1.2-2.7-1.2-4.3
		c0-1.4,0.4-2.8,1.2-4.2s1.9-2.5,3.5-3.5s3.4-1.4,5.6-1.4c1.6,0,3.1,0.3,4.4,0.8c1.3,0.5,2.3,1.3,3,2.2s1,2,1,3.1
		c0,1.3-0.4,2.4-1.3,3.2s-2,1.3-3.5,1.4c-0.4-2.6-1.1-4.5-2-5.8s-2-1.9-3.3-1.9c-1.2,0-2.1,0.4-2.8,1.2s-1,1.8-1,2.9
		c0,0.9,0.3,1.7,0.9,2.5c0.6,0.7,1.3,1.4,2.1,2s2,1.3,3.5,2.1c1.8,1,3.3,1.9,4.4,2.7c1.1,0.8,2.1,1.8,2.9,3c0.8,1.2,1.2,2.5,1.2,4
		c0,1.6-0.5,3.1-1.5,4.4c-1,1.3-2.3,2.4-3.9,3.1C680.2,710.9,678.5,711.3,676.7,711.3z"/>
	<path class="st1" d="M689.5,710.2l0.4-2.7l5.2-1.3v-21l-5.2-1.9l0.4-2.6l9.6-0.8l0.9,0.9v25.4l5.5,1.2l-0.4,2.7L689.5,710.2
		L689.5,710.2z M697.6,673.6c-0.7,0-1.4-0.2-2-0.6c-0.6-0.4-1.1-0.9-1.5-1.6c-0.4-0.6-0.5-1.4-0.5-2.1c0-1.1,0.4-2,1.2-2.7
		s1.8-1.1,2.9-1.1c1.1,0,2.1,0.4,2.9,1.1s1.2,1.7,1.2,2.8c0,0.8-0.2,1.4-0.6,2.1c-0.4,0.6-0.9,1.1-1.5,1.5S698.3,673.6,697.6,673.6z
		"/>
	<path class="st1" d="M720.6,711.2c-2.7,0-5-0.7-7.1-2.1c-2.1-1.4-3.6-3.2-4.8-5.6c-1.1-2.3-1.7-4.9-1.7-7.6c0-3.3,0.7-6.1,2.1-8.7
		s3.2-4.5,5.4-5.8s4.6-2.1,7.1-2.1c1.8,0,3.3,0.2,4.6,0.7s2.1,1.1,2.8,1.9c0.6,0.8,0.9,1.7,0.9,2.6c0,1-0.4,1.9-1.1,2.5
		c-0.8,0.6-1.8,1-3.2,1.1c-0.7-1.6-1.4-3-2.3-4c-0.8-1.1-1.9-1.6-3.2-1.6s-2.5,0.4-3.5,1.3c-1,0.8-1.8,2-2.4,3.6
		c-0.6,1.5-0.8,3.3-0.8,5.4c0,2.1,0.4,4.2,1.1,6.4c0.8,2.2,1.9,4.1,3.4,5.6s3.4,2.3,5.6,2.3c1.5,0,2.8-0.2,3.8-0.5
		c1-0.4,2.1-0.9,3.1-1.5l0.9,2c-1,1.1-2.4,2.1-4.4,3C724.7,710.8,722.7,711.2,720.6,711.2z"/>
	<path class="st1" d="M749.1,710.2h-15.9l0.4-2.7l5.3-1.3V671l-5.5-1.8l0.4-2.6l9.9-0.8l0.9,0.8v14.5l-0.5,3.6h0.3
		c3.2-3.6,6.6-5.3,10-5.3c2.6,0,4.7,0.7,6.1,2.2c1.4,1.5,2.2,4.2,2.2,8v16.6l5,1.2l-0.4,2.7H752l0.4-2.5l4.7-1.4v-15.9
		c0-2.2-0.6-3.8-1.7-4.8s-2.5-1.5-4.1-1.5c-1.1,0-2.2,0.2-3.3,0.7s-2.2,1.2-3.3,2.4v19.1l5,1.2L749.1,710.2z"/>
	<path class="st1" d="M797,710.2h-15.9l0.3-2.5l5.2-1.4v-20.7l-5.3-1.8l0.3-2.6l10.2-1.3l0.6,0.6l-0.6,4.4h0.3
		c1.3-1.5,2.8-2.8,4.6-3.9s3.7-1.5,5.7-1.5c2.7,0,4.7,0.8,6.1,2.5c1.4,1.7,2.1,4.1,2.1,7.1v17.2l4.9,1.2l-0.3,2.7H800l0.3-2.5
		l4.7-1.4v-15.8c0-2.1-0.5-3.7-1.6-4.7s-2.5-1.6-4.3-1.6c-1.3,0-2.5,0.3-3.7,0.8s-2.2,1.2-3,2.2v19.2l5.1,1.2L797,710.2z"/>
	<path class="st1" d="M818.1,710.2l0.4-2.7l5.2-1.3v-21l-5.2-1.9l0.4-2.6l9.6-0.8l0.9,0.9v25.4l5.5,1.2l-0.4,2.7L818.1,710.2
		L818.1,710.2z M826.2,673.6c-0.7,0-1.4-0.2-2-0.6c-0.6-0.4-1.1-0.9-1.5-1.6c-0.4-0.6-0.5-1.4-0.5-2.1c0-1.1,0.4-2,1.2-2.7
		s1.8-1.1,2.9-1.1c1.1,0,2.1,0.4,2.9,1.1s1.2,1.7,1.2,2.8c0,0.8-0.2,1.4-0.6,2.1c-0.4,0.6-0.9,1.1-1.5,1.5S827,673.6,826.2,673.6z"
		/>
	<path class="st1" d="M849.2,711.2c-2.7,0-5-0.7-7.1-2.1c-2.1-1.4-3.6-3.2-4.8-5.6c-1.1-2.3-1.7-4.9-1.7-7.6c0-3.3,0.7-6.1,2.1-8.7
		s3.2-4.5,5.4-5.8s4.6-2.1,7.1-2.1c1.8,0,3.3,0.2,4.6,0.7s2.1,1.1,2.8,1.9c0.6,0.8,0.9,1.7,0.9,2.6c0,1-0.4,1.9-1.1,2.5
		c-0.8,0.6-1.8,1-3.2,1.1c-0.7-1.6-1.4-3-2.3-4c-0.8-1.1-1.9-1.6-3.2-1.6s-2.5,0.4-3.5,1.3c-1,0.8-1.8,2-2.4,3.6s-0.8,3.3-0.8,5.4
		c0,2.1,0.4,4.2,1.1,6.4c0.8,2.2,1.9,4.1,3.4,5.6s3.4,2.3,5.6,2.3c1.5,0,2.8-0.2,3.8-0.5c1-0.4,2.1-0.9,3.1-1.5l0.9,2
		c-1,1.1-2.4,2.1-4.4,3C853.4,710.8,851.3,711.2,849.2,711.2z"/>
	<path class="st1" d="M877.7,710.2h-15.9l0.4-2.7l5.3-1.3V671l-5.5-1.8l0.4-2.6l9.9-0.8l0.9,0.8v14.5l-0.5,3.6h0.3
		c3.2-3.6,6.6-5.3,10-5.3c2.6,0,4.7,0.7,6.1,2.2c1.4,1.5,2.2,4.2,2.2,8v16.6l5,1.2l-0.4,2.7h-15.3l0.4-2.5l4.7-1.4v-15.9
		c0-2.2-0.6-3.8-1.7-4.8s-2.5-1.5-4.1-1.5c-1.1,0-2.2,0.2-3.3,0.7s-2.2,1.2-3.3,2.4v19.1l5,1.2L877.7,710.2z"/>
	<path class="st1" d="M900.3,684.1H896v-1.8c1.4-1.1,2.8-2.5,4.3-4.2s2.9-3.3,4.1-5h1.8v8.1h9.7l-0.3,3h-9.4l-0.1,15.1
		c0,1.7,0.2,3.1,0.5,4c0.3,1,0.9,1.7,1.6,2.1c0.7,0.4,1.7,0.6,2.9,0.6c0.8,0,1.5-0.1,2.2-0.4c0.7-0.3,1.4-0.6,1.9-0.9
		c0.5-0.3,0.8-0.5,0.8-0.5l0.7,1.8c-1.1,1.6-2.4,2.8-4,3.7s-3.3,1.3-5.3,1.3c-2.3,0-4.1-0.7-5.4-2.2c-1.3-1.4-1.9-3.9-1.9-7.5
		L900.3,684.1z"/>
	<path class="st1" d="M937.3,711c-1.2,0-2.3-0.3-3.3-0.8s-1.8-1.3-2.4-2.3s-0.9-2.2-0.9-3.5c0-1.8,0.6-3.4,1.7-5
		c1.1-1.5,2.9-2.9,5.2-3.9c2.4-1.1,5.3-1.7,8.9-2v-1.9c0-2.6-0.5-4.8-1.4-6.5s-2.5-2.6-4.6-2.6c-1.1,0-1.8,0.2-2.3,0.6
		c-0.5,0.4-0.8,1.1-0.9,1.9c-0.1,0.9-0.3,2.5-0.5,4.8c-1.3,0-2.5-0.2-3.4-0.6c-0.9-0.4-1.4-1.4-1.4-2.9c0-1.2,0.6-2.3,1.9-3.4
		c1.3-1.1,2.8-2,4.6-2.6c1.8-0.7,3.6-1,5.2-1c3,0,5.2,0.8,6.5,2.5s2,4.3,2,8v12.4c0,1.1,0.1,1.9,0.3,2.5s0.6,1,1.1,1.3
		s1.3,0.6,2.4,0.7l1.7,0.3l-0.4,2.9c-0.3,0-0.9,0.1-1.6,0.3c-1.1,0.3-2.1,0.4-3.1,0.4c-1.2,0-2.2-0.2-3-0.7s-1.4-1-1.7-1.7
		s-0.5-1.4-0.5-2.2v-0.5H947c-0.7,1.3-1.8,2.5-3.3,3.6S939.7,711,937.3,711z M946.3,695.5c-3.6,0.7-6.1,1.7-7.6,2.9
		s-2.2,2.7-2.2,4.4c0,0.6,0.1,1.2,0.4,1.8c0.3,0.6,0.7,1.1,1.3,1.5s1.3,0.6,2.1,0.6c1.1,0,2.2-0.3,3.3-1c1.1-0.6,2-1.3,2.7-2.1
		V695.5z"/>
	<path class="st1" d="M961.2,685.3l-4.7-1.9l0.5-2.7l9.2-0.7l0.9,0.8v18.5c0,4.6,1.8,6.9,5.3,6.9c1.4,0,2.6-0.2,3.6-0.7
		s1.9-1.1,2.7-1.9v-18.1l-5.4-1.4l0.3-3.1l10-0.9l0.7,0.8v22c0,1.1,0.1,1.9,0.4,2.5c0.3,0.6,0.7,1,1.1,1.2c0.5,0.2,1.2,0.4,2.1,0.6
		l1.6,0.3l-0.3,2.8c-1.1,0.3-1.9,0.4-2.6,0.5s-1.5,0.1-2.5,0.1c-1.6,0-2.9-0.5-3.7-1.4c-0.9-0.9-1.3-2.1-1.3-3.6v-0.3h-0.4
		c-2.4,3.5-5.7,5.3-9.8,5.3c-2.4,0-4.2-0.8-5.6-2.3c-1.4-1.6-2-4.1-2-7.6L961.2,685.3L961.2,685.3z"/>
	<path class="st1" d="M1011.4,710.2H992l0.4-2.5l5.2-1.5v-22.8h-5.1l0.4-2.5l4.7-0.8c0.4-3.3,1.2-6.1,2.6-8.5c1.4-2.3,3-4.1,4.8-5.3
		s3.6-1.8,5.4-1.8c1.9,0,3.5,0.3,4.6,1c1.2,0.7,1.8,1.6,1.8,2.9c0,0.8-0.3,1.5-1,2.3s-1.4,1.3-2,1.5c-0.9-1.1-1.8-2-2.9-2.9
		c-1.1-0.8-2.1-1.3-3.1-1.3c-1.4,0-2.5,0.6-3.2,1.9s-1.1,3.4-1.2,6.6l-0.1,3.7h8.8l-0.4,3h-8.4V706l8.4,1.3L1011.4,710.2z"/>
	<path class="st1" d="M1039.3,710.9c-2.1,0-3.9-0.6-5.6-1.7c-1.7-1.1-3-2.7-4-4.9s-1.5-4.8-1.5-7.8c0-3.2,0.7-6.1,2.2-8.7
		c1.5-2.6,3.4-4.7,5.7-6.2s4.7-2.3,7-2.3c1.1,0,2.2,0.1,3.3,0.4c1.1,0.3,2,0.6,2.5,1.1h0.2l-0.4-4.4V671l-5.2-1.9l0.5-2.6l9.5-0.8
		l0.7,0.8v36.1c0,1.1,0.1,2,0.4,2.5s0.7,0.9,1.1,1.1c0.5,0.2,1.2,0.4,2.2,0.6l1.5,0.3l-0.4,2.8c-1,0.3-1.9,0.5-2.5,0.5
		c-0.7,0.1-1.5,0.1-2.5,0.1c-1.6,0-2.9-0.5-3.8-1.4s-1.3-2.1-1.3-3.6v-0.2h-0.3c-1.1,1.5-2.5,2.8-4,3.8S1041.5,710.9,1039.3,710.9z
		 M1041.5,682.7c-2.5,0-4.4,1.1-5.5,3.2s-1.7,4.9-1.7,8.5c0,2.6,0.3,4.8,1,6.7c0.6,1.8,1.5,3.2,2.7,4.1c1.1,0.9,2.4,1.4,3.9,1.4
		c1.3,0,2.7-0.3,4-1c1.4-0.7,2.4-1.4,3-2.2v-16c-0.9-1.4-2-2.5-3.4-3.4C1044,683.2,1042.7,682.7,1041.5,682.7z"/>
	<path class="st1" d="M1068.8,711c-1.2,0-2.3-0.3-3.3-0.8s-1.8-1.3-2.4-2.3s-0.9-2.2-0.9-3.5c0-1.8,0.6-3.4,1.7-5
		c1.1-1.5,2.9-2.9,5.2-3.9c2.4-1.1,5.3-1.7,8.9-2v-1.9c0-2.6-0.5-4.8-1.4-6.5s-2.5-2.6-4.6-2.6c-1.1,0-1.8,0.2-2.3,0.6
		c-0.5,0.4-0.8,1.1-0.9,1.9c-0.1,0.9-0.3,2.5-0.5,4.8c-1.3,0-2.5-0.2-3.4-0.6c-0.9-0.4-1.4-1.4-1.4-2.9c0-1.2,0.6-2.3,1.9-3.4
		c1.3-1.1,2.8-2,4.6-2.6c1.8-0.7,3.6-1,5.2-1c3,0,5.2,0.8,6.5,2.5s2,4.3,2,8v12.4c0,1.1,0.1,1.9,0.3,2.5s0.6,1,1.1,1.3
		s1.3,0.6,2.4,0.7l1.7,0.3l-0.4,2.9c-0.3,0-0.9,0.1-1.6,0.3c-1.1,0.3-2.1,0.4-3.1,0.4c-1.2,0-2.2-0.2-3-0.7s-1.4-1-1.7-1.7
		s-0.5-1.4-0.5-2.2v-0.5h-0.4c-0.7,1.3-1.8,2.5-3.3,3.6S1071.3,711,1068.8,711z M1077.9,695.5c-3.6,0.7-6.1,1.7-7.6,2.9
		s-2.2,2.7-2.2,4.4c0,0.6,0.1,1.2,0.4,1.8s0.7,1.1,1.3,1.5c0.6,0.4,1.3,0.6,2.1,0.6c1.1,0,2.2-0.3,3.3-1c1.1-0.6,2-1.3,2.7-2.1
		L1077.9,695.5L1077.9,695.5z"/>
	<path class="st1" d="M1101.3,711.3c-2,0-3.7-0.2-5.2-0.7s-2.7-1.1-3.5-2s-1.2-1.7-1.2-2.6c0-1.3,0.4-2.4,1.1-3.3
		c0.8-0.9,1.8-1.4,3-1.5c0.8,2.2,1.7,3.9,2.9,5c1.2,1.1,2.5,1.7,3.9,1.7c1.3,0,2.4-0.3,3.2-0.8c0.8-0.6,1.3-1.4,1.3-2.6
		c0-0.7-0.3-1.4-0.8-2s-1.1-1.2-1.9-1.7s-1.8-1.2-3.2-1.9c-1.9-1.1-3.4-2-4.6-2.9s-2.2-1.9-3-3.2s-1.2-2.7-1.2-4.3
		c0-1.4,0.4-2.8,1.2-4.2c0.8-1.4,1.9-2.5,3.5-3.5c1.5-0.9,3.4-1.4,5.6-1.4c1.6,0,3.1,0.3,4.4,0.8s2.3,1.3,3,2.2s1,2,1,3.1
		c0,1.3-0.4,2.4-1.3,3.2s-2,1.3-3.5,1.4c-0.4-2.6-1.1-4.5-2-5.8s-2-1.9-3.3-1.9c-1.2,0-2.1,0.4-2.8,1.2c-0.7,0.8-1,1.8-1,2.9
		c0,0.9,0.3,1.7,0.9,2.5c0.6,0.7,1.3,1.4,2.1,2c0.8,0.6,2,1.3,3.5,2.1c1.8,1,3.3,1.9,4.4,2.7s2.1,1.8,2.9,3s1.2,2.5,1.2,4
		c0,1.6-0.5,3.1-1.5,4.4c-1,1.3-2.3,2.4-3.9,3.1C1104.8,710.9,1103.1,711.3,1101.3,711.3z"/>
	<path class="st1" d="M1125,670.2l0.3-2.6h17.6l-0.5,2.6l-5.7,1.3l8.3,29.4l9.6-31.5l6-0.9l8.5,31.9l8.9-28.7l-6.2-1.4l0.4-2.6h15.3
		l-0.4,2.6l-4.2,1.3l-12.5,38.5l-5.3,1l-9-33.3l-9.7,32.4l-5.6,1l-11.1-39.3L1125,670.2z"/>
	<path class="st1" d="M1191.5,711c-1.2,0-2.3-0.3-3.3-0.8s-1.8-1.3-2.4-2.3s-0.9-2.2-0.9-3.5c0-1.8,0.6-3.4,1.7-5
		c1.1-1.5,2.9-2.9,5.2-3.9c2.4-1.1,5.3-1.7,8.9-2v-1.9c0-2.6-0.5-4.8-1.4-6.5s-2.5-2.6-4.6-2.6c-1.1,0-1.8,0.2-2.3,0.6
		c-0.5,0.4-0.8,1.1-0.9,1.9c-0.1,0.9-0.3,2.5-0.5,4.8c-1.3,0-2.5-0.2-3.4-0.6c-0.9-0.4-1.4-1.4-1.4-2.9c0-1.2,0.6-2.3,1.9-3.4
		c1.3-1.1,2.8-2,4.6-2.6c1.8-0.7,3.6-1,5.2-1c3,0,5.2,0.8,6.5,2.5s2,4.3,2,8v12.4c0,1.1,0.1,1.9,0.3,2.5s0.6,1,1.1,1.3
		s1.3,0.6,2.4,0.7l1.7,0.3l-0.4,2.9c-0.3,0-0.9,0.1-1.6,0.3c-1.1,0.3-2.1,0.4-3.1,0.4c-1.2,0-2.2-0.2-3-0.7s-1.4-1-1.7-1.7
		s-0.5-1.4-0.5-2.2v-0.5h-0.4c-0.7,1.3-1.8,2.5-3.3,3.6S1194,711,1191.5,711z M1200.6,695.5c-3.6,0.7-6.1,1.7-7.6,2.9
		s-2.2,2.7-2.2,4.4c0,0.6,0.1,1.2,0.4,1.8s0.7,1.1,1.3,1.5c0.6,0.4,1.3,0.6,2.1,0.6c1.1,0,2.2-0.3,3.3-1c1.1-0.6,2-1.3,2.7-2.1
		L1200.6,695.5L1200.6,695.5z"/>
	<path class="st1" d="M1224.1,711.3c-2,0-3.7-0.2-5.2-0.7s-2.7-1.1-3.5-2s-1.2-1.7-1.2-2.6c0-1.3,0.4-2.4,1.1-3.3
		c0.8-0.9,1.8-1.4,3-1.5c0.8,2.2,1.7,3.9,2.9,5c1.2,1.1,2.5,1.7,3.9,1.7c1.3,0,2.4-0.3,3.2-0.8c0.8-0.6,1.3-1.4,1.3-2.6
		c0-0.7-0.3-1.4-0.8-2s-1.1-1.2-1.9-1.7s-1.8-1.2-3.2-1.9c-1.9-1.1-3.4-2-4.6-2.9s-2.2-1.9-3-3.2s-1.2-2.7-1.2-4.3
		c0-1.4,0.4-2.8,1.2-4.2c0.8-1.4,1.9-2.5,3.5-3.5c1.5-0.9,3.4-1.4,5.6-1.4c1.6,0,3.1,0.3,4.4,0.8s2.3,1.3,3,2.2s1,2,1,3.1
		c0,1.3-0.4,2.4-1.3,3.2s-2,1.3-3.5,1.4c-0.4-2.6-1.1-4.5-2-5.8s-2-1.9-3.3-1.9c-1.2,0-2.1,0.4-2.8,1.2c-0.7,0.8-1,1.8-1,2.9
		c0,0.9,0.3,1.7,0.9,2.5c0.6,0.7,1.3,1.4,2.1,2c0.8,0.6,2,1.3,3.5,2.1c1.8,1,3.3,1.9,4.4,2.7s2.1,1.8,2.9,3s1.2,2.5,1.2,4
		c0,1.6-0.5,3.1-1.5,4.4c-1,1.3-2.3,2.4-3.9,3.1C1227.5,710.9,1225.8,711.3,1224.1,711.3z"/>
	<path class="st1" d="M1247.6,711.3c-2,0-3.7-0.2-5.2-0.7s-2.7-1.1-3.5-2s-1.2-1.7-1.2-2.6c0-1.3,0.4-2.4,1.1-3.3
		c0.8-0.9,1.8-1.4,3-1.5c0.8,2.2,1.7,3.9,2.9,5c1.2,1.1,2.5,1.7,3.9,1.7c1.3,0,2.4-0.3,3.2-0.8c0.8-0.6,1.3-1.4,1.3-2.6
		c0-0.7-0.3-1.4-0.8-2s-1.1-1.2-1.9-1.7s-1.8-1.2-3.2-1.9c-1.9-1.1-3.4-2-4.6-2.9s-2.2-1.9-3-3.2s-1.2-2.7-1.2-4.3
		c0-1.4,0.4-2.8,1.2-4.2c0.8-1.4,1.9-2.5,3.5-3.5c1.5-0.9,3.4-1.4,5.6-1.4c1.6,0,3.1,0.3,4.4,0.8s2.3,1.3,3,2.2s1,2,1,3.1
		c0,1.3-0.4,2.4-1.3,3.2s-2,1.3-3.5,1.4c-0.4-2.6-1.1-4.5-2-5.8s-2-1.9-3.3-1.9c-1.2,0-2.1,0.4-2.8,1.2c-0.7,0.8-1,1.8-1,2.9
		c0,0.9,0.3,1.7,0.9,2.5c0.6,0.7,1.3,1.4,2.1,2c0.8,0.6,2,1.3,3.5,2.1c1.8,1,3.3,1.9,4.4,2.7s2.1,1.8,2.9,3s1.2,2.5,1.2,4
		c0,1.6-0.5,3.1-1.5,4.4c-1,1.3-2.3,2.4-3.9,3.1C1251.1,710.9,1249.4,711.3,1247.6,711.3z"/>
	<path class="st1" d="M1274.1,711.2c-2.2,0-4.3-0.6-6.3-1.8s-3.6-3-4.8-5.3c-1.2-2.4-1.8-5.2-1.8-8.5s0.7-6.1,2.1-8.5
		s3.2-4.3,5.3-5.6c2.2-1.3,4.4-1.9,6.7-1.9c1.7,0,3.2,0.4,4.6,1.2s2.5,2.1,3.3,3.7s1.2,3.6,1.2,5.9c0,0.5-0.1,1.2-0.2,2.2
		c-0.1,0.9-0.2,1.7-0.4,2.3l-16.5,0.2c0.1,1.9,0.5,3.8,1.2,5.6s1.8,3.3,3.2,4.4c1.4,1.2,3.1,1.7,5.1,1.7c1.1,0,2,0,2.6-0.1
		s1.4-0.2,2.2-0.5c0.8-0.3,1.8-0.7,2.9-1.3l0.7,1.8c-1.4,1.4-3,2.6-5,3.4C1278.4,710.8,1276.3,711.2,1274.1,711.2z M1273.6,682.8
		c-1,0-1.9,0.3-2.8,1s-1.7,1.8-2.3,3.2s-1,3.2-1.1,5.3l10.7-0.8c0.1-0.2,0.1-0.6,0.2-1.1c0-0.5,0.1-0.9,0.1-1.2
		C1278.3,684.9,1276.7,682.8,1273.6,682.8z"/>
	<path class="st1" d="M1307,710.2h-18.9l0.3-2.5l5.2-1.4v-21l-5.6-1.7l0.5-2.6l9.8-1.3l0.8,0.8l-0.7,7.9h0.6c0.6-2,1.4-3.7,2.3-5.1
		c0.9-1.4,1.9-2.4,3-3.1c1-0.7,2.1-1,3.1-1c1.1,0,2,0.4,2.7,1.1c0.7,0.8,1.1,1.7,1.1,2.7c0,1.4-0.6,2.7-1.9,3.8
		c-0.7-0.4-1.4-0.7-2.1-1c-0.7-0.2-1.4-0.4-2.1-0.4s-1.4,0.3-2.3,0.8s-1.6,1.4-2.2,2.5c-0.7,1.1-1.1,2.5-1.4,4.1V706l8,1.2
		L1307,710.2z"/>
	<path class="st1" d="M1312.3,720.9l-0.8-2.4c2.1-0.5,3.7-1.4,4.7-2.5s1.5-2.3,1.5-3.5c0-1-0.4-1.8-1.1-2.5s-1.7-1.1-2.9-1.1
		c-0.2,0-0.6,0-1,0.1c-0.3-0.8-0.5-1.6-0.5-2.2c0-0.9,0.2-1.6,0.6-2.2c0.4-0.6,1-1.1,1.6-1.4c0.6-0.3,1.3-0.5,1.9-0.5
		c0.9,0,1.8,0.3,2.7,0.8c0.9,0.5,1.7,1.3,2.3,2.4c0.6,1.1,0.9,2.4,0.9,4c0,2.2-0.7,4.4-2.1,6.4
		C1318.9,718.3,1316.3,719.8,1312.3,720.9z"/>
	<path class="st1" d="M112,797.3c-2,0-3.7-0.2-5.2-0.7s-2.7-1.1-3.5-2s-1.2-1.7-1.2-2.6c0-1.3,0.4-2.4,1.1-3.3
		c0.8-0.9,1.8-1.4,3-1.5c0.8,2.2,1.7,3.9,2.9,5c1.2,1.1,2.5,1.7,3.9,1.7c1.3,0,2.4-0.3,3.2-0.8c0.8-0.6,1.3-1.4,1.3-2.6
		c0-0.7-0.3-1.4-0.8-2s-1.1-1.2-1.9-1.7s-1.8-1.2-3.2-1.9c-1.9-1.1-3.4-2-4.6-2.9s-2.2-1.9-3-3.2s-1.2-2.7-1.2-4.3
		c0-1.4,0.4-2.8,1.2-4.2c0.8-1.4,1.9-2.5,3.5-3.5s3.4-1.4,5.6-1.4c1.6,0,3.1,0.3,4.4,0.8s2.3,1.3,3,2.2s1,2,1,3.1
		c0,1.3-0.4,2.4-1.3,3.2s-2,1.3-3.5,1.4c-0.4-2.6-1.1-4.5-2-5.8s-2-1.9-3.3-1.9c-1.2,0-2.1,0.4-2.8,1.2c-0.7,0.8-1,1.8-1,2.9
		c0,0.9,0.3,1.7,0.9,2.5c0.6,0.7,1.3,1.4,2.1,2c0.8,0.6,2,1.3,3.5,2.1c1.8,1,3.3,1.9,4.4,2.7s2.1,1.8,2.9,3s1.2,2.5,1.2,4
		c0,1.6-0.5,3.1-1.5,4.4c-1,1.3-2.3,2.4-3.9,3.1C115.5,796.9,113.8,797.3,112,797.3z"/>
	<path class="st1" d="M139.6,797.1c-2.9,0-5.5-0.7-7.6-2s-3.7-3.2-4.8-5.5c-1.1-2.3-1.7-5-1.7-7.9c0-3.3,0.7-6.2,2.1-8.7
		s3.2-4.4,5.5-5.7s4.7-1.9,7.3-1.9c2.8,0,5.2,0.7,7.2,2s3.6,3.2,4.7,5.6c1.1,2.4,1.6,5.1,1.6,8.3c0,3.1-0.6,5.9-1.9,8.3
		c-1.3,2.4-3,4.3-5.2,5.7C144.7,796.4,142.3,797.1,139.6,797.1z M139,768.9c-1.6,0-3,0.5-4.1,1.4s-1.9,2.2-2.4,3.7
		c-0.5,1.6-0.8,3.3-0.8,5.1c0,2.5,0.3,4.9,0.9,7.1c0.6,2.2,1.6,4,3,5.4s3.1,2.1,5.2,2.1c1.5,0,2.8-0.5,3.9-1.4
		c1.1-0.9,1.9-2.2,2.4-3.7s0.8-3.1,0.8-4.8c0-2.5-0.3-4.8-0.9-7.1c-0.6-2.3-1.6-4.2-2.9-5.7S141,768.9,139,768.9z"/>
	<path class="st1" d="M171.3,796.2h-15.9l0.3-2.5l5.2-1.4v-20.7l-5.3-1.8l0.3-2.6l10.2-1.3l0.6,0.6l-0.6,4.4h0.3
		c1.3-1.5,2.8-2.8,4.6-3.9s3.7-1.5,5.7-1.5c2.7,0,4.7,0.8,6.1,2.5c1.4,1.7,2.1,4.1,2.1,7.1v17.2l4.9,1.2l-0.3,2.7h-15.3l0.3-2.5
		l4.7-1.4v-15.8c0-2.1-0.5-3.7-1.6-4.7s-2.5-1.6-4.3-1.6c-1.3,0-2.5,0.3-3.7,0.8s-2.2,1.2-3,2.2v19.2l5.1,1.2L171.3,796.2z"/>
	<path class="st1" d="M202.4,796.9c-2.1,0-3.9-0.6-5.6-1.7c-1.7-1.1-3-2.7-4-4.9s-1.5-4.8-1.5-7.8c0-3.2,0.7-6.1,2.2-8.7
		c1.5-2.6,3.4-4.7,5.7-6.2s4.7-2.3,7-2.3c1.1,0,2.2,0.1,3.3,0.4c1.1,0.3,2,0.6,2.5,1.1h0.2l-0.4-4.4V757l-5.2-1.9l0.5-2.6l9.5-0.8
		l0.7,0.8v36.1c0,1.1,0.1,2,0.4,2.5c0.3,0.6,0.7,0.9,1.1,1.1c0.5,0.2,1.2,0.4,2.2,0.6l1.5,0.3l-0.4,2.8c-1,0.3-1.9,0.5-2.5,0.5
		c-0.6,0.1-1.5,0.1-2.5,0.1c-1.6,0-2.9-0.5-3.8-1.4c-0.9-0.9-1.3-2.1-1.3-3.6v-0.2h-0.3c-1.1,1.5-2.5,2.8-4,3.8
		S204.5,796.9,202.4,796.9z M204.5,768.7c-2.5,0-4.4,1.1-5.5,3.2s-1.7,4.9-1.7,8.5c0,2.6,0.3,4.8,1,6.7s1.5,3.2,2.7,4.1
		c1.1,0.9,2.4,1.4,3.9,1.4c1.3,0,2.7-0.3,4-1c1.4-0.7,2.4-1.4,3-2.2v-16c-0.9-1.4-2-2.5-3.4-3.4C207,769.2,205.7,768.7,204.5,768.7z
		"/>
	<path class="st1" d="M236.4,797.2c-2.2,0-4.3-0.6-6.3-1.8s-3.6-3-4.8-5.3c-1.2-2.4-1.8-5.2-1.8-8.5s0.7-6.1,2.1-8.5
		c1.4-2.4,3.1-4.3,5.3-5.6s4.4-1.9,6.7-1.9c1.7,0,3.2,0.4,4.6,1.2c1.4,0.8,2.5,2.1,3.3,3.7c0.8,1.6,1.2,3.6,1.2,5.9
		c0,0.5-0.1,1.2-0.2,2.2c-0.1,0.9-0.2,1.7-0.4,2.3l-16.5,0.2c0.1,1.9,0.5,3.8,1.2,5.6s1.8,3.3,3.2,4.4s3.1,1.7,5.1,1.7
		c1.1,0,2,0,2.6-0.1s1.4-0.2,2.2-0.5s1.8-0.7,2.9-1.3l0.7,1.8c-1.4,1.4-3,2.6-5,3.4S238.6,797.2,236.4,797.2z M235.9,768.8
		c-1,0-1.9,0.3-2.8,1c-0.9,0.7-1.7,1.8-2.3,3.2s-1,3.2-1.1,5.3l10.7-0.8c0.1-0.2,0.1-0.6,0.2-1.1s0.1-0.9,0.1-1.2
		C240.6,770.9,239,768.8,235.9,768.8z"/>
	<path class="st1" d="M269.3,796.2h-18.9l0.3-2.5l5.2-1.4v-21l-5.6-1.7l0.5-2.6l9.8-1.3l0.8,0.8l-0.7,7.9h0.6c0.6-2,1.4-3.7,2.3-5.1
		c0.9-1.4,1.9-2.4,3-3.1c1-0.7,2.1-1,3.1-1c1.1,0,2,0.4,2.7,1.1c0.7,0.8,1.1,1.7,1.1,2.7c0,1.4-0.6,2.7-1.9,3.8
		c-0.7-0.4-1.4-0.7-2.1-1c-0.7-0.2-1.4-0.4-2.1-0.4s-1.4,0.3-2.3,0.8s-1.6,1.4-2.2,2.5c-0.7,1.1-1.1,2.5-1.4,4.1V792l8,1.2
		L269.3,796.2z"/>
	<path class="st1" d="M292,796.2h-15.9l0.3-2.5l5.2-1.4v-20.7l-5.3-1.8l0.3-2.6l10.2-1.3l0.6,0.6l-0.6,4.4h0.3
		c1.3-1.5,2.8-2.8,4.6-3.9s3.7-1.5,5.7-1.5c2.7,0,4.7,0.8,6.1,2.5s2.1,4.1,2.1,7.1v17.2l4.9,1.2l-0.3,2.7H295l0.3-2.5l4.7-1.4v-15.8
		c0-2.1-0.5-3.7-1.6-4.7s-2.5-1.6-4.3-1.6c-1.3,0-2.5,0.3-3.7,0.8s-2.2,1.2-3,2.2v19.2l5.1,1.2L292,796.2z"/>
	<path class="st1" d="M331.2,797c-1.2,0-2.3-0.3-3.3-0.8s-1.8-1.3-2.4-2.3s-0.9-2.2-0.9-3.5c0-1.8,0.6-3.4,1.7-5
		c1.1-1.5,2.9-2.9,5.2-3.9s5.3-1.7,8.9-2v-1.9c0-2.6-0.5-4.8-1.4-6.5s-2.5-2.6-4.6-2.6c-1.1,0-1.8,0.2-2.3,0.6
		c-0.5,0.4-0.8,1.1-0.9,1.9c-0.1,0.9-0.3,2.5-0.5,4.8c-1.3,0-2.5-0.2-3.4-0.6c-0.9-0.4-1.4-1.4-1.4-2.9c0-1.2,0.6-2.3,1.9-3.4
		c1.3-1.1,2.8-2,4.6-2.6c1.8-0.7,3.6-1,5.2-1c3,0,5.2,0.8,6.5,2.5s2,4.3,2,8v12.4c0,1.1,0.1,1.9,0.3,2.5s0.6,1,1.1,1.3
		s1.3,0.6,2.4,0.7l1.7,0.3l-0.4,2.9c-0.3,0-0.9,0.1-1.6,0.3c-1.1,0.3-2.1,0.4-3.1,0.4c-1.2,0-2.2-0.2-3-0.7s-1.4-1-1.7-1.7
		c-0.4-0.7-0.5-1.4-0.5-2.2v-0.5h-0.4c-0.7,1.3-1.8,2.5-3.3,3.6C335.7,796.4,333.7,797,331.2,797z M340.3,781.5
		c-3.6,0.7-6.1,1.7-7.6,2.9s-2.2,2.7-2.2,4.4c0,0.6,0.1,1.2,0.4,1.8s0.7,1.1,1.3,1.5s1.3,0.6,2.1,0.6c1.1,0,2.2-0.3,3.3-1
		c1.1-0.6,2-1.3,2.7-2.1L340.3,781.5L340.3,781.5z"/>
	<path class="st1" d="M355.1,771.3l-4.7-1.9l0.5-2.7l9.2-0.7l0.9,0.8v18.5c0,4.6,1.8,6.9,5.3,6.9c1.4,0,2.6-0.2,3.6-0.7
		s1.9-1.1,2.7-1.9v-18.1l-5.4-1.4l0.3-3.1l10-0.9l0.7,0.8v22c0,1.1,0.1,1.9,0.4,2.5s0.7,1,1.1,1.2c0.5,0.2,1.2,0.4,2.1,0.6l1.6,0.3
		l-0.3,2.8c-1.1,0.3-1.9,0.4-2.6,0.5s-1.5,0.1-2.5,0.1c-1.6,0-2.9-0.5-3.7-1.4s-1.3-2.1-1.3-3.6v-0.3h-0.4c-2.4,3.5-5.7,5.3-9.8,5.3
		c-2.4,0-4.2-0.8-5.6-2.3c-1.4-1.6-2-4.1-2-7.6v-15.7H355.1z"/>
	<path class="st1" d="M405.3,796.2h-19.4l0.4-2.5l5.2-1.5v-22.8h-5.1l0.4-2.5l4.7-0.8c0.4-3.3,1.2-6.1,2.6-8.5
		c1.4-2.3,3-4.1,4.8-5.3s3.6-1.8,5.4-1.8c1.9,0,3.5,0.3,4.6,1c1.2,0.7,1.8,1.6,1.8,2.9c0,0.8-0.3,1.5-1,2.3s-1.4,1.3-2,1.5
		c-0.9-1.1-1.8-2-2.9-2.9c-1.1-0.8-2.1-1.3-3.1-1.3c-1.4,0-2.5,0.6-3.2,1.9c-0.7,1.2-1.1,3.4-1.2,6.6l-0.1,3.7h8.8l-0.4,3h-8.4V792
		l8.4,1.3L405.3,796.2z"/>
	<path class="st1" d="M433.2,796.9c-2.1,0-3.9-0.6-5.6-1.7c-1.7-1.1-3-2.7-4-4.9s-1.5-4.8-1.5-7.8c0-3.2,0.7-6.1,2.2-8.7
		c1.5-2.6,3.4-4.7,5.7-6.2c2.3-1.5,4.7-2.3,7-2.3c1.1,0,2.2,0.1,3.3,0.4c1.1,0.3,2,0.6,2.5,1.1h0.2l-0.4-4.4V757l-5.2-1.9l0.5-2.6
		l9.5-0.8l0.7,0.8v36.1c0,1.1,0.1,2,0.4,2.5c0.3,0.6,0.7,0.9,1.1,1.1c0.5,0.2,1.2,0.4,2.2,0.6l1.5,0.3l-0.4,2.8
		c-1,0.3-1.9,0.5-2.5,0.5c-0.6,0.1-1.5,0.1-2.5,0.1c-1.6,0-2.9-0.5-3.8-1.4s-1.3-2.1-1.3-3.6v-0.2h-0.3c-1.1,1.5-2.5,2.8-4,3.8
		S435.4,796.9,433.2,796.9z M435.4,768.7c-2.5,0-4.4,1.1-5.5,3.2s-1.7,4.9-1.7,8.5c0,2.6,0.3,4.8,1,6.7s1.5,3.2,2.7,4.1
		c1.1,0.9,2.4,1.4,3.9,1.4c1.3,0,2.7-0.3,4-1c1.4-0.7,2.4-1.4,3-2.2v-16c-0.9-1.4-2-2.5-3.4-3.4
		C437.9,769.2,436.6,768.7,435.4,768.7z"/>
	<path class="st1" d="M455.9,796.2l0.4-2.7l5.2-1.3v-21l-5.2-1.9l0.4-2.6l9.6-0.8l0.9,0.9v25.4l5.5,1.2l-0.4,2.7L455.9,796.2
		L455.9,796.2z M464,759.6c-0.7,0-1.4-0.2-2-0.6c-0.6-0.4-1.1-0.9-1.5-1.6c-0.4-0.6-0.5-1.4-0.5-2.1c0-1.1,0.4-2,1.2-2.7
		c0.8-0.7,1.8-1.1,2.9-1.1s2.1,0.4,2.9,1.1s1.2,1.7,1.2,2.8c0,0.8-0.2,1.4-0.6,2.1c-0.4,0.6-0.9,1.1-1.5,1.5S464.8,759.6,464,759.6z
		"/>
	<path class="st1" d="M486.4,797.2c-2.2,0-4.3-0.6-6.3-1.8s-3.6-3-4.8-5.3c-1.2-2.4-1.8-5.2-1.8-8.5s0.7-6.1,2.1-8.5
		s3.1-4.3,5.3-5.6c2.2-1.3,4.4-1.9,6.7-1.9c1.7,0,3.2,0.4,4.6,1.2s2.5,2.1,3.3,3.7c0.8,1.6,1.2,3.6,1.2,5.9c0,0.5-0.1,1.2-0.2,2.2
		c-0.1,0.9-0.2,1.7-0.4,2.3l-16.5,0.2c0.1,1.9,0.5,3.8,1.2,5.6s1.8,3.3,3.2,4.4s3.1,1.7,5.1,1.7c1.1,0,2,0,2.6-0.1s1.4-0.2,2.2-0.5
		c0.8-0.3,1.8-0.7,2.9-1.3l0.7,1.8c-1.4,1.4-3,2.6-5,3.4S488.7,797.2,486.4,797.2z M486,768.8c-1,0-1.9,0.3-2.8,1s-1.7,1.8-2.3,3.2
		c-0.6,1.4-1,3.2-1.1,5.3l10.7-0.8c0.1-0.2,0.1-0.6,0.2-1.1s0.1-0.9,0.1-1.2C490.7,770.9,489.1,768.8,486,768.8z"/>
	<path class="st1" d="M510.3,756.2l0.3-2.6H529l-0.3,2.6l-5.8,1.3l10.7,30l10.9-29.9l-6.2-1.4l0.2-2.6h15.6l-0.2,2.6l-4.5,1.3
		L534.8,796l-5.2,1l-14.3-39.3L510.3,756.2z"/>
	<path class="st1" d="M563.3,797.2c-2.2,0-4.3-0.6-6.3-1.8s-3.6-3-4.8-5.3c-1.2-2.4-1.8-5.2-1.8-8.5s0.7-6.1,2.1-8.5
		c1.4-2.4,3.1-4.3,5.3-5.6s4.4-1.9,6.7-1.9c1.7,0,3.2,0.4,4.6,1.2c1.4,0.8,2.5,2.1,3.3,3.7c0.8,1.6,1.2,3.6,1.2,5.9
		c0,0.5-0.1,1.2-0.2,2.2c-0.1,0.9-0.2,1.7-0.4,2.3l-16.5,0.2c0.1,1.9,0.5,3.8,1.2,5.6s1.8,3.3,3.2,4.4s3.1,1.7,5.1,1.7
		c1.1,0,2,0,2.6-0.1s1.4-0.2,2.2-0.5s1.8-0.7,2.9-1.3l0.7,1.8c-1.4,1.4-3,2.6-5,3.4S565.6,797.2,563.3,797.2z M562.8,768.8
		c-1,0-1.9,0.3-2.8,1c-0.9,0.7-1.7,1.8-2.3,3.2s-1,3.2-1.1,5.3l10.7-0.8c0.1-0.2,0.1-0.6,0.2-1.1s0.1-0.9,0.1-1.2
		C567.6,770.9,566,768.8,562.8,768.8z"/>
	<path class="st1" d="M596.3,796.2h-18.9l0.3-2.5l5.2-1.4v-21l-5.6-1.7l0.5-2.6l9.8-1.3l0.8,0.8l-0.7,7.9h0.6c0.6-2,1.4-3.7,2.3-5.1
		c0.9-1.4,1.9-2.4,3-3.1c1-0.7,2.1-1,3.1-1c1.1,0,2,0.4,2.7,1.1c0.7,0.8,1.1,1.7,1.1,2.7c0,1.4-0.6,2.7-1.9,3.8
		c-0.7-0.4-1.4-0.7-2.1-1c-0.7-0.2-1.4-0.4-2.1-0.4c-0.7,0-1.4,0.3-2.3,0.8s-1.6,1.4-2.2,2.5c-0.7,1.1-1.1,2.5-1.4,4.1V792l8,1.2
		L596.3,796.2z"/>
	<path class="st1" d="M618.7,808.9h-15.9l0.2-2.7l5.2-1.3v-33.4l-5.3-1.6l0.4-2.6l9.9-1.3l0.7,0.6l-0.5,4.4h0.2c1.1-1.5,2.4-2.8,4-4
		c1.6-1.1,3.4-1.7,5.4-1.7s3.8,0.5,5.4,1.6c1.5,1,2.8,2.7,3.7,4.9s1.3,5,1.3,8.3c0,3.2-0.7,6-2,8.6c-1.3,2.5-3.1,4.5-5.4,5.9
		c-2.3,1.4-4.9,2.1-7.8,2.1c-1,0-2.1-0.1-3.2-0.3l-0.2-4.1c0.8,0.3,1.5,0.5,2.2,0.6s1.7,0.2,3,0.2c2.3,0,4.1-1,5.3-2.9
		c1.2-2,1.8-4.6,1.8-7.9c0-4.1-0.5-7.2-1.6-9.2s-2.7-3.1-4.9-3.1c-1.3,0-2.6,0.3-3.8,1s-2.3,1.5-3.2,2.5V805l5.3,1.2L618.7,808.9z"
		/>
	<path class="st1" d="M643,797c-1.2,0-2.3-0.3-3.3-0.8s-1.8-1.3-2.4-2.3c-0.6-1-0.9-2.2-0.9-3.5c0-1.8,0.6-3.4,1.7-5
		c1.1-1.5,2.9-2.9,5.2-3.9s5.3-1.7,8.9-2v-1.9c0-2.6-0.5-4.8-1.4-6.5s-2.5-2.6-4.6-2.6c-1.1,0-1.8,0.2-2.3,0.6
		c-0.5,0.4-0.8,1.1-0.9,1.9c-0.1,0.9-0.3,2.5-0.5,4.8c-1.3,0-2.5-0.2-3.4-0.6c-0.9-0.4-1.4-1.4-1.4-2.9c0-1.2,0.6-2.3,1.9-3.4
		c1.3-1.1,2.8-2,4.6-2.6c1.8-0.7,3.6-1,5.2-1c3,0,5.2,0.8,6.5,2.5s2,4.3,2,8v12.4c0,1.1,0.1,1.9,0.3,2.5s0.6,1,1.1,1.3
		s1.3,0.6,2.4,0.7l1.7,0.3l-0.4,2.9c-0.3,0-0.9,0.1-1.6,0.3c-1.1,0.3-2.1,0.4-3.1,0.4c-1.2,0-2.2-0.2-3-0.7s-1.4-1-1.7-1.7
		c-0.4-0.7-0.5-1.4-0.5-2.2v-0.5h-0.4c-0.7,1.3-1.8,2.5-3.3,3.6C647.5,796.4,645.5,797,643,797z M652.1,781.5
		c-3.6,0.7-6.1,1.7-7.6,2.9s-2.2,2.7-2.2,4.4c0,0.6,0.1,1.2,0.4,1.8c0.3,0.6,0.7,1.1,1.3,1.5s1.3,0.6,2.1,0.6c1.1,0,2.2-0.3,3.3-1
		c1.1-0.6,2-1.3,2.7-2.1V781.5z"/>
	<path class="st1" d="M664.9,796.2l0.4-2.7l5.2-1.3v-34.9l-5.4-1.8l0.4-2.6l9.8-0.8l0.9,0.9v39.3l5.4,1.2l-0.4,2.7L664.9,796.2
		L664.9,796.2z M680.6,786.4l-3.6-5v-0.7l8.9-11.1l-4.5-1.4l0.3-2.6h14.6l-0.5,2.5l-5.1,1.4l-8.1,9.9l2.7,3.5
		c0.5,0.5,1.2,1.6,2.4,3.1c1.4,1.8,2.4,3.1,3.2,4s1.6,1.6,2.5,2.2c0.9,0.6,1.9,0.9,3,1.1l1.4,0.2l-0.4,2.6c-1.6,0.4-3,0.6-4.1,0.6
		c-1.5,0-2.8-0.3-4-1s-2.4-1.7-3.7-3.1C684.4,791.3,682.7,789.2,680.6,786.4z"/>
	<path class="st1" d="M703.4,771.3l-4.7-1.9l0.5-2.7l9.2-0.7l0.9,0.8v18.5c0,4.6,1.8,6.9,5.3,6.9c1.4,0,2.6-0.2,3.6-0.7
		s1.9-1.1,2.7-1.9v-18.1l-5.4-1.4l0.3-3.1l10-0.9l0.7,0.8v22c0,1.1,0.1,1.9,0.4,2.5c0.3,0.6,0.7,1,1.1,1.2c0.5,0.2,1.2,0.4,2.1,0.6
		l1.6,0.3l-0.3,2.8c-1.1,0.3-1.9,0.4-2.6,0.5s-1.5,0.1-2.5,0.1c-1.6,0-2.9-0.5-3.7-1.4s-1.3-2.1-1.3-3.6v-0.3h-0.4
		c-2.4,3.5-5.7,5.3-9.8,5.3c-2.4,0-4.2-0.8-5.6-2.3c-1.4-1.6-2-4.1-2-7.6L703.4,771.3L703.4,771.3z"/>
	<path class="st1" d="M750.1,796.2h-15.9l0.3-2.5l5.2-1.4v-20.7l-5.3-1.8l0.3-2.6l10.2-1.3l0.6,0.6l-0.6,4.4h0.3
		c1.3-1.5,2.8-2.8,4.6-3.9s3.7-1.5,5.7-1.5c2.7,0,4.7,0.8,6.1,2.5c1.4,1.7,2.1,4.1,2.1,7.1v17.2l4.9,1.2l-0.3,2.7H753l0.3-2.5
		l4.7-1.4v-15.8c0-2.1-0.5-3.7-1.6-4.7s-2.5-1.6-4.3-1.6c-1.3,0-2.5,0.3-3.7,0.8s-2.2,1.2-3,2.2v19.2l5.1,1.2L750.1,796.2z"/>
	<path class="st1" d="M781.9,809.4c-3.6,0-6.5-0.6-8.9-1.8c-2.3-1.2-3.5-3.2-3.5-5.9c0-2,1.8-4.1,5.5-6.2v-0.3c-1-0.5-1.9-1.2-2.4-2
		s-0.9-1.7-0.9-2.7c0-0.6,0.3-1.3,0.9-2s1.3-1.4,2.2-2.1c0.9-0.7,1.8-1.2,2.6-1.5v-0.2c-0.6-0.2-1.4-0.7-2.3-1.5s-1.7-1.9-2.3-3.2
		s-1-2.6-1-4c0-1.8,0.5-3.5,1.6-5.2c1.1-1.6,2.5-2.9,4.3-3.9s3.6-1.5,5.5-1.5c2.8,0,5.2,0.7,7.2,2.2c0.9,0,2.2-0.1,3.8-0.3
		s2.8-0.2,3.5-0.3l0.7,0.8l-1.3,3.8h-0.5l-4.2-1.4v0.6c0.3,0.6,0.5,1.4,0.8,2.3s0.4,1.7,0.4,2.5c0,2-0.6,3.7-1.8,5.3
		c-1.2,1.5-2.7,2.8-4.4,3.6c-1.8,0.9-3.6,1.3-5.3,1.3c-0.6,0-1.2,0-1.8-0.1s-1-0.2-1.3-0.2c-1.1,1.2-1.7,2.2-1.7,3s0.4,1.4,1.3,1.8
		s2.5,0.6,5,0.6h4.6c2.8,0,5.1,0.5,6.8,1.6c1.8,1.1,2.6,2.8,2.6,5.2c0,1.9-0.8,3.8-2.3,5.6s-3.5,3.2-5.9,4.3
		S784.5,809.4,781.9,809.4z M777.4,796.1c0-0.1-0.2,0-0.5,0.3s-0.6,0.7-0.9,1.2c-0.3,0.6-0.4,1.3-0.4,2.2c0,3.9,2.7,5.8,8.2,5.8
		c2.4,0,4.4-0.5,5.9-1.5s2.2-2.5,2.2-4.6c0-1-0.3-1.8-0.8-2.3c-0.6-0.5-1.4-0.8-2.6-1s-2.9-0.3-5.1-0.3h-6V796.1z M782.5,768
		c-1.7,0-3,0.6-3.8,1.9s-1.3,3.1-1.3,5.4c0,1.5,0.3,2.8,0.9,4c0.6,1.2,1.3,2.1,2.2,2.8s1.7,1,2.6,1c1.6,0,2.8-0.6,3.7-1.7
		c0.9-1.1,1.3-2.8,1.3-5.2c0-1.3-0.2-2.6-0.7-3.9c-0.4-1.3-1.1-2.3-1.9-3.2C784.6,768.5,783.6,768,782.5,768z"/>
	<path class="st1" d="M800.9,806.9l-0.8-2.4c2.1-0.5,3.7-1.4,4.7-2.5s1.5-2.3,1.5-3.5c0-1-0.4-1.8-1.1-2.5s-1.7-1.1-2.9-1.1
		c-0.2,0-0.6,0-1,0.1c-0.3-0.8-0.5-1.6-0.5-2.2c0-0.9,0.2-1.6,0.6-2.2c0.4-0.6,1-1.1,1.6-1.4c0.6-0.3,1.3-0.5,1.9-0.5
		c0.9,0,1.8,0.3,2.7,0.8s1.7,1.3,2.3,2.4c0.6,1.1,0.9,2.4,0.9,4c0,2.2-0.7,4.4-2.1,6.4C807.6,804.3,804.9,805.8,800.9,806.9z"/>
	<path class="st1" d="M833.3,797c-1.2,0-2.3-0.3-3.3-0.8s-1.8-1.3-2.4-2.3c-0.6-1-0.9-2.2-0.9-3.5c0-1.8,0.6-3.4,1.7-5
		c1.1-1.5,2.9-2.9,5.2-3.9s5.3-1.7,8.9-2v-1.9c0-2.6-0.5-4.8-1.4-6.5s-2.5-2.6-4.6-2.6c-1.1,0-1.8,0.2-2.3,0.6
		c-0.5,0.4-0.8,1.1-0.9,1.9c-0.1,0.9-0.3,2.5-0.5,4.8c-1.3,0-2.5-0.2-3.4-0.6c-0.9-0.4-1.4-1.4-1.4-2.9c0-1.2,0.6-2.3,1.9-3.4
		s2.8-2,4.6-2.6c1.8-0.7,3.6-1,5.2-1c3,0,5.2,0.8,6.5,2.5s2,4.3,2,8v12.4c0,1.1,0.1,1.9,0.3,2.5s0.6,1,1.1,1.3s1.3,0.6,2.4,0.7
		l1.7,0.3l-0.4,2.9c-0.3,0-0.9,0.1-1.6,0.3c-1.1,0.3-2.1,0.4-3.1,0.4c-1.2,0-2.2-0.2-3-0.7s-1.4-1-1.7-1.7c-0.4-0.7-0.5-1.4-0.5-2.2
		v-0.5H843c-0.7,1.3-1.8,2.5-3.3,3.6C837.7,796.4,835.7,797,833.3,797z M842.3,781.5c-3.6,0.7-6.1,1.7-7.6,2.9s-2.2,2.7-2.2,4.4
		c0,0.6,0.1,1.2,0.4,1.8s0.7,1.1,1.3,1.5s1.3,0.6,2.1,0.6c1.1,0,2.2-0.3,3.3-1c1.1-0.6,2-1.3,2.7-2.1V781.5z"/>
	<path class="st1" d="M855.1,796.2l0.4-2.7l5.2-1.3V757l-5.4-1.8l0.4-2.6l9.8-0.8l0.9,0.8v39.6l5.4,1.2l-0.4,2.7L855.1,796.2
		L855.1,796.2z"/>
	<path class="st1" d="M884.4,797.3c-2,0-3.7-0.2-5.2-0.7s-2.7-1.1-3.5-2s-1.2-1.7-1.2-2.6c0-1.3,0.4-2.4,1.1-3.3
		c0.8-0.9,1.8-1.4,3-1.5c0.8,2.2,1.7,3.9,2.9,5s2.5,1.7,3.9,1.7c1.3,0,2.4-0.3,3.2-0.8c0.8-0.6,1.3-1.4,1.3-2.6c0-0.7-0.3-1.4-0.8-2
		s-1.1-1.2-1.9-1.7s-1.8-1.2-3.2-1.9c-1.9-1.1-3.4-2-4.6-2.9c-1.2-0.9-2.2-1.9-3-3.2s-1.2-2.7-1.2-4.3c0-1.4,0.4-2.8,1.2-4.2
		s1.9-2.5,3.5-3.5c1.5-0.9,3.4-1.4,5.6-1.4c1.6,0,3.1,0.3,4.4,0.8c1.3,0.5,2.3,1.3,3,2.2s1,2,1,3.1c0,1.3-0.4,2.4-1.3,3.2
		c-0.9,0.8-2,1.3-3.5,1.4c-0.4-2.6-1.1-4.5-2-5.8s-2-1.9-3.3-1.9c-1.2,0-2.1,0.4-2.8,1.2s-1,1.8-1,2.9c0,0.9,0.3,1.7,0.9,2.5
		c0.6,0.7,1.3,1.4,2.1,2s2,1.3,3.5,2.1c1.8,1,3.3,1.9,4.4,2.7c1.1,0.8,2.1,1.8,2.9,3c0.8,1.2,1.2,2.5,1.2,4c0,1.6-0.5,3.1-1.5,4.4
		c-1,1.3-2.3,2.4-3.9,3.1C887.9,796.9,886.2,797.3,884.4,797.3z"/>
	<path class="st1" d="M912,797.1c-2.9,0-5.5-0.7-7.6-2s-3.7-3.2-4.8-5.5s-1.7-5-1.7-7.9c0-3.3,0.7-6.2,2.1-8.7
		c1.4-2.5,3.2-4.4,5.5-5.7s4.7-1.9,7.3-1.9c2.8,0,5.2,0.7,7.2,2s3.6,3.2,4.7,5.6c1.1,2.4,1.6,5.1,1.6,8.3c0,3.1-0.6,5.9-1.9,8.3
		c-1.3,2.4-3,4.3-5.2,5.7C917.1,796.4,914.6,797.1,912,797.1z M911.4,768.9c-1.6,0-3,0.5-4.1,1.4s-1.9,2.2-2.4,3.7
		c-0.5,1.6-0.8,3.3-0.8,5.1c0,2.5,0.3,4.9,0.9,7.1c0.6,2.2,1.6,4,3,5.4s3.1,2.1,5.2,2.1c1.5,0,2.8-0.5,3.9-1.4
		c1.1-0.9,1.9-2.2,2.4-3.7s0.8-3.1,0.8-4.8c0-2.5-0.3-4.8-0.9-7.1c-0.6-2.3-1.6-4.2-2.9-5.7C915.1,769.6,913.4,768.9,911.4,768.9z"
		/>
	<path class="st1" d="M952.9,796.9c-2.1,0-3.9-0.6-5.6-1.7c-1.7-1.1-3-2.7-4-4.9s-1.5-4.8-1.5-7.8c0-3.2,0.7-6.1,2.2-8.7
		c1.5-2.6,3.4-4.7,5.7-6.2s4.7-2.3,7-2.3c1.1,0,2.2,0.1,3.3,0.4c1.1,0.3,2,0.6,2.5,1.1h0.2l-0.4-4.4V757l-5.2-1.9l0.5-2.6l9.5-0.8
		l0.7,0.8v36.1c0,1.1,0.1,2,0.4,2.5s0.7,0.9,1.1,1.1c0.5,0.2,1.2,0.4,2.2,0.6l1.5,0.3l-0.4,2.8c-1,0.3-1.9,0.5-2.5,0.5
		c-0.7,0.1-1.5,0.1-2.5,0.1c-1.6,0-2.9-0.5-3.8-1.4c-0.9-0.9-1.3-2.1-1.3-3.6v-0.2h-0.3c-1.1,1.5-2.5,2.8-4,3.8
		S955.1,796.9,952.9,796.9z M955.1,768.7c-2.5,0-4.4,1.1-5.5,3.2s-1.7,4.9-1.7,8.5c0,2.6,0.3,4.8,1,6.7c0.6,1.8,1.5,3.2,2.7,4.1
		c1.1,0.9,2.4,1.4,3.9,1.4c1.3,0,2.7-0.3,4-1c1.4-0.7,2.4-1.4,3-2.2v-16c-0.9-1.4-2-2.5-3.4-3.4
		C957.6,769.2,956.3,768.7,955.1,768.7z"/>
	<path class="st1" d="M975.6,796.2l0.4-2.7l5.2-1.3v-21l-5.2-1.9l0.4-2.6l9.6-0.8l0.9,0.9v25.4l5.5,1.2l-0.4,2.7L975.6,796.2
		L975.6,796.2z M983.7,759.6c-0.7,0-1.4-0.2-2-0.6c-0.6-0.4-1.1-0.9-1.5-1.6c-0.4-0.6-0.5-1.4-0.5-2.1c0-1.1,0.4-2,1.2-2.7
		s1.8-1.1,2.9-1.1c1.1,0,2.1,0.4,2.9,1.1s1.2,1.7,1.2,2.8c0,0.8-0.2,1.4-0.6,2.1c-0.4,0.6-0.9,1.1-1.5,1.5
		C985.1,759.4,984.5,759.6,983.7,759.6z"/>
	<path class="st1" d="M1006.1,797.2c-2.2,0-4.3-0.6-6.3-1.8s-3.6-3-4.8-5.3c-1.2-2.4-1.8-5.2-1.8-8.5s0.7-6.1,2.1-8.5
		c1.4-2.4,3.2-4.3,5.3-5.6c2.2-1.3,4.4-1.9,6.7-1.9c1.7,0,3.2,0.4,4.6,1.2c1.4,0.8,2.5,2.1,3.3,3.7s1.2,3.6,1.2,5.9
		c0,0.5-0.1,1.2-0.2,2.2c-0.1,0.9-0.2,1.7-0.4,2.3l-16.5,0.2c0.1,1.9,0.5,3.8,1.2,5.6s1.8,3.3,3.2,4.4c1.4,1.2,3.1,1.7,5.1,1.7
		c1.1,0,2,0,2.6-0.1s1.4-0.2,2.2-0.5s1.8-0.7,2.9-1.3l0.7,1.8c-1.4,1.4-3,2.6-5,3.4C1010.5,796.8,1008.4,797.2,1006.1,797.2z
		 M1005.7,768.8c-1,0-1.9,0.3-2.8,1c-0.9,0.7-1.7,1.8-2.3,3.2s-1,3.2-1.1,5.3l10.7-0.8c0.1-0.2,0.1-0.6,0.2-1.1
		c0-0.5,0.1-0.9,0.1-1.2C1010.4,770.9,1008.8,768.8,1005.7,768.8z"/>
	<path class="st1" d="M1052.7,796.2h-20.3l0.4-2.5l5.7-1.6v-33.6l-5.8-1l0.3-2.6c3.1-0.5,5.9-0.8,8.5-1.1s5.2-0.4,7.8-0.4
		c5.1,0,9.3,0.9,12.4,2.8s4.7,5.1,4.7,9.7c0,2.6-0.7,5-2.2,7c-1.4,2.1-3.4,3.7-5.8,4.8c-2.4,1.2-5,1.7-7.8,1.7c-0.6,0-1.4,0-2.4-0.1
		h-1l-0.6-2.8h1.8c3.7-0.1,6.4-0.9,8.2-2.5c1.8-1.6,2.7-3.9,2.7-6.9c0-3.2-0.9-5.8-2.6-7.8c-1.8-2-4.5-3-8.2-3c-0.6,0-1.2,0-2,0.1
		s-1.3,0.1-1.5,0.1V792l8.1,1.3L1052.7,796.2z"/>
	<path class="st1" d="M1066.8,756.2l0.4-2.6h34l-1.1,10.9l-3-0.4l-1.4-7.3h-16.1v16.3h9.9l1.4-4.1l3.2-0.5l-1.2,13.3l-2.9,0.4
		l-1.2-6h-9.4v16.6h16.9l3.3-7.9l2.8,0.4l-1,10.7H1067l0.3-2.5l5.7-1.6v-34.4L1066.8,756.2z"/>
	<path class="st1" d="M1103.5,753.6h38l-1.2,11.6l-3.2-0.5l-1.3-7.9h-10.4v35.5l6.3,1.2l-0.5,2.7h-18.4l0.2-2.5l5.8-1.6v-35.2h-10.1
		l-1.8,8.3l-3.1-0.4L1103.5,753.6z"/>
	<path class="st1" d="M1136.9,782.6l0.4-3.4l13.9-0.6l-0.4,3.5L1136.9,782.6z"/>
	<path class="st1" d="M1152.8,756.2l0.4-2.6h33.9l-1.4,11l-3-0.5l-1.2-7.4h-15.9v16.5h9.8l1.4-4.1l3.1-0.5L1179,782l-3,0.5l-1-6.2
		h-9.4V792l8,1.3l-0.4,2.8H1153l0.3-2.5l5.7-1.6v-34.4L1152.8,756.2z"/>
	<path class="st1" d="M1188.5,796.2l0.4-2.7l5.2-1.3V757l-5.4-1.8l0.4-2.6l9.8-0.8l0.9,0.8v39.6l5.4,1.2l-0.4,2.7L1188.5,796.2
		L1188.5,796.2z"/>
	<path class="st1" d="M1214.4,797c-1.2,0-2.3-0.3-3.3-0.8s-1.8-1.3-2.4-2.3s-0.9-2.2-0.9-3.5c0-1.8,0.6-3.4,1.7-5
		c1.1-1.5,2.9-2.9,5.2-3.9c2.4-1.1,5.3-1.7,8.9-2v-1.9c0-2.6-0.5-4.8-1.4-6.5s-2.5-2.6-4.6-2.6c-1.1,0-1.8,0.2-2.3,0.6
		c-0.5,0.4-0.8,1.1-0.9,1.9c-0.1,0.9-0.3,2.5-0.5,4.8c-1.3,0-2.5-0.2-3.4-0.6c-0.9-0.4-1.4-1.4-1.4-2.9c0-1.2,0.6-2.3,1.9-3.4
		c1.3-1.1,2.8-2,4.6-2.6c1.8-0.7,3.6-1,5.2-1c3,0,5.2,0.8,6.5,2.5s2,4.3,2,8v12.4c0,1.1,0.1,1.9,0.3,2.5s0.6,1,1.1,1.3
		s1.3,0.6,2.4,0.7l1.7,0.3l-0.4,2.9c-0.3,0-0.9,0.1-1.6,0.3c-1.1,0.3-2.1,0.4-3.1,0.4c-1.2,0-2.2-0.2-3-0.7s-1.4-1-1.7-1.7
		s-0.5-1.4-0.5-2.2v-0.5h-0.4c-0.7,1.3-1.8,2.5-3.3,3.6S1216.8,797,1214.4,797z M1223.4,781.5c-3.6,0.7-6.1,1.7-7.6,2.9
		s-2.2,2.7-2.2,4.4c0,0.6,0.1,1.2,0.4,1.8s0.7,1.1,1.3,1.5c0.6,0.4,1.3,0.6,2.1,0.6c1.1,0,2.2-0.3,3.3-1c1.1-0.6,2-1.3,2.7-2.1
		L1223.4,781.5L1223.4,781.5z"/>
	<path class="st1" d="M1246.9,797.3c-2,0-3.7-0.2-5.2-0.7s-2.7-1.1-3.5-2s-1.2-1.7-1.2-2.6c0-1.3,0.4-2.4,1.1-3.3
		c0.8-0.9,1.8-1.4,3-1.5c0.8,2.2,1.7,3.9,2.9,5c1.2,1.1,2.5,1.7,3.9,1.7c1.3,0,2.4-0.3,3.2-0.8c0.8-0.6,1.3-1.4,1.3-2.6
		c0-0.7-0.3-1.4-0.8-2s-1.1-1.2-1.9-1.7s-1.8-1.2-3.2-1.9c-1.9-1.1-3.4-2-4.6-2.9s-2.2-1.9-3-3.2s-1.2-2.7-1.2-4.3
		c0-1.4,0.4-2.8,1.2-4.2c0.8-1.4,1.9-2.5,3.5-3.5c1.5-0.9,3.4-1.4,5.6-1.4c1.6,0,3.1,0.3,4.4,0.8s2.3,1.3,3,2.2s1,2,1,3.1
		c0,1.3-0.4,2.4-1.3,3.2s-2,1.3-3.5,1.4c-0.4-2.6-1.1-4.5-2-5.8s-2-1.9-3.3-1.9c-1.2,0-2.1,0.4-2.8,1.2c-0.7,0.8-1,1.8-1,2.9
		c0,0.9,0.3,1.7,0.9,2.5c0.6,0.7,1.3,1.4,2.1,2c0.8,0.6,2,1.3,3.5,2.1c1.8,1,3.3,1.9,4.4,2.7s2.1,1.8,2.9,3s1.2,2.5,1.2,4
		c0,1.6-0.5,3.1-1.5,4.4c-1,1.3-2.3,2.4-3.9,3.1C1250.3,796.9,1248.6,797.3,1246.9,797.3z"/>
	<path class="st1" d="M1273.9,797.2c-2.7,0-5-0.7-7.1-2.1c-2.1-1.4-3.6-3.2-4.8-5.6c-1.1-2.3-1.7-4.9-1.7-7.6c0-3.3,0.7-6.1,2.1-8.7
		s3.2-4.5,5.4-5.8c2.2-1.4,4.6-2.1,7.1-2.1c1.8,0,3.3,0.2,4.6,0.7s2.1,1.1,2.8,1.9c0.6,0.8,0.9,1.7,0.9,2.6c0,1-0.4,1.9-1.1,2.5
		c-0.8,0.6-1.8,1-3.2,1.1c-0.7-1.6-1.4-3-2.3-4c-0.8-1.1-1.9-1.6-3.2-1.6c-1.3,0-2.5,0.4-3.5,1.3c-1,0.8-1.8,2-2.4,3.6
		s-0.8,3.3-0.8,5.4c0,2.1,0.4,4.2,1.1,6.4c0.8,2.2,1.9,4.1,3.4,5.6s3.4,2.3,5.6,2.3c1.5,0,2.8-0.2,3.8-0.5c1-0.4,2.1-0.9,3.1-1.5
		l0.9,2c-1,1.1-2.4,2.1-4.4,3C1278.1,796.8,1276,797.2,1273.9,797.2z"/>
	<path class="st1" d="M1302.5,796.2h-15.9l0.4-2.7l5.3-1.3V757l-5.5-1.8l0.4-2.6l9.9-0.8l0.9,0.8v14.5l-0.5,3.6h0.3
		c3.2-3.6,6.6-5.3,10-5.3c2.6,0,4.7,0.7,6.1,2.2s2.2,4.2,2.2,8v16.6l5,1.2l-0.4,2.7h-15.3l0.4-2.5l4.7-1.4v-15.9
		c0-2.2-0.6-3.8-1.7-4.8s-2.5-1.5-4.1-1.5c-1.1,0-2.2,0.2-3.3,0.7s-2.2,1.2-3.3,2.4v19.1l5,1.2L1302.5,796.2z"/>
	<path class="st1" d="M1334.7,797.2c-2.2,0-4.3-0.6-6.3-1.8s-3.6-3-4.8-5.3c-1.2-2.4-1.8-5.2-1.8-8.5s0.7-6.1,2.1-8.5
		s3.2-4.3,5.3-5.6c2.2-1.3,4.4-1.9,6.7-1.9c1.7,0,3.2,0.4,4.6,1.2s2.5,2.1,3.3,3.7s1.2,3.6,1.2,5.9c0,0.5-0.1,1.2-0.2,2.2
		c-0.1,0.9-0.2,1.7-0.4,2.3l-16.5,0.2c0.1,1.9,0.5,3.8,1.2,5.6s1.8,3.3,3.2,4.4c1.4,1.2,3.1,1.7,5.1,1.7c1.1,0,2,0,2.6-0.1
		s1.4-0.2,2.2-0.5c0.8-0.3,1.8-0.7,2.9-1.3l0.7,1.8c-1.4,1.4-3,2.6-5,3.4C1339,796.8,1336.9,797.2,1334.7,797.2z M1334.2,768.8
		c-1,0-1.9,0.3-2.8,1s-1.7,1.8-2.3,3.2s-1,3.2-1.1,5.3l10.7-0.8c0.1-0.2,0.1-0.6,0.2-1.1c0-0.5,0.1-0.9,0.1-1.2
		C1338.9,770.9,1337.4,768.8,1334.2,768.8z"/>
	<path class="st1" d="M1353.5,797.2c-1.1,0-2.1-0.4-2.9-1.2s-1.2-1.8-1.2-3c0-1.1,0.4-2,1.2-2.8c0.8-0.7,1.7-1.1,2.8-1.1
		c1.1,0,2.1,0.4,2.9,1.1s1.2,1.7,1.2,2.8c0,0.8-0.2,1.4-0.6,2.1c-0.4,0.6-0.9,1.1-1.5,1.5C1354.9,797,1354.2,797.2,1353.5,797.2z"/>
</g>
</svg>
