<svg id="Ebene_1" data-name="Ebene 1" xmlns="http://www.w3.org/2000/svg" viewBox="0 0 1440 617"><defs><style>.cls-1{fill:#b4d6c6;}.cls-2{fill:#f5f1d5;}.cls-3{fill:#1b3440;}</style></defs><title>Neuton</title><rect class="cls-1" width="1440" height="617"/><path class="cls-2" d="M0,0V227.16q25.24,10.32,59.28,10.33a576.72,576.72,0,0,0,133.28-15.78l7-73.63-39.45-8.77q-27.19-5.25-40.34-10.08T91.73,113Q76.81,101.64,71.12,81t-5.7-52.16V0Z"/><path class="cls-2" d="M868.69,0H283.22a511.57,511.57,0,0,0-5.15,73.5q0,96.44,28.06,174.44t75.41,126.23q47.34,48.22,105.65,74.51A292.07,292.07,0,0,0,608.63,475q85,0,160.46-31.11t128-86.35l-19.29-46.46q-42.09,21.92-78,33.31t-57,13.15q-21,1.75-58.74,1.75h-5.26q-57.87,0-105.22-27.17t-75.84-71.89A401.83,401.83,0,0,1,453,163.79,420.07,420.07,0,0,1,434.15,57.72l424.37-4.38Q865,25.41,868.69,0Z"/><path class="cls-2" d="M1112.21,34h-46.47q-107,133.26-217.45,220v47.34H960.52L958.6,617h150l2.76-313.94h241.13l7-77.14H1112.21Z"/><polygon class="cls-2" points="1440 0 1399.18 0 1399.18 421.19 1267.66 458.01 1258.89 521.13 1440 521.13 1440 0"/><polygon class="cls-2" points="0 492.03 134.35 522.53 134.35 617 241.32 617 241.32 519.9 387.75 485.71 399.15 419.09 0 419.09 0 492.03"/><polygon class="cls-3" points="355.19 191.23 387.81 198.64 387.81 349.22 274.6 177.83 212.54 177.83 210.77 191.23 242.69 200.05 242.69 375.85 213.24 384.13 211.83 397.18 295.76 397.18 297.53 382.9 265.26 377.08 265.26 227.73 382.34 402.47 409.32 396.83 409.32 198.11 438.76 191.23 441.06 177.83 357.13 177.83 355.19 191.23"/><path class="cls-3" d="M548.72,376.2a56.19,56.19,0,0,1-11.46,2.65q-4.23.34-11.81.35h-1.06a41.68,41.68,0,0,1-21.16-5.47A43.28,43.28,0,0,1,488,359.27a81.23,81.23,0,0,1-9-19.39,85.29,85.29,0,0,1-3.79-21.34l85.35-.88a103.38,103.38,0,0,0,3-23.1q0-26.81-13.49-41.26t-33.76-14.46a62.91,62.91,0,0,0-25.75,5.64,79.4,79.4,0,0,0-23.18,15.87q-10.5,10.23-17,26.19a92.09,92.09,0,0,0-6.52,35.18,103.14,103.14,0,0,0,5.64,35.08q5.64,15.7,15.16,25.4a69.93,69.93,0,0,0,21.25,15,58.71,58.71,0,0,0,24.42,5.29,83.81,83.81,0,0,0,32.27-6.26,74,74,0,0,0,25.74-17.36l-3.88-9.35A99.4,99.4,0,0,1,548.72,376.2ZM486.3,268.38q9.52-12.44,21.34-12.44,24.51,0,24.51,33,0,8.29-1.24,12.16l-55.36,3.71Q476.78,280.81,486.3,268.38Z"/><path class="cls-3" d="M733.18,379.46a21.75,21.75,0,0,1-5.64-3.26,11.71,11.71,0,0,1-4.14-6.44,39.9,39.9,0,0,1-1.15-10.49V245.72l-3.88-4.23-51.84,4.93-1.76,15.87L693,269.7v93.63q-13.05,13.76-32.8,13.75-27.33,0-27.33-35.79V245.72l-4.23-4.23-47.43,3.7-2.29,13.93,24.15,9.7V350.1q0,51.15,39.33,51.14,32.26,0,50.6-27.16h2.12v1.42q0,11.46,6.61,18.6T721,401.24a116.31,116.31,0,0,0,26.8-3.17l1.41-14.82-7.93-1.76A57.19,57.19,0,0,1,733.18,379.46Z"/><path class="cls-3" d="M850.8,368.27a56.53,56.53,0,0,1-9.87,4.76,33.67,33.67,0,0,1-12.17,2.47q-13.75,0-19.84-7.59t-6.08-27V339.7l.71-80.23H852L853.45,244H803.72V205.34h-9.34q-21.52,26.81-43.73,44.26v9.52h22.57l-.53,86.93v5.46q0,14.3,2.73,24.25t7.94,15.43A29.67,29.67,0,0,0,795.08,399a46,46,0,0,0,15.17,2.29,53.86,53.86,0,0,0,27-7,61.75,61.75,0,0,0,20.64-18.95l-3.71-9.52Z"/><path class="cls-3" d="M944.47,238a73.57,73.57,0,0,0-28.56,5.73,78.31,78.31,0,0,0-24.51,16.13q-10.75,10.41-17.19,26.63a95.8,95.8,0,0,0-6.44,35.62q0,35.08,19.31,57.39t53.16,22.31a70.46,70.46,0,0,0,37.3-10.23q16.83-10.23,26.71-29.09t9.87-43q0-36.84-18.69-59.16T944.47,238ZM979,358.13A43.74,43.74,0,0,1,966.6,377a29.44,29.44,0,0,1-20.36,7.67,37.35,37.35,0,0,1-21.78-6.52,44,44,0,0,1-14.72-17.54,102.92,102.92,0,0,1-7.94-23.9,134.89,134.89,0,0,1-2.64-27.15,84,84,0,0,1,3.79-26.1,42.52,42.52,0,0,1,12.61-19.31q8.81-7.67,21.51-7.67a33.79,33.79,0,0,1,21.16,7.06,46.79,46.79,0,0,1,14.28,18.69,117,117,0,0,1,7.67,24.68,140.43,140.43,0,0,1,2.56,27A75.39,75.39,0,0,1,979,358.13Z"/><path class="cls-3" d="M1178.27,377.08V288.57q0-23.81-10.93-36.77t-31.56-13a59.1,59.1,0,0,0-29.45,7.85,85,85,0,0,0-23.8,19.66h-1.77l3.18-22.4-3.18-3.35-52.37,6.88-1.76,13.4,27,9.17v107l-26.45,7.41-1.77,12.69h81.82l2.29-13.93-26.09-6.17V278.16a47.48,47.48,0,0,1,15.87-11.28,46.07,46.07,0,0,1,18.86-4.06q13.75,0,22.13,8.11t8.38,24.51v81.64l-24.16,7.41-2.11,12.69h79.52l1.76-13.93Z"/></svg>