<?xml version="1.0" encoding="utf-8"?>
<!-- Generator: Adobe Illustrator 22.1.0, SVG Export Plug-In . SVG Version: 6.00 Build 0)  -->
<svg version="1.1" id="Ebene_1" xmlns="http://www.w3.org/2000/svg" xmlns:xlink="http://www.w3.org/1999/xlink" x="0px" y="0px"
	 viewBox="0 0 375 600" style="enable-background:new 0 0 375 600;" xml:space="preserve">
<style type="text/css">
	.st0{fill:#B4D6C6;}
	.st1{fill:#1B3440;}
</style>
<rect x="-0.9" class="st0" width="375.9" height="600"/>
<title>hochformat_Text</title>
<g>
	<g>
		<path class="st1" d="M40,41.2l0.5-3.3h15.3l28.1,42.4V43.1l-8.1-1.8l0.5-3.3H97l-0.6,3.3L89.1,43v49.3l-6.7,1.4l-29-43.3v37l8,1.5
			l-0.5,3.5H40.4l0.3-3.2L48,87V43.5L40,41.2z"/>
		<path class="st1" d="M113.2,93.6c-2.8,0-5.5-0.8-8-2.3s-4.6-3.8-6.1-6.8s-2.3-6.7-2.3-10.9c0-4.2,0.9-7.8,2.6-10.9
			c1.8-3.1,4-5.5,6.8-7.2s5.6-2.5,8.5-2.5c2.2,0,4.1,0.5,5.9,1.6s3.2,2.6,4.2,4.7c1,2.1,1.6,4.6,1.6,7.6c0,0.7-0.1,1.6-0.2,2.8
			c-0.1,1.2-0.3,2.1-0.5,2.9l-21.1,0.3c0.1,2.4,0.6,4.8,1.6,7.1c0.9,2.3,2.3,4.2,4.1,5.7c1.8,1.5,4,2.2,6.5,2.2c1.4,0,2.5,0,3.3-0.1
			s1.8-0.3,2.8-0.6c1.1-0.3,2.3-0.9,3.8-1.7l0.9,2.3c-1.7,1.8-3.9,3.3-6.4,4.3C118.7,93,116,93.6,113.2,93.6z M112.6,57.3
			c-1.2,0-2.4,0.4-3.6,1.3c-1.2,0.9-2.1,2.2-2.9,4.1c-0.8,1.8-1.3,4.1-1.4,6.7l13.7-1c0.1-0.3,0.2-0.8,0.2-1.4s0.1-1.2,0.1-1.6
			C118.6,60,116.6,57.3,112.6,57.3z"/>
		<path class="st1" d="M135.4,60.4l-6-2.4l0.6-3.5l11.7-0.9l1.1,1v23.7c0,5.9,2.2,8.9,6.7,8.9c1.8,0,3.4-0.3,4.7-0.9
			s2.4-1.4,3.5-2.5V60.7l-6.9-1.8l0.4-4l12.8-1.2l0.9,1v28.1c0,1.4,0.2,2.5,0.5,3.2c0.4,0.7,0.9,1.2,1.5,1.5s1.5,0.6,2.7,0.8l2,0.4
			l-0.4,3.6c-1.4,0.3-2.5,0.5-3.4,0.7c-0.9,0.1-2,0.2-3.2,0.2c-2.1,0-3.7-0.6-4.8-1.7c-1.1-1.2-1.6-2.7-1.6-4.6v-0.4h-0.6
			c-3.1,4.5-7.3,6.7-12.5,6.7c-3,0-5.4-1-7.1-3c-1.7-2-2.6-5.2-2.6-9.7L135.4,60.4L135.4,60.4z"/>
		<path class="st1" d="M176.8,58.9h-5.5v-2.4c1.8-1.5,3.6-3.2,5.5-5.4c1.9-2.1,3.7-4.3,5.2-6.4h2.3v10.4h12.4l-0.4,3.8h-12.1
			l-0.1,19.3c0,2.2,0.2,3.9,0.7,5.2c0.4,1.3,1.1,2.1,2.1,2.7c0.9,0.5,2.2,0.8,3.7,0.8c1,0,1.9-0.2,2.8-0.5c0.9-0.4,1.7-0.8,2.4-1.2
			c0.7-0.4,1-0.7,1-0.7l0.9,2.4c-1.4,2-3.1,3.6-5.1,4.7s-4.3,1.7-6.7,1.7c-2.9,0-5.2-0.9-6.9-2.8c-1.6-1.8-2.5-5-2.4-9.6L176.8,58.9
			z"/>
		<path class="st1" d="M217.8,93.4c-3.8,0-7-0.9-9.7-2.6s-4.7-4.1-6.2-7.1c-1.4-3-2.1-6.4-2.1-10.2c0-4.3,0.9-8,2.7-11.1
			c1.8-3.2,4.1-5.6,7-7.2c2.9-1.7,6-2.5,9.3-2.5c3.5,0,6.6,0.8,9.2,2.5c2.6,1.7,4.6,4.1,6,7.1c1.4,3,2.1,6.6,2.1,10.5
			c0,4-0.8,7.5-2.4,10.6c-1.6,3.1-3.8,5.5-6.6,7.3C224.2,92.6,221.1,93.4,217.8,93.4z M217,57.4c-2.1,0-3.9,0.6-5.3,1.8
			c-1.4,1.2-2.5,2.8-3.1,4.8c-0.7,2-1,4.2-1,6.6c0,3.2,0.4,6.3,1.2,9.1c0.8,2.8,2.1,5.1,3.8,6.9s4,2.7,6.7,2.7c2,0,3.6-0.6,5-1.8
			c1.4-1.2,2.4-2.8,3.1-4.7c0.7-1.9,1-4,1-6.1c0-3.1-0.4-6.2-1.2-9.1s-2-5.3-3.7-7.2C221.7,58.3,219.6,57.4,217,57.4z"/>
		<path class="st1" d="M258.2,92.2H238l0.4-3.2l6.6-1.8V60.8l-6.7-2.3l0.4-3.3l13-1.7l0.7,0.8l-0.7,5.6h0.4c1.7-2,3.6-3.6,5.9-4.9
			c2.3-1.3,4.7-2,7.3-2c3.4,0,6,1.1,7.8,3.2c1.8,2.2,2.7,5.2,2.7,9.1v21.9l6.3,1.5l-0.4,3.5h-19.6l0.4-3.2l6-1.8V67
			c0-2.7-0.7-4.7-2.1-6s-3.2-2-5.5-2c-1.6,0-3.2,0.3-4.7,1s-2.8,1.6-3.9,2.8v24.5l6.5,1.5L258.2,92.2z"/>
	</g>
	<g>
		<path class="st1" d="M50.1,142.8H39.3l0.4-1.5l3.5-0.9l3.1-19.9l-3.5-0.8l0.4-1.5H54l-0.4,1.5l-3.4,0.8l-1.4,8.7h12.4l1.4-8.6
			l-3.5-0.8l0.5-1.5h10.8l-0.5,1.5l-3.4,0.8l-3.2,20.1l3.5,0.7l-0.5,1.6H55.6l0.5-1.5l3.4-0.9l1.5-9.3H48.5l-1.5,9.4l3.6,0.7
			L50.1,142.8z"/>
		<path class="st1" d="M82.2,135.3c-0.3,1.9-0.4,3.2-0.4,3.9c0,0.6,0.1,1,0.2,1.2c0.2,0.2,0.4,0.4,0.8,0.4l1.5,0.2l-0.4,1.4
			c-1.1,0.4-2.1,0.6-3,0.6c-0.8,0-1.4-0.2-1.9-0.6c-0.5-0.4-0.7-0.9-0.7-1.6c0-0.2,0-0.5,0.1-0.8h-0.2c-0.5,0.9-1.1,1.6-2,2.2
			c-0.8,0.6-1.7,0.9-2.7,0.9c-0.8,0-1.5-0.2-2.1-0.7s-1.1-1.1-1.4-2s-0.5-1.9-0.5-3.1c0-2.5,0.5-4.6,1.6-6.4c1-1.8,2.3-3.2,3.9-4.2
			s3.1-1.5,4.6-1.5c2.1,0,3.4,0.3,4,1L82.2,135.3z M78.6,138.8l1.7-10.8c-0.5-0.5-1.3-0.7-2.4-0.7c-1,0-1.9,0.5-2.7,1.4
			c-0.8,0.9-1.4,2.1-1.8,3.5s-0.6,2.8-0.6,4.3s0.2,2.5,0.6,3.2s1,1,1.8,1c0.7,0,1.3-0.2,1.8-0.5S78,139.4,78.6,138.8z"/>
		<path class="st1" d="M86.3,118.9l0.2-1.6c0.9-0.4,1.9-0.7,3-0.7c1,0,1.7,0.2,2,0.6c0.4,0.4,0.6,1,0.6,1.8c0,0.4,0,0.9-0.1,1.5
			l-2.3,14.8c-0.3,1.9-0.5,3.3-0.5,4.1c0,0.5,0.1,0.8,0.3,1c0.2,0.2,0.5,0.4,0.8,0.4s0.8,0.1,1.4,0l-0.2,1.6
			c-0.3,0.2-0.7,0.3-1.3,0.4c-0.5,0.1-1,0.2-1.5,0.2c-1,0-1.8-0.2-2.2-0.6c-0.4-0.4-0.7-1.1-0.7-2c0-0.4,0-0.9,0.1-1.5l2.8-18.3
			c0-0.2,0-0.4,0-0.5c0-0.5-0.2-0.8-0.5-1s-0.8-0.2-1.3-0.2L86.3,118.9z"/>
		<path class="st1" d="M94,118.9l0.2-1.6c0.9-0.4,1.9-0.7,3-0.7c1,0,1.7,0.2,2,0.6c0.4,0.4,0.6,1,0.6,1.8c0,0.4,0,0.9-0.1,1.5
			l-2.3,14.8c-0.3,1.9-0.5,3.3-0.5,4.1c0,0.5,0.1,0.8,0.3,1c0.2,0.2,0.5,0.4,0.8,0.4s0.8,0.1,1.4,0l-0.2,1.6
			c-0.3,0.2-0.7,0.3-1.3,0.4c-0.5,0.1-1,0.2-1.5,0.2c-1,0-1.8-0.2-2.2-0.6c-0.4-0.4-0.7-1.1-0.7-2c0-0.4,0-0.9,0.1-1.5l2.8-18.3
			c0-0.2,0-0.4,0-0.5c0-0.5-0.2-0.8-0.5-1s-0.8-0.2-1.3-0.2L94,118.9z"/>
		<path class="st1" d="M115.3,132.6c0,1.8-0.4,3.5-1.1,5.1c-0.8,1.7-1.8,3-3.2,4c-1.4,1-2.9,1.5-4.6,1.5c-1.2,0-2.3-0.3-3.1-1
			c-0.9-0.6-1.5-1.5-2-2.6c-0.4-1.1-0.7-2.4-0.7-3.8c0-1.9,0.4-3.6,1.2-5.3c0.8-1.7,1.9-3,3.2-4c1.4-1,2.9-1.5,4.6-1.5
			c1.2,0,2.3,0.4,3.1,1.1c0.8,0.7,1.5,1.6,1.9,2.8C115.1,130,115.3,131.3,115.3,132.6z M107.7,140.9c1.4,0,2.5-0.7,3.2-2
			c0.8-1.3,1.1-3.2,1.1-5.5c0-1.7-0.3-3.1-1-4.3c-0.6-1.1-1.6-1.7-3-1.7c-0.8,0-1.5,0.3-2.2,0.9c-0.6,0.6-1.1,1.5-1.5,2.6
			c-0.3,1.2-0.5,2.5-0.5,4.2c0,1.2,0.2,2.3,0.5,3.2s0.8,1.5,1.3,2C106.3,140.7,107,140.9,107.7,140.9z"/>
		<path class="st1" d="M146.1,143.3l-2.9-19.3l-7.8,18.7l-3.3,0.6l-3.7-22.8l-2.6-0.8l0.4-1.5h10.2l-0.5,1.5l-3.4,0.8l2.5,17.4
			l7.8-18.7l3.6-0.5l2.8,18.8l6.8-17l-3.5-0.8l0.5-1.5h8.9l-0.5,1.5l-2.5,0.8l-9.6,22.3L146.1,143.3z"/>
		<path class="st1" d="M164.1,143.4c-3.3,0-4.9-2.1-4.9-6.3c0-2.1,0.4-4.1,1.2-5.9c0.8-1.8,1.8-3.3,3.1-4.4s2.7-1.6,4.1-1.6
			c1.1,0,2,0.4,2.6,1.1c0.7,0.7,1,1.7,1,2.9c0,2.4-0.8,4-2.5,5c-1.7,0.9-3.7,1.4-6.2,1.3c0,0.5,0,0.9,0,1.1c0,1.4,0.2,2.5,0.7,3.2
			s1.2,1.1,2.2,1.1s1.8-0.2,2.6-0.5s1.3-0.7,1.8-1l0.5,0.9c-0.3,0.5-0.8,1-1.4,1.5c-0.6,0.5-1.4,0.9-2.2,1.2
			C165.8,143.2,164.9,143.4,164.1,143.4z M166.4,127c-0.6,0-1.1,0.2-1.6,0.6s-1,1.1-1.4,2.2c-0.4,1-0.6,2.4-0.7,4.1
			c1.1,0,2.1-0.1,2.9-0.3c0.8-0.2,1.4-0.6,1.9-1.3c0.5-0.6,0.7-1.5,0.7-2.6c0-0.7-0.2-1.4-0.5-1.9C167.4,127.2,166.9,127,166.4,127z
			"/>
		<path class="st1" d="M173.1,118.9l0.2-1.6c0.9-0.4,1.9-0.7,3-0.7c1,0,1.7,0.2,2,0.6c0.4,0.4,0.6,1,0.6,1.8c0,0.4,0,0.9-0.1,1.5
			l-2.3,14.8c-0.3,1.9-0.5,3.3-0.5,4.1c0,0.5,0.1,0.8,0.3,1s0.5,0.4,0.8,0.4s0.8,0.1,1.4,0l-0.2,1.6c-0.3,0.2-0.7,0.3-1.3,0.4
			c-0.5,0.1-1,0.2-1.5,0.2c-1,0-1.8-0.2-2.2-0.6c-0.4-0.4-0.7-1.1-0.7-2c0-0.4,0-0.9,0.1-1.5l2.8-18.3c0-0.2,0-0.4,0-0.5
			c0-0.5-0.2-0.8-0.5-1s-0.8-0.2-1.3-0.2L173.1,118.9z"/>
		<path class="st1" d="M184.3,135.9c-0.1,0.9-0.2,1.6-0.2,2.2c0,0.9,0.2,1.5,0.5,1.8c0.4,0.3,1,0.5,1.9,0.5c0.7,0,1.4-0.2,2.1-0.7
			l0.3,1c-0.6,0.7-1.2,1.3-2,1.8c-0.8,0.4-1.6,0.7-2.5,0.7c-1.2,0-2.1-0.3-2.6-1c-0.5-0.6-0.8-1.6-0.8-2.9c0-0.6,0.1-1.3,0.2-2.2
			l1.5-9.4h-2l0.2-1.9h2.1l0.7-4.3h3l-0.7,4.3h4.4l-0.4,1.9h-4.3L184.3,135.9z"/>
	</g>
	<g>
		<path class="st1" d="M44,196.4h-5l0.1-0.8l1.8-0.6v-9.9l-1.8-0.3l0.1-0.8c2.1-0.3,3.9-0.5,5.2-0.5c1.8,0,3.3,0.3,4.3,0.9
			c1.1,0.6,1.9,1.3,2.3,2.2c0.5,0.9,0.7,1.9,0.7,3.1c0,1.2-0.3,2.3-0.9,3.3c-0.6,1-1.5,1.8-2.6,2.4C47.1,196.1,45.7,196.4,44,196.4z
			 M42.8,184.7v10.7h1.5c1.2,0,2.1-0.2,2.9-0.7c0.8-0.4,1.4-1.1,1.8-1.8c0.4-0.8,0.6-1.6,0.6-2.5c0-1.1-0.2-2-0.6-2.9
			c-0.4-0.9-1-1.5-1.9-2s-1.9-0.7-3.1-0.7C43.5,184.6,43.1,184.7,42.8,184.7z"/>
		<path class="st1" d="M54.4,196.7c-0.4,0-0.7-0.1-1-0.2c-0.3-0.2-0.5-0.4-0.7-0.7s-0.3-0.6-0.3-1c0-0.5,0.2-1,0.5-1.5
			s0.9-0.9,1.6-1.2c0.7-0.3,1.6-0.5,2.6-0.6v-0.6c0-0.8-0.1-1.4-0.4-2c-0.3-0.5-0.7-0.8-1.4-0.8c-0.3,0-0.6,0.1-0.7,0.2
			c-0.1,0.1-0.2,0.3-0.3,0.6c0,0.3-0.1,0.7-0.2,1.4c-0.4,0-0.7-0.1-1-0.2c-0.3-0.1-0.4-0.4-0.4-0.9c0-0.4,0.2-0.7,0.6-1
			c0.4-0.3,0.8-0.6,1.4-0.8c0.6-0.2,1.1-0.3,1.5-0.3c0.9,0,1.5,0.2,1.9,0.7s0.6,1.3,0.6,2.4v3.7c0,0.3,0,0.6,0.1,0.7
			c0.1,0.2,0.2,0.3,0.3,0.4c0.2,0.1,0.4,0.2,0.7,0.2l0.5,0.1l-0.1,0.9c-0.1,0-0.3,0-0.5,0.1c-0.3,0.1-0.6,0.1-0.9,0.1
			c-0.4,0-0.7-0.1-0.9-0.2c-0.2-0.1-0.4-0.3-0.5-0.5s-0.2-0.4-0.2-0.6v-0.2h-0.1c-0.2,0.4-0.5,0.7-1,1.1
			C55.8,196.5,55.2,196.7,54.4,196.7z M57.1,192.1c-1.1,0.2-1.8,0.5-2.3,0.9c-0.4,0.4-0.7,0.8-0.7,1.3c0,0.2,0,0.4,0.1,0.5
			c0.1,0.2,0.2,0.3,0.4,0.5c0.2,0.1,0.4,0.2,0.6,0.2c0.3,0,0.7-0.1,1-0.3s0.6-0.4,0.8-0.6v-2.5H57.1z"/>
		<path class="st1" d="M64.1,196.8c-0.6,0-1.1-0.1-1.5-0.2c-0.4-0.1-0.8-0.3-1-0.6c-0.2-0.2-0.4-0.5-0.4-0.8c0-0.4,0.1-0.7,0.3-1
			s0.5-0.4,0.9-0.4c0.2,0.7,0.5,1.2,0.9,1.5s0.7,0.5,1.2,0.5c0.4,0,0.7-0.1,1-0.2c0.3-0.2,0.4-0.4,0.4-0.8c0-0.2-0.1-0.4-0.2-0.6
			c-0.1-0.2-0.3-0.4-0.6-0.5c-0.2-0.2-0.5-0.3-1-0.6c-0.6-0.3-1-0.6-1.4-0.9c-0.4-0.3-0.6-0.6-0.9-0.9c-0.2-0.4-0.4-0.8-0.4-1.3
			c0-0.4,0.1-0.8,0.3-1.3c0.2-0.4,0.6-0.8,1-1c0.5-0.3,1-0.4,1.7-0.4c0.5,0,0.9,0.1,1.3,0.2c0.4,0.2,0.7,0.4,0.9,0.7
			c0.2,0.3,0.3,0.6,0.3,0.9c0,0.4-0.1,0.7-0.4,0.9s-0.6,0.4-1,0.4c-0.1-0.8-0.3-1.4-0.6-1.7c-0.3-0.4-0.6-0.6-1-0.6
			c-0.3,0-0.6,0.1-0.8,0.4c-0.2,0.2-0.3,0.5-0.3,0.9c0,0.3,0.1,0.5,0.3,0.7s0.4,0.4,0.6,0.6c0.3,0.2,0.6,0.4,1,0.6
			c0.5,0.3,1,0.6,1.3,0.8s0.6,0.5,0.9,0.9c0.2,0.4,0.4,0.8,0.4,1.2c0,0.5-0.1,0.9-0.4,1.3c-0.3,0.4-0.7,0.7-1.2,0.9
			C65.1,196.6,64.6,196.8,64.1,196.8z"/>
		<path class="st1" d="M71,196.4l0.1-0.8l1.5-0.6l4.4-11.3l1.5-0.3l4,11.7l1.4,0.4l-0.1,0.8h-5.2l0.1-0.8l1.7-0.6l-1.1-3.1H75
			l-1,3.1l1.9,0.4l-0.1,0.8H71V196.4z M75.4,191H79l-1.7-5.1L75.4,191z"/>
		<path class="st1" d="M85.2,184.8l-1.5-0.5l0.1-0.8l2.8-0.2l0.2,0.2v4.2l-0.1,1.1h0.1c0.4-0.5,0.9-0.9,1.4-1.2s1-0.4,1.5-0.4
			c0.7,0,1.2,0.2,1.7,0.6c0.5,0.4,0.9,0.9,1.2,1.5c0.3,0.7,0.4,1.4,0.4,2.3c0,1-0.2,1.9-0.7,2.7s-1.1,1.3-1.8,1.7
			c-0.8,0.4-1.6,0.6-2.5,0.6c-0.5,0-1-0.1-1.5-0.2c-0.5-0.1-0.9-0.3-1.3-0.6C85.2,195.8,85.2,184.8,85.2,184.8z M86.9,189.6v5.3
			c0.2,0.2,0.5,0.4,0.9,0.5s0.8,0.2,1.3,0.2c0.4,0,0.8-0.1,1.1-0.4c0.3-0.2,0.6-0.6,0.8-1.1c0.2-0.5,0.3-1.1,0.3-1.8
			c0-0.6-0.1-1.2-0.2-1.7c-0.1-0.6-0.4-1-0.7-1.4c-0.3-0.4-0.8-0.6-1.3-0.6C88.2,188.6,87.5,188.9,86.9,189.6z"/>
		<path class="st1" d="M93.2,196.4l0.1-0.8l1.6-0.4v-10.5l-1.6-0.6l0.1-0.8l2.9-0.2l0.3,0.2v11.8l1.6,0.4l-0.1,0.8h-4.9V196.4z"/>
		<path class="st1" d="M100.9,196.7c-0.4,0-0.7-0.1-1-0.2c-0.3-0.2-0.5-0.4-0.7-0.7s-0.3-0.6-0.3-1c0-0.5,0.2-1,0.5-1.5
			s0.9-0.9,1.6-1.2s1.6-0.5,2.6-0.6v-0.6c0-0.8-0.1-1.4-0.4-2c-0.3-0.5-0.7-0.8-1.4-0.8c-0.3,0-0.6,0.1-0.7,0.2
			c-0.1,0.1-0.2,0.3-0.3,0.6c0,0.3-0.1,0.7-0.2,1.4c-0.4,0-0.7-0.1-1-0.2c-0.3-0.1-0.4-0.4-0.4-0.9c0-0.4,0.2-0.7,0.6-1
			s0.8-0.6,1.4-0.8s1.1-0.3,1.5-0.3c0.9,0,1.5,0.2,1.9,0.7s0.6,1.3,0.6,2.4v3.7c0,0.3,0,0.6,0.1,0.7c0.1,0.2,0.2,0.3,0.3,0.4
			c0.2,0.1,0.4,0.2,0.7,0.2l0.5,0.1l-0.1,0.9c-0.1,0-0.3,0-0.5,0.1c-0.3,0.1-0.6,0.1-0.9,0.1c-0.4,0-0.7-0.1-0.9-0.2
			c-0.2-0.1-0.4-0.3-0.5-0.5s-0.2-0.4-0.2-0.6v-0.2h-0.1c-0.2,0.4-0.5,0.7-1,1.1C102.3,196.5,101.7,196.7,100.9,196.7z M103.6,192.1
			c-1.1,0.2-1.8,0.5-2.3,0.9c-0.4,0.4-0.7,0.8-0.7,1.3c0,0.2,0,0.4,0.1,0.5c0.1,0.2,0.2,0.3,0.4,0.5c0.2,0.1,0.4,0.2,0.6,0.2
			c0.3,0,0.7-0.1,1-0.3s0.6-0.4,0.8-0.6L103.6,192.1L103.6,192.1z"/>
		<path class="st1" d="M108.1,189l-1.4-0.6l0.1-0.8l2.7-0.2l0.3,0.2v5.5c0,1.4,0.5,2.1,1.6,2.1c0.4,0,0.8-0.1,1.1-0.2
			c0.3-0.1,0.6-0.3,0.8-0.6V189l-1.6-0.4l0.1-0.9l3-0.3l0.2,0.2v6.6c0,0.3,0,0.6,0.1,0.7c0.1,0.2,0.2,0.3,0.3,0.4
			c0.1,0.1,0.4,0.1,0.6,0.2l0.5,0.1l-0.1,0.8c-0.3,0.1-0.6,0.1-0.8,0.2s-0.5,0-0.8,0c-0.5,0-0.9-0.1-1.1-0.4
			c-0.3-0.3-0.4-0.6-0.4-1.1V195h-0.1c-0.7,1-1.7,1.6-2.9,1.6c-0.7,0-1.3-0.2-1.7-0.7c-0.4-0.5-0.6-1.2-0.6-2.3V189H108.1z"/>
		<path class="st1" d="M123,196.4h-5.8l0.1-0.7l1.5-0.4v-6.8h-1.5l0.1-0.7l1.4-0.2c0.1-1,0.4-1.8,0.8-2.5s0.9-1.2,1.4-1.6
			c0.6-0.4,1.1-0.5,1.6-0.5c0.6,0,1,0.1,1.4,0.3c0.3,0.2,0.5,0.5,0.5,0.9c0,0.2-0.1,0.5-0.3,0.7c-0.2,0.2-0.4,0.4-0.6,0.5
			c-0.3-0.3-0.6-0.6-0.9-0.9c-0.3-0.3-0.6-0.4-0.9-0.4c-0.4,0-0.7,0.2-1,0.6c-0.2,0.4-0.3,1-0.4,2v1.1h2.6l-0.1,0.9h-2.5v6.8
			l2.5,0.4L123,196.4z"/>
		<path class="st1" d="M127.2,196.6c-0.6,0-1.2-0.2-1.7-0.5s-0.9-0.8-1.2-1.5c-0.3-0.6-0.4-1.4-0.4-2.3c0-0.9,0.2-1.8,0.7-2.6
			c0.4-0.8,1-1.4,1.7-1.8c0.7-0.4,1.4-0.7,2.1-0.7c0.3,0,0.7,0,1,0.1s0.6,0.2,0.8,0.3h0.1l-0.1-1.3v-1.6l-1.5-0.6l0.1-0.8l2.8-0.2
			l0.2,0.2v10.8c0,0.3,0,0.6,0.1,0.8s0.2,0.3,0.3,0.3c0.1,0.1,0.4,0.1,0.6,0.2l0.5,0.1l-0.1,0.8c-0.3,0.1-0.6,0.1-0.7,0.2
			c-0.2,0-0.4,0-0.7,0c-0.5,0-0.9-0.1-1.1-0.4c-0.3-0.3-0.4-0.6-0.4-1.1v-0.1H130c-0.3,0.5-0.7,0.8-1.2,1.1
			C128.4,196.5,127.8,196.6,127.2,196.6z M127.8,188.2c-0.8,0-1.3,0.3-1.7,0.9s-0.5,1.5-0.5,2.5c0,0.8,0.1,1.4,0.3,2
			c0.2,0.5,0.5,1,0.8,1.2c0.3,0.3,0.7,0.4,1.2,0.4c0.4,0,0.8-0.1,1.2-0.3s0.7-0.4,0.9-0.6v-4.8c-0.3-0.4-0.6-0.8-1-1
			C128.6,188.4,128.2,188.2,127.8,188.2z"/>
		<path class="st1" d="M136,196.7c-0.4,0-0.7-0.1-1-0.2c-0.3-0.2-0.5-0.4-0.7-0.7s-0.3-0.6-0.3-1c0-0.5,0.2-1,0.5-1.5
			s0.9-0.9,1.6-1.2c0.7-0.3,1.6-0.5,2.6-0.6v-0.6c0-0.8-0.1-1.4-0.4-2c-0.3-0.5-0.7-0.8-1.4-0.8c-0.3,0-0.6,0.1-0.7,0.2
			c-0.1,0.1-0.2,0.3-0.3,0.6c0,0.3-0.1,0.7-0.2,1.4c-0.4,0-0.7-0.1-1-0.2c-0.3-0.1-0.4-0.4-0.4-0.9c0-0.4,0.2-0.7,0.6-1
			c0.4-0.3,0.8-0.6,1.4-0.8c0.6-0.2,1.1-0.3,1.5-0.3c0.9,0,1.5,0.2,1.9,0.7s0.6,1.3,0.6,2.4v3.7c0,0.3,0,0.6,0.1,0.7
			c0.1,0.2,0.2,0.3,0.3,0.4c0.2,0.1,0.4,0.2,0.7,0.2l0.5,0.1l-0.1,0.9c-0.1,0-0.3,0-0.5,0.1c-0.3,0.1-0.6,0.1-0.9,0.1
			c-0.4,0-0.7-0.1-0.9-0.2c-0.2-0.1-0.4-0.3-0.5-0.5s-0.2-0.4-0.2-0.6v-0.2h-0.1c-0.2,0.4-0.5,0.7-1,1.1
			C137.3,196.5,136.7,196.7,136,196.7z M138.7,192.1c-1.1,0.2-1.8,0.5-2.3,0.9c-0.4,0.4-0.7,0.8-0.7,1.3c0,0.2,0,0.4,0.1,0.5
			c0.1,0.2,0.2,0.3,0.4,0.5c0.2,0.1,0.4,0.2,0.6,0.2c0.3,0,0.7-0.1,1-0.3s0.6-0.4,0.8-0.6L138.7,192.1L138.7,192.1z"/>
		<path class="st1" d="M143.1,188.6h-1.3V188c0.4-0.3,0.8-0.8,1.3-1.3c0.4-0.5,0.9-1,1.2-1.5h0.5v2.4h2.9l-0.1,0.9h-2.8v4.5
			c0,0.5,0.1,0.9,0.2,1.2c0.1,0.3,0.3,0.5,0.5,0.6s0.5,0.2,0.9,0.2c0.2,0,0.4,0,0.7-0.1c0.2-0.1,0.4-0.2,0.6-0.3
			c0.2-0.1,0.2-0.2,0.2-0.2l0.2,0.6c-0.3,0.5-0.7,0.8-1.2,1.1s-1,0.4-1.6,0.4c-0.7,0-1.2-0.2-1.6-0.6c-0.4-0.4-0.6-1.2-0.6-2.2
			L143.1,188.6z"/>
		<path class="st1" d="M150,189l-1.4-0.6l0.1-0.8l2.7-0.2l0.3,0.2v5.5c0,1.4,0.5,2.1,1.6,2.1c0.4,0,0.8-0.1,1.1-0.2
			c0.3-0.1,0.6-0.3,0.8-0.6V189l-1.6-0.4l0.1-0.9l3-0.3l0.2,0.2v6.6c0,0.3,0,0.6,0.1,0.7c0.1,0.2,0.2,0.3,0.3,0.4
			c0.1,0.1,0.4,0.1,0.6,0.2l0.5,0.1l-0.1,0.8c-0.3,0.1-0.6,0.1-0.8,0.2s-0.5,0-0.8,0c-0.5,0-0.9-0.1-1.1-0.4
			c-0.3-0.3-0.4-0.6-0.4-1.1V195h-0.1c-0.7,1-1.7,1.6-2.9,1.6c-0.7,0-1.3-0.2-1.7-0.7s-0.6-1.2-0.6-2.3L150,189L150,189z"/>
		<path class="st1" d="M163.9,196.4h-4.7l0.1-0.8l1.5-0.4V189l-1.6-0.5l0.1-0.8l3.1-0.4l0.2,0.2l-0.2,1.3h0.1
			c0.4-0.4,0.8-0.8,1.4-1.1c0.5-0.3,1.1-0.5,1.7-0.5c0.5,0,1,0.1,1.4,0.4c0.4,0.3,0.7,0.7,0.9,1.3h0.1c0.4-0.5,0.8-0.8,1.3-1.1
			s1.1-0.5,1.7-0.5c1.6,0,2.4,0.9,2.4,2.8v5l1.4,0.4l-0.1,0.8h-4.3l0.1-0.7l1.3-0.4v-4.8c0-0.5-0.2-0.9-0.5-1.3
			c-0.3-0.3-0.7-0.5-1.3-0.5c-0.4,0-0.8,0.1-1.1,0.3s-0.6,0.4-0.9,0.7v5.6l1.5,0.4l-0.1,0.8h-4.5l0.1-0.8l1.3-0.4v-4.8
			c0-0.3-0.1-0.7-0.2-0.9c-0.2-0.3-0.4-0.5-0.6-0.6c-0.3-0.1-0.6-0.2-0.9-0.2c-0.4,0-0.7,0.1-1.1,0.2c-0.4,0.2-0.7,0.4-0.9,0.7v5.7
			l1.5,0.4L163.9,196.4z"/>
		<path class="st1" d="M178.3,188.3l0.1-0.8h4.6l-0.1,0.8l-1.5,0.4l1.9,5.7l2-5.7l-1.6-0.4l0.1-0.8h3.9l-0.1,0.8l-1.1,0.4l-2.8,7.8
			l-1.3,0.2l-2.8-8L178.3,188.3z"/>
		<path class="st1" d="M191.9,196.7c-0.9,0-1.6-0.2-2.3-0.6c-0.6-0.4-1.1-0.9-1.4-1.6c-0.3-0.7-0.5-1.5-0.5-2.4c0-1,0.2-1.9,0.6-2.6
			c0.4-0.7,1-1.3,1.6-1.7c0.7-0.4,1.4-0.6,2.2-0.6s1.5,0.2,2.1,0.6c0.6,0.4,1.1,0.9,1.4,1.7c0.3,0.7,0.5,1.5,0.5,2.5
			c0,0.9-0.2,1.7-0.6,2.5c-0.4,0.7-0.9,1.3-1.5,1.7C193.4,196.5,192.7,196.7,191.9,196.7z M191.7,188.3c-0.5,0-0.9,0.1-1.2,0.4
			c-0.3,0.3-0.6,0.7-0.7,1.1c-0.2,0.5-0.2,1-0.2,1.5c0,0.8,0.1,1.5,0.3,2.1c0.2,0.7,0.5,1.2,0.9,1.6c0.4,0.4,0.9,0.6,1.6,0.6
			c0.5,0,0.8-0.1,1.2-0.4c0.3-0.3,0.6-0.6,0.7-1.1c0.2-0.4,0.2-0.9,0.2-1.4c0-0.7-0.1-1.4-0.3-2.1c-0.2-0.7-0.5-1.2-0.9-1.7
			C192.8,188.5,192.3,188.3,191.7,188.3z"/>
		<path class="st1" d="M201.4,196.4h-4.7l0.1-0.7l1.5-0.4v-6.2l-1.6-0.5l0.1-0.8l3-0.4l0.2,0.2l-0.2,1.3h0.1
			c0.4-0.5,0.8-0.8,1.4-1.2c0.5-0.3,1.1-0.5,1.7-0.5c0.8,0,1.4,0.3,1.8,0.8c0.4,0.5,0.6,1.2,0.6,2.1v5.1l1.5,0.4l-0.1,0.8h-4.6
			l0.1-0.7l1.4-0.4v-4.7c0-0.6-0.2-1.1-0.5-1.4c-0.3-0.3-0.8-0.5-1.3-0.5c-0.4,0-0.7,0.1-1.1,0.2c-0.4,0.2-0.7,0.4-0.9,0.6v5.7
			l1.5,0.4V196.4z"/>
		<path class="st1" d="M211.1,184.5l0.1-0.8h5.6l-0.1,0.8L215,185v10.2l1.9,0.4l-0.1,0.8h-5.6l0.1-0.8l1.8-0.6v-10L211.1,184.5z
			 M215.2,190.2V190c0.2-0.2,0.4-0.4,0.8-0.9c0.4-0.4,0.6-0.7,0.8-0.9l2.5-3.3l-1.6-0.5l0.1-0.8h5l-0.1,0.8l-1.8,0.5l-3.8,4.8
			l2.3,2.7c0.6,0.7,1.1,1.3,1.4,1.6c0.3,0.4,0.7,0.7,1,0.9s0.7,0.4,1.1,0.6l0.4,0.1l-0.1,0.7c-0.4,0.1-0.9,0.2-1.3,0.2
			c-0.8,0-1.5-0.2-2.1-0.7s-1.3-1.2-2-2.1L215.2,190.2z"/>
		<path class="st1" d="M225.9,196.7c-0.4,0-0.7-0.1-1-0.2c-0.3-0.2-0.5-0.4-0.7-0.7s-0.3-0.6-0.3-1c0-0.5,0.2-1,0.5-1.5
			s0.9-0.9,1.6-1.2c0.7-0.3,1.6-0.5,2.6-0.6v-0.6c0-0.8-0.1-1.4-0.4-2c-0.3-0.5-0.7-0.8-1.4-0.8c-0.3,0-0.6,0.1-0.7,0.2
			c-0.1,0.1-0.2,0.3-0.3,0.6c0,0.3-0.1,0.7-0.2,1.4c-0.4,0-0.7-0.1-1-0.2c-0.3-0.1-0.4-0.4-0.4-0.9c0-0.4,0.2-0.7,0.6-1
			c0.4-0.3,0.8-0.6,1.4-0.8c0.6-0.2,1.1-0.3,1.5-0.3c0.9,0,1.5,0.2,1.9,0.7s0.6,1.3,0.6,2.4v3.7c0,0.3,0,0.6,0.1,0.7
			c0.1,0.2,0.2,0.3,0.3,0.4c0.2,0.1,0.4,0.2,0.7,0.2l0.5,0.1l-0.1,0.9c-0.1,0-0.3,0-0.5,0.1c-0.3,0.1-0.6,0.1-0.9,0.1
			c-0.4,0-0.7-0.1-0.9-0.2c-0.2-0.1-0.4-0.3-0.5-0.5s-0.2-0.4-0.2-0.6v-0.2h-0.1c-0.2,0.4-0.5,0.7-1,1.1
			C227.2,196.5,226.6,196.7,225.9,196.7z M228.6,192.1c-1.1,0.2-1.8,0.5-2.3,0.9c-0.4,0.4-0.7,0.8-0.7,1.3c0,0.2,0,0.4,0.1,0.5
			c0.1,0.2,0.2,0.3,0.4,0.5c0.2,0.1,0.4,0.2,0.6,0.2c0.3,0,0.7-0.1,1-0.3s0.6-0.4,0.8-0.6L228.6,192.1L228.6,192.1z"/>
		<path class="st1" d="M233,189l-1.4-0.6l0.1-0.8l2.7-0.2l0.3,0.2v5.5c0,1.4,0.5,2.1,1.6,2.1c0.4,0,0.8-0.1,1.1-0.2
			c0.3-0.1,0.6-0.3,0.8-0.6V189l-1.6-0.4l0.1-0.9l3-0.3l0.2,0.2v6.6c0,0.3,0,0.6,0.1,0.7c0.1,0.2,0.2,0.3,0.3,0.4
			c0.1,0.1,0.4,0.1,0.6,0.2l0.5,0.1l-0.1,0.8c-0.3,0.1-0.6,0.1-0.8,0.2s-0.5,0-0.8,0c-0.5,0-0.9-0.1-1.1-0.4
			c-0.3-0.3-0.4-0.6-0.4-1.1V195h-0.1c-0.7,1-1.7,1.6-2.9,1.6c-0.7,0-1.3-0.2-1.7-0.7s-0.6-1.2-0.6-2.3L233,189L233,189z"/>
		<path class="st1" d="M248,196.4h-5.8l0.1-0.7l1.5-0.4v-6.8h-1.5l0.1-0.7l1.4-0.2c0.1-1,0.4-1.8,0.8-2.5c0.4-0.7,0.9-1.2,1.4-1.6
			c0.6-0.4,1.1-0.5,1.6-0.5c0.6,0,1,0.1,1.4,0.3c0.3,0.2,0.5,0.5,0.5,0.9c0,0.2-0.1,0.5-0.3,0.7s-0.4,0.4-0.6,0.5
			c-0.3-0.3-0.6-0.6-0.9-0.9c-0.3-0.3-0.6-0.4-0.9-0.4c-0.4,0-0.7,0.2-1,0.6c-0.2,0.4-0.3,1-0.4,2v1.1h2.6l-0.1,0.9h-2.5v6.8
			l2.5,0.4L248,196.4z"/>
		<path class="st1" d="M251.3,184.8l-1.5-0.5l0.1-0.8l2.8-0.2l0.2,0.2v4.2l-0.1,1.1h0.1c0.4-0.5,0.9-0.9,1.4-1.2s1-0.4,1.5-0.4
			c0.7,0,1.2,0.2,1.7,0.6c0.5,0.4,0.9,0.9,1.2,1.5c0.3,0.7,0.4,1.4,0.4,2.3c0,1-0.2,1.9-0.7,2.7s-1.1,1.3-1.8,1.7
			c-0.8,0.4-1.6,0.6-2.5,0.6c-0.5,0-1-0.1-1.5-0.2c-0.5-0.1-0.9-0.3-1.3-0.6V184.8z M252.9,189.6v5.3c0.2,0.2,0.5,0.4,0.9,0.5
			s0.8,0.2,1.3,0.2c0.4,0,0.8-0.1,1.1-0.4c0.3-0.2,0.6-0.6,0.8-1.1c0.2-0.5,0.3-1.1,0.3-1.8c0-0.6-0.1-1.2-0.2-1.7
			c-0.1-0.6-0.4-1-0.7-1.4c-0.3-0.4-0.8-0.6-1.3-0.6C254.3,188.6,253.6,188.9,252.9,189.6z"/>
		<path class="st1" d="M261.9,196.7c-0.4,0-0.7-0.1-1-0.2c-0.3-0.2-0.5-0.4-0.7-0.7s-0.3-0.6-0.3-1c0-0.5,0.2-1,0.5-1.5
			s0.9-0.9,1.6-1.2s1.6-0.5,2.6-0.6v-0.6c0-0.8-0.1-1.4-0.4-2c-0.3-0.5-0.7-0.8-1.4-0.8c-0.3,0-0.6,0.1-0.7,0.2
			c-0.1,0.1-0.2,0.3-0.3,0.6c0,0.3-0.1,0.7-0.2,1.4c-0.4,0-0.7-0.1-1-0.2c-0.3-0.1-0.4-0.4-0.4-0.9c0-0.4,0.2-0.7,0.6-1
			s0.8-0.6,1.4-0.8s1.1-0.3,1.5-0.3c0.9,0,1.5,0.2,1.9,0.7s0.6,1.3,0.6,2.4v3.7c0,0.3,0,0.6,0.1,0.7c0.1,0.2,0.2,0.3,0.3,0.4
			c0.2,0.1,0.4,0.2,0.7,0.2l0.5,0.1l-0.1,0.9c-0.1,0-0.3,0-0.5,0.1c-0.3,0.1-0.6,0.1-0.9,0.1c-0.4,0-0.7-0.1-0.9-0.2
			c-0.2-0.1-0.4-0.3-0.5-0.5s-0.2-0.4-0.2-0.6v-0.2h-0.1c-0.2,0.4-0.5,0.7-1,1.1C263.2,196.5,262.6,196.7,261.9,196.7z M264.6,192.1
			c-1.1,0.2-1.8,0.5-2.3,0.9c-0.4,0.4-0.7,0.8-0.7,1.3c0,0.2,0,0.4,0.1,0.5c0.1,0.2,0.2,0.3,0.4,0.5c0.2,0.1,0.4,0.2,0.6,0.2
			c0.3,0,0.7-0.1,1-0.3s0.6-0.4,0.8-0.6v-2.5H264.6z"/>
		<path class="st1" d="M274.2,196.4h-5.6l0.1-0.8l1.6-0.4V189l-1.7-0.5l0.1-0.8l2.9-0.4l0.2,0.2l-0.2,2.3h0.2
			c0.2-0.6,0.4-1.1,0.7-1.5c0.3-0.4,0.6-0.7,0.9-0.9s0.6-0.3,0.9-0.3s0.6,0.1,0.8,0.3c0.2,0.2,0.3,0.5,0.3,0.8
			c0,0.4-0.2,0.8-0.6,1.1c-0.2-0.1-0.4-0.2-0.6-0.3s-0.4-0.1-0.6-0.1s-0.4,0.1-0.7,0.2c-0.2,0.2-0.5,0.4-0.7,0.7s-0.3,0.7-0.4,1.2
			v3.9l2.4,0.3L274.2,196.4z"/>
		<path class="st1" d="M279.7,196.7c-0.7,0-1.3-0.2-1.9-0.5c-0.6-0.4-1.1-0.9-1.4-1.6c-0.4-0.7-0.5-1.6-0.5-2.5c0-1,0.2-1.8,0.6-2.5
			s0.9-1.3,1.6-1.7c0.6-0.4,1.3-0.6,2-0.6c0.5,0,1,0.1,1.4,0.4c0.4,0.2,0.7,0.6,1,1.1s0.4,1.1,0.4,1.8c0,0.2,0,0.4-0.1,0.6
			c0,0.3-0.1,0.5-0.1,0.7l-4.9,0.1c0,0.6,0.1,1.1,0.4,1.7c0.2,0.5,0.5,1,1,1.3c0.4,0.3,0.9,0.5,1.5,0.5c0.3,0,0.6,0,0.8,0
			c0.2,0,0.4-0.1,0.7-0.1c0.3-0.1,0.5-0.2,0.9-0.4l0.2,0.5c-0.4,0.4-0.9,0.8-1.5,1C281,196.6,280.3,196.7,279.7,196.7z M279.5,188.2
			c-0.3,0-0.6,0.1-0.8,0.3c-0.3,0.2-0.5,0.5-0.7,0.9s-0.3,0.9-0.3,1.6l3.2-0.2c0-0.1,0-0.2,0-0.3s0-0.3,0-0.4
			C280.9,188.9,280.5,188.2,279.5,188.2z"/>
		<path class="st1" d="M288.6,196.4h-4.7l0.1-0.8l1.5-0.4V189l-1.6-0.5l0.1-0.8l3.1-0.4l0.2,0.2l-0.2,1.3h0.1
			c0.4-0.4,0.8-0.8,1.4-1.1c0.5-0.3,1.1-0.5,1.7-0.5c0.5,0,1,0.1,1.4,0.4c0.4,0.3,0.7,0.7,0.9,1.3h0.1c0.4-0.5,0.8-0.8,1.3-1.1
			s1.1-0.5,1.7-0.5c1.6,0,2.4,0.9,2.4,2.8v5l1.4,0.4l-0.1,0.8H295l0.1-0.7l1.3-0.4v-4.8c0-0.5-0.2-0.9-0.5-1.3
			c-0.3-0.3-0.7-0.5-1.3-0.5c-0.4,0-0.8,0.1-1.1,0.3c-0.3,0.2-0.6,0.4-0.9,0.7v5.6l1.5,0.4l-0.1,0.8h-4.5l0.1-0.8l1.3-0.4v-4.8
			c0-0.3-0.1-0.7-0.2-0.9c-0.2-0.3-0.4-0.5-0.6-0.6c-0.3-0.1-0.6-0.2-0.9-0.2c-0.4,0-0.7,0.1-1.1,0.2c-0.4,0.2-0.7,0.4-0.9,0.7v5.7
			l1.5,0.4L288.6,196.4z"/>
		<path class="st1" d="M38.4,210.2l0.1-0.8h5.2l-0.2,0.8l-1.7,0.4l2.5,8.8l2.9-9.4l1.8-0.3l2.5,9.5l2.7-8.6l-1.8-0.4l0.1-0.8H57
			l-0.1,0.8l-1.3,0.4L51.9,222l-1.6,0.3l-2.7-9.9l-2.9,9.7l-1.7,0.3l-3.3-11.7L38.4,210.2z"/>
		<path class="st1" d="M58.2,222.3c-0.4,0-0.7-0.1-1-0.2c-0.3-0.2-0.5-0.4-0.7-0.7s-0.3-0.6-0.3-1c0-0.5,0.2-1,0.5-1.5
			s0.9-0.9,1.6-1.2c0.7-0.3,1.6-0.5,2.6-0.6v-0.6c0-0.8-0.1-1.4-0.4-2c-0.3-0.5-0.7-0.8-1.4-0.8c-0.3,0-0.6,0.1-0.7,0.2
			c-0.1,0.1-0.2,0.3-0.3,0.6c0,0.3-0.1,0.7-0.2,1.4c-0.4,0-0.7-0.1-1-0.2c-0.3-0.1-0.4-0.4-0.4-0.9c0-0.4,0.2-0.7,0.6-1
			c0.4-0.3,0.8-0.6,1.4-0.8c0.6-0.2,1.1-0.3,1.5-0.3c0.9,0,1.5,0.2,1.9,0.7s0.6,1.3,0.6,2.4v3.7c0,0.3,0,0.6,0.1,0.7
			c0.1,0.2,0.2,0.3,0.3,0.4c0.2,0.1,0.4,0.2,0.7,0.2l0.5,0.1l-0.1,0.9c-0.1,0-0.3,0-0.5,0.1c-0.3,0.1-0.6,0.1-0.9,0.1
			c-0.4,0-0.7-0.1-0.9-0.2c-0.2-0.1-0.4-0.3-0.5-0.5s-0.2-0.4-0.2-0.6v-0.2h0c-0.2,0.4-0.5,0.7-1,1.1
			C59.6,222.1,59,222.3,58.2,222.3z M60.9,217.7c-1.1,0.2-1.8,0.5-2.3,0.9c-0.4,0.4-0.7,0.8-0.7,1.3c0,0.2,0,0.4,0.1,0.5
			c0.1,0.2,0.2,0.3,0.4,0.5c0.2,0.1,0.4,0.2,0.6,0.2c0.3,0,0.7-0.1,1-0.3s0.6-0.4,0.8-0.6v-2.5H60.9z"/>
		<path class="st1" d="M67.9,222.4c-0.6,0-1.1-0.1-1.5-0.2c-0.4-0.1-0.8-0.3-1-0.6s-0.4-0.5-0.4-0.8c0-0.4,0.1-0.7,0.3-1
			c0.2-0.3,0.5-0.4,0.9-0.4c0.2,0.7,0.5,1.2,0.9,1.5s0.7,0.5,1.2,0.5c0.4,0,0.7-0.1,1-0.2c0.3-0.2,0.4-0.4,0.4-0.8
			c0-0.2-0.1-0.4-0.2-0.6c-0.1-0.2-0.3-0.4-0.6-0.5c-0.2-0.2-0.5-0.3-1-0.6c-0.6-0.3-1-0.6-1.4-0.9c-0.4-0.3-0.6-0.6-0.9-0.9
			c-0.2-0.4-0.4-0.8-0.4-1.3c0-0.4,0.1-0.8,0.3-1.3c0.2-0.4,0.6-0.8,1-1c0.5-0.3,1-0.4,1.7-0.4c0.5,0,0.9,0.1,1.3,0.2
			c0.4,0.2,0.7,0.4,0.9,0.7c0.2,0.3,0.3,0.6,0.3,0.9c0,0.4-0.1,0.7-0.4,0.9s-0.6,0.4-1,0.4c-0.1-0.8-0.3-1.4-0.6-1.7
			c-0.3-0.4-0.6-0.6-1-0.6c-0.3,0-0.6,0.1-0.8,0.4c-0.2,0.2-0.3,0.5-0.3,0.9c0,0.3,0.1,0.5,0.3,0.7c0.2,0.2,0.4,0.4,0.6,0.6
			c0.3,0.2,0.6,0.4,1,0.6c0.5,0.3,1,0.6,1.3,0.8s0.6,0.5,0.9,0.9c0.2,0.4,0.4,0.8,0.4,1.2c0,0.5-0.1,0.9-0.4,1.3
			c-0.3,0.4-0.7,0.7-1.2,0.9C68.9,222.3,68.4,222.4,67.9,222.4z"/>
		<path class="st1" d="M75,222.4c-0.6,0-1.1-0.1-1.5-0.2c-0.4-0.1-0.8-0.3-1-0.6s-0.4-0.5-0.4-0.8c0-0.4,0.1-0.7,0.3-1
			c0.2-0.3,0.5-0.4,0.9-0.4c0.2,0.7,0.5,1.2,0.9,1.5s0.7,0.5,1.2,0.5c0.4,0,0.7-0.1,1-0.2c0.3-0.2,0.4-0.4,0.4-0.8
			c0-0.2-0.1-0.4-0.2-0.6c-0.1-0.2-0.3-0.4-0.6-0.5c-0.2-0.2-0.5-0.3-1-0.6c-0.6-0.3-1-0.6-1.4-0.9c-0.4-0.3-0.6-0.6-0.9-0.9
			c-0.2-0.4-0.4-0.8-0.4-1.3c0-0.4,0.1-0.8,0.3-1.3c0.2-0.4,0.6-0.8,1-1c0.5-0.3,1-0.4,1.7-0.4c0.5,0,0.9,0.1,1.3,0.2
			c0.4,0.2,0.7,0.4,0.9,0.7c0.2,0.3,0.3,0.6,0.3,0.9c0,0.4-0.1,0.7-0.4,0.9s-0.6,0.4-1,0.4c-0.1-0.8-0.3-1.4-0.6-1.7
			c-0.3-0.4-0.6-0.6-1-0.6c-0.3,0-0.6,0.1-0.8,0.4c-0.2,0.2-0.3,0.5-0.3,0.9c0,0.3,0.1,0.5,0.3,0.7c0.2,0.2,0.4,0.4,0.6,0.6
			c0.3,0.2,0.6,0.4,1,0.6c0.5,0.3,1,0.6,1.3,0.8s0.6,0.5,0.9,0.9c0.2,0.4,0.4,0.8,0.4,1.2c0,0.5-0.1,0.9-0.4,1.3
			c-0.3,0.4-0.7,0.7-1.2,0.9C76,222.3,75.5,222.4,75,222.4z"/>
		<path class="st1" d="M82.8,222.4c-0.7,0-1.3-0.2-1.9-0.5c-0.6-0.4-1.1-0.9-1.4-1.6c-0.4-0.7-0.5-1.6-0.5-2.5c0-1,0.2-1.8,0.6-2.5
			s0.9-1.3,1.6-1.7c0.6-0.4,1.3-0.6,2-0.6c0.5,0,1,0.1,1.4,0.4c0.4,0.2,0.7,0.6,1,1.1c0.2,0.5,0.4,1.1,0.4,1.8c0,0.2,0,0.4-0.1,0.6
			c0,0.3-0.1,0.5-0.1,0.7l-4.9,0.1c0,0.6,0.1,1.1,0.4,1.7c0.2,0.5,0.5,1,1,1.3c0.4,0.3,0.9,0.5,1.5,0.5c0.3,0,0.6,0,0.8,0
			c0.2,0,0.4-0.1,0.7-0.1c0.3-0.1,0.5-0.2,0.9-0.4l0.2,0.5c-0.4,0.4-0.9,0.8-1.5,1C84.1,222.2,83.5,222.4,82.8,222.4z M82.7,213.9
			c-0.3,0-0.6,0.1-0.8,0.3c-0.3,0.2-0.5,0.5-0.7,0.9s-0.3,0.9-0.3,1.6l3.2-0.2c0-0.1,0-0.2,0-0.3s0-0.3,0-0.4
			C84.1,214.5,83.6,213.9,82.7,213.9z"/>
		<path class="st1" d="M92.7,222.1H87l0.1-0.8l1.6-0.4v-6.3l-1.7-0.5l0.1-0.8l2.9-0.4l0.2,0.2l-0.2,2.3h0.2c0.2-0.6,0.4-1.1,0.7-1.5
			c0.3-0.4,0.6-0.7,0.9-0.9s0.6-0.3,0.9-0.3s0.6,0.1,0.8,0.3c0.2,0.2,0.3,0.5,0.3,0.8c0,0.4-0.2,0.8-0.6,1.1
			c-0.2-0.1-0.4-0.2-0.6-0.3s-0.4-0.1-0.6-0.1s-0.4,0.1-0.7,0.2s-0.5,0.4-0.7,0.7s-0.3,0.7-0.4,1.2v3.9l2.4,0.3L92.7,222.1z"/>
		<path class="st1" d="M98,222.1l0.1-0.8l1.5-0.4v-6.3l-1.5-0.6l0.1-0.8l2.9-0.2l0.3,0.3v7.6l1.6,0.4l-0.1,0.8H98z M100.5,211.2
			c-0.2,0-0.4-0.1-0.6-0.2c-0.2-0.1-0.3-0.3-0.4-0.5s-0.2-0.4-0.2-0.6c0-0.3,0.1-0.6,0.4-0.8c0.2-0.2,0.5-0.3,0.9-0.3
			c0.3,0,0.6,0.1,0.9,0.3s0.4,0.5,0.4,0.8c0,0.2-0.1,0.4-0.2,0.6c-0.1,0.2-0.3,0.3-0.5,0.5C100.9,211.1,100.7,211.2,100.5,211.2z"/>
		<path class="st1" d="M108.5,222.1h-4.7l0.1-0.7l1.5-0.4v-6.2l-1.6-0.5l0.1-0.8l3-0.4l0.2,0.2l-0.2,1.3h0.1
			c0.4-0.5,0.8-0.8,1.4-1.2c0.5-0.3,1.1-0.5,1.7-0.5c0.8,0,1.4,0.3,1.8,0.8s0.6,1.2,0.6,2.1v5.1l1.5,0.4l-0.1,0.8h-4.6l0.1-0.7
			l1.4-0.4v-4.7c0-0.6-0.2-1.1-0.5-1.4c-0.3-0.3-0.8-0.5-1.3-0.5c-0.4,0-0.7,0.1-1.1,0.2c-0.4,0.2-0.7,0.4-0.9,0.6v5.7l1.5,0.4
			V222.1z"/>
		<path class="st1" d="M124.2,222.1h-6l0.1-0.8l1.7-0.5v-10l-1.7-0.3l0.1-0.8c0.9-0.1,1.8-0.2,2.5-0.3c0.8-0.1,1.5-0.1,2.3-0.1
			c1.5,0,2.8,0.3,3.7,0.8c0.9,0.5,1.4,1.5,1.4,2.9c0,0.8-0.2,1.5-0.6,2.1s-1,1.1-1.7,1.4c-0.7,0.3-1.5,0.5-2.3,0.5
			c-0.2,0-0.4,0-0.7,0h-0.3l-0.2-0.8h0.5c1.1,0,1.9-0.3,2.4-0.7c0.5-0.5,0.8-1.2,0.8-2.1c0-0.9-0.3-1.7-0.8-2.3s-1.3-0.9-2.4-0.9
			c-0.2,0-0.4,0-0.6,0s-0.4,0-0.4,0v10.6l2.4,0.4L124.2,222.1z"/>
		<path class="st1" d="M128.5,210.2l0.1-0.8h10.1l-0.3,3.3l-0.9-0.1l-0.4-2.2h-4.8v4.9h3l0.4-1.2l1-0.1l-0.3,4l-0.9,0.1l-0.3-1.8
			h-2.8v5h5l1-2.3l0.8,0.1l-0.3,3.2h-10.3l0.1-0.8l1.7-0.5v-10.2L128.5,210.2z"/>
		<path class="st1" d="M139.4,209.4h11.3l-0.3,3.4l-1-0.2l-0.4-2.4h-3.1v10.6l1.9,0.3l-0.1,0.8h-5.5l0.1-0.8l1.7-0.5v-10.5h-3
			l-0.5,2.5l-0.9-0.1L139.4,209.4z"/>
		<path class="st1" d="M149.4,218l0.1-1l4.2-0.2l-0.1,1L149.4,218z"/>
		<path class="st1" d="M154.1,210.2l0.1-0.8h10.1l-0.4,3.3l-0.9-0.1l-0.3-2.2H158v4.9h2.9l0.4-1.2l0.9-0.1l-0.3,4l-0.9,0l-0.3-1.8
			h-2.8v4.6l2.4,0.4l-0.1,0.8h-6l0.1-0.8l1.7-0.5v-10.2L154.1,210.2z"/>
		<path class="st1" d="M164.7,222.1l0.1-0.8l1.6-0.4v-10.5l-1.6-0.6l0.1-0.8l2.9-0.2l0.3,0.2v11.8l1.6,0.4l-0.1,0.8h-4.9V222.1z"/>
		<path class="st1" d="M172.5,222.3c-0.4,0-0.7-0.1-1-0.2c-0.3-0.2-0.5-0.4-0.7-0.7s-0.3-0.6-0.3-1c0-0.5,0.2-1,0.5-1.5
			s0.9-0.9,1.6-1.2c0.7-0.3,1.6-0.5,2.6-0.6v-0.6c0-0.8-0.1-1.4-0.4-2c-0.3-0.5-0.7-0.8-1.4-0.8c-0.3,0-0.6,0.1-0.7,0.2
			c-0.1,0.1-0.2,0.3-0.3,0.6c0,0.3-0.1,0.7-0.2,1.4c-0.4,0-0.7-0.1-1-0.2c-0.3-0.1-0.4-0.4-0.4-0.9c0-0.4,0.2-0.7,0.6-1
			c0.4-0.3,0.8-0.6,1.4-0.8c0.6-0.2,1.1-0.3,1.5-0.3c0.9,0,1.5,0.2,1.9,0.7s0.6,1.3,0.6,2.4v3.7c0,0.3,0,0.6,0.1,0.7
			c0.1,0.2,0.2,0.3,0.3,0.4c0.2,0.1,0.4,0.2,0.7,0.2l0.5,0.1l-0.1,0.9c-0.1,0-0.3,0-0.5,0.1c-0.3,0.1-0.6,0.1-0.9,0.1
			c-0.4,0-0.7-0.1-0.9-0.2c-0.2-0.1-0.4-0.3-0.5-0.5s-0.2-0.4-0.2-0.6v-0.2h-0.1c-0.2,0.4-0.5,0.7-1,1.1
			C173.8,222.1,173.2,222.3,172.5,222.3z M175.2,217.7c-1.1,0.2-1.8,0.5-2.3,0.9c-0.4,0.4-0.7,0.8-0.7,1.3c0,0.2,0,0.4,0.1,0.5
			c0.1,0.2,0.2,0.3,0.4,0.5c0.2,0.1,0.4,0.2,0.6,0.2c0.3,0,0.7-0.1,1-0.3s0.6-0.4,0.8-0.6L175.2,217.7L175.2,217.7z"/>
		<path class="st1" d="M182.2,222.4c-0.6,0-1.1-0.1-1.5-0.2c-0.4-0.1-0.8-0.3-1-0.6c-0.2-0.2-0.4-0.5-0.4-0.8c0-0.4,0.1-0.7,0.3-1
			s0.5-0.4,0.9-0.4c0.2,0.7,0.5,1.2,0.9,1.5s0.7,0.5,1.2,0.5c0.4,0,0.7-0.1,1-0.2c0.3-0.2,0.4-0.4,0.4-0.8c0-0.2-0.1-0.4-0.2-0.6
			c-0.1-0.2-0.3-0.4-0.6-0.5c-0.2-0.2-0.5-0.3-1-0.6c-0.6-0.3-1-0.6-1.4-0.9c-0.4-0.3-0.6-0.6-0.9-0.9c-0.2-0.4-0.4-0.8-0.4-1.3
			c0-0.4,0.1-0.8,0.3-1.3c0.2-0.4,0.6-0.8,1-1c0.5-0.3,1-0.4,1.7-0.4c0.5,0,0.9,0.1,1.3,0.2c0.4,0.2,0.7,0.4,0.9,0.7
			s0.3,0.6,0.3,0.9c0,0.4-0.1,0.7-0.4,0.9s-0.6,0.4-1,0.4c-0.1-0.8-0.3-1.4-0.6-1.7c-0.3-0.4-0.6-0.6-1-0.6c-0.3,0-0.6,0.1-0.8,0.4
			c-0.2,0.2-0.3,0.5-0.3,0.9c0,0.3,0.1,0.5,0.3,0.7s0.4,0.4,0.6,0.6c0.3,0.2,0.6,0.4,1,0.6c0.5,0.3,1,0.6,1.3,0.8s0.6,0.5,0.9,0.9
			c0.2,0.4,0.4,0.8,0.4,1.2c0,0.5-0.1,0.9-0.4,1.3c-0.3,0.4-0.7,0.7-1.2,0.9C183.2,222.3,182.7,222.4,182.2,222.4z"/>
		<path class="st1" d="M190.2,222.4c-0.8,0-1.5-0.2-2.1-0.6c-0.6-0.4-1.1-1-1.4-1.7c-0.3-0.7-0.5-1.4-0.5-2.3c0-1,0.2-1.8,0.6-2.6
			c0.4-0.8,0.9-1.3,1.6-1.7c0.7-0.4,1.4-0.6,2.1-0.6c0.5,0,1,0.1,1.4,0.2c0.4,0.1,0.6,0.3,0.8,0.6c0.2,0.2,0.3,0.5,0.3,0.8
			s-0.1,0.6-0.3,0.7c-0.2,0.2-0.5,0.3-1,0.3c-0.2-0.5-0.4-0.9-0.7-1.2c-0.2-0.3-0.6-0.5-1-0.5s-0.8,0.1-1.1,0.4
			c-0.3,0.3-0.5,0.6-0.7,1.1s-0.2,1-0.2,1.6s0.1,1.3,0.3,1.9c0.2,0.7,0.6,1.2,1,1.7c0.5,0.4,1,0.7,1.7,0.7c0.5,0,0.8-0.1,1.1-0.2
			c0.3-0.1,0.6-0.3,0.9-0.5l0.3,0.6c-0.3,0.3-0.7,0.6-1.3,0.9C191.5,222.2,190.8,222.4,190.2,222.4z"/>
		<path class="st1" d="M198.7,222.1H194l0.1-0.8l1.6-0.4v-10.5l-1.6-0.6l0.1-0.8l2.9-0.2l0.3,0.2v4.3l-0.2,1.1h0.1
			c1-1.1,2-1.6,3-1.6c0.8,0,1.4,0.2,1.8,0.7c0.4,0.4,0.6,1.2,0.6,2.4v4.9l1.5,0.4l-0.1,0.8h-4.6l0.1-0.8l1.4-0.4v-4.7
			c0-0.7-0.2-1.1-0.5-1.4c-0.3-0.3-0.8-0.4-1.2-0.4c-0.3,0-0.7,0.1-1,0.2c-0.3,0.1-0.7,0.4-1,0.7v5.7l1.5,0.4L198.7,222.1z"/>
		<path class="st1" d="M208.3,222.4c-0.7,0-1.3-0.2-1.9-0.5c-0.6-0.4-1.1-0.9-1.4-1.6c-0.4-0.7-0.5-1.6-0.5-2.5c0-1,0.2-1.8,0.6-2.5
			c0.4-0.7,0.9-1.3,1.6-1.7c0.6-0.4,1.3-0.6,2-0.6c0.5,0,1,0.1,1.4,0.4c0.4,0.2,0.7,0.6,1,1.1c0.2,0.5,0.4,1.1,0.4,1.8
			c0,0.2,0,0.4-0.1,0.6c0,0.3-0.1,0.5-0.1,0.7l-4.9,0.1c0,0.6,0.1,1.1,0.4,1.7c0.2,0.5,0.5,1,1,1.3c0.4,0.3,0.9,0.5,1.5,0.5
			c0.3,0,0.6,0,0.8,0s0.4-0.1,0.7-0.1c0.3-0.1,0.5-0.2,0.9-0.4l0.2,0.5c-0.4,0.4-0.9,0.8-1.5,1C209.6,222.2,209,222.4,208.3,222.4z
			 M208.2,213.9c-0.3,0-0.6,0.1-0.8,0.3c-0.3,0.2-0.5,0.5-0.7,0.9s-0.3,0.9-0.3,1.6l3.2-0.2c0-0.1,0-0.2,0-0.3s0-0.3,0-0.4
			C209.6,214.5,209.1,213.9,208.2,213.9z"/>
		<path class="st1" d="M217.3,222.1h-4.7l0.1-0.7l1.5-0.4v-6.2l-1.6-0.5l0.1-0.8l3-0.4l0.2,0.2l-0.2,1.3h0.1
			c0.4-0.5,0.8-0.8,1.4-1.2c0.5-0.3,1.1-0.5,1.7-0.5c0.8,0,1.4,0.3,1.8,0.8c0.4,0.5,0.6,1.2,0.6,2.1v5.1l1.5,0.4l-0.1,0.8h-4.6
			l0.1-0.7l1.4-0.4v-4.7c0-0.6-0.2-1.1-0.5-1.4c-0.3-0.3-0.8-0.5-1.3-0.5c-0.4,0-0.7,0.1-1.1,0.2c-0.4,0.2-0.7,0.4-0.9,0.6v5.7
			l1.5,0.4V222.1z"/>
		<path class="st1" d="M227.9,210.5l-1.5-0.5l0.1-0.8l2.8-0.2l0.2,0.2v4.2l-0.1,1.1h0.1c0.4-0.5,0.9-0.9,1.4-1.2s1-0.4,1.5-0.4
			c0.7,0,1.2,0.2,1.7,0.6c0.5,0.4,0.9,0.9,1.2,1.5c0.3,0.7,0.4,1.4,0.4,2.3c0,1-0.2,1.9-0.7,2.7s-1.1,1.3-1.8,1.7
			c-0.8,0.4-1.6,0.6-2.5,0.6c-0.5,0-1-0.1-1.5-0.2c-0.5-0.1-0.9-0.3-1.3-0.6L227.9,210.5L227.9,210.5z M229.5,215.2v5.3
			c0.2,0.2,0.5,0.4,0.9,0.5s0.8,0.2,1.3,0.2c0.4,0,0.8-0.1,1.1-0.4c0.3-0.2,0.6-0.6,0.8-1.1s0.3-1.1,0.3-1.8c0-0.6-0.1-1.2-0.2-1.7
			c-0.1-0.6-0.4-1-0.7-1.4s-0.8-0.6-1.3-0.6C230.9,214.2,230.1,214.6,229.5,215.2z"/>
		<path class="st1" d="M240.5,222.4c-0.7,0-1.3-0.2-1.9-0.5c-0.6-0.4-1.1-0.9-1.4-1.6c-0.4-0.7-0.5-1.6-0.5-2.5c0-1,0.2-1.8,0.6-2.5
			c0.4-0.7,0.9-1.3,1.6-1.7c0.6-0.4,1.3-0.6,2-0.6c0.5,0,1,0.1,1.4,0.4c0.4,0.2,0.7,0.6,1,1.1c0.2,0.5,0.4,1.1,0.4,1.8
			c0,0.2,0,0.4-0.1,0.6c0,0.3-0.1,0.5-0.1,0.7l-4.9,0.1c0,0.6,0.1,1.1,0.4,1.7c0.2,0.5,0.5,1,1,1.3c0.4,0.3,0.9,0.5,1.5,0.5
			c0.3,0,0.6,0,0.8,0s0.4-0.1,0.7-0.1c0.3-0.1,0.5-0.2,0.9-0.4l0.2,0.5c-0.4,0.4-0.9,0.8-1.5,1C241.8,222.2,241.2,222.4,240.5,222.4
			z M240.4,213.9c-0.3,0-0.6,0.1-0.8,0.3c-0.3,0.2-0.5,0.5-0.7,0.9s-0.3,0.9-0.3,1.6l3.2-0.2c0-0.1,0-0.2,0-0.3s0-0.3,0-0.4
			C241.8,214.5,241.3,213.9,240.4,213.9z"/>
		<path class="st1" d="M244.8,221.2l5-7.1h-3.4l-0.6,1.9l-0.8-0.1l0.1-2.7h6.8v0.8l-5.1,7.1h3.7l1-1.8l0.7,0.1l-0.4,2.7H245
			L244.8,221.2z"/>
		<path class="st1" d="M252.9,222.1l0.1-0.8l1.5-0.4v-6.3L253,214l0.1-0.8l2.9-0.2l0.3,0.3v7.6l1.6,0.4l-0.1,0.8H252.9z
			 M255.3,211.2c-0.2,0-0.4-0.1-0.6-0.2c-0.2-0.1-0.3-0.3-0.4-0.5c-0.1-0.2-0.2-0.4-0.2-0.6c0-0.3,0.1-0.6,0.4-0.8
			c0.2-0.2,0.5-0.3,0.9-0.3c0.3,0,0.6,0.1,0.9,0.3c0.2,0.2,0.4,0.5,0.4,0.8c0,0.2-0.1,0.4-0.2,0.6c-0.1,0.2-0.3,0.3-0.5,0.5
			C255.7,211.1,255.5,211.2,255.3,211.2z"/>
		<path class="st1" d="M262,222.4c-0.7,0-1.3-0.2-1.9-0.5c-0.6-0.4-1.1-0.9-1.4-1.6c-0.4-0.7-0.5-1.6-0.5-2.5c0-1,0.2-1.8,0.6-2.5
			s0.9-1.3,1.6-1.7s1.3-0.6,2-0.6c0.5,0,1,0.1,1.4,0.4c0.4,0.2,0.7,0.6,1,1.1c0.2,0.5,0.4,1.1,0.4,1.8c0,0.2,0,0.4-0.1,0.6
			c0,0.3-0.1,0.5-0.1,0.7l-4.9,0.1c0,0.6,0.1,1.1,0.4,1.7c0.2,0.5,0.5,1,1,1.3c0.4,0.3,0.9,0.5,1.5,0.5c0.3,0,0.6,0,0.8,0
			c0.2,0,0.4-0.1,0.7-0.1c0.3-0.1,0.5-0.2,0.9-0.4l0.2,0.5c-0.4,0.4-0.9,0.8-1.5,1C263.3,222.2,262.7,222.4,262,222.4z M261.9,213.9
			c-0.3,0-0.6,0.1-0.8,0.3c-0.3,0.2-0.5,0.5-0.7,0.9s-0.3,0.9-0.3,1.6l3.2-0.2c0-0.1,0-0.2,0-0.3s0-0.3,0-0.4
			C263.3,214.5,262.8,213.9,261.9,213.9z"/>
		<path class="st1" d="M270.8,222.1h-4.7l0.1-0.8l1.6-0.4v-10.5l-1.6-0.6l0.1-0.8l2.9-0.2l0.3,0.2v4.3l-0.2,1.1h0.1
			c1-1.1,2-1.6,3-1.6c0.8,0,1.4,0.2,1.8,0.7c0.4,0.4,0.6,1.2,0.6,2.4v4.9l1.5,0.4l-0.1,0.8h-4.6l0.1-0.8l1.4-0.4v-4.7
			c0-0.7-0.2-1.1-0.5-1.4c-0.3-0.3-0.8-0.4-1.2-0.4c-0.3,0-0.7,0.1-1,0.2c-0.3,0.1-0.7,0.4-1,0.7v5.7l1.5,0.4L270.8,222.1z"/>
		<path class="st1" d="M277.5,214.3h-1.3v-0.6c0.4-0.3,0.8-0.8,1.3-1.3c0.4-0.5,0.9-1,1.2-1.5h0.5v2.4h2.9l-0.1,0.9h-2.8v4.5
			c0,0.5,0.1,0.9,0.2,1.2s0.3,0.5,0.5,0.6s0.5,0.2,0.9,0.2c0.2,0,0.4,0,0.7-0.1c0.2-0.1,0.4-0.2,0.6-0.3s0.2-0.2,0.2-0.2l0.2,0.6
			c-0.3,0.5-0.7,0.8-1.2,1.1s-1,0.4-1.6,0.4c-0.7,0-1.2-0.2-1.6-0.6c-0.4-0.4-0.6-1.2-0.6-2.2L277.5,214.3z"/>
		<path class="st1" d="M289.5,222.4c-0.6,0-1.1-0.1-1.5-0.2c-0.4-0.1-0.8-0.3-1-0.6c-0.2-0.2-0.4-0.5-0.4-0.8c0-0.4,0.1-0.7,0.3-1
			c0.2-0.3,0.5-0.4,0.9-0.4c0.2,0.7,0.5,1.2,0.9,1.5s0.7,0.5,1.2,0.5c0.4,0,0.7-0.1,1-0.2c0.3-0.2,0.4-0.4,0.4-0.8
			c0-0.2-0.1-0.4-0.2-0.6c-0.1-0.2-0.3-0.4-0.6-0.5c-0.2-0.2-0.5-0.3-1-0.6c-0.6-0.3-1-0.6-1.4-0.9c-0.4-0.3-0.6-0.6-0.9-0.9
			c-0.2-0.4-0.4-0.8-0.4-1.3c0-0.4,0.1-0.8,0.3-1.3c0.2-0.4,0.6-0.8,1-1c0.5-0.3,1-0.4,1.7-0.4c0.5,0,0.9,0.1,1.3,0.2
			c0.4,0.2,0.7,0.4,0.9,0.7c0.2,0.3,0.3,0.6,0.3,0.9c0,0.4-0.1,0.7-0.4,0.9s-0.6,0.4-1,0.4c-0.1-0.8-0.3-1.4-0.6-1.7
			c-0.3-0.4-0.6-0.6-1-0.6c-0.3,0-0.6,0.1-0.8,0.4c-0.2,0.2-0.3,0.5-0.3,0.9c0,0.3,0.1,0.5,0.3,0.7c0.2,0.2,0.4,0.4,0.6,0.6
			c0.3,0.2,0.6,0.4,1,0.6c0.5,0.3,1,0.6,1.3,0.8s0.6,0.5,0.9,0.9c0.2,0.4,0.4,0.8,0.4,1.2c0,0.5-0.1,0.9-0.4,1.3
			c-0.3,0.4-0.7,0.7-1.2,0.9C290.6,222.3,290.1,222.4,289.5,222.4z"/>
		<path class="st1" d="M293.3,222.1l0.1-0.8l1.5-0.4v-6.3l-1.5-0.6l0.1-0.8l2.9-0.2l0.3,0.3v7.6l1.6,0.4l-0.1,0.8H293.3z
			 M295.8,211.2c-0.2,0-0.4-0.1-0.6-0.2c-0.2-0.1-0.3-0.3-0.4-0.5s-0.2-0.4-0.2-0.6c0-0.3,0.1-0.6,0.4-0.8s0.5-0.3,0.9-0.3
			c0.3,0,0.6,0.1,0.9,0.3c0.2,0.2,0.4,0.5,0.4,0.8c0,0.2-0.1,0.4-0.2,0.6c-0.1,0.2-0.3,0.3-0.5,0.5
			C296.2,211.1,296,211.2,295.8,211.2z"/>
		<path class="st1" d="M302.6,222.4c-0.8,0-1.5-0.2-2.1-0.6c-0.6-0.4-1.1-1-1.4-1.7s-0.5-1.4-0.5-2.3c0-1,0.2-1.8,0.6-2.6
			s0.9-1.3,1.6-1.7s1.4-0.6,2.1-0.6c0.5,0,1,0.1,1.4,0.2c0.4,0.1,0.6,0.3,0.8,0.6c0.2,0.2,0.3,0.5,0.3,0.8s-0.1,0.6-0.3,0.7
			c-0.2,0.2-0.5,0.3-1,0.3c-0.2-0.5-0.4-0.9-0.7-1.2c-0.2-0.3-0.6-0.5-1-0.5s-0.8,0.1-1.1,0.4c-0.3,0.3-0.5,0.6-0.7,1.1
			s-0.2,1-0.2,1.6s0.1,1.3,0.3,1.9c0.2,0.7,0.6,1.2,1,1.7c0.5,0.4,1,0.7,1.7,0.7c0.5,0,0.8-0.1,1.1-0.2c0.3-0.1,0.6-0.3,0.9-0.5
			l0.3,0.6c-0.3,0.3-0.7,0.6-1.3,0.9C303.9,222.2,303.2,222.4,302.6,222.4z"/>
		<path class="st1" d="M311.1,222.1h-4.7l0.1-0.8l1.6-0.4v-10.5l-1.6-0.6l0.1-0.8l2.9-0.2l0.3,0.2v4.3l-0.2,1.1h0.1
			c1-1.1,2-1.6,3-1.6c0.8,0,1.4,0.2,1.8,0.7c0.4,0.4,0.6,1.2,0.6,2.4v4.9l1.5,0.4l-0.1,0.8H312l0.1-0.8l1.4-0.4v-4.7
			c0-0.7-0.2-1.1-0.5-1.4c-0.3-0.3-0.8-0.4-1.2-0.4c-0.3,0-0.7,0.1-1,0.2c-0.3,0.1-0.7,0.4-1,0.7v5.7l1.5,0.4L311.1,222.1z"/>
		<path class="st1" d="M43.6,247.7h-4.7L39,247l1.5-0.4v-6.2l-1.6-0.5l0.1-0.8l3-0.4l0.2,0.2l-0.2,1.3h0.1c0.4-0.5,0.8-0.8,1.4-1.2
			c0.5-0.3,1.1-0.5,1.7-0.5c0.8,0,1.4,0.3,1.8,0.8c0.4,0.5,0.6,1.2,0.6,2.1v5.1l1.5,0.4l-0.1,0.8h-4.6l0.1-0.7l1.4-0.4v-4.7
			c0-0.6-0.2-1.1-0.5-1.4c-0.3-0.3-0.8-0.5-1.3-0.5c-0.4,0-0.7,0.1-1.1,0.2c-0.4,0.2-0.7,0.4-0.9,0.6v5.7l1.5,0.4L43.6,247.7z"/>
		<path class="st1" d="M49.9,247.7l0.1-0.8l1.5-0.4v-6.3l-1.5-0.6l0.1-0.8l2.9-0.2l0.3,0.3v7.6l1.6,0.4l-0.1,0.8H49.9z M52.3,236.8
			c-0.2,0-0.4-0.1-0.6-0.2c-0.2-0.1-0.3-0.3-0.4-0.5c-0.1-0.2-0.2-0.4-0.2-0.6c0-0.3,0.1-0.6,0.4-0.8c0.2-0.2,0.5-0.3,0.9-0.3
			c0.3,0,0.6,0.1,0.9,0.3c0.2,0.2,0.4,0.5,0.4,0.8c0,0.2-0.1,0.4-0.2,0.6c-0.1,0.2-0.3,0.3-0.5,0.5
			C52.7,236.7,52.5,236.8,52.3,236.8z"/>
		<path class="st1" d="M59.2,248c-0.8,0-1.5-0.2-2.1-0.6c-0.6-0.4-1.1-1-1.4-1.7c-0.3-0.7-0.5-1.4-0.5-2.3c0-1,0.2-1.8,0.6-2.6
			c0.4-0.8,0.9-1.3,1.6-1.7c0.7-0.4,1.4-0.6,2.1-0.6c0.5,0,1,0.1,1.4,0.2c0.4,0.1,0.6,0.3,0.8,0.6c0.2,0.2,0.3,0.5,0.3,0.8
			s-0.1,0.6-0.3,0.7c-0.2,0.2-0.5,0.3-1,0.3c-0.2-0.5-0.4-0.9-0.7-1.2c-0.2-0.3-0.6-0.5-1-0.5s-0.8,0.1-1.1,0.4
			c-0.3,0.3-0.5,0.6-0.7,1.1s-0.2,1-0.2,1.6s0.1,1.3,0.3,1.9c0.2,0.7,0.6,1.2,1,1.7c0.5,0.4,1,0.7,1.7,0.7c0.5,0,0.8-0.1,1.1-0.2
			c0.3-0.1,0.6-0.3,0.9-0.5l0.3,0.6c-0.3,0.3-0.7,0.6-1.3,0.9C60.4,247.9,59.8,248,59.2,248z"/>
		<path class="st1" d="M67.7,247.7H63l0.1-0.8l1.6-0.4V236l-1.6-0.6l0.1-0.8l2.9-0.2l0.3,0.2v4.3l-0.2,1.1h0.1c1-1.1,2-1.6,3-1.6
			c0.8,0,1.4,0.2,1.8,0.7c0.4,0.4,0.6,1.2,0.6,2.4v4.9l1.5,0.4l-0.1,0.8h-4.6l0.1-0.8l1.4-0.4v-4.7c0-0.7-0.2-1.1-0.5-1.4
			c-0.3-0.3-0.8-0.4-1.2-0.4c-0.3,0-0.7,0.1-1,0.2c-0.3,0.1-0.7,0.4-1,0.7v5.7l1.5,0.4L67.7,247.7z"/>
		<path class="st1" d="M74.4,239.9h-1.3v-0.6c0.4-0.3,0.8-0.8,1.3-1.3c0.4-0.5,0.9-1,1.2-1.5h0.5v2.4H79l-0.1,0.9h-2.8v4.5
			c0,0.5,0.1,0.9,0.2,1.2s0.3,0.5,0.5,0.6s0.5,0.2,0.9,0.2c0.2,0,0.4,0,0.7-0.1c0.2-0.1,0.4-0.2,0.6-0.3s0.2-0.2,0.2-0.2l0.2,0.6
			c-0.3,0.5-0.7,0.8-1.2,1.1s-1,0.4-1.6,0.4c-0.7,0-1.2-0.2-1.6-0.6c-0.4-0.4-0.6-1.2-0.6-2.2L74.4,239.9z"/>
		<path class="st1" d="M85.4,247.9c-0.4,0-0.7-0.1-1-0.2c-0.3-0.2-0.5-0.4-0.7-0.7s-0.3-0.6-0.3-1c0-0.5,0.2-1,0.5-1.5
			s0.9-0.9,1.6-1.2s1.6-0.5,2.6-0.6v-0.6c0-0.8-0.1-1.4-0.4-2c-0.3-0.5-0.7-0.8-1.4-0.8c-0.3,0-0.6,0.1-0.7,0.2
			c-0.1,0.1-0.2,0.3-0.3,0.6c0,0.3-0.1,0.7-0.2,1.4c-0.4,0-0.7-0.1-1-0.2c-0.3-0.1-0.4-0.4-0.4-0.9c0-0.4,0.2-0.7,0.6-1
			s0.8-0.6,1.4-0.8s1.1-0.3,1.5-0.3c0.9,0,1.5,0.2,1.9,0.7s0.6,1.3,0.6,2.4v3.7c0,0.3,0,0.6,0.1,0.7c0.1,0.2,0.2,0.3,0.3,0.4
			c0.2,0.1,0.4,0.2,0.7,0.2l0.5,0.1l-0.1,0.9c-0.1,0-0.3,0-0.5,0.1c-0.3,0.1-0.6,0.1-0.9,0.1c-0.4,0-0.7-0.1-0.9-0.2
			c-0.2-0.1-0.4-0.3-0.5-0.5s-0.2-0.4-0.2-0.6v-0.2h-0.1c-0.2,0.4-0.5,0.7-1,1.1C86.8,247.8,86.2,247.9,85.4,247.9z M88.1,243.3
			c-1.1,0.2-1.8,0.5-2.3,0.9c-0.4,0.4-0.7,0.8-0.7,1.3c0,0.2,0,0.4,0.1,0.5c0.1,0.2,0.2,0.3,0.4,0.5c0.2,0.1,0.4,0.2,0.6,0.2
			c0.3,0,0.7-0.1,1-0.3s0.6-0.4,0.8-0.6L88.1,243.3L88.1,243.3z"/>
		<path class="st1" d="M92.6,240.3l-1.4-0.6l0.1-0.8l2.7-0.2l0.3,0.2v5.5c0,1.4,0.5,2.1,1.6,2.1c0.4,0,0.8-0.1,1.1-0.2
			c0.3-0.1,0.6-0.3,0.8-0.6v-5.4l-1.6-0.4l0.1-0.9l3-0.3l0.2,0.2v6.6c0,0.3,0,0.6,0.1,0.7c0.1,0.2,0.2,0.3,0.3,0.4
			c0.1,0.1,0.4,0.1,0.6,0.2l0.5,0.1l-0.1,0.8c-0.3,0.1-0.6,0.1-0.8,0.2s-0.5,0-0.8,0c-0.5,0-0.9-0.1-1.1-0.4
			c-0.3-0.3-0.4-0.6-0.4-1.1v-0.1h-0.1c-0.7,1-1.7,1.6-2.9,1.6c-0.7,0-1.3-0.2-1.7-0.7c-0.4-0.5-0.6-1.2-0.6-2.3v-4.6H92.6z"/>
		<path class="st1" d="M107.5,247.7h-5.8l0.1-0.7l1.5-0.4v-6.8h-1.5l0.1-0.7l1.4-0.2c0.1-1,0.4-1.8,0.8-2.5s0.9-1.2,1.4-1.6
			c0.6-0.4,1.1-0.5,1.6-0.5c0.6,0,1,0.1,1.4,0.3c0.3,0.2,0.5,0.5,0.5,0.9c0,0.2-0.1,0.5-0.3,0.7s-0.4,0.4-0.6,0.5
			c-0.3-0.3-0.6-0.6-0.9-0.9c-0.3-0.3-0.6-0.4-0.9-0.4c-0.4,0-0.7,0.2-1,0.6c-0.2,0.4-0.3,1-0.4,2v1.1h2.6l-0.1,0.9h-2.5v6.8
			l2.5,0.4L107.5,247.7z"/>
		<path class="st1" d="M115.8,247.9c-0.6,0-1.2-0.2-1.7-0.5s-0.9-0.8-1.2-1.5c-0.3-0.6-0.4-1.4-0.4-2.3c0-0.9,0.2-1.8,0.7-2.6
			c0.4-0.8,1-1.4,1.7-1.8c0.7-0.4,1.4-0.7,2.1-0.7c0.3,0,0.7,0,1,0.1s0.6,0.2,0.8,0.3h0.1l-0.1-1.3V236l-1.5-0.6l0.1-0.8l2.8-0.2
			l0.2,0.2v10.8c0,0.3,0,0.6,0.1,0.8s0.2,0.3,0.3,0.3c0.1,0.1,0.4,0.1,0.6,0.2l0.5,0.1l-0.1,0.8c-0.3,0.1-0.6,0.1-0.7,0.2
			c-0.2,0-0.4,0-0.7,0c-0.5,0-0.9-0.1-1.1-0.4c-0.3-0.3-0.4-0.6-0.4-1.1v-0.1h-0.1c-0.3,0.5-0.7,0.8-1.2,1.1
			C117,247.8,116.5,247.9,115.8,247.9z M116.5,239.5c-0.8,0-1.3,0.3-1.7,0.9c-0.3,0.6-0.5,1.5-0.5,2.5c0,0.8,0.1,1.4,0.3,2
			c0.2,0.5,0.5,1,0.8,1.2c0.3,0.3,0.7,0.4,1.2,0.4c0.4,0,0.8-0.1,1.2-0.3c0.4-0.2,0.7-0.4,0.9-0.6v-4.8c-0.3-0.4-0.6-0.8-1-1
			C117.2,239.7,116.9,239.5,116.5,239.5z"/>
		<path class="st1" d="M124.6,247.9c-0.4,0-0.7-0.1-1-0.2c-0.3-0.2-0.5-0.4-0.7-0.7s-0.3-0.6-0.3-1c0-0.5,0.2-1,0.5-1.5
			s0.9-0.9,1.6-1.2s1.6-0.5,2.6-0.6v-0.6c0-0.8-0.1-1.4-0.4-2c-0.3-0.5-0.7-0.8-1.4-0.8c-0.3,0-0.6,0.1-0.7,0.2
			c-0.1,0.1-0.2,0.3-0.3,0.6c0,0.3-0.1,0.7-0.2,1.4c-0.4,0-0.7-0.1-1-0.2c-0.3-0.1-0.4-0.4-0.4-0.9c0-0.4,0.2-0.7,0.6-1
			s0.8-0.6,1.4-0.8s1.1-0.3,1.5-0.3c0.9,0,1.5,0.2,1.9,0.7s0.6,1.3,0.6,2.4v3.7c0,0.3,0,0.6,0.1,0.7c0.1,0.2,0.2,0.3,0.3,0.4
			c0.2,0.1,0.4,0.2,0.7,0.2l0.5,0.1l-0.1,0.9c-0.1,0-0.3,0-0.5,0.1c-0.3,0.1-0.6,0.1-0.9,0.1c-0.4,0-0.7-0.1-0.9-0.2
			c-0.2-0.1-0.4-0.3-0.5-0.5s-0.2-0.4-0.2-0.6v-0.2h-0.1c-0.2,0.4-0.5,0.7-1,1.1C126,247.8,125.4,247.9,124.6,247.9z M127.3,243.3
			c-1.1,0.2-1.8,0.5-2.3,0.9c-0.4,0.4-0.7,0.8-0.7,1.3c0,0.2,0,0.4,0.1,0.5c0.1,0.2,0.2,0.3,0.4,0.5c0.2,0.1,0.4,0.2,0.6,0.2
			c0.3,0,0.7-0.1,1-0.3s0.6-0.4,0.8-0.6L127.3,243.3L127.3,243.3z"/>
		<path class="st1" d="M134.3,248c-0.6,0-1.1-0.1-1.5-0.2c-0.4-0.1-0.8-0.3-1-0.6s-0.4-0.5-0.4-0.8c0-0.4,0.1-0.7,0.3-1
			s0.5-0.4,0.9-0.4c0.2,0.7,0.5,1.2,0.9,1.5s0.7,0.5,1.2,0.5c0.4,0,0.7-0.1,1-0.2c0.3-0.2,0.4-0.4,0.4-0.8c0-0.2-0.1-0.4-0.2-0.6
			c-0.1-0.2-0.3-0.4-0.6-0.5c-0.2-0.2-0.5-0.3-1-0.6c-0.6-0.3-1-0.6-1.4-0.9c-0.4-0.3-0.6-0.6-0.9-0.9c-0.2-0.4-0.4-0.8-0.4-1.3
			c0-0.4,0.1-0.8,0.3-1.3c0.2-0.4,0.6-0.8,1-1s1-0.4,1.7-0.4c0.5,0,0.9,0.1,1.3,0.2c0.4,0.2,0.7,0.4,0.9,0.7s0.3,0.6,0.3,0.9
			c0,0.4-0.1,0.7-0.4,0.9c-0.3,0.2-0.6,0.4-1,0.4c-0.1-0.8-0.3-1.4-0.6-1.7c-0.3-0.4-0.6-0.6-1-0.6c-0.3,0-0.6,0.1-0.8,0.4
			c-0.2,0.2-0.3,0.5-0.3,0.9c0,0.3,0.1,0.5,0.3,0.7s0.4,0.4,0.6,0.6c0.3,0.2,0.6,0.4,1,0.6c0.5,0.3,1,0.6,1.3,0.8s0.6,0.5,0.9,0.9
			c0.2,0.4,0.4,0.8,0.4,1.2c0,0.5-0.1,0.9-0.4,1.3c-0.3,0.4-0.7,0.7-1.2,0.9C135.4,247.9,134.9,248,134.3,248z"/>
		<path class="st1" d="M141.4,235.8l0.1-0.8h5.2l-0.2,0.8l-1.7,0.4l2.5,8.8l2.9-9.4l1.8-0.3l2.5,9.5l2.7-8.6l-1.8-0.4l0.1-0.8h4.6
			l-0.1,0.8l-1.3,0.4l-3.7,11.5l-1.6,0.3l-2.7-9.9l-2.9,9.7l-1.7,0.3l-3.3-11.7L141.4,235.8z"/>
		<path class="st1" d="M161.2,247.9c-0.4,0-0.7-0.1-1-0.2c-0.3-0.2-0.5-0.4-0.7-0.7s-0.3-0.6-0.3-1c0-0.5,0.2-1,0.5-1.5
			s0.9-0.9,1.6-1.2c0.7-0.3,1.6-0.5,2.6-0.6v-0.6c0-0.8-0.1-1.4-0.4-2c-0.3-0.5-0.7-0.8-1.4-0.8c-0.3,0-0.6,0.1-0.7,0.2
			c-0.1,0.1-0.2,0.3-0.3,0.6c0,0.3-0.1,0.7-0.2,1.4c-0.4,0-0.7-0.1-1-0.2c-0.3-0.1-0.4-0.4-0.4-0.9c0-0.4,0.2-0.7,0.6-1
			c0.4-0.3,0.8-0.6,1.4-0.8c0.6-0.2,1.1-0.3,1.5-0.3c0.9,0,1.5,0.2,1.9,0.7s0.6,1.3,0.6,2.4v3.7c0,0.3,0,0.6,0.1,0.7
			c0.1,0.2,0.2,0.3,0.3,0.4c0.2,0.1,0.4,0.2,0.7,0.2l0.5,0.1l-0.1,0.9c-0.1,0-0.3,0-0.5,0.1c-0.3,0.1-0.6,0.1-0.9,0.1
			c-0.4,0-0.7-0.1-0.9-0.2c-0.2-0.1-0.4-0.3-0.5-0.5s-0.2-0.4-0.2-0.6v-0.2h0c-0.2,0.4-0.5,0.7-1,1.1
			C162.6,247.8,162,247.9,161.2,247.9z M163.9,243.3c-1.1,0.2-1.8,0.5-2.3,0.9c-0.4,0.4-0.7,0.8-0.7,1.3c0,0.2,0,0.4,0.1,0.5
			c0.1,0.2,0.2,0.3,0.4,0.5c0.2,0.1,0.4,0.2,0.6,0.2c0.3,0,0.7-0.1,1-0.3s0.6-0.4,0.8-0.6L163.9,243.3L163.9,243.3z"/>
		<path class="st1" d="M170.9,248c-0.6,0-1.1-0.1-1.5-0.2c-0.4-0.1-0.8-0.3-1-0.6s-0.4-0.5-0.4-0.8c0-0.4,0.1-0.7,0.3-1
			s0.5-0.4,0.9-0.4c0.2,0.7,0.5,1.2,0.9,1.5s0.7,0.5,1.2,0.5c0.4,0,0.7-0.1,1-0.2c0.3-0.2,0.4-0.4,0.4-0.8c0-0.2-0.1-0.4-0.2-0.6
			c-0.1-0.2-0.3-0.4-0.6-0.5c-0.2-0.2-0.5-0.3-1-0.6c-0.6-0.3-1-0.6-1.4-0.9c-0.4-0.3-0.6-0.6-0.9-0.9c-0.2-0.4-0.4-0.8-0.4-1.3
			c0-0.4,0.1-0.8,0.3-1.3c0.2-0.4,0.6-0.8,1-1s1-0.4,1.7-0.4c0.5,0,0.9,0.1,1.3,0.2c0.4,0.2,0.7,0.4,0.9,0.7s0.3,0.6,0.3,0.9
			c0,0.4-0.1,0.7-0.4,0.9c-0.3,0.2-0.6,0.4-1,0.4c-0.1-0.8-0.3-1.4-0.6-1.7c-0.3-0.4-0.6-0.6-1-0.6c-0.3,0-0.6,0.1-0.8,0.4
			c-0.2,0.2-0.3,0.5-0.3,0.9c0,0.3,0.1,0.5,0.3,0.7s0.4,0.4,0.6,0.6c0.3,0.2,0.6,0.4,1,0.6c0.5,0.3,1,0.6,1.3,0.8s0.6,0.5,0.9,0.9
			c0.2,0.4,0.4,0.8,0.4,1.2c0,0.5-0.1,0.9-0.4,1.3c-0.3,0.4-0.7,0.7-1.2,0.9C172,247.9,171.5,248,170.9,248z"/>
		<path class="st1" d="M178,248c-0.6,0-1.1-0.1-1.5-0.2c-0.4-0.1-0.8-0.3-1-0.6c-0.2-0.2-0.4-0.5-0.4-0.8c0-0.4,0.1-0.7,0.3-1
			s0.5-0.4,0.9-0.4c0.2,0.7,0.5,1.2,0.9,1.5s0.7,0.5,1.2,0.5c0.4,0,0.7-0.1,1-0.2c0.3-0.2,0.4-0.4,0.4-0.8c0-0.2-0.1-0.4-0.2-0.6
			c-0.1-0.2-0.3-0.4-0.6-0.5c-0.2-0.2-0.5-0.3-1-0.6c-0.6-0.3-1-0.6-1.4-0.9c-0.4-0.3-0.6-0.6-0.9-0.9c-0.2-0.4-0.4-0.8-0.4-1.3
			c0-0.4,0.1-0.8,0.3-1.3c0.2-0.4,0.6-0.8,1-1s1-0.4,1.7-0.4c0.5,0,0.9,0.1,1.3,0.2c0.4,0.2,0.7,0.4,0.9,0.7s0.3,0.6,0.3,0.9
			c0,0.4-0.1,0.7-0.4,0.9s-0.6,0.4-1,0.4c-0.1-0.8-0.3-1.4-0.6-1.7c-0.3-0.4-0.6-0.6-1-0.6c-0.3,0-0.6,0.1-0.8,0.4
			c-0.2,0.2-0.3,0.5-0.3,0.9c0,0.3,0.1,0.5,0.3,0.7s0.4,0.4,0.6,0.6c0.3,0.2,0.6,0.4,1,0.6c0.5,0.3,1,0.6,1.3,0.8s0.6,0.5,0.9,0.9
			c0.2,0.4,0.4,0.8,0.4,1.2c0,0.5-0.1,0.9-0.4,1.3c-0.3,0.4-0.7,0.7-1.2,0.9C179,247.9,178.5,248,178,248z"/>
		<path class="st1" d="M185.9,248c-0.7,0-1.3-0.2-1.9-0.5c-0.6-0.4-1.1-0.9-1.4-1.6c-0.4-0.7-0.5-1.6-0.5-2.5c0-1,0.2-1.8,0.6-2.5
			c0.4-0.7,0.9-1.3,1.6-1.7c0.6-0.4,1.3-0.6,2-0.6c0.5,0,1,0.1,1.4,0.4c0.4,0.2,0.7,0.6,1,1.1c0.2,0.5,0.4,1.1,0.4,1.8
			c0,0.2,0,0.4-0.1,0.6c0,0.3-0.1,0.5-0.1,0.7l-4.9,0.1c0,0.6,0.1,1.1,0.4,1.7c0.2,0.5,0.5,1,1,1.3c0.4,0.3,0.9,0.5,1.5,0.5
			c0.3,0,0.6,0,0.8,0s0.4-0.1,0.7-0.1c0.3-0.1,0.5-0.2,0.9-0.4l0.2,0.5c-0.4,0.4-0.9,0.8-1.5,1C187.1,247.9,186.5,248,185.9,248z
			 M185.7,239.5c-0.3,0-0.6,0.1-0.8,0.3c-0.3,0.2-0.5,0.5-0.7,0.9s-0.3,0.9-0.3,1.6l3.2-0.2c0-0.1,0-0.2,0-0.3s0-0.3,0-0.4
			C187.1,240.2,186.6,239.5,185.7,239.5z"/>
		<path class="st1" d="M195.7,247.7h-5.6l0.1-0.8l1.6-0.4v-6.3l-1.7-0.5l0.1-0.8l2.9-0.4l0.2,0.2l-0.2,2.3h0.2
			c0.2-0.6,0.4-1.1,0.7-1.5s0.6-0.7,0.9-0.9c0.3-0.2,0.6-0.3,0.9-0.3c0.3,0,0.6,0.1,0.8,0.3s0.3,0.5,0.3,0.8c0,0.4-0.2,0.8-0.6,1.1
			c-0.2-0.1-0.4-0.2-0.6-0.3c-0.2-0.1-0.4-0.1-0.6-0.1c-0.2,0-0.4,0.1-0.7,0.2c-0.2,0.2-0.5,0.4-0.7,0.7s-0.3,0.7-0.4,1.2v3.9
			l2.4,0.3L195.7,247.7z"/>
		<path class="st1" d="M197.3,250.9l-0.2-0.7c0.6-0.2,1.1-0.4,1.4-0.7c0.3-0.3,0.5-0.7,0.5-1s-0.1-0.5-0.3-0.8
			c-0.2-0.2-0.5-0.3-0.9-0.3c-0.1,0-0.2,0-0.3,0c-0.1-0.3-0.1-0.5-0.1-0.6c0-0.3,0.1-0.5,0.2-0.7c0.1-0.2,0.3-0.3,0.5-0.4
			c0.2-0.1,0.4-0.1,0.6-0.1c0.3,0,0.5,0.1,0.8,0.2c0.3,0.1,0.5,0.4,0.7,0.7s0.3,0.7,0.3,1.2c0,0.7-0.2,1.3-0.6,1.9
			C199.2,250.1,198.4,250.6,197.3,250.9z"/>
		<path class="st1" d="M207.9,248c-0.6,0-1.1-0.1-1.5-0.2c-0.4-0.1-0.8-0.3-1-0.6s-0.4-0.5-0.4-0.8c0-0.4,0.1-0.7,0.3-1
			s0.5-0.4,0.9-0.4c0.2,0.7,0.5,1.2,0.9,1.5s0.7,0.5,1.2,0.5c0.4,0,0.7-0.1,1-0.2c0.3-0.2,0.4-0.4,0.4-0.8c0-0.2-0.1-0.4-0.2-0.6
			c-0.1-0.2-0.3-0.4-0.6-0.5c-0.2-0.2-0.5-0.3-1-0.6c-0.6-0.3-1-0.6-1.4-0.9c-0.4-0.3-0.6-0.6-0.9-0.9c-0.2-0.4-0.4-0.8-0.4-1.3
			c0-0.4,0.1-0.8,0.3-1.3c0.2-0.4,0.6-0.8,1-1s1-0.4,1.7-0.4c0.5,0,0.9,0.1,1.3,0.2c0.4,0.2,0.7,0.4,0.9,0.7s0.3,0.6,0.3,0.9
			c0,0.4-0.1,0.7-0.4,0.9c-0.3,0.2-0.6,0.4-1,0.4c-0.1-0.8-0.3-1.4-0.6-1.7c-0.3-0.4-0.6-0.6-1-0.6c-0.3,0-0.6,0.1-0.8,0.4
			c-0.2,0.2-0.3,0.5-0.3,0.9c0,0.3,0.1,0.5,0.3,0.7s0.4,0.4,0.6,0.6c0.3,0.2,0.6,0.4,1,0.6c0.5,0.3,1,0.6,1.3,0.8s0.6,0.5,0.9,0.9
			c0.2,0.4,0.4,0.8,0.4,1.2c0,0.5-0.1,0.9-0.4,1.3c-0.3,0.4-0.7,0.7-1.2,0.9C208.9,247.9,208.4,248,207.9,248z"/>
		<path class="st1" d="M216.1,248c-0.9,0-1.6-0.2-2.3-0.6c-0.6-0.4-1.1-0.9-1.4-1.6c-0.3-0.7-0.5-1.5-0.5-2.4c0-1,0.2-1.9,0.6-2.6
			c0.4-0.7,1-1.3,1.6-1.7c0.7-0.4,1.4-0.6,2.2-0.6s1.5,0.2,2.1,0.6c0.6,0.4,1.1,0.9,1.4,1.7c0.3,0.7,0.5,1.5,0.5,2.5
			c0,0.9-0.2,1.7-0.6,2.5c-0.4,0.7-0.9,1.3-1.5,1.7C217.6,247.8,216.9,248,216.1,248z M215.9,239.6c-0.5,0-0.9,0.1-1.2,0.4
			c-0.3,0.3-0.6,0.7-0.7,1.1c-0.2,0.5-0.2,1-0.2,1.5c0,0.8,0.1,1.5,0.3,2.1c0.2,0.7,0.5,1.2,0.9,1.6c0.4,0.4,0.9,0.6,1.6,0.6
			c0.5,0,0.8-0.1,1.2-0.4c0.3-0.3,0.6-0.6,0.7-1.1c0.2-0.4,0.2-0.9,0.2-1.4c0-0.7-0.1-1.4-0.3-2.1c-0.2-0.7-0.5-1.2-0.9-1.7
			C217,239.8,216.5,239.6,215.9,239.6z"/>
		<path class="st1" d="M225.6,247.7h-4.7l0.1-0.7l1.5-0.4v-6.2l-1.6-0.5l0.1-0.8l3-0.4l0.2,0.2l-0.2,1.3h0.1
			c0.4-0.5,0.8-0.8,1.4-1.2c0.5-0.3,1.1-0.5,1.7-0.5c0.8,0,1.4,0.3,1.8,0.8c0.4,0.5,0.6,1.2,0.6,2.1v5.1l1.5,0.4l-0.1,0.8h-4.6
			l0.1-0.7l1.4-0.4v-4.7c0-0.6-0.2-1.1-0.5-1.4c-0.3-0.3-0.8-0.5-1.3-0.5c-0.4,0-0.7,0.1-1.1,0.2c-0.4,0.2-0.7,0.4-0.9,0.6v5.7
			l1.5,0.4V247.7z"/>
		<path class="st1" d="M234.8,247.9c-0.6,0-1.2-0.2-1.7-0.5s-0.9-0.8-1.2-1.5c-0.3-0.6-0.4-1.4-0.4-2.3c0-0.9,0.2-1.8,0.7-2.6
			c0.4-0.8,1-1.4,1.7-1.8c0.7-0.4,1.4-0.7,2.1-0.7c0.3,0,0.7,0,1,0.1s0.6,0.2,0.8,0.3h0.1l-0.1-1.3V236l-1.5-0.6l0.1-0.8l2.8-0.2
			l0.2,0.2v10.8c0,0.3,0,0.6,0.1,0.8s0.2,0.3,0.3,0.3c0.1,0.1,0.4,0.1,0.6,0.2l0.5,0.1l-0.1,0.8c-0.3,0.1-0.6,0.1-0.7,0.2
			c-0.2,0-0.4,0-0.7,0c-0.5,0-0.9-0.1-1.1-0.4c-0.3-0.3-0.4-0.6-0.4-1.1v-0.1h-0.1c-0.3,0.5-0.7,0.8-1.2,1.1
			S235.5,247.9,234.8,247.9z M235.5,239.5c-0.8,0-1.3,0.3-1.7,0.9s-0.5,1.5-0.5,2.5c0,0.8,0.1,1.4,0.3,2c0.2,0.5,0.5,1,0.8,1.2
			c0.3,0.3,0.7,0.4,1.2,0.4c0.4,0,0.8-0.1,1.2-0.3s0.7-0.4,0.9-0.6v-4.8c-0.3-0.4-0.6-0.8-1-1C236.2,239.7,235.8,239.5,235.5,239.5z
			"/>
		<path class="st1" d="M245,248c-0.7,0-1.3-0.2-1.9-0.5c-0.6-0.4-1.1-0.9-1.4-1.6c-0.4-0.7-0.5-1.6-0.5-2.5c0-1,0.2-1.8,0.6-2.5
			c0.4-0.7,0.9-1.3,1.6-1.7c0.6-0.4,1.3-0.6,2-0.6c0.5,0,1,0.1,1.4,0.4c0.4,0.2,0.7,0.6,1,1.1c0.2,0.5,0.4,1.1,0.4,1.8
			c0,0.2,0,0.4-0.1,0.6c0,0.3-0.1,0.5-0.1,0.7l-4.9,0.1c0,0.6,0.1,1.1,0.4,1.7c0.2,0.5,0.5,1,1,1.3c0.4,0.3,0.9,0.5,1.5,0.5
			c0.3,0,0.6,0,0.8,0s0.4-0.1,0.7-0.1c0.3-0.1,0.5-0.2,0.9-0.4l0.2,0.5c-0.4,0.4-0.9,0.8-1.5,1C246.2,247.9,245.6,248,245,248z
			 M244.8,239.5c-0.3,0-0.6,0.1-0.8,0.3c-0.3,0.2-0.5,0.5-0.7,0.9s-0.3,0.9-0.3,1.6l3.2-0.2c0-0.1,0-0.2,0-0.3s0-0.3,0-0.4
			C246.2,240.2,245.8,239.5,244.8,239.5z"/>
		<path class="st1" d="M254.8,247.7h-5.6l0.1-0.8l1.6-0.4v-6.3l-1.7-0.5l0.1-0.8l2.9-0.4l0.2,0.2l-0.2,2.3h0.2
			c0.2-0.6,0.4-1.1,0.7-1.5s0.6-0.7,0.9-0.9c0.3-0.2,0.6-0.3,0.9-0.3c0.3,0,0.6,0.1,0.8,0.3s0.3,0.5,0.3,0.8c0,0.4-0.2,0.8-0.6,1.1
			c-0.2-0.1-0.4-0.2-0.6-0.3c-0.2-0.1-0.4-0.1-0.6-0.1c-0.2,0-0.4,0.1-0.7,0.2c-0.2,0.2-0.5,0.4-0.7,0.7s-0.3,0.7-0.4,1.2v3.9
			l2.4,0.3L254.8,247.7z"/>
		<path class="st1" d="M261.5,247.7h-4.7l0.1-0.7l1.5-0.4v-6.2l-1.6-0.5l0.1-0.8l3-0.4l0.2,0.2l-0.2,1.3h0.1
			c0.4-0.5,0.8-0.8,1.4-1.2c0.5-0.3,1.1-0.5,1.7-0.5c0.8,0,1.4,0.3,1.8,0.8s0.6,1.2,0.6,2.1v5.1l1.5,0.4l-0.1,0.8h-4.6l0.1-0.7
			l1.4-0.4v-4.7c0-0.6-0.2-1.1-0.5-1.4c-0.3-0.3-0.8-0.5-1.3-0.5c-0.4,0-0.7,0.1-1.1,0.2c-0.4,0.2-0.7,0.4-0.9,0.6v5.7l1.5,0.4
			V247.7z"/>
		<path class="st1" d="M273.2,247.9c-0.4,0-0.7-0.1-1-0.2c-0.3-0.2-0.5-0.4-0.7-0.7s-0.3-0.6-0.3-1c0-0.5,0.2-1,0.5-1.5
			s0.9-0.9,1.6-1.2s1.6-0.5,2.6-0.6v-0.6c0-0.8-0.1-1.4-0.4-2c-0.3-0.5-0.7-0.8-1.4-0.8c-0.3,0-0.6,0.1-0.7,0.2
			c-0.1,0.1-0.2,0.3-0.3,0.6c0,0.3-0.1,0.7-0.2,1.4c-0.4,0-0.7-0.1-1-0.2c-0.3-0.1-0.4-0.4-0.4-0.9c0-0.4,0.2-0.7,0.6-1
			s0.8-0.6,1.4-0.8s1.1-0.3,1.5-0.3c0.9,0,1.5,0.2,1.9,0.7s0.6,1.3,0.6,2.4v3.7c0,0.3,0,0.6,0.1,0.7c0.1,0.2,0.2,0.3,0.3,0.4
			s0.4,0.2,0.7,0.2l0.5,0.1l-0.1,0.9c-0.1,0-0.3,0-0.5,0.1c-0.3,0.1-0.6,0.1-0.9,0.1c-0.4,0-0.7-0.1-0.9-0.2
			c-0.2-0.1-0.4-0.3-0.5-0.5s-0.2-0.4-0.2-0.6v-0.2h0c-0.2,0.4-0.5,0.7-1,1.1C274.6,247.8,274,247.9,273.2,247.9z M275.9,243.3
			c-1.1,0.2-1.8,0.5-2.3,0.9c-0.4,0.4-0.7,0.8-0.7,1.3c0,0.2,0,0.4,0.1,0.5c0.1,0.2,0.2,0.3,0.4,0.5c0.2,0.1,0.4,0.2,0.6,0.2
			c0.3,0,0.7-0.1,1-0.3s0.6-0.4,0.8-0.6v-2.5H275.9z"/>
		<path class="st1" d="M280.4,240.3l-1.4-0.6l0.1-0.8l2.7-0.2l0.3,0.2v5.5c0,1.4,0.5,2.1,1.6,2.1c0.4,0,0.8-0.1,1.1-0.2
			c0.3-0.1,0.6-0.3,0.8-0.6v-5.4l-1.6-0.4l0.1-0.9l3-0.3l0.2,0.2v6.6c0,0.3,0,0.6,0.1,0.7c0.1,0.2,0.2,0.3,0.3,0.4
			c0.1,0.1,0.4,0.1,0.6,0.2l0.5,0.1l-0.1,0.8c-0.3,0.1-0.6,0.1-0.8,0.2c-0.2,0-0.5,0-0.8,0c-0.5,0-0.9-0.1-1.1-0.4
			c-0.3-0.3-0.4-0.6-0.4-1.1v-0.1h-0.1c-0.7,1-1.7,1.6-2.9,1.6c-0.7,0-1.3-0.2-1.7-0.7c-0.4-0.5-0.6-1.2-0.6-2.3L280.4,240.3
			L280.4,240.3z"/>
		<path class="st1" d="M295.3,247.7h-5.8l0.1-0.7l1.5-0.4v-6.8h-1.5l0.1-0.7l1.4-0.2c0.1-1,0.4-1.8,0.8-2.5s0.9-1.2,1.4-1.6
			c0.6-0.4,1.1-0.5,1.6-0.5c0.6,0,1,0.1,1.4,0.3c0.3,0.2,0.5,0.5,0.5,0.9c0,0.2-0.1,0.5-0.3,0.7s-0.4,0.4-0.6,0.5
			c-0.3-0.3-0.6-0.6-0.9-0.9c-0.3-0.3-0.6-0.4-0.9-0.4c-0.4,0-0.7,0.2-1,0.6c-0.2,0.4-0.3,1-0.4,2v1.1h2.6l-0.1,0.9h-2.5v6.8
			l2.5,0.4L295.3,247.7z"/>
		<path class="st1" d="M42.4,273.6c-0.6,0-1.2-0.2-1.7-0.5s-0.9-0.8-1.2-1.5c-0.3-0.6-0.4-1.4-0.4-2.3s0.2-1.8,0.7-2.6
			c0.4-0.8,1-1.4,1.7-1.8s1.4-0.7,2.1-0.7c0.3,0,0.7,0,1,0.1s0.6,0.2,0.8,0.3h0.1l-0.1-1.3v-1.6l-1.5-0.6l0.1-0.8l2.8-0.2l0.2,0.2
			v10.8c0,0.3,0,0.6,0.1,0.8c0.1,0.2,0.2,0.3,0.3,0.3c0.1,0.1,0.4,0.1,0.6,0.2l0.5,0.1l-0.1,0.8c-0.3,0.1-0.6,0.1-0.7,0.2
			c-0.2,0-0.4,0-0.7,0c-0.5,0-0.9-0.1-1.1-0.4c-0.3-0.3-0.4-0.6-0.4-1.1l0,0h-0.1c-0.3,0.5-0.7,0.8-1.2,1.1
			C43.6,273.4,43,273.6,42.4,273.6z M43,265.2c-0.8,0-1.3,0.3-1.7,0.9s-0.5,1.5-0.5,2.5c0,0.8,0.1,1.4,0.3,2c0.2,0.5,0.5,1,0.8,1.2
			c0.3,0.3,0.7,0.4,1.2,0.4c0.4,0,0.8-0.1,1.2-0.3c0.4-0.2,0.7-0.4,0.9-0.6v-4.8c-0.3-0.4-0.6-0.8-1-1
			C43.8,265.3,43.4,265.2,43,265.2z"/>
		<path class="st1" d="M49.1,273.3l0.1-0.8l1.5-0.4v-6.3l-1.5-0.6l0.1-0.8l2.9-0.2l0.3,0.3v7.6l1.6,0.4l-0.1,0.8H49.1z M51.5,262.4
			c-0.2,0-0.4-0.1-0.6-0.2c-0.2-0.1-0.3-0.3-0.4-0.5c-0.1-0.2-0.2-0.4-0.2-0.6c0-0.3,0.1-0.6,0.4-0.8c0.2-0.2,0.5-0.3,0.9-0.3
			c0.3,0,0.6,0.1,0.9,0.3c0.2,0.2,0.4,0.5,0.4,0.8c0,0.2-0.1,0.4-0.2,0.6c-0.1,0.2-0.3,0.3-0.5,0.5C52,262.4,51.8,262.4,51.5,262.4z
			"/>
		<path class="st1" d="M58.2,273.7c-0.7,0-1.3-0.2-1.9-0.5c-0.6-0.4-1.1-0.9-1.4-1.6c-0.4-0.7-0.5-1.6-0.5-2.5c0-1,0.2-1.8,0.6-2.5
			c0.4-0.7,0.9-1.3,1.6-1.7c0.6-0.4,1.3-0.6,2-0.6c0.5,0,1,0.1,1.4,0.4c0.4,0.2,0.7,0.6,1,1.1c0.2,0.5,0.4,1.1,0.4,1.8
			c0,0.2,0,0.4-0.1,0.6c0,0.3-0.1,0.5-0.1,0.7l-4.9,0.1c0,0.6,0.1,1.1,0.4,1.7c0.2,0.5,0.5,1,1,1.3s0.9,0.5,1.5,0.5
			c0.3,0,0.6,0,0.8,0s0.4-0.1,0.7-0.1c0.3-0.1,0.5-0.2,0.9-0.4l0.2,0.5c-0.4,0.4-0.9,0.8-1.5,1C59.5,273.5,58.9,273.7,58.2,273.7z
			 M58.1,265.2c-0.3,0-0.6,0.1-0.8,0.3c-0.3,0.2-0.5,0.5-0.7,0.9s-0.3,0.9-0.3,1.6l3.2-0.2c0-0.1,0-0.2,0-0.3s0-0.3,0-0.4
			C59.5,265.8,59,265.2,58.1,265.2z"/>
		<path class="st1" d="M65.3,261.4l0.1-0.8h5.5l-0.1,0.8l-1.7,0.4l3.2,9l3.3-8.9l-1.9-0.4l0.1-0.8h4.6l-0.1,0.8l-1.3,0.4l-4.3,11.5
			l-1.5,0.3L66.9,262L65.3,261.4z"/>
		<path class="st1" d="M81.2,273.7c-0.7,0-1.3-0.2-1.9-0.5c-0.6-0.4-1.1-0.9-1.4-1.6c-0.4-0.7-0.5-1.6-0.5-2.5c0-1,0.2-1.8,0.6-2.5
			s0.9-1.3,1.6-1.7c0.6-0.4,1.3-0.6,2-0.6c0.5,0,1,0.1,1.4,0.4c0.4,0.2,0.7,0.6,1,1.1c0.2,0.5,0.4,1.1,0.4,1.8c0,0.2,0,0.4-0.1,0.6
			c0,0.3-0.1,0.5-0.1,0.7l-4.9,0.1c0,0.6,0.1,1.1,0.4,1.7c0.2,0.5,0.5,1,1,1.3c0.4,0.3,0.9,0.5,1.5,0.5c0.3,0,0.6,0,0.8,0
			c0.2,0,0.4-0.1,0.7-0.1c0.3-0.1,0.5-0.2,0.9-0.4l0.2,0.5c-0.4,0.4-0.9,0.8-1.5,1C82.4,273.5,81.8,273.7,81.2,273.7z M81,265.2
			c-0.3,0-0.6,0.1-0.8,0.3c-0.3,0.2-0.5,0.5-0.7,0.9s-0.3,0.9-0.3,1.6l3.2-0.2c0-0.1,0-0.2,0-0.3s0-0.3,0-0.4
			C82.4,265.8,82,265.2,81,265.2z"/>
		<path class="st1" d="M91,273.3h-5.6l0.1-0.8l1.6-0.4v-6.3l-1.7-0.5l0.1-0.8l2.9-0.4l0.2,0.2l-0.2,2.3h0.2c0.2-0.6,0.4-1.1,0.7-1.5
			c0.3-0.4,0.6-0.7,0.9-0.9c0.3-0.2,0.6-0.3,0.9-0.3s0.6,0.1,0.8,0.3c0.2,0.2,0.3,0.5,0.3,0.8c0,0.4-0.2,0.8-0.6,1.1
			c-0.2-0.1-0.4-0.2-0.6-0.3c-0.2-0.1-0.4-0.1-0.6-0.1s-0.4,0.1-0.7,0.2s-0.5,0.4-0.7,0.7c-0.2,0.3-0.3,0.7-0.4,1.2v3.9L91,272
			L91,273.3z"/>
		<path class="st1" d="M97.7,277.1H93l0.1-0.8l1.6-0.4v-10l-1.6-0.5l0.1-0.8l3-0.4l0.2,0.2l-0.1,1.3h0.1c0.3-0.5,0.7-0.8,1.2-1.2
			c0.5-0.3,1-0.5,1.6-0.5s1.1,0.2,1.6,0.5s0.8,0.8,1.1,1.5s0.4,1.5,0.4,2.5s-0.2,1.8-0.6,2.6c-0.4,0.8-0.9,1.3-1.6,1.8
			c-0.7,0.4-1.5,0.6-2.3,0.6c-0.3,0-0.6,0-1-0.1l-0.1-1.2c0.2,0.1,0.4,0.1,0.7,0.2c0.2,0,0.5,0,0.9,0c0.7,0,1.2-0.3,1.6-0.9
			s0.6-1.4,0.6-2.4c0-1.2-0.2-2.1-0.5-2.8c-0.3-0.6-0.8-0.9-1.5-0.9c-0.4,0-0.8,0.1-1.1,0.3c-0.4,0.2-0.7,0.4-1,0.7v9.4l1.6,0.4
			L97.7,277.1z"/>
		<path class="st1" d="M104.9,273.6c-0.4,0-0.7-0.1-1-0.2c-0.3-0.2-0.5-0.4-0.7-0.7c-0.2-0.3-0.3-0.6-0.3-1c0-0.5,0.2-1,0.5-1.5
			s0.9-0.9,1.6-1.2c0.7-0.3,1.6-0.5,2.6-0.6v-0.6c0-0.8-0.1-1.4-0.4-2c-0.3-0.5-0.7-0.8-1.4-0.8c-0.3,0-0.6,0.1-0.7,0.2
			s-0.2,0.3-0.3,0.6c0,0.3-0.1,0.7-0.2,1.4c-0.4,0-0.7-0.1-1-0.2s-0.4-0.4-0.4-0.9c0-0.4,0.2-0.7,0.6-1s0.8-0.6,1.4-0.8
			c0.6-0.2,1.1-0.3,1.5-0.3c0.9,0,1.5,0.2,1.9,0.7s0.6,1.3,0.6,2.4v3.7c0,0.3,0,0.6,0.1,0.7c0.1,0.2,0.2,0.3,0.3,0.4
			c0.2,0.1,0.4,0.2,0.7,0.2l0.5,0.1l-0.1,0.9c-0.1,0-0.3,0-0.5,0.1c-0.3,0.1-0.6,0.1-0.9,0.1c-0.4,0-0.7-0.1-0.9-0.2
			c-0.2-0.1-0.4-0.3-0.5-0.5s-0.2-0.4-0.2-0.6v0h-0.1c-0.2,0.4-0.5,0.7-1,1.1C106.3,273.4,105.7,273.6,104.9,273.6z M107.6,269
			c-1.1,0.2-1.8,0.5-2.3,0.9c-0.4,0.4-0.7,0.8-0.7,1.3c0,0.2,0,0.4,0.1,0.5c0.1,0.2,0.2,0.3,0.4,0.5c0.2,0.1,0.4,0.2,0.6,0.2
			c0.3,0,0.7-0.1,1-0.3c0.3-0.2,0.6-0.4,0.8-0.6L107.6,269L107.6,269z"/>
		<path class="st1" d="M111.4,273.3l0.1-0.8l1.6-0.4v-10.4l-1.6-0.5l0.1-0.8l2.9-0.2l0.3,0.3v11.7l1.6,0.4l-0.1,0.8h-4.9V273.3z
			 M116.1,270.4l-1.1-1.5v-0.2l2.6-3.3l-1.4-0.4l0.1-0.8h4.3l-0.1,0.8l-1.5,0.4l-2.4,3l0.8,1c0.1,0.2,0.4,0.5,0.7,0.9
			c0.4,0.5,0.7,0.9,1,1.2s0.5,0.5,0.7,0.7c0.3,0.2,0.6,0.3,0.9,0.3l0.4,0.1l-0.1,0.8c-0.5,0.1-0.9,0.2-1.2,0.2
			c-0.4,0-0.8-0.1-1.2-0.3s-0.7-0.5-1.1-0.9C117.2,271.9,116.8,271.3,116.1,270.4z"/>
		<path class="st1" d="M122.9,265.9l-1.4-0.6l0.1-0.8l2.7-0.2l0.3,0.2v5.5c0,1.4,0.5,2.1,1.6,2.1c0.4,0,0.8-0.1,1.1-0.2
			c0.3-0.1,0.6-0.3,0.8-0.6V266l-1.6-0.4l0.1-0.9l3-0.3l0.2,0.2v6.6c0,0.3,0,0.6,0.1,0.7c0.1,0.2,0.2,0.3,0.3,0.4s0.4,0.1,0.6,0.2
			l0.5,0.1l-0.1,0.8c-0.3,0.1-0.6,0.1-0.8,0.2c-0.2,0-0.5,0-0.8,0c-0.5,0-0.9-0.1-1.1-0.4s-0.4-0.6-0.4-1.1V272H128
			c-0.7,1-1.7,1.6-2.9,1.6c-0.7,0-1.3-0.2-1.7-0.7c-0.4-0.5-0.6-1.2-0.6-2.3v-4.7H122.9z"/>
		<path class="st1" d="M136.8,273.3h-4.7l0.1-0.7l1.5-0.4V266l-1.6-0.5l0.1-0.8l3-0.4l0.2,0.2l-0.2,1.3h0.1c0.4-0.5,0.8-0.8,1.4-1.2
			c0.5-0.3,1.1-0.5,1.7-0.5c0.8,0,1.4,0.3,1.8,0.8c0.4,0.5,0.6,1.2,0.6,2.1v5.1l1.5,0.4l-0.1,0.8h-4.6l0.1-0.7l1.4-0.4v-4.7
			c0-0.6-0.2-1.1-0.5-1.4s-0.8-0.5-1.3-0.5c-0.4,0-0.7,0.1-1.1,0.2c-0.4,0.2-0.7,0.4-0.9,0.6v5.7l1.5,0.4V273.3z"/>
		<path class="st1" d="M146.3,277.3c-1.1,0-1.9-0.2-2.6-0.5c-0.7-0.4-1-0.9-1-1.7c0-0.6,0.5-1.2,1.6-1.8v-0.1
			c-0.3-0.1-0.6-0.3-0.7-0.6c-0.2-0.2-0.3-0.5-0.3-0.8c0-0.2,0.1-0.4,0.3-0.6s0.4-0.4,0.7-0.6s0.5-0.3,0.8-0.4v-0.1
			c-0.2,0-0.4-0.2-0.7-0.4s-0.5-0.6-0.7-0.9c-0.2-0.4-0.3-0.8-0.3-1.2c0-0.5,0.2-1.1,0.5-1.5c0.3-0.5,0.8-0.9,1.3-1.2
			c0.5-0.3,1.1-0.4,1.6-0.4c0.8,0,1.5,0.2,2.1,0.6c0.3,0,0.7,0,1.1-0.1s0.8-0.1,1-0.1l0.2,0.2l-0.4,1.1h-0.2l-1.3-0.4v0.2
			c0.1,0.2,0.2,0.4,0.2,0.7c0.1,0.3,0.1,0.5,0.1,0.7c0,0.6-0.2,1.1-0.5,1.6c-0.4,0.5-0.8,0.8-1.3,1.1c-0.5,0.3-1.1,0.4-1.6,0.4
			c-0.2,0-0.4,0-0.5,0c-0.2,0-0.3,0-0.4-0.1c-0.3,0.4-0.5,0.7-0.5,0.9c0,0.2,0.1,0.4,0.4,0.5c0.3,0.1,0.7,0.2,1.5,0.2h1.4
			c0.8,0,1.5,0.2,2,0.5s0.8,0.8,0.8,1.6c0,0.6-0.2,1.1-0.7,1.7c-0.5,0.5-1,1-1.8,1.3C147.9,277.1,147.1,277.3,146.3,277.3z
			 M145,273.3c0,0,0,0-0.1,0.1s-0.2,0.2-0.3,0.4c-0.1,0.2-0.1,0.4-0.1,0.7c0,1.2,0.8,1.7,2.4,1.7c0.7,0,1.3-0.1,1.7-0.4
			s0.7-0.8,0.7-1.4c0-0.3-0.1-0.5-0.2-0.7c-0.2-0.1-0.4-0.2-0.8-0.3c-0.4-0.1-0.9-0.1-1.5-0.1L145,273.3L145,273.3z M146.5,265
			c-0.5,0-0.9,0.2-1.1,0.6c-0.3,0.4-0.4,0.9-0.4,1.6c0,0.4,0.1,0.8,0.3,1.2c0.2,0.4,0.4,0.6,0.6,0.8c0.3,0.2,0.5,0.3,0.8,0.3
			c0.5,0,0.8-0.2,1.1-0.5s0.4-0.8,0.4-1.5c0-0.4-0.1-0.8-0.2-1.2c-0.1-0.4-0.3-0.7-0.6-0.9C147.1,265.1,146.8,265,146.5,265z"/>
		<path class="st1" d="M152,276.5l-0.2-0.7c0.6-0.2,1.1-0.4,1.4-0.7c0.3-0.3,0.5-0.7,0.5-1s-0.1-0.5-0.3-0.8
			c-0.2-0.2-0.5-0.3-0.9-0.3c-0.1,0-0.2,0-0.3,0c-0.1-0.3-0.1-0.5-0.1-0.6c0-0.3,0.1-0.5,0.2-0.7c0.1-0.2,0.3-0.3,0.5-0.4
			s0.4-0.1,0.6-0.1c0.3,0,0.5,0.1,0.8,0.2s0.5,0.4,0.7,0.7c0.2,0.3,0.3,0.7,0.3,1.2c0,0.7-0.2,1.3-0.6,1.9
			C154,275.8,153.2,276.2,152,276.5z"/>
		<path class="st1" d="M161.6,273.6c-0.4,0-0.7-0.1-1-0.2c-0.3-0.2-0.5-0.4-0.7-0.7c-0.2-0.3-0.3-0.6-0.3-1c0-0.5,0.2-1,0.5-1.5
			s0.9-0.9,1.6-1.2c0.7-0.3,1.6-0.5,2.6-0.6v-0.6c0-0.8-0.1-1.4-0.4-2c-0.3-0.5-0.7-0.8-1.4-0.8c-0.3,0-0.6,0.1-0.7,0.2
			c-0.1,0.1-0.2,0.3-0.3,0.6c0,0.3-0.1,0.7-0.2,1.4c-0.4,0-0.7-0.1-1-0.2s-0.4-0.4-0.4-0.9c0-0.4,0.2-0.7,0.6-1
			c0.4-0.3,0.8-0.6,1.4-0.8c0.6-0.2,1.1-0.3,1.5-0.3c0.9,0,1.5,0.2,1.9,0.7s0.6,1.3,0.6,2.4v3.7c0,0.3,0,0.6,0.1,0.7
			c0.1,0.2,0.2,0.3,0.3,0.4c0.2,0.1,0.4,0.2,0.7,0.2l0.5,0.1l-0.1,0.9c-0.1,0-0.3,0-0.5,0.1c-0.3,0.1-0.6,0.1-0.9,0.1
			c-0.4,0-0.7-0.1-0.9-0.2s-0.4-0.3-0.5-0.5s-0.2-0.4-0.2-0.6v0h-0.1c-0.2,0.4-0.5,0.7-1,1.1C163,273.4,162.4,273.6,161.6,273.6z
			 M164.4,269c-1.1,0.2-1.8,0.5-2.3,0.9c-0.4,0.4-0.7,0.8-0.7,1.3c0,0.2,0,0.4,0.1,0.5c0.1,0.2,0.2,0.3,0.4,0.5
			c0.2,0.1,0.4,0.2,0.6,0.2c0.3,0,0.7-0.1,1-0.3c0.3-0.2,0.6-0.4,0.8-0.6L164.4,269L164.4,269z"/>
		<path class="st1" d="M168.2,273.3l0.1-0.8l1.6-0.4v-10.5l-1.6-0.6l0.1-0.8l2.9-0.2l0.3,0.2V272l1.6,0.4l-0.1,0.8h-4.9V273.3z"/>
		<path class="st1" d="M176.9,273.7c-0.6,0-1.1-0.1-1.5-0.2s-0.8-0.3-1-0.6c-0.2-0.2-0.4-0.5-0.4-0.8c0-0.4,0.1-0.7,0.3-1
			s0.5-0.4,0.9-0.4c0.2,0.7,0.5,1.2,0.9,1.5s0.7,0.5,1.2,0.5c0.4,0,0.7-0.1,1-0.2c0.3-0.2,0.4-0.4,0.4-0.8c0-0.2-0.1-0.4-0.2-0.6
			c-0.1-0.2-0.3-0.4-0.6-0.5c-0.2-0.2-0.5-0.3-1-0.6c-0.6-0.3-1-0.6-1.4-0.9s-0.6-0.6-0.9-0.9c-0.2-0.4-0.4-0.8-0.4-1.3
			c0-0.4,0.1-0.8,0.3-1.3c0.2-0.4,0.6-0.8,1-1c0.5-0.3,1-0.4,1.7-0.4c0.5,0,0.9,0.1,1.3,0.2c0.4,0.2,0.7,0.4,0.9,0.7
			c0.2,0.3,0.3,0.6,0.3,0.9c0,0.4-0.1,0.7-0.4,0.9c-0.3,0.2-0.6,0.4-1,0.4c-0.1-0.8-0.3-1.4-0.6-1.7c-0.3-0.4-0.6-0.6-1-0.6
			c-0.3,0-0.6,0.1-0.8,0.4c-0.2,0.2-0.3,0.5-0.3,0.9c0,0.3,0.1,0.5,0.3,0.7s0.4,0.4,0.6,0.6c0.3,0.2,0.6,0.4,1,0.6
			c0.5,0.3,1,0.6,1.3,0.8c0.3,0.2,0.6,0.5,0.9,0.9c0.2,0.4,0.4,0.8,0.4,1.2c0,0.5-0.1,0.9-0.4,1.3c-0.3,0.4-0.7,0.7-1.2,0.9
			C177.9,273.6,177.4,273.7,176.9,273.7z"/>
		<path class="st1" d="M185.1,273.6c-0.9,0-1.6-0.2-2.3-0.6c-0.6-0.4-1.1-0.9-1.4-1.6c-0.3-0.7-0.5-1.5-0.5-2.4c0-1,0.2-1.9,0.6-2.6
			c0.4-0.7,1-1.3,1.6-1.7c0.7-0.4,1.4-0.6,2.2-0.6s1.5,0.2,2.1,0.6s1.1,0.9,1.4,1.7c0.3,0.7,0.5,1.5,0.5,2.5c0,0.9-0.2,1.7-0.6,2.5
			c-0.4,0.7-0.9,1.3-1.5,1.7C186.6,273.4,185.9,273.6,185.1,273.6z M184.9,265.2c-0.5,0-0.9,0.1-1.2,0.4s-0.6,0.7-0.7,1.1
			c-0.2,0.5-0.2,1-0.2,1.5c0,0.8,0.1,1.5,0.3,2.1c0.2,0.7,0.5,1.2,0.9,1.6s0.9,0.6,1.6,0.6c0.5,0,0.8-0.1,1.2-0.4
			c0.3-0.3,0.6-0.6,0.7-1.1c0.2-0.4,0.2-0.9,0.2-1.4c0-0.7-0.1-1.4-0.3-2.1s-0.5-1.2-0.9-1.7C186.1,265.4,185.6,265.2,184.9,265.2z"
			/>
		<path class="st1" d="M197.3,273.6c-0.6,0-1.2-0.2-1.7-0.5s-0.9-0.8-1.2-1.5c-0.3-0.6-0.4-1.4-0.4-2.3s0.2-1.8,0.7-2.6
			c0.4-0.8,1-1.4,1.7-1.8s1.4-0.7,2.1-0.7c0.3,0,0.7,0,1,0.1s0.6,0.2,0.8,0.3h0.1l-0.1-1.3v-1.6l-1.5-0.6l0.1-0.8l2.8-0.2l0.2,0.2
			v10.8c0,0.3,0,0.6,0.1,0.8c0.1,0.2,0.2,0.3,0.3,0.3c0.1,0.1,0.4,0.1,0.6,0.2l0.5,0.1l-0.1,0.8c-0.3,0.1-0.6,0.1-0.7,0.2
			c-0.2,0-0.4,0-0.7,0c-0.5,0-0.9-0.1-1.1-0.4c-0.3-0.3-0.4-0.6-0.4-1.1l0,0h-0.1c-0.3,0.5-0.7,0.8-1.2,1.1
			C198.5,273.4,198,273.6,197.3,273.6z M198,265.2c-0.8,0-1.3,0.3-1.7,0.9c-0.3,0.6-0.5,1.5-0.5,2.5c0,0.8,0.1,1.4,0.3,2
			c0.2,0.5,0.5,1,0.8,1.2c0.3,0.3,0.7,0.4,1.2,0.4c0.4,0,0.8-0.1,1.2-0.3c0.4-0.2,0.7-0.4,0.9-0.6v-4.8c-0.3-0.4-0.6-0.8-1-1
			C198.7,265.3,198.3,265.2,198,265.2z"/>
		<path class="st1" d="M204.1,273.3l0.1-0.8l1.5-0.4v-6.3l-1.5-0.6l0.1-0.8l2.9-0.2l0.3,0.3v7.6l1.6,0.4l-0.1,0.8H204.1z
			 M206.5,262.4c-0.2,0-0.4-0.1-0.6-0.2c-0.2-0.1-0.3-0.3-0.4-0.5c-0.1-0.2-0.2-0.4-0.2-0.6c0-0.3,0.1-0.6,0.4-0.8
			c0.2-0.2,0.5-0.3,0.9-0.3c0.3,0,0.6,0.1,0.9,0.3c0.2,0.2,0.4,0.5,0.4,0.8c0,0.2-0.1,0.4-0.2,0.6c-0.1,0.2-0.3,0.3-0.5,0.5
			C206.9,262.4,206.7,262.4,206.5,262.4z"/>
		<path class="st1" d="M213.2,273.7c-0.7,0-1.3-0.2-1.9-0.5c-0.6-0.4-1.1-0.9-1.4-1.6c-0.4-0.7-0.5-1.6-0.5-2.5c0-1,0.2-1.8,0.6-2.5
			c0.4-0.7,0.9-1.3,1.6-1.7c0.6-0.4,1.3-0.6,2-0.6c0.5,0,1,0.1,1.4,0.4c0.4,0.2,0.7,0.6,1,1.1c0.2,0.5,0.4,1.1,0.4,1.8
			c0,0.2,0,0.4-0.1,0.6c0,0.3-0.1,0.5-0.1,0.7l-4.9,0.1c0,0.6,0.1,1.1,0.4,1.7c0.2,0.5,0.5,1,1,1.3s0.9,0.5,1.5,0.5
			c0.3,0,0.6,0,0.8,0s0.4-0.1,0.7-0.1c0.3-0.1,0.5-0.2,0.9-0.4l0.2,0.5c-0.4,0.4-0.9,0.8-1.5,1S213.9,273.7,213.2,273.7z
			 M213.1,265.2c-0.3,0-0.6,0.1-0.8,0.3c-0.3,0.2-0.5,0.5-0.7,0.9s-0.3,0.9-0.3,1.6l3.2-0.2c0-0.1,0-0.2,0-0.3s0-0.3,0-0.4
			C214.5,265.8,214,265.2,213.1,265.2z"/>
		<path class="st1" d="M227.1,273.3h-6l0.1-0.8l1.7-0.5v-10l-1.7-0.3l0.1-0.8c0.9-0.1,1.8-0.2,2.5-0.3c0.8-0.1,1.5-0.1,2.3-0.1
			c1.5,0,2.8,0.3,3.7,0.8s1.4,1.5,1.4,2.9c0,0.8-0.2,1.5-0.6,2.1c-0.4,0.6-1,1.1-1.7,1.4s-1.5,0.5-2.3,0.5c-0.2,0-0.4,0-0.7,0h-0.3
			l-0.2-0.8h0.5c1.1,0,1.9-0.3,2.4-0.7c0.5-0.5,0.8-1.2,0.8-2.1s-0.3-1.7-0.8-2.3c-0.5-0.6-1.3-0.9-2.4-0.9c-0.2,0-0.4,0-0.6,0
			c-0.2,0-0.4,0-0.4,0V272l2.4,0.4L227.1,273.3z"/>
		<path class="st1" d="M231.3,261.4l0.1-0.8h10.1l-0.3,3.3l-0.9-0.1l-0.4-2.2h-4.8v4.9h3l0.4-1.2l1-0.1l-0.3,4l-0.9,0.1l-0.3-1.8
			h-2.8v5h5l1-2.3l0.8,0.1l-0.3,3.2h-10.3l0.1-0.8l1.7-0.5V262L231.3,261.4z"/>
		<path class="st1" d="M242.2,260.7h11.3l-0.3,3.4l-1-0.2l-0.4-2.4h-3.1v10.6l1.9,0.3l-0.1,0.8H245l0.1-0.8l1.7-0.5v-10.5h-3
			l-0.5,2.5l-0.9-0.1L242.2,260.7z"/>
		<path class="st1" d="M252.2,269.3l0.1-1l4.2-0.2l-0.1,1L252.2,269.3z"/>
		<path class="st1" d="M256.9,261.4l0.1-0.8h10.1l-0.4,3.3l-0.9-0.1l-0.3-2.2h-4.7v4.9h2.9l0.4-1.2l0.9-0.1l-0.3,4l-0.9,0.1
			l-0.3-1.8h-2.8v4.6l2.4,0.4l-0.1,0.8h-6l0.1-0.8l1.7-0.5v-10.2L256.9,261.4z"/>
		<path class="st1" d="M267.6,273.3l0.1-0.8l1.6-0.4v-10.5l-1.6-0.6l0.1-0.8l2.9-0.2l0.3,0.2V272l1.6,0.4l-0.1,0.8h-4.9V273.3z"/>
		<path class="st1" d="M275.3,273.6c-0.4,0-0.7-0.1-1-0.2c-0.3-0.2-0.5-0.4-0.7-0.7s-0.3-0.6-0.3-1c0-0.5,0.2-1,0.5-1.5
			s0.9-0.9,1.6-1.2c0.7-0.3,1.6-0.5,2.6-0.6v-0.6c0-0.8-0.1-1.4-0.4-2c-0.3-0.5-0.7-0.8-1.4-0.8c-0.3,0-0.6,0.1-0.7,0.2
			s-0.2,0.3-0.3,0.6c0,0.3-0.1,0.7-0.2,1.4c-0.4,0-0.7-0.1-1-0.2s-0.4-0.4-0.4-0.9c0-0.4,0.2-0.7,0.6-1s0.8-0.6,1.4-0.8
			c0.6-0.2,1.1-0.3,1.5-0.3c0.9,0,1.5,0.2,1.9,0.7s0.6,1.3,0.6,2.4v3.7c0,0.3,0,0.6,0.1,0.7c0.1,0.2,0.2,0.3,0.3,0.4
			c0.2,0.1,0.4,0.2,0.7,0.2l0.5,0.1l-0.1,0.9c-0.1,0-0.3,0-0.5,0.1c-0.3,0.1-0.6,0.1-0.9,0.1c-0.4,0-0.7-0.1-0.9-0.2
			c-0.2-0.1-0.4-0.3-0.5-0.5s-0.2-0.4-0.2-0.6v0H278c-0.2,0.4-0.5,0.7-1,1.1S276,273.6,275.3,273.6z M278,269
			c-1.1,0.2-1.8,0.5-2.3,0.9c-0.4,0.4-0.7,0.8-0.7,1.3c0,0.2,0,0.4,0.1,0.5c0.1,0.2,0.2,0.3,0.4,0.5c0.2,0.1,0.4,0.2,0.6,0.2
			c0.3,0,0.7-0.1,1-0.3c0.3-0.2,0.6-0.4,0.8-0.6V269H278z"/>
		<path class="st1" d="M285,273.7c-0.6,0-1.1-0.1-1.5-0.2s-0.8-0.3-1-0.6c-0.2-0.2-0.4-0.5-0.4-0.8c0-0.4,0.1-0.7,0.3-1
			c0.2-0.3,0.5-0.4,0.9-0.4c0.2,0.7,0.5,1.2,0.9,1.5s0.7,0.5,1.2,0.5c0.4,0,0.7-0.1,1-0.2c0.3-0.2,0.4-0.4,0.4-0.8
			c0-0.2-0.1-0.4-0.2-0.6s-0.3-0.4-0.6-0.5s-0.5-0.3-1-0.6c-0.6-0.3-1-0.6-1.4-0.9s-0.6-0.6-0.9-0.9c-0.2-0.4-0.4-0.8-0.4-1.3
			c0-0.4,0.1-0.8,0.3-1.3c0.2-0.4,0.6-0.8,1-1c0.5-0.3,1-0.4,1.7-0.4c0.5,0,0.9,0.1,1.3,0.2c0.4,0.2,0.7,0.4,0.9,0.7
			c0.2,0.3,0.3,0.6,0.3,0.9c0,0.4-0.1,0.7-0.4,0.9c-0.3,0.2-0.6,0.4-1,0.4c-0.1-0.8-0.3-1.4-0.6-1.7c-0.3-0.4-0.6-0.6-1-0.6
			c-0.3,0-0.6,0.1-0.8,0.4c-0.2,0.2-0.3,0.5-0.3,0.9c0,0.3,0.1,0.5,0.3,0.7c0.2,0.2,0.4,0.4,0.6,0.6c0.3,0.2,0.6,0.4,1,0.6
			c0.5,0.3,1,0.6,1.3,0.8c0.3,0.2,0.6,0.5,0.9,0.9c0.2,0.4,0.4,0.8,0.4,1.2c0,0.5-0.1,0.9-0.4,1.3s-0.7,0.7-1.2,0.9
			C286,273.6,285.5,273.7,285,273.7z"/>
		<path class="st1" d="M293,273.7c-0.8,0-1.5-0.2-2.1-0.6s-1.1-1-1.4-1.7s-0.5-1.4-0.5-2.3c0-1,0.2-1.8,0.6-2.6s0.9-1.3,1.6-1.7
			c0.7-0.4,1.4-0.6,2.1-0.6c0.5,0,1,0.1,1.4,0.2s0.6,0.3,0.8,0.6c0.2,0.2,0.3,0.5,0.3,0.8s-0.1,0.6-0.3,0.7c-0.2,0.2-0.5,0.3-1,0.3
			c-0.2-0.5-0.4-0.9-0.7-1.2c-0.2-0.3-0.6-0.5-1-0.5s-0.8,0.1-1.1,0.4c-0.3,0.3-0.5,0.6-0.7,1.1s-0.2,1-0.2,1.6s0.1,1.3,0.3,1.9
			c0.2,0.7,0.6,1.2,1,1.7c0.5,0.4,1,0.7,1.7,0.7c0.5,0,0.8-0.1,1.1-0.2c0.3-0.1,0.6-0.3,0.9-0.5l0.3,0.6c-0.3,0.3-0.7,0.6-1.3,0.9
			C294.3,273.5,293.7,273.7,293,273.7z"/>
		<path class="st1" d="M301.6,273.3h-4.7l0.1-0.8l1.6-0.4v-10.5L297,261l0.1-0.8l2.9-0.2l0.3,0.2v4.3l-0.2,1.1h0.1
			c1-1.1,2-1.6,3-1.6c0.8,0,1.4,0.2,1.8,0.7c0.4,0.4,0.6,1.2,0.6,2.4v4.9l1.5,0.4l-0.1,0.8h-4.6l0.1-0.8l1.4-0.4v-4.7
			c0-0.7-0.2-1.1-0.5-1.4s-0.8-0.4-1.2-0.4c-0.3,0-0.7,0.1-1,0.2s-0.7,0.4-1,0.7v5.7l1.5,0.4L301.6,273.3z"/>
		<path class="st1" d="M311.2,273.7c-0.7,0-1.3-0.2-1.9-0.5s-1.1-0.9-1.4-1.6c-0.4-0.7-0.5-1.6-0.5-2.5c0-1,0.2-1.8,0.6-2.5
			s0.9-1.3,1.6-1.7c0.6-0.4,1.3-0.6,2-0.6c0.5,0,1,0.1,1.4,0.4c0.4,0.2,0.7,0.6,1,1.1c0.2,0.5,0.4,1.1,0.4,1.8c0,0.2,0,0.4-0.1,0.6
			c0,0.3-0.1,0.5-0.1,0.7l-4.9,0.1c0,0.6,0.1,1.1,0.4,1.7c0.2,0.5,0.5,1,1,1.3c0.4,0.3,0.9,0.5,1.5,0.5c0.3,0,0.6,0,0.8,0
			c0.2,0,0.4-0.1,0.7-0.1c0.3-0.1,0.5-0.2,0.9-0.4l0.2,0.5c-0.4,0.4-0.9,0.8-1.5,1C312.5,273.5,311.8,273.7,311.2,273.7z M311,265.2
			c-0.3,0-0.6,0.1-0.8,0.3c-0.3,0.2-0.5,0.5-0.7,0.9s-0.3,0.9-0.3,1.6l3.2-0.2c0-0.1,0-0.2,0-0.3c0-0.1,0-0.3,0-0.4
			C312.4,265.8,312,265.2,311,265.2z"/>
		<path class="st1" d="M316.8,273.7c-0.3,0-0.6-0.1-0.9-0.4c-0.2-0.2-0.4-0.5-0.4-0.9c0-0.3,0.1-0.6,0.4-0.8
			c0.2-0.2,0.5-0.3,0.8-0.3s0.6,0.1,0.9,0.3c0.2,0.2,0.4,0.5,0.4,0.8c0,0.2-0.1,0.4-0.2,0.6s-0.3,0.3-0.5,0.4
			C317.2,273.6,317,273.7,316.8,273.7z"/>
	</g>
</g>
</svg>
