<svg id="Ebene_3_Kopie" data-name="Ebene 3 Kopie" xmlns="http://www.w3.org/2000/svg" viewBox="0 0 375 600"><defs><style>.cls-1{fill:#fff;}.cls-2{opacity:0.1;}</style></defs><title>Zeichenfläche 1</title><path class="cls-1" d="M24.67,59.92H38.35l4.89,15.91c.34,1,.69,2.08,1,3.35s.72,2.59,1.08,4,.69,2.75,1,4.14.57,2.69.76,3.89h.36c.19-1.3.47-2.7.83-4.21s.72-3,1.08-4.39.7-2.73,1-3.93l.79-2.81L56,59.92H69.67l3.24,45.36H62.68L61.89,90c-.1-1.44-.17-3-.22-4.72s-.08-3.44-.1-5.22,0-3.53,0-5.26V70h-.22c-.33,1.59-.71,3.22-1.11,4.9s-.83,3.35-1.26,5-.87,3.27-1.3,4.83-.86,3-1.29,4.28l-5,16.27H43.1l-5.26-16.2q-.65-2-1.29-4.35T35.29,79.9q-.61-2.48-1.19-5c-.39-1.68-.72-3.31-1-4.9h-.22c.05,1.54.06,3.21,0,5s-.06,3.6-.11,5.4-.11,3.52-.18,5.18-.13,3.11-.18,4.36l-.79,15.33H21.57Z"/><path class="cls-1" d="M101.32,70.72H112v34.56h-7.85l-1.08-3.74h-.29a19.84,19.84,0,0,1-1.72,1.51,13.73,13.73,0,0,1-2.42,1.48,16,16,0,0,1-3.2,1.11,17.59,17.59,0,0,1-4.11.43q-5.61,0-8.78-3.09c-2.11-2.07-3.17-5.11-3.17-9.15V70.72H90V93a5.15,5.15,0,0,0,1.33,3.92,4.78,4.78,0,0,0,3.42,1.26,7.48,7.48,0,0,0,4.14-1,8.42,8.42,0,0,0,2.41-2.2Z"/><path class="cls-1" d="M129.26,94.05v11.23H118.67V53.8h10.59v30l10.8-13.11H153l-13,14.55,13.61,20H141l-9.14-13.89Z"/><path class="cls-1" d="M179.23,78.35h-8.85V93a4.29,4.29,0,0,0,1,3.31,4.2,4.2,0,0,0,2.92.94,14.81,14.81,0,0,0,2.88-.29,6.74,6.74,0,0,0,2.23-.79l1.58,7.27a17.16,17.16,0,0,1-3.71,1.26,21.92,21.92,0,0,1-5.29.61q-6.69,0-9.47-2.59c-1.84-1.73-2.77-4.34-2.77-7.85V78.35h-5.4V70.72h5.4V60.21h10.59V70.72h8.85Z"/><path class="cls-1" d="M185.07,73.75a28.77,28.77,0,0,1,14.26-3.82q6.4,0,10.29,3.1t3.89,9.86v22.39h-8.13l-.94-3.45h-.29a10.63,10.63,0,0,1-4,3.06,14.13,14.13,0,0,1-6,1.18,14,14,0,0,1-5.15-.86,10.55,10.55,0,0,1-3.63-2.3,9.72,9.72,0,0,1-2.2-3.42,11.83,11.83,0,0,1-.75-4.22,9.67,9.67,0,0,1,1.33-5.18,10.58,10.58,0,0,1,3.6-3.53,17,17,0,0,1,5.33-2,30.84,30.84,0,0,1,6.51-.65h3.6V82a3.51,3.51,0,0,0-1.37-3A6.24,6.24,0,0,0,197.53,78a14.32,14.32,0,0,0-4.25.65,23.48,23.48,0,0,0-4.61,2.09Zm17.79,16.63-2.38.07a16,16,0,0,0-3.39.43,7.52,7.52,0,0,0-2.19.9,3.19,3.19,0,0,0-1.19,1.3,3.55,3.55,0,0,0-.36,1.55,3.33,3.33,0,0,0,1.33,3.06,5.7,5.7,0,0,0,3.06.82,5.29,5.29,0,0,0,3.14-1,6.06,6.06,0,0,0,2-2.24Z"/><path class="cls-1" d="M29.2,121.92l6,18.94c.72,2.3,1.48,4.88,2.3,7.74s1.54,5.72,2.16,8.6h.22c.62-2.88,1.33-5.73,2.12-8.57s1.57-5.44,2.34-7.84l5.91-18.87H61.46L45.83,167.28H33.67L17.61,121.92Z"/><path class="cls-1" d="M62.31,135.75a28.77,28.77,0,0,1,14.25-3.82q6.41,0,10.3,3.1t3.89,9.86v22.39H82.61l-.94-3.45h-.28a10.71,10.71,0,0,1-4,3.06,14.16,14.16,0,0,1-6,1.18,13.93,13.93,0,0,1-5.15-.86,10.6,10.6,0,0,1-3.64-2.3,9.56,9.56,0,0,1-2.19-3.42,11.62,11.62,0,0,1-.76-4.22A9.76,9.76,0,0,1,61,152.09a10.58,10.58,0,0,1,3.6-3.53,17.19,17.19,0,0,1,5.33-2,30.87,30.87,0,0,1,6.52-.65H80V144a3.53,3.53,0,0,0-1.37-3,6.27,6.27,0,0,0-3.89-1,14.37,14.37,0,0,0-4.25.65,23.42,23.42,0,0,0-4.6,2.09Zm17.78,16.63-2.38.07a15.86,15.86,0,0,0-3.38.43,7.72,7.72,0,0,0-2.2.9,3.17,3.17,0,0,0-1.18,1.3,3.55,3.55,0,0,0-.36,1.55,3.33,3.33,0,0,0,1.33,3.06,5.7,5.7,0,0,0,3.06.82,5.26,5.26,0,0,0,3.13-1,5.89,5.89,0,0,0,2-2.24Z"/><path class="cls-1" d="M97.4,135.75a28.77,28.77,0,0,1,14.25-3.82q6.42,0,10.3,3.1t3.89,9.86v22.39H117.7l-.93-3.45h-.29a10.63,10.63,0,0,1-4,3.06,14.16,14.16,0,0,1-6,1.18,14,14,0,0,1-5.15-.86,10.55,10.55,0,0,1-3.63-2.3,9.59,9.59,0,0,1-2.2-3.42,11.83,11.83,0,0,1-.76-4.22,9.67,9.67,0,0,1,1.34-5.18,10.41,10.41,0,0,1,3.6-3.53,17,17,0,0,1,5.32-2,30.94,30.94,0,0,1,6.52-.65h3.6V144a3.53,3.53,0,0,0-1.37-3,6.27,6.27,0,0,0-3.89-1,14.26,14.26,0,0,0-4.24.65,23.22,23.22,0,0,0-4.61,2.09Zm17.78,16.63-2.37.07a15.88,15.88,0,0,0-3.39.43,7.52,7.52,0,0,0-2.19.9,3.13,3.13,0,0,0-1.19,1.3,3.55,3.55,0,0,0-.36,1.55,3.33,3.33,0,0,0,1.33,3.06,5.7,5.7,0,0,0,3.06.82,5.24,5.24,0,0,0,3.13-1,5.89,5.89,0,0,0,2-2.24Z"/><path class="cls-1" d="M142.76,167.28H132.1V132.72h8.28l1.23,4.32a17.78,17.78,0,0,1,5.18-3.74,14.44,14.44,0,0,1,6.26-1.37q5.83,0,8.93,3.17t3.1,9.29v22.89H154.42V145.47a6.15,6.15,0,0,0-1.19-4,4.22,4.22,0,0,0-3.49-1.48,7.81,7.81,0,0,0-3.63,1,11.36,11.36,0,0,0-3.35,2.67Z"/><path class="cls-1" d="M177.3,126a5.43,5.43,0,0,1-4.18-1.54,5.27,5.27,0,0,1-1.44-3.71,5.16,5.16,0,0,1,1.48-3.71,5.44,5.44,0,0,1,4.14-1.55,5.57,5.57,0,0,1,4.14,1.51,5.55,5.55,0,0,1,0,7.49A5.48,5.48,0,0,1,177.3,126ZM172,167.28V132.72h10.65v34.56Z"/><g class="cls-2"><path class="cls-1" d="M59.51,204.11A7.67,7.67,0,0,0,61,204c.45-.1.87-.19,1.26-.29l1.51,6.77a12.82,12.82,0,0,1-2.73.79,19.5,19.5,0,0,1-3.82.36q-5,0-7.74-2.12t-2.77-7.17v-8.06H35v5.4a6.06,6.06,0,0,1-1.87,1,8.59,8.59,0,0,1-3,.47,10.77,10.77,0,0,1-3.42-.58,10.16,10.16,0,0,1-3.21-1.72,8.78,8.78,0,0,1-2.34-2.92,9.18,9.18,0,0,1-.9-4.21,5.81,5.81,0,0,1,1.26-4,4,4,0,0,1,3.13-1.44h.29v-8.64c0-1.25-.25-2-.75-2.38a3.46,3.46,0,0,0-1.91-.5,8.21,8.21,0,0,0-1.41.11,8.91,8.91,0,0,0-1.18.25l-1.08-6.77a21.78,21.78,0,0,1,2.62-.68,20.2,20.2,0,0,1,4.29-.4,14.35,14.35,0,0,1,3.74.47,7.36,7.36,0,0,1,3,1.58,7.71,7.71,0,0,1,2,2.88,11.59,11.59,0,0,1,.72,4.36v9.72H46.7v-19h10v33.91c0,1.25.29,2,.9,2.38A3.88,3.88,0,0,0,59.51,204.11Z"/><path class="cls-1" d="M55.69,214.12A12.62,12.62,0,0,1,60,210.38a11.9,11.9,0,0,1,5.8-1.44,14.09,14.09,0,0,1,5.4,1,12,12,0,0,1,4,2.63,11.09,11.09,0,0,1,2.52,3.78,11.71,11.71,0,0,1,.87,4.5,12.63,12.63,0,0,1-1.08,5.4,10.6,10.6,0,0,1-3,3.85,13.53,13.53,0,0,1-4.57,2.34,19.68,19.68,0,0,1-5.72.79,21,21,0,0,1-10.34-2.84q-5.07-2.85-9.9-9.4l6.41-5.4a39.27,39.27,0,0,0,6.81,7.16,10.7,10.7,0,0,0,6.66,2.49A5.9,5.9,0,0,0,67.75,224a4,4,0,0,0,1.4-3.28,3.91,3.91,0,0,0-1-2.91,3.56,3.56,0,0,0-2.63-1.05,3.4,3.4,0,0,0-1.37.29,6,6,0,0,0-1.18.69,9,9,0,0,0-1,.82,8,8,0,0,0-.64.72Z"/><path class="cls-1" d="M75.89,189.06l8.79-2.3A9.57,9.57,0,0,1,81,183.2a9.71,9.71,0,0,1-1.33-5,10.19,10.19,0,0,1,3.89-8.06,14.47,14.47,0,0,1,4.93-2.52,23.35,23.35,0,0,1,7-.94,25.58,25.58,0,0,1,5.76.61,31.25,31.25,0,0,1,3.89,1.12l-2,7.56c-.67-.24-1.63-.53-2.88-.86a15.55,15.55,0,0,0-4.1-.51,6.51,6.51,0,0,0-4.75,1.51A4.7,4.7,0,0,0,90,179.49a4.15,4.15,0,0,0,1,2.84,7.57,7.57,0,0,0,2.41,1.84L110,178.62l2.52,8-9.43,2.66a12,12,0,0,1,4.64,4,9.91,9.91,0,0,1,1.77,5.79,11.69,11.69,0,0,1-1.08,5,10.7,10.7,0,0,1-3.21,4,15.56,15.56,0,0,1-5.22,2.59,24.44,24.44,0,0,1-7.13.94A19.55,19.55,0,0,1,85,210a15.29,15.29,0,0,1-6.12-5l6.56-5.69a16,16,0,0,0,3,2.84,7.38,7.38,0,0,0,4.46,1.26,6.35,6.35,0,0,0,4.79-1.62,5.21,5.21,0,0,0,1.55-3.7,5.56,5.56,0,0,0-1.3-3.71,9.2,9.2,0,0,0-3.45-2.49l-16,5.19Z"/><path class="cls-1" d="M120.78,227.22l-5.32,5.4-15-12.16,6.34-6.7Z"/><path class="cls-1" d="M150,204.11a7.67,7.67,0,0,0,1.48-.14c.45-.1.87-.19,1.26-.29l1.51,6.77a12.94,12.94,0,0,1-2.74.79,19.4,19.4,0,0,1-3.81.36q-5,0-7.74-2.12t-2.78-7.17V185h-6.55a8.23,8.23,0,0,0-6,2.09,7.4,7.4,0,0,0-2.12,5.54,12.44,12.44,0,0,0,.82,4.61,20.42,20.42,0,0,0,2,3.78,19.77,19.77,0,0,0,2.31,2.85q1.16,1.14,1.8,1.8l-6.77,6.62c-.48-.34-1.3-1-2.45-2a25.74,25.74,0,0,1-3.53-4,27.15,27.15,0,0,1-3.16-5.94,21,21,0,0,1-1.37-7.85,15.2,15.2,0,0,1,1.37-6.59,14.15,14.15,0,0,1,3.78-4.93,16.82,16.82,0,0,1,5.79-3.1,24.55,24.55,0,0,1,7.49-1.08h6.62v-9.43h10v33.91c0,1.25.3,2,.9,2.38A3.92,3.92,0,0,0,150,204.11Z"/><path class="cls-1" d="M169.41,204.11a7.67,7.67,0,0,0,1.48-.14c.45-.1.87-.19,1.26-.29l1.51,6.77a12.76,12.76,0,0,1-2.74.79,19.4,19.4,0,0,1-3.81.36q-5,0-7.74-2.12t-2.77-7.17V165.66a17.82,17.82,0,0,1,1.72-8.06,16,16,0,0,1,4.76-5.72,20.68,20.68,0,0,1,7.2-3.39,35.16,35.16,0,0,1,9.07-1.11,32.32,32.32,0,0,1,10.94,1.8,36.27,36.27,0,0,1,9,4.68,33.48,33.48,0,0,1,6.8,6.44,28.46,28.46,0,0,1,4.18,7l-8.79,2.59a20.79,20.79,0,0,0-3.74-6,25,25,0,0,0-5.33-4.54,24.3,24.3,0,0,0-6.23-2.84,22.49,22.49,0,0,0-6.44-1q-6.12,0-9.65,2.45t-3.53,8.07v35.13c0,1.25.3,2,.9,2.38A3.92,3.92,0,0,0,169.41,204.11Z"/><path class="cls-1" d="M228.38,204.11a7.67,7.67,0,0,0,1.48-.14c.45-.1.87-.19,1.26-.29l1.51,6.77a12.94,12.94,0,0,1-2.74.79,19.4,19.4,0,0,1-3.81.36q-5,0-7.74-2.12t-2.78-7.17V196.7a12.71,12.71,0,0,1-4,2.19,17.07,17.07,0,0,1-5.76.9,18.75,18.75,0,0,1-6.05-1,14,14,0,0,1-5-2.95,14.36,14.36,0,0,1-3.45-5,17.63,17.63,0,0,1-1.3-7.09,16.89,16.89,0,0,1,1.19-6.48,13.66,13.66,0,0,1,3.38-4.9,15.22,15.22,0,0,1,5.26-3.09,20.34,20.34,0,0,1,6.8-1.08,25.08,25.08,0,0,1,2.81.18A11.76,11.76,0,0,1,212,169l-1.15,7.77a12.93,12.93,0,0,0-3-.29,7.24,7.24,0,0,0-5.47,2.09,7.53,7.53,0,0,0-2,5.47,7.26,7.26,0,0,0,2.12,5.62,7.64,7.64,0,0,0,5.37,1.94,10,10,0,0,0,4.82-1,8.68,8.68,0,0,0,2.95-2.41V167.32h10v33.91c0,1.25.3,2,.9,2.38A3.92,3.92,0,0,0,228.38,204.11Z"/><path class="cls-1" d="M247.83,204.11a7.67,7.67,0,0,0,1.48-.14c.45-.1.87-.19,1.26-.29l1.51,6.77a12.82,12.82,0,0,1-2.73.79,19.5,19.5,0,0,1-3.82.36q-5,0-7.74-2.12T235,202.31v-35h10v33.91c0,1.25.3,2,.9,2.38A3.88,3.88,0,0,0,247.83,204.11Z"/><path class="cls-1" d="M286.72,204.11a7.67,7.67,0,0,0,1.48-.14c.45-.1.87-.19,1.26-.29l1.51,6.77a12.94,12.94,0,0,1-2.74.79,19.4,19.4,0,0,1-3.81.36q-5,0-7.74-2.12t-2.78-7.17V187.84H263.61l.36,7.27a7,7,0,0,1-2,1,8.42,8.42,0,0,1-2.95.47,11,11,0,0,1-3.81-.65,8.88,8.88,0,0,1-3.14-1.9,9.72,9.72,0,0,1-2.12-3,9.2,9.2,0,0,1-.79-3.89,6.68,6.68,0,0,1,2.16-5.33,8.25,8.25,0,0,1,5.61-1.87H273.9v-12.6h10v33.91c0,1.25.3,2,.9,2.38A3.92,3.92,0,0,0,286.72,204.11Z"/><path class="cls-1" d="M314.61,204.11a7.67,7.67,0,0,0,1.48-.14c.45-.1.87-.19,1.26-.29l1.51,6.77a12.76,12.76,0,0,1-2.74.79,19.4,19.4,0,0,1-3.81.36q-5,0-7.74-2.12t-2.77-7.17V162.06a7.9,7.9,0,0,0-1.3-4.57c-.86-1.27-2.33-1.91-4.39-1.91a5.18,5.18,0,0,0-4.11,1.66,7.28,7.28,0,0,0-1.44,4.9v5.18a4,4,0,0,1-1.94,1.4,8.36,8.36,0,0,1-3.1.54,8.16,8.16,0,0,1-3-.54,4,4,0,0,1-1.94-1.4v-5.18a15.2,15.2,0,0,1,1-5.69,12.54,12.54,0,0,1,3-4.47,13.73,13.73,0,0,1,4.9-2.88,20.4,20.4,0,0,1,6.66-1,18.84,18.84,0,0,1,6.3,1,14.91,14.91,0,0,1,4.93,2.85,12.68,12.68,0,0,1,3.24,4.43,13.94,13.94,0,0,1,1.15,5.76v39.09c0,1.25.3,2,.91,2.38A3.85,3.85,0,0,0,314.61,204.11Z"/></g><path class="cls-1" d="M34.55,345a22.73,22.73,0,0,1,4.69.44,17.18,17.18,0,0,1,3.63,1.19L41.5,351A12.42,12.42,0,0,0,38.36,350a16.31,16.31,0,0,0-3.19-.33,9.16,9.16,0,0,0-3.3.58A7.15,7.15,0,0,0,29.16,352,8.31,8.31,0,0,0,27.33,355a13.15,13.15,0,0,0-.66,4.4c0,3.11.69,5.5,2,7.15a7.16,7.16,0,0,0,5.87,2.49,14.2,14.2,0,0,0,1.68-.09,4.1,4.1,0,0,0,1.14-.26v-6H33.05v-4.93H43.83V372a20.37,20.37,0,0,1-4,1.23,26.08,26.08,0,0,1-5.24.49,17.93,17.93,0,0,1-5.87-.93A13.21,13.21,0,0,1,24,370.07a12.66,12.66,0,0,1-3.17-4.49,15.29,15.29,0,0,1-1.15-6.14,15.66,15.66,0,0,1,1.15-6.18A12.64,12.64,0,0,1,24,348.73,13.55,13.55,0,0,1,28.68,346,17.67,17.67,0,0,1,34.55,345Z"/><path class="cls-1" d="M61.46,352.14H68v21.12H63.18L62.52,371h-.18a11.68,11.68,0,0,1-1.06.93,8.42,8.42,0,0,1-1.47.9,9.77,9.77,0,0,1-2,.68,10.55,10.55,0,0,1-2.51.27,7.35,7.35,0,0,1-5.36-1.9A7.43,7.43,0,0,1,48,366.26V352.14h6.51v13.6a3.12,3.12,0,0,0,.82,2.39,2.87,2.87,0,0,0,2.09.77,4.65,4.65,0,0,0,2.53-.63,5.13,5.13,0,0,0,1.47-1.35Z"/><path class="cls-1" d="M72.49,352.14H79v18.22a24.19,24.19,0,0,1-.42,4.62,14,14,0,0,1-1.41,4,11.51,11.51,0,0,1-2.64,3.25,15.24,15.24,0,0,1-4.16,2.49l-2.73-4.36A13.3,13.3,0,0,0,69.81,379a5.49,5.49,0,0,0,1.52-1.78,8.83,8.83,0,0,0,.88-2.66,23,23,0,0,0,.28-4Zm3.3-4.14a3.32,3.32,0,0,1-2.55-.94,3.25,3.25,0,0,1-.88-2.27,3.16,3.16,0,0,1,.9-2.26,3.89,3.89,0,0,1,5.06,0,3.17,3.17,0,0,1,.91,2.29,3.23,3.23,0,0,1-.88,2.29A3.36,3.36,0,0,1,75.79,348Z"/><path class="cls-1" d="M83.91,354a17.64,17.64,0,0,1,4.07-1.7,17.25,17.25,0,0,1,4.64-.63,9.8,9.8,0,0,1,6.29,1.89q2.39,1.89,2.38,6v13.68h-5l-.58-2.11h-.17A6.43,6.43,0,0,1,93.13,373a8.75,8.75,0,0,1-3.68.73,8.57,8.57,0,0,1-3.14-.53,6.5,6.5,0,0,1-2.23-1.41,6,6,0,0,1-1.34-2.09,7.15,7.15,0,0,1-.46-2.58,5.92,5.92,0,0,1,.81-3.16,6.59,6.59,0,0,1,2.2-2.16,10.34,10.34,0,0,1,3.26-1.23,19.46,19.46,0,0,1,4-.4h2.2v-1.14a2.19,2.19,0,0,0-.83-1.83,3.9,3.9,0,0,0-2.38-.64,8.87,8.87,0,0,0-2.6.4,14.37,14.37,0,0,0-2.81,1.28Zm10.87,10.16-1.46.05a9.35,9.35,0,0,0-2.06.26,4.78,4.78,0,0,0-1.35.55,2,2,0,0,0-.72.79,2.16,2.16,0,0,0-.22.95,2,2,0,0,0,.81,1.87,3.44,3.44,0,0,0,1.87.5,3.23,3.23,0,0,0,1.92-.61,3.67,3.67,0,0,0,1.21-1.37Z"/><path class="cls-1" d="M105.41,373.26V352.14h5.1l.66,3.7a11.5,11.5,0,0,1,1-1.57,6.23,6.23,0,0,1,1.37-1.34,6.62,6.62,0,0,1,1.82-.92,7,7,0,0,1,2.31-.35,6.23,6.23,0,0,1,1.78.24,4.87,4.87,0,0,1,1.3.55l-1,5.06a6.53,6.53,0,0,0-1.24-.49,6.86,6.86,0,0,0-1.84-.22,4.65,4.65,0,0,0-3.37,1.32c-.89.88-1.34,2.41-1.34,4.58v10.56Z"/><path class="cls-1" d="M136.61,356.8H131.2v8.94a2.6,2.6,0,0,0,.64,2,2.57,2.57,0,0,0,1.78.57,9.54,9.54,0,0,0,1.76-.17,4,4,0,0,0,1.36-.49l1,4.45a10.63,10.63,0,0,1-2.27.77,13.43,13.43,0,0,1-3.23.37q-4.1,0-5.79-1.58a6.28,6.28,0,0,1-1.69-4.8V356.8h-3.3v-4.66h3.3v-6.42h6.47v6.42h5.41Z"/><path class="cls-1" d="M140.47,354a17.64,17.64,0,0,1,4.07-1.7,17.25,17.25,0,0,1,4.64-.63,9.8,9.8,0,0,1,6.29,1.89q2.39,1.89,2.38,6v13.68h-5l-.58-2.11h-.17a6.43,6.43,0,0,1-2.44,1.87,8.75,8.75,0,0,1-3.68.73,8.57,8.57,0,0,1-3.14-.53,6.5,6.5,0,0,1-2.23-1.41,6,6,0,0,1-1.34-2.09,7.15,7.15,0,0,1-.46-2.58,5.92,5.92,0,0,1,.81-3.16,6.59,6.59,0,0,1,2.2-2.16,10.34,10.34,0,0,1,3.26-1.23,19.46,19.46,0,0,1,4-.4h2.2v-1.14a2.19,2.19,0,0,0-.83-1.83,3.9,3.9,0,0,0-2.38-.64,8.87,8.87,0,0,0-2.6.4,14.37,14.37,0,0,0-2.81,1.28Zm10.87,10.16-1.46.05a9.35,9.35,0,0,0-2.06.26,4.78,4.78,0,0,0-1.35.55,2,2,0,0,0-.72.79,2.16,2.16,0,0,0-.22.95,2,2,0,0,0,.81,1.87,3.44,3.44,0,0,0,1.87.5,3.23,3.23,0,0,0,1.92-.61,3.67,3.67,0,0,0,1.21-1.37Z"/><path class="cls-1" d="M165.4,348a3.29,3.29,0,0,1-2.55-.94,3.2,3.2,0,0,1-.88-2.27,3.16,3.16,0,0,1,.9-2.26,3.32,3.32,0,0,1,2.53-.95,3.4,3.4,0,0,1,2.53.92,3.39,3.39,0,0,1,0,4.58A3.35,3.35,0,0,1,165.4,348Zm-3.26,25.26V352.14h6.51v21.12Z"/><path class="cls-1" d="M22.34,408h2.4l2.64,8c.13.38.26.76.38,1.13s.23.73.34,1.11h0q.16-.57.33-1.08c.11-.35.24-.74.39-1.16l2.58-8h2.4l1.1,12.6H33.1l-.52-6.68q-.07-1-.12-2c0-.65-.05-1.31-.08-2h0l-.57,2c-.19.65-.4,1.3-.61,2l-2.22,6.68H27.26L25,413.88c-.23-.67-.43-1.32-.62-1.94s-.37-1.27-.56-1.95h0c0,.65-.06,1.3-.11,2l-.15,2-.48,6.68h-1.8Z"/><path class="cls-1" d="M43.64,411.19H45.4v9.4H44l-.24-1.18H43.7a4.35,4.35,0,0,1-1.29,1,3.9,3.9,0,0,1-1.79.4,3.41,3.41,0,0,1-2.37-.83,3.24,3.24,0,0,1-.91-2.51v-6.24H39.1v6a3,3,0,0,0,.15,1,1.76,1.76,0,0,0,.4.67,1.62,1.62,0,0,0,.59.36,2.5,2.5,0,0,0,.74.11,3.12,3.12,0,0,0,1.44-.34,5,5,0,0,0,1.22-.94Z"/><path class="cls-1" d="M49.69,417.15v3.44H48V406.38h1.74v8.85l3.78-4h2.18l-3.86,4,4,5.44H53.75l-3.12-4.38Z"/><path class="cls-1" d="M62.63,412.51H59.87V418a1.1,1.1,0,0,0,.35,1,1.58,1.58,0,0,0,.91.24,4.78,4.78,0,0,0,.88-.09,6.42,6.42,0,0,0,.84-.21l.28,1.34a6.68,6.68,0,0,1-1,.27,6.82,6.82,0,0,1-1.3.13,2.93,2.93,0,0,1-2-.61,2.33,2.33,0,0,1-.64-1.77v-5.7h-1.4v-1.32h1.4v-3h1.74v3h2.76Z"/><path class="cls-1" d="M65.06,412c.32-.16.62-.31.9-.43a5.7,5.7,0,0,1,.84-.31,6.25,6.25,0,0,1,.86-.18,7.22,7.22,0,0,1,1-.07,5.78,5.78,0,0,1,1.43.17,2.78,2.78,0,0,1,1.12.58,2.45,2.45,0,0,1,.73,1,4.23,4.23,0,0,1,.26,1.62v6.13H70.7l-.22-1h0a3.51,3.51,0,0,1-1.36.95,4.74,4.74,0,0,1-1.64.28,4.15,4.15,0,0,1-1.25-.19,3.15,3.15,0,0,1-1-.54,2.57,2.57,0,0,1-.65-.85,2.73,2.73,0,0,1-.23-1.12,2.52,2.52,0,0,1,1.17-2.25,5.48,5.48,0,0,1,3.09-.78h1.8v-.79a1.58,1.58,0,0,0-.52-1.39,2.33,2.33,0,0,0-1.4-.37,4.66,4.66,0,0,0-1.19.17,6.62,6.62,0,0,0-1.53.65Zm5.34,4.22-1.48,0a3.63,3.63,0,0,0-2.13.53,1.45,1.45,0,0,0-.63,1.19,1.62,1.62,0,0,0,.14.7,1.23,1.23,0,0,0,.37.46,1.87,1.87,0,0,0,.54.23,3.49,3.49,0,0,0,.65.06,3.29,3.29,0,0,0,1.34-.3,3.13,3.13,0,0,0,1.2-1Z"/><path class="cls-1" d="M79.7,408l2.62,7.12c.19.49.39,1,.61,1.63s.43,1.14.61,1.64h0l1.2-3.27L87.44,408h1.92l-5,12.6H82.62L77.76,408Z"/><path class="cls-1" d="M90.12,412c.32-.16.62-.31.9-.43a5.7,5.7,0,0,1,.84-.31,6.25,6.25,0,0,1,.86-.18,7,7,0,0,1,1-.07,5.78,5.78,0,0,1,1.43.17,2.85,2.85,0,0,1,1.12.58,2.54,2.54,0,0,1,.73,1,4.43,4.43,0,0,1,.26,1.62v6.13H95.76l-.22-1h0a3.59,3.59,0,0,1-1.36.95,4.74,4.74,0,0,1-1.64.28,4.15,4.15,0,0,1-1.25-.19,3.15,3.15,0,0,1-1-.54,2.45,2.45,0,0,1-.65-.85,2.73,2.73,0,0,1-.23-1.12,2.52,2.52,0,0,1,1.17-2.25,5.48,5.48,0,0,1,3.09-.78h1.8v-.79a1.58,1.58,0,0,0-.52-1.39,2.35,2.35,0,0,0-1.4-.37,4.6,4.6,0,0,0-1.19.17,6.27,6.27,0,0,0-1.53.65Zm5.34,4.22-1.48,0a3.63,3.63,0,0,0-2.13.53,1.45,1.45,0,0,0-.63,1.19,1.62,1.62,0,0,0,.14.7,1.14,1.14,0,0,0,.37.46,1.66,1.66,0,0,0,.54.23,3.42,3.42,0,0,0,.65.06,3.15,3.15,0,0,0,2.54-1.29Z"/><path class="cls-1" d="M99.71,412c.32-.16.62-.31.9-.43a5.7,5.7,0,0,1,.84-.31,6.25,6.25,0,0,1,.86-.18,7.22,7.22,0,0,1,1-.07,5.78,5.78,0,0,1,1.43.17,2.78,2.78,0,0,1,1.12.58,2.45,2.45,0,0,1,.73,1,4.23,4.23,0,0,1,.26,1.62v6.13h-1.46l-.22-1h0a3.51,3.51,0,0,1-1.36.95,4.74,4.74,0,0,1-1.64.28,4.15,4.15,0,0,1-1.25-.19,3.15,3.15,0,0,1-1-.54,2.57,2.57,0,0,1-.65-.85,2.73,2.73,0,0,1-.23-1.12,2.52,2.52,0,0,1,1.17-2.25,5.48,5.48,0,0,1,3.09-.78H105v-.79a1.58,1.58,0,0,0-.52-1.39,2.33,2.33,0,0,0-1.4-.37,4.66,4.66,0,0,0-1.19.17,6.62,6.62,0,0,0-1.53.65Zm5.34,4.22-1.48,0a3.63,3.63,0,0,0-2.13.53,1.45,1.45,0,0,0-.63,1.19,1.62,1.62,0,0,0,.14.7,1.23,1.23,0,0,0,.37.46,1.87,1.87,0,0,0,.54.23,3.49,3.49,0,0,0,.65.06,3.29,3.29,0,0,0,1.34-.3,3.13,3.13,0,0,0,1.2-1Z"/><path class="cls-1" d="M111,420.59h-1.76v-9.4h1.38l.26,1.3a5.15,5.15,0,0,1,1.47-1.07,4,4,0,0,1,1.77-.38,3.09,3.09,0,0,1,2.26.82,3,3,0,0,1,.82,2.25v6.48h-1.76v-6.22A2,2,0,0,0,115,413a1.74,1.74,0,0,0-1.37-.51,3.6,3.6,0,0,0-2.62,1.26Z"/><path class="cls-1" d="M120.76,408.77a1.15,1.15,0,0,1-.79-.31,1.08,1.08,0,0,1,0-1.55,1.08,1.08,0,0,1,.79-.32,1.06,1.06,0,0,1,.78.32,1.05,1.05,0,0,1,0,1.55A1.13,1.13,0,0,1,120.76,408.77Zm-.88,11.82v-9.4h1.76v9.4Z"/><path class="cls-1" d="M130.74,420.59H129V406.38h1.76v6a6.43,6.43,0,0,1,1.46-.95A4,4,0,0,1,134,411a3.52,3.52,0,0,1,1.36.24,2.32,2.32,0,0,1,1,.64,2.56,2.56,0,0,1,.56,1,3.78,3.78,0,0,1,.19,1.23v6.48h-1.76v-6a2.25,2.25,0,0,0-.44-1.56,1.69,1.69,0,0,0-1.34-.49,3,3,0,0,0-1.37.34,5.71,5.71,0,0,0-1.37,1Z"/><path class="cls-1" d="M139.63,412c.32-.16.62-.31.9-.43a5.7,5.7,0,0,1,.84-.31,6.25,6.25,0,0,1,.86-.18,7.22,7.22,0,0,1,1-.07,5.78,5.78,0,0,1,1.43.17,2.78,2.78,0,0,1,1.12.58,2.45,2.45,0,0,1,.73,1,4.23,4.23,0,0,1,.26,1.62v6.13h-1.46l-.22-1h0a3.51,3.51,0,0,1-1.36.95,4.74,4.74,0,0,1-1.64.28,4.15,4.15,0,0,1-1.25-.19,3.15,3.15,0,0,1-1-.54,2.57,2.57,0,0,1-.65-.85,2.73,2.73,0,0,1-.23-1.12,2.52,2.52,0,0,1,1.17-2.25,5.48,5.48,0,0,1,3.09-.78H145v-.79a1.58,1.58,0,0,0-.52-1.39,2.33,2.33,0,0,0-1.4-.37,4.66,4.66,0,0,0-1.19.17,6.62,6.62,0,0,0-1.53.65Zm5.34,4.22-1.48,0a3.63,3.63,0,0,0-2.13.53,1.45,1.45,0,0,0-.63,1.19,1.62,1.62,0,0,0,.14.7,1.23,1.23,0,0,0,.37.46,1.87,1.87,0,0,0,.54.23,3.49,3.49,0,0,0,.65.06,3.29,3.29,0,0,0,1.34-.3,3.13,3.13,0,0,0,1.2-1Z"/><path class="cls-1" d="M154,412.51h-2.76V418a1.1,1.1,0,0,0,.35,1,1.6,1.6,0,0,0,.91.24,4.78,4.78,0,0,0,.88-.09,6.42,6.42,0,0,0,.84-.21l.28,1.34a6.1,6.1,0,0,1-1,.27,6.74,6.74,0,0,1-1.3.13,2.93,2.93,0,0,1-2-.61,2.37,2.37,0,0,1-.64-1.77v-5.7h-1.4v-1.32h1.4v-3h1.74v3H154Z"/><path class="cls-1" d="M162,408.77a1.15,1.15,0,0,1-.79-.31,1.08,1.08,0,0,1,0-1.55,1.08,1.08,0,0,1,.79-.32,1.06,1.06,0,0,1,.78.32,1.05,1.05,0,0,1,0,1.55A1.13,1.13,0,0,1,162,408.77Zm-.88,11.82v-9.4h1.76v9.4Z"/><path class="cls-1" d="M167.24,420.59h-1.76V406.38h1.76v6a6.43,6.43,0,0,1,1.46-.95,4,4,0,0,1,1.76-.39,3.52,3.52,0,0,1,1.36.24,2.32,2.32,0,0,1,1,.64,2.56,2.56,0,0,1,.56,1,3.78,3.78,0,0,1,.19,1.23v6.48h-1.76v-6a2.25,2.25,0,0,0-.44-1.56,1.69,1.69,0,0,0-1.34-.49,3,3,0,0,0-1.37.34,5.71,5.71,0,0,0-1.37,1Z"/><path class="cls-1" d="M176.05,420.59v-9.4h1.32l.3,1.88a3,3,0,0,1,1.12-1.46,3,3,0,0,1,1.8-.57,4.12,4.12,0,0,1,.86.08,5,5,0,0,1,.62.21l-.34,1.54a2.77,2.77,0,0,0-.53-.2,2.42,2.42,0,0,0-.69-.08,2.65,2.65,0,0,0-1.07.2,2.32,2.32,0,0,0-.86.59,2.85,2.85,0,0,0-.58,1,4.09,4.09,0,0,0-.21,1.36v4.86Z"/><path class="cls-1" d="M191.33,416.09h-6.74v.08a3.21,3.21,0,0,0,.85,2.4,3.16,3.16,0,0,0,2.31.84,6.84,6.84,0,0,0,1.35-.12,7.56,7.56,0,0,0,1.29-.41l.36,1.31a7.16,7.16,0,0,1-1.37.42,9.06,9.06,0,0,1-1.69.16,6.53,6.53,0,0,1-1.91-.28,4.47,4.47,0,0,1-1.57-.87,4.06,4.06,0,0,1-1.07-1.51,5.65,5.65,0,0,1-.39-2.2,5.75,5.75,0,0,1,.33-2,4.41,4.41,0,0,1,.93-1.54,4.2,4.2,0,0,1,1.45-1,4.82,4.82,0,0,1,1.91-.36,4.26,4.26,0,0,1,1.63.31,3.58,3.58,0,0,1,1.25.84,3.71,3.71,0,0,1,.8,1.3,4.93,4.93,0,0,1,.28,1.68Zm-1.82-1.26a3.73,3.73,0,0,0-.13-1,2.27,2.27,0,0,0-.4-.79,1.85,1.85,0,0,0-.69-.54,2.26,2.26,0,0,0-1-.2,2.38,2.38,0,0,0-1.79.7,3.1,3.1,0,0,0-.85,1.84Z"/><path class="cls-1" d="M198.09,420.59V408h1.84v5.3h6V408h1.84v12.6h-1.84v-5.74h-6v5.74Z"/><path class="cls-1" d="M218.61,416.09h-6.74v.08a3.25,3.25,0,0,0,.85,2.4,3.19,3.19,0,0,0,2.31.84,6.77,6.77,0,0,0,1.35-.12,7,7,0,0,0,1.29-.41l.36,1.31a6.74,6.74,0,0,1-1.37.42,9,9,0,0,1-1.69.16,6.58,6.58,0,0,1-1.91-.28,4.56,4.56,0,0,1-1.57-.87,4.18,4.18,0,0,1-1.07-1.51,5.65,5.65,0,0,1-.39-2.2,5.75,5.75,0,0,1,.33-2,4.41,4.41,0,0,1,.93-1.54,4.3,4.3,0,0,1,1.45-1,4.89,4.89,0,0,1,1.91-.36,4.26,4.26,0,0,1,1.63.31,3.57,3.57,0,0,1,2.05,2.14,4.7,4.7,0,0,1,.28,1.68Zm-1.82-1.26a3.35,3.35,0,0,0-.13-1,2.11,2.11,0,0,0-.4-.79,1.85,1.85,0,0,0-.69-.54,2.26,2.26,0,0,0-1-.2,2.4,2.4,0,0,0-1.79.7,3.16,3.16,0,0,0-.85,1.84Z"/><path class="cls-1" d="M220.56,420.59v-9.4h1.32l.3,1.88a3.07,3.07,0,0,1,1.12-1.46,3,3,0,0,1,1.8-.57,4.05,4.05,0,0,1,.86.08,4.5,4.5,0,0,1,.62.21l-.34,1.54a2.77,2.77,0,0,0-.53-.2,2.34,2.34,0,0,0-.69-.08,2.68,2.68,0,0,0-1.07.2,2.41,2.41,0,0,0-.86.59,2.85,2.85,0,0,0-.58,1,4.09,4.09,0,0,0-.21,1.36v4.86Z"/><path class="cls-1" d="M229.79,417.15v3.44h-1.74V406.38h1.74v8.85l3.78-4h2.18l-3.86,4,4,5.44h-2.08l-3.12-4.38Z"/><path class="cls-1" d="M243.61,411.19h1.76v9.4H244l-.24-1.18h-.08a4.35,4.35,0,0,1-1.29,1,3.93,3.93,0,0,1-1.79.4,3.37,3.37,0,0,1-2.37-.83,3.24,3.24,0,0,1-.91-2.51v-6.24h1.76v6a3,3,0,0,0,.15,1,1.76,1.76,0,0,0,.4.67,1.54,1.54,0,0,0,.59.36,2.45,2.45,0,0,0,.74.11,3.12,3.12,0,0,0,1.44-.34,5.19,5.19,0,0,0,1.22-.94Z"/><path class="cls-1" d="M249.67,420.59h-1.76v-9.4h1.38l.26,1.3a5,5,0,0,1,1.47-1.07,4,4,0,0,1,1.77-.38,3.09,3.09,0,0,1,2.26.82,3,3,0,0,1,.82,2.25v6.48h-1.76v-6.22a2,2,0,0,0-.45-1.37,1.74,1.74,0,0,0-1.37-.51,3.6,3.6,0,0,0-2.62,1.26Z"/><path class="cls-1" d="M261.89,406.29a4.5,4.5,0,0,1,1.17.16,5.37,5.37,0,0,1,1.09.4l-.36,1.22a4.48,4.48,0,0,0-.76-.25,3.16,3.16,0,0,0-.76-.09,1.61,1.61,0,0,0-1.37.54,3,3,0,0,0-.41,1.84v1.08h2.86v1.32h-2.86v8.08h-1.74v-8.08h-1.38v-1.32h1.38v-1.66a3.36,3.36,0,0,1,.81-2.41A3.13,3.13,0,0,1,261.89,406.29Z"/><path class="cls-1" d="M270.33,412.51h-2.75V418a1.07,1.07,0,0,0,.35,1,1.54,1.54,0,0,0,.9.24,4.78,4.78,0,0,0,.88-.09,6,6,0,0,0,.84-.21l.28,1.34a6.1,6.1,0,0,1-1,.27,6.72,6.72,0,0,1-1.29.13,2.94,2.94,0,0,1-2-.61,2.37,2.37,0,0,1-.64-1.77v-5.7h-1.39v-1.32h1.39v-3h1.75v3h2.75Z"/><path class="cls-1" d="M278.28,408.77a1.18,1.18,0,0,1-.8-.31,1.08,1.08,0,0,1,0-1.55,1.1,1.1,0,0,1,.8-.32,1.05,1.05,0,0,1,.77.32,1.05,1.05,0,0,1,0,1.55A1.12,1.12,0,0,1,278.28,408.77Zm-.89,11.82v-9.4h1.76v9.4Z"/><path class="cls-1" d="M283.54,420.59h-1.76v-9.4h1.38l.26,1.3a5.11,5.11,0,0,1,1.46-1.07,4,4,0,0,1,1.78-.38,3.09,3.09,0,0,1,2.26.82,3,3,0,0,1,.81,2.25v6.48H288v-6.22a2,2,0,0,0-.44-1.37,1.75,1.75,0,0,0-1.37-.51,3.6,3.6,0,0,0-2.62,1.26Z"/><path class="cls-1" d="M23.44,432v12.6H21.6V432Z"/><path class="cls-1" d="M28,444.59H26.24v-9.4h1.38l.26,1.3a5,5,0,0,1,1.47-1.07,4,4,0,0,1,1.77-.38,3.09,3.09,0,0,1,2.26.82,3,3,0,0,1,.82,2.25v6.48H32.44v-6.22A2,2,0,0,0,32,437a1.74,1.74,0,0,0-1.37-.51A3.6,3.6,0,0,0,28,437.75Z"/><path class="cls-1" d="M43.05,430.38h1.76v14.21H43.33l-.22-1h-.06a4.45,4.45,0,0,1-1.25.94,3.86,3.86,0,0,1-1.59.29,3.81,3.81,0,0,1-2.74-1.2,4.33,4.33,0,0,1-.9-1.51,6.1,6.1,0,0,1-.34-2.15,6.27,6.27,0,0,1,.29-2,4.38,4.38,0,0,1,.83-1.54,3.59,3.59,0,0,1,1.32-1,4.52,4.52,0,0,1,1.78-.34,4.18,4.18,0,0,1,1.41.24,3.61,3.61,0,0,1,1.19.68Zm0,7.07a2.89,2.89,0,0,0-2.22-1.07,2.92,2.92,0,0,0-1,.2,2.25,2.25,0,0,0-.9.61,3.05,3.05,0,0,0-.63,1.08,4.61,4.61,0,0,0-.24,1.58,5.18,5.18,0,0,0,.22,1.63,3.12,3.12,0,0,0,.59,1.1,2.33,2.33,0,0,0,.84.63,2.45,2.45,0,0,0,1,.2,2.9,2.9,0,0,0,2.44-1.3Z"/><path class="cls-1" d="M48.39,432.77a1.14,1.14,0,0,1-.79-.31,1.08,1.08,0,0,1,0-1.55,1.06,1.06,0,0,1,.79-.32,1.09,1.09,0,0,1,.78.32,1.05,1.05,0,0,1,0,1.55A1.17,1.17,0,0,1,48.39,432.77Zm-.88,11.82v-9.4h1.76v9.4Z"/><path class="cls-1" d="M59.9,440.09H53.16v.08a3.21,3.21,0,0,0,.85,2.4,3.16,3.16,0,0,0,2.31.84,6.91,6.91,0,0,0,1.35-.12,7.56,7.56,0,0,0,1.29-.41l.36,1.31a7.16,7.16,0,0,1-1.37.42,9.06,9.06,0,0,1-1.69.16,6.53,6.53,0,0,1-1.91-.28,4.38,4.38,0,0,1-1.57-.87,4.06,4.06,0,0,1-1.07-1.51,5.65,5.65,0,0,1-.39-2.2,5.75,5.75,0,0,1,.33-2,4.41,4.41,0,0,1,.93-1.54,4.2,4.2,0,0,1,1.45-1,4.82,4.82,0,0,1,1.91-.36,4.26,4.26,0,0,1,1.63.31,3.58,3.58,0,0,1,1.25.84,3.71,3.71,0,0,1,.8,1.3,4.93,4.93,0,0,1,.28,1.68Zm-1.82-1.26a3.73,3.73,0,0,0-.13-1,2.27,2.27,0,0,0-.4-.79,1.85,1.85,0,0,0-.69-.54,2.26,2.26,0,0,0-1-.2,2.38,2.38,0,0,0-1.79.7,3.1,3.1,0,0,0-.85,1.84Z"/><path class="cls-1" d="M63.63,444.59H61.87v-9.4h1.38l.26,1.3A5,5,0,0,1,65,435.42a4,4,0,0,1,1.77-.38,3.09,3.09,0,0,1,2.26.82,3,3,0,0,1,.82,2.25v6.48H68.07v-6.22a2,2,0,0,0-.45-1.37,1.74,1.74,0,0,0-1.37-.51,3.6,3.6,0,0,0-2.62,1.26Z"/><path class="cls-1" d="M83.29,435.19H85v9.4H83.67l-.25-1.18h-.07a4.35,4.35,0,0,1-1.29,1,4,4,0,0,1-1.79.4,3.37,3.37,0,0,1-2.37-.83,3.25,3.25,0,0,1-.92-2.51v-6.24h1.77v6a2.81,2.81,0,0,0,.15,1,1.88,1.88,0,0,0,.39.67,1.71,1.71,0,0,0,.59.36,2.55,2.55,0,0,0,.74.11,3.06,3.06,0,0,0,1.44-.34,5,5,0,0,0,1.23-.94Z"/><path class="cls-1" d="M89.35,444.59H87.59v-9.4H89l.26,1.3a5,5,0,0,1,1.47-1.07,4,4,0,0,1,1.77-.38,3.09,3.09,0,0,1,2.26.82,3,3,0,0,1,.82,2.25v6.48H93.79v-6.22a2,2,0,0,0-.45-1.37,1.74,1.74,0,0,0-1.37-.51,3.6,3.6,0,0,0-2.62,1.26Z"/><path class="cls-1" d="M104.4,430.38h1.75v14.21h-1.48l-.21-1h-.06a4.6,4.6,0,0,1-1.25.94,3.91,3.91,0,0,1-1.6.29,3.63,3.63,0,0,1-1.47-.31,3.76,3.76,0,0,1-1.27-.89,4.47,4.47,0,0,1-.89-1.51,6.09,6.09,0,0,1-.35-2.15,6.57,6.57,0,0,1,.29-2,4.55,4.55,0,0,1,.83-1.54,3.63,3.63,0,0,1,1.33-1,4.5,4.5,0,0,1,1.77-.34,4.19,4.19,0,0,1,1.42.24,3.61,3.61,0,0,1,1.19.68Zm0,7.07a2.86,2.86,0,0,0-3.28-.87,2.22,2.22,0,0,0-.89.61,2.92,2.92,0,0,0-.64,1.08,4.86,4.86,0,0,0-.24,1.58,5.49,5.49,0,0,0,.22,1.63,3.3,3.3,0,0,0,.6,1.1,2.38,2.38,0,0,0,.83.63,2.5,2.5,0,0,0,1,.2,2.9,2.9,0,0,0,2.44-1.3Z"/><path class="cls-1" d="M112.17,435.19h1.88l1.6,5.92.36,2.1h.08l.44-2.1,1.62-5.92h1.9l1.66,5.92.42,2.1h.08l.44-2.1,1.56-5.92H126l-2.86,9.4h-2l-1.6-5.76-.46-2.32-.48,2.32L117,444.59h-1.9Z"/><path class="cls-1" d="M133.82,435.19h1.76v9.4H134.2l-.24-1.18h-.08a4.35,4.35,0,0,1-1.29,1,3.93,3.93,0,0,1-1.79.4,3.37,3.37,0,0,1-2.37-.83,3.24,3.24,0,0,1-.91-2.51v-6.24h1.76v6a3,3,0,0,0,.15,1,1.76,1.76,0,0,0,.4.67,1.54,1.54,0,0,0,.59.36,2.45,2.45,0,0,0,.74.11,3.12,3.12,0,0,0,1.44-.34,5.19,5.19,0,0,0,1.22-.94Z"/><path class="cls-1" d="M138.1,444.59v-9.4h1.32l.3,1.88a3,3,0,0,1,1.12-1.46,3,3,0,0,1,1.8-.57,4.12,4.12,0,0,1,.86.08,5,5,0,0,1,.62.21l-.34,1.54a2.77,2.77,0,0,0-.53-.2,2.42,2.42,0,0,0-.69-.08,2.65,2.65,0,0,0-1.07.2,2.32,2.32,0,0,0-.86.59,2.85,2.85,0,0,0-.58,1,4.09,4.09,0,0,0-.21,1.36v4.86Z"/><path class="cls-1" d="M151.66,430.38h1.76v14.21h-1.48l-.22-1h-.06a4.31,4.31,0,0,1-1.25.94,3.86,3.86,0,0,1-1.59.29,3.56,3.56,0,0,1-1.47-.31,3.67,3.67,0,0,1-1.27-.89,4.66,4.66,0,0,1-.9-1.51,6.1,6.1,0,0,1-.34-2.15,6.57,6.57,0,0,1,.29-2,4.38,4.38,0,0,1,.83-1.54,3.59,3.59,0,0,1,1.32-1,4.52,4.52,0,0,1,1.78-.34,4.18,4.18,0,0,1,1.41.24,3.52,3.52,0,0,1,1.19.68Zm0,7.07a2.89,2.89,0,0,0-2.22-1.07,2.92,2.92,0,0,0-1.05.2,2.25,2.25,0,0,0-.9.61,3.05,3.05,0,0,0-.63,1.08,4.61,4.61,0,0,0-.24,1.58,5.18,5.18,0,0,0,.22,1.63,3.29,3.29,0,0,0,.59,1.1,2.51,2.51,0,0,0,.84.63,2.45,2.45,0,0,0,.95.2,2.9,2.9,0,0,0,2.44-1.3Z"/><path class="cls-1" d="M164,440.09h-6.74v.08a3.21,3.21,0,0,0,.85,2.4,3.16,3.16,0,0,0,2.31.84,6.91,6.91,0,0,0,1.35-.12,7.56,7.56,0,0,0,1.29-.41l.36,1.31a7.16,7.16,0,0,1-1.37.42,9.06,9.06,0,0,1-1.69.16,6.53,6.53,0,0,1-1.91-.28,4.38,4.38,0,0,1-1.57-.87,4.06,4.06,0,0,1-1.07-1.51,5.65,5.65,0,0,1-.39-2.2,5.75,5.75,0,0,1,.33-2,4.41,4.41,0,0,1,.93-1.54,4.2,4.2,0,0,1,1.45-1,4.82,4.82,0,0,1,1.91-.36,4.26,4.26,0,0,1,1.63.31,3.58,3.58,0,0,1,1.25.84,3.71,3.71,0,0,1,.8,1.3,4.93,4.93,0,0,1,.28,1.68Zm-1.82-1.26a3.73,3.73,0,0,0-.13-1,2.27,2.27,0,0,0-.4-.79,1.85,1.85,0,0,0-.69-.54,2.26,2.26,0,0,0-1-.2,2.38,2.38,0,0,0-1.79.7,3.1,3.1,0,0,0-.85,1.84Z"/><path class="cls-1" d="M176.33,435.19h1.88l-3.5,9.4H173l-3.54-9.4h1.9l2.12,6.46.36,1.47h.08l.34-1.45Z"/><path class="cls-1" d="M188,439.79a6.06,6.06,0,0,1-.35,2.11,4.6,4.6,0,0,1-1,1.56,4.27,4.27,0,0,1-1.46,1,5,5,0,0,1-1.83.33,5.33,5.33,0,0,1-1.81-.31,4.18,4.18,0,0,1-1.44-.92,4.6,4.6,0,0,1-1-1.5,5.68,5.68,0,0,1-.35-2.05,5.59,5.59,0,0,1,.37-2.11,4.28,4.28,0,0,1,1-1.54,4.37,4.37,0,0,1,1.48-1,5.11,5.11,0,0,1,1.81-.33,5.25,5.25,0,0,1,1.81.31,3.71,3.71,0,0,1,1.44.9,4.08,4.08,0,0,1,1,1.49A5.4,5.4,0,0,1,188,439.79Zm-1.83.09a4.65,4.65,0,0,0-.25-1.59,3,3,0,0,0-.63-1.08,2.22,2.22,0,0,0-.89-.61,2.75,2.75,0,0,0-1-.19,3.29,3.29,0,0,0-1,.16,2.11,2.11,0,0,0-.88.55,2.93,2.93,0,0,0-.6,1.08,5,5,0,0,0-.23,1.68,5.14,5.14,0,0,0,.23,1.62,3.05,3.05,0,0,0,.64,1.09,2.44,2.44,0,0,0,.88.62,2.85,2.85,0,0,0,1,.2,3.21,3.21,0,0,0,1-.17,2.15,2.15,0,0,0,.88-.58,3.13,3.13,0,0,0,.62-1.08A5.41,5.41,0,0,0,186.21,439.88Z"/><path class="cls-1" d="M191.82,444.59h-1.76v-9.4h1.38l.26,1.3a5.29,5.29,0,0,1,1.47-1.07,4,4,0,0,1,1.77-.38,3.09,3.09,0,0,1,2.26.82,3,3,0,0,1,.82,2.25v6.48h-1.76v-6.22a2,2,0,0,0-.45-1.37,1.74,1.74,0,0,0-1.37-.51,3.62,3.62,0,0,0-2.62,1.26Z"/><path class="cls-1" d="M205.42,432H207l5.74,8c.21.3.42.6.62.91s.38.6.54.9h0c0-.47-.05-.94-.06-1.4s0-.94,0-1.41v-7h1.8v12.6h-1.6l-5.68-7.88c-.2-.28-.41-.6-.62-.95l-.6-1.05h0c0,.56.05,1.12.06,1.67s0,1.13,0,1.69v6.52h-1.8Z"/><path class="cls-1" d="M227.17,439.79a5.84,5.84,0,0,1-.36,2.11,4.44,4.44,0,0,1-1,1.56,4.31,4.31,0,0,1-1.47,1,4.91,4.91,0,0,1-1.82.33,5.33,5.33,0,0,1-1.81-.31,4.18,4.18,0,0,1-1.44-.92,4.6,4.6,0,0,1-1-1.5A5.68,5.68,0,0,1,218,440a5.8,5.8,0,0,1,.36-2.11,4.35,4.35,0,0,1,2.46-2.51,5.16,5.16,0,0,1,1.82-.33,5.25,5.25,0,0,1,1.81.31,3.71,3.71,0,0,1,1.44.9,4.08,4.08,0,0,1,1,1.49A5.4,5.4,0,0,1,227.17,439.79Zm-1.84.09a4.67,4.67,0,0,0-.24-1.59,3.14,3.14,0,0,0-.63-1.08,2.22,2.22,0,0,0-.89-.61,2.75,2.75,0,0,0-1-.19,3.29,3.29,0,0,0-1,.16,2.11,2.11,0,0,0-.88.55,3.09,3.09,0,0,0-.61,1.08,5.32,5.32,0,0,0-.23,1.68,4.85,4.85,0,0,0,.24,1.62,3.19,3.19,0,0,0,.63,1.09,2.56,2.56,0,0,0,.89.62,2.85,2.85,0,0,0,1,.2,3.21,3.21,0,0,0,1-.17,2.15,2.15,0,0,0,.88-.58,3,3,0,0,0,.61-1.08A5.13,5.13,0,0,0,225.33,439.88Z"/><path class="cls-1" d="M237.89,439.79a5.84,5.84,0,0,1-.36,2.11,4.44,4.44,0,0,1-1,1.56,4.31,4.31,0,0,1-1.47,1,5,5,0,0,1-1.82.33,5.25,5.25,0,0,1-1.81-.31,4,4,0,0,1-1.44-.92,4.3,4.3,0,0,1-1-1.5,5.47,5.47,0,0,1-.35-2.05,5.8,5.8,0,0,1,.36-2.11,4.35,4.35,0,0,1,2.46-2.51,5.12,5.12,0,0,1,1.82-.33,5.33,5.33,0,0,1,1.81.31,3.86,3.86,0,0,1,1.44.9,4.35,4.35,0,0,1,1,1.49A5.61,5.61,0,0,1,237.89,439.79Zm-1.84.09a4.67,4.67,0,0,0-.24-1.59,3.14,3.14,0,0,0-.63-1.08,2.29,2.29,0,0,0-.89-.61,2.83,2.83,0,0,0-1-.19,3.2,3.2,0,0,0-1,.16,2,2,0,0,0-.88.55,2.81,2.81,0,0,0-.61,1.08,5,5,0,0,0-.23,1.68,4.85,4.85,0,0,0,.24,1.62,3.19,3.19,0,0,0,.63,1.09,2.47,2.47,0,0,0,.89.62,2.76,2.76,0,0,0,1,.2,3.3,3.3,0,0,0,1-.17,2.29,2.29,0,0,0,.88-.58,3.28,3.28,0,0,0,.61-1.08A5.41,5.41,0,0,0,236.05,439.88Z"/><path class="cls-1" d="M243.84,444.77a4.26,4.26,0,0,1-1.23-.18,3.79,3.79,0,0,1-1-.48v5.08h-1.74V435h1.46l.26,1.23a5.58,5.58,0,0,1,1.22-.86,3.4,3.4,0,0,1,1.6-.37,3.78,3.78,0,0,1,3,1.21,4.94,4.94,0,0,1,1.08,3.44,6,6,0,0,1-.39,2.27,4.27,4.27,0,0,1-1,1.58,3.88,3.88,0,0,1-1.48.92A4.68,4.68,0,0,1,243.84,444.77Zm.18-8.28a2.55,2.55,0,0,0-1.46.41,4.28,4.28,0,0,0-1,.83v5a3.63,3.63,0,0,0,1,.5,3.81,3.81,0,0,0,1,.16,3.17,3.17,0,0,0,1.08-.2,2.37,2.37,0,0,0,1-.62,3.36,3.36,0,0,0,.68-1.14,4.83,4.83,0,0,0,.26-1.72,4,4,0,0,0-.63-2.37A2.25,2.25,0,0,0,244,436.49Z"/><path class="cls-1" d="M256.73,435.19h1.76v9.4h-1.38l-.24-1.18h-.08a4.35,4.35,0,0,1-1.29,1,3.9,3.9,0,0,1-1.79.4,3.41,3.41,0,0,1-2.37-.83,3.24,3.24,0,0,1-.91-2.51v-6.24h1.76v6a3,3,0,0,0,.15,1,1.76,1.76,0,0,0,.4.67,1.62,1.62,0,0,0,.59.36,2.5,2.5,0,0,0,.74.11,3.12,3.12,0,0,0,1.44-.34,5,5,0,0,0,1.22-.94Z"/><path class="cls-1" d="M261,444.59v-9.4h1.32l.3,1.88a3.07,3.07,0,0,1,1.12-1.46,3,3,0,0,1,1.8-.57,4,4,0,0,1,.86.08,4.08,4.08,0,0,1,.62.21l-.34,1.54a2.54,2.54,0,0,0-.53-.2,2.34,2.34,0,0,0-.69-.08,2.72,2.72,0,0,0-1.07.2,2.5,2.5,0,0,0-.86.59,3,3,0,0,0-.58,1,4.09,4.09,0,0,0-.21,1.36v4.86Z"/><path class="cls-1" d="M277.27,432a7.59,7.59,0,0,1,2.48.38,5.41,5.41,0,0,1,2,1.13,5,5,0,0,1,1.3,1.87,6.76,6.76,0,0,1,.47,2.64,7.64,7.64,0,0,1-.56,3.08,5.33,5.33,0,0,1-1.51,2,5.76,5.76,0,0,1-2.2,1.13,10.28,10.28,0,0,1-2.65.34h-3.4V432ZM275,443.07h1.38a8.4,8.4,0,0,0,1.88-.21,4.11,4.11,0,0,0,1.63-.78,4,4,0,0,0,1.15-1.55,6.12,6.12,0,0,0,.44-2.52,5.44,5.44,0,0,0-.32-1.92,3.72,3.72,0,0,0-.92-1.41,3.85,3.85,0,0,0-1.45-.87,5.59,5.59,0,0,0-1.89-.3H275Z"/><path class="cls-1" d="M285.59,436c.32-.16.62-.31.9-.43a5.7,5.7,0,0,1,.84-.31,6.25,6.25,0,0,1,.86-.18,7.22,7.22,0,0,1,1-.07,5.78,5.78,0,0,1,1.43.17,2.78,2.78,0,0,1,1.12.58,2.45,2.45,0,0,1,.73,1,4.23,4.23,0,0,1,.26,1.62v6.13h-1.46l-.22-1h0a3.51,3.51,0,0,1-1.36.95,4.74,4.74,0,0,1-1.64.28,4.15,4.15,0,0,1-1.25-.19,3.15,3.15,0,0,1-1-.54,2.57,2.57,0,0,1-.65-.85,2.73,2.73,0,0,1-.23-1.12,2.52,2.52,0,0,1,1.17-2.25,5.48,5.48,0,0,1,3.09-.78h1.8v-.79a1.58,1.58,0,0,0-.52-1.39,2.35,2.35,0,0,0-1.4-.37,4.66,4.66,0,0,0-1.19.17,6.62,6.62,0,0,0-1.53.65Zm5.34,4.22-1.48,0a3.63,3.63,0,0,0-2.13.53,1.45,1.45,0,0,0-.63,1.19,1.62,1.62,0,0,0,.14.7,1.23,1.23,0,0,0,.37.46,1.87,1.87,0,0,0,.54.23,3.49,3.49,0,0,0,.65.06,3.29,3.29,0,0,0,1.34-.3,3.13,3.13,0,0,0,1.2-1Z"/><path class="cls-1" d="M300,436.51h-2.76V442a1.1,1.1,0,0,0,.35,1,1.58,1.58,0,0,0,.91.24,4.78,4.78,0,0,0,.88-.09,6.42,6.42,0,0,0,.84-.21l.28,1.34a6.68,6.68,0,0,1-1,.27,6.82,6.82,0,0,1-1.3.13,2.93,2.93,0,0,1-2-.61,2.37,2.37,0,0,1-.64-1.77v-5.7h-1.4v-1.32h1.4v-3h1.74v3H300Z"/><path class="cls-1" d="M301.32,435.19h1.88l2,5.38.68,2.24h0l.68-2.24,1.82-5.38h1.8l-3.62,10.19a7.35,7.35,0,0,1-1.51,2.66,5.41,5.41,0,0,1-2.17,1.41l-.76-1.41a5.07,5.07,0,0,0,1.67-1,4.54,4.54,0,0,0,1.13-1.89l.18-.53Z"/><path class="cls-1" d="M319.42,440.09h-6.74v.08a3.21,3.21,0,0,0,.85,2.4,3.16,3.16,0,0,0,2.31.84,6.91,6.91,0,0,0,1.35-.12,7.56,7.56,0,0,0,1.29-.41l.36,1.31a7.16,7.16,0,0,1-1.37.42,9.06,9.06,0,0,1-1.69.16,6.53,6.53,0,0,1-1.91-.28,4.38,4.38,0,0,1-1.57-.87,4.06,4.06,0,0,1-1.07-1.51,5.65,5.65,0,0,1-.39-2.2,5.75,5.75,0,0,1,.33-2,4.41,4.41,0,0,1,.93-1.54,4.2,4.2,0,0,1,1.45-1,4.82,4.82,0,0,1,1.91-.36,4.26,4.26,0,0,1,1.63.31,3.58,3.58,0,0,1,1.25.84,3.71,3.71,0,0,1,.8,1.3,4.93,4.93,0,0,1,.28,1.68Zm-1.82-1.26a3.73,3.73,0,0,0-.13-1,2.27,2.27,0,0,0-.4-.79,1.85,1.85,0,0,0-.69-.54,2.26,2.26,0,0,0-1-.2,2.38,2.38,0,0,0-1.79.7,3.1,3.1,0,0,0-.85,1.84Z"/><path class="cls-1" d="M27.66,459.19h1.76v9.4H28l-.24-1.18h-.08a4.35,4.35,0,0,1-1.29,1,3.9,3.9,0,0,1-1.79.4,3.41,3.41,0,0,1-2.37-.83,3.24,3.24,0,0,1-.91-2.51v-6.24h1.76v6a3,3,0,0,0,.15,1,1.76,1.76,0,0,0,.4.67,1.62,1.62,0,0,0,.59.36,2.5,2.5,0,0,0,.74.11,3.12,3.12,0,0,0,1.44-.34,5,5,0,0,0,1.22-.94Z"/><path class="cls-1" d="M33.72,468.59H32v-9.4h1.38l.26,1.3a5.29,5.29,0,0,1,1.47-1.07,4,4,0,0,1,1.77-.38,3.09,3.09,0,0,1,2.26.82,3,3,0,0,1,.82,2.25v6.48H38.16v-6.22a2,2,0,0,0-.45-1.37,1.74,1.74,0,0,0-1.37-.51,3.62,3.62,0,0,0-2.62,1.26Z"/><path class="cls-1" d="M48.77,454.38h1.76v14.21H49.05l-.22-1h-.06a4.31,4.31,0,0,1-1.25.94,3.86,3.86,0,0,1-1.59.29,3.56,3.56,0,0,1-1.47-.31,3.67,3.67,0,0,1-1.27-.89,4.66,4.66,0,0,1-.9-1.51,6.1,6.1,0,0,1-.34-2.15,6.57,6.57,0,0,1,.29-2,4.38,4.38,0,0,1,.83-1.54,3.59,3.59,0,0,1,1.32-1,4.52,4.52,0,0,1,1.78-.34,4.18,4.18,0,0,1,1.41.24,3.52,3.52,0,0,1,1.19.68Zm0,7.07a2.89,2.89,0,0,0-2.22-1.07,2.92,2.92,0,0,0-1,.2,2.25,2.25,0,0,0-.9.61,3.05,3.05,0,0,0-.63,1.08,4.61,4.61,0,0,0-.24,1.58,5.18,5.18,0,0,0,.22,1.63,3.29,3.29,0,0,0,.59,1.1,2.51,2.51,0,0,0,.84.63,2.45,2.45,0,0,0,.95.2,2.9,2.9,0,0,0,2.44-1.3Z"/><path class="cls-1" d="M57.93,456h4a5.85,5.85,0,0,1,1.78.25,3.82,3.82,0,0,1,1.38.74,3.17,3.17,0,0,1,.9,1.2,4,4,0,0,1,.32,1.63,4,4,0,0,1-.34,1.73,3.35,3.35,0,0,1-1,1.21,4.06,4.06,0,0,1-1.46.71,6.75,6.75,0,0,1-1.86.25H59.77v4.88H57.93Zm1.84,6.22h1.14a10,10,0,0,0,1.38-.1,3.25,3.25,0,0,0,1.09-.36,1.91,1.91,0,0,0,.71-.73,2.49,2.49,0,0,0,.26-1.19,2.26,2.26,0,0,0-.25-1.12,2.15,2.15,0,0,0-.65-.72,2.55,2.55,0,0,0-.92-.4,4.73,4.73,0,0,0-1.06-.13h-1.7Z"/><path class="cls-1" d="M68.05,460c.32-.16.62-.31.9-.43a5.7,5.7,0,0,1,.84-.31,6.25,6.25,0,0,1,.86-.18,7.22,7.22,0,0,1,1-.07,5.78,5.78,0,0,1,1.43.17,2.78,2.78,0,0,1,1.12.58,2.45,2.45,0,0,1,.73,1,4.23,4.23,0,0,1,.26,1.62v6.13H73.69l-.22-1h0a3.51,3.51,0,0,1-1.36.95,4.74,4.74,0,0,1-1.64.28,4.15,4.15,0,0,1-1.25-.19,3.15,3.15,0,0,1-1-.54,2.57,2.57,0,0,1-.65-.85,2.73,2.73,0,0,1-.23-1.12,2.52,2.52,0,0,1,1.17-2.25,5.48,5.48,0,0,1,3.09-.78h1.8v-.79a1.58,1.58,0,0,0-.52-1.39,2.33,2.33,0,0,0-1.4-.37,4.66,4.66,0,0,0-1.19.17,6.62,6.62,0,0,0-1.53.65Zm5.34,4.22-1.48,0a3.63,3.63,0,0,0-2.13.53,1.45,1.45,0,0,0-.63,1.19,1.62,1.62,0,0,0,.14.7,1.23,1.23,0,0,0,.37.46,1.87,1.87,0,0,0,.54.23,3.49,3.49,0,0,0,.65.06,3.29,3.29,0,0,0,1.34-.3,3.13,3.13,0,0,0,1.2-1Z"/><path class="cls-1" d="M77.65,468.59V454.38h1.73v14.21Z"/><path class="cls-1" d="M82,468.59V454.38H83.7v14.21Z"/><path class="cls-1" d="M86.36,460c.32-.16.62-.31.9-.43a5.7,5.7,0,0,1,.84-.31,6.25,6.25,0,0,1,.86-.18,7,7,0,0,1,1-.07,5.78,5.78,0,0,1,1.43.17,2.85,2.85,0,0,1,1.12.58,2.54,2.54,0,0,1,.73,1,4.43,4.43,0,0,1,.26,1.62v6.13H92l-.22-1h0a3.59,3.59,0,0,1-1.36.95,4.74,4.74,0,0,1-1.64.28,4.15,4.15,0,0,1-1.25-.19,3.15,3.15,0,0,1-1-.54,2.45,2.45,0,0,1-.65-.85,2.73,2.73,0,0,1-.23-1.12,2.52,2.52,0,0,1,1.17-2.25,5.48,5.48,0,0,1,3.09-.78h1.8v-.79a1.58,1.58,0,0,0-.52-1.39,2.35,2.35,0,0,0-1.4-.37,4.6,4.6,0,0,0-1.19.17,6.27,6.27,0,0,0-1.53.65Zm5.34,4.22-1.48,0a3.63,3.63,0,0,0-2.13.53,1.45,1.45,0,0,0-.63,1.19,1.62,1.62,0,0,0,.14.7,1.14,1.14,0,0,0,.37.46,1.66,1.66,0,0,0,.54.23,3.42,3.42,0,0,0,.65.06,3.15,3.15,0,0,0,2.54-1.29Z"/><path class="cls-1" d="M101.45,459.19h1.88l-3.5,9.4H98.11l-3.54-9.4h1.9l2.12,6.46.36,1.47H99l.34-1.45Z"/><path class="cls-1" d="M105.89,456.77a1.14,1.14,0,0,1-.79-.31,1.08,1.08,0,0,1,0-1.55,1.06,1.06,0,0,1,.79-.32,1.09,1.09,0,0,1,.78.32,1.05,1.05,0,0,1,0,1.55A1.17,1.17,0,0,1,105.89,456.77ZM105,468.59v-9.4h1.76v9.4Z"/><path class="cls-1" d="M114.33,468.59V456h1.84v5.7l5.3-5.7h2.28l-5.2,5.58,5.6,7h-2.32l-4.6-5.76L116.17,464v4.63Z"/><path class="cls-1" d="M125.63,460c.32-.16.62-.31.9-.43a5.7,5.7,0,0,1,.84-.31,6.25,6.25,0,0,1,.86-.18,7.22,7.22,0,0,1,1-.07,5.78,5.78,0,0,1,1.43.17,2.78,2.78,0,0,1,1.12.58,2.45,2.45,0,0,1,.73,1,4.23,4.23,0,0,1,.26,1.62v6.13h-1.46l-.22-1h0a3.51,3.51,0,0,1-1.36.95,4.74,4.74,0,0,1-1.64.28,4.15,4.15,0,0,1-1.25-.19,3.15,3.15,0,0,1-1-.54,2.57,2.57,0,0,1-.65-.85,2.73,2.73,0,0,1-.23-1.12,2.52,2.52,0,0,1,1.17-2.25,5.48,5.48,0,0,1,3.09-.78H131v-.79a1.58,1.58,0,0,0-.52-1.39,2.33,2.33,0,0,0-1.4-.37,4.66,4.66,0,0,0-1.19.17,6.62,6.62,0,0,0-1.53.65Zm5.34,4.22-1.48,0a3.63,3.63,0,0,0-2.13.53,1.45,1.45,0,0,0-.63,1.19,1.62,1.62,0,0,0,.14.7,1.23,1.23,0,0,0,.37.46,1.87,1.87,0,0,0,.54.23,3.49,3.49,0,0,0,.65.06,3.29,3.29,0,0,0,1.34-.3,3.13,3.13,0,0,0,1.2-1Z"/><path class="cls-1" d="M135.17,468.59v-9.4h1.32l.3,1.88a3.07,3.07,0,0,1,1.12-1.46,3,3,0,0,1,1.8-.57,4.05,4.05,0,0,1,.86.08,4.5,4.5,0,0,1,.62.21l-.34,1.54a2.77,2.77,0,0,0-.53-.2,2.34,2.34,0,0,0-.69-.08,2.68,2.68,0,0,0-1.07.2,2.41,2.41,0,0,0-.86.59,2.85,2.85,0,0,0-.58,1,4.09,4.09,0,0,0-.21,1.36v4.86Z"/><path class="cls-1" d="M142.65,460c.32-.16.62-.31.9-.43a5.7,5.7,0,0,1,.84-.31,6.25,6.25,0,0,1,.86-.18,7,7,0,0,1,1-.07,5.78,5.78,0,0,1,1.43.17,2.85,2.85,0,0,1,1.12.58,2.54,2.54,0,0,1,.73,1,4.43,4.43,0,0,1,.26,1.62v6.13h-1.46l-.22-1h0a3.59,3.59,0,0,1-1.36.95,4.74,4.74,0,0,1-1.64.28,4.15,4.15,0,0,1-1.25-.19,3.15,3.15,0,0,1-1-.54,2.45,2.45,0,0,1-.65-.85,2.73,2.73,0,0,1-.23-1.12,2.52,2.52,0,0,1,1.17-2.25,5.48,5.48,0,0,1,3.09-.78H148v-.79a1.58,1.58,0,0,0-.52-1.39,2.35,2.35,0,0,0-1.4-.37,4.6,4.6,0,0,0-1.19.17,6.27,6.27,0,0,0-1.53.65Zm5.34,4.22-1.48,0a3.63,3.63,0,0,0-2.13.53,1.45,1.45,0,0,0-.63,1.19,1.62,1.62,0,0,0,.14.7,1.14,1.14,0,0,0,.37.46,1.66,1.66,0,0,0,.54.23,3.42,3.42,0,0,0,.65.06,3.15,3.15,0,0,0,2.54-1.29Z"/><path class="cls-1" d="M154,468.59h-1.76v-9.4h1.36l.26,1.3a5.38,5.38,0,0,1,1.42-1.05,3.91,3.91,0,0,1,1.82-.4,3,3,0,0,1,1.64.42,2.59,2.59,0,0,1,1,1.13,4.89,4.89,0,0,1,1.54-1.14,4.23,4.23,0,0,1,1.86-.41,2.78,2.78,0,0,1,2.17.82,3.27,3.27,0,0,1,.73,2.25v6.48h-1.76v-6.16a2.29,2.29,0,0,0-.4-1.44,1.58,1.58,0,0,0-1.32-.5,3.46,3.46,0,0,0-2.54,1.22,1.23,1.23,0,0,1,0,.2v6.68h-1.76v-6.16a2.29,2.29,0,0,0-.4-1.44,1.58,1.58,0,0,0-1.32-.5,3.35,3.35,0,0,0-2.52,1.28Z"/><path class="cls-1" d="M177.17,463.88a5.65,5.65,0,0,1-.34,2,4.82,4.82,0,0,1-.92,1.54,4.11,4.11,0,0,1-1.36,1,4.21,4.21,0,0,1-1.66.34,4.65,4.65,0,0,1-1.61-.26,4.19,4.19,0,0,1-1.29-.8h0l-.18.88h-1.26V454.38h1.74v6a4.09,4.09,0,0,1,3-1.33,3.48,3.48,0,0,1,2.85,1.29A5.44,5.44,0,0,1,177.17,463.88Zm-1.84,0a4.22,4.22,0,0,0-.66-2.49,2.13,2.13,0,0,0-1.86-.93,2.77,2.77,0,0,0-1.38.34,4.3,4.3,0,0,0-1.18,1v4.56a3.66,3.66,0,0,0,.95.77,2.54,2.54,0,0,0,1.23.29,3.14,3.14,0,0,0,1.09-.2,2.65,2.65,0,0,0,.93-.63,3.14,3.14,0,0,0,.64-1.09A4.69,4.69,0,0,0,175.33,463.91Z"/><path class="cls-1" d="M187.26,464.09h-6.74v.08a3.22,3.22,0,0,0,.86,2.4,3.15,3.15,0,0,0,2.3.84,6.77,6.77,0,0,0,1.35-.12,7,7,0,0,0,1.29-.41l.36,1.31a6.74,6.74,0,0,1-1.37.42,9,9,0,0,1-1.69.16,6.58,6.58,0,0,1-1.91-.28,4.42,4.42,0,0,1-1.56-.87,4.08,4.08,0,0,1-1.08-1.51,5.65,5.65,0,0,1-.39-2.2,5.75,5.75,0,0,1,.33-2,4.41,4.41,0,0,1,.93-1.54,4.24,4.24,0,0,1,1.46-1,4.8,4.8,0,0,1,1.9-.36,4.23,4.23,0,0,1,1.63.31,3.57,3.57,0,0,1,2,2.14,4.7,4.7,0,0,1,.28,1.68Zm-1.82-1.26a3.35,3.35,0,0,0-.13-1,2.11,2.11,0,0,0-.4-.79,1.85,1.85,0,0,0-.69-.54,2.26,2.26,0,0,0-1-.2,2.41,2.41,0,0,0-1.79.7,3.16,3.16,0,0,0-.85,1.84Z"/><path class="cls-1" d="M189.29,468.59V454.38H191v14.21Z"/><path class="cls-1" d="M195.33,465.15v3.44h-1.74V454.38h1.74v8.85l3.78-4h2.18l-3.86,4,4,5.44h-2.08l-3.12-4.38Z"/><path class="cls-1" d="M202.89,460c.32-.16.62-.31.9-.43a5.7,5.7,0,0,1,.84-.31,6.25,6.25,0,0,1,.86-.18,7.22,7.22,0,0,1,1-.07,5.78,5.78,0,0,1,1.43.17,2.78,2.78,0,0,1,1.12.58,2.45,2.45,0,0,1,.73,1,4.23,4.23,0,0,1,.26,1.62v6.13h-1.46l-.22-1h0a3.51,3.51,0,0,1-1.36.95,4.74,4.74,0,0,1-1.64.28,4.15,4.15,0,0,1-1.25-.19,3.15,3.15,0,0,1-1-.54,2.57,2.57,0,0,1-.65-.85,2.73,2.73,0,0,1-.23-1.12,2.52,2.52,0,0,1,1.17-2.25,5.48,5.48,0,0,1,3.09-.78h1.8v-.79a1.58,1.58,0,0,0-.52-1.39,2.33,2.33,0,0,0-1.4-.37,4.66,4.66,0,0,0-1.19.17,6.62,6.62,0,0,0-1.53.65Zm5.34,4.22-1.48,0a3.63,3.63,0,0,0-2.13.53A1.45,1.45,0,0,0,204,466a1.62,1.62,0,0,0,.14.7,1.23,1.23,0,0,0,.37.46,1.87,1.87,0,0,0,.54.23,3.49,3.49,0,0,0,.65.06,3.29,3.29,0,0,0,1.34-.3,3.13,3.13,0,0,0,1.2-1Z"/><path class="cls-1" d="M212.43,468.59v-9.4h1.32l.3,1.88a3.07,3.07,0,0,1,1.12-1.46A3,3,0,0,1,217,459a4.12,4.12,0,0,1,.86.08,5,5,0,0,1,.62.21l-.34,1.54a2.77,2.77,0,0,0-.53-.2,2.42,2.42,0,0,0-.69-.08,2.65,2.65,0,0,0-1.07.2,2.41,2.41,0,0,0-.86.59,2.85,2.85,0,0,0-.58,1,4.09,4.09,0,0,0-.21,1.36v4.86Z"/><path class="cls-1" d="M232.35,464.09h-6.74v.08a3.21,3.21,0,0,0,.85,2.4,3.18,3.18,0,0,0,2.31.84,6.84,6.84,0,0,0,1.35-.12,7.56,7.56,0,0,0,1.29-.41l.36,1.31a7.16,7.16,0,0,1-1.37.42,9.06,9.06,0,0,1-1.69.16,6.53,6.53,0,0,1-1.91-.28,4.47,4.47,0,0,1-1.57-.87,4.18,4.18,0,0,1-1.07-1.51,5.65,5.65,0,0,1-.39-2.2,5.75,5.75,0,0,1,.33-2,4.41,4.41,0,0,1,.93-1.54,4.2,4.2,0,0,1,1.45-1,4.82,4.82,0,0,1,1.91-.36,4.26,4.26,0,0,1,1.63.31,3.57,3.57,0,0,1,2,2.14,4.93,4.93,0,0,1,.28,1.68Zm-1.82-1.26a3.73,3.73,0,0,0-.13-1,2.27,2.27,0,0,0-.4-.79,1.85,1.85,0,0,0-.69-.54,2.26,2.26,0,0,0-1-.2,2.38,2.38,0,0,0-1.79.7,3.1,3.1,0,0,0-.85,1.84Z"/><path class="cls-1" d="M236.08,468.59h-1.76v-9.4h1.38l.26,1.3a5,5,0,0,1,1.47-1.07,4,4,0,0,1,1.77-.38,3.09,3.09,0,0,1,2.26.82,3,3,0,0,1,.82,2.25v6.48h-1.76v-6.22a2,2,0,0,0-.45-1.37,1.74,1.74,0,0,0-1.37-.51,3.6,3.6,0,0,0-2.62,1.26Z"/><path class="cls-1" d="M249.69,460.51h-2.76V466a1.07,1.07,0,0,0,.35,1,1.56,1.56,0,0,0,.91.24,4.86,4.86,0,0,0,.88-.09,6.42,6.42,0,0,0,.84-.21l.28,1.34a6.68,6.68,0,0,1-1,.27,6.9,6.9,0,0,1-1.3.13,2.89,2.89,0,0,1-2-.61,2.33,2.33,0,0,1-.64-1.77v-5.7h-1.4v-1.32h1.4v-3h1.74v3h2.76Z"/><path class="cls-1" d="M251,459.19h1.88l1.6,5.92.36,2.1H255l.44-2.1,1.62-5.92h1.9l1.66,5.92.42,2.1h.08l.44-2.1,1.56-5.92h1.8l-2.86,9.4h-2l-1.6-5.76-.46-2.32-.48,2.32-1.64,5.76h-1.9Z"/><path class="cls-1" d="M274.77,463.79a5.84,5.84,0,0,1-.36,2.11,4.44,4.44,0,0,1-1,1.56,4.31,4.31,0,0,1-1.47,1,5,5,0,0,1-1.82.33,5.29,5.29,0,0,1-1.81-.31,4.18,4.18,0,0,1-1.44-.92,4.3,4.3,0,0,1-1-1.5,5.68,5.68,0,0,1-.35-2.05,5.8,5.8,0,0,1,.36-2.11,4.35,4.35,0,0,1,2.46-2.51,5.16,5.16,0,0,1,1.82-.33,5.29,5.29,0,0,1,1.81.31,3.86,3.86,0,0,1,1.44.9,4.08,4.08,0,0,1,1,1.49A5.61,5.61,0,0,1,274.77,463.79Zm-1.84.09a4.67,4.67,0,0,0-.24-1.59,3.14,3.14,0,0,0-.63-1.08,2.29,2.29,0,0,0-.89-.61,2.75,2.75,0,0,0-1-.19,3.2,3.2,0,0,0-1,.16,2,2,0,0,0-.88.55,2.94,2.94,0,0,0-.61,1.08,5.32,5.32,0,0,0-.23,1.68,4.85,4.85,0,0,0,.24,1.62,3.19,3.19,0,0,0,.63,1.09,2.56,2.56,0,0,0,.89.62,2.76,2.76,0,0,0,1,.2,3.21,3.21,0,0,0,1-.17,2.22,2.22,0,0,0,.88-.58,3.12,3.12,0,0,0,.61-1.08A5.41,5.41,0,0,0,272.93,463.88Z"/><path class="cls-1" d="M276.77,468.59v-9.4h1.32l.3,1.88a3,3,0,0,1,1.12-1.46,3,3,0,0,1,1.8-.57,4.12,4.12,0,0,1,.86.08,5,5,0,0,1,.62.21l-.34,1.54a2.77,2.77,0,0,0-.53-.2,2.42,2.42,0,0,0-.69-.08,2.65,2.65,0,0,0-1.07.2,2.32,2.32,0,0,0-.86.59,2.85,2.85,0,0,0-.58,1,4.09,4.09,0,0,0-.21,1.36v4.86Z"/><path class="cls-1" d="M288.29,454.29a4.5,4.5,0,0,1,1.17.16,5.37,5.37,0,0,1,1.09.4l-.36,1.22a4.48,4.48,0,0,0-.76-.25,3.16,3.16,0,0,0-.76-.09,1.61,1.61,0,0,0-1.37.54,3,3,0,0,0-.41,1.84v1.08h2.86v1.32h-2.86v8.08h-1.74v-8.08h-1.38v-1.32h1.38v-1.66a3.36,3.36,0,0,1,.81-2.41A3.11,3.11,0,0,1,288.29,454.29Z"/><path class="cls-1" d="M299.15,464.09h-6.74v.08a3.21,3.21,0,0,0,.85,2.4,3.16,3.16,0,0,0,2.31.84,6.91,6.91,0,0,0,1.35-.12,7.56,7.56,0,0,0,1.29-.41l.36,1.31a7.16,7.16,0,0,1-1.37.42,9.06,9.06,0,0,1-1.69.16,6.53,6.53,0,0,1-1.91-.28,4.38,4.38,0,0,1-1.57-.87,4.06,4.06,0,0,1-1.07-1.51,5.65,5.65,0,0,1-.39-2.2,5.75,5.75,0,0,1,.33-2,4.41,4.41,0,0,1,.93-1.54,4.2,4.2,0,0,1,1.45-1,4.82,4.82,0,0,1,1.91-.36,4.26,4.26,0,0,1,1.63.31,3.58,3.58,0,0,1,1.25.84,3.71,3.71,0,0,1,.8,1.3,4.93,4.93,0,0,1,.28,1.68Zm-1.82-1.26a3.73,3.73,0,0,0-.13-1,2.27,2.27,0,0,0-.4-.79,1.85,1.85,0,0,0-.69-.54,2.26,2.26,0,0,0-1-.2,2.38,2.38,0,0,0-1.79.7,3.1,3.1,0,0,0-.85,1.84Z"/><path class="cls-1" d="M302.88,468.59h-1.76v-9.4h1.38l.26,1.3a5,5,0,0,1,1.47-1.07A4,4,0,0,1,306,459a3.09,3.09,0,0,1,2.26.82,3,3,0,0,1,.82,2.25v6.48h-1.76v-6.22a2,2,0,0,0-.45-1.37,1.74,1.74,0,0,0-1.37-.51,3.6,3.6,0,0,0-2.62,1.26Z"/><path class="cls-1" d="M311.46,467.51a1.23,1.23,0,0,1,.36-.89,1.17,1.17,0,0,1,.86-.35,1.13,1.13,0,0,1,.85.35,1.34,1.34,0,0,1,0,1.81,1.2,1.2,0,0,1-.85.34,1.24,1.24,0,0,1-.86-.34A1.22,1.22,0,0,1,311.46,467.51Z"/><path class="cls-1" d="M25.14,479.81a10.34,10.34,0,0,1,1.78.15,6.49,6.49,0,0,1,1.7.55L28.18,482a8.08,8.08,0,0,0-1.55-.57,5.55,5.55,0,0,0-1.41-.17,2.87,2.87,0,0,0-1.8.5,1.65,1.65,0,0,0-.66,1.4,1.6,1.6,0,0,0,.49,1.22,4.28,4.28,0,0,0,1.61.8l1.26.4a4.66,4.66,0,0,1,2.43,1.47,3.34,3.34,0,0,1-.54,4.71,4.19,4.19,0,0,1-1.39.73,6.08,6.08,0,0,1-1.76.25,11.86,11.86,0,0,1-1.95-.17,7.81,7.81,0,0,1-2-.64l.44-1.5a8.06,8.06,0,0,0,1.68.63,7.43,7.43,0,0,0,1.72.2,3.31,3.31,0,0,0,1.84-.5,1.66,1.66,0,0,0,.76-1.48,2.15,2.15,0,0,0-.11-.68,1.69,1.69,0,0,0-.38-.59,2.91,2.91,0,0,0-.73-.51,6.66,6.66,0,0,0-1.16-.46l-1.26-.4a5.06,5.06,0,0,1-2.12-1.21,2.82,2.82,0,0,1-.74-2A3.32,3.32,0,0,1,22,480.78,4.61,4.61,0,0,1,25.14,479.81Z"/><path class="cls-1" d="M32.26,480.77a1.14,1.14,0,0,1-.79-.31,1.08,1.08,0,0,1,0-1.55,1.06,1.06,0,0,1,.79-.32,1.09,1.09,0,0,1,.78.32,1.05,1.05,0,0,1,0,1.55A1.17,1.17,0,0,1,32.26,480.77Zm-.88,11.82v-9.4h1.76v9.4Z"/><path class="cls-1" d="M43.77,488.09H37v.08a2.93,2.93,0,0,0,3.16,3.24,6.77,6.77,0,0,0,1.35-.12,7.56,7.56,0,0,0,1.29-.41l.36,1.31a7,7,0,0,1-1.37.42,9.06,9.06,0,0,1-1.69.16,6.53,6.53,0,0,1-1.91-.28,4.47,4.47,0,0,1-1.57-.87,4.18,4.18,0,0,1-1.07-1.51,5.65,5.65,0,0,1-.39-2.2,5.75,5.75,0,0,1,.33-2,4.41,4.41,0,0,1,.93-1.54,4.2,4.2,0,0,1,1.45-1,4.85,4.85,0,0,1,1.91-.36,4.26,4.26,0,0,1,1.63.31,3.49,3.49,0,0,1,1.25.84,3.57,3.57,0,0,1,.8,1.3,4.7,4.7,0,0,1,.28,1.68ZM42,486.83a3.35,3.35,0,0,0-.13-1,2.27,2.27,0,0,0-.4-.79,1.85,1.85,0,0,0-.69-.54,2.26,2.26,0,0,0-1-.2,2.4,2.4,0,0,0-1.79.7,3.16,3.16,0,0,0-.85,1.84Z"/><path class="cls-1" d="M51.45,480.77a1.14,1.14,0,0,1-.79-.31,1.08,1.08,0,0,1,0-1.55,1.06,1.06,0,0,1,.79-.32,1.09,1.09,0,0,1,.78.32,1.05,1.05,0,0,1,0,1.55A1.17,1.17,0,0,1,51.45,480.77Zm-.88,11.82v-9.4h1.76v9.4Z"/><path class="cls-1" d="M60.2,485a5.41,5.41,0,0,0-1.2-.44,5,5,0,0,0-1.08-.13,2.28,2.28,0,0,0-1.42.36,1.09,1.09,0,0,0-.46.93,1,1,0,0,0,.31.73,3.73,3.73,0,0,0,1.35.61l.6.18a5.13,5.13,0,0,1,2,1,2.22,2.22,0,0,1,.69,1.72,2.54,2.54,0,0,1-1,2.06,4,4,0,0,1-2.64.78,9.59,9.59,0,0,1-1.73-.16,6.54,6.54,0,0,1-1.43-.44l.42-1.38a7.16,7.16,0,0,0,1.26.45,5.78,5.78,0,0,0,1.37.17,2.82,2.82,0,0,0,1.44-.32,1.16,1.16,0,0,0,.53-1.06,1,1,0,0,0-.47-.91,5.94,5.94,0,0,0-1.31-.53l-.62-.21a4.65,4.65,0,0,1-1.93-1,2.22,2.22,0,0,1-.64-1.63,2.27,2.27,0,0,1,.27-1.1,2.31,2.31,0,0,1,.71-.84,3.1,3.1,0,0,1,1.06-.53,4.58,4.58,0,0,1,1.37-.2,8.26,8.26,0,0,1,1.45.14,5.9,5.9,0,0,1,1.43.43Z"/><path class="cls-1" d="M68,484.51H65.23V490a1.1,1.1,0,0,0,.35,1,1.58,1.58,0,0,0,.91.24,4.78,4.78,0,0,0,.88-.09,6.42,6.42,0,0,0,.84-.21l.28,1.34a6.68,6.68,0,0,1-1,.27,6.82,6.82,0,0,1-1.3.13,2.93,2.93,0,0,1-2-.61,2.33,2.33,0,0,1-.64-1.77v-5.7h-1.4v-1.32h1.4v-3h1.74v3H68Z"/><path class="cls-1" d="M82.77,488.09H76v.08a3.21,3.21,0,0,0,.85,2.4,3.16,3.16,0,0,0,2.31.84,6.91,6.91,0,0,0,1.35-.12,7.56,7.56,0,0,0,1.29-.41l.36,1.31a7.16,7.16,0,0,1-1.37.42,9.06,9.06,0,0,1-1.69.16,6.53,6.53,0,0,1-1.91-.28,4.38,4.38,0,0,1-1.57-.87,4.06,4.06,0,0,1-1.07-1.51,5.65,5.65,0,0,1-.39-2.2,5.75,5.75,0,0,1,.33-2,4.41,4.41,0,0,1,.93-1.54,4.2,4.2,0,0,1,1.45-1,4.82,4.82,0,0,1,1.91-.36,4.26,4.26,0,0,1,1.63.31,3.58,3.58,0,0,1,1.25.84,3.71,3.71,0,0,1,.8,1.3,4.93,4.93,0,0,1,.28,1.68ZM81,486.83a3.73,3.73,0,0,0-.13-1,2.27,2.27,0,0,0-.4-.79,1.85,1.85,0,0,0-.69-.54,2.26,2.26,0,0,0-1-.2,2.38,2.38,0,0,0-1.79.7,3.1,3.1,0,0,0-.85,1.84Z"/><path class="cls-1" d="M85.73,480.77a1.14,1.14,0,0,1-.79-.31,1.08,1.08,0,0,1,0-1.55,1.06,1.06,0,0,1,.79-.32,1.09,1.09,0,0,1,.78.32,1.05,1.05,0,0,1,0,1.55A1.17,1.17,0,0,1,85.73,480.77Zm-.88,11.82v-9.4h1.76v9.4Z"/><path class="cls-1" d="M91,492.59H89.23v-9.4h1.38l.26,1.3a5.29,5.29,0,0,1,1.47-1.07,4,4,0,0,1,1.77-.38,3.09,3.09,0,0,1,2.26.82,3,3,0,0,1,.82,2.25v6.48H95.43v-6.22A2,2,0,0,0,95,485a1.74,1.74,0,0,0-1.37-.51A3.62,3.62,0,0,0,91,485.75Z"/><path class="cls-1" d="M107.77,488.09H101v.08a3.21,3.21,0,0,0,.85,2.4,3.16,3.16,0,0,0,2.31.84,6.91,6.91,0,0,0,1.35-.12,7.56,7.56,0,0,0,1.29-.41l.36,1.31a7.16,7.16,0,0,1-1.37.42,9.06,9.06,0,0,1-1.69.16,6.53,6.53,0,0,1-1.91-.28,4.38,4.38,0,0,1-1.57-.87,4.06,4.06,0,0,1-1.07-1.51,5.65,5.65,0,0,1-.39-2.2,5.75,5.75,0,0,1,.33-2,4.41,4.41,0,0,1,.93-1.54,4.2,4.2,0,0,1,1.45-1,4.82,4.82,0,0,1,1.91-.36,4.26,4.26,0,0,1,1.63.31,3.58,3.58,0,0,1,1.25.84,3.71,3.71,0,0,1,.8,1.3,4.93,4.93,0,0,1,.28,1.68ZM106,486.83a3.73,3.73,0,0,0-.13-1,2.27,2.27,0,0,0-.4-.79,1.85,1.85,0,0,0-.69-.54,2.26,2.26,0,0,0-1-.2,2.38,2.38,0,0,0-1.79.7,3.1,3.1,0,0,0-.85,1.84Z"/><path class="cls-1" d="M120.07,483.19H122l-3.5,9.4h-1.72l-3.54-9.4h1.9l2.12,6.46.36,1.47h.08l.34-1.45Z"/><path class="cls-1" d="M124.51,480.77a1.14,1.14,0,0,1-.79-.31,1.08,1.08,0,0,1,0-1.55,1.06,1.06,0,0,1,.79-.32,1.09,1.09,0,0,1,.78.32,1.05,1.05,0,0,1,0,1.55A1.17,1.17,0,0,1,124.51,480.77Zm-.88,11.82v-9.4h1.76v9.4Z"/><path class="cls-1" d="M136,488.09h-6.74v.08a2.93,2.93,0,0,0,3.16,3.24,6.77,6.77,0,0,0,1.35-.12,7.56,7.56,0,0,0,1.29-.41l.36,1.31a7,7,0,0,1-1.37.42,9.06,9.06,0,0,1-1.69.16,6.53,6.53,0,0,1-1.91-.28,4.47,4.47,0,0,1-1.57-.87,4.18,4.18,0,0,1-1.07-1.51,5.65,5.65,0,0,1-.39-2.2,5.75,5.75,0,0,1,.33-2,4.41,4.41,0,0,1,.93-1.54,4.2,4.2,0,0,1,1.45-1,4.85,4.85,0,0,1,1.91-.36,4.26,4.26,0,0,1,1.63.31,3.49,3.49,0,0,1,1.25.84,3.57,3.57,0,0,1,.8,1.3,4.7,4.7,0,0,1,.28,1.68Zm-1.82-1.26a3.35,3.35,0,0,0-.13-1,2.27,2.27,0,0,0-.4-.79,1.85,1.85,0,0,0-.69-.54,2.26,2.26,0,0,0-1-.2,2.4,2.4,0,0,0-1.79.7,3.16,3.16,0,0,0-.85,1.84Z"/><path class="cls-1" d="M138.05,492.59V478.38h1.72v14.21Z"/><path class="cls-1" d="M147.65,485a5.23,5.23,0,0,0-1.2-.44,5,5,0,0,0-1.08-.13,2.28,2.28,0,0,0-1.42.36,1.09,1.09,0,0,0-.46.93,1,1,0,0,0,.32.73,3.57,3.57,0,0,0,1.34.61l.6.18a5.13,5.13,0,0,1,2,1,2.22,2.22,0,0,1,.69,1.72,2.56,2.56,0,0,1-.95,2.06,4.08,4.08,0,0,1-2.65.78,9.67,9.67,0,0,1-1.73-.16,6.54,6.54,0,0,1-1.43-.44l.42-1.38a7.16,7.16,0,0,0,1.26.45,5.79,5.79,0,0,0,1.38.17,2.8,2.8,0,0,0,1.43-.32,1.16,1.16,0,0,0,.53-1.06,1,1,0,0,0-.46-.91,6.27,6.27,0,0,0-1.32-.53l-.62-.21a4.65,4.65,0,0,1-1.93-1,2.22,2.22,0,0,1-.63-1.63,2.26,2.26,0,0,1,.26-1.1,2.31,2.31,0,0,1,.71-.84,3.15,3.15,0,0,1,1.07-.53,4.46,4.46,0,0,1,1.36-.2,8.26,8.26,0,0,1,1.45.14,5.9,5.9,0,0,1,1.43.43Z"/><path class="cls-1" d="M158.46,488.09h-6.74v.08a2.93,2.93,0,0,0,3.16,3.24,6.77,6.77,0,0,0,1.35-.12,7.56,7.56,0,0,0,1.29-.41l.36,1.31a7,7,0,0,1-1.37.42,9.06,9.06,0,0,1-1.69.16,6.53,6.53,0,0,1-1.91-.28,4.47,4.47,0,0,1-1.57-.87,4.18,4.18,0,0,1-1.07-1.51,5.65,5.65,0,0,1-.39-2.2,5.75,5.75,0,0,1,.33-2,4.41,4.41,0,0,1,.93-1.54,4.2,4.2,0,0,1,1.45-1,4.85,4.85,0,0,1,1.91-.36,4.26,4.26,0,0,1,1.63.31,3.49,3.49,0,0,1,1.25.84,3.57,3.57,0,0,1,.8,1.3,4.7,4.7,0,0,1,.28,1.68Zm-1.82-1.26a3.35,3.35,0,0,0-.13-1,2.27,2.27,0,0,0-.4-.79,1.85,1.85,0,0,0-.69-.54,2.26,2.26,0,0,0-1-.2,2.4,2.4,0,0,0-1.79.7,3.16,3.16,0,0,0-.85,1.84Z"/><path class="cls-1" d="M161.42,480.77a1.15,1.15,0,0,1-.79-.31,1.08,1.08,0,0,1,0-1.55,1.08,1.08,0,0,1,.79-.32,1.06,1.06,0,0,1,.78.32,1.05,1.05,0,0,1,0,1.55A1.13,1.13,0,0,1,161.42,480.77Zm-.88,11.82v-9.4h1.76v9.4Z"/><path class="cls-1" d="M169.89,484.51h-2.76V490a1.1,1.1,0,0,0,.35,1,1.6,1.6,0,0,0,.91.24,4.78,4.78,0,0,0,.88-.09,6.42,6.42,0,0,0,.84-.21l.28,1.34a6.1,6.1,0,0,1-1,.27,6.74,6.74,0,0,1-1.3.13,2.93,2.93,0,0,1-2-.61,2.37,2.37,0,0,1-.64-1.77v-5.7H164v-1.32h1.4v-3h1.74v3h2.76Z"/><path class="cls-1" d="M173.06,480.77a1.14,1.14,0,0,1-.79-.31,1.08,1.08,0,0,1,0-1.55,1.06,1.06,0,0,1,.79-.32,1.09,1.09,0,0,1,.78.32,1.05,1.05,0,0,1,0,1.55A1.17,1.17,0,0,1,173.06,480.77Zm-.88,11.82v-9.4h1.76v9.4Z"/><path class="cls-1" d="M176.27,486.31a3.38,3.38,0,0,1,.28-1.39,3,3,0,0,1,.79-1,3.65,3.65,0,0,1,1.21-.62,5.32,5.32,0,0,1,1.52-.22,3.58,3.58,0,0,1,.58,0,5,5,0,0,1,.56.1h4.06v1.3h-.62l-1.6-.22a2.69,2.69,0,0,1,.59.92,2.87,2.87,0,0,1,.21,1.1,3.26,3.26,0,0,1-.28,1.39,2.82,2.82,0,0,1-.78,1,3.27,3.27,0,0,1-1.2.63,5.23,5.23,0,0,1-1.52.2,5.8,5.8,0,0,1-1.08-.08,1.39,1.39,0,0,0-.64.41.92.92,0,0,0-.18.54.65.65,0,0,0,.31.62,1.94,1.94,0,0,0,.83.16h2.48a3.54,3.54,0,0,1,2.39.71,2.37,2.37,0,0,1,.83,1.93,2.84,2.84,0,0,1-.34,1.4,3.14,3.14,0,0,1-1,1.06,4.89,4.89,0,0,1-1.53.67,8.31,8.31,0,0,1-2,.23,6.33,6.33,0,0,1-3.25-.73,2.38,2.38,0,0,1-1.21-2.15,1.74,1.74,0,0,1,.47-1.24,3,3,0,0,1,1.23-.76,2.43,2.43,0,0,1-.6-.6,1.52,1.52,0,0,1-.2-.83,1.6,1.6,0,0,1,.37-1.05,2.63,2.63,0,0,1,1-.71,2.85,2.85,0,0,1-1.25-1A3.18,3.18,0,0,1,176.27,486.31Zm2.14,6.28a1.5,1.5,0,0,0-1,1.44c0,1.17,1,1.76,2.84,1.76a5.21,5.21,0,0,0,1.42-.17,2.83,2.83,0,0,0,.94-.41,1.72,1.72,0,0,0,.53-.59,1.3,1.3,0,0,0,.17-.66,1.1,1.1,0,0,0-.57-1.1,3.32,3.32,0,0,0-1.43-.27Zm3.66-6.24a2,2,0,0,0-.55-1.56,2.35,2.35,0,0,0-2.9,0,1.91,1.91,0,0,0-.55,1.48,1.94,1.94,0,0,0,.55,1.52,2.09,2.09,0,0,0,1.45.5,2.16,2.16,0,0,0,1.45-.48A1.83,1.83,0,0,0,182.07,486.35Z"/><path class="cls-1" d="M194.83,488.09h-6.74v.08a2.93,2.93,0,0,0,3.16,3.24,6.77,6.77,0,0,0,1.35-.12,7.56,7.56,0,0,0,1.29-.41l.36,1.31a7,7,0,0,1-1.37.42,9.06,9.06,0,0,1-1.69.16,6.58,6.58,0,0,1-1.91-.28,4.47,4.47,0,0,1-1.57-.87,4.18,4.18,0,0,1-1.07-1.51,5.65,5.65,0,0,1-.39-2.2,5.75,5.75,0,0,1,.33-2,4.41,4.41,0,0,1,.93-1.54,4.2,4.2,0,0,1,1.45-1,4.85,4.85,0,0,1,1.91-.36,4.26,4.26,0,0,1,1.63.31,3.49,3.49,0,0,1,1.25.84,3.57,3.57,0,0,1,.8,1.3,4.7,4.7,0,0,1,.28,1.68ZM193,486.83a3.35,3.35,0,0,0-.13-1,2.27,2.27,0,0,0-.4-.79,1.85,1.85,0,0,0-.69-.54,2.26,2.26,0,0,0-1-.2,2.4,2.4,0,0,0-1.79.7,3.16,3.16,0,0,0-.85,1.84Z"/><path class="cls-1" d="M197.33,492.77a1,1,0,0,1-.78-.44,1.44,1.44,0,0,1-.26-.84,1.31,1.31,0,0,1,.33-.87,1.17,1.17,0,0,1,.93-.37,1.71,1.71,0,0,1,.49.07,1,1,0,0,1,.46.28,1.69,1.69,0,0,1,.35.58,2.85,2.85,0,0,1,.14,1,3.39,3.39,0,0,1-.62,2,4.39,4.39,0,0,1-1.58,1.42l-.58-.79a3.65,3.65,0,0,0,.93-.75,2.65,2.65,0,0,0,.55-1.17Z"/><path class="cls-1" d="M211.67,484.21l-5,7.06h5.08v1.32h-7.24v-1.08l5-7h-4.64v-1.32h6.8Z"/><path class="cls-1" d="M221.27,488.09h-6.73v.08a3.25,3.25,0,0,0,.84,2.4,3.19,3.19,0,0,0,2.31.84,6.77,6.77,0,0,0,1.35-.12,7,7,0,0,0,1.29-.41l.36,1.31a6.74,6.74,0,0,1-1.37.42,9,9,0,0,1-1.69.16,6.63,6.63,0,0,1-1.91-.28,4.56,4.56,0,0,1-1.57-.87,4.18,4.18,0,0,1-1.07-1.51,5.65,5.65,0,0,1-.39-2.2,5.75,5.75,0,0,1,.33-2,4.29,4.29,0,0,1,.94-1.54,4.16,4.16,0,0,1,1.44-1,4.89,4.89,0,0,1,1.91-.36,4.23,4.23,0,0,1,1.63.31,3.57,3.57,0,0,1,2.05,2.14,4.7,4.7,0,0,1,.28,1.68Zm-1.81-1.26a3.34,3.34,0,0,0-.14-1,2.11,2.11,0,0,0-.4-.79,1.85,1.85,0,0,0-.69-.54,2.21,2.21,0,0,0-1-.2,2.4,2.4,0,0,0-1.79.7,3.16,3.16,0,0,0-.85,1.84Z"/><path class="cls-1" d="M224.24,480.77a1.14,1.14,0,0,1-.79-.31,1.08,1.08,0,0,1,0-1.55,1.06,1.06,0,0,1,.79-.32,1.09,1.09,0,0,1,.78.32,1.05,1.05,0,0,1,0,1.55A1.17,1.17,0,0,1,224.24,480.77Zm-.88,11.82v-9.4h1.76v9.4Z"/><path class="cls-1" d="M232.71,484.51H230V490a1.07,1.07,0,0,0,.35,1,1.56,1.56,0,0,0,.91.24,4.86,4.86,0,0,0,.88-.09,6.42,6.42,0,0,0,.84-.21l.28,1.34a6.68,6.68,0,0,1-1,.27,6.9,6.9,0,0,1-1.3.13,2.89,2.89,0,0,1-2-.61,2.33,2.33,0,0,1-.64-1.77v-5.7h-1.4v-1.32h1.4v-3H230v3h2.76Z"/><path class="cls-1" d="M234.61,486.31a3.23,3.23,0,0,1,.28-1.39,2.88,2.88,0,0,1,.79-1,3.55,3.55,0,0,1,1.21-.62,5.21,5.21,0,0,1,1.52-.22,3.68,3.68,0,0,1,.58,0c.18,0,.37.06.56.1h4.06v1.3H243l-1.6-.22a2.92,2.92,0,0,1,.8,2,3.41,3.41,0,0,1-.28,1.39,3.06,3.06,0,0,1-.78,1,3.44,3.44,0,0,1-1.2.63,5.32,5.32,0,0,1-1.52.2,5.67,5.67,0,0,1-1.08-.08,1.34,1.34,0,0,0-.64.41.92.92,0,0,0-.18.54.63.63,0,0,0,.31.62,1.88,1.88,0,0,0,.83.16h2.48a3.55,3.55,0,0,1,2.39.71,2.4,2.4,0,0,1,.83,1.93,3,3,0,0,1-.34,1.4,3.25,3.25,0,0,1-1,1.06,4.89,4.89,0,0,1-1.53.67,8.37,8.37,0,0,1-2,.23,6.31,6.31,0,0,1-3.25-.73,2.36,2.36,0,0,1-1.21-2.15,1.7,1.7,0,0,1,.47-1.24,2.83,2.83,0,0,1,1.23-.76,2.13,2.13,0,0,1-.6-.6,1.44,1.44,0,0,1-.2-.83,1.55,1.55,0,0,1,.37-1.05,2.48,2.48,0,0,1,1-.71,2.79,2.79,0,0,1-1.25-1A3.18,3.18,0,0,1,234.61,486.31Zm2.14,6.28a1.5,1.5,0,0,0-1,1.44c0,1.17.94,1.76,2.84,1.76a5.26,5.26,0,0,0,1.42-.17,2.93,2.93,0,0,0,.94-.41,1.83,1.83,0,0,0,.53-.59,1.41,1.41,0,0,0,.17-.66,1.1,1.1,0,0,0-.57-1.1,3.35,3.35,0,0,0-1.43-.27Zm3.66-6.24a2,2,0,0,0-.55-1.56,2.35,2.35,0,0,0-2.9,0,1.87,1.87,0,0,0-.55,1.48,1.91,1.91,0,0,0,.55,1.52,2.08,2.08,0,0,0,1.45.5,2.18,2.18,0,0,0,1.45-.48A1.86,1.86,0,0,0,240.41,486.35Z"/><path class="cls-1" d="M253.16,488.09h-6.74v.08a3.25,3.25,0,0,0,.85,2.4,3.19,3.19,0,0,0,2.31.84,6.77,6.77,0,0,0,1.35-.12,7,7,0,0,0,1.29-.41l.36,1.31a6.74,6.74,0,0,1-1.37.42,9,9,0,0,1-1.69.16,6.58,6.58,0,0,1-1.91-.28,4.56,4.56,0,0,1-1.57-.87,4.18,4.18,0,0,1-1.07-1.51,5.65,5.65,0,0,1-.39-2.2,5.75,5.75,0,0,1,.33-2,4.41,4.41,0,0,1,.93-1.54,4.3,4.3,0,0,1,1.45-1,4.89,4.89,0,0,1,1.91-.36,4.23,4.23,0,0,1,1.63.31,3.57,3.57,0,0,1,2,2.14,4.7,4.7,0,0,1,.28,1.68Zm-1.82-1.26a3.35,3.35,0,0,0-.13-1,2.11,2.11,0,0,0-.4-.79,1.85,1.85,0,0,0-.69-.54,2.26,2.26,0,0,0-1-.2,2.4,2.4,0,0,0-1.79.7,3.16,3.16,0,0,0-.85,1.84Z"/><path class="cls-1" d="M256.89,492.59h-1.76v-9.4h1.36l.26,1.3a5.55,5.55,0,0,1,1.42-1.05A4,4,0,0,1,260,483a2.91,2.91,0,0,1,1.64.42,2.47,2.47,0,0,1,1,1.13,5,5,0,0,1,1.54-1.14A4.23,4.23,0,0,1,266,483a2.77,2.77,0,0,1,2.17.82,3.22,3.22,0,0,1,.73,2.25v6.48h-1.76v-6.16a2.23,2.23,0,0,0-.4-1.44,1.56,1.56,0,0,0-1.32-.5,3.5,3.5,0,0,0-2.54,1.22.65.65,0,0,1,0,.2v6.68h-1.76v-6.16a2.23,2.23,0,0,0-.4-1.44,1.56,1.56,0,0,0-1.32-.5,3.38,3.38,0,0,0-2.52,1.28Z"/><path class="cls-1" d="M271.49,484c.32-.16.62-.31.9-.43a5.7,5.7,0,0,1,.84-.31,6.25,6.25,0,0,1,.86-.18,7.22,7.22,0,0,1,1-.07,5.78,5.78,0,0,1,1.43.17,2.78,2.78,0,0,1,1.12.58,2.45,2.45,0,0,1,.73,1,4.23,4.23,0,0,1,.26,1.62v6.13h-1.46l-.22-1h0a3.51,3.51,0,0,1-1.36.95,4.74,4.74,0,0,1-1.64.28,4.15,4.15,0,0,1-1.25-.19,3.15,3.15,0,0,1-1-.54,2.57,2.57,0,0,1-.65-.85,2.73,2.73,0,0,1-.23-1.12,2.52,2.52,0,0,1,1.17-2.25A5.48,5.48,0,0,1,275,487h1.8v-.79a1.58,1.58,0,0,0-.52-1.39,2.33,2.33,0,0,0-1.4-.37,4.66,4.66,0,0,0-1.19.17,6.62,6.62,0,0,0-1.53.65Zm1-3.91a.92.92,0,0,1,.3-.67,1,1,0,0,1,.7-.3,1,1,0,0,1,.7.3.92.92,0,0,1,.3.67,1,1,0,0,1-.3.72,1,1,0,0,1-.7.31,1,1,0,0,1-.7-.31A1,1,0,0,1,272.51,480.12Zm4.32,8.13-1.48,0a3.63,3.63,0,0,0-2.13.53,1.45,1.45,0,0,0-.63,1.19,1.62,1.62,0,0,0,.14.7,1.23,1.23,0,0,0,.37.46,1.87,1.87,0,0,0,.54.23,3.49,3.49,0,0,0,.65.06,3.29,3.29,0,0,0,1.34-.3,3.13,3.13,0,0,0,1.2-1Zm-1-8.13a.92.92,0,0,1,.3-.67,1,1,0,0,1,.7-.3,1,1,0,0,1,.7.3.92.92,0,0,1,.3.67,1,1,0,0,1-.3.72,1,1,0,0,1-.7.31,1,1,0,0,1-.7-.31A1,1,0,0,1,275.83,480.12Z"/><path class="cls-1" d="M286.32,485a5.23,5.23,0,0,0-1.2-.44,5,5,0,0,0-1.08-.13,2.28,2.28,0,0,0-1.42.36,1.09,1.09,0,0,0-.46.93,1,1,0,0,0,.32.73,3.57,3.57,0,0,0,1.34.61l.6.18a5.13,5.13,0,0,1,2,1,2.22,2.22,0,0,1,.69,1.72,2.56,2.56,0,0,1-.95,2.06,4.08,4.08,0,0,1-2.65.78,9.67,9.67,0,0,1-1.73-.16,6.54,6.54,0,0,1-1.43-.44l.42-1.38a7.16,7.16,0,0,0,1.26.45,5.79,5.79,0,0,0,1.38.17,2.8,2.8,0,0,0,1.43-.32,1.16,1.16,0,0,0,.53-1.06,1,1,0,0,0-.46-.91,6.27,6.27,0,0,0-1.32-.53l-.62-.21a4.65,4.65,0,0,1-1.93-1,2.22,2.22,0,0,1-.63-1.63,2.26,2.26,0,0,1,.26-1.1,2.31,2.31,0,0,1,.71-.84,3.15,3.15,0,0,1,1.07-.53,4.46,4.46,0,0,1,1.36-.2,8.26,8.26,0,0,1,1.45.14,5.9,5.9,0,0,1,1.43.43Z"/><path class="cls-1" d="M294.3,485a5.23,5.23,0,0,0-1.2-.44,5,5,0,0,0-1.08-.13,2.28,2.28,0,0,0-1.42.36,1.09,1.09,0,0,0-.46.93,1,1,0,0,0,.32.73,3.57,3.57,0,0,0,1.34.61l.6.18a5.13,5.13,0,0,1,2,1,2.22,2.22,0,0,1,.69,1.72,2.56,2.56,0,0,1-.95,2.06,4.06,4.06,0,0,1-2.65.78,9.67,9.67,0,0,1-1.73-.16,6.54,6.54,0,0,1-1.43-.44l.42-1.38a7.16,7.16,0,0,0,1.26.45,5.79,5.79,0,0,0,1.38.17,2.8,2.8,0,0,0,1.43-.32,1.16,1.16,0,0,0,.53-1.06,1,1,0,0,0-.46-.91,6.27,6.27,0,0,0-1.32-.53l-.62-.21a4.65,4.65,0,0,1-1.93-1,2.22,2.22,0,0,1-.63-1.63,2.26,2.26,0,0,1,.26-1.1,2.31,2.31,0,0,1,.71-.84,3.15,3.15,0,0,1,1.07-.53,4.46,4.46,0,0,1,1.36-.2,8.17,8.17,0,0,1,1.45.14,5.9,5.9,0,0,1,1.43.43Z"/><path class="cls-1" d="M305.11,488.09h-6.74v.08a3.25,3.25,0,0,0,.85,2.4,3.19,3.19,0,0,0,2.31.84,6.77,6.77,0,0,0,1.35-.12,7,7,0,0,0,1.29-.41l.36,1.31a6.74,6.74,0,0,1-1.37.42,9,9,0,0,1-1.69.16,6.58,6.58,0,0,1-1.91-.28,4.56,4.56,0,0,1-1.57-.87,4.18,4.18,0,0,1-1.07-1.51,5.65,5.65,0,0,1-.39-2.2,5.75,5.75,0,0,1,.33-2,4.41,4.41,0,0,1,.93-1.54,4.3,4.3,0,0,1,1.45-1,4.89,4.89,0,0,1,1.91-.36,4.26,4.26,0,0,1,1.63.31,3.57,3.57,0,0,1,2.05,2.14,4.7,4.7,0,0,1,.28,1.68Zm-1.82-1.26a3.35,3.35,0,0,0-.13-1,2.11,2.11,0,0,0-.4-.79,1.85,1.85,0,0,0-.69-.54,2.26,2.26,0,0,0-1-.2,2.4,2.4,0,0,0-1.79.7,3.16,3.16,0,0,0-.85,1.84Z"/><path class="cls-1" d="M307.61,492.77a1,1,0,0,1-.78-.44,1.44,1.44,0,0,1-.26-.84,1.31,1.31,0,0,1,.33-.87,1.17,1.17,0,0,1,.93-.37,1.71,1.71,0,0,1,.49.07,1,1,0,0,1,.46.28,1.55,1.55,0,0,1,.35.58,2.85,2.85,0,0,1,.14,1,3.39,3.39,0,0,1-.62,2,4.39,4.39,0,0,1-1.58,1.42l-.58-.79a3.65,3.65,0,0,0,.93-.75,2.54,2.54,0,0,0,.55-1.17Z"/><path class="cls-1" d="M23.14,516.59H21.38V502.38h1.76v6a6.43,6.43,0,0,1,1.46-.95,4,4,0,0,1,1.76-.39,3.55,3.55,0,0,1,1.36.24,2.38,2.38,0,0,1,1,.64,2.7,2.7,0,0,1,.56,1,3.78,3.78,0,0,1,.19,1.23v6.48H27.66v-6.05a2.31,2.31,0,0,0-.44-1.56,1.69,1.69,0,0,0-1.34-.49,3,3,0,0,0-1.37.34,5.52,5.52,0,0,0-1.37,1Z"/><path class="cls-1" d="M38.22,507.19H40v9.4H38.6l-.24-1.18h-.08a4.11,4.11,0,0,1-1.29,1,3.9,3.9,0,0,1-1.79.4,3.41,3.41,0,0,1-2.37-.83,3.28,3.28,0,0,1-.91-2.51v-6.24h1.76v6a3,3,0,0,0,.15,1,1.89,1.89,0,0,0,.4.67,1.71,1.71,0,0,0,.59.36,2.55,2.55,0,0,0,.74.11A3.06,3.06,0,0,0,37,515a4.81,4.81,0,0,0,1.22-.94Z"/><path class="cls-1" d="M44.29,516.59H42.53v-9.4h1.36l.26,1.3a5.38,5.38,0,0,1,1.42-1.05,3.91,3.91,0,0,1,1.82-.4,3,3,0,0,1,1.64.42,2.59,2.59,0,0,1,1,1.13,4.89,4.89,0,0,1,1.54-1.14,4.23,4.23,0,0,1,1.86-.41,2.78,2.78,0,0,1,2.17.82,3.27,3.27,0,0,1,.73,2.25v6.48H54.53v-6.16a2.29,2.29,0,0,0-.4-1.44,1.58,1.58,0,0,0-1.32-.5,3.46,3.46,0,0,0-2.54,1.22,1.23,1.23,0,0,1,0,.2v6.68H48.53v-6.16a2.29,2.29,0,0,0-.4-1.44,1.58,1.58,0,0,0-1.32-.5,3.35,3.35,0,0,0-2.52,1.28Z"/><path class="cls-1" d="M58.89,508c.32-.16.62-.31.9-.43a5.7,5.7,0,0,1,.84-.31,6,6,0,0,1,.86-.18,7,7,0,0,1,1-.07,5.84,5.84,0,0,1,1.43.17,2.92,2.92,0,0,1,1.12.58,2.64,2.64,0,0,1,.73,1,4.43,4.43,0,0,1,.26,1.62v6.13H64.53l-.22-1.05h0a3.66,3.66,0,0,1-1.36,1,4.78,4.78,0,0,1-1.64.28,4.1,4.1,0,0,1-1.25-.19,3.15,3.15,0,0,1-1-.54,2.45,2.45,0,0,1-.65-.85,2.58,2.58,0,0,1-.23-1.12,2.52,2.52,0,0,1,1.17-2.25,5.48,5.48,0,0,1,3.09-.78h1.8v-.79a1.61,1.61,0,0,0-.52-1.39,2.37,2.37,0,0,0-1.4-.37,4.54,4.54,0,0,0-1.19.17,6.27,6.27,0,0,0-1.53.65Zm5.34,4.22-1.48,0a3.63,3.63,0,0,0-2.13.53A1.45,1.45,0,0,0,60,514a1.48,1.48,0,0,0,.14.7,1.07,1.07,0,0,0,.37.46,1.66,1.66,0,0,0,.54.23,3.26,3.26,0,0,0,2-.24,3.29,3.29,0,0,0,1.2-1Z"/><path class="cls-1" d="M70.2,516.59H68.44v-9.4h1.38l.26,1.3a5.29,5.29,0,0,1,1.47-1.07,4,4,0,0,1,1.77-.38,3.07,3.07,0,0,1,2.26.82,3,3,0,0,1,.82,2.25v6.48H74.64v-6.22a2,2,0,0,0-.45-1.37,1.72,1.72,0,0,0-1.37-.51,3.64,3.64,0,0,0-2.62,1.26Z"/><path class="cls-1" d="M79.94,504.77a1.14,1.14,0,0,1-.79-.31,1.08,1.08,0,0,1,0-1.55,1.06,1.06,0,0,1,.79-.32,1.09,1.09,0,0,1,.78.32,1.05,1.05,0,0,1,0,1.55A1.17,1.17,0,0,1,79.94,504.77Zm-.88,11.82v-9.4h1.76v9.4Z"/><path class="cls-1" d="M88.68,509a5.23,5.23,0,0,0-1.2-.44,5,5,0,0,0-1.08-.13,2.3,2.3,0,0,0-1.42.36,1.12,1.12,0,0,0-.46.93,1,1,0,0,0,.32.73,3.66,3.66,0,0,0,1.34.61l.6.18a5.06,5.06,0,0,1,2,1,2.22,2.22,0,0,1,.69,1.72,2.53,2.53,0,0,1-1,2.06,4,4,0,0,1-2.65.78,9.76,9.76,0,0,1-1.73-.16,6.72,6.72,0,0,1-1.43-.44l.42-1.38a7.79,7.79,0,0,0,1.26.45,5.92,5.92,0,0,0,1.38.17,2.78,2.78,0,0,0,1.43-.32,1.14,1.14,0,0,0,.53-1.06,1,1,0,0,0-.46-.91,5.85,5.85,0,0,0-1.32-.53l-.62-.21a4.71,4.71,0,0,1-1.93-1,2.22,2.22,0,0,1-.63-1.63,2.38,2.38,0,0,1,.26-1.1,2.42,2.42,0,0,1,.71-.84,3.25,3.25,0,0,1,1.07-.53,4.56,4.56,0,0,1,1.36-.2,8.17,8.17,0,0,1,1.45.14,5.77,5.77,0,0,1,1.43.43Z"/><path class="cls-1" d="M96.48,508.51H93.72V514a1.07,1.07,0,0,0,.35.95,1.56,1.56,0,0,0,.91.24,4.86,4.86,0,0,0,.88-.09,6.42,6.42,0,0,0,.84-.21l.28,1.34a6.68,6.68,0,0,1-1,.27,6.9,6.9,0,0,1-1.3.13,2.89,2.89,0,0,1-2-.61,2.33,2.33,0,0,1-.64-1.77v-5.7h-1.4v-1.32H92v-3h1.74v3h2.76Z"/><path class="cls-1" d="M99.65,504.77a1.14,1.14,0,0,1-.79-.31,1.08,1.08,0,0,1,0-1.55,1.06,1.06,0,0,1,.79-.32,1.09,1.09,0,0,1,.78.32,1.05,1.05,0,0,1,0,1.55A1.17,1.17,0,0,1,99.65,504.77Zm-.88,11.82v-9.4h1.76v9.4Z"/><path class="cls-1" d="M108.39,509a5.23,5.23,0,0,0-1.2-.44,5,5,0,0,0-1.08-.13,2.3,2.3,0,0,0-1.42.36,1.09,1.09,0,0,0-.46.93,1,1,0,0,0,.32.73,3.57,3.57,0,0,0,1.34.61l.6.18a5.13,5.13,0,0,1,2,1,2.22,2.22,0,0,1,.69,1.72,2.56,2.56,0,0,1-.95,2.06,4.06,4.06,0,0,1-2.65.78,9.67,9.67,0,0,1-1.73-.16,6.72,6.72,0,0,1-1.43-.44l.42-1.38a7.79,7.79,0,0,0,1.26.45,5.79,5.79,0,0,0,1.38.17,2.78,2.78,0,0,0,1.43-.32,1.16,1.16,0,0,0,.53-1.06,1,1,0,0,0-.46-.91,6.27,6.27,0,0,0-1.32-.53l-.62-.21a4.65,4.65,0,0,1-1.93-1,2.22,2.22,0,0,1-.63-1.63,2.38,2.38,0,0,1,.26-1.1,2.31,2.31,0,0,1,.71-.84,3.25,3.25,0,0,1,1.07-.53,4.51,4.51,0,0,1,1.36-.2,8.17,8.17,0,0,1,1.45.14,5.77,5.77,0,0,1,1.43.43Z"/><path class="cls-1" d="M115.66,515.41a4.18,4.18,0,0,0,1.12-.14,8.26,8.26,0,0,0,.94-.36l.38,1.32a6.26,6.26,0,0,1-4.49.23,4.18,4.18,0,0,1-1.56-.9,4.22,4.22,0,0,1-1-1.52,5.4,5.4,0,0,1-.38-2.13,5.48,5.48,0,0,1,.36-2,4.42,4.42,0,0,1,1-1.52,4.37,4.37,0,0,1,1.54-1,5.71,5.71,0,0,1,2-.34,9.71,9.71,0,0,1,1.21.09,5.83,5.83,0,0,1,1.35.44l-.4,1.34a4,4,0,0,0-2-.53,3.19,3.19,0,0,0-2.36.91,3.49,3.49,0,0,0-.9,2.56,4.36,4.36,0,0,0,.28,1.69,2.73,2.73,0,0,0,.74,1.09,2.65,2.65,0,0,0,1,.6A3.93,3.93,0,0,0,115.66,515.41Z"/><path class="cls-1" d="M121.58,516.59h-1.77V502.38h1.77v6a6.22,6.22,0,0,1,1.46-.95,3.94,3.94,0,0,1,1.75-.39,3.61,3.61,0,0,1,1.37.24,2.35,2.35,0,0,1,.94.64,2.72,2.72,0,0,1,.57,1,4.06,4.06,0,0,1,.18,1.23v6.48H126.1v-6.05a2.31,2.31,0,0,0-.44-1.56,1.72,1.72,0,0,0-1.35-.49,3.08,3.08,0,0,0-1.37.34,5.48,5.48,0,0,0-1.36,1Z"/><path class="cls-1" d="M138.44,512.09H131.7v.08a2.93,2.93,0,0,0,3.16,3.24,6.77,6.77,0,0,0,1.35-.12,7.56,7.56,0,0,0,1.29-.41l.36,1.31a7,7,0,0,1-1.37.42,9.06,9.06,0,0,1-1.69.16,6.53,6.53,0,0,1-1.91-.28,4.47,4.47,0,0,1-1.57-.87,4.18,4.18,0,0,1-1.07-1.51,5.65,5.65,0,0,1-.39-2.2,5.75,5.75,0,0,1,.33-2,4.41,4.41,0,0,1,.93-1.54,4.2,4.2,0,0,1,1.45-1,4.85,4.85,0,0,1,1.91-.36,4.26,4.26,0,0,1,1.63.31,3.49,3.49,0,0,1,1.25.84,3.57,3.57,0,0,1,.8,1.3,4.7,4.7,0,0,1,.28,1.68Zm-1.82-1.26a3.35,3.35,0,0,0-.13-1,2.27,2.27,0,0,0-.4-.79,1.85,1.85,0,0,0-.69-.54,2.26,2.26,0,0,0-1-.2,2.4,2.4,0,0,0-1.79.7,3.16,3.16,0,0,0-.85,1.84Z"/><path class="cls-1" d="M151.26,507.19H153v9.4h-1.38l-.24-1.18h-.08a4.35,4.35,0,0,1-1.29,1,3.9,3.9,0,0,1-1.79.4,3.41,3.41,0,0,1-2.37-.83,3.24,3.24,0,0,1-.91-2.51v-6.24h1.76v6a3,3,0,0,0,.15,1,1.76,1.76,0,0,0,.4.67,1.62,1.62,0,0,0,.59.36,2.5,2.5,0,0,0,.74.11A3.12,3.12,0,0,0,150,515a5,5,0,0,0,1.22-.94Z"/><path class="cls-1" d="M157.32,516.59h-1.76v-9.4h1.38l.26,1.3a5.29,5.29,0,0,1,1.47-1.07,4,4,0,0,1,1.77-.38,3.07,3.07,0,0,1,2.26.82,3,3,0,0,1,.82,2.25v6.48h-1.76v-6.22a2,2,0,0,0-.45-1.37,1.72,1.72,0,0,0-1.37-.51,3.64,3.64,0,0,0-2.62,1.26Z"/><path class="cls-1" d="M172.37,502.38h1.76v14.21h-1.48l-.22-1.05h-.06a4.31,4.31,0,0,1-1.25.94,3.86,3.86,0,0,1-1.59.29,3.56,3.56,0,0,1-1.47-.31,3.67,3.67,0,0,1-1.27-.89,4.66,4.66,0,0,1-.9-1.51,6.1,6.1,0,0,1-.34-2.15,6.57,6.57,0,0,1,.29-2,4.38,4.38,0,0,1,.83-1.54,3.59,3.59,0,0,1,1.32-1,4.52,4.52,0,0,1,1.78-.34,4.18,4.18,0,0,1,1.41.24,3.52,3.52,0,0,1,1.19.68Zm0,7.07a2.89,2.89,0,0,0-2.22-1.07,2.92,2.92,0,0,0-1.05.2,2.25,2.25,0,0,0-.9.61,3.05,3.05,0,0,0-.63,1.08,4.61,4.61,0,0,0-.24,1.58,5.18,5.18,0,0,0,.22,1.63,3.29,3.29,0,0,0,.59,1.1,2.51,2.51,0,0,0,.84.63,2.45,2.45,0,0,0,1,.2,2.9,2.9,0,0,0,2.44-1.3Z"/><path class="cls-1" d="M183.05,516.59h-1.76v-9.4h1.36l.26,1.3a5.38,5.38,0,0,1,1.42-1.05,3.94,3.94,0,0,1,1.82-.4,2.94,2.94,0,0,1,1.64.42,2.47,2.47,0,0,1,1,1.13,5,5,0,0,1,1.54-1.14,4.23,4.23,0,0,1,1.86-.41,2.78,2.78,0,0,1,2.17.82,3.22,3.22,0,0,1,.73,2.25v6.48h-1.76v-6.16a2.23,2.23,0,0,0-.4-1.44,1.58,1.58,0,0,0-1.32-.5,3.48,3.48,0,0,0-2.54,1.22,1.23,1.23,0,0,1,0,.2v6.68h-1.76v-6.16a2.23,2.23,0,0,0-.4-1.44,1.58,1.58,0,0,0-1.32-.5,3.35,3.35,0,0,0-2.52,1.28Z"/><path class="cls-1" d="M206.25,511.79a5.84,5.84,0,0,1-.36,2.11,4.44,4.44,0,0,1-1,1.56,4.31,4.31,0,0,1-1.47,1,5,5,0,0,1-1.82.33,5.29,5.29,0,0,1-1.81-.31,4,4,0,0,1-1.44-.92,4.3,4.3,0,0,1-1-1.5,5.47,5.47,0,0,1-.35-2,5.8,5.8,0,0,1,.36-2.11,4.35,4.35,0,0,1,2.46-2.51,5.16,5.16,0,0,1,1.82-.33,5.29,5.29,0,0,1,1.81.31,3.86,3.86,0,0,1,1.44.9,4.35,4.35,0,0,1,1,1.49A5.61,5.61,0,0,1,206.25,511.79Zm-1.84.09a4.67,4.67,0,0,0-.24-1.59,3.14,3.14,0,0,0-.63-1.08,2.29,2.29,0,0,0-.89-.61,2.83,2.83,0,0,0-1-.19,3.2,3.2,0,0,0-1,.16,2,2,0,0,0-.88.55,2.81,2.81,0,0,0-.61,1.08,5,5,0,0,0-.23,1.68,4.85,4.85,0,0,0,.24,1.62,3.19,3.19,0,0,0,.63,1.09,2.47,2.47,0,0,0,.89.62,2.76,2.76,0,0,0,1,.2,3.3,3.3,0,0,0,1-.17,2.29,2.29,0,0,0,.88-.58,3.28,3.28,0,0,0,.61-1.08A5.41,5.41,0,0,0,204.41,511.88Z"/><path class="cls-1" d="M210,516.59h-1.76v-9.4h1.38l.26,1.3a5.29,5.29,0,0,1,1.47-1.07,4,4,0,0,1,1.77-.38,3.07,3.07,0,0,1,2.26.82,3,3,0,0,1,.82,2.25v6.48h-1.76v-6.22A2,2,0,0,0,214,509a1.72,1.72,0,0,0-1.37-.51,3.64,3.64,0,0,0-2.62,1.26Z"/><path class="cls-1" d="M227.42,511.79a5.84,5.84,0,0,1-.36,2.11,4.44,4.44,0,0,1-1,1.56,4.31,4.31,0,0,1-1.47,1,4.91,4.91,0,0,1-1.82.33,5.33,5.33,0,0,1-1.81-.31,4.18,4.18,0,0,1-1.44-.92,4.44,4.44,0,0,1-1-1.5,5.68,5.68,0,0,1-.35-2,5.8,5.8,0,0,1,.36-2.11,4.35,4.35,0,0,1,2.46-2.51,5.16,5.16,0,0,1,1.82-.33,5.25,5.25,0,0,1,1.81.31,3.71,3.71,0,0,1,1.44.9,4.08,4.08,0,0,1,1,1.49A5.4,5.4,0,0,1,227.42,511.79Zm-1.84.09a4.67,4.67,0,0,0-.24-1.59,3.14,3.14,0,0,0-.63-1.08,2.22,2.22,0,0,0-.89-.61,2.75,2.75,0,0,0-1-.19,3.29,3.29,0,0,0-1,.16,2.11,2.11,0,0,0-.88.55,3.09,3.09,0,0,0-.61,1.08,5.32,5.32,0,0,0-.23,1.68,4.85,4.85,0,0,0,.24,1.62,3.19,3.19,0,0,0,.63,1.09,2.56,2.56,0,0,0,.89.62,2.85,2.85,0,0,0,1,.2,3.21,3.21,0,0,0,1-.17,2.15,2.15,0,0,0,.88-.58,3,3,0,0,0,.61-1.08A5.13,5.13,0,0,0,225.58,511.88Z"/><path class="cls-1" d="M229.5,516.59V502.38h1.72v14.21Z"/><path class="cls-1" d="M234.82,504.77a1.14,1.14,0,0,1-.79-.31,1.08,1.08,0,0,1,0-1.55,1.06,1.06,0,0,1,.79-.32,1.09,1.09,0,0,1,.78.32,1.05,1.05,0,0,1,0,1.55A1.17,1.17,0,0,1,234.82,504.77Zm-.88,11.82v-9.4h1.76v9.4Z"/><path class="cls-1" d="M240.08,516.59h-1.76v-9.4h1.38l.26,1.3a5.29,5.29,0,0,1,1.47-1.07,4,4,0,0,1,1.77-.38,3.09,3.09,0,0,1,2.26.82,3,3,0,0,1,.82,2.25v6.48h-1.76v-6.22a2,2,0,0,0-.45-1.37,1.74,1.74,0,0,0-1.37-.51,3.62,3.62,0,0,0-2.62,1.26Z"/><path class="cls-1" d="M256.86,512.09h-6.74v.08a3.21,3.21,0,0,0,.85,2.4,3.18,3.18,0,0,0,2.31.84,6.84,6.84,0,0,0,1.35-.12,7.56,7.56,0,0,0,1.29-.41l.36,1.31a7.16,7.16,0,0,1-1.37.42,9.06,9.06,0,0,1-1.69.16,6.53,6.53,0,0,1-1.91-.28,4.38,4.38,0,0,1-1.57-.87,4.18,4.18,0,0,1-1.07-1.51,5.65,5.65,0,0,1-.39-2.2,5.75,5.75,0,0,1,.33-2,4.41,4.41,0,0,1,.93-1.54,4.2,4.2,0,0,1,1.45-1,4.82,4.82,0,0,1,1.91-.36,4.26,4.26,0,0,1,1.63.31,3.58,3.58,0,0,1,1.25.84,3.71,3.71,0,0,1,.8,1.3,4.93,4.93,0,0,1,.28,1.68ZM255,510.83a3.73,3.73,0,0,0-.13-1,2.27,2.27,0,0,0-.4-.79,1.85,1.85,0,0,0-.69-.54,2.26,2.26,0,0,0-1-.2,2.38,2.38,0,0,0-1.79.7,3.1,3.1,0,0,0-.85,1.84Z"/><path class="cls-1" d="M258.8,508c.32-.16.62-.31.9-.43a5.7,5.7,0,0,1,.84-.31,6.25,6.25,0,0,1,.86-.18,7,7,0,0,1,1-.07,5.78,5.78,0,0,1,1.43.17,2.92,2.92,0,0,1,1.12.58,2.64,2.64,0,0,1,.73,1,4.43,4.43,0,0,1,.26,1.62v6.13h-1.46l-.22-1.05h0a3.59,3.59,0,0,1-1.36,1,4.78,4.78,0,0,1-1.64.28,4.1,4.1,0,0,1-1.25-.19,3.15,3.15,0,0,1-1-.54,2.45,2.45,0,0,1-.65-.85,2.58,2.58,0,0,1-.23-1.12,2.52,2.52,0,0,1,1.17-2.25,5.48,5.48,0,0,1,3.09-.78h1.8v-.79a1.58,1.58,0,0,0-.52-1.39,2.35,2.35,0,0,0-1.4-.37,4.6,4.6,0,0,0-1.19.17,6.27,6.27,0,0,0-1.53.65Zm5.34,4.22-1.48,0a3.63,3.63,0,0,0-2.13.53,1.45,1.45,0,0,0-.63,1.19,1.62,1.62,0,0,0,.14.7,1.07,1.07,0,0,0,.37.46,1.66,1.66,0,0,0,.54.23,3.26,3.26,0,0,0,2-.24,3.29,3.29,0,0,0,1.2-1Z"/><path class="cls-1" d="M268.33,516.59v-9.4h1.32l.3,1.88a3.07,3.07,0,0,1,1.12-1.46,3,3,0,0,1,1.8-.57,4,4,0,0,1,.86.08,4.08,4.08,0,0,1,.62.21l-.34,1.54a2.54,2.54,0,0,0-.53-.2,2.34,2.34,0,0,0-.69-.08,2.72,2.72,0,0,0-1.07.2,2.5,2.5,0,0,0-.86.59,3,3,0,0,0-.58,1,4.09,4.09,0,0,0-.21,1.36v4.86Z"/><path class="cls-1" d="M283.62,512.09h-6.74v.08a3.21,3.21,0,0,0,.85,2.4,3.16,3.16,0,0,0,2.31.84,6.91,6.91,0,0,0,1.35-.12,7.56,7.56,0,0,0,1.29-.41l.36,1.31a7.16,7.16,0,0,1-1.37.42,9.06,9.06,0,0,1-1.69.16,6.53,6.53,0,0,1-1.91-.28,4.38,4.38,0,0,1-1.57-.87,4.06,4.06,0,0,1-1.07-1.51,5.65,5.65,0,0,1-.39-2.2,5.75,5.75,0,0,1,.33-2,4.41,4.41,0,0,1,.93-1.54,4.2,4.2,0,0,1,1.45-1,4.82,4.82,0,0,1,1.91-.36,4.26,4.26,0,0,1,1.63.31,3.58,3.58,0,0,1,1.25.84,3.71,3.71,0,0,1,.8,1.3,4.93,4.93,0,0,1,.28,1.68Zm-1.82-1.26a3.73,3.73,0,0,0-.13-1,2.27,2.27,0,0,0-.4-.79,1.85,1.85,0,0,0-.69-.54,2.26,2.26,0,0,0-1-.2,2.38,2.38,0,0,0-1.79.7,3.1,3.1,0,0,0-.85,1.84Z"/><path class="cls-1" d="M25.14,527.81a10.34,10.34,0,0,1,1.78.15,6.49,6.49,0,0,1,1.7.55L28.18,530a8.08,8.08,0,0,0-1.55-.57,5.55,5.55,0,0,0-1.41-.17,2.87,2.87,0,0,0-1.8.5,1.65,1.65,0,0,0-.66,1.4,1.6,1.6,0,0,0,.49,1.22,4.28,4.28,0,0,0,1.61.8l1.26.4a4.66,4.66,0,0,1,2.43,1.47,3.34,3.34,0,0,1-.54,4.71,4.19,4.19,0,0,1-1.39.73,6.08,6.08,0,0,1-1.76.25,11.86,11.86,0,0,1-1.95-.17,7.81,7.81,0,0,1-2-.64l.44-1.5a8.06,8.06,0,0,0,1.68.63,7.43,7.43,0,0,0,1.72.2,3.31,3.31,0,0,0,1.84-.5,1.66,1.66,0,0,0,.76-1.48,2.15,2.15,0,0,0-.11-.68,1.69,1.69,0,0,0-.38-.59,2.91,2.91,0,0,0-.73-.51,6.66,6.66,0,0,0-1.16-.46l-1.26-.4a5.06,5.06,0,0,1-2.12-1.21,2.82,2.82,0,0,1-.74-2.05A3.32,3.32,0,0,1,22,528.78,4.61,4.61,0,0,1,25.14,527.81Z"/><path class="cls-1" d="M35.91,539.41a4.18,4.18,0,0,0,1.12-.14,8.26,8.26,0,0,0,.94-.36l.38,1.32a6.26,6.26,0,0,1-4.49.23,4.18,4.18,0,0,1-1.56-.9,4.22,4.22,0,0,1-1-1.52,5.4,5.4,0,0,1-.38-2.13,5.48,5.48,0,0,1,.36-2,4.42,4.42,0,0,1,1-1.52,4.37,4.37,0,0,1,1.54-1,5.71,5.71,0,0,1,2-.34,9.71,9.71,0,0,1,1.21.09,5.83,5.83,0,0,1,1.35.44l-.4,1.34a4,4,0,0,0-2-.53,3.19,3.19,0,0,0-2.36.91,3.49,3.49,0,0,0-.9,2.56,4.36,4.36,0,0,0,.28,1.69,2.73,2.73,0,0,0,.74,1.09,2.65,2.65,0,0,0,1,.6A3.93,3.93,0,0,0,35.91,539.41Z"/><path class="cls-1" d="M41.83,540.59H40.07V526.38h1.76v6a6.22,6.22,0,0,1,1.46-1,4,4,0,0,1,1.76-.39,3.55,3.55,0,0,1,1.36.24,2.46,2.46,0,0,1,1,.64,2.86,2.86,0,0,1,.56,1,4.06,4.06,0,0,1,.19,1.23v6.48H46.35v-6.05a2.31,2.31,0,0,0-.44-1.56,1.71,1.71,0,0,0-1.34-.49,3,3,0,0,0-1.37.34,5.52,5.52,0,0,0-1.37,1Z"/><path class="cls-1" d="M50.63,540.59v-9.4H52l.3,1.88a3.07,3.07,0,0,1,1.12-1.46,3,3,0,0,1,1.8-.57,4.05,4.05,0,0,1,.86.08,4.5,4.5,0,0,1,.62.21l-.34,1.54a2.77,2.77,0,0,0-.53-.2,2.34,2.34,0,0,0-.69-.08,2.68,2.68,0,0,0-1.07.2,2.41,2.41,0,0,0-.86.59,2.85,2.85,0,0,0-.58,1,4.09,4.09,0,0,0-.21,1.36v4.86Z"/><path class="cls-1" d="M59.13,528.77a1.14,1.14,0,0,1-.79-.31,1.08,1.08,0,0,1,0-1.55,1.06,1.06,0,0,1,.79-.32,1.09,1.09,0,0,1,.78.32,1.05,1.05,0,0,1,0,1.55A1.17,1.17,0,0,1,59.13,528.77Zm-.88,11.82v-9.4H60v9.4Z"/><path class="cls-1" d="M66.21,526.29a4.5,4.5,0,0,1,1.17.16,5.15,5.15,0,0,1,1.09.4l-.36,1.22a4.48,4.48,0,0,0-.76-.25,3.1,3.1,0,0,0-.76-.09,1.61,1.61,0,0,0-1.37.54,3.12,3.12,0,0,0-.41,1.84v1.08h2.86v1.32H64.81v8.08H63.07v-8.08H61.69v-1.32h1.38v-1.66a3.36,3.36,0,0,1,.81-2.41A3.13,3.13,0,0,1,66.21,526.29Z"/><path class="cls-1" d="M74.66,532.51H71.9V538a1.1,1.1,0,0,0,.35.95,1.58,1.58,0,0,0,.91.24,4.78,4.78,0,0,0,.88-.09,6.42,6.42,0,0,0,.84-.21l.28,1.34a6.68,6.68,0,0,1-1,.27,6.82,6.82,0,0,1-1.3.13,2.93,2.93,0,0,1-2-.61,2.33,2.33,0,0,1-.64-1.77v-5.7h-1.4v-1.32h1.4v-3H71.9v3h2.76Z"/><path class="cls-1" d="M80.6,526.29a4.39,4.39,0,0,1,1.17.16,5.15,5.15,0,0,1,1.09.4l-.36,1.22a4.21,4.21,0,0,0-.76-.25,3.1,3.1,0,0,0-.76-.09,1.62,1.62,0,0,0-1.37.54,3.12,3.12,0,0,0-.41,1.84v1.08h2.86v1.32H79.2v8.08H77.46v-8.08H76.08v-1.32h1.38v-1.66a3.36,3.36,0,0,1,.81-2.41A3.13,3.13,0,0,1,80.6,526.29Z"/><path class="cls-1" d="M83.67,532c.32-.16.62-.31.9-.43a5.7,5.7,0,0,1,.84-.31,6.25,6.25,0,0,1,.86-.18,7.22,7.22,0,0,1,1-.07,5.78,5.78,0,0,1,1.43.17,2.78,2.78,0,0,1,1.12.58,2.45,2.45,0,0,1,.73,1.05,4.23,4.23,0,0,1,.26,1.62v6.13H89.31l-.22-1.05h0a3.51,3.51,0,0,1-1.36,1,4.74,4.74,0,0,1-1.64.28,4.15,4.15,0,0,1-1.25-.19,3.15,3.15,0,0,1-1-.54,2.57,2.57,0,0,1-.65-.85,2.73,2.73,0,0,1-.23-1.12,2.52,2.52,0,0,1,1.17-2.25,5.48,5.48,0,0,1,3.09-.78H89v-.79a1.58,1.58,0,0,0-.52-1.39,2.33,2.33,0,0,0-1.4-.37,4.66,4.66,0,0,0-1.19.17,6.62,6.62,0,0,0-1.53.65ZM89,536.25l-1.48,0a3.63,3.63,0,0,0-2.13.53,1.45,1.45,0,0,0-.63,1.19,1.62,1.62,0,0,0,.14.7,1.23,1.23,0,0,0,.37.46,1.87,1.87,0,0,0,.54.23,3.49,3.49,0,0,0,.65.06,3.29,3.29,0,0,0,1.34-.3,3.13,3.13,0,0,0,1.2-1Z"/><path class="cls-1" d="M95,540.59H93.23v-9.4h1.36l.26,1.3a5.38,5.38,0,0,1,1.42-1,3.91,3.91,0,0,1,1.82-.4,3,3,0,0,1,1.64.42,2.59,2.59,0,0,1,1,1.13,4.89,4.89,0,0,1,1.54-1.14,4.23,4.23,0,0,1,1.86-.41,2.78,2.78,0,0,1,2.17.82,3.27,3.27,0,0,1,.73,2.25v6.48h-1.76v-6.16a2.29,2.29,0,0,0-.4-1.44,1.58,1.58,0,0,0-1.32-.5,3.46,3.46,0,0,0-2.54,1.22,1.23,1.23,0,0,1,0,.2v6.68H99.23v-6.16a2.29,2.29,0,0,0-.4-1.44,1.58,1.58,0,0,0-1.32-.5A3.35,3.35,0,0,0,95,533.77Z"/><path class="cls-1" d="M110.52,528.77a1.14,1.14,0,0,1-.79-.31,1.08,1.08,0,0,1,0-1.55,1.06,1.06,0,0,1,.79-.32,1.09,1.09,0,0,1,.78.32,1.05,1.05,0,0,1,0,1.55A1.17,1.17,0,0,1,110.52,528.77Zm-.88,11.82v-9.4h1.76v9.4Z"/><path class="cls-1" d="M114.07,540.59V526.38h1.72v14.21Z"/><path class="cls-1" d="M119.39,528.77a1.14,1.14,0,0,1-.79-.31,1.08,1.08,0,0,1,0-1.55,1.12,1.12,0,0,1,1.57,0,1.05,1.05,0,0,1,0,1.55A1.13,1.13,0,0,1,119.39,528.77Zm-.88,11.82v-9.4h1.76v9.4Z"/><path class="cls-1" d="M130.9,536.09h-6.74v.08a3.25,3.25,0,0,0,.85,2.4,3.19,3.19,0,0,0,2.31.84,6.77,6.77,0,0,0,1.35-.12,7,7,0,0,0,1.29-.41l.36,1.31a6.74,6.74,0,0,1-1.37.42,9,9,0,0,1-1.69.16,6.58,6.58,0,0,1-1.91-.28,4.56,4.56,0,0,1-1.57-.87,4.18,4.18,0,0,1-1.07-1.51,5.65,5.65,0,0,1-.39-2.2,5.75,5.75,0,0,1,.33-2,4.41,4.41,0,0,1,.93-1.54,4.3,4.3,0,0,1,1.45-1,4.89,4.89,0,0,1,1.91-.36,4.23,4.23,0,0,1,1.63.31,3.57,3.57,0,0,1,2.05,2.14,4.7,4.7,0,0,1,.28,1.68Zm-1.82-1.26a3.35,3.35,0,0,0-.13-1,2.11,2.11,0,0,0-.4-.79,1.85,1.85,0,0,0-.69-.54,2.26,2.26,0,0,0-1-.2,2.4,2.4,0,0,0-1.79.7,3.16,3.16,0,0,0-.85,1.84Z"/><path class="cls-1" d="M132.37,539.51a1.23,1.23,0,0,1,.36-.89,1.17,1.17,0,0,1,.86-.35,1.13,1.13,0,0,1,.85.35,1.34,1.34,0,0,1,0,1.81,1.2,1.2,0,0,1-.85.34,1.24,1.24,0,0,1-.86-.34A1.22,1.22,0,0,1,132.37,539.51Z"/></svg>