<svg id="Ebene_3" data-name="Ebene 3" xmlns="http://www.w3.org/2000/svg" xmlns:xlink="http://www.w3.org/1999/xlink" viewBox="0 0 2100 900"><defs><style>.cls-1{fill:none;}.cls-2{clip-path:url(#clip-path);}.cls-3{fill:url(#Unbenannter_Verlauf_17);}.cls-4{fill:#fff;}</style><clipPath id="clip-path"><rect class="cls-1" width="2100" height="900"/></clipPath><linearGradient id="Unbenannter_Verlauf_17" x1="67.64" y1="-117.16" x2="2032.36" y2="1017.16" gradientUnits="userSpaceOnUse"><stop offset="0" stop-color="#f00000"/><stop offset="1" stop-color="#dc281e"/></linearGradient></defs><title>Zeichenfläche 1</title><g class="cls-2"><rect class="cls-3" width="2100" height="900"/><path class="cls-4" d="M49.34,6.72l7.31,20.07L27.39,37.44l31.7,87.08-25.85,9.41L1.54,46.85-27,57.25l-7.31-20.07Z"/><path class="cls-4" d="M121,102l-25.18,9.16L51.58-10.47l25.17-9.16,16.9,46.44a44.33,44.33,0,0,1,8.72-9.92,40.14,40.14,0,0,1,12.57-7.27,36.47,36.47,0,0,1,13.73-2.5A25.7,25.7,0,0,1,140,10.05a28,28,0,0,1,8.79,7.49A41.08,41.08,0,0,1,154.92,29l19.5,53.57-25.17,9.17-18-49.5c-2-5.44-4.49-8.89-7.53-10.36s-6.54-1.47-10.51,0a21.88,21.88,0,0,0-7.65,4.9A25.36,25.36,0,0,0,100,44.32Z"/><path class="cls-4" d="M251.55,16.52l-52.72,19.2.25.68q3.09,8.51,11.15,10t18.09-2.16a52.5,52.5,0,0,0,11.75-5.81A44.48,44.48,0,0,0,247.74,32l10.91,15.68a63,63,0,0,1-10.23,8.15,79.78,79.78,0,0,1-16.65,8,64.43,64.43,0,0,1-18.33,3.88,43.46,43.46,0,0,1-17.21-2.31A38.75,38.75,0,0,1,181.66,56q-6.51-6.49-10.47-17.38a54.52,54.52,0,0,1-3.49-18.86,42.71,42.71,0,0,1,3.38-16.93,39.51,39.51,0,0,1,9.76-13.66A46,46,0,0,1,196.45-20q16.83-6.12,30.58.43T247.65,5.81ZM219.62,8.69a24.37,24.37,0,0,0-2.73-5.36A15.77,15.77,0,0,0,213-.74a11.36,11.36,0,0,0-5-2A11.9,11.9,0,0,0,202-2a13.81,13.81,0,0,0-8.35,7.76q-2.38,5.6-.47,13Z"/><path class="cls-4" d="M63.57,350a23.19,23.19,0,0,1-6.88,7A40.54,40.54,0,0,1,47,362.17a41.09,41.09,0,0,1-17.14,2.68,36,36,0,0,1-15-4.46A41.25,41.25,0,0,1,2.58,349.65a59.56,59.56,0,0,1-8.86-16.42,58.2,58.2,0,0,1-3.64-17.94A41.15,41.15,0,0,1-7.36,299a37.18,37.18,0,0,1,8.74-13.29,40.65,40.65,0,0,1,14.9-9.08,39.7,39.7,0,0,1,13.19-2.39,28.67,28.67,0,0,1,12.7,2.6l-1.06-7.13,19.22-7,44,120.76-25.17,9.16Zm-20-55.1a22.13,22.13,0,0,0-6.83-2.62,16,16,0,0,0-9,.87,17.86,17.86,0,0,0-6.23,3.81,16.34,16.34,0,0,0-4.06,6.29,21.6,21.6,0,0,0-1.14,8.8,40.93,40.93,0,0,0,2.64,11.46Q23.4,335.91,31,340.17t15.1,1.53a18,18,0,0,0,7.07-4.4,16.88,16.88,0,0,0,3.71-5.69Z"/><path class="cls-4" d="M127.77,238.21l25.17-9.16,29.72,81.64-18.54,6.74-5.77-7.91-.68.25a49.53,49.53,0,0,1-2.79,5.05,33.57,33.57,0,0,1-4.42,5.56,39.69,39.69,0,0,1-6.61,5.4,44.56,44.56,0,0,1-9.33,4.54q-13.26,4.83-23.41.24T95.76,311.69l-19.87-54.6,25.17-9.16,19.13,52.55q2.3,6.3,6.52,8.13a12,12,0,0,0,9.17,0,18.89,18.89,0,0,0,8.88-6,21.1,21.1,0,0,0,3.81-7.26Z"/><path class="cls-4" d="M176.24,202.46q-6.47,2.35-11.2-.07a13.16,13.16,0,0,1-6.59-7.52,13,13,0,0,1,.3-10q2.16-4.92,8.45-7.21t11.08,0a12.92,12.92,0,0,1,6.7,7.58,13.12,13.12,0,0,1-.18,10.08Q182.7,200.11,176.24,202.46Zm22.94,102.21L169.47,223l25.17-9.16,29.72,81.64Z"/><path class="cls-4" d="M278.59,257.08a31.07,31.07,0,0,0,9.09-4.94,48.44,48.44,0,0,0,5.42-5l10.78,15.34a46.09,46.09,0,0,1-8.4,7.1,59.83,59.83,0,0,1-14.28,7.32,58.22,58.22,0,0,1-18.6,3.68,41.1,41.1,0,0,1-16.88-3,40.31,40.31,0,0,1-14.1-9.89,52.91,52.91,0,0,1-13.17-35.66,41.43,41.43,0,0,1,4.23-16.95,44.79,44.79,0,0,1,10.9-14,53.53,53.53,0,0,1,17-9.77,65.85,65.85,0,0,1,11.92-3,49.12,49.12,0,0,1,14.34,0l1,19.1a39.92,39.92,0,0,0-8.81-.65,28.87,28.87,0,0,0-8.91,1.71q-9.87,3.58-13.79,11.85t.47,20.35a30.44,30.44,0,0,0,6.22,10.73,23.69,23.69,0,0,0,8.06,5.74,20.3,20.3,0,0,0,8.86,1.59A29,29,0,0,0,278.59,257.08Z"/><path class="cls-4" d="M331.17,226.58l9.66,26.54-25,9.1L271.56,140.61l25-9.1,25.82,70.92,14.25-40.24,30.44-11.08-18.28,45.56,49.36,35.58L368.55,243l-33.55-25Z"/><path class="cls-4" d="M512.67,144.73a52.36,52.36,0,0,1,3.46,18.77,42.43,42.43,0,0,1-3.3,16.32,36.82,36.82,0,0,1-9.18,12.88,42.88,42.88,0,0,1-14.34,8.49,36,36,0,0,1-14.51,2.49,28.76,28.76,0,0,1-12-3.42l-.68.24,1.2,8-18.2,6.63L400.82,93.56l25-9.1L442.42,130a36.86,36.86,0,0,1,7.23-8.7,33.26,33.26,0,0,1,11-6.4q17-6.18,30.82,1.59T512.67,144.73Zm-25.6,10.09Q482.56,142.4,475.56,138t-15.67-1.23a16.14,16.14,0,0,0-7,4.94,21.22,21.22,0,0,0-3.84,6.12l13.37,36.74a14.31,14.31,0,0,0,6.23,1.77,16.59,16.59,0,0,0,7-1,22.23,22.23,0,0,0,7-4.08,18.72,18.72,0,0,0,4.83-6.58,21.71,21.71,0,0,0,1.76-8.92A32.35,32.35,0,0,0,487.07,154.82Z"/><path class="cls-4" d="M539.23,180.9,509.51,99.26l19.73-7.18L537,105.44a43.62,43.62,0,0,1,1.55-7.4,25.58,25.58,0,0,1,3.38-7.1,28.62,28.62,0,0,1,5.76-6.15,29.5,29.5,0,0,1,8.43-4.61,26,26,0,0,1,7.23-1.57,21.81,21.81,0,0,1,5.79.3l3,21a26.1,26.1,0,0,0-5.44-.14,27.48,27.48,0,0,0-7.45,1.75,19,19,0,0,0-11.16,9.84q-3.33,7,1.25,19.57l14.86,40.82Z"/><path class="cls-4" d="M668.07,87.2a49.59,49.59,0,0,1,3.25,19.24,42.77,42.77,0,0,1-4.15,16.92,42,42,0,0,1-10.48,13.54,49.81,49.81,0,0,1-15.75,9.1,51.72,51.72,0,0,1-17.78,3.29,40.76,40.76,0,0,1-16.29-3.21,39.71,39.71,0,0,1-13.58-9.8,48.35,48.35,0,0,1-9.64-16.42,52,52,0,0,1-3.43-19.75,41.24,41.24,0,0,1,14.57-30.63,50,50,0,0,1,15.75-9.11A53.44,53.44,0,0,1,628.28,57a39.13,39.13,0,0,1,16.3,3.22,40.43,40.43,0,0,1,13.64,10A50.4,50.4,0,0,1,668.07,87.2ZM642.53,97.46a43.64,43.64,0,0,0-5.48-10.81,23.29,23.29,0,0,0-6.52-6.29,15.55,15.55,0,0,0-7-2.36,16.42,16.42,0,0,0-6.78.93,17.67,17.67,0,0,0-5.78,3.45,13.65,13.65,0,0,0-3.78,6,23.26,23.26,0,0,0-.91,8.9,46.18,46.18,0,0,0,2.94,12.32q4.53,12.41,11.73,16.34t13.84,1.51a16.43,16.43,0,0,0,5.74-3.54,14.66,14.66,0,0,0,3.79-6,22.45,22.45,0,0,0,1-8.73A42.65,42.65,0,0,0,642.53,97.46Z"/><path class="cls-4" d="M655,46.32l26.19-9.53,24,37.31,11.23,21.33.68-.24-4.6-23.76-6-43.86L732.86,18,756.5,55.4l11.75,21.15.68-.25-4.77-23.68L758.38,8.68,783.89-.6,791.83,89,762.24,99.73,737.36,61,726.84,42.7l3.55,20.86,6,45.58L706.62,120Z"/><path class="cls-4" d="M845.56,69.41l-25.17,9.16L790.67-3.07l19.56-7.12L816.84-1a45.07,45.07,0,0,1,9-13.3A36.28,36.28,0,0,1,839.49-23q13.77-5,23.81-.19T878.6-3.87l19.69,54.09-25.17,9.16L854.36,7.84q-2.18-5.94-6.24-8.42t-9.52-.48a19.57,19.57,0,0,0-7.72,5.51,28.88,28.88,0,0,0-5.62,9.17Z"/><path class="cls-4" d="M943.83-104.08a51.35,51.35,0,0,1,13.46-3,46.76,46.76,0,0,1,12.41.49l.95,18a45.6,45.6,0,0,0-6.37-.28,21.08,21.08,0,0,0-6.55,1.32q-5.44,2-7,6c-1,2.68-.61,6.51,1.2,11.5l2.66,7.31,19.22-7,6.56,18-19.22,7,23.16,63.61-25,9.1L936.19-35.62,923.61-31l-6.57-18,12.59-4.58-4.39-12.07q-5-13.78.41-23.75T943.83-104.08Z"/><path class="cls-4" d="M1077.83-61.94a49.62,49.62,0,0,1,3.25,19.24,42.77,42.77,0,0,1-4.15,16.92,42,42,0,0,1-10.48,13.54,49.81,49.81,0,0,1-15.75,9.1A51.72,51.72,0,0,1,1032.92.15a40.76,40.76,0,0,1-16.29-3.21,39.71,39.71,0,0,1-13.58-9.8,48.19,48.19,0,0,1-9.64-16.42A52,52,0,0,1,990-49a42.38,42.38,0,0,1,4.08-17.09,42.11,42.11,0,0,1,10.48-13.54,50.18,50.18,0,0,1,15.76-9.11A53.44,53.44,0,0,1,1038-92.14a39,39,0,0,1,16.3,3.22A40.53,40.53,0,0,1,1068-79,50.4,50.4,0,0,1,1077.83-61.94Zm-25.54,10.26a43.64,43.64,0,0,0-5.48-10.81,23.48,23.48,0,0,0-6.52-6.3,15.53,15.53,0,0,0-7-2.35,16.26,16.26,0,0,0-6.78.93,17.5,17.5,0,0,0-5.78,3.45,13.67,13.67,0,0,0-3.79,6,23.27,23.27,0,0,0-.9,8.9A46.18,46.18,0,0,0,1019-39.54q4.53,12.41,11.73,16.34t13.84,1.51a16.43,16.43,0,0,0,5.74-3.54,14.66,14.66,0,0,0,3.79-6,22.47,22.47,0,0,0,1-8.73A42.65,42.65,0,0,0,1052.29-51.68Z"/><path class="cls-4" d="M-8.76,500.93q-6.47,2.35-11.19-.06a13.18,13.18,0,0,1-6.59-7.53,13,13,0,0,1,.3-10q2.14-4.94,8.44-7.22t11.08,0A13,13,0,0,1,0,483.69a13.12,13.12,0,0,1-.18,10.08Q-2.31,498.59-8.76,500.93Zm-6.94,20.63L9.48,512.4l25.63,70.42A100.18,100.18,0,0,1,40,601.26a57,57,0,0,1,.16,17.38,47.93,47.93,0,0,1-5.62,16.3A63.84,63.84,0,0,1,22,650.4l-16.67-13a55.86,55.86,0,0,0,6.47-8.14,23.11,23.11,0,0,0,3.37-9,36.16,36.16,0,0,0-.35-11.53A94.8,94.8,0,0,0,10.31,593Z"/><path class="cls-4" d="M77.56,487.62l25.17-9.16,29.72,81.64-18.54,6.75-5.77-7.92-.68.25a49.37,49.37,0,0,1-2.78,5.06,34.08,34.08,0,0,1-4.43,5.56,39.66,39.66,0,0,1-6.61,5.39,44.71,44.71,0,0,1-9.32,4.55Q71,584.57,60.9,580T45.56,561.1L25.69,506.5l25.17-9.16L70,549.9q2.28,6.29,6.52,8.12a12,12,0,0,0,9.16,0,18.92,18.92,0,0,0,8.88-6,20.93,20.93,0,0,0,3.81-7.26Z"/><path class="cls-4" d="M173.28,545.24l-25.17,9.16L118.4,472.76,138,465.64l6.6,9.15a46.88,46.88,0,0,1,8.69-13.18,33.9,33.9,0,0,1,13.28-8.49q17.52-6.37,28.5,3.69a47.63,47.63,0,0,1,9.05-13.51,35,35,0,0,1,13.47-8.75q13.11-4.77,22.81-.31T255,452.3l20.3,55.79-25.17,9.16L230.79,464a12.65,12.65,0,0,0-5.7-7.18,9.88,9.88,0,0,0-8.43-.39,21.57,21.57,0,0,0-7.76,5.13,19.88,19.88,0,0,0-5.14,8.62l20.55,56.46-25.17,9.17-19.38-53.24a12.62,12.62,0,0,0-5.69-7.17,9.88,9.88,0,0,0-8.43-.4,19.08,19.08,0,0,0-7.64,5.47,23.33,23.33,0,0,0-5,9Z"/><path class="cls-4" d="M331.56,489.75a39.71,39.71,0,0,1-8.67,2.09,28.71,28.71,0,0,1-7.47.12l14.73,40.48-25,9.1L261.2,420.78,279.91,414l5.54,7.81a38.05,38.05,0,0,1,22-19.95,36.77,36.77,0,0,1,15.34-2.31,31.59,31.59,0,0,1,13.89,4.28,41.36,41.36,0,0,1,11.62,10.51A58.74,58.74,0,0,1,357,430.42a54.55,54.55,0,0,1,3.61,20,42.54,42.54,0,0,1-3.8,17.08,40.6,40.6,0,0,1-10.06,13.39A46.81,46.81,0,0,1,331.56,489.75Zm-24.43-66.62A18.1,18.1,0,0,0,299,428.8a23,23,0,0,0-4.05,6.86l13.62,37.42q5.61,2.21,13.1-.53a19.41,19.41,0,0,0,6.31-3.83,17,17,0,0,0,4.45-6.54,24.65,24.65,0,0,0,1.52-9.32,37.19,37.19,0,0,0-2.57-12.35q-3.53-9.7-10.05-14.93A13.82,13.82,0,0,0,307.13,423.13Z"/><path class="cls-4" d="M411.9,389.62a54.28,54.28,0,0,0-11,0A43.1,43.1,0,0,0,390.61,392a15.41,15.41,0,0,0-6.59,4.13,5,5,0,0,0-1.17,5.24,6.21,6.21,0,0,0,4.4,3.89q3.35,1,12,.36l5.66-.33q11.31-.64,18.73,3.3t10.75,13.13a25.9,25.9,0,0,1,1.5,12.07,26.47,26.47,0,0,1-4.1,11.22,35.59,35.59,0,0,1-9.25,9.53,55.74,55.74,0,0,1-13.86,7.16,73.87,73.87,0,0,1-16,4.08,58.55,58.55,0,0,1-14.11.12l-1.18-20.18a63.76,63.76,0,0,0,11.81.43,40.62,40.62,0,0,0,11.56-2.38q6.45-2.36,8.41-5.18a5.72,5.72,0,0,0,1-5.39,5.92,5.92,0,0,0-1.55-2.42,6.81,6.81,0,0,0-2.9-1.35,19.69,19.69,0,0,0-5-.37c-2.1,0-4.79.17-8.07.33l-5.83.39q-11.2.42-17.87-3.61t-10.2-13.72a24.87,24.87,0,0,1,1.87-21.58,32.25,32.25,0,0,1,8.23-9.16,48.07,48.07,0,0,1,13.15-7,73.6,73.6,0,0,1,15.07-3.85,60.62,60.62,0,0,1,13.61-.42Z"/><path class="cls-4" d="M561,357.32a49.76,49.76,0,0,1,3.24,19.24,42.77,42.77,0,0,1-4.14,16.92A42,42,0,0,1,549.59,407a49.81,49.81,0,0,1-15.75,9.1,51.71,51.71,0,0,1-17.77,3.29,40.77,40.77,0,0,1-16.3-3.21,39.71,39.71,0,0,1-13.58-9.8A48.31,48.31,0,0,1,476.55,390a52.13,52.13,0,0,1-3.43-19.74,41.24,41.24,0,0,1,14.57-30.63,50,50,0,0,1,15.75-9.11,53.5,53.5,0,0,1,17.75-3.37,38.93,38.93,0,0,1,16.29,3.22,40.43,40.43,0,0,1,13.64,10A50.58,50.58,0,0,1,561,357.32Zm-25.55,10.26A43.64,43.64,0,0,0,530,356.77a23.51,23.51,0,0,0-6.53-6.3,15.49,15.49,0,0,0-7-2.35,16.3,16.3,0,0,0-6.79.93,17.5,17.5,0,0,0-5.78,3.45,13.62,13.62,0,0,0-3.78,6,23.27,23.27,0,0,0-.9,8.9,45.28,45.28,0,0,0,2.94,12.31q4.51,12.42,11.72,16.35t13.84,1.51a16.61,16.61,0,0,0,5.75-3.54,14.77,14.77,0,0,0,3.79-6,22.68,22.68,0,0,0,1-8.73A42.65,42.65,0,0,0,535.43,367.58Z"/><path class="cls-4" d="M605.24,295.56l26.7-9.72,1.14,92-29.93,10.9L546.22,317l26.87-9.78L596,339.39l15.95,26.36.68-.25-4.73-30.45Z"/><path class="cls-4" d="M727.07,305.73l-52.73,19.19.25.68q3.1,8.5,11.15,10c5.38,1,11.4.28,18.1-2.15a52.94,52.94,0,0,0,11.75-5.82,44.43,44.43,0,0,0,7.66-6.45l10.91,15.68A63.17,63.17,0,0,1,723.93,345a79.69,79.69,0,0,1-16.64,8A64.43,64.43,0,0,1,689,356.87a43.43,43.43,0,0,1-17.21-2.31,38.55,38.55,0,0,1-14.57-9.33q-6.51-6.5-10.47-17.38A54.24,54.24,0,0,1,643.22,309a42.83,42.83,0,0,1,3.37-16.92,39.81,39.81,0,0,1,9.76-13.67A46.11,46.11,0,0,1,672,269.16q16.85-6.14,30.59.42T723.17,295Zm-31.94-7.83a24.63,24.63,0,0,0-2.72-5.37,16.09,16.09,0,0,0-3.89-4.07,11.41,11.41,0,0,0-5-2,11.9,11.9,0,0,0-6,.74,13.79,13.79,0,0,0-8.35,7.75q-2.4,5.59-.47,13Z"/><path class="cls-4" d="M751.42,334.81l-29.71-81.64L741.44,246l7.75,13.36a43.37,43.37,0,0,1,1.54-7.4,25.52,25.52,0,0,1,3.39-7.11,28.09,28.09,0,0,1,5.76-6.14,29.26,29.26,0,0,1,8.43-4.61,25.5,25.5,0,0,1,7.23-1.57,21.45,21.45,0,0,1,5.79.3l3,21a26.84,26.84,0,0,0-5.44-.14,27.62,27.62,0,0,0-7.46,1.75,19,19,0,0,0-11.15,9.84q-3.33,7,1.25,19.58l14.86,40.82Z"/><path class="cls-4" d="M882.2,215.17l-20.92,7.62,12.56,34.53q2,5.61,5.32,6.92c2.17.88,4.74.78,7.69-.29a36.88,36.88,0,0,0,6.55-3.16A16.64,16.64,0,0,0,898,257l10,15.82a43.1,43.1,0,0,1-7.68,6.16,55.37,55.37,0,0,1-12,6q-15.83,5.75-24.59,2t-13.3-16.15l-14.18-38.95-12.75,4.64-6.57-18,12.76-4.64-9-24.83,25-9.1,9,24.83,20.92-7.61Z"/><path class="cls-4" d="M942.63,265.22l-25.17,9.16L873.19,152.77l25.18-9.16L915.27,190a44.27,44.27,0,0,1,8.71-9.92,40.33,40.33,0,0,1,12.57-7.27,36.66,36.66,0,0,1,13.74-2.49,25.42,25.42,0,0,1,11.27,2.93,27.9,27.9,0,0,1,8.79,7.49,40.76,40.76,0,0,1,6.18,11.42L996,245.78l-25.17,9.16-18-49.49q-3-8.17-7.53-10.36c-3-1.47-6.54-1.47-10.51,0a22,22,0,0,0-7.65,4.9,25.52,25.52,0,0,0-5.52,7.6Z"/><path class="cls-4" d="M1073.17,179.76,1020.44,199l.25.68q3.09,8.51,11.15,10t18.09-2.15a52.08,52.08,0,0,0,11.75-5.82,44.09,44.09,0,0,0,7.67-6.45l10.91,15.68A63.51,63.51,0,0,1,1070,219a79.69,79.69,0,0,1-16.64,8,64.57,64.57,0,0,1-18.34,3.88,43.66,43.66,0,0,1-17.21-2.3,38.77,38.77,0,0,1-14.57-9.34q-6.49-6.49-10.46-17.38a54.26,54.26,0,0,1-3.5-18.86,42.87,42.87,0,0,1,3.38-16.92,39.68,39.68,0,0,1,9.76-13.67,46,46,0,0,1,15.61-9.24q16.83-6.13,30.58.42T1069.27,169Zm-31.94-7.83a24.63,24.63,0,0,0-2.72-5.37,16.27,16.27,0,0,0-3.89-4.07,11.41,11.41,0,0,0-5-2,12,12,0,0,0-6,.74,13.75,13.75,0,0,0-8.34,7.75q-2.4,5.59-.48,13Z"/><path class="cls-4" d="M1137.4,194.32,1093.14,72.71l24.83-9,44.27,121.61Z"/><path class="cls-4" d="M1152.44,104.49a72.63,72.63,0,0,1,30.39-21.27q15.14-5.52,27-1.54t17.66,19.95l19.25,52.9-19.22,7-5.18-7.36-.68.25a26.43,26.43,0,0,1-6.81,10.66,39.76,39.76,0,0,1-26.08,10.36,26.18,26.18,0,0,1-10.57-2.32,24.09,24.09,0,0,1-8.13-6.19,29.26,29.26,0,0,1-5.41-9.3,24.36,24.36,0,0,1-1.31-13.39,26.69,26.69,0,0,1,5.47-11.43,43,43,0,0,1,10.86-9.34,78.36,78.36,0,0,1,14.83-7.13l8.5-3.1-1.6-4.42a8.89,8.89,0,0,0-5.81-5.88q-4.12-1.29-10.08.87A35.71,35.71,0,0,0,1176,109a59,59,0,0,0-9.1,8.89Zm56.31,24-5.55,2.21a39.66,39.66,0,0,0-7.63,3.93,19,19,0,0,0-4.41,4,8,8,0,0,0-1.69,4.09,8.76,8.76,0,0,0,.48,4c1.28,3.52,3.2,5.55,5.78,6.09a14.29,14.29,0,0,0,7.94-.68,13.17,13.17,0,0,0,6.53-5.07,14.94,14.94,0,0,0,2.76-7Z"/><path class="cls-4" d="M1295.43,61.88l-18.88,61.38,37.25-13.56,6.56,18-65,23.65-5.82-16,19.06-60.87L1234.28,87l-6.56-18,62.08-22.6Z"/><path class="cls-4" d="M1294,44.87l27.55-10,26.69,31.51,12.68,17.92.68-.25-2.26-22.09L1358,21.6l25.68-9.35.85,93.88a127.86,127.86,0,0,1-.66,15.65,69.5,69.5,0,0,1-3.39,15.29,60.07,60.07,0,0,1-20.61,28.31l-17.5-15.78a46.1,46.1,0,0,0,12.87-16.25,35.31,35.31,0,0,0,3.19-18.49l-.16-1.49Z"/><path class="cls-4" d="M1468.07-63.75l25.17-9.16L1537.5,48.7,1520.16,55l-5.77-7.91-.85.31q-1,4.61-5.62,10.23t-14.13,9.09a38.9,38.9,0,0,1-15.88,2.41,35.86,35.86,0,0,1-14.83-4.24,42.32,42.32,0,0,1-12.63-10.62,56.14,56.14,0,0,1-9.27-16.75A60.93,60.93,0,0,1,1437.32,19a40,40,0,0,1,2.51-16.13,35,35,0,0,1,8.86-12.95,43.26,43.26,0,0,1,15-9A36.71,36.71,0,0,1,1475-21.28a21.47,21.47,0,0,1,9,1.24Zm22.6,62.08a16.84,16.84,0,0,0-6.19-2.18,14.9,14.9,0,0,0-7.82.73,21.81,21.81,0,0,0-6.85,3.94,16.44,16.44,0,0,0-4.52,6.36,22,22,0,0,0-1.48,8.92,37.1,37.1,0,0,0,2.52,11.7q4.65,12.75,11.86,17a17.16,17.16,0,0,0,15.21,1.3,14,14,0,0,0,7.32-5.56,16.26,16.26,0,0,0,2.7-7.14Z"/><path class="cls-4" d="M1619.2-27.84a49.58,49.58,0,0,1,3.25,19.23,42.69,42.69,0,0,1-4.15,16.92,41.86,41.86,0,0,1-10.48,13.54A50,50,0,0,1,1592.07,31a52,52,0,0,1-17.78,3.29A40.76,40.76,0,0,1,1558,31a39.55,39.55,0,0,1-13.58-9.79,48.4,48.4,0,0,1-9.64-16.43,52,52,0,0,1-3.43-19.75A42.17,42.17,0,0,1,1535.44-32a41.87,41.87,0,0,1,10.48-13.55,50,50,0,0,1,15.75-9.1A53.46,53.46,0,0,1,1579.41-58a39.13,39.13,0,0,1,16.3,3.22,40.53,40.53,0,0,1,13.64,10A50.46,50.46,0,0,1,1619.2-27.84Zm-25.54,10.26a43.38,43.38,0,0,0-5.48-10.82,23.44,23.44,0,0,0-6.52-6.29,15.63,15.63,0,0,0-7-2.36,16.42,16.42,0,0,0-6.78.93,17.85,17.85,0,0,0-5.78,3.45,13.65,13.65,0,0,0-3.78,6,23.28,23.28,0,0,0-.91,8.9,46.09,46.09,0,0,0,2.94,12.32q4.53,12.42,11.73,16.34t13.84,1.51a16.68,16.68,0,0,0,5.75-3.53,14.75,14.75,0,0,0,3.78-6,22.47,22.47,0,0,0,1-8.73A42.65,42.65,0,0,0,1593.66-17.58Z"/><path class="cls-4" d="M1623-43.08a29,29,0,0,1-1.71-13.16,30.51,30.51,0,0,1,4.11-12.28,36.6,36.6,0,0,1,9.16-10.27,49.19,49.19,0,0,1,13.6-7.35A53.54,53.54,0,0,1,1655-88a55,55,0,0,1,7.3-1.11l34.7-12.63,5.63,15.48-7.83,2.84-10.08,1.94a24.34,24.34,0,0,1,5.5,5.32,26.46,26.46,0,0,1,4.12,7.36,30.11,30.11,0,0,1,1.9,12.6,27.78,27.78,0,0,1-3.63,11.72,34.5,34.5,0,0,1-9,10.13,52.24,52.24,0,0,1-14.2,7.57c-1.25.45-2.46.83-3.63,1.13s-2.37.54-3.59.73a8.89,8.89,0,0,0-1.53,2.67,4.83,4.83,0,0,0,.1,3.44,4.69,4.69,0,0,0,2.91,3c1.41.52,3.75.17,7.05-1l17.17-6.26a55.55,55.55,0,0,1,12.75-3.09,27,27,0,0,1,11.21.92,21.82,21.82,0,0,1,9.09,5.65,29.73,29.73,0,0,1,6.45,10.85,25.67,25.67,0,0,1,1.23,13.42,32.19,32.19,0,0,1-5.57,13,48.92,48.92,0,0,1-12,11.57,74.93,74.93,0,0,1-17.79,9.08q-19,6.93-32.35,4.26t-17.75-14.92a15,15,0,0,1,.16-10.94,25.81,25.81,0,0,1,7.9-10.29,22.13,22.13,0,0,1-6.29-3A14,14,0,0,1,1639.33-4a16,16,0,0,1-.13-11.21,27.66,27.66,0,0,1,6.31-9.91,27.93,27.93,0,0,1-5.88-1.62,31.78,31.78,0,0,1-6.42-3.34,28.16,28.16,0,0,1-5.87-5.28A24.86,24.86,0,0,1,1623-43.08Zm46.65-17.37q-2.18-6-6.46-8a11.38,11.38,0,0,0-9.06-.27,11.3,11.3,0,0,0-6.84,6.05q-1.92,4.27.25,10.22t6.45,7.95a11.39,11.39,0,0,0,9.06.27,11.33,11.33,0,0,0,6.85-6.06Q1671.8-54.5,1669.63-60.45Zm-2.89,66.16a10.78,10.78,0,0,0-2.46,4.36,8.85,8.85,0,0,0,.33,5.66q1.55,4.24,6.66,5.86t15.82-2.3q10-3.64,13.68-8.73t2-9.5q-1.42-3.92-4.8-4.71t-9.83,1.56Z"/><path class="cls-4" d="M48.5,700.45l6.06,16.66L23.1,728.57,56,819.05,35.28,826.6,2.35,736.12l-30.62,11.14-6.06-16.67Z"/><path class="cls-4" d="M115.87,797.27,95.8,804.58,51.72,683.48l20.07-7.31,17.7,48.65a50.21,50.21,0,0,1,9.09-11.3,37.9,37.9,0,0,1,13.18-8,34.53,34.53,0,0,1,13.1-2.36,24.2,24.2,0,0,1,19,9.76,39.18,39.18,0,0,1,5.7,10.64l19.75,54.25-20.07,7.31-18.32-50.35q-3.16-8.67-8-11.23t-11.68-.08a25.18,25.18,0,0,0-9.17,6,37.75,37.75,0,0,0-7.11,10.11Z"/><path class="cls-4" d="M243.74,710.09l-54.94,20,.25.68q4,11.06,12.89,14T222,743.61a56,56,0,0,0,11.39-5.5,62.21,62.21,0,0,0,8.78-6.85l9.05,12.7a66.89,66.89,0,0,1-10.38,8,77.38,77.38,0,0,1-15.26,7.29A62.35,62.35,0,0,1,207.82,763a40.1,40.1,0,0,1-16.58-2.43,38.36,38.36,0,0,1-14.15-9.49q-6.33-6.55-10.3-17.44a53,53,0,0,1-3.42-18.41,41.78,41.78,0,0,1,3.27-16.4,38.33,38.33,0,0,1,9.6-13.32,46,46,0,0,1,15.39-9.07q16.16-5.88,29.27.52t19.49,23.92Zm-25.66-6.46a29.47,29.47,0,0,0-3.36-6.57,17.91,17.91,0,0,0-4.86-4.88,13.59,13.59,0,0,0-6.3-2.23,17,17,0,0,0-7.58,1.12,17.83,17.83,0,0,0-10.73,9.68q-3.08,6.9-1.06,15.61Z"/><path class="cls-4" d="M359.73,703.31a27,27,0,0,1-7.37,8.08A41.7,41.7,0,0,1,341.78,717a40.33,40.33,0,0,1-16.68,2.61,35.19,35.19,0,0,1-14.75-4.27,38.82,38.82,0,0,1-12-10.55,60,60,0,0,1-8.75-16.36A58.21,58.21,0,0,1,286,670.75a40,40,0,0,1,2.45-16,36.18,36.18,0,0,1,8.55-13,40.3,40.3,0,0,1,14.76-8.93,37.55,37.55,0,0,1,12.91-2.1,27.54,27.54,0,0,1,12.82,2.94l-1.2-8,15.82-5.76,43.65,119.91L375.63,747Zm-19.81-54.42a23,23,0,0,0-8.72-3.57,19.19,19.19,0,0,0-10.54.94,22.37,22.37,0,0,0-7.43,4.45,18.67,18.67,0,0,0-4.85,7.06,24.65,24.65,0,0,0-1.5,9.89,41.36,41.36,0,0,0,2.75,12.86q5,13.79,13.39,18.53a19.7,19.7,0,0,0,17.22,1.53,22.32,22.32,0,0,0,8.78-5.5,23.81,23.81,0,0,0,5-7.58Z"/><path class="cls-4" d="M421.1,594.69l20.07-7.31,29.4,80.79-15.14,5.51-5.78-8.49-.68.25a44.58,44.58,0,0,1-7.62,11.35q-5.21,5.84-14.89,9.36-12.76,4.65-23,.29T388,667.79l-19.62-53.91,20.07-7.31,18.88,51.88q3,8.32,8.13,10.43a14.86,14.86,0,0,0,11.05-.08,23.29,23.29,0,0,0,10-6.63,32.21,32.21,0,0,0,5.7-9.49Z"/><path class="cls-4" d="M461.83,558.86q-5.26,1.92-9.36-.06A11.83,11.83,0,0,1,447,543.55a12.85,12.85,0,0,1,16.13-6,11.8,11.8,0,0,1,5.57,15.31A11.44,11.44,0,0,1,461.83,558.86Zm26.12,103-29.4-80.78,20.07-7.31L508,654.54Z"/><path class="cls-4" d="M561.56,620a34.75,34.75,0,0,0,9.15-4.78,43.42,43.42,0,0,0,6-5.37l9,12.69a51.85,51.85,0,0,1-8.63,7A58.89,58.89,0,0,1,564.29,636a55.93,55.93,0,0,1-17.8,3.49,40.17,40.17,0,0,1-16.48-3,39.27,39.27,0,0,1-13.87-9.78A53.75,53.75,0,0,1,503,591.25a40.62,40.62,0,0,1,4-16.57,41.57,41.57,0,0,1,10.51-13.46,52.32,52.32,0,0,1,16.35-9.32A64.43,64.43,0,0,1,545.14,549a52.28,52.28,0,0,1,13.56-.31l.95,15.83a40.23,40.23,0,0,0-9.24-.49,31.92,31.92,0,0,0-8.93,1.91Q530.25,570,526,579.35t.46,22.46a35.74,35.74,0,0,0,6.92,12.12,25,25,0,0,0,8.88,6.4A22.16,22.16,0,0,0,552,622,33.26,33.26,0,0,0,561.56,620Z"/><path class="cls-4" d="M606.91,587l10.15,27.89-19.9,7.25L553.08,501l19.9-7.25,26.56,73,17-43.18,24.49-8.91-19.43,45.59,50.2,34.7-23.65,8.61-36.73-26.31Z"/><path class="cls-4" d="M782.23,509.28a52.76,52.76,0,0,1,3.45,18.49,41.46,41.46,0,0,1-3.2,16.09,36.81,36.81,0,0,1-9,12.7,40.34,40.34,0,0,1-13.66,8.24,39,39,0,0,1-14.53,2.69,32.83,32.83,0,0,1-12.8-3.14l-.51.18,1.19,8-14.45,5.26L674.69,456.74l19.9-7.25,17.52,48.14a37.94,37.94,0,0,1,8.21-10.79,34.57,34.57,0,0,1,11.69-7q16.15-5.88,29.56,1.85T782.23,509.28Zm-20.63,7.89q-4.65-12.75-12.49-17.89t-17.19-1.74a20.31,20.31,0,0,0-8.77,6.08,33.32,33.32,0,0,0-5.42,8.91l13.74,37.76a21.36,21.36,0,0,0,8.32,2.75,20.05,20.05,0,0,0,9.19-1.22,25.29,25.29,0,0,0,7.77-4.57,19.5,19.5,0,0,0,5.38-7.45,26.65,26.65,0,0,0,1.93-10A35.88,35.88,0,0,0,761.6,517.17Z"/><path class="cls-4" d="M809.17,544.93l-29.41-80.79,15.48-5.63,8.06,14.21a30.37,30.37,0,0,1,4.88-15.17q4.53-7.12,13.88-10.54a28.84,28.84,0,0,1,7.46-1.75,30.6,30.6,0,0,1,5.78,0l2.54,17.56a24,24,0,0,0-5.24-.11,26.38,26.38,0,0,0-6.91,1.65,21.14,21.14,0,0,0-12.46,11.27q-3.79,8.13.92,21.05l14.92,41Z"/><path class="cls-4" d="M931.5,454a52,52,0,0,1,3.42,19.18,40,40,0,0,1-3.87,16.62A41,41,0,0,1,921,502.88a47.37,47.37,0,0,1-15.11,8.78,49.48,49.48,0,0,1-17.06,3.13,39.06,39.06,0,0,1-15.72-3.24,37.92,37.92,0,0,1-13.18-9.75,49.82,49.82,0,0,1-9.44-16.4A53.14,53.14,0,0,1,847,466a39.92,39.92,0,0,1,3.84-16.71,41,41,0,0,1,10.06-13.1A47.35,47.35,0,0,1,876,427.39a50.53,50.53,0,0,1,17-3.22,37.64,37.64,0,0,1,15.72,3.24,39.11,39.11,0,0,1,13.21,9.83A50.83,50.83,0,0,1,931.5,454Zm-20.44,8.41a42.77,42.77,0,0,0-6.25-11.88,25.64,25.64,0,0,0-7.57-6.78,18.58,18.58,0,0,0-8.2-2.41,20.47,20.47,0,0,0-8.12,1.22,23.41,23.41,0,0,0-7,4,15.92,15.92,0,0,0-4.69,6.71,25.52,25.52,0,0,0-1.35,10A45.76,45.76,0,0,0,870.92,477a40.76,40.76,0,0,0,6.13,11.54,26.92,26.92,0,0,0,7.54,6.69,18.12,18.12,0,0,0,8.23,2.5,20.71,20.71,0,0,0,8.12-1.23,22.14,22.14,0,0,0,6.91-4.05,16.86,16.86,0,0,0,4.76-6.74,24.54,24.54,0,0,0,1.42-9.86A44.11,44.11,0,0,0,911.06,462.39Z"/><path class="cls-4" d="M918.38,413.69,939.46,406l28,41.44,10.37,19,.68-.25-3.73-21.37-5.2-49.73,21.26-7.74,28,41.43,10.87,18.77.68-.24-3.73-21.37-5.36-49.67,20.41-7.43L1048,458l-23.3,8.48L996.5,425.13l-10.69-18.26,3.21,21,5,49.79-23,8.36Z"/><path class="cls-4" d="M1098.81,439.51l-20.07,7.3L1049.34,366l15.65-5.69,6.45,9.79a49.16,49.16,0,0,1,9.13-13.54,35.67,35.67,0,0,1,13.62-8.62q13.1-4.75,22.88-.13t14.6,17.89l19.87,54.6-20.07,7.3-19-52.21q-2.34-6.46-7.12-9.26t-11.4-.37a23.13,23.13,0,0,0-9.08,6.29,37.84,37.84,0,0,0-6.78,10.46Z"/><path class="cls-4" d="M1196.06,266.39a45.91,45.91,0,0,1,12-2.61,50.27,50.27,0,0,1,11.46.26l.92,14.69a49,49,0,0,0-6.85,0,24.88,24.88,0,0,0-6.68,1.47q-6.64,2.42-8.36,7.48t1.62,14.24l3,8.16,21.77-7.92,5.33,14.63-21.77,7.92,24.08,66.16-19.9,7.24-24.08-66.16-12.08,4.4-5.32-14.63,12.07-4.4-4.76-13.09q-4.89-13.44,0-23.31T1196.06,266.39Z"/><path class="cls-4" d="M1324.71,310.87a51.88,51.88,0,0,1,3.42,19.17,40.06,40.06,0,0,1-3.87,16.63,41.08,41.08,0,0,1-10.06,13.1,47.35,47.35,0,0,1-15.11,8.77,49.25,49.25,0,0,1-17.06,3.13,39.1,39.1,0,0,1-15.72-3.24,38,38,0,0,1-13.18-9.74,49.8,49.8,0,0,1-9.44-16.41,53.14,53.14,0,0,1-3.51-19.43,40,40,0,0,1,3.84-16.71,41.19,41.19,0,0,1,10.06-13.1,47.54,47.54,0,0,1,15.11-8.77,50.76,50.76,0,0,1,17-3.21,37.48,37.48,0,0,1,15.72,3.23,39.11,39.11,0,0,1,13.21,9.83A50.78,50.78,0,0,1,1324.71,310.87Zm-20.44,8.4a43.05,43.05,0,0,0-6.25-11.88,25.52,25.52,0,0,0-7.57-6.78,18.58,18.58,0,0,0-8.2-2.41,20.65,20.65,0,0,0-8.12,1.22,23.63,23.63,0,0,0-7,4,15.9,15.9,0,0,0-4.69,6.72,25.49,25.49,0,0,0-1.35,10,45.7,45.7,0,0,0,3.06,13.71,40.76,40.76,0,0,0,6.13,11.54,26.81,26.81,0,0,0,7.54,6.7,18.14,18.14,0,0,0,8.23,2.49,20.68,20.68,0,0,0,8.12-1.22,22.37,22.37,0,0,0,6.91-4.06,17,17,0,0,0,4.77-6.74,24.9,24.9,0,0,0,1.42-9.86A44.46,44.46,0,0,0,1304.27,319.27Z"/><path class="cls-4" d="M1376.69,291.76l43.56,30.76-23,8.35-15.89-11.36L1368.92,309l-2.21,15.64-4.29,18.89-22.62,8.24,13.08-51.38-41-30,22.45-8.17,15.2,11.61,11.62,10.22,2.16-15.24,3.5-18.42,21.94-8Z"/><path class="cls-4" d="M1443,201.77a11.48,11.48,0,0,1-9.2-.12,11.2,11.2,0,0,1-5.76-6.57,11.14,11.14,0,0,1,7.16-14.74,11.78,11.78,0,0,1,9.19.12,10.87,10.87,0,0,1,5.93,6.51,11.08,11.08,0,0,1-.27,8.76A11.75,11.75,0,0,1,1443,201.77ZM1439.66,224l20.07-7.31,25.19,69.23a114.93,114.93,0,0,1,5.11,18.27,53.35,53.35,0,0,1,.6,16.73,45.86,45.86,0,0,1-5,15.48A56,56,0,0,1,1474,351.11l-13.75-10.79a53.69,53.69,0,0,0,6.73-8.52,24.88,24.88,0,0,0,3.38-9.22,35.44,35.44,0,0,0-.35-11.82,100.4,100.4,0,0,0-4.65-16.22Z"/><path class="cls-4" d="M1529.31,191.33l20.07-7.31,29.4,80.79-15.14,5.51-5.78-8.48-.68.24a44.41,44.41,0,0,1-7.62,11.35q-5.2,5.83-14.89,9.37-12.76,4.63-23,.28t-15.45-18.64l-19.63-53.92,20.07-7.31,18.88,51.88q3,8.34,8.13,10.43a14.86,14.86,0,0,0,11-.07,23.47,23.47,0,0,0,10-6.63,32.34,32.34,0,0,0,5.7-9.49Z"/><path class="cls-4" d="M1615.33,251.51l-20.07,7.31L1565.86,178l15.47-5.64,6.45,9.79a51.06,51.06,0,0,1,8.83-13.32,34.46,34.46,0,0,1,13.76-8.77q8.51-3.09,15.49-1.88a22.25,22.25,0,0,1,12.11,6.28,48.49,48.49,0,0,1,9.36-14,36.56,36.56,0,0,1,14.07-9q12.75-4.65,21.92-.08t13.88,17.48l20.18,55.45-20.07,7.3L1678.12,169q-2.36-6.47-6.78-9.09c-2.94-1.75-6.52-1.87-10.71-.34a24,24,0,0,0-9,6,30.07,30.07,0,0,0-6.37,10,17.93,17.93,0,0,1,1,2.07c.22.62.48,1.33.77,2.12l19.38,53.24-20.07,7.31-19.2-52.73q-2.34-6.47-6.77-9.09t-10.72-.34a21.54,21.54,0,0,0-8.82,6.2,33,33,0,0,0-6.13,10.41Z"/><path class="cls-4" d="M1771.05,196.76a39.06,39.06,0,0,1-9.88,2.25,26.7,26.7,0,0,1-8.74-.48l15.23,41.84-19.9,7.24-43.83-120.42,15.48-5.63,5.84,8.66a44.71,44.71,0,0,1,8.14-11.53,33.51,33.51,0,0,1,12.86-8.06q16-5.8,29.13,1.44t20.07,26.31a53.63,53.63,0,0,1,3.61,20.25,43.33,43.33,0,0,1-3.86,16.92,37.76,37.76,0,0,1-9.83,12.92A46.37,46.37,0,0,1,1771.05,196.76ZM1746.78,128a20.53,20.53,0,0,0-9.63,6.88,32.62,32.62,0,0,0-4.84,8.4l14.61,40.14a19.57,19.57,0,0,0,7.9,1.07,28.9,28.9,0,0,0,8.23-1.74,23.21,23.21,0,0,0,7.44-4.44,20.89,20.89,0,0,0,5.29-7.41,26.37,26.37,0,0,0,1.94-10.54,41,41,0,0,0-2.84-13.89q-4.08-11.22-11.33-16.58T1746.78,128Z"/><path class="cls-4" d="M1847.42,96a48.39,48.39,0,0,0-21.29,2.36q-6.3,2.3-8.81,5.71a7.61,7.61,0,0,0,3.65,11.86c2.37.88,6.57,1.11,12.59.72l5.66-.33q12.06-.72,19.63,2.87t10.91,12.79q4.27,11.73-2.06,21.84t-21.65,15.68q-16.5,6-29.36,4.53l-1-16.58a66.35,66.35,0,0,0,11.89.1,45.71,45.71,0,0,0,12-2.64q14.12-5.15,10.84-14.16a7.14,7.14,0,0,0-5.54-4.91q-4.07-.84-12.93-.31l-5.89.22q-11.77.43-18.81-3.27t-10.31-12.71a23.31,23.31,0,0,1-1.35-10.59,24.19,24.19,0,0,1,3.39-10,30.74,30.74,0,0,1,7.87-8.55,45.32,45.32,0,0,1,12-6.4,74.54,74.54,0,0,1,14-3.64,57.74,57.74,0,0,1,13.55-.6Z"/><path class="cls-4" d="M1992.43,67.84A52.08,52.08,0,0,1,1995.85,87a40.06,40.06,0,0,1-3.87,16.63,41.08,41.08,0,0,1-10.06,13.1,47.46,47.46,0,0,1-15.11,8.77,49.25,49.25,0,0,1-17.06,3.13A39.06,39.06,0,0,1,1934,125.4a38,38,0,0,1-13.18-9.74,49.8,49.8,0,0,1-9.44-16.41,53.14,53.14,0,0,1-3.51-19.43,40,40,0,0,1,3.84-16.71A41,41,0,0,1,1921.8,50a47.54,47.54,0,0,1,15.11-8.77,50.76,50.76,0,0,1,17-3.21,37.48,37.48,0,0,1,15.72,3.23,39.11,39.11,0,0,1,13.21,9.83A50.78,50.78,0,0,1,1992.43,67.84ZM1972,76.24a43.05,43.05,0,0,0-6.25-11.88,25.64,25.64,0,0,0-7.57-6.78,18.58,18.58,0,0,0-8.2-2.41,20.65,20.65,0,0,0-8.12,1.22,23.63,23.63,0,0,0-7,4,15.81,15.81,0,0,0-4.69,6.72,25.47,25.47,0,0,0-1.35,10,45.69,45.69,0,0,0,3.06,13.72,40.51,40.51,0,0,0,6.13,11.54,26.81,26.81,0,0,0,7.54,6.7,18.1,18.1,0,0,0,8.23,2.49,20.71,20.71,0,0,0,8.12-1.22,22.48,22.48,0,0,0,6.91-4.06,16.86,16.86,0,0,0,4.76-6.74A24.54,24.54,0,0,0,1975,89.7,44.11,44.11,0,0,0,1972,76.24Z"/><path class="cls-4" d="M2037.29,6.44l21.43-7.8.15,91.44-22.28,8.11-58-70.39L2000,20l30.47,40.33,11.85,18.8.68-.24-3.17-22Z"/><path class="cls-4" d="M2150.71,16l-54.94,20,.25.68q4,11.06,12.89,14t20.1-1.15A56.75,56.75,0,0,0,2140.4,44a62.27,62.27,0,0,0,8.77-6.85l9,12.69a66.29,66.29,0,0,1-10.37,8,76.81,76.81,0,0,1-15.26,7.29A62.1,62.1,0,0,1,2114.8,69a40.17,40.17,0,0,1-16.59-2.44A38.2,38.2,0,0,1,2084.07,57q-6.34-6.56-10.3-17.44a52.9,52.9,0,0,1-3.42-18.4,41.79,41.79,0,0,1,3.27-16.41,38.17,38.17,0,0,1,9.6-13.32,46,46,0,0,1,15.38-9.06q16.16-5.88,29.28.52t19.49,23.91Zm-25.66-6.46A29.31,29.31,0,0,0,2121.7,3a18.34,18.34,0,0,0-4.86-4.88,13.79,13.79,0,0,0-6.3-2.23A17.08,17.08,0,0,0,2103-3a17.8,17.8,0,0,0-10.73,9.68q-3.07,6.9-1.06,15.6Z"/><path class="cls-4" d="M161.89,920.17l21.77-7.93,30.12,35.66,12.67,17.34.51-.18-1.68-21.54L224,897.57l20.58-7.49.85,96a84.74,84.74,0,0,1-4.42,29.15q-4.62,13.24-17.28,23.44l-14.26-12.73a47.61,47.61,0,0,0,11.93-15.12,37.92,37.92,0,0,0,3.57-19l-.2-3.2Z"/><path class="cls-4" d="M329.55,813.5l20.07-7.31,44.07,121.1-15,5.45-5.44-8-.67.25a34.08,34.08,0,0,1-6.78,11q-4.51,5-13.37,8.24a36.93,36.93,0,0,1-14.6,2.23,33.57,33.57,0,0,1-14.25-4,41.54,41.54,0,0,1-12.45-10.4,56.7,56.7,0,0,1-9.37-17A60.27,60.27,0,0,1,298,896.93a39.67,39.67,0,0,1,2.4-15.9,33.85,33.85,0,0,1,8.55-12.75,41.56,41.56,0,0,1,14.48-8.64,38,38,0,0,1,12-2.33,26.36,26.36,0,0,1,10.76,1.77Zm22.22,61.06a23.87,23.87,0,0,0-8.78-3,19.61,19.61,0,0,0-9.42,1.12,24,24,0,0,0-7.55,4.38,18.77,18.77,0,0,0-5.1,7.16,24.92,24.92,0,0,0-1.73,10.06,39.21,39.21,0,0,0,2.67,12.9A45.09,45.09,0,0,0,328,919a26.58,26.58,0,0,0,7.47,7,18.25,18.25,0,0,0,8.17,2.61,20.19,20.19,0,0,0,8.33-1.2,19.46,19.46,0,0,0,8.9-6.23,23.43,23.43,0,0,0,4.47-9.43Z"/><path class="cls-4" d="M472.69,852.12a52.08,52.08,0,0,1,3.42,19.17,40.06,40.06,0,0,1-3.87,16.63A41,41,0,0,1,462.17,901a47.49,47.49,0,0,1-15.1,8.77A49.25,49.25,0,0,1,430,912.92a39.06,39.06,0,0,1-15.72-3.24,38,38,0,0,1-13.18-9.74,49.8,49.8,0,0,1-9.44-16.41,53.14,53.14,0,0,1-3.51-19.43A40,40,0,0,1,392,847.39a41,41,0,0,1,10.06-13.1,47.35,47.35,0,0,1,15.11-8.77,50.76,50.76,0,0,1,17-3.21,37.48,37.48,0,0,1,15.72,3.23,39.11,39.11,0,0,1,13.21,9.83A51,51,0,0,1,472.69,852.12Zm-20.44,8.4A43.05,43.05,0,0,0,446,848.64a25.64,25.64,0,0,0-7.57-6.78,18.58,18.58,0,0,0-8.2-2.41,20.65,20.65,0,0,0-8.12,1.22,23.63,23.63,0,0,0-7,4,15.81,15.81,0,0,0-4.69,6.72,25.64,25.64,0,0,0-1.36,10,46.05,46.05,0,0,0,3.07,13.72,40.51,40.51,0,0,0,6.13,11.54,26.81,26.81,0,0,0,7.54,6.7,18.1,18.1,0,0,0,8.23,2.49,20.71,20.71,0,0,0,8.12-1.22,22.48,22.48,0,0,0,6.91-4.06,16.86,16.86,0,0,0,4.76-6.74,24.54,24.54,0,0,0,1.42-9.86A44.11,44.11,0,0,0,452.25,860.52Z"/><path class="cls-4" d="M477.49,836.31a29.31,29.31,0,0,1-1.81-12.92,27.75,27.75,0,0,1,3.83-11.7,35.31,35.31,0,0,1,8.7-9.71,46.37,46.37,0,0,1,12.94-7,45.45,45.45,0,0,1,5.94-1.68,59.66,59.66,0,0,1,6.19-1l34.52-12.56L552.63,793l-6.46,2.36L534,797.83a30.42,30.42,0,0,1,6.63,5.78,25,25,0,0,1,4.74,8,29.94,29.94,0,0,1,1.89,12.6,26.54,26.54,0,0,1-3.6,11.52,33.36,33.36,0,0,1-8.64,9.6,48.89,48.89,0,0,1-13.15,7,44.5,44.5,0,0,1-8.42,2.29q-4.29,4.08-2.75,8.32,2.12,5.79,11.12,2.51l19.05-6.94q13.27-4.83,23.23-1.81t14.35,15.1A25.76,25.76,0,0,1,579.77,885a29.78,29.78,0,0,1-5.36,12.54,46.7,46.7,0,0,1-11.49,11,73.81,73.81,0,0,1-17.09,8.63q-18.2,6.63-31.06,4.08t-17.33-14.78a15.36,15.36,0,0,1,.15-11.51,25.88,25.88,0,0,1,8-10.13,20.62,20.62,0,0,1-6.61-3.08,13.82,13.82,0,0,1-4.95-7,15.23,15.23,0,0,1-.12-10.64,24.76,24.76,0,0,1,6.44-9.57,31.29,31.29,0,0,1-13.07-5Q480.83,845.5,477.49,836.31Zm48-17.46q-2.78-7.65-8-9.89a16.7,16.7,0,0,0-20.21,7.46q-2.55,5.16,0,12.31,2.72,7.49,8,9.6a15.59,15.59,0,0,0,11.42-.11q6.28-2.29,8.82-7.26T525.45,818.85Zm-7.26,65.25a12.66,12.66,0,0,0-3.68,5.77,11,11,0,0,0,.42,7,11.18,11.18,0,0,0,8.39,7.44q6.23,1.5,17.62-2.65A45.78,45.78,0,0,0,551,896.71a24.92,24.92,0,0,0,6.06-5.57,12.94,12.94,0,0,0,2.54-5.74,11.12,11.12,0,0,0-.52-5.4q-2-5.44-6.47-6.12t-11.46,1.86Z"/><path class="cls-4" d="M662.88,708l4.83,13.26-33.51,12.2,34.17,93.89L652.72,833l-34.17-93.89-32.82,12-4.83-13.26Z"/><path class="cls-4" d="M726.05,806.32l-15,5.45L667.13,691l15-5.45,18.58,51a56.63,56.63,0,0,1,9.44-12.68,36.58,36.58,0,0,1,13.79-8.68A33.45,33.45,0,0,1,736.18,713a22.63,22.63,0,0,1,10.06,2.51A24.84,24.84,0,0,1,754,722a34.34,34.34,0,0,1,5.4,9.79l20.05,55.11-15,5.44L745.79,741q-3.35-9.19-8.6-12t-12.91,0a27.81,27.81,0,0,0-10.6,7.13A53.83,53.83,0,0,0,705,748.5Z"/><path class="cls-4" d="M851.31,717.39,794,738.25l.24.68q4.83,13.27,14.66,17.78t22.24,0a61.4,61.4,0,0,0,11.11-5.2,68.59,68.59,0,0,0,9.74-7.4l7.08,9.94a58.66,58.66,0,0,1-10.35,7.82,77.51,77.51,0,0,1-13.88,6.59A57.41,57.41,0,0,1,817.73,772a39.51,39.51,0,0,1-16-2.54,36.73,36.73,0,0,1-13.77-9.53q-6.17-6.61-10.13-17.5a52.13,52.13,0,0,1-3.38-18,39.48,39.48,0,0,1,3.17-15.89,37.62,37.62,0,0,1,9.3-12.82A44.88,44.88,0,0,1,802,686.79a38.5,38.5,0,0,1,14.79-2.5,32.93,32.93,0,0,1,13.23,3.28,33.3,33.3,0,0,1,10.82,8.58,43.59,43.59,0,0,1,7.59,13.42Zm-19.37-5.08a32,32,0,0,0-4.11-7.85A20.79,20.79,0,0,0,822,699a17.23,17.23,0,0,0-7.54-2.45,21.4,21.4,0,0,0-9.29,1.45q-9.36,3.4-13.06,11.5t-1.53,18.27Z"/><path class="cls-4" d="M968.25,711.62a28.67,28.67,0,0,1-7.74,9.17A42.62,42.62,0,0,1,949,726.92a39.41,39.41,0,0,1-16.31,2.56,33.49,33.49,0,0,1-14.34-4.21,39.79,39.79,0,0,1-11.8-10.44,59.72,59.72,0,0,1-8.72-16.29,58.05,58.05,0,0,1-3.59-17.28,39,39,0,0,1,2.32-15.58,35.61,35.61,0,0,1,8.44-12.8A40,40,0,0,1,919.56,644a31.83,31.83,0,0,1,5.83-1.45,36.24,36.24,0,0,1,6.69-.41,34.85,34.85,0,0,1,6.78.91,27,27,0,0,1,6.22,2.26l-1.27-8.78L956.22,632l43.34,119.06-15,5.44Zm-19.57-53.74a28.56,28.56,0,0,0-10.54-4.35,21.54,21.54,0,0,0-11.88,1,28.06,28.06,0,0,0-8.68,5,21.14,21.14,0,0,0-5.77,8,27.55,27.55,0,0,0-2,11,42.79,42.79,0,0,0,2.91,14.06q5.5,15.15,14.67,20.47a21.86,21.86,0,0,0,19.37,1.62A27.54,27.54,0,0,0,957.3,708a27.89,27.89,0,0,0,6.18-9.48Z"/><path class="cls-4" d="M1027,606.25l15-5.45,29.09,79.94L1059.34,685l-5.7-9.3-.68.25a39.48,39.48,0,0,1-8,12.24,35.45,35.45,0,0,1-14,8.86q-12.42,4.51-22.72.28t-15.51-18.53l-19.32-53.07,15-5.45L1007,671.5a27.34,27.34,0,0,0,4.43,8.21,16.11,16.11,0,0,0,5.47,4.46,13.21,13.21,0,0,0,6.14,1.24,21.6,21.6,0,0,0,6.63-1.36,27.36,27.36,0,0,0,11.19-7.35,44.39,44.39,0,0,0,7.47-11.77Z"/><path class="cls-4" d="M1060.59,570.72a10,10,0,0,1-7.67-.19,9.16,9.16,0,0,1-5.19-5.53,9.45,9.45,0,0,1,.39-7.65,9.93,9.93,0,0,1,5.73-5.17,10,10,0,0,1,7.62.31,9.32,9.32,0,0,1,5.31,5.58,9.11,9.11,0,0,1-.51,7.6A10.18,10.18,0,0,1,1060.59,570.72ZM1089.7,674,1060.6,594l15-5.45,29.09,79.94Z"/><path class="cls-4" d="M1157,638.1a36.38,36.38,0,0,0,9.09-4.65,54.62,54.62,0,0,0,6.88-6l7.32,10q-7.51,7.94-20.27,12.57a53.48,53.48,0,0,1-17.17,3.36,39.29,39.29,0,0,1-16.09-2.91,38.07,38.07,0,0,1-13.63-9.67,49.7,49.7,0,0,1-9.82-16.94,49,49,0,0,1-3.2-18.29,40,40,0,0,1,3.77-16.11,39.47,39.47,0,0,1,10.1-13,50.27,50.27,0,0,1,15.78-9,73,73,0,0,1,10.57-3,48.78,48.78,0,0,1,12.81-.53l.75,12.64a35.9,35.9,0,0,0-18.45,1.7q-12.42,4.53-17.25,15t.24,24.47q3.15,8.67,7.64,13.59a26.28,26.28,0,0,0,9.67,7,25.42,25.42,0,0,0,10.67,1.8A35.87,35.87,0,0,0,1157,638.1Z"/><path class="cls-4" d="M1195.87,602.19l10.65,29.26-14.8,5.38-44-120.76,14.8-5.38,27.36,75.17,19.64-46.05,18.54-6.75-20.57,45.62,51.2,33.76-17.69,6.44L1201,591.29Z"/><path class="cls-4" d="M1364.61,528.64a51.46,51.46,0,0,1,3.36,18.23,43.43,43.43,0,0,1-3.06,16,35.79,35.79,0,0,1-8.53,12.54,37.07,37.07,0,0,1-13.07,8,41.17,41.17,0,0,1-14.49,2.77,36.72,36.72,0,0,1-13.45-2.81l-.34.13,1.19,8-10.71,3.9-44-120.76,14.8-5.39,18.51,50.86a37,37,0,0,1,8.9-12.87,37.74,37.74,0,0,1,12.7-7.71q15.3-5.57,28.2,2.07T1364.61,528.64ZM1349,534.51q-4.83-13.28-13.32-19.13t-18.7-2.16a25.5,25.5,0,0,0-10.68,7.17,41.23,41.23,0,0,0-7.06,11.81L1313.37,571a31.32,31.32,0,0,0,10.46,3.61,22.88,22.88,0,0,0,11.36-1.34,27.8,27.8,0,0,0,8.65-5.08,21.94,21.94,0,0,0,6-8.23,28.68,28.68,0,0,0,2.07-11.25A41.83,41.83,0,0,0,1349,534.51Z"/><path class="cls-4" d="M1392,564,1362.86,484l11.23-4.08,8.37,15.05a28.17,28.17,0,0,1,5-15.88A27.18,27.18,0,0,1,1401,468.77a35.14,35.14,0,0,1,7.56-2,34.08,34.08,0,0,1,5.89-.22l1.88,14.15a25.67,25.67,0,0,0-5.13-.06,23.56,23.56,0,0,0-6.11,1.45,25.44,25.44,0,0,0-8.48,5,21.64,21.64,0,0,0-5.46,7.77,25.67,25.67,0,0,0-1.87,10.21,36.55,36.55,0,0,0,2.39,12.13l15,41.34Z"/><path class="cls-4" d="M1508,475.51a52.71,52.71,0,0,1,3.47,19.05,41.26,41.26,0,0,1-3.56,16.42,37.87,37.87,0,0,1-9.5,12.8,44.65,44.65,0,0,1-14.46,8.44,46.65,46.65,0,0,1-16.35,3,36,36,0,0,1-15.09-3.37,39.09,39.09,0,0,1-12.81-9.79,50.31,50.31,0,0,1-9.32-16.35,51.75,51.75,0,0,1-3.44-19,40.25,40.25,0,0,1,3.62-16.24,38.52,38.52,0,0,1,9.53-12.72,44.65,44.65,0,0,1,14.46-8.44,47.8,47.8,0,0,1,16.32-3.05,35.53,35.53,0,0,1,15,3.2,38.15,38.15,0,0,1,12.77,9.7A50.51,50.51,0,0,1,1508,475.51Zm-15.34,6.54a42.5,42.5,0,0,0-7-12.86,28.65,28.65,0,0,0-8.7-7.24,21.38,21.38,0,0,0-9.46-2.43,25.92,25.92,0,0,0-9.26,1.54,30.19,30.19,0,0,0-8.18,4.52,18.65,18.65,0,0,0-5.75,7.49,26.12,26.12,0,0,0-1.88,11,47.65,47.65,0,0,0,3.28,15.09,43.39,43.39,0,0,0,7,13,28.36,28.36,0,0,0,8.73,7.32,22.2,22.2,0,0,0,9.49,2.51,24.54,24.54,0,0,0,9.29-1.45,28.48,28.48,0,0,0,8.15-4.6,19.25,19.25,0,0,0,5.69-7.66,27.08,27.08,0,0,0,1.84-11.07A48,48,0,0,0,1492.61,482.05Z"/><path class="cls-4" d="M1495.68,435.67l16-5.82,31.93,45.39,9.56,16.75.68-.25-2.76-19.22-4.54-55.36,16.15-5.88,32.44,45.21L1605.21,473l.68-.24-2.76-19.22-5.06-55.18,15.31-5.57,4.77,88.79-17,6.19-31.43-44-11.09-18.3,3.09,21.21,3.89,54.06-16.16,5.88Z"/><path class="cls-4" d="M1666.06,464.18l-15,5.45L1622,389.69l11.74-4.27,6.23,10.25a49.11,49.11,0,0,1,9.19-13.65,36.58,36.58,0,0,1,13.91-8.62q12.24-4.45,21.72-.11t13.94,16.6l20.06,55.1-15,5.45-19.25-52.89q-2.67-7.32-8.07-10.26t-13.23-.1q-11.91,4.33-18.38,18.83Z"/><path class="cls-4" d="M1762.12,291.5a42.24,42.24,0,0,1,10.44-2.26,51.08,51.08,0,0,1,10.51,0l.71,11.49a52.59,52.59,0,0,0-7.23.23,28.24,28.24,0,0,0-6.74,1.58q-8.18,3-10,8.84t2.2,16.91l3.35,9.19,24.32-8.85,4.09,11.22-24.33,8.85,25,68.72-14.79,5.38-25-68.71-11.74,4.27-4.09-11.22,11.74-4.28-5.14-14.11q-4.83-13.27-.54-22.92T1762.12,291.5Z"/><path class="cls-4" d="M1884.57,338.43a52.5,52.5,0,0,1,3.47,19.05,41.09,41.09,0,0,1-3.56,16.42,37.83,37.83,0,0,1-9.5,12.8,44.7,44.7,0,0,1-14.45,8.44,46.65,46.65,0,0,1-16.35,3,36.11,36.11,0,0,1-15.1-3.37,39.09,39.09,0,0,1-12.81-9.79A50.49,50.49,0,0,1,1807,368.6a52,52,0,0,1-3.44-19,40.34,40.34,0,0,1,3.63-16.25,38.34,38.34,0,0,1,9.53-12.71,44.6,44.6,0,0,1,14.45-8.44,47.89,47.89,0,0,1,16.32-3.05,35.47,35.47,0,0,1,15,3.2,38.09,38.09,0,0,1,12.78,9.7A50.31,50.31,0,0,1,1884.57,338.43ZM1869.23,345a42.5,42.5,0,0,0-7-12.86,28.41,28.41,0,0,0-8.7-7.24,21.34,21.34,0,0,0-9.46-2.43,26,26,0,0,0-9.26,1.54,30.33,30.33,0,0,0-8.18,4.52,18.83,18.83,0,0,0-5.75,7.49,26.12,26.12,0,0,0-1.87,11,47.6,47.6,0,0,0,3.27,15.09,43.29,43.29,0,0,0,7,12.95,28.36,28.36,0,0,0,8.73,7.32,22.16,22.16,0,0,0,9.49,2.51,24.57,24.57,0,0,0,9.29-1.45,28.85,28.85,0,0,0,8.15-4.6,19.25,19.25,0,0,0,5.69-7.66,27.25,27.25,0,0,0,1.84-11.07A47.65,47.65,0,0,0,1869.23,345Z"/><path class="cls-4" d="M1929.9,322.31l42.8,30.27-17,6.19-21.08-15.06-10.07-8.08-2.07,12.31-5.9,25.07-16.67,6.06,13-50.57-40.72-29.86,16.84-6.13,19.7,15,9.84,8,2.24-12.37,4.62-23.83,16.32-5.94Z"/><path class="cls-4" d="M1992.75,231.44a10.06,10.06,0,0,1-7.68-.19,9.14,9.14,0,0,1-5.19-5.52,9.47,9.47,0,0,1,.39-7.66,10.19,10.19,0,0,1,13.36-4.86,9.38,9.38,0,0,1,5.3,5.58,9,9,0,0,1-.51,7.6A10.12,10.12,0,0,1,1992.75,231.44Zm.18,23.25,15-5.45,24.7,67.86a140.12,140.12,0,0,1,5.37,18.18,53.9,53.9,0,0,1,1.16,16.14,40.42,40.42,0,0,1-4.27,14.75,52.35,52.35,0,0,1-10.73,13.92l-11.06-8.69a67,67,0,0,0,7.06-8.92,23,23,0,0,0,3.49-9.46,38.37,38.37,0,0,0-.5-11.95,104.65,104.65,0,0,0-4.8-16.65Z"/><path class="cls-4" d="M2079.24,223.27l15-5.45,29.09,79.94L2111.57,302l-5.69-9.29-.69.25a39.3,39.3,0,0,1-8,12.24,35.49,35.49,0,0,1-14,8.86q-12.42,4.52-22.72.28T2045,295.84l-19.31-53.07,15-5.45,18.64,51.2a27.34,27.34,0,0,0,4.43,8.21,16.11,16.11,0,0,0,5.47,4.46,13.21,13.21,0,0,0,6.14,1.23,21.58,21.58,0,0,0,6.63-1.35,27.3,27.3,0,0,0,11.19-7.35A44.39,44.39,0,0,0,2100.6,282Z"/><path class="cls-4" d="M838.24,859.87l15-5.45,43.95,120.76-12.59,4.58-5.09-8.16-.51.19a38.15,38.15,0,0,1-7.75,11.77Q866.77,988,858.6,991a33.57,33.57,0,0,1-27-1.72,40.67,40.67,0,0,1-12.33-10.06,55.6,55.6,0,0,1-9.54-17.23A59,59,0,0,1,806,944a40.71,40.71,0,0,1,2.29-15.66,32.46,32.46,0,0,1,8.2-12.42,39.83,39.83,0,0,1,14.08-8.4,39,39,0,0,1,12.7-2.41,31.6,31.6,0,0,1,12.26,2.18Zm21.85,60q-11.28-6.1-22.16-2.14a26.92,26.92,0,0,0-8.34,4.86,21.1,21.1,0,0,0-5.77,8,28.5,28.5,0,0,0-2,11.13,41.83,41.83,0,0,0,2.85,14.18,47.34,47.34,0,0,0,6.92,13.18,28.69,28.69,0,0,0,8.42,7.53,20.54,20.54,0,0,0,9.09,2.76,21.86,21.86,0,0,0,8.7-1.24q12.75-4.65,16.73-18.61Z"/><path class="cls-4" d="M973.57,901.14A52.8,52.8,0,0,1,977,920.2a41.09,41.09,0,0,1-3.56,16.42,38,38,0,0,1-9.5,12.8,44.65,44.65,0,0,1-14.46,8.44,46.37,46.37,0,0,1-16.35,3,35.9,35.9,0,0,1-15.09-3.36,39.09,39.09,0,0,1-12.81-9.79A50.31,50.31,0,0,1,896,931.32a51.79,51.79,0,0,1-3.44-19,40.3,40.3,0,0,1,3.62-16.25,38.48,38.48,0,0,1,9.53-12.71A44.47,44.47,0,0,1,920.12,875a47.8,47.8,0,0,1,16.32-3.05,35.67,35.67,0,0,1,15,3.19,38.35,38.35,0,0,1,12.78,9.7A50.71,50.71,0,0,1,973.57,901.14Zm-15.34,6.55a42.5,42.5,0,0,0-7-12.86,28.65,28.65,0,0,0-8.7-7.24,21.38,21.38,0,0,0-9.46-2.43,25.7,25.7,0,0,0-9.26,1.54,29.92,29.92,0,0,0-8.18,4.52,18.62,18.62,0,0,0-5.75,7.48,26.19,26.19,0,0,0-1.88,11,47.71,47.71,0,0,0,3.28,15.09,43.32,43.32,0,0,0,7,12.94A28.2,28.2,0,0,0,927,945a22.07,22.07,0,0,0,9.49,2.52,24.54,24.54,0,0,0,9.29-1.45A28.51,28.51,0,0,0,954,941.5a19.06,19.06,0,0,0,5.69-7.65,27.1,27.1,0,0,0,1.84-11.08A47.89,47.89,0,0,0,958.23,907.69Z"/><path class="cls-4" d="M979.19,884.84a29.76,29.76,0,0,1-1.92-12.68A26,26,0,0,1,980.8,861a31,31,0,0,1,8.34-9.1,47.39,47.39,0,0,1,12.28-6.49,38.19,38.19,0,0,1,5.05-1.46c1.67-.35,3.36-.64,5.07-.88l34.53-12.57,4,11.06-5.28,1.92-14.28,3.08a26.44,26.44,0,0,1,13,14.7,29.8,29.8,0,0,1,1.92,12.69,26.45,26.45,0,0,1-3.44,11.17,29.93,29.93,0,0,1-8.26,9.07,47.81,47.81,0,0,1-12.27,6.5,58.1,58.1,0,0,1-9.44,2.66q-3.4,2.79-4.17,5.47a8.07,8.07,0,0,0,.11,5.06q1.43,3.92,4.56,4.31a16.35,16.35,0,0,0,7.55-1.21l21.09-7.67q13.26-4.83,22.52-1.36t13,13.84a26,26,0,0,1,1.45,13,28.31,28.31,0,0,1-5,12,42.35,42.35,0,0,1-10.94,10.43,74,74,0,0,1-16.47,8.21q-17.34,6.32-29.89,3.85t-17-14.54a15.76,15.76,0,0,1,.16-12,26.88,26.88,0,0,1,8.11-10.27,19.72,19.72,0,0,1-6.93-3.16,13.6,13.6,0,0,1-4.27-6.44,14.35,14.35,0,0,1-.13-10.16,22.84,22.84,0,0,1,6.42-9.08,25.7,25.7,0,0,1-13.88-5.06Q982.53,894,979.19,884.84Zm49.45-17.61q-3.29-9-9.51-11.56t-13.88.23q-7.65,2.79-10.78,8.74t-.09,14.29q3.21,8.85,9.41,11.31t13.85-.32q7.65-2.79,10.84-8.57T1028.64,867.23Zm-11.81,64.4q-7.26,7.07-4.22,15.4,5.45,15,29.6,6.18a49.47,49.47,0,0,0,11.58-5.76,26.68,26.68,0,0,0,6.7-6.48,15.79,15.79,0,0,0,2.71-6.57,12.63,12.63,0,0,0-.6-6.14q-2.6-7.14-8.28-7.68a30.34,30.34,0,0,0-13,2.13Z"/><path class="cls-4" d="M1159.3,758.42l2.6,7.15L1125,779l36.4,100-8.84,3.22-36.4-100-36.23,13.18-2.6-7.14Z"/><path class="cls-4" d="M1217.44,858.61l-8.85,3.22-43.95-120.76,8.84-3.22,18.76,51.54a55.82,55.82,0,0,1,9.35-12.94,36,36,0,0,1,13.76-8.77,33.63,33.63,0,0,1,12.28-2.25,22.73,22.73,0,0,1,10.06,2.5,25.19,25.19,0,0,1,7.73,6.43,33.36,33.36,0,0,1,5.37,9.71l20,55.1-8.84,3.22L1242.93,790q-4.28-11.75-11.31-14.67t-15.71.23a30.43,30.43,0,0,0-11.55,8A56.29,56.29,0,0,0,1195,797Z"/><path class="cls-4" d="M1336.64,770l-57,20.74.87,2.38q5.45,15,16.59,20.45t25.09.4a60.76,60.76,0,0,0,19.39-11.3l4.52,6.06a52.75,52.75,0,0,1-9.55,6.85,77.17,77.17,0,0,1-12.27,5.72,49.65,49.65,0,0,1-15.92,3.09,34.88,34.88,0,0,1-15-2.91,37.22,37.22,0,0,1-13-9.72q-5.88-6.62-9.84-17.51a57,57,0,0,1-3.64-17.94,39,39,0,0,1,2.58-15.67,34.68,34.68,0,0,1,8.22-12.33,37.27,37.27,0,0,1,13.41-8.16A33.13,33.13,0,0,1,1304.5,738a28.51,28.51,0,0,1,12.27,3.53,34.82,34.82,0,0,1,10.23,8.79,46.92,46.92,0,0,1,7.41,13.49Zm-11.78-3.8a44.24,44.24,0,0,0-4.75-9.35,26.84,26.84,0,0,0-7-7.19,21.16,21.16,0,0,0-9-3.57,22.17,22.17,0,0,0-11,1.39,24.77,24.77,0,0,0-14.73,13.26q-4.35,9.48-1.07,22.73Z"/><path class="cls-4" d="M1453.62,765.91a27.09,27.09,0,0,1-7.65,9.14,43.74,43.74,0,0,1-11.63,6.16,40.59,40.59,0,0,1-16.27,2.64,32.09,32.09,0,0,1-14.35-4.21,40.88,40.88,0,0,1-11.79-10.45,58.43,58.43,0,0,1-8.69-16.19,57,57,0,0,1-3.56-17.2,40.72,40.72,0,0,1,2.24-15.55,33.7,33.7,0,0,1,8.1-12.67,38.44,38.44,0,0,1,14.19-8.63,35.9,35.9,0,0,1,14-2.3,28.32,28.32,0,0,1,12.38,3.29l-1.85-8.76,6.81-2.48,43.33,119.06L1470,811Zm-21.17-58.17a32.25,32.25,0,0,0-10.53-3.78q-6.09-1.15-13.75,1.63a32.11,32.11,0,0,0-10.17,5.92,25.46,25.46,0,0,0-6.74,9.29,30.89,30.89,0,0,0-2.26,12.57,48,48,0,0,0,3.24,15.78q6.43,17.69,17.44,23.31t24.1.86a27.15,27.15,0,0,0,11-7,26.28,26.28,0,0,0,5.73-9.12Z"/><path class="cls-4" d="M1508.26,662.23l8.85-3.22L1546.2,739l-6.29,2.29-5-9.54-.34.12a41.16,41.16,0,0,1-8,11.88,36.93,36.93,0,0,1-14.72,9.3q-12.42,4.51-22.43.56t-15.21-18.25l-19.5-53.58,8.84-3.22,18.82,51.71a35.63,35.63,0,0,0,5.52,10.41,18.15,18.15,0,0,0,6.76,5.34,16.05,16.05,0,0,0,7.85,1.19,34.17,34.17,0,0,0,8.62-2,31,31,0,0,0,12.9-8.74,29.89,29.89,0,0,0,6.86-12.13Z"/><path class="cls-4" d="M1533.7,629.66a7.07,7.07,0,0,1-5.33-.08,6.86,6.86,0,0,1-3.78-4.3,7.64,7.64,0,0,1,0-6,6.67,6.67,0,0,1,3.91-3.54,6.93,6.93,0,0,1,5.16.14q2.61,1.08,3.91,4.65a7,7,0,0,1,0,5.78A6.74,6.74,0,0,1,1533.7,629.66Zm32,102.2-29.09-79.94,8.84-3.22,29.1,79.94Z"/><path class="cls-4" d="M1626.82,703.83a40.2,40.2,0,0,0,9.43-4.78,51.91,51.91,0,0,0,7.22-6.1l4.1,5.45a41.79,41.79,0,0,1-8.34,7,57.54,57.54,0,0,1-11.08,5.29,46.72,46.72,0,0,1-16,2.92,37.38,37.38,0,0,1-15.2-3.13,38.55,38.55,0,0,1-13.18-9.75,50.84,50.84,0,0,1-9.74-17,51.42,51.42,0,0,1-3.36-18.23,39.1,39.1,0,0,1,3.43-16,37.62,37.62,0,0,1,9.36-12.65,44.21,44.21,0,0,1,14.54-8.47,69.81,69.81,0,0,1,10.48-2.95,42.28,42.28,0,0,1,12-.42l.49,7.72a35.91,35.91,0,0,0-9.93,0,45.26,45.26,0,0,0-8.9,2.27,35.23,35.23,0,0,0-11.89,7,29.69,29.69,0,0,0-7.42,10.31,32.57,32.57,0,0,0-2.54,12.86,42.06,42.06,0,0,0,2.75,14.7q3.71,10.2,8.88,15.93a32,32,0,0,0,11,8.23,26.49,26.49,0,0,0,12,2.2A41,41,0,0,0,1626.82,703.83Z"/><path class="cls-4" d="M1658.64,664.9l10.65,29.25-8.85,3.22-44-120.76,8.85-3.22,29.59,81.3,25.4-55.09,11.06-4L1670,641.51,1722,675l-10.54,3.84-45.37-29.91Z"/><path class="cls-4" d="M1821.93,593.33a53,53,0,0,1,3.45,18.2,42.68,42.68,0,0,1-2.84,15.76,35.13,35.13,0,0,1-20.77,20.18,40.57,40.57,0,0,1-14.22,2.77,36.55,36.55,0,0,1-13.16-2.82l-.34.12,1.71,7.86-7,2.54-44-120.76,8.85-3.22,18.51,50.85a42.21,42.21,0,0,1,7.22-11.1,31.15,31.15,0,0,1,13.24-8.87A37.86,37.86,0,0,1,1787,562.5a32.06,32.06,0,0,1,13.76,3.67,38.08,38.08,0,0,1,12,10.17A59.4,59.4,0,0,1,1821.93,593.33Zm-9.12,3.51q-6.13-16.83-16.49-22.8a24.93,24.93,0,0,0-21.92-1.74,24.5,24.5,0,0,0-6.65,3.67,34.45,34.45,0,0,0-5.5,5.28,36.12,36.12,0,0,0-4.13,6.12,40.41,40.41,0,0,0-2.72,6.29l16.84,46.26a27.09,27.09,0,0,0,11.62,3.09,32.47,32.47,0,0,0,13.26-1.94,27.5,27.5,0,0,0,16.38-15.88,34,34,0,0,0,2.3-13A45.36,45.36,0,0,0,1812.81,596.84Z"/><path class="cls-4" d="M1850.78,628.09l-29.1-79.94,5.79-2.1,7.86,15.24a27,27,0,0,1,5.37-15.92,29.24,29.24,0,0,1,14-10.37,35.33,35.33,0,0,1,7.39-1.92,22.38,22.38,0,0,1,5.32-.2l1.15,8.44a39.81,39.81,0,0,0-5.15.14,24.62,24.62,0,0,0-6.2,1.49,26.75,26.75,0,0,0-8.65,5.07,22,22,0,0,0-5.74,8.06,27.76,27.76,0,0,0-2,10.85,39.06,39.06,0,0,0,2.66,13.38l16.21,44.56Z"/><path class="cls-4" d="M1954.23,544.21a58.51,58.51,0,0,1,3.81,18.94,40.38,40.38,0,0,1-2.74,16,34.69,34.69,0,0,1-8.34,12.28,37.2,37.2,0,0,1-13.09,7.94,39.53,39.53,0,0,1-15,2.47,33,33,0,0,1-14.12-3.62,38.41,38.41,0,0,1-12.1-10,54.73,54.73,0,0,1-9.07-16.44,56.26,56.26,0,0,1-3.69-18.88,40.66,40.66,0,0,1,2.94-16,34.3,34.3,0,0,1,8.63-12.29,39.27,39.27,0,0,1,13.12-7.86,40.24,40.24,0,0,1,14.88-2.52,31.57,31.57,0,0,1,13.93,3.6,38.46,38.46,0,0,1,11.89,9.92A55.59,55.59,0,0,1,1954.23,544.21Zm-8.87,4.19A49.72,49.72,0,0,0,1937.6,534a33.24,33.24,0,0,0-9.7-8.41,24,24,0,0,0-10.65-3.06,27.45,27.45,0,0,0-19.73,7.18,24.68,24.68,0,0,0-6.27,9.22,32.25,32.25,0,0,0-2.12,12.71,49.45,49.45,0,0,0,3.33,16,50.65,50.65,0,0,0,8,15,32.55,32.55,0,0,0,9.88,8.35,24.07,24.07,0,0,0,10.76,2.82,29.32,29.32,0,0,0,19.76-7.09,22.72,22.72,0,0,0,6.19-8.9,31.12,31.12,0,0,0,1.92-12.74A55.24,55.24,0,0,0,1945.36,548.4Z"/><path class="cls-4" d="M1943,504l8.84-3.22,32.27,45.27,13,20.31.34-.12L1995,542.1l-2.85-56,9.36-3.41,33.29,44.9,13.83,20,.34-.13-2.44-24.15L2042,468l8.5-3.09,6.48,88.17-10.21,3.71L2012.36,510l-13.42-19.39,2,23.54,3.42,58.08-9.36,3.4Z"/><path class="cls-4" d="M2098.42,538l-8.85,3.22-29.09-79.94,6.46-2.35,5.39,10.56a54.43,54.43,0,0,1,9.31-13.31,36,36,0,0,1,14-8.86q12.26-4.45,21.61-.16t13.83,16.54l20,55.11L2142.3,522l-19.25-52.9a37.44,37.44,0,0,0-3.94-7.91,17.55,17.55,0,0,0-5.65-5.45,16.48,16.48,0,0,0-7.73-2.2,25.89,25.89,0,0,0-10,1.82,29.36,29.36,0,0,0-11.63,8,41.16,41.16,0,0,0-8.06,13.05Z"/><path class="cls-4" d="M1494.17,906.2,1467.3,916l19.06,52.39q2.91,8,7.51,9.5t10.88-.78a46,46,0,0,0,8.85-4.28,67.72,67.72,0,0,0,6.43-4.56l3.77,6.14a52.35,52.35,0,0,1-7.46,5.41,57.78,57.78,0,0,1-10.52,5q-10.2,3.71-17.24.78T1478,972.78l-19.5-53.58L1444,924.46l-2.48-6.8L1456,912.4l-9.29-25.51,8.85-3.22,9.28,25.51,26.87-9.78Z"/><path class="cls-4" d="M1544.51,970.7l-8.84,3.22-44-120.76,8.84-3.22,18.76,51.54a56,56,0,0,1,9.35-12.94,35.87,35.87,0,0,1,13.76-8.76,33.41,33.41,0,0,1,12.28-2.26,22.63,22.63,0,0,1,10.06,2.51,24.92,24.92,0,0,1,7.73,6.43,33.29,33.29,0,0,1,5.36,9.7l20.06,55.1-8.84,3.22L1570,902.1q-4.27-11.75-11.31-14.67t-15.71.23a30.43,30.43,0,0,0-11.55,8,56.32,56.32,0,0,0-9.34,13.51Z"/><path class="cls-4" d="M1663.72,882.05l-57,20.74.87,2.38q5.45,15,16.59,20.45t25.09.4a60.93,60.93,0,0,0,19.39-11.29l4.51,6.06a52.76,52.76,0,0,1-9.54,6.84,76.7,76.7,0,0,1-12.27,5.72,49.94,49.94,0,0,1-15.92,3.1,35.15,35.15,0,0,1-15-2.91,37.38,37.38,0,0,1-13-9.73q-5.88-6.62-9.84-17.51a56.75,56.75,0,0,1-3.64-17.93,39.1,39.1,0,0,1,2.58-15.68,34.85,34.85,0,0,1,8.22-12.33,37.21,37.21,0,0,1,13.4-8.15,33,33,0,0,1,13.4-2.09,28.51,28.51,0,0,1,12.27,3.53,35,35,0,0,1,10.23,8.8,46.73,46.73,0,0,1,7.41,13.48Zm-11.79-3.8a43.32,43.32,0,0,0-4.75-9.35,26.66,26.66,0,0,0-7-7.19,21.38,21.38,0,0,0-9-3.56,22.08,22.08,0,0,0-11,1.38,24.78,24.78,0,0,0-14.72,13.26q-4.35,9.48-1.07,22.73Z"/><path class="cls-4" d="M1731.33,902.71,1687.38,782l8.84-3.22,44,120.76Z"/><path class="cls-4" d="M1731.56,820A79.66,79.66,0,0,1,1744,808.51a57.29,57.29,0,0,1,13.69-7.1,36,36,0,0,1,10.85-2.21,23.45,23.45,0,0,1,10.3,1.84,25,25,0,0,1,9,6.82,40.23,40.23,0,0,1,7,12.75l18.94,52-6.12,2.23-5.71-9.86-.34.12a33.79,33.79,0,0,1-8.31,13.14,38.21,38.21,0,0,1-13.72,8.36,34.27,34.27,0,0,1-11,2.16,25.62,25.62,0,0,1-10-1.67,22.89,22.89,0,0,1-8.14-5.42,26.59,26.59,0,0,1-6.93-20.88,23.66,23.66,0,0,1,4.27-10.51,35,35,0,0,1,9.27-8.67,64.91,64.91,0,0,1,13.64-6.7l17-6.19-1.92-5.27q-4.2-11.57-11.11-14.64t-15.06-.11a53.58,53.58,0,0,0-10.84,5.68,57.46,57.46,0,0,0-11.73,10.63Zm58.89,15.74L1776.39,841a60.08,60.08,0,0,0-12.5,6.38,32.29,32.29,0,0,0-7.57,7,14.7,14.7,0,0,0-3,7.26,16.18,16.18,0,0,0,.92,7.28,18.2,18.2,0,0,0,4.28,7,15.82,15.82,0,0,0,6,3.7,17.07,17.07,0,0,0,7.12.78,30.58,30.58,0,0,0,7.74-1.75,29.71,29.71,0,0,0,6-3.06,30.61,30.61,0,0,0,5.51-4.7,33.91,33.91,0,0,0,4.55-6.28,24.16,24.16,0,0,0,2.74-7.84Z"/><path class="cls-4" d="M1857.43,771.87l-25.37,85.89,50.85-18.51,2.67,7.32L1824,869l-2.11-5.79,24.83-84.73-46.27,16.84L1797.8,788l57.83-21Z"/><path class="cls-4" d="M1862,764.62l9.18-3.35,40.07,45.52,12.68,15.8.34-.13-1.29-20-.6-59.87,8.5-3.1.79,98q.1,14.6-4.18,25a48.08,48.08,0,0,1-12.91,18l-5.93-5.16a46.15,46.15,0,0,0,11.21-15.25q3.84-8.52,3.52-22.09l-.14-5.15Z"/><path class="cls-4" d="M2015.19,662.63l8.84-3.21,44,120.75-7.15,2.6-3.91-7-.34.13a29,29,0,0,1-6.69,9.66q-4.56,4.44-13.22,7.6a36.39,36.39,0,0,1-13.57,2.15,34.5,34.5,0,0,1-14-3.49,40.22,40.22,0,0,1-12.76-9.9,52.78,52.78,0,0,1-9.71-17.17,59,59,0,0,1-3.73-17.9,38.07,38.07,0,0,1,2.5-15.64,34.15,34.15,0,0,1,8.48-12.43,40.36,40.36,0,0,1,14.17-8.43q12.92-4.71,24.38-.21Zm20.55,56.47a24.79,24.79,0,0,0-11.55-3.69,28.24,28.24,0,0,0-12,1.47,34.84,34.84,0,0,0-10.15,5.72,25.86,25.86,0,0,0-7.12,9,29.47,29.47,0,0,0-2.6,12.7,48.26,48.26,0,0,0,3.32,16.51,50.32,50.32,0,0,0,8.23,15.21,31.06,31.06,0,0,0,10.25,8.31A26,26,0,0,0,2025.4,787a32.36,32.36,0,0,0,11.23-2,28.34,28.34,0,0,0,11.51-7.27,22.16,22.16,0,0,0,5.43-9.68Z"/><path class="cls-4" d="M2138.34,708.34a58.51,58.51,0,0,1,3.81,18.93,40.4,40.4,0,0,1-2.74,16,34.78,34.78,0,0,1-8.34,12.28,37.35,37.35,0,0,1-13.09,7.94,39.56,39.56,0,0,1-15,2.47,33.17,33.17,0,0,1-14.12-3.62,38.54,38.54,0,0,1-12.1-10,54.73,54.73,0,0,1-9.07-16.44A56.26,56.26,0,0,1,2064,717.1a40.63,40.63,0,0,1,2.94-16,34.18,34.18,0,0,1,8.63-12.29,39.27,39.27,0,0,1,13.12-7.86,40.24,40.24,0,0,1,14.88-2.52,31.57,31.57,0,0,1,13.93,3.6,38.44,38.44,0,0,1,11.89,9.92A55.59,55.59,0,0,1,2138.34,708.34Zm-8.88,4.19a49.48,49.48,0,0,0-7.75-14.41,33.24,33.24,0,0,0-9.7-8.41,24,24,0,0,0-10.65-3.06,27.45,27.45,0,0,0-19.73,7.18,24.81,24.81,0,0,0-6.28,9.22,32.62,32.62,0,0,0-2.11,12.71,49.45,49.45,0,0,0,3.33,16,50.65,50.65,0,0,0,8,15,32.55,32.55,0,0,0,9.88,8.35,24.07,24.07,0,0,0,10.75,2.82,29.28,29.28,0,0,0,19.76-7.09,22.81,22.81,0,0,0,6.2-8.9,31.12,31.12,0,0,0,1.92-12.74A55,55,0,0,0,2129.46,712.53Z"/></g></svg>