<?xml version="1.0" encoding="utf-8"?>
<!-- Generator: Adobe Illustrator 22.1.0, SVG Export Plug-In . SVG Version: 6.00 Build 0)  -->
<svg version="1.1" id="Ebene_1" xmlns="http://www.w3.org/2000/svg" xmlns:xlink="http://www.w3.org/1999/xlink" x="0px" y="0px"
	 viewBox="0 0 1540 1080" style="enable-background:new 0 0 1540 1080;" xml:space="preserve">
<g>
	<path d="M212.9,104.9c36.5,0,53.2,18.9,53.2,64.4v4.8h-4.8c0-47.9-14.5-64.4-47.7-64.4h-1.5c-35.8,0-54.9,23.7-54.9,86.2v9.7
		c0,62.4,19.1,86.2,54.9,86.2h1.5c30.3,0,47.7-16.9,47.7-57.1h4.8v3.4c0,35.1-16,58.6-53.2,58.6c-39.9,0-60.5-25.7-60.5-91v-9.7
		C152.4,130.5,173,104.9,212.9,104.9z"/>
	<path d="M293.5,233.4v-4.8c0-39.2,17.9-63.2,50.3-63.2s50.3,24,50.3,63.2v4.8c0,39.2-17.9,63.2-50.3,63.2S293.5,272.6,293.5,233.4z
		 M389.4,233.4v-4.8c0-35.8-16-58.3-45.5-58.3c-29.5,0-45.5,22.5-45.5,58.3v4.8c0,35.8,16,58.3,45.5,58.3
		C373.4,291.7,389.4,269.2,389.4,233.4z"/>
	<path d="M420.8,233.4v-4.8c0-39.2,17.9-63.2,50.3-63.2s50.3,24,50.3,63.2v4.8c0,39.2-17.9,63.2-50.3,63.2S420.8,272.6,420.8,233.4z
		 M516.7,233.4v-4.8c0-35.8-16-58.3-45.5-58.3s-45.5,22.5-45.5,58.3v4.8c0,35.8,16,58.3,45.5,58.3S516.7,269.2,516.7,233.4z"/>
	<path d="M556.6,276.9v66.6h-4.8V195.9l-1.2-29h3.6l1.7,19.1c5.8-8.5,18.9-20.6,39.9-20.6c32.4,0,49.1,24,49.1,63.2v4.8
		c0,39.2-16.7,63.2-49.1,63.2C575.5,296.6,562.9,285.4,556.6,276.9z M556.6,269.2c6.5,9.9,18.4,22.5,39.2,22.5
		c29.5,0,44.3-22.5,44.3-58.3v-4.8c0-35.8-14.8-58.3-44.3-58.3c-20.8,0-32.7,12.6-39.2,22.5V269.2z"/>
	<path d="M676.4,233.4c0,33.9,14.3,58.3,47.2,58.3c32.9,0,44.8-20.6,44.8-37.8h4.8v1.2c0,18.2-14,41.4-49.6,41.4
		c-36.5,0-52-27.8-52-63.2v-4.8c0-35.3,15-63.2,50.8-63.2s50.8,27.8,50.8,63.2v4.8H676.4z M676.4,228.5h92c0-34.1-14.8-58.3-46-58.3
		C691.1,170.2,676.4,194.4,676.4,228.5z"/>
	<path d="M848.2,165.6v4.6H846c-21.3,0-32.9,12.3-37.8,23v101.9h-4.8v-99.2l-1.2-29h3.6l1.7,19.6c5.8-9.7,17.7-21.1,37-21.1
		C846.7,165.4,848.2,165.6,848.2,165.6z"/>
</g>
<g>
	<path d="M429,344.3v186.8h-45.5v-75.7H338v75.7h-45.5V344.3H338v71.9h45.5v-71.9H429z"/>
	<path d="M491.1,483.2c1.4,14.4,8.6,18.2,19.6,18.2c9.6,0,17-5,17-11h41.4v1c0,25.4-21.8,43.1-58.7,43.1
		c-43.4,0-63.5-26.1-63.5-63.2v-7.2c0-37.1,21.1-63.2,62-63.2c41,0,60.1,26.1,60.1,63.2v19.2H491.1z M491.1,452.1h34
		c-1.2-13.4-6.7-18.2-17-18.2S492.3,438.7,491.1,452.1z"/>
	<path d="M651.3,531.1h-55.1l-20.4-127H619l6,79l14.4-79h52.7l14.4,79l6-79h43.1l-20.4,127h-55.1l-14.4-81.4L651.3,531.1z"/>
	<path d="M815.4,389.8h-45.5v-45.5h45.5V389.8z M770.6,404.2h44.1v127h-44.1V404.2z"/>
	<path d="M923.4,404.2v38.3H893v37.1c0,14.4,6.9,17,17,17c3.8,0,9.8-1,11-1.4v35.9c-2.2,1.2-9.3,3.4-21.3,3.4
		c-30.4,0-50.8-12.9-50.8-50.1v-41.9h-19.2v-38.3h19.2v-35.9H893v35.9H923.4z"/>
	<path d="M1028.8,404.2v38.3h-30.4v37.1c0,14.4,6.9,17,17,17c3.8,0,9.8-1,11-1.4v35.9c-2.2,1.2-9.3,3.4-21.3,3.4
		c-30.4,0-50.8-12.9-50.8-50.1v-41.9h-19.2v-38.3h19.2v-35.9h44.1v35.9H1028.8z"/>
</g>
<g>
	<path d="M728.1,665.2l-8.7,0.1h-13v-2.7h25.2v2l-22.4,33.5l8.7-0.1h14.4v2.7h-26.6v-2L728.1,665.2z"/>
	<path d="M742.6,662.6v26.6c0,6.8,4,9.5,9.4,9.5c6.8,0,10.1-3.7,11.9-6.6v-29.5h2.9v27.4l0.4,10.8H765l-0.7-5.5
		c-2.1,3.3-6.2,6.3-13,6.3c-7.2,0-11.5-4.7-11.5-11.9v-27H742.6z"/>
	<path d="M820.8,700.7V673c0-6.8-3.6-8.4-8.3-8.4c-6.1,0-9,3.7-10.8,6.6v29.5h-2.9V673c0-6.8-3.6-8.4-8.3-8.4c-6.1,0-9,3.7-10.8,6.6
		v29.5h-2.9v-27.4l-0.4-10.8h2.2l0.6,5.4c2-3.2,5.8-6.1,12-6.1c5,0,8.5,2.2,9.8,6.4c1.9-3.3,5.8-6.4,12.2-6.4
		c6.5,0,10.4,3.6,10.4,10.8v28.1H820.8z"/>
	<path d="M848.5,643.1h2.9v57.6h-2.9V643.1z"/>
	<path d="M864.1,683c0.1,9.4,4,15.7,12.8,15.7s12.2-5.5,12.2-10.2h2.9v0.3c0,5.5-4.5,12.7-15.1,12.7c-11.2,0-15.8-8.6-15.8-19.1
		v-1.4c0-10.4,4.6-19.1,15.5-19.1c10.9,0,15.5,8.6,15.5,19.1v2.1H864.1z M864.1,680.3H889c-0.2-9.4-4.1-15.7-12.5-15.7
		C868.1,664.6,864.2,670.9,864.1,680.3z"/>
	<path d="M925.7,690.6c0-6.1-3.7-7.4-12.1-8.1c-10.1-0.9-12.5-4.8-12.5-10v-0.4c0-5.8,4.7-10.3,13.6-10.3c10.2,0,13.7,5.5,13.7,12.7
		v0.3h-2.9c0-6.3-2.4-10.2-10.8-10.2c-6.6,0-10.6,2.7-10.6,7.7c0,4.5,2.1,7.1,11.7,7.8c9.6,0.7,13,3.7,13,10.4v0.3
		c0,6.1-5.1,10.7-14,10.7c-10.7,0-14-6.7-14-12v-0.3h2.9c0,4.8,2.3,9.5,11.2,9.5C921.8,698.7,925.7,695.6,925.7,690.6z"/>
	<path d="M940.4,683c0.1,9.4,4,15.7,12.8,15.7s12.2-5.5,12.2-10.2h2.9v0.3c0,5.5-4.5,12.7-15.1,12.7c-11.2,0-15.8-8.6-15.8-19.1
		v-1.4c0-10.4,4.6-19.1,15.5-19.1s15.5,8.6,15.5,19.1v2.1H940.4z M940.4,680.3h24.9c-0.2-9.4-4.1-15.7-12.5-15.7
		C944.4,664.6,940.6,670.9,940.4,680.3z"/>
	<path d="M1001.5,700.7v-26.6c0-6.8-4-9.5-9.4-9.5c-6.8,0-10.1,3.7-11.9,6.6v29.5h-2.9v-27.4l-0.4-10.8h2.2l0.6,5.6
		c2.1-3.3,6.2-6.3,13-6.3c7.2,0,11.5,4.7,11.5,11.9v27H1001.5z"/>
	<path d="M1053.3,693.2c-2,3-5.5,5.4-11.2,5.4c-10.4,0-14.8-8.3-14.8-17.6v-1.4c0-9.4,4.3-17.6,14.8-17.6c6,0,9.6,2.9,11.5,6.1
		l0.7-5.4h2.2l-0.4,10.8v28.1c0,7.9-3.6,14.4-14,14.4c-10.4,0-14-6.5-14-14.4v-0.7h2.9c0,8.4,3.2,12.4,11.2,12.4
		c8.3,0,11.2-4.5,11.2-12V693.2z M1042.5,664.6c-8.1,0-12.1,6-12.1,14.9v1.4c0,8.9,4,14.9,12.1,14.9c5.8,0,9-3.7,10.8-6.6v-18
		C1051.5,668.3,1048.3,664.6,1042.5,664.6z"/>
	<path d="M1068.2,683c0.1,9.4,4,15.7,12.8,15.7s12.2-5.5,12.2-10.2h2.9v0.3c0,5.5-4.5,12.7-15.1,12.7c-11.2,0-15.8-8.6-15.8-19.1
		v-1.4c0-10.4,4.6-19.1,15.5-19.1s15.5,8.6,15.5,19.1v2.1H1068.2z M1068.2,680.3h24.9c-0.2-9.4-4.1-15.7-12.5-15.7
		C1072.2,664.6,1068.4,670.9,1068.2,680.3z"/>
	<path d="M1149.1,700.7V673c0-6.8-3.6-8.4-8.3-8.4c-6.1,0-9,3.7-10.8,6.6v29.5h-2.9V673c0-6.8-3.6-8.4-8.3-8.4
		c-6.1,0-9,3.7-10.8,6.6v29.5h-2.9v-27.4l-0.4-10.8h2.2l0.6,5.4c2-3.2,5.8-6.1,12-6.1c5,0,8.5,2.2,9.8,6.4c1.9-3.3,5.8-6.4,12.2-6.4
		c6.5,0,10.4,3.6,10.4,10.8v28.1H1149.1z"/>
	<path d="M1185.1,695c-2.4,3.3-6.8,6.5-14,6.5c-6.5,0-10.8-4-10.8-10.1v-0.7c0-8.3,6.5-10.5,12.1-11.4l12.4-1.9v-1.4
		c0-7.4-2.4-11.3-10.1-11.3c-8.3,0-10.1,4.8-10.1,10.6h-2.9v-0.6c0-5.5,2.2-12.7,13-12.7c9.9,0,13,5.9,13,14v14l0.4,10.8h-2.2
		L1185.1,695z M1184.7,691.5V680l-12.6,2.1c-5.4,0.9-9,3.6-9,8.6v0.7c0,3.8,2.5,7.3,8.3,7.3C1179.9,698.7,1183.3,694,1184.7,691.5z"
		/>
	<path d="M1212.1,698.7c8.4,0,11.2-5.3,11.2-10.9h2.9v1c0,5.5-3.7,12.7-14,12.7c-10.9,0-15.5-8.6-15.5-19.1v-1.4
		c0-10.4,4.6-19.1,15.5-19.1c10.4,0,14,7.6,14,13v1.4h-2.9c0-6.5-3.1-11.7-11.2-11.7c-8.6,0-12.5,6.6-12.5,16.3v1.4
		C1199.6,692.1,1203.5,698.7,1212.1,698.7z"/>
	<path d="M1238,667.6c2.2-3.1,6.2-5.8,12.6-5.8c7.2,0,11.5,4.7,11.5,11.9v27h-2.9v-26.6c0-6.8-4-9.5-9.4-9.5
		c-6.8,0-10.1,3.7-11.9,6.6v29.5h-2.9v-57.6h2.9V667.6z"/>
	<path d="M1290.4,662.6v2.7h-13v25.3c0,6.5,2.7,8.1,7.9,8.1c1.7,0,3.7-0.4,4.3-0.6v2.7c-0.5,0.2-2.2,0.7-5,0.7
		c-5.8,0-10.1-2.9-10.1-10.4v-25.7h-6.1v-2.7h6.1v-10.8h2.9v10.8H1290.4z"/>
	<path d="M1303.4,700.7h-4.3v-4.3h4.3V700.7z"/>
</g>
<g>
	<path d="M853.7,770.1h-4.1v-15.6h4.1c3.8,0,6,2,6,7.4v0.8C859.7,768.1,857.5,770.1,853.7,770.1z M853.6,768.8c3,0,4.7-1.7,4.7-6.1
		v-0.8c0-4.4-1.7-6.1-4.7-6.1H851v13H853.6z"/>
	<path d="M863.9,757h-1.8v-1.8h1.8V757z M862.3,759.5h1.4v10.6h-1.4V759.5z"/>
	<path d="M867.6,765.4c0.1,2.3,1,3.8,3.2,3.8c2.1,0,3-1.3,3-2.4h1.3v0.1c0,1.6-1.4,3.5-4.3,3.5c-3.2,0-4.6-2.4-4.6-5.3v-0.4
		c0-2.9,1.4-5.3,4.5-5.3s4.4,2.4,4.4,5.3v0.8H867.6z M867.6,764.2h6.1c-0.1-2.3-1-3.8-3-3.8C868.6,760.4,867.7,761.9,867.6,764.2z"
		/>
	<path d="M881.2,758.6v-0.2c0-2.6,1.9-4.2,4.9-4.2c3.5,0,4.9,1.8,4.9,5v0.5h-1.4c0-3-1-4.2-3.4-4.2H886c-1.9,0-3.3,1-3.3,2.7v0.2
		c0,1.7,0.9,2.6,3.7,3c3.4,0.5,4.8,1.8,4.8,4.2v0.2c0,2.8-2,4.4-5.1,4.4c-3.3,0-5.1-1.9-5.1-5.1V765h1.4c0,2.7,1.5,4,3.6,4h0.1
		c2.1,0,3.5-1.1,3.5-3v-0.2c0-1.8-1.1-2.8-3.9-3.1C882.4,762.2,881.2,760.7,881.2,758.6z"/>
	<path d="M897.5,769c2,0,2.7-1.3,2.7-2.6h1.3v0.3c0,1.7-1.1,3.6-4.1,3.6c-3.1,0-4.4-2.3-4.4-5.3v-0.5c0-2.9,1.3-5.3,4.4-5.3
		c2.9,0,4.1,2,4.1,3.7v0.4h-1.3c0-1.6-0.8-2.8-2.7-2.8c-2.1,0-3,1.6-3,4v0.5C894.5,767.4,895.4,769,897.5,769z"/>
	<path d="M905.3,760.8c0.6-0.8,1.7-1.5,3.4-1.5c2.1,0,3.2,1.4,3.2,3.4v7.4h-1.4v-7.2c0-1.6-0.9-2.3-2.3-2.3c-1.7,0-2.5,0.9-2.9,1.6
		v7.9h-1.4v-16h1.4V760.8z"/>
	<path d="M918.9,759.3v1.3h-0.3c-1.6,0-2.4,0.9-2.8,1.6v7.9h-1.4v-7.6l-0.1-3h1.2l0.2,1.4c0.6-0.9,1.5-1.6,3-1.6
		C918.8,759.3,918.9,759.3,918.9,759.3z"/>
	<path d="M922.8,757H921v-1.8h1.8V757z M921.2,759.5h1.4v10.6h-1.4V759.5z"/>
	<path d="M927.8,759.5h3v1.3h-3v9.3h-1.4v-9.3h-1.7v-1.3h1.7V757c0-2.3,1.3-3.2,3.1-3.2c0.8,0,1.3,0.2,1.5,0.2v1.2
		c-0.2-0.1-0.7-0.2-1.1-0.2c-1.3,0-2,0.4-2,2.1V759.5z"/>
	<path d="M938.8,759.5v1.3h-3.4v6.2c0,1.7,0.7,2.1,2,2.1c0.4,0,1-0.1,1.1-0.2v1.2c-0.2,0.1-0.6,0.2-1.5,0.2c-1.8,0-3.1-0.9-3.1-3.2
		v-6.4h-1.7v-1.3h1.7v-3h1.4v3H938.8z"/>
	<path d="M950.1,769h0.1c2.3,0,3.3-1.4,3.3-4h1.5v0.2c0,3.3-1.6,5.1-4.9,5.1c-3.6,0-5.3-2.2-5.3-7.6v-0.8c0-5.4,1.7-7.6,5.3-7.6
		c3.3,0,4.9,1.8,4.9,5.3v0.6h-1.5c0-3.2-1-4.6-3.3-4.6h-0.1c-2.6,0-3.8,1.9-3.8,6.3v0.8C946.3,767.1,947.5,769,950.1,769z"/>
	<path d="M957,765v-0.5c0-2.9,1.3-5.3,4.5-5.3s4.5,2.3,4.5,5.3v0.5c0,2.9-1.3,5.3-4.5,5.3S957,768,957,765z M964.5,765v-0.5
		c0-2.4-0.9-4-3-4c-2.1,0-3,1.6-3,4v0.5c0,2.4,0.9,4,3,4C963.6,769,964.5,767.4,964.5,765z"/>
	<path d="M967.9,765v-0.5c0-2.9,1.3-5.3,4.5-5.3c3.1,0,4.5,2.3,4.5,5.3v0.5c0,2.9-1.3,5.3-4.5,5.3C969.2,770.3,967.9,768,967.9,765z
		 M975.4,765v-0.5c0-2.4-0.9-4-3-4s-3,1.6-3,4v0.5c0,2.4,0.9,4,3,4S975.4,767.4,975.4,765z"/>
	<path d="M980.5,768.9v5.2h-1.4v-11.6l-0.1-3h1.2l0.2,1.4c0.6-0.9,1.5-1.7,3.2-1.7c2.9,0,4.1,2.3,4.1,5.3v0.5c0,2.9-1.2,5.3-4.1,5.3
		C982,770.3,981.1,769.7,980.5,768.9z M980.5,767.4c0.4,0.7,1.2,1.6,2.7,1.6c2,0,2.9-1.6,2.9-4v-0.5c0-2.5-0.9-4-2.9-4
		c-1.4,0-2.3,0.9-2.7,1.6V767.4z"/>
	<path d="M990.9,765.4c0.1,2.3,1,3.8,3.2,3.8c2.1,0,3-1.3,3-2.4h1.3v0.1c0,1.6-1.4,3.5-4.3,3.5c-3.2,0-4.6-2.4-4.6-5.3v-0.4
		c0-2.9,1.4-5.3,4.5-5.3c3.1,0,4.4,2.4,4.4,5.3v0.8H990.9z M990.9,764.2h6.1c-0.1-2.3-1-3.8-3-3.8C992,760.4,991,761.9,990.9,764.2z
		"/>
	<path d="M1005.2,759.3v1.3h-0.3c-1.6,0-2.4,0.9-2.8,1.6v7.9h-1.4v-7.6l-0.1-3h1.2l0.2,1.4c0.6-0.9,1.5-1.6,3-1.6
		C1005.1,759.3,1005.2,759.3,1005.2,759.3z"/>
	<path d="M1021.2,754.5v15.6h-1.4v-7.3h-6.9v7.3h-1.4v-15.6h1.4v7h6.9v-7H1021.2z"/>
	<path d="M1025,765.4c0.1,2.3,1,3.8,3.2,3.8c2.1,0,3-1.3,3-2.4h1.3v0.1c0,1.6-1.4,3.5-4.3,3.5c-3.2,0-4.6-2.4-4.6-5.3v-0.4
		c0-2.9,1.4-5.3,4.5-5.3c3.1,0,4.4,2.4,4.4,5.3v0.8H1025z M1025,764.2h6.1c-0.1-2.3-1-3.8-3-3.8
		C1026.1,760.4,1025.1,761.9,1025,764.2z"/>
	<path d="M1038,770.1h-1.8l-2.3-10.6h1.4l1.8,9.1l2.5-9.1h1.7l2.5,9.1l1.8-9.1h1.4l-2.3,10.6h-1.9l-2.4-9L1038,770.1z"/>
	<path d="M1050.7,757h-1.8v-1.8h1.8V757z M1049.1,759.5h1.4v10.6h-1.4V759.5z"/>
	<path d="M1059,759.5v1.3h-3.4v6.2c0,1.7,0.7,2.1,2,2.1c0.4,0,1-0.1,1.1-0.2v1.2c-0.2,0.1-0.6,0.2-1.5,0.2c-1.8,0-3.1-0.9-3.1-3.2
		v-6.4h-1.7v-1.3h1.7v-3h1.4v3H1059z"/>
	<path d="M1067,759.5v1.3h-3.4v6.2c0,1.7,0.7,2.1,2,2.1c0.4,0,1-0.1,1.1-0.2v1.2c-0.2,0.1-0.6,0.2-1.5,0.2c-1.8,0-3.1-0.9-3.1-3.2
		v-6.4h-1.7v-1.3h1.7v-3h1.4v3H1067z"/>
	<path d="M1074.3,765.4c0.1,2.3,1,3.8,3.2,3.8s3-1.3,3-2.4h1.3v0.1c0,1.6-1.4,3.5-4.3,3.5c-3.2,0-4.6-2.4-4.6-5.3v-0.4
		c0-2.9,1.4-5.3,4.5-5.3c3.1,0,4.4,2.4,4.4,5.3v0.8H1074.3z M1074.3,764.2h6.1c-0.1-2.3-1-3.8-3-3.8
		C1075.4,760.4,1074.4,761.9,1074.3,764.2z"/>
	<path d="M1090.8,770.1v-7.2c0-1.6-0.9-2.3-2.3-2.3c-1.7,0-2.5,0.9-2.9,1.6v7.9h-1.4v-7.6l-0.1-3h1.2l0.2,1.5
		c0.6-0.9,1.7-1.7,3.6-1.7c2.1,0,3.2,1.4,3.2,3.4v7.4H1090.8z"/>
	<path d="M1100.2,759.5v1.3h-3.4v6.2c0,1.7,0.7,2.1,2,2.1c0.4,0,1-0.1,1.1-0.2v1.2c-0.2,0.1-0.6,0.2-1.5,0.2c-1.8,0-3.1-0.9-3.1-3.2
		v-6.4h-1.7v-1.3h1.7v-3h1.4v3H1100.2z"/>
	<path d="M1109,767.2c0-1.4-0.8-1.8-2.9-2c-2.9-0.2-3.7-1.2-3.7-2.8v-0.1c0-1.8,1.5-3,3.9-3c2.9,0,4,1.5,4,3.6v0.1h-1.4
		c0-1.5-0.6-2.5-2.6-2.5c-1.6,0-2.5,0.7-2.5,1.8c0,1.1,0.5,1.7,2.8,1.9c2.7,0.2,3.8,1,3.8,2.9v0.1c0,1.8-1.5,3.1-4.1,3.1
		c-3,0-4.1-1.8-4.1-3.4v-0.1h1.4c0,1.2,0.6,2.3,2.7,2.3C1108.1,769.1,1109,768.4,1109,767.2z"/>
	<path d="M1118.4,759.5v1.3h-3.4v6.2c0,1.7,0.7,2.1,2,2.1c0.4,0,1-0.1,1.1-0.2v1.2c-0.2,0.1-0.6,0.2-1.5,0.2c-1.8,0-3.1-0.9-3.1-3.2
		v-6.4h-1.7v-1.3h1.7v-3h1.4v3H1118.4z"/>
	<path d="M1127,768.6c-0.7,0.9-1.9,1.7-3.7,1.7c-1.9,0-3.1-1.2-3.1-2.9v-0.2c0-2.3,1.7-3,3.5-3.2l3.2-0.5v-0.3
		c0-1.8-0.6-2.8-2.5-2.8c-2,0-2.5,1.2-2.5,2.5h-1.3v-0.2c0-1.6,0.7-3.5,3.8-3.5c2.9,0,3.8,1.6,3.8,3.9v3.9l0.1,3h-1.2L1127,768.6z
		 M1126.9,767.4v-2.9l-3.1,0.5c-1.4,0.2-2.2,0.9-2.2,2.1v0.2c0,0.9,0.6,1.8,2,1.8C1125.6,769.1,1126.5,768,1126.9,767.4z"/>
	<path d="M1137.5,770.1v-7.2c0-1.6-0.9-2.3-2.3-2.3c-1.7,0-2.5,0.9-2.9,1.6v7.9h-1.4v-7.6l-0.1-3h1.2l0.2,1.5
		c0.6-0.9,1.7-1.7,3.6-1.7c2.1,0,3.2,1.4,3.2,3.4v7.4H1137.5z"/>
	<path d="M1148.2,760.7v-6.6h1.4v13l0.1,3h-1.2l-0.2-1.4c-0.5,0.9-1.5,1.6-3.1,1.6c-2.9,0-4.1-2.3-4.1-5.3v-0.5
		c0-2.9,1.2-5.3,4.1-5.3C1146.7,759.3,1147.6,759.9,1148.2,760.7z M1148.2,767.4v-5.2c-0.4-0.7-1.3-1.6-2.7-1.6c-2,0-2.9,1.6-2.9,4
		v0.5c0,2.5,0.9,4,2.9,4C1147,769,1147.8,768.1,1148.2,767.4z"/>
	<path d="M1154,769.7c0,1.8-0.8,2.7-2.3,2.7v-0.8c0.8,0,1.3-0.4,1.4-1.5h-0.9v-1.8h1.8V769.7z"/>
	<path d="M1161.9,759.5v7.2c0,1.6,0.9,2.3,2.3,2.3c1.7,0,2.5-0.9,2.9-1.6v-7.9h1.4v7.6l0.1,3h-1.2l-0.2-1.5
		c-0.6,0.9-1.7,1.7-3.5,1.7c-2.1,0-3.2-1.4-3.2-3.4v-7.4H1161.9z"/>
	<path d="M1183.3,770.1v-7.5c0-1.6-0.8-2.1-2-2.1c-1.5,0-2.2,0.9-2.6,1.6v8h-1.4v-7.5c0-1.6-0.8-2.1-2-2.1c-1.5,0-2.2,0.9-2.6,1.6v8
		h-1.4v-7.6l-0.1-3h1.2l0.2,1.4c0.6-0.9,1.6-1.7,3.3-1.7c1.4,0,2.3,0.6,2.7,1.8c0.6-1,1.6-1.8,3.3-1.8c1.9,0,3,1.1,3,3.1v7.7H1183.3
		z"/>
	<path d="M1198,760.7v-6.6h1.4v13l0.1,3h-1.2l-0.2-1.4c-0.5,0.9-1.5,1.6-3.1,1.6c-2.9,0-4.1-2.3-4.1-5.3v-0.5c0-2.9,1.2-5.3,4.1-5.3
		C1196.5,759.3,1197.4,759.9,1198,760.7z M1198,767.4v-5.2c-0.4-0.7-1.3-1.6-2.7-1.6c-2,0-2.9,1.6-2.9,4v0.5c0,2.5,0.9,4,2.9,4
		C1196.7,769,1197.6,768.1,1198,767.4z"/>
	<path d="M1203.8,757h-1.8v-1.8h1.8V757z M1202.2,759.5h1.4v10.6h-1.4V759.5z"/>
	<path d="M1207.4,765.4c0.1,2.3,1,3.8,3.2,3.8c2.1,0,3-1.3,3-2.4h1.3v0.1c0,1.6-1.4,3.5-4.3,3.5c-3.2,0-4.6-2.4-4.6-5.3v-0.4
		c0-2.9,1.4-5.3,4.5-5.3s4.4,2.4,4.4,5.3v0.8H1207.4z M1207.4,764.2h6.1c-0.1-2.3-1-3.8-3-3.8
		C1208.5,760.4,1207.5,761.9,1207.4,764.2z"/>
	<path d="M1230.1,754.5v1.3h-7.3v5.7h6.3v1.3h-6.3v6h7.3v1.3h-8.7v-15.6H1230.1z"/>
	<path d="M1233,759.5l2.7,4.3l2.7-4.3h1.7l-3.3,5.2l3.3,5.4h-1.7l-2.7-4.5l-2.7,4.5h-1.7l3.3-5.4l-3.3-5.2H1233z"/>
	<path d="M1243.3,768.9v5.2h-1.4v-11.6l-0.1-3h1.2l0.2,1.4c0.6-0.9,1.5-1.7,3.2-1.7c2.9,0,4.1,2.3,4.1,5.3v0.5
		c0,2.9-1.2,5.3-4.1,5.3C1244.8,770.3,1243.9,769.7,1243.3,768.9z M1243.3,767.4c0.4,0.7,1.2,1.6,2.7,1.6c2,0,2.9-1.6,2.9-4v-0.5
		c0-2.5-0.9-4-2.9-4c-1.4,0-2.3,0.9-2.7,1.6V767.4z"/>
	<path d="M1259,768.6c-0.7,0.9-1.9,1.7-3.7,1.7c-1.9,0-3.1-1.2-3.1-2.9v-0.2c0-2.3,1.7-3,3.5-3.2l3.2-0.5v-0.3
		c0-1.8-0.6-2.8-2.5-2.8c-2,0-2.5,1.2-2.5,2.5h-1.3v-0.2c0-1.6,0.7-3.5,3.8-3.5c2.9,0,3.8,1.6,3.8,3.9v3.9l0.1,3h-1.2L1259,768.6z
		 M1258.9,767.4v-2.9l-3.1,0.5c-1.4,0.2-2.2,0.9-2.2,2.1v0.2c0,0.9,0.6,1.8,2,1.8C1257.6,769.1,1258.5,768,1258.9,767.4z"/>
	<path d="M1269.5,770.1v-7.2c0-1.6-0.9-2.3-2.3-2.3c-1.7,0-2.5,0.9-2.9,1.6v7.9h-1.4v-7.6l-0.1-3h1.2l0.2,1.5
		c0.6-0.9,1.7-1.7,3.6-1.7c2.1,0,3.2,1.4,3.2,3.4v7.4H1269.5z"/>
	<path d="M1280,767.2c0-1.4-0.8-1.8-2.9-2c-2.9-0.2-3.7-1.2-3.7-2.8v-0.1c0-1.8,1.5-3,3.9-3c2.9,0,4,1.5,4,3.6v0.1h-1.4
		c0-1.5-0.6-2.5-2.6-2.5c-1.6,0-2.5,0.7-2.5,1.8c0,1.1,0.5,1.7,2.8,1.9c2.7,0.2,3.8,1,3.8,2.9v0.1c0,1.8-1.5,3.1-4.1,3.1
		c-3,0-4.1-1.8-4.1-3.4v-0.1h1.4c0,1.2,0.6,2.3,2.7,2.3C1279.1,769.1,1280,768.4,1280,767.2z"/>
	<path d="M1285.6,757h-1.8v-1.8h1.8V757z M1284,759.5h1.4v10.6h-1.4V759.5z"/>
	<path d="M1287.7,762.4h5v1.3h-5V762.4z"/>
	<path d="M849.1,793v-0.5c0-2.9,1.3-5.3,4.5-5.3c3.1,0,4.5,2.3,4.5,5.3v0.5c0,2.9-1.3,5.3-4.5,5.3C850.4,798.3,849.1,796,849.1,793z
		 M856.6,793v-0.5c0-2.4-0.9-4-3-4s-3,1.6-3,4v0.5c0,2.4,0.9,4,3,4S856.6,795.4,856.6,793z"/>
	<path d="M866.9,798.1v-7.2c0-1.6-0.9-2.3-2.3-2.3c-1.7,0-2.5,0.9-2.9,1.6v7.9h-1.4v-7.6l-0.1-3h1.2l0.2,1.5
		c0.6-0.9,1.7-1.7,3.6-1.7c2.1,0,3.2,1.4,3.2,3.4v7.4H866.9z"/>
	<path d="M876.1,787.5v7.2c0,1.6,0.9,2.3,2.3,2.3c1.7,0,2.5-0.9,2.9-1.6v-7.9h1.4v7.6l0.1,3h-1.2l-0.2-1.5c-0.6,0.9-1.7,1.7-3.5,1.7
		c-2.1,0-3.2-1.4-3.2-3.4v-7.4H876.1z"/>
	<path d="M892,798.1v-7.2c0-1.6-0.9-2.3-2.3-2.3c-1.7,0-2.5,0.9-2.9,1.6v7.9h-1.4v-7.6l-0.1-3h1.2l0.2,1.5c0.6-0.9,1.7-1.7,3.6-1.7
		c2.1,0,3.2,1.4,3.2,3.4v7.4H892z"/>
	<path d="M902.7,788.7v-6.6h1.4v13l0.1,3h-1.2l-0.2-1.4c-0.5,0.9-1.5,1.6-3.1,1.6c-2.9,0-4.1-2.3-4.1-5.3v-0.5
		c0-2.9,1.2-5.3,4.1-5.3C901.2,787.3,902.2,787.9,902.7,788.7z M902.7,795.4v-5.2c-0.4-0.7-1.3-1.6-2.7-1.6c-2,0-2.9,1.6-2.9,4v0.5
		c0,2.5,0.9,4,2.9,4C901.5,797,902.3,796.1,902.7,795.4z"/>
	<path d="M917.5,788.7v-6.6h1.4v13l0.1,3h-1.2l-0.2-1.4c-0.5,0.9-1.5,1.6-3.1,1.6c-2.9,0-4.1-2.3-4.1-5.3v-0.5
		c0-2.9,1.2-5.3,4.1-5.3C916,787.3,917,787.9,917.5,788.7z M917.5,795.4v-5.2c-0.4-0.7-1.3-1.6-2.7-1.6c-2,0-2.9,1.6-2.9,4v0.5
		c0,2.5,0.9,4,2.9,4C916.3,797,917.1,796.1,917.5,795.4z"/>
	<path d="M928,796.6c-0.7,0.9-1.9,1.7-3.7,1.7c-1.9,0-3.1-1.2-3.1-2.9v-0.2c0-2.3,1.7-3,3.5-3.2l3.2-0.5v-0.3c0-1.8-0.6-2.8-2.5-2.8
		c-2,0-2.5,1.2-2.5,2.5h-1.3v-0.2c0-1.6,0.7-3.5,3.8-3.5c2.9,0,3.8,1.6,3.8,3.9v3.9l0.1,3h-1.2L928,796.6z M927.8,795.4v-2.9
		l-3.1,0.5c-1.4,0.2-2.2,0.9-2.2,2.1v0.2c0,0.9,0.6,1.8,2,1.8C926.5,797.1,927.4,796,927.8,795.4z"/>
	<path d="M938.4,795.2c0-1.4-0.8-1.8-2.9-2c-2.9-0.2-3.7-1.2-3.7-2.8v-0.1c0-1.8,1.5-3,3.9-3c2.9,0,4,1.5,4,3.6v0.1h-1.4
		c0-1.5-0.6-2.5-2.6-2.5c-1.6,0-2.5,0.7-2.5,1.8c0,1.1,0.5,1.7,2.8,1.9c2.7,0.2,3.8,1,3.8,2.9v0.1c0,1.8-1.5,3.1-4.1,3.1
		c-3,0-4.1-1.8-4.1-3.4v-0.1h1.4c0,1.2,0.6,2.3,2.7,2.3C937.4,797.1,938.4,796.4,938.4,795.2z"/>
	<path d="M953,788.7v-6.6h1.4v13l0.1,3h-1.2l-0.2-1.4c-0.5,0.9-1.5,1.6-3.1,1.6c-2.9,0-4.1-2.3-4.1-5.3v-0.5c0-2.9,1.2-5.3,4.1-5.3
		C951.5,787.3,952.4,787.9,953,788.7z M953,795.4v-5.2c-0.4-0.7-1.3-1.6-2.7-1.6c-2,0-2.9,1.6-2.9,4v0.5c0,2.5,0.9,4,2.9,4
		C951.8,797,952.6,796.1,953,795.4z"/>
	<path d="M963.4,796.6c-0.7,0.9-1.9,1.7-3.7,1.7c-1.9,0-3.1-1.2-3.1-2.9v-0.2c0-2.3,1.7-3,3.5-3.2l3.2-0.5v-0.3
		c0-1.8-0.6-2.8-2.5-2.8c-2,0-2.5,1.2-2.5,2.5H957v-0.2c0-1.6,0.7-3.5,3.8-3.5c2.9,0,3.8,1.6,3.8,3.9v3.9l0.1,3h-1.2L963.4,796.6z
		 M963.3,795.4v-2.9l-3.1,0.5c-1.4,0.2-2.2,0.9-2.2,2.1v0.2c0,0.9,0.6,1.8,2,1.8C962,797.1,962.9,796,963.3,795.4z"/>
	<path d="M979.5,798.1v-7.5c0-1.6-0.8-2.1-2-2.1c-1.5,0-2.2,0.9-2.6,1.6v8h-1.4v-7.5c0-1.6-0.8-2.1-2-2.1c-1.5,0-2.2,0.9-2.6,1.6v8
		h-1.4v-7.6l-0.1-3h1.2l0.2,1.4c0.6-0.9,1.6-1.7,3.3-1.7c1.4,0,2.3,0.6,2.7,1.8c0.6-1,1.6-1.8,3.3-1.8c1.9,0,3,1.1,3,3.1v7.7H979.5z
		"/>
	<path d="M985.1,785h-1.8v-1.8h1.8V785z M983.5,787.5h1.4v10.6h-1.4V787.5z"/>
	<path d="M993.5,787.5v1.3h-3.4v6.2c0,1.7,0.7,2.1,2,2.1c0.4,0,1-0.1,1.1-0.2v1.2c-0.2,0.1-0.6,0.2-1.5,0.2c-1.8,0-3.1-0.9-3.1-3.2
		v-6.4H987v-1.3h1.7v-3h1.4v3H993.5z"/>
	<path d="M1000.8,793.4c0.1,2.3,1,3.8,3.2,3.8s3-1.3,3-2.4h1.3v0.1c0,1.6-1.4,3.5-4.3,3.5c-3.2,0-4.6-2.4-4.6-5.3v-0.4
		c0-2.9,1.4-5.3,4.5-5.3c3.1,0,4.4,2.4,4.4,5.3v0.8H1000.8z M1000.8,792.2h6.1c-0.1-2.3-1-3.8-3-3.8
		C1001.8,788.4,1000.8,789.9,1000.8,792.2z"/>
	<path d="M1012.3,785h-1.8v-1.8h1.8V785z M1010.7,787.5h1.4v10.6h-1.4V787.5z"/>
	<path d="M1021.5,798.1v-7.2c0-1.6-0.9-2.3-2.3-2.3c-1.7,0-2.5,0.9-2.9,1.6v7.9h-1.4v-7.6l-0.1-3h1.2l0.2,1.5
		c0.6-0.9,1.7-1.7,3.6-1.7c2.1,0,3.2,1.4,3.2,3.4v7.4H1021.5z"/>
	<path d="M1026.9,788.8c0.6-0.8,1.7-1.5,3.4-1.5c2.1,0,3.2,1.4,3.2,3.4v7.4h-1.4v-7.2c0-1.6-0.9-2.3-2.3-2.3c-1.7,0-2.5,0.9-2.9,1.6
		v7.9h-1.4v-16h1.4V788.8z"/>
	<path d="M1037.1,793.4c0.1,2.3,1,3.8,3.2,3.8c2.1,0,3-1.3,3-2.4h1.3v0.1c0,1.6-1.4,3.5-4.3,3.5c-3.2,0-4.6-2.4-4.6-5.3v-0.4
		c0-2.9,1.4-5.3,4.5-5.3c3.1,0,4.4,2.4,4.4,5.3v0.8H1037.1z M1037.1,792.2h6.1c-0.1-2.3-1-3.8-3-3.8
		C1038.2,788.4,1037.2,789.9,1037.1,792.2z"/>
	<path d="M1051.4,787.3v1.3h-0.3c-1.6,0-2.4,0.9-2.8,1.6v7.9h-1.4v-7.6l-0.1-3h1.2l0.2,1.4c0.6-0.9,1.5-1.6,3-1.6
		C1051.2,787.3,1051.4,787.3,1051.4,787.3z"/>
	<path d="M1059.8,796.1c-0.6,0.8-1.5,1.4-3,1.4c-2.9,0-4.1-2.2-4.1-4.9v-0.4c0-2.7,1.2-4.9,4.1-4.9c1.6,0,2.6,0.7,3.2,1.6l0.2-1.4
		h1.2l-0.1,3v7.7c0,2.4-1.1,4.1-4.2,4.1c-3.1,0-4.1-1.8-4.1-4v-0.3h1.3c0,2,0.8,3,2.7,3c2,0,2.8-1,2.8-3V796.1z M1057.1,788.5
		c-2,0-2.9,1.5-2.9,3.7v0.4c0,2.2,1,3.7,2.9,3.7c1.5,0,2.3-0.9,2.7-1.6v-4.5C1059.4,789.5,1058.6,788.5,1057.1,788.5z"/>
	<path d="M1064.9,793.4c0.1,2.3,1,3.8,3.2,3.8c2.1,0,3-1.3,3-2.4h1.3v0.1c0,1.6-1.4,3.5-4.3,3.5c-3.2,0-4.6-2.4-4.6-5.3v-0.4
		c0-2.9,1.4-5.3,4.5-5.3s4.4,2.4,4.4,5.3v0.8H1064.9z M1064.9,792.2h6.1c-0.1-2.3-1-3.8-3-3.8C1065.9,788.4,1065,789.9,1064.9,792.2
		z"/>
	<path d="M1076.1,788.8c0.6-0.8,1.7-1.5,3.4-1.5c2.1,0,3.2,1.4,3.2,3.4v7.4h-1.4v-7.2c0-1.6-0.9-2.3-2.3-2.3c-1.7,0-2.5,0.9-2.9,1.6
		v7.9h-1.4v-16h1.4V788.8z"/>
	<path d="M1086.3,793.4c0.1,2.3,1,3.8,3.2,3.8c2.1,0,3-1.3,3-2.4h1.3v0.1c0,1.6-1.4,3.5-4.3,3.5c-3.2,0-4.6-2.4-4.6-5.3v-0.4
		c0-2.9,1.4-5.3,4.5-5.3s4.4,2.4,4.4,5.3v0.8H1086.3z M1086.3,792.2h6.1c-0.1-2.3-1-3.8-3-3.8
		C1087.4,788.4,1086.4,789.9,1086.3,792.2z"/>
	<path d="M1102.8,798.1v-7.2c0-1.6-0.9-2.3-2.3-2.3c-1.7,0-2.5,0.9-2.9,1.6v7.9h-1.4v-7.6l-0.1-3h1.2l0.2,1.5
		c0.6-0.9,1.7-1.7,3.6-1.7c2.1,0,3.2,1.4,3.2,3.4v7.4H1102.8z"/>
	<path d="M1113.5,788.7v-6.6h1.4v13l0.1,3h-1.2l-0.2-1.4c-0.5,0.9-1.5,1.6-3.1,1.6c-2.9,0-4.1-2.3-4.1-5.3v-0.5
		c0-2.9,1.2-5.3,4.1-5.3C1112,787.3,1112.9,787.9,1113.5,788.7z M1113.5,795.4v-5.2c-0.4-0.7-1.3-1.6-2.7-1.6c-2,0-2.9,1.6-2.9,4
		v0.5c0,2.5,0.9,4,2.9,4C1112.2,797,1113,796.1,1113.5,795.4z"/>
	<path d="M1118.6,793.4c0.1,2.3,1,3.8,3.2,3.8c2.1,0,3-1.3,3-2.4h1.3v0.1c0,1.6-1.4,3.5-4.3,3.5c-3.2,0-4.6-2.4-4.6-5.3v-0.4
		c0-2.9,1.4-5.3,4.5-5.3s4.4,2.4,4.4,5.3v0.8H1118.6z M1118.6,792.2h6.1c-0.1-2.3-1-3.8-3-3.8
		C1119.6,788.4,1118.6,789.9,1118.6,792.2z"/>
	<path d="M1134,798.1h-1.4v-15.6h4.3c2.2,0,4.8,0.8,4.8,4.4v0.4c0,2.5-1.2,3.6-2.7,4.1l2.7,6.6h-1.6l-2.5-6.4c-0.2,0-0.5,0-0.7,0
		h-2.9V798.1z M1136.9,790.4c1.3,0,3.3-0.5,3.3-3.2V787c0-2.7-1.9-3.2-3.3-3.2h-2.9v6.7H1136.9z"/>
	<path d="M1145.1,793.4c0.1,2.3,1,3.8,3.2,3.8c2.1,0,3-1.3,3-2.4h1.3v0.1c0,1.6-1.4,3.5-4.3,3.5c-3.2,0-4.6-2.4-4.6-5.3v-0.4
		c0-2.9,1.4-5.3,4.5-5.3c3.1,0,4.4,2.4,4.4,5.3v0.8H1145.1z M1145.1,792.2h6.1c-0.1-2.3-1-3.8-3-3.8
		C1146.2,788.4,1145.2,789.9,1145.1,792.2z"/>
	<path d="M1156.3,788.7c0.6-0.8,1.5-1.4,3-1.4c2.9,0,4.1,2.3,4.1,5.3v0.5c0,2.9-1.2,5.3-4.1,5.3c-1.6,0-2.6-0.7-3.2-1.7l-0.2,1.4
		h-1.2l0.1-3v-13h1.4V788.7z M1156.3,795.4c0.4,0.7,1.2,1.6,2.7,1.6c2,0,2.9-1.6,2.9-4v-0.5c0-2.5-0.9-4-2.9-4
		c-1.4,0-2.3,0.9-2.7,1.6V795.4z"/>
	<path d="M1170.2,787.3v1.3h-0.3c-1.6,0-2.4,0.9-2.8,1.6v7.9h-1.4v-7.6l-0.1-3h1.2l0.2,1.4c0.6-0.9,1.5-1.6,3-1.6
		C1170,787.3,1170.2,787.3,1170.2,787.3z"/>
	<path d="M1178.2,796.6c-0.7,0.9-1.9,1.7-3.7,1.7c-1.9,0-3.1-1.2-3.1-2.9v-0.2c0-2.3,1.7-3,3.5-3.2l3.2-0.5v-0.3
		c0-1.8-0.6-2.8-2.5-2.8c-2,0-2.5,1.2-2.5,2.5h-1.3v-0.2c0-1.6,0.7-3.5,3.8-3.5c2.9,0,3.8,1.6,3.8,3.9v3.9l0.1,3h-1.2L1178.2,796.6z
		 M1178.1,795.4v-2.9l-3.1,0.5c-1.4,0.2-2.2,0.9-2.2,2.1v0.2c0,0.9,0.6,1.8,2,1.8C1176.8,797.1,1177.7,796,1178.1,795.4z"/>
	<path d="M1188.7,798.1v-7.2c0-1.6-0.9-2.3-2.3-2.3c-1.7,0-2.5,0.9-2.9,1.6v7.9h-1.4v-7.6l-0.1-3h1.2l0.2,1.5
		c0.6-0.9,1.7-1.7,3.6-1.7c2.1,0,3.2,1.4,3.2,3.4v7.4H1188.7z"/>
	<path d="M1199.4,788.7v-6.6h1.4v13l0.1,3h-1.2l-0.2-1.4c-0.5,0.9-1.5,1.6-3.1,1.6c-2.9,0-4.1-2.3-4.1-5.3v-0.5
		c0-2.9,1.2-5.3,4.1-5.3C1197.9,787.3,1198.8,787.9,1199.4,788.7z M1199.4,795.4v-5.2c-0.4-0.7-1.3-1.6-2.7-1.6c-2,0-2.9,1.6-2.9,4
		v0.5c0,2.5,0.9,4,2.9,4C1198.2,797,1199,796.1,1199.4,795.4z"/>
	<path d="M1205.2,785h-1.8v-1.8h1.8V785z M1203.6,787.5h1.4v10.6h-1.4V787.5z"/>
	<path d="M1214.4,798.1v-7.2c0-1.6-0.9-2.3-2.3-2.3c-1.7,0-2.5,0.9-2.9,1.6v7.9h-1.4v-7.6l-0.1-3h1.2l0.2,1.5
		c0.6-0.9,1.7-1.7,3.6-1.7c2.1,0,3.2,1.4,3.2,3.4v7.4H1214.4z"/>
	<path d="M1225.1,796.1c-0.6,0.8-1.5,1.4-3,1.4c-2.9,0-4.1-2.2-4.1-4.9v-0.4c0-2.7,1.2-4.9,4.1-4.9c1.6,0,2.6,0.7,3.2,1.6l0.2-1.4
		h1.2l-0.1,3v7.7c0,2.4-1.1,4.1-4.2,4.1c-3.1,0-4.1-1.8-4.1-4v-0.3h1.3c0,2,0.8,3,2.7,3c2,0,2.8-1,2.8-3V796.1z M1222.4,788.5
		c-2,0-2.9,1.5-2.9,3.7v0.4c0,2.2,1,3.7,2.9,3.7c1.5,0,2.3-0.9,2.7-1.6v-4.5C1224.6,789.5,1223.8,788.5,1222.4,788.5z"/>
	<path d="M1239.8,788.7v-6.6h1.4v13l0.1,3h-1.2l-0.2-1.4c-0.5,0.9-1.5,1.6-3.1,1.6c-2.9,0-4.1-2.3-4.1-5.3v-0.5
		c0-2.9,1.2-5.3,4.1-5.3C1238.3,787.3,1239.3,787.9,1239.8,788.7z M1239.8,795.4v-5.2c-0.4-0.7-1.3-1.6-2.7-1.6c-2,0-2.9,1.6-2.9,4
		v0.5c0,2.5,0.9,4,2.9,4C1238.6,797,1239.4,796.1,1239.8,795.4z"/>
	<path d="M1245,793.4c0.1,2.3,1,3.8,3.2,3.8c2.1,0,3-1.3,3-2.4h1.3v0.1c0,1.6-1.4,3.5-4.3,3.5c-3.2,0-4.6-2.4-4.6-5.3v-0.4
		c0-2.9,1.4-5.3,4.5-5.3s4.4,2.4,4.4,5.3v0.8H1245z M1245,792.2h6.1c-0.1-2.3-1-3.8-3-3.8C1246,788.4,1245,789.9,1245,792.2z"/>
	<path d="M1261.3,795.2c0-1.4-0.8-1.8-2.9-2c-2.9-0.2-3.7-1.2-3.7-2.8v-0.1c0-1.8,1.5-3,3.9-3c2.9,0,4,1.5,4,3.6v0.1h-1.4
		c0-1.5-0.6-2.5-2.6-2.5c-1.6,0-2.5,0.7-2.5,1.8c0,1.1,0.5,1.7,2.8,1.9c2.7,0.2,3.8,1,3.8,2.9v0.1c0,1.8-1.5,3.1-4.1,3.1
		c-3,0-4.1-1.8-4.1-3.4v-0.1h1.4c0,1.2,0.6,2.3,2.7,2.3C1260.4,797.1,1261.3,796.4,1261.3,795.2z"/>
	<path d="M856.8,826.1h-1.3l-4.5-13.1l0.1,3.5v9.6h-1.4v-15.6h2l4.5,13.1l4.5-13.1h2v15.6h-1.4v-9.6l0.1-3.5L856.8,826.1z"/>
	<path d="M866.8,815.5v7.2c0,1.6,0.9,2.3,2.3,2.3c1.7,0,2.5-0.9,2.9-1.6v-7.9h1.4v7.6l0.1,3h-1.2l-0.2-1.5c-0.6,0.9-1.7,1.7-3.5,1.7
		c-2.1,0-3.2-1.4-3.2-3.4v-7.4H866.8z"/>
	<path d="M882.6,823.2c0-1.4-0.8-1.8-2.9-2c-2.9-0.2-3.7-1.2-3.7-2.8v-0.1c0-1.8,1.5-3,3.9-3c2.9,0,4,1.5,4,3.6v0.1h-1.4
		c0-1.5-0.6-2.5-2.6-2.5c-1.6,0-2.5,0.7-2.5,1.8c0,1.1,0.5,1.7,2.8,1.9c2.7,0.2,3.8,1,3.8,2.9v0.1c0,1.8-1.5,3.1-4.1,3.1
		c-3,0-4.1-1.8-4.1-3.4v-0.1h1.4c0,1.2,0.6,2.3,2.7,2.3C881.7,825.1,882.6,824.4,882.6,823.2z"/>
	<path d="M887.6,821.4c0.1,2.3,1,3.8,3.2,3.8s3-1.3,3-2.4h1.3v0.1c0,1.6-1.4,3.5-4.3,3.5c-3.2,0-4.6-2.4-4.6-5.3v-0.4
		c0-2.9,1.4-5.3,4.5-5.3c3.1,0,4.4,2.4,4.4,5.3v0.8H887.6z M887.6,820.2h6.1c-0.1-2.3-1-3.8-3-3.8
		C888.6,816.4,887.6,817.9,887.6,820.2z"/>
	<path d="M898.6,815.5v7.2c0,1.6,0.9,2.3,2.3,2.3c1.7,0,2.5-0.9,2.9-1.6v-7.9h1.4v7.6l0.1,3h-1.2l-0.2-1.5c-0.6,0.9-1.7,1.7-3.5,1.7
		c-2.1,0-3.2-1.4-3.2-3.4v-7.4H898.6z"/>
	<path d="M920.1,826.1v-7.5c0-1.6-0.8-2.1-2-2.1c-1.5,0-2.2,0.9-2.6,1.6v8H914v-7.5c0-1.6-0.8-2.1-2-2.1c-1.5,0-2.2,0.9-2.6,1.6v8
		h-1.4v-7.6l-0.1-3h1.2l0.2,1.4c0.6-0.9,1.6-1.7,3.3-1.7c1.4,0,2.3,0.6,2.7,1.8c0.6-1,1.6-1.8,3.3-1.8c1.9,0,3,1.1,3,3.1v7.7H920.1z
		"/>
	<path d="M930.6,823.2c0-1.4-0.8-1.8-2.9-2c-2.9-0.2-3.7-1.2-3.7-2.8v-0.1c0-1.8,1.5-3,3.9-3c2.9,0,4,1.5,4,3.6v0.1h-1.4
		c0-1.5-0.6-2.5-2.6-2.5c-1.6,0-2.5,0.7-2.5,1.8c0,1.1,0.5,1.7,2.8,1.9c2.7,0.2,3.8,1,3.8,2.9v0.1c0,1.8-1.5,3.1-4.1,3.1
		c-3,0-4.1-1.8-4.1-3.4v-0.1h1.4c0,1.2,0.6,2.3,2.7,2.3C929.6,825.1,930.6,824.4,930.6,823.2z"/>
	<path d="M943.7,816.7l-2.4,0h-3.3v-1.3h7.4v1l-5.8,8.4l2.4,0h3.7v1.3h-7.8v-1L943.7,816.7z"/>
	<path d="M949,815.5v7.2c0,1.6,0.9,2.3,2.3,2.3c1.7,0,2.5-0.9,2.9-1.6v-7.9h1.4v7.6l0.1,3h-1.2l-0.2-1.5c-0.6,0.9-1.7,1.7-3.5,1.7
		c-2.1,0-3.2-1.4-3.2-3.4v-7.4H949z"/>
	<path d="M963.7,816.7c0.6-0.8,1.5-1.4,3-1.4c2.9,0,4.1,2.3,4.1,5.3v0.5c0,2.9-1.2,5.3-4.1,5.3c-1.6,0-2.6-0.7-3.2-1.7l-0.2,1.4
		h-1.2l0.1-3v-13h1.4V816.7z M963.7,823.4c0.4,0.7,1.2,1.6,2.7,1.6c2,0,2.9-1.6,2.9-4v-0.5c0-2.5-0.9-4-2.9-4
		c-1.4,0-2.3,0.9-2.7,1.6V823.4z"/>
	<path d="M974.1,821.4c0.1,2.3,1,3.8,3.2,3.8s3-1.3,3-2.4h1.3v0.1c0,1.6-1.4,3.5-4.3,3.5c-3.2,0-4.6-2.4-4.6-5.3v-0.4
		c0-2.9,1.4-5.3,4.5-5.3c3.1,0,4.4,2.4,4.4,5.3v0.8H974.1z M974.1,820.2h6.1c-0.1-2.3-1-3.8-3-3.8
		C975.1,816.4,974.2,817.9,974.1,820.2z"/>
	<path d="M990.6,824.1c-0.6,0.8-1.5,1.4-3,1.4c-2.9,0-4.1-2.2-4.1-4.9v-0.4c0-2.7,1.2-4.9,4.1-4.9c1.6,0,2.6,0.7,3.2,1.6l0.2-1.4
		h1.2l-0.1,3v7.7c0,2.4-1.1,4.1-4.2,4.1c-3.1,0-4.1-1.8-4.1-4v-0.3h1.3c0,2,0.8,3,2.7,3c2,0,2.8-1,2.8-3V824.1z M987.9,816.5
		c-2,0-2.9,1.5-2.9,3.7v0.4c0,2.2,1,3.7,2.9,3.7c1.5,0,2.3-0.9,2.7-1.6v-4.5C990.2,817.5,989.4,816.5,987.9,816.5z"/>
	<path d="M994.8,810.1h1.4v16h-1.4V810.1z"/>
	<path d="M1000,821.4c0.1,2.3,1,3.8,3.2,3.8s3-1.3,3-2.4h1.3v0.1c0,1.6-1.4,3.5-4.3,3.5c-3.2,0-4.6-2.4-4.6-5.3v-0.4
		c0-2.9,1.4-5.3,4.5-5.3c3.1,0,4.4,2.4,4.4,5.3v0.8H1000z M1000,820.2h6.1c-0.1-2.3-1-3.8-3-3.8
		C1001.1,816.4,1000.1,817.9,1000,820.2z"/>
	<path d="M1011.6,813h-1.8v-1.8h1.8V813z M1010,815.5h1.4v10.6h-1.4V815.5z"/>
	<path d="M1019.9,815.5v1.3h-3.4v6.2c0,1.7,0.7,2.1,2,2.1c0.4,0,1-0.1,1.1-0.2v1.2c-0.2,0.1-0.6,0.2-1.5,0.2c-1.8,0-3.1-0.9-3.1-3.2
		v-6.4h-1.7v-1.3h1.7v-3h1.4v3H1019.9z"/>
	<path d="M1023.2,821.4c0.1,2.3,1,3.8,3.2,3.8c2.1,0,3-1.3,3-2.4h1.3v0.1c0,1.6-1.4,3.5-4.3,3.5c-3.2,0-4.6-2.4-4.6-5.3v-0.4
		c0-2.9,1.4-5.3,4.5-5.3s4.4,2.4,4.4,5.3v0.8H1023.2z M1023.2,820.2h6.1c-0.1-2.3-1-3.8-3-3.8
		C1024.3,816.4,1023.3,817.9,1023.2,820.2z"/>
	<path d="M1039.7,826.1v-7.2c0-1.6-0.9-2.3-2.3-2.3c-1.7,0-2.5,0.9-2.9,1.6v7.9h-1.4v-7.6l-0.1-3h1.2l0.2,1.5
		c0.6-0.9,1.7-1.7,3.6-1.7c2.1,0,3.2,1.4,3.2,3.4v7.4H1039.7z"/>
	<path d="M1045.3,826.1h-1.8v-1.8h1.8V826.1z"/>
	<path d="M1051.7,814.6v-0.2c0-2.6,1.9-4.2,4.9-4.2c3.5,0,4.9,1.8,4.9,5v0.5h-1.4c0-3-1-4.2-3.4-4.2h-0.1c-1.9,0-3.3,1-3.3,2.7v0.2
		c0,1.7,0.9,2.6,3.7,3c3.4,0.5,4.8,1.8,4.8,4.2v0.2c0,2.8-2,4.4-5.1,4.4c-3.3,0-5.1-1.9-5.1-5.1V821h1.4c0,2.7,1.5,4,3.6,4h0.1
		c2.1,0,3.5-1.1,3.5-3v-0.2c0-1.8-1.1-2.8-3.9-3.1C1052.9,818.2,1051.7,816.7,1051.7,814.6z"/>
	<path d="M1065.7,813h-1.8v-1.8h1.8V813z M1064.1,815.5h1.4v10.6h-1.4V815.5z"/>
	<path d="M1069.3,821.4c0.1,2.3,1,3.8,3.2,3.8c2.1,0,3-1.3,3-2.4h1.3v0.1c0,1.6-1.4,3.5-4.3,3.5c-3.2,0-4.6-2.4-4.6-5.3v-0.4
		c0-2.9,1.4-5.3,4.5-5.3s4.4,2.4,4.4,5.3v0.8H1069.3z M1069.3,820.2h6.1c-0.1-2.3-1-3.8-3-3.8
		C1070.4,816.4,1069.4,817.9,1069.3,820.2z"/>
	<path d="M1084.9,813h-1.8v-1.8h1.8V813z M1083.3,815.5h1.4v10.6h-1.4V815.5z"/>
	<path d="M1094,823.2c0-1.4-0.8-1.8-2.9-2c-2.9-0.2-3.7-1.2-3.7-2.8v-0.1c0-1.8,1.5-3,3.9-3c2.9,0,4,1.5,4,3.6v0.1h-1.4
		c0-1.5-0.6-2.5-2.6-2.5c-1.6,0-2.5,0.7-2.5,1.8c0,1.1,0.5,1.7,2.8,1.9c2.7,0.2,3.8,1,3.8,2.9v0.1c0,1.8-1.5,3.1-4.1,3.1
		c-3,0-4.1-1.8-4.1-3.4v-0.1h1.4c0,1.2,0.6,2.3,2.7,2.3C1093.1,825.1,1094,824.4,1094,823.2z"/>
	<path d="M1103.4,815.5v1.3h-3.4v6.2c0,1.7,0.7,2.1,2,2.1c0.4,0,1-0.1,1.1-0.2v1.2c-0.2,0.1-0.6,0.2-1.5,0.2c-1.8,0-3.1-0.9-3.1-3.2
		v-6.4h-1.7v-1.3h1.7v-3h1.4v3H1103.4z"/>
	<path d="M1113.8,826.1h-1.4v-14.3h-4v-1.3h9.4v1.3h-4V826.1z"/>
	<path d="M1118.5,821.4c0.1,2.3,1,3.8,3.2,3.8c2.1,0,3-1.3,3-2.4h1.3v0.1c0,1.6-1.4,3.5-4.3,3.5c-3.2,0-4.6-2.4-4.6-5.3v-0.4
		c0-2.9,1.4-5.3,4.5-5.3c3.1,0,4.4,2.4,4.4,5.3v0.8H1118.5z M1118.5,820.2h6.1c-0.1-2.3-1-3.8-3-3.8
		C1119.6,816.4,1118.6,817.9,1118.5,820.2z"/>
	<path d="M1130.1,813h-1.8v-1.8h1.8V813z M1128.5,815.5h1.4v10.6h-1.4V815.5z"/>
	<path d="M1132.8,810.1h1.4v16h-1.4V810.1z"/>
	<path d="M1142,821.4c0.1,2.3,1,3.8,3.2,3.8c2.1,0,3-1.3,3-2.4h1.3v0.1c0,1.6-1.4,3.5-4.3,3.5c-3.2,0-4.6-2.4-4.6-5.3v-0.4
		c0-2.9,1.4-5.3,4.5-5.3c3.1,0,4.4,2.4,4.4,5.3v0.8H1142z M1142,820.2h6.1c-0.1-2.3-1-3.8-3-3.8
		C1143.1,816.4,1142.1,817.9,1142,820.2z"/>
	<path d="M1153.6,813h-1.8v-1.8h1.8V813z M1152,815.5h1.4v10.6h-1.4V815.5z"/>
	<path d="M1162.8,826.1v-7.2c0-1.6-0.9-2.3-2.3-2.3c-1.7,0-2.5,0.9-2.9,1.6v7.9h-1.4v-7.6l-0.1-3h1.2l0.2,1.5
		c0.6-0.9,1.7-1.7,3.6-1.7c2.1,0,3.2,1.4,3.2,3.4v7.4H1162.8z"/>
	<path d="M1167.8,821.4c0.1,2.3,1,3.8,3.2,3.8c2.1,0,3-1.3,3-2.4h1.3v0.1c0,1.6-1.4,3.5-4.3,3.5c-3.2,0-4.6-2.4-4.6-5.3v-0.4
		c0-2.9,1.4-5.3,4.5-5.3s4.4,2.4,4.4,5.3v0.8H1167.8z M1167.8,820.2h6.1c-0.1-2.3-1-3.8-3-3.8
		C1168.8,816.4,1167.9,817.9,1167.8,820.2z"/>
	<path d="M1184.1,823.2c0-1.4-0.8-1.8-2.9-2c-2.9-0.2-3.7-1.2-3.7-2.8v-0.1c0-1.8,1.5-3,3.9-3c2.9,0,4,1.5,4,3.6v0.1h-1.4
		c0-1.5-0.6-2.5-2.6-2.5c-1.6,0-2.5,0.7-2.5,1.8c0,1.1,0.5,1.7,2.8,1.9c2.7,0.2,3.8,1,3.8,2.9v0.1c0,1.8-1.5,3.1-4.1,3.1
		c-3,0-4.1-1.8-4.1-3.4v-0.1h1.4c0,1.2,0.6,2.3,2.7,2.3C1183.2,825.1,1184.1,824.4,1184.1,823.2z"/>
	<path d="M1194.4,815.5h3v1.3h-3v9.3h-1.4v-9.3h-1.7v-1.3h1.7V813c0-2.3,1.3-3.2,3.1-3.2c0.8,0,1.3,0.2,1.5,0.2v1.2
		c-0.2-0.1-0.7-0.2-1.1-0.2c-1.3,0-2,0.4-2,2.1V815.5z"/>
	<path d="M1199.8,810.1h1.4v16h-1.4V810.1z"/>
	<path d="M1205,821.4c0.1,2.3,1,3.8,3.2,3.8c2.1,0,3-1.3,3-2.4h1.3v0.1c0,1.6-1.4,3.5-4.3,3.5c-3.2,0-4.6-2.4-4.6-5.3v-0.4
		c0-2.9,1.4-5.3,4.5-5.3s4.4,2.4,4.4,5.3v0.8H1205z M1205,820.2h6.1c-0.1-2.3-1-3.8-3-3.8C1206.1,816.4,1205.1,817.9,1205,820.2z"/>
	<path d="M1215.6,815.5l2.7,4.3l2.7-4.3h1.7l-3.3,5.2l3.3,5.4h-1.7l-2.7-4.5l-2.7,4.5h-1.7l3.3-5.4l-3.3-5.2H1215.6z"/>
	<path d="M1226.3,813h-1.8v-1.8h1.8V813z M1224.7,815.5h1.4v10.6h-1.4V815.5z"/>
	<path d="M1230.3,816.7c0.6-0.8,1.5-1.4,3-1.4c2.9,0,4.1,2.3,4.1,5.3v0.5c0,2.9-1.2,5.3-4.1,5.3c-1.6,0-2.6-0.7-3.2-1.7l-0.2,1.4
		h-1.2l0.1-3v-13h1.4V816.7z M1230.3,823.4c0.4,0.7,1.2,1.6,2.7,1.6c2,0,2.9-1.6,2.9-4v-0.5c0-2.5-0.9-4-2.9-4
		c-1.4,0-2.3,0.9-2.7,1.6V823.4z"/>
	<path d="M1239.7,810.1h1.4v16h-1.4V810.1z"/>
	<path d="M1245,821.4c0.1,2.3,1,3.8,3.2,3.8c2.1,0,3-1.3,3-2.4h1.3v0.1c0,1.6-1.4,3.5-4.3,3.5c-3.2,0-4.6-2.4-4.6-5.3v-0.4
		c0-2.9,1.4-5.3,4.5-5.3s4.4,2.4,4.4,5.3v0.8H1245z M1245,820.2h6.1c-0.1-2.3-1-3.8-3-3.8C1246,816.4,1245.1,817.9,1245,820.2z"/>
	<path d="M1261.4,826.1v-7.2c0-1.6-0.9-2.3-2.3-2.3c-1.7,0-2.5,0.9-2.9,1.6v7.9h-1.4v-7.6l-0.1-3h1.2l0.2,1.5
		c0.6-0.9,1.7-1.7,3.6-1.7c2.1,0,3.2,1.4,3.2,3.4v7.4H1261.4z"/>
	<path d="M853.5,838.5c2.6,0,4.7,1.1,4.7,3.9v0.4c0,1.8-1,2.7-2.3,3.2c1.6,0.5,2.7,1.5,2.7,3.5v0.4c0,3-2.2,4.1-4.8,4.1h-4.3v-15.6
		H853.5z M851,839.8v5.6h2.6c1.7,0,3.2-0.7,3.2-2.7v-0.3c0-1.9-1.5-2.7-3.2-2.7H851z M851,846.7v6.1h2.9c1.8,0,3.2-0.8,3.2-2.9v-0.3
		c0-2-1.5-2.9-3.2-2.9H851z"/>
	<path d="M865.6,843.3v1.3h-0.3c-1.6,0-2.4,0.9-2.8,1.6v7.9h-1.4v-7.6l-0.1-3h1.2l0.2,1.4c0.6-0.9,1.5-1.6,3-1.6
		C865.5,843.3,865.6,843.3,865.6,843.3z"/>
	<path d="M873.7,852.6c-0.7,0.9-1.9,1.7-3.7,1.7c-1.9,0-3.1-1.2-3.1-2.9v-0.2c0-2.3,1.7-3,3.5-3.2l3.2-0.5v-0.3
		c0-1.8-0.6-2.8-2.5-2.8c-2,0-2.5,1.2-2.5,2.5h-1.3v-0.2c0-1.6,0.7-3.5,3.8-3.5c2.9,0,3.8,1.6,3.8,3.9v3.9l0.1,3h-1.2L873.7,852.6z
		 M873.6,851.4v-2.9l-3.1,0.5c-1.4,0.2-2.2,0.9-2.2,2.1v0.2c0,0.9,0.6,1.8,2,1.8C872.3,853.1,873.2,852,873.6,851.4z"/>
	<path d="M884.2,854.1v-7.2c0-1.6-0.9-2.3-2.3-2.3c-1.7,0-2.5,0.9-2.9,1.6v7.9h-1.4v-7.6l-0.1-3h1.2l0.2,1.5
		c0.6-0.9,1.7-1.7,3.6-1.7c2.1,0,3.2,1.4,3.2,3.4v7.4H884.2z"/>
	<path d="M894.9,844.7v-6.6h1.4v13l0.1,3h-1.2l-0.2-1.4c-0.5,0.9-1.5,1.6-3.1,1.6c-2.9,0-4.1-2.3-4.1-5.3v-0.5
		c0-2.9,1.2-5.3,4.1-5.3C893.4,843.3,894.3,843.9,894.9,844.7z M894.9,851.4v-5.2c-0.4-0.7-1.3-1.6-2.7-1.6c-2,0-2.9,1.6-2.9,4v0.5
		c0,2.5,0.9,4,2.9,4C893.6,853,894.4,852.1,894.9,851.4z"/>
	<path d="M900.7,841h-1.8v-1.8h1.8V841z M899.1,843.5h1.4v10.6h-1.4V843.5z"/>
	<path d="M909.9,854.1v-7.2c0-1.6-0.9-2.3-2.3-2.3c-1.7,0-2.5,0.9-2.9,1.6v7.9h-1.4v-7.6l-0.1-3h1.2l0.2,1.5
		c0.6-0.9,1.7-1.7,3.6-1.7c2.1,0,3.2,1.4,3.2,3.4v7.4H909.9z"/>
	<path d="M920.5,852.1c-0.6,0.8-1.5,1.4-3,1.4c-2.9,0-4.1-2.2-4.1-4.9v-0.4c0-2.7,1.2-4.9,4.1-4.9c1.6,0,2.6,0.7,3.2,1.6l0.2-1.4
		h1.2l-0.1,3v7.7c0,2.4-1.1,4.1-4.2,4.1c-3.1,0-4.1-1.8-4.1-4v-0.3h1.3c0,2,0.8,3,2.7,3c2,0,2.8-1,2.8-3V852.1z M917.8,844.5
		c-2,0-2.9,1.5-2.9,3.7v0.4c0,2.2,1,3.7,2.9,3.7c1.5,0,2.3-0.9,2.7-1.6v-4.5C920.1,845.5,919.3,844.5,917.8,844.5z"/>
	<path d="M924,846.4h5v1.3h-5V846.4z"/>
	<path d="M930.9,842.6v-0.2c0-2.6,1.9-4.2,4.9-4.2c3.5,0,4.9,1.8,4.9,5v0.5h-1.4c0-3-1-4.2-3.4-4.2h-0.1c-1.9,0-3.3,1-3.3,2.7v0.2
		c0,1.7,0.9,2.6,3.7,3c3.4,0.5,4.8,1.8,4.8,4.2v0.2c0,2.8-2,4.4-5.1,4.4c-3.3,0-5.1-1.9-5.1-5.1V849h1.4c0,2.7,1.5,4,3.6,4h0.1
		c2.1,0,3.5-1.1,3.5-3v-0.2c0-1.8-1.1-2.8-3.9-3.1C932.2,846.2,930.9,844.7,930.9,842.6z"/>
	<path d="M949.8,843.5h1.5l-3.8,10.2l-1.5,4.4h-1.6l1.7-4.4l-3.8-10.2h1.5l3,8.7L949.8,843.5z"/>
	<path d="M958.9,851.2c0-1.4-0.8-1.8-2.9-2c-2.9-0.2-3.7-1.2-3.7-2.8v-0.1c0-1.8,1.5-3,3.9-3c2.9,0,4,1.5,4,3.6v0.1h-1.4
		c0-1.5-0.6-2.5-2.6-2.5c-1.6,0-2.5,0.7-2.5,1.8c0,1.1,0.5,1.7,2.8,1.9c2.7,0.2,3.8,1,3.8,2.9v0.1c0,1.8-1.5,3.1-4.1,3.1
		c-3,0-4.1-1.8-4.1-3.4v-0.1h1.4c0,1.2,0.6,2.3,2.7,2.3C958,853.1,958.9,852.4,958.9,851.2z"/>
	<path d="M968.3,843.5v1.3H965v6.2c0,1.7,0.7,2.1,2,2.1c0.4,0,1-0.1,1.1-0.2v1.2c-0.2,0.1-0.6,0.2-1.5,0.2c-1.8,0-3.1-0.9-3.1-3.2
		v-6.4h-1.7v-1.3h1.7v-3h1.4v3H968.3z"/>
	<path d="M971.7,849.4c0.1,2.3,1,3.8,3.2,3.8c2.1,0,3-1.3,3-2.4h1.3v0.1c0,1.6-1.4,3.5-4.3,3.5c-3.2,0-4.6-2.4-4.6-5.3v-0.4
		c0-2.9,1.4-5.3,4.5-5.3c3.1,0,4.4,2.4,4.4,5.3v0.8H971.7z M971.7,848.2h6.1c-0.1-2.3-1-3.8-3-3.8
		C972.7,844.4,971.7,845.9,971.7,848.2z"/>
	<path d="M993.6,854.1v-7.5c0-1.6-0.8-2.1-2-2.1c-1.5,0-2.2,0.9-2.6,1.6v8h-1.4v-7.5c0-1.6-0.8-2.1-2-2.1c-1.5,0-2.2,0.9-2.6,1.6v8
		h-1.4v-7.6l-0.1-3h1.2l0.2,1.4c0.6-0.9,1.6-1.7,3.3-1.7c1.4,0,2.3,0.6,2.7,1.8c0.6-1,1.6-1.8,3.3-1.8c1.9,0,3,1.1,3,3.1v7.7H993.6z
		"/>
	<path d="M1004.1,851.2c0-1.4-0.8-1.8-2.9-2c-2.9-0.2-3.7-1.2-3.7-2.8v-0.1c0-1.8,1.5-3,3.9-3c2.9,0,4,1.5,4,3.6v0.1h-1.4
		c0-1.5-0.6-2.5-2.6-2.5c-1.6,0-2.5,0.7-2.5,1.8c0,1.1,0.5,1.7,2.8,1.9c2.7,0.2,3.8,1,3.8,2.9v0.1c0,1.8-1.5,3.1-4.1,3.1
		c-3,0-4.1-1.8-4.1-3.4v-0.1h1.4c0,1.2,0.6,2.3,2.7,2.3C1003.2,853.1,1004.1,852.4,1004.1,851.2z"/>
	<path d="M1009.7,853.7c0,1.8-0.8,2.7-2.3,2.7v-0.8c0.8,0,1.3-0.4,1.4-1.5h-0.9v-1.8h1.8V853.7z"/>
	<path d="M1015.2,843.5h1.5l3.1,9.3l3.1-9.3h1.5l-3.7,10.6h-1.8L1015.2,843.5z"/>
	<path d="M1025.7,849v-0.5c0-2.9,1.3-5.3,4.5-5.3c3.1,0,4.5,2.3,4.5,5.3v0.5c0,2.9-1.3,5.3-4.5,5.3
		C1027.1,854.3,1025.7,852,1025.7,849z M1033.2,849v-0.5c0-2.4-0.9-4-3-4s-3,1.6-3,4v0.5c0,2.4,0.9,4,3,4S1033.2,851.4,1033.2,849z"
		/>
	<path d="M1043.6,854.1v-7.2c0-1.6-0.9-2.3-2.3-2.3c-1.7,0-2.5,0.9-2.9,1.6v7.9h-1.4v-7.6l-0.1-3h1.2l0.2,1.5
		c0.6-0.9,1.7-1.7,3.6-1.7c2.1,0,3.2,1.4,3.2,3.4v7.4H1043.6z"/>
	<path d="M1053.1,854.1h-1.4v-15.6h4.3c2.2,0,4.8,0.8,4.8,4.4v0.4c0,3.6-2.6,4.4-4.8,4.4h-2.9V854.1z M1056,846.4
		c1.3,0,3.3-0.5,3.3-3.2V843c0-2.7-1.9-3.2-3.3-3.2h-2.9v6.7H1056z"/>
	<path d="M1063.4,849.4c0.1,2.3,1,3.8,3.2,3.8c2.1,0,3-1.3,3-2.4h1.3v0.1c0,1.6-1.4,3.5-4.3,3.5c-3.2,0-4.6-2.4-4.6-5.3v-0.4
		c0-2.9,1.4-5.3,4.5-5.3c3.1,0,4.4,2.4,4.4,5.3v0.8H1063.4z M1063.4,848.2h6.1c-0.1-2.3-1-3.8-3-3.8
		C1064.5,844.4,1063.5,845.9,1063.4,848.2z"/>
	<path d="M1079.9,854.1v-7.2c0-1.6-0.9-2.3-2.3-2.3c-1.7,0-2.5,0.9-2.9,1.6v7.9h-1.4v-7.6l-0.1-3h1.2l0.2,1.5
		c0.6-0.9,1.7-1.7,3.6-1.7c2.1,0,3.2,1.4,3.2,3.4v7.4H1079.9z"/>
	<path d="M1089.3,843.5v1.3h-3.4v6.2c0,1.7,0.7,2.1,2,2.1c0.4,0,1-0.1,1.1-0.2v1.2c-0.2,0.1-0.6,0.2-1.5,0.2c-1.8,0-3.1-0.9-3.1-3.2
		v-6.4h-1.7v-1.3h1.7v-3h1.4v3H1089.3z"/>
	<path d="M1098,852.6c-0.7,0.9-1.9,1.7-3.7,1.7c-1.9,0-3.1-1.2-3.1-2.9v-0.2c0-2.3,1.7-3,3.5-3.2l3.2-0.5v-0.3
		c0-1.8-0.6-2.8-2.5-2.8c-2,0-2.5,1.2-2.5,2.5h-1.3v-0.2c0-1.6,0.7-3.5,3.8-3.5c2.9,0,3.8,1.6,3.8,3.9v3.9l0.1,3h-1.2L1098,852.6z
		 M1097.8,851.4v-2.9l-3.1,0.5c-1.4,0.2-2.2,0.9-2.2,2.1v0.2c0,0.9,0.6,1.8,2,1.8C1096.5,853.1,1097.4,852,1097.8,851.4z"/>
	<path d="M1108.5,852.1c-0.6,0.8-1.5,1.4-3,1.4c-2.9,0-4.1-2.2-4.1-4.9v-0.4c0-2.7,1.2-4.9,4.1-4.9c1.6,0,2.6,0.7,3.2,1.6l0.2-1.4
		h1.2l-0.1,3v7.7c0,2.4-1.1,4.1-4.2,4.1c-3.1,0-4.1-1.8-4.1-4v-0.3h1.3c0,2,0.8,3,2.7,3c2,0,2.8-1,2.8-3V852.1z M1105.8,844.5
		c-2,0-2.9,1.5-2.9,3.7v0.4c0,2.2,1,3.7,2.9,3.7c1.5,0,2.3-0.9,2.7-1.6v-4.5C1108.1,845.5,1107.3,844.5,1105.8,844.5z"/>
	<path d="M1117,843.3v1.3h-0.3c-1.6,0-2.4,0.9-2.8,1.6v7.9h-1.4v-7.6l-0.1-3h1.2l0.2,1.4c0.6-0.9,1.5-1.6,3-1.6
		C1116.9,843.3,1117,843.3,1117,843.3z"/>
	<path d="M1125.1,852.6c-0.7,0.9-1.9,1.7-3.7,1.7c-1.9,0-3.1-1.2-3.1-2.9v-0.2c0-2.3,1.7-3,3.5-3.2l3.2-0.5v-0.3
		c0-1.8-0.6-2.8-2.5-2.8c-2,0-2.5,1.2-2.5,2.5h-1.3v-0.2c0-1.6,0.7-3.5,3.8-3.5c2.9,0,3.8,1.6,3.8,3.9v3.9l0.1,3h-1.2L1125.1,852.6z
		 M1125,851.4v-2.9l-3.1,0.5c-1.4,0.2-2.2,0.9-2.2,2.1v0.2c0,0.9,0.6,1.8,2,1.8C1123.7,853.1,1124.6,852,1125,851.4z"/>
	<path d="M1141.1,854.1v-7.5c0-1.6-0.8-2.1-2-2.1c-1.5,0-2.2,0.9-2.6,1.6v8h-1.4v-7.5c0-1.6-0.8-2.1-2-2.1c-1.5,0-2.2,0.9-2.6,1.6v8
		h-1.4v-7.6l-0.1-3h1.2l0.2,1.4c0.6-0.9,1.6-1.7,3.3-1.7c1.4,0,2.3,0.6,2.7,1.8c0.6-1,1.6-1.8,3.3-1.8c1.9,0,3,1.1,3,3.1v7.7H1141.1
		z"/>
	<path d="M1157.2,854.1v-7.5c0-1.6-0.8-2.1-2-2.1c-1.5,0-2.2,0.9-2.6,1.6v8h-1.4v-7.5c0-1.6-0.8-2.1-2-2.1c-1.5,0-2.2,0.9-2.6,1.6v8
		h-1.4v-7.6l-0.1-3h1.2l0.2,1.4c0.6-0.9,1.6-1.7,3.3-1.7c1.4,0,2.3,0.6,2.7,1.8c0.6-1,1.6-1.8,3.3-1.8c1.9,0,3,1.1,3,3.1v7.7H1157.2
		z"/>
	<path d="M1167.7,851.2c0-1.4-0.8-1.8-2.9-2c-2.9-0.2-3.7-1.2-3.7-2.8v-0.1c0-1.8,1.5-3,3.9-3c2.9,0,4,1.5,4,3.6v0.1h-1.4
		c0-1.5-0.6-2.5-2.6-2.5c-1.6,0-2.5,0.7-2.5,1.8c0,1.1,0.5,1.7,2.8,1.9c2.7,0.2,3.8,1,3.8,2.9v0.1c0,1.8-1.5,3.1-4.1,3.1
		c-3,0-4.1-1.8-4.1-3.4v-0.1h1.4c0,1.2,0.6,2.3,2.7,2.3C1166.8,853.1,1167.7,852.4,1167.7,851.2z"/>
	<path d="M1184.5,838.5v1.3h-7.3v5.7h6.3v1.3h-6.3v6h7.3v1.3h-8.7v-15.6H1184.5z"/>
	<path d="M1193.3,844.7v-6.6h1.4v13l0.1,3h-1.2l-0.2-1.4c-0.5,0.9-1.5,1.6-3.1,1.6c-2.9,0-4.1-2.3-4.1-5.3v-0.5
		c0-2.9,1.2-5.3,4.1-5.3C1191.8,843.3,1192.8,843.9,1193.3,844.7z M1193.3,851.4v-5.2c-0.4-0.7-1.3-1.6-2.7-1.6c-2,0-2.9,1.6-2.9,4
		v0.5c0,2.5,0.9,4,2.9,4C1192.1,853,1192.9,852.1,1193.3,851.4z"/>
	<path d="M1204.1,844.7v-6.6h1.4v13l0.1,3h-1.2l-0.2-1.4c-0.5,0.9-1.5,1.6-3.1,1.6c-2.9,0-4.1-2.3-4.1-5.3v-0.5
		c0-2.9,1.2-5.3,4.1-5.3C1202.6,843.3,1203.6,843.9,1204.1,844.7z M1204.1,851.4v-5.2c-0.4-0.7-1.3-1.6-2.7-1.6c-2,0-2.9,1.6-2.9,4
		v0.5c0,2.5,0.9,4,2.9,4C1202.9,853,1203.7,852.1,1204.1,851.4z"/>
	<path d="M1209.9,841h-1.8v-1.8h1.8V841z M1208.3,843.5h1.4v10.6h-1.4V843.5z"/>
	<path d="M1213.6,849.4c0.1,2.3,1,3.8,3.2,3.8c2.1,0,3-1.3,3-2.4h1.3v0.1c0,1.6-1.4,3.5-4.3,3.5c-3.2,0-4.6-2.4-4.6-5.3v-0.4
		c0-2.9,1.4-5.3,4.5-5.3s4.4,2.4,4.4,5.3v0.8H1213.6z M1213.6,848.2h6.1c-0.1-2.3-1-3.8-3-3.8
		C1214.6,844.4,1213.6,845.9,1213.6,848.2z"/>
	<path d="M1227.2,846.7v-0.8c0-5.4,1.8-7.6,5.3-7.6c3.6,0,5.4,2.2,5.4,7.6v0.8c0,5.4-1.8,7.6-5.4,7.6
		C1229,854.3,1227.2,852.1,1227.2,846.7z M1232.6,853c2.6,0,3.8-1.9,3.8-6.3v-0.8c0-4.4-1.2-6.3-3.8-6.3h-0.1
		c-2.6,0-3.8,1.9-3.8,6.3v0.8c0,4.4,1.2,6.3,3.8,6.3H1232.6z"/>
	<path d="M1241.8,852.9v5.2h-1.4v-11.6l-0.1-3h1.2l0.2,1.4c0.6-0.9,1.5-1.7,3.2-1.7c2.9,0,4.1,2.3,4.1,5.3v0.5
		c0,2.9-1.2,5.3-4.1,5.3C1243.3,854.3,1242.3,853.7,1241.8,852.9z M1241.8,851.4c0.4,0.7,1.2,1.6,2.7,1.6c2,0,2.9-1.6,2.9-4v-0.5
		c0-2.5-0.9-4-2.9-4c-1.4,0-2.3,0.9-2.7,1.6V851.4z"/>
	<path d="M1257.5,852.6c-0.7,0.9-1.9,1.7-3.7,1.7c-1.9,0-3.1-1.2-3.1-2.9v-0.2c0-2.3,1.7-3,3.5-3.2l3.2-0.5v-0.3
		c0-1.8-0.6-2.8-2.5-2.8c-2,0-2.5,1.2-2.5,2.5h-1.3v-0.2c0-1.6,0.7-3.5,3.8-3.5c2.9,0,3.8,1.6,3.8,3.9v3.9l0.1,3h-1.2L1257.5,852.6z
		 M1257.3,851.4v-2.9l-3.1,0.5c-1.4,0.2-2.2,0.9-2.2,2.1v0.2c0,0.9,0.6,1.8,2,1.8C1256.1,853.1,1257,852,1257.3,851.4z"/>
	<path d="M1265.8,843.3v1.3h-0.3c-1.6,0-2.4,0.9-2.8,1.6v7.9h-1.4v-7.6l-0.1-3h1.2l0.2,1.4c0.6-0.9,1.5-1.6,3-1.6
		C1265.7,843.3,1265.8,843.3,1265.8,843.3z"/>
	<path d="M1273.9,852.6c-0.7,0.9-1.9,1.7-3.7,1.7c-1.9,0-3.1-1.2-3.1-2.9v-0.2c0-2.3,1.7-3,3.5-3.2l3.2-0.5v-0.3
		c0-1.8-0.6-2.8-2.5-2.8c-2,0-2.5,1.2-2.5,2.5h-1.3v-0.2c0-1.6,0.7-3.5,3.8-3.5c2.9,0,3.8,1.6,3.8,3.9v3.9l0.1,3h-1.2L1273.9,852.6z
		 M1273.8,851.4v-2.9l-3.1,0.5c-1.4,0.2-2.2,0.9-2.2,2.1v0.2c0,0.9,0.6,1.8,2,1.8C1272.5,853.1,1273.4,852,1273.8,851.4z"/>
	<path d="M1279.5,853.7c0,1.8-0.8,2.7-2.3,2.7v-0.8c0.8,0,1.3-0.4,1.4-1.5h-0.9v-1.8h1.8V853.7z"/>
	<path d="M856.2,872.7v-6.6h1.4v13l0.1,3h-1.2l-0.2-1.4c-0.5,0.9-1.5,1.6-3.1,1.6c-2.9,0-4.1-2.3-4.1-5.3v-0.5
		c0-2.9,1.2-5.3,4.1-5.3C854.7,871.3,855.6,871.9,856.2,872.7z M856.2,879.4v-5.2c-0.4-0.7-1.3-1.6-2.7-1.6c-2,0-2.9,1.6-2.9,4v0.5
		c0,2.5,0.9,4,2.9,4C854.9,881,855.7,880.1,856.2,879.4z"/>
	<path d="M861.3,877.4c0.1,2.3,1,3.8,3.2,3.8c2.1,0,3-1.3,3-2.4h1.3v0.1c0,1.6-1.4,3.5-4.3,3.5c-3.2,0-4.6-2.4-4.6-5.3v-0.4
		c0-2.9,1.4-5.3,4.5-5.3c3.1,0,4.4,2.4,4.4,5.3v0.8H861.3z M861.3,876.2h6.1c-0.1-2.3-1-3.8-3-3.8
		C862.3,872.4,861.4,873.9,861.3,876.2z"/>
	<path d="M875.6,871.3v1.3h-0.3c-1.6,0-2.4,0.9-2.8,1.6v7.9h-1.4v-7.6l-0.1-3h1.2l0.2,1.4c0.6-0.9,1.5-1.6,3-1.6
		C875.4,871.3,875.6,871.3,875.6,871.3z"/>
	<path d="M888.3,872.7v-6.6h1.4v13l0.1,3h-1.2l-0.2-1.4c-0.5,0.9-1.5,1.6-3.1,1.6c-2.9,0-4.1-2.3-4.1-5.3v-0.5
		c0-2.9,1.2-5.3,4.1-5.3C886.8,871.3,887.7,871.9,888.3,872.7z M888.3,879.4v-5.2c-0.4-0.7-1.3-1.6-2.7-1.6c-2,0-2.9,1.6-2.9,4v0.5
		c0,2.5,0.9,4,2.9,4C887.1,881,887.9,880.1,888.3,879.4z"/>
	<path d="M898.7,880.6c-0.7,0.9-1.9,1.7-3.7,1.7c-1.9,0-3.1-1.2-3.1-2.9v-0.2c0-2.3,1.7-3,3.5-3.2l3.2-0.5v-0.3
		c0-1.8-0.6-2.8-2.5-2.8c-2,0-2.5,1.2-2.5,2.5h-1.3v-0.2c0-1.6,0.7-3.5,3.8-3.5c2.9,0,3.8,1.6,3.8,3.9v3.9l0.1,3H899L898.7,880.6z
		 M898.6,879.4v-2.9l-3.1,0.5c-1.4,0.2-2.2,0.9-2.2,2.1v0.2c0,0.9,0.6,1.8,2,1.8C897.3,881.1,898.2,880,898.6,879.4z"/>
	<path d="M909.1,879.2c0-1.4-0.8-1.8-2.9-2c-2.9-0.2-3.7-1.2-3.7-2.8v-0.1c0-1.8,1.5-3,3.9-3c2.9,0,4,1.5,4,3.6v0.1h-1.4
		c0-1.5-0.6-2.5-2.6-2.5c-1.6,0-2.5,0.7-2.5,1.8c0,1.1,0.5,1.7,2.8,1.9c2.7,0.2,3.8,1,3.8,2.9v0.1c0,1.8-1.5,3.1-4.1,3.1
		c-3,0-4.1-1.8-4.1-3.4v-0.1h1.4c0,1.2,0.6,2.3,2.7,2.3C908.2,881.1,909.1,880.4,909.1,879.2z"/>
	<path d="M921.2,866.5c2.6,0,4.7,1.1,4.7,3.9v0.4c0,1.8-1,2.7-2.3,3.2c1.6,0.5,2.7,1.5,2.7,3.5v0.4c0,3-2.2,4.1-4.8,4.1h-4.3v-15.6
		H921.2z M918.6,867.8v5.6h2.6c1.7,0,3.2-0.7,3.2-2.7v-0.3c0-1.9-1.5-2.7-3.2-2.7H918.6z M918.6,874.7v6.1h2.9
		c1.8,0,3.2-0.8,3.2-2.9v-0.3c0-2-1.5-2.9-3.2-2.9H918.6z"/>
	<path d="M933.3,871.3v1.3H933c-1.6,0-2.4,0.9-2.8,1.6v7.9h-1.4v-7.6l-0.1-3h1.2l0.2,1.4c0.6-0.9,1.5-1.6,3-1.6
		C933.1,871.3,933.2,871.3,933.3,871.3z"/>
	<path d="M941.3,880.6c-0.7,0.9-1.9,1.7-3.7,1.7c-1.9,0-3.1-1.2-3.1-2.9v-0.2c0-2.3,1.7-3,3.5-3.2l3.2-0.5v-0.3
		c0-1.8-0.6-2.8-2.5-2.8c-2,0-2.5,1.2-2.5,2.5h-1.3v-0.2c0-1.6,0.7-3.5,3.8-3.5c2.9,0,3.8,1.6,3.8,3.9v3.9l0.1,3h-1.2L941.3,880.6z
		 M941.2,879.4v-2.9l-3.1,0.5c-1.4,0.2-2.2,0.9-2.2,2.1v0.2c0,0.9,0.6,1.8,2,1.8C939.9,881.1,940.8,880,941.2,879.4z"/>
	<path d="M951.8,882.1v-7.2c0-1.6-0.9-2.3-2.3-2.3c-1.7,0-2.5,0.9-2.9,1.6v7.9h-1.4v-7.6l-0.1-3h1.2l0.2,1.5
		c0.6-0.9,1.7-1.7,3.6-1.7c2.1,0,3.2,1.4,3.2,3.4v7.4H951.8z"/>
	<path d="M962.5,872.7v-6.6h1.4v13l0.1,3h-1.2l-0.2-1.4c-0.5,0.9-1.5,1.6-3.1,1.6c-2.9,0-4.1-2.3-4.1-5.3v-0.5
		c0-2.9,1.2-5.3,4.1-5.3C961,871.3,961.9,871.9,962.5,872.7z M962.5,879.4v-5.2c-0.4-0.7-1.3-1.6-2.7-1.6c-2,0-2.9,1.6-2.9,4v0.5
		c0,2.5,0.9,4,2.9,4C961.2,881,962.1,880.1,962.5,879.4z"/>
	<path d="M968.3,869h-1.8v-1.8h1.8V869z M966.7,871.5h1.4v10.6h-1.4V871.5z"/>
	<path d="M977.5,882.1v-7.2c0-1.6-0.9-2.3-2.3-2.3c-1.7,0-2.5,0.9-2.9,1.6v7.9h-1.4v-7.6l-0.1-3h1.2l0.2,1.5
		c0.6-0.9,1.7-1.7,3.6-1.7c2.1,0,3.2,1.4,3.2,3.4v7.4H977.5z"/>
	<path d="M988.1,880.1c-0.6,0.8-1.5,1.4-3,1.4c-2.9,0-4.1-2.2-4.1-4.9v-0.4c0-2.7,1.2-4.9,4.1-4.9c1.6,0,2.6,0.7,3.2,1.6l0.2-1.4
		h1.2l-0.1,3v7.7c0,2.4-1.1,4.1-4.2,4.1c-3.1,0-4.1-1.8-4.1-4v-0.3h1.3c0,2,0.8,3,2.7,3c2,0,2.8-1,2.8-3V880.1z M985.4,872.5
		c-2,0-2.9,1.5-2.9,3.7v0.4c0,2.2,1,3.7,2.9,3.7c1.5,0,2.3-0.9,2.7-1.6v-4.5C987.7,873.5,986.9,872.5,985.4,872.5z"/>
	<path d="M997.2,877.4c0.1,2.3,1,3.8,3.2,3.8c2.1,0,3-1.3,3-2.4h1.3v0.1c0,1.6-1.4,3.5-4.3,3.5c-3.2,0-4.6-2.4-4.6-5.3v-0.4
		c0-2.9,1.4-5.3,4.5-5.3s4.4,2.4,4.4,5.3v0.8H997.2z M997.2,876.2h6.1c-0.1-2.3-1-3.8-3-3.8C998.3,872.4,997.3,873.9,997.2,876.2z"
		/>
	<path d="M1013.7,882.1v-7.2c0-1.6-0.9-2.3-2.3-2.3c-1.7,0-2.5,0.9-2.9,1.6v7.9h-1.4v-7.6l-0.1-3h1.2l0.2,1.5
		c0.6-0.9,1.7-1.7,3.6-1.7c2.1,0,3.2,1.4,3.2,3.4v7.4H1013.7z"/>
	<path d="M1023.1,871.5v1.3h-3.4v6.2c0,1.7,0.7,2.1,2,2.1c0.4,0,1-0.1,1.1-0.2v1.2c-0.2,0.1-0.6,0.2-1.5,0.2c-1.8,0-3.1-0.9-3.1-3.2
		v-6.4h-1.7v-1.3h1.7v-3h1.4v3H1023.1z"/>
	<path d="M1028.8,882.1h-1.8l-2.3-10.6h1.4l1.8,9.1l2.5-9.1h1.7l2.5,9.1l1.8-9.1h1.4l-2.3,10.6h-1.9l-2.4-9L1028.8,882.1z"/>
	<path d="M1041.4,869h-1.8v-1.8h1.8V869z M1039.8,871.5h1.4v10.6h-1.4V871.5z"/>
	<path d="M1048.1,881c2,0,2.7-1.3,2.7-2.6h1.3v0.3c0,1.7-1.1,3.6-4.1,3.6c-3.1,0-4.4-2.3-4.4-5.3v-0.5c0-2.9,1.3-5.3,4.4-5.3
		c2.9,0,4.1,2,4.1,3.7v0.4h-1.3c0-1.6-0.8-2.8-2.7-2.8c-2.1,0-3,1.6-3,4v0.5C1045.1,879.4,1046,881,1048.1,881z"/>
	<path d="M1054.4,866.1h1.4v11l5-5.6h1.7l-3.6,4l3.6,6.6h-1.6l-3-5.5l-2.2,2.4v3.1h-1.4V866.1z"/>
	<path d="M1064.9,877.4c0.1,2.3,1,3.8,3.2,3.8c2.1,0,3-1.3,3-2.4h1.3v0.1c0,1.6-1.4,3.5-4.3,3.5c-3.2,0-4.6-2.4-4.6-5.3v-0.4
		c0-2.9,1.4-5.3,4.5-5.3c3.1,0,4.4,2.4,4.4,5.3v0.8H1064.9z M1064.9,876.2h6.1c-0.1-2.3-1-3.8-3-3.8
		C1066,872.4,1065,873.9,1064.9,876.2z"/>
	<path d="M1074.9,866.1h1.4v16h-1.4V866.1z"/>
	<path d="M1084.8,871.5v1.3h-3.4v6.2c0,1.7,0.7,2.1,2,2.1c0.4,0,1-0.1,1.1-0.2v1.2c-0.2,0.1-0.6,0.2-1.5,0.2c-1.8,0-3.1-0.9-3.1-3.2
		v-6.4h-1.7v-1.3h1.7v-3h1.4v3H1084.8z"/>
	<path d="M1088.1,877.4c0.1,2.3,1,3.8,3.2,3.8s3-1.3,3-2.4h1.3v0.1c0,1.6-1.4,3.5-4.3,3.5c-3.2,0-4.6-2.4-4.6-5.3v-0.4
		c0-2.9,1.4-5.3,4.5-5.3c3.1,0,4.4,2.4,4.4,5.3v0.8H1088.1z M1088.1,876.2h6.1c-0.1-2.3-1-3.8-3-3.8
		C1089.2,872.4,1088.2,873.9,1088.1,876.2z"/>
	<path d="M1103.2,871.5v7.2c0,1.6,0.9,2.3,2.3,2.3c1.7,0,2.5-0.9,2.9-1.6v-7.9h1.4v7.6l0.1,3h-1.2l-0.2-1.5
		c-0.6,0.9-1.7,1.7-3.5,1.7c-2.1,0-3.2-1.4-3.2-3.4v-7.4H1103.2z"/>
	<path d="M1119.1,882.1v-7.2c0-1.6-0.9-2.3-2.3-2.3c-1.7,0-2.5,0.9-2.9,1.6v7.9h-1.4v-7.6l-0.1-3h1.2l0.2,1.5
		c0.6-0.9,1.7-1.7,3.6-1.7c2.1,0,3.2,1.4,3.2,3.4v7.4H1119.1z"/>
	<path d="M1129.8,872.7v-6.6h1.4v13l0.1,3h-1.2l-0.2-1.4c-0.5,0.9-1.5,1.6-3.1,1.6c-2.9,0-4.1-2.3-4.1-5.3v-0.5
		c0-2.9,1.2-5.3,4.1-5.3C1128.3,871.3,1129.2,871.9,1129.8,872.7z M1129.8,879.4v-5.2c-0.4-0.7-1.3-1.6-2.7-1.6c-2,0-2.9,1.6-2.9,4
		v0.5c0,2.5,0.9,4,2.9,4C1128.6,881,1129.4,880.1,1129.8,879.4z"/>
	<path d="M1143,881h0.1c2.3,0,3.3-1.4,3.3-4h1.5v0.2c0,3.3-1.6,5.1-4.9,5.1c-3.6,0-5.3-2.2-5.3-7.6v-0.8c0-5.4,1.7-7.6,5.3-7.6
		c3.3,0,4.9,1.8,4.9,5.3v0.6h-1.5c0-3.2-1-4.6-3.3-4.6h-0.1c-2.6,0-3.8,1.9-3.8,6.3v0.8C1139.2,879.1,1140.3,881,1143,881z"/>
	<path d="M1151.6,872.8c0.6-0.8,1.7-1.5,3.4-1.5c2.1,0,3.2,1.4,3.2,3.4v7.4h-1.4v-7.2c0-1.6-0.9-2.3-2.3-2.3c-1.7,0-2.5,0.9-2.9,1.6
		v7.9h-1.4v-16h1.4V872.8z"/>
	<path d="M1161.9,877.4c0.1,2.3,1,3.8,3.2,3.8c2.1,0,3-1.3,3-2.4h1.3v0.1c0,1.6-1.4,3.5-4.3,3.5c-3.2,0-4.6-2.4-4.6-5.3v-0.4
		c0-2.9,1.4-5.3,4.5-5.3c3.1,0,4.4,2.4,4.4,5.3v0.8H1161.9z M1161.9,876.2h6.1c-0.1-2.3-1-3.8-3-3.8
		C1162.9,872.4,1161.9,873.9,1161.9,876.2z"/>
	<path d="M1178.2,879.2c0-1.4-0.8-1.8-2.9-2c-2.9-0.2-3.7-1.2-3.7-2.8v-0.1c0-1.8,1.5-3,3.9-3c2.9,0,4,1.5,4,3.6v0.1h-1.4
		c0-1.5-0.6-2.5-2.6-2.5c-1.6,0-2.5,0.7-2.5,1.8c0,1.1,0.5,1.7,2.8,1.9c2.7,0.2,3.8,1,3.8,2.9v0.1c0,1.8-1.5,3.1-4.1,3.1
		c-3,0-4.1-1.8-4.1-3.4v-0.1h1.4c0,1.2,0.6,2.3,2.7,2.3C1177.3,881.1,1178.2,880.4,1178.2,879.2z"/>
	<path d="M1187.6,871.5v1.3h-3.4v6.2c0,1.7,0.7,2.1,2,2.1c0.4,0,1-0.1,1.1-0.2v1.2c-0.2,0.1-0.6,0.2-1.5,0.2c-1.8,0-3.1-0.9-3.1-3.2
		v-6.4h-1.7v-1.3h1.7v-3h1.4v3H1187.6z"/>
	<path d="M1190.9,877.4c0.1,2.3,1,3.8,3.2,3.8c2.1,0,3-1.3,3-2.4h1.3v0.1c0,1.6-1.4,3.5-4.3,3.5c-3.2,0-4.6-2.4-4.6-5.3v-0.4
		c0-2.9,1.4-5.3,4.5-5.3s4.4,2.4,4.4,5.3v0.8H1190.9z M1190.9,876.2h6.1c-0.1-2.3-1-3.8-3-3.8C1192,872.4,1191,873.9,1190.9,876.2z"
		/>
	<path d="M1205.2,871.3v1.3h-0.3c-1.6,0-2.4,0.9-2.8,1.6v7.9h-1.4v-7.6l-0.1-3h1.2l0.2,1.4c0.6-0.9,1.5-1.6,3-1.6
		C1205.1,871.3,1205.2,871.3,1205.2,871.3z"/>
	<path d="M1218.2,866.5v10.8c0,3.1-1.1,5-4,5c-3,0-4-1.8-4-5V877h1.4c0,2.8,0.7,4,2.6,4c1.8,0,2.6-1.2,2.6-4v-10.6H1218.2z"/>
	<path d="M1221.9,877.4c0.1,2.3,1,3.8,3.2,3.8c2.1,0,3-1.3,3-2.4h1.3v0.1c0,1.6-1.4,3.5-4.3,3.5c-3.2,0-4.6-2.4-4.6-5.3v-0.4
		c0-2.9,1.4-5.3,4.5-5.3s4.4,2.4,4.4,5.3v0.8H1221.9z M1221.9,876.2h6.1c-0.1-2.3-1-3.8-3-3.8C1223,872.4,1222,873.9,1221.9,876.2z"
		/>
	<path d="M1238.4,882.1v-7.2c0-1.6-0.9-2.3-2.3-2.3c-1.7,0-2.5,0.9-2.9,1.6v7.9h-1.4v-7.6l-0.1-3h1.2l0.2,1.5
		c0.6-0.9,1.7-1.7,3.6-1.7c2.1,0,3.2,1.4,3.2,3.4v7.4H1238.4z"/>
	<path d="M1242.3,866.1h1.4v11l5-5.6h1.7l-3.6,4l3.6,6.6h-1.6l-3-5.5l-2.2,2.4v3.1h-1.4V866.1z"/>
	<path d="M1254.1,869h-1.8v-1.8h1.8V869z M1252.5,871.5h1.4v10.6h-1.4V871.5z"/>
	<path d="M1263.3,882.1v-7.2c0-1.6-0.9-2.3-2.3-2.3c-1.7,0-2.5,0.9-2.9,1.6v7.9h-1.4v-7.6l-0.1-3h1.2l0.2,1.5
		c0.6-0.9,1.7-1.7,3.6-1.7c2.1,0,3.2,1.4,3.2,3.4v7.4H1263.3z"/>
	<path d="M1273.7,879.2c0-1.4-0.8-1.8-2.9-2c-2.9-0.2-3.7-1.2-3.7-2.8v-0.1c0-1.8,1.5-3,3.9-3c2.9,0,4,1.5,4,3.6v0.1h-1.4
		c0-1.5-0.6-2.5-2.6-2.5c-1.6,0-2.5,0.7-2.5,1.8c0,1.1,0.5,1.7,2.8,1.9c2.7,0.2,3.8,1,3.8,2.9v0.1c0,1.8-1.5,3.1-4.1,3.1
		c-3,0-4.1-1.8-4.1-3.4v-0.1h1.4c0,1.2,0.6,2.3,2.7,2.3C1272.8,881.1,1273.7,880.4,1273.7,879.2z"/>
	<path d="M848.6,899.5h1.5l3.1,9.3l3.1-9.3h1.5l-3.7,10.6h-1.8L848.6,899.5z"/>
	<path d="M859.1,905v-0.5c0-2.9,1.3-5.3,4.5-5.3c3.1,0,4.5,2.3,4.5,5.3v0.5c0,2.9-1.3,5.3-4.5,5.3C860.4,910.3,859.1,908,859.1,905z
		 M866.6,905v-0.5c0-2.4-0.9-4-3-4s-3,1.6-3,4v0.5c0,2.4,0.9,4,3,4S866.6,907.4,866.6,905z"/>
	<path d="M876.9,910.1v-7.2c0-1.6-0.9-2.3-2.3-2.3c-1.7,0-2.5,0.9-2.9,1.6v7.9h-1.4v-7.6l-0.1-3h1.2l0.2,1.5
		c0.6-0.9,1.7-1.7,3.6-1.7c2.1,0,3.2,1.4,3.2,3.4v7.4H876.9z"/>
	<path d="M888.3,910.2l-4.5-15.8h1.6l4,14.2l4-14.2h1.6l-4.5,15.8H888.3z"/>
	<path d="M898.5,897h-1.8v-1.8h1.8V897z M896.9,899.5h1.4v10.6h-1.4V899.5z"/>
	<path d="M901.2,894.1h1.4v16h-1.4V894.1z"/>
	<path d="M905.5,894.1h1.4v16h-1.4V894.1z"/>
	<path d="M916.1,908.6c-0.7,0.9-1.9,1.7-3.7,1.7c-1.9,0-3.1-1.2-3.1-2.9v-0.2c0-2.3,1.7-3,3.5-3.2l3.2-0.5v-0.3
		c0-1.8-0.6-2.8-2.5-2.8c-2,0-2.5,1.2-2.5,2.5h-1.3v-0.2c0-1.6,0.7-3.5,3.8-3.5c2.9,0,3.8,1.6,3.8,3.9v3.9l0.1,3h-1.2L916.1,908.6z
		 M915.9,907.4v-2.9l-3.1,0.5c-1.4,0.2-2.2,0.9-2.2,2.1v0.2c0,0.9,0.6,1.8,2,1.8C914.7,909.1,915.6,908,915.9,907.4z"/>
	<path d="M926.7,908.1c-0.6,0.8-1.5,1.4-3,1.4c-2.9,0-4.1-2.2-4.1-4.9v-0.4c0-2.7,1.2-4.9,4.1-4.9c1.6,0,2.6,0.7,3.2,1.6l0.2-1.4
		h1.2l-0.1,3v7.7c0,2.4-1.1,4.1-4.2,4.1c-3.1,0-4.1-1.8-4.1-4v-0.3h1.3c0,2,0.8,3,2.7,3c2,0,2.8-1,2.8-3V908.1z M924,900.5
		c-2,0-2.9,1.5-2.9,3.7v0.4c0,2.2,1,3.7,2.9,3.7c1.5,0,2.3-0.9,2.7-1.6v-4.5C926.2,901.5,925.4,900.5,924,900.5z"/>
	<path d="M931.8,905.4c0.1,2.3,1,3.8,3.2,3.8c2.1,0,3-1.3,3-2.4h1.3v0.1c0,1.6-1.4,3.5-4.3,3.5c-3.2,0-4.6-2.4-4.6-5.3v-0.4
		c0-2.9,1.4-5.3,4.5-5.3c3.1,0,4.4,2.4,4.4,5.3v0.8H931.8z M931.8,904.2h6.1c-0.1-2.3-1-3.8-3-3.8
		C932.8,900.4,931.8,901.9,931.8,904.2z"/>
	<path d="M943.3,909.7c0,1.8-0.8,2.7-2.3,2.7v-0.8c0.8,0,1.3-0.4,1.4-1.5h-0.9v-1.8h1.8V909.7z"/>
	<path d="M956.6,900.7v-6.6h1.4v13l0.1,3H957l-0.2-1.4c-0.5,0.9-1.5,1.6-3.1,1.6c-2.9,0-4.1-2.3-4.1-5.3v-0.5c0-2.9,1.2-5.3,4.1-5.3
		C955.1,899.3,956.1,899.9,956.6,900.7z M956.6,907.4v-5.2c-0.4-0.7-1.3-1.6-2.7-1.6c-2,0-2.9,1.6-2.9,4v0.5c0,2.5,0.9,4,2.9,4
		C955.4,909,956.2,908.1,956.6,907.4z"/>
	<path d="M961.7,905.4c0.1,2.3,1,3.8,3.2,3.8c2.1,0,3-1.3,3-2.4h1.3v0.1c0,1.6-1.4,3.5-4.3,3.5c-3.2,0-4.6-2.4-4.6-5.3v-0.4
		c0-2.9,1.4-5.3,4.5-5.3s4.4,2.4,4.4,5.3v0.8H961.7z M961.7,904.2h6.1c-0.1-2.3-1-3.8-3-3.8C962.8,900.4,961.8,901.9,961.7,904.2z"
		/>
	<path d="M976,899.3v1.3h-0.3c-1.6,0-2.4,0.9-2.8,1.6v7.9h-1.4v-7.6l-0.1-3h1.2l0.2,1.4c0.6-0.9,1.5-1.6,3-1.6
		C975.9,899.3,976,899.3,976,899.3z"/>
	<path d="M988.8,900.7v-6.6h1.4v13l0.1,3h-1.2l-0.2-1.4c-0.5,0.9-1.5,1.6-3.1,1.6c-2.9,0-4.1-2.3-4.1-5.3v-0.5
		c0-2.9,1.2-5.3,4.1-5.3C987.2,899.3,988.2,899.9,988.8,900.7z M988.8,907.4v-5.2c-0.4-0.7-1.3-1.6-2.7-1.6c-2,0-2.9,1.6-2.9,4v0.5
		c0,2.5,0.9,4,2.9,4C987.5,909,988.3,908.1,988.8,907.4z"/>
	<path d="M994.5,897h-1.8v-1.8h1.8V897z M992.9,899.5h1.4v10.6h-1.4V899.5z"/>
	<path d="M998.2,905.4c0.1,2.3,1,3.8,3.2,3.8c2.1,0,3-1.3,3-2.4h1.3v0.1c0,1.6-1.4,3.5-4.3,3.5c-3.2,0-4.6-2.4-4.6-5.3v-0.4
		c0-2.9,1.4-5.3,4.5-5.3c3.1,0,4.4,2.4,4.4,5.3v0.8H998.2z M998.2,904.2h6.1c-0.1-2.3-1-3.8-3-3.8
		C999.2,900.4,998.3,901.9,998.2,904.2z"/>
	<path d="M1011.8,898.6v-0.2c0-2.6,1.9-4.2,4.9-4.2c3.5,0,4.9,1.8,4.9,5v0.5h-1.4c0-3-1-4.2-3.4-4.2h-0.1c-1.9,0-3.3,1-3.3,2.7v0.2
		c0,1.7,0.9,2.6,3.7,3c3.4,0.5,4.8,1.8,4.8,4.2v0.2c0,2.8-2,4.4-5.1,4.4c-3.3,0-5.1-1.9-5.1-5.1V905h1.4c0,2.7,1.5,4,3.6,4h0.1
		c2.1,0,3.5-1.1,3.5-3v-0.2c0-1.8-1.1-2.8-3.9-3.1C1013,902.2,1011.8,900.7,1011.8,898.6z"/>
	<path d="M1028.1,909c2,0,2.7-1.3,2.7-2.6h1.3v0.3c0,1.7-1.1,3.6-4.1,3.6c-3.1,0-4.4-2.3-4.4-5.3v-0.5c0-2.9,1.3-5.3,4.4-5.3
		c2.9,0,4.1,2,4.1,3.7v0.4h-1.3c0-1.6-0.8-2.8-2.7-2.8c-2.1,0-3,1.6-3,4v0.5C1025.1,907.4,1026,909,1028.1,909z"/>
	<path d="M1035.9,900.8c0.6-0.8,1.7-1.5,3.4-1.5c2.1,0,3.2,1.4,3.2,3.4v7.4h-1.4v-7.2c0-1.6-0.9-2.3-2.3-2.3c-1.7,0-2.5,0.9-2.9,1.6
		v7.9h-1.4v-16h1.4V900.8z"/>
	<path d="M1049.5,899.3v1.3h-0.3c-1.6,0-2.4,0.9-2.8,1.6v7.9h-1.4v-7.6l-0.1-3h1.2l0.2,1.4c0.6-0.9,1.5-1.6,3-1.6
		C1049.4,899.3,1049.5,899.3,1049.5,899.3z"/>
	<path d="M1053.4,897h-1.8v-1.8h1.8V897z M1051.8,899.5h1.4v10.6h-1.4V899.5z"/>
	<path d="M1058.4,899.5h3v1.3h-3v9.3h-1.4v-9.3h-1.7v-1.3h1.7V897c0-2.3,1.3-3.2,3.1-3.2c0.8,0,1.3,0.2,1.5,0.2v1.2
		c-0.2-0.1-0.7-0.2-1.1-0.2c-1.3,0-2,0.4-2,2.1V899.5z"/>
	<path d="M1069.4,899.5v1.3h-3.4v6.2c0,1.7,0.7,2.1,2,2.1c0.4,0,1-0.1,1.1-0.2v1.2c-0.2,0.1-0.6,0.2-1.5,0.2c-1.8,0-3.1-0.9-3.1-3.2
		v-6.4h-1.7v-1.3h1.7v-3h1.4v3H1069.4z"/>
	<path d="M1080.8,900.7l-2.4,0h-3.3v-1.3h7.4v1l-5.8,8.4l2.4,0h3.7v1.3h-7.8v-1L1080.8,900.7z"/>
	<path d="M1085.7,905.4c0.1,2.3,1,3.8,3.2,3.8s3-1.3,3-2.4h1.3v0.1c0,1.6-1.4,3.5-4.3,3.5c-3.2,0-4.6-2.4-4.6-5.3v-0.4
		c0-2.9,1.4-5.3,4.5-5.3c3.1,0,4.4,2.4,4.4,5.3v0.8H1085.7z M1085.7,904.2h6.1c-0.1-2.3-1-3.8-3-3.8
		C1086.7,900.4,1085.8,901.9,1085.7,904.2z"/>
	<path d="M1097.2,897h-1.8v-1.8h1.8V897z M1095.6,899.5h1.4v10.6h-1.4V899.5z"/>
	<path d="M1103.9,909c2,0,2.7-1.3,2.7-2.6h1.3v0.3c0,1.7-1.1,3.6-4.1,3.6c-3.1,0-4.4-2.3-4.4-5.3v-0.5c0-2.9,1.3-5.3,4.4-5.3
		c2.9,0,4.1,2,4.1,3.7v0.4h-1.3c0-1.6-0.8-2.8-2.7-2.8c-2.1,0-3,1.6-3,4v0.5C1100.9,907.4,1101.8,909,1103.9,909z"/>
	<path d="M1111.7,900.8c0.6-0.8,1.7-1.5,3.4-1.5c2.1,0,3.2,1.4,3.2,3.4v7.4h-1.4v-7.2c0-1.6-0.9-2.3-2.3-2.3c-1.7,0-2.5,0.9-2.9,1.6
		v7.9h-1.4v-16h1.4V900.8z"/>
	<path d="M1127.4,910.1v-7.2c0-1.6-0.9-2.3-2.3-2.3c-1.7,0-2.5,0.9-2.9,1.6v7.9h-1.4v-7.6l-0.1-3h1.2l0.2,1.5
		c0.6-0.9,1.7-1.7,3.6-1.7c2.1,0,3.2,1.4,3.2,3.4v7.4H1127.4z"/>
	<path d="M1132.5,905.4c0.1,2.3,1,3.8,3.2,3.8s3-1.3,3-2.4h1.3v0.1c0,1.6-1.4,3.5-4.3,3.5c-3.2,0-4.6-2.4-4.6-5.3v-0.4
		c0-2.9,1.4-5.3,4.5-5.3c3.1,0,4.4,2.4,4.4,5.3v0.8H1132.5z M1132.5,904.2h6.1c-0.1-2.3-1-3.8-3-3.8
		C1133.5,900.4,1132.5,901.9,1132.5,904.2z"/>
	<path d="M1147.8,899.5v1.3h-3.4v6.2c0,1.7,0.7,2.1,2,2.1c0.4,0,1-0.1,1.1-0.2v1.2c-0.2,0.1-0.6,0.2-1.5,0.2c-1.8,0-3.1-0.9-3.1-3.2
		v-6.4h-1.7v-1.3h1.7v-3h1.4v3H1147.8z"/>
	<path d="M1151.1,905.4c0.1,2.3,1,3.8,3.2,3.8c2.1,0,3-1.3,3-2.4h1.3v0.1c0,1.6-1.4,3.5-4.3,3.5c-3.2,0-4.6-2.4-4.6-5.3v-0.4
		c0-2.9,1.4-5.3,4.5-5.3c3.1,0,4.4,2.4,4.4,5.3v0.8H1151.1z M1151.1,904.2h6.1c-0.1-2.3-1-3.8-3-3.8
		C1152.1,900.4,1151.2,901.9,1151.1,904.2z"/>
	<path d="M1162.6,910.1h-1.8v-1.8h1.8V910.1z"/>
	<path d="M1173.5,910.1h-4.1v-15.6h4.1c3.8,0,6,2,6,7.4v0.8C1179.5,908.1,1177.3,910.1,1173.5,910.1z M1173.4,908.8
		c3,0,4.7-1.7,4.7-6.1v-0.8c0-4.4-1.7-6.1-4.7-6.1h-2.6v13H1173.4z"/>
	<path d="M1183.1,905.4c0.1,2.3,1,3.8,3.2,3.8c2.1,0,3-1.3,3-2.4h1.3v0.1c0,1.6-1.4,3.5-4.3,3.5c-3.2,0-4.6-2.4-4.6-5.3v-0.4
		c0-2.9,1.4-5.3,4.5-5.3s4.4,2.4,4.4,5.3v0.8H1183.1z M1183.1,904.2h6.1c-0.1-2.3-1-3.8-3-3.8
		C1184.1,900.4,1183.1,901.9,1183.1,904.2z"/>
	<path d="M1197.4,899.3v1.3h-0.3c-1.6,0-2.4,0.9-2.8,1.6v7.9h-1.4v-7.6l-0.1-3h1.2l0.2,1.4c0.6-0.9,1.5-1.6,3-1.6
		C1197.2,899.3,1197.4,899.3,1197.4,899.3z"/>
	<path d="M1203.1,898.6v-0.2c0-2.6,1.9-4.2,4.9-4.2c3.5,0,4.9,1.8,4.9,5v0.5h-1.4c0-3-1-4.2-3.4-4.2h-0.1c-1.9,0-3.3,1-3.3,2.7v0.2
		c0,1.7,0.9,2.6,3.7,3c3.4,0.5,4.8,1.8,4.8,4.2v0.2c0,2.8-2,4.4-5.1,4.4c-3.3,0-5.1-1.9-5.1-5.1V905h1.4c0,2.7,1.5,4,3.6,4h0.1
		c2.1,0,3.5-1.1,3.5-3v-0.2c0-1.8-1.1-2.8-3.9-3.1C1204.4,902.2,1203.1,900.7,1203.1,898.6z"/>
	<path d="M1219.5,909c2,0,2.7-1.3,2.7-2.6h1.3v0.3c0,1.7-1.1,3.6-4.1,3.6c-3.1,0-4.4-2.3-4.4-5.3v-0.5c0-2.9,1.3-5.3,4.4-5.3
		c2.9,0,4.1,2,4.1,3.7v0.4h-1.3c0-1.6-0.8-2.8-2.7-2.8c-2.1,0-3,1.6-3,4v0.5C1216.4,907.4,1217.4,909,1219.5,909z"/>
	<path d="M1227.2,900.8c0.6-0.8,1.7-1.5,3.4-1.5c2.1,0,3.2,1.4,3.2,3.4v7.4h-1.4v-7.2c0-1.6-0.9-2.3-2.3-2.3c-1.7,0-2.5,0.9-2.9,1.6
		v7.9h-1.4v-16h1.4V900.8z"/>
	<path d="M1240.9,899.3v1.3h-0.3c-1.6,0-2.4,0.9-2.8,1.6v7.9h-1.4v-7.6l-0.1-3h1.2l0.2,1.4c0.6-0.9,1.5-1.6,3-1.6
		C1240.7,899.3,1240.8,899.3,1240.9,899.3z"/>
	<path d="M1244.8,897h-1.8v-1.8h1.8V897z M1243.2,899.5h1.4v10.6h-1.4V899.5z"/>
	<path d="M1249.7,899.5h3v1.3h-3v9.3h-1.4v-9.3h-1.7v-1.3h1.7V897c0-2.3,1.3-3.2,3.1-3.2c0.8,0,1.3,0.2,1.5,0.2v1.2
		c-0.2-0.1-0.7-0.2-1.1-0.2c-1.3,0-2,0.4-2,2.1V899.5z"/>
	<path d="M1260.7,899.5v1.3h-3.4v6.2c0,1.7,0.7,2.1,2,2.1c0.4,0,1-0.1,1.1-0.2v1.2c-0.2,0.1-0.6,0.2-1.5,0.2c-1.8,0-3.1-0.9-3.1-3.2
		v-6.4h-1.7v-1.3h1.7v-3h1.4v3H1260.7z"/>
	<path d="M1269.5,907.2c0-1.4-0.8-1.8-2.9-2c-2.9-0.2-3.7-1.2-3.7-2.8v-0.1c0-1.8,1.5-3,3.9-3c2.9,0,4,1.5,4,3.6v0.1h-1.4
		c0-1.5-0.6-2.5-2.6-2.5c-1.6,0-2.5,0.7-2.5,1.8c0,1.1,0.5,1.7,2.8,1.9c2.7,0.2,3.8,1,3.8,2.9v0.1c0,1.8-1.5,3.1-4.1,3.1
		c-3,0-4.1-1.8-4.1-3.4v-0.1h1.4c0,1.2,0.6,2.3,2.7,2.3C1268.6,909.1,1269.5,908.4,1269.5,907.2z"/>
	<path d="M1279.8,908.6c-0.7,0.9-1.9,1.7-3.7,1.7c-1.9,0-3.1-1.2-3.1-2.9v-0.2c0-2.3,1.7-3,3.5-3.2l3.2-0.5v-0.3
		c0-1.8-0.6-2.8-2.5-2.8c-2,0-2.5,1.2-2.5,2.5h-1.3v-0.2c0-1.6,0.7-3.5,3.8-3.5c2.9,0,3.8,1.6,3.8,3.9v3.9l0.1,3h-1.2L1279.8,908.6z
		 M1279.6,907.4v-2.9l-3.1,0.5c-1.4,0.2-2.2,0.9-2.2,2.1v0.2c0,0.9,0.6,1.8,2,1.8C1278.3,909.1,1279.2,908,1279.6,907.4z"/>
	<path d="M1289.1,899.5v1.3h-3.4v6.2c0,1.7,0.7,2.1,2,2.1c0.4,0,1-0.1,1.1-0.2v1.2c-0.2,0.1-0.6,0.2-1.5,0.2c-1.8,0-3.1-0.9-3.1-3.2
		v-6.4h-1.7v-1.3h1.7v-3h1.4v3H1289.1z"/>
	<path d="M1296.6,900.7l-2.4,0h-3.3v-1.3h7.4v1l-5.8,8.4l2.4,0h3.7v1.3h-7.8v-1L1296.6,900.7z"/>
	<path d="M852.8,938.1H851l-2.3-10.6h1.4l1.8,9.1l2.5-9.1h1.7l2.5,9.1l1.8-9.1h1.4l-2.3,10.6h-1.9l-2.4-9L852.8,938.1z"/>
	<path d="M865,927.5v7.2c0,1.6,0.9,2.3,2.3,2.3c1.7,0,2.5-0.9,2.9-1.6v-7.9h1.4v7.6l0.1,3h-1.2l-0.2-1.5c-0.6,0.9-1.7,1.7-3.5,1.7
		c-2.1,0-3.2-1.4-3.2-3.4v-7.4H865z"/>
	<path d="M878.8,927.3v1.3h-0.3c-1.6,0-2.4,0.9-2.8,1.6v7.9h-1.4v-7.6l-0.1-3h1.2l0.2,1.4c0.6-0.9,1.5-1.6,3-1.6
		C878.7,927.3,878.8,927.3,878.8,927.3z"/>
	<path d="M887.7,928.7v-6.6h1.4v13l0.1,3h-1.2l-0.2-1.4c-0.5,0.9-1.5,1.6-3.1,1.6c-2.9,0-4.1-2.3-4.1-5.3v-0.5
		c0-2.9,1.2-5.3,4.1-5.3C886.2,927.3,887.2,927.9,887.7,928.7z M887.7,935.4v-5.2c-0.4-0.7-1.3-1.6-2.7-1.6c-2,0-2.9,1.6-2.9,4v0.5
		c0,2.5,0.9,4,2.9,4C886.5,937,887.3,936.1,887.7,935.4z"/>
	<path d="M892.9,933.4c0.1,2.3,1,3.8,3.2,3.8c2.1,0,3-1.3,3-2.4h1.3v0.1c0,1.6-1.4,3.5-4.3,3.5c-3.2,0-4.6-2.4-4.6-5.3v-0.4
		c0-2.9,1.4-5.3,4.5-5.3s4.4,2.4,4.4,5.3v0.8H892.9z M892.9,932.2h6.1c-0.1-2.3-1-3.8-3-3.8C893.9,928.4,892.9,929.9,892.9,932.2z"
		/>
	<path d="M906.5,930.7v-0.8c0-5.4,1.8-7.6,5.3-7.6c3.6,0,5.4,2.2,5.4,7.6v0.8c0,5.4-1.8,7.6-5.4,7.6
		C908.2,938.3,906.5,936.1,906.5,930.7z M911.9,937c2.6,0,3.8-1.9,3.8-6.3v-0.8c0-4.4-1.2-6.3-3.8-6.3h-0.1c-2.6,0-3.8,1.9-3.8,6.3
		v0.8c0,4.4,1.2,6.3,3.8,6.3H911.9z"/>
	<path d="M921,936.9v5.2h-1.4v-11.6l-0.1-3h1.2l0.2,1.4c0.6-0.9,1.5-1.7,3.2-1.7c2.9,0,4.1,2.3,4.1,5.3v0.5c0,2.9-1.2,5.3-4.1,5.3
		C922.6,938.3,921.6,937.7,921,936.9z M921,935.4c0.4,0.7,1.2,1.6,2.7,1.6c2,0,2.9-1.6,2.9-4v-0.5c0-2.5-0.9-4-2.9-4
		c-1.4,0-2.3,0.9-2.7,1.6V935.4z"/>
	<path d="M931.4,933.4c0.1,2.3,1,3.8,3.2,3.8s3-1.3,3-2.4h1.3v0.1c0,1.6-1.4,3.5-4.3,3.5c-3.2,0-4.6-2.4-4.6-5.3v-0.4
		c0-2.9,1.4-5.3,4.5-5.3c3.1,0,4.4,2.4,4.4,5.3v0.8H931.4z M931.4,932.2h6.1c-0.1-2.3-1-3.8-3-3.8
		C932.5,928.4,931.5,929.9,931.4,932.2z"/>
	<path d="M947.9,938.1v-7.2c0-1.6-0.9-2.3-2.3-2.3c-1.7,0-2.5,0.9-2.9,1.6v7.9h-1.4v-7.6l-0.1-3h1.2l0.2,1.5
		c0.6-0.9,1.7-1.7,3.6-1.7c2.1,0,3.2,1.4,3.2,3.4v7.4H947.9z"/>
	<path d="M955.6,926.6v-0.2c0-2.6,1.9-4.2,4.9-4.2c3.5,0,4.9,1.8,4.9,5v0.5H964c0-3-1-4.2-3.4-4.2h-0.1c-1.9,0-3.3,1-3.3,2.7v0.2
		c0,1.7,0.9,2.6,3.7,3c3.4,0.5,4.8,1.8,4.8,4.2v0.2c0,2.8-2,4.4-5.1,4.4c-3.3,0-5.1-1.9-5.1-5.1V933h1.4c0,2.7,1.5,4,3.6,4h0.1
		c2.1,0,3.5-1.1,3.5-3v-0.2c0-1.8-1.1-2.8-3.9-3.1C956.8,930.2,955.6,928.7,955.6,926.6z"/>
	<path d="M967.5,933v-0.5c0-2.9,1.3-5.3,4.5-5.3c3.1,0,4.5,2.3,4.5,5.3v0.5c0,2.9-1.3,5.3-4.5,5.3C968.8,938.3,967.5,936,967.5,933z
		 M975,933v-0.5c0-2.4-0.9-4-3-4s-3,1.6-3,4v0.5c0,2.4,0.9,4,3,4S975,935.4,975,933z"/>
	<path d="M980,927.5v7.2c0,1.6,0.9,2.3,2.3,2.3c1.7,0,2.5-0.9,2.9-1.6v-7.9h1.4v7.6l0.1,3h-1.2l-0.2-1.5c-0.6,0.9-1.7,1.7-3.5,1.7
		c-2.1,0-3.2-1.4-3.2-3.4v-7.4H980z"/>
	<path d="M993.8,927.3v1.3h-0.3c-1.6,0-2.4,0.9-2.8,1.6v7.9h-1.4v-7.6l-0.1-3h1.2l0.2,1.4c0.6-0.9,1.5-1.6,3-1.6
		C993.6,927.3,993.8,927.3,993.8,927.3z"/>
	<path d="M999.6,937c2,0,2.7-1.3,2.7-2.6h1.3v0.3c0,1.7-1.1,3.6-4.1,3.6c-3.1,0-4.4-2.3-4.4-5.3v-0.5c0-2.9,1.3-5.3,4.4-5.3
		c2.9,0,4.1,2,4.1,3.7v0.4h-1.3c0-1.6-0.8-2.8-2.7-2.8c-2.1,0-3,1.6-3,4v0.5C996.5,935.4,997.4,937,999.6,937z"/>
	<path d="M1007,933.4c0.1,2.3,1,3.8,3.2,3.8c2.1,0,3-1.3,3-2.4h1.3v0.1c0,1.6-1.4,3.5-4.3,3.5c-3.2,0-4.6-2.4-4.6-5.3v-0.4
		c0-2.9,1.4-5.3,4.5-5.3s4.4,2.4,4.4,5.3v0.8H1007z M1007,932.2h6.1c-0.1-2.3-1-3.8-3-3.8C1008,928.4,1007,929.9,1007,932.2z"/>
	<path d="M1021.8,933.4c0.1,2.3,1,3.8,3.2,3.8c2.1,0,3-1.3,3-2.4h1.3v0.1c0,1.6-1.4,3.5-4.3,3.5c-3.2,0-4.6-2.4-4.6-5.3v-0.4
		c0-2.9,1.4-5.3,4.5-5.3c3.1,0,4.4,2.4,4.4,5.3v0.8H1021.8z M1021.8,932.2h6.1c-0.1-2.3-1-3.8-3-3.8
		C1022.9,928.4,1021.9,929.9,1021.8,932.2z"/>
	<path d="M1038.3,938.1v-7.2c0-1.6-0.9-2.3-2.3-2.3c-1.7,0-2.5,0.9-2.9,1.6v7.9h-1.4v-7.6l-0.1-3h1.2l0.2,1.5
		c0.6-0.9,1.7-1.7,3.6-1.7c2.1,0,3.2,1.4,3.2,3.4v7.4H1038.3z"/>
	<path d="M1047.7,927.5v1.3h-3.4v6.2c0,1.7,0.7,2.1,2,2.1c0.4,0,1-0.1,1.1-0.2v1.2c-0.2,0.1-0.6,0.2-1.5,0.2c-1.8,0-3.1-0.9-3.1-3.2
		v-6.4h-1.7v-1.3h1.7v-3h1.4v3H1047.7z"/>
	<path d="M1053.4,938.1h-1.8l-2.3-10.6h1.4l1.8,9.1l2.5-9.1h1.7l2.5,9.1l1.8-9.1h1.4l-2.3,10.6h-1.9l-2.4-9L1053.4,938.1z"/>
	<path d="M1066,925h-1.8v-1.8h1.8V925z M1064.4,927.5h1.4v10.6h-1.4V927.5z"/>
	<path d="M1072.7,937c2,0,2.7-1.3,2.7-2.6h1.3v0.3c0,1.7-1.1,3.6-4.1,3.6c-3.1,0-4.4-2.3-4.4-5.3v-0.5c0-2.9,1.3-5.3,4.4-5.3
		c2.9,0,4.1,2,4.1,3.7v0.4h-1.3c0-1.6-0.8-2.8-2.7-2.8c-2.1,0-3,1.6-3,4v0.5C1069.7,935.4,1070.6,937,1072.7,937z"/>
	<path d="M1079,922.1h1.4v11l5-5.6h1.7l-3.6,4l3.6,6.6h-1.6l-3-5.5l-2.2,2.4v3.1h-1.4V922.1z"/>
	<path d="M1089.6,933.4c0.1,2.3,1,3.8,3.2,3.8c2.1,0,3-1.3,3-2.4h1.3v0.1c0,1.6-1.4,3.5-4.3,3.5c-3.2,0-4.6-2.4-4.6-5.3v-0.4
		c0-2.9,1.4-5.3,4.5-5.3s4.4,2.4,4.4,5.3v0.8H1089.6z M1089.6,932.2h6.1c-0.1-2.3-1-3.8-3-3.8
		C1090.6,928.4,1089.6,929.9,1089.6,932.2z"/>
	<path d="M1099.5,922.1h1.4v16h-1.4V922.1z"/>
	<path d="M1109.4,927.5v1.3h-3.4v6.2c0,1.7,0.7,2.1,2,2.1c0.4,0,1-0.1,1.1-0.2v1.2c-0.2,0.1-0.6,0.2-1.5,0.2c-1.8,0-3.1-0.9-3.1-3.2
		v-6.4h-1.7v-1.3h1.7v-3h1.4v3H1109.4z"/>
	<path d="M1113.4,937.7c0,1.8-0.8,2.7-2.3,2.7v-0.8c0.8,0,1.3-0.4,1.4-1.5h-0.9v-1.8h1.8V937.7z"/>
	<path d="M1121.3,927.5v7.2c0,1.6,0.9,2.3,2.3,2.3c1.7,0,2.5-0.9,2.9-1.6v-7.9h1.4v7.6l0.1,3h-1.2l-0.2-1.5
		c-0.6,0.9-1.7,1.7-3.5,1.7c-2.1,0-3.2-1.4-3.2-3.4v-7.4H1121.3z"/>
	<path d="M1142.7,938.1v-7.5c0-1.6-0.8-2.1-2-2.1c-1.5,0-2.2,0.9-2.6,1.6v8h-1.4v-7.5c0-1.6-0.8-2.1-2-2.1c-1.5,0-2.2,0.9-2.6,1.6v8
		h-1.4v-7.6l-0.1-3h1.2l0.2,1.4c0.6-0.9,1.6-1.7,3.3-1.7c1.4,0,2.3,0.6,2.7,1.8c0.6-1,1.6-1.8,3.3-1.8c1.9,0,3,1.1,3,3.1v7.7H1142.7
		z"/>
	<path d="M1157.4,928.7v-6.6h1.4v13l0.1,3h-1.2l-0.2-1.4c-0.5,0.9-1.5,1.6-3.1,1.6c-2.9,0-4.1-2.3-4.1-5.3v-0.5
		c0-2.9,1.2-5.3,4.1-5.3C1155.9,927.3,1156.8,927.9,1157.4,928.7z M1157.4,935.4v-5.2c-0.4-0.7-1.3-1.6-2.7-1.6c-2,0-2.9,1.6-2.9,4
		v0.5c0,2.5,0.9,4,2.9,4C1156.2,937,1157,936.1,1157.4,935.4z"/>
	<path d="M1163.2,925h-1.8v-1.8h1.8V925z M1161.6,927.5h1.4v10.6h-1.4V927.5z"/>
	<path d="M1166.9,933.4c0.1,2.3,1,3.8,3.2,3.8c2.1,0,3-1.3,3-2.4h1.3v0.1c0,1.6-1.4,3.5-4.3,3.5c-3.2,0-4.6-2.4-4.6-5.3v-0.4
		c0-2.9,1.4-5.3,4.5-5.3s4.4,2.4,4.4,5.3v0.8H1166.9z M1166.9,932.2h6.1c-0.1-2.3-1-3.8-3-3.8
		C1167.9,928.4,1166.9,929.9,1166.9,932.2z"/>
	<path d="M1182.4,938.1h-1.4v-15.6h1.4V938.1z"/>
	<path d="M1192,928.7v-6.6h1.4v13l0.1,3h-1.2l-0.2-1.4c-0.5,0.9-1.5,1.6-3.1,1.6c-2.9,0-4.1-2.3-4.1-5.3v-0.5c0-2.9,1.2-5.3,4.1-5.3
		C1190.5,927.3,1191.4,927.9,1192,928.7z M1192,935.4v-5.2c-0.4-0.7-1.3-1.6-2.7-1.6c-2,0-2.9,1.6-2.9,4v0.5c0,2.5,0.9,4,2.9,4
		C1190.8,937,1191.6,936.1,1192,935.4z"/>
	<path d="M1197.1,933.4c0.1,2.3,1,3.8,3.2,3.8c2.1,0,3-1.3,3-2.4h1.3v0.1c0,1.6-1.4,3.5-4.3,3.5c-3.2,0-4.6-2.4-4.6-5.3v-0.4
		c0-2.9,1.4-5.3,4.5-5.3s4.4,2.4,4.4,5.3v0.8H1197.1z M1197.1,932.2h6.1c-0.1-2.3-1-3.8-3-3.8
		C1198.2,928.4,1197.2,929.9,1197.1,932.2z"/>
	<path d="M1213.6,938.1v-7.2c0-1.6-0.9-2.3-2.3-2.3c-1.7,0-2.5,0.9-2.9,1.6v7.9h-1.4v-7.6l-0.1-3h1.2l0.2,1.5
		c0.6-0.9,1.7-1.7,3.6-1.7c2.1,0,3.2,1.4,3.2,3.4v7.4H1213.6z"/>
	<path d="M1223,927.5v1.3h-3.4v6.2c0,1.7,0.7,2.1,2,2.1c0.4,0,1-0.1,1.1-0.2v1.2c-0.2,0.1-0.6,0.2-1.5,0.2c-1.8,0-3.1-0.9-3.1-3.2
		v-6.4h-1.7v-1.3h1.7v-3h1.4v3H1223z"/>
	<path d="M1227,925h-1.8v-1.8h1.8V925z M1225.4,927.5h1.4v10.6h-1.4V927.5z"/>
	<path d="M1235.3,927.5v1.3h-3.4v6.2c0,1.7,0.7,2.1,2,2.1c0.4,0,1-0.1,1.1-0.2v1.2c-0.2,0.1-0.6,0.2-1.5,0.2c-1.8,0-3.1-0.9-3.1-3.2
		v-6.4h-1.7v-1.3h1.7v-3h1.4v3H1235.3z"/>
	<path d="M1244,936.6c-0.7,0.9-1.9,1.7-3.7,1.7c-1.9,0-3.1-1.2-3.1-2.9v-0.2c0-2.3,1.7-3,3.5-3.2l3.2-0.5v-0.3
		c0-1.8-0.6-2.8-2.5-2.8c-2,0-2.5,1.2-2.5,2.5h-1.3v-0.2c0-1.6,0.7-3.5,3.8-3.5c2.9,0,3.8,1.6,3.8,3.9v3.9l0.1,3h-1.2L1244,936.6z
		 M1243.8,935.4v-2.9l-3.1,0.5c-1.4,0.2-2.2,0.9-2.2,2.1v0.2c0,0.9,0.6,1.8,2,1.8C1242.5,937.1,1243.4,936,1243.8,935.4z
		 M1240.6,924.9h-1.7v-1.8h1.7V924.9z M1243.9,924.9h-1.7v-1.8h1.7V924.9z"/>
	<path d="M1253.3,927.5v1.3h-3.4v6.2c0,1.7,0.7,2.1,2,2.1c0.4,0,1-0.1,1.1-0.2v1.2c-0.2,0.1-0.6,0.2-1.5,0.2c-1.8,0-3.1-0.9-3.1-3.2
		v-6.4h-1.7v-1.3h1.7v-3h1.4v3H1253.3z"/>
	<path d="M1266.3,928.7v-6.6h1.4v13l0.1,3h-1.2l-0.2-1.4c-0.5,0.9-1.5,1.6-3.1,1.6c-2.9,0-4.1-2.3-4.1-5.3v-0.5
		c0-2.9,1.2-5.3,4.1-5.3C1264.8,927.3,1265.8,927.9,1266.3,928.7z M1266.3,935.4v-5.2c-0.4-0.7-1.3-1.6-2.7-1.6c-2,0-2.9,1.6-2.9,4
		v0.5c0,2.5,0.9,4,2.9,4C1265.1,937,1265.9,936.1,1266.3,935.4z"/>
	<path d="M1271.5,933.4c0.1,2.3,1,3.8,3.2,3.8c2.1,0,3-1.3,3-2.4h1.3v0.1c0,1.6-1.4,3.5-4.3,3.5c-3.2,0-4.6-2.4-4.6-5.3v-0.4
		c0-2.9,1.4-5.3,4.5-5.3s4.4,2.4,4.4,5.3v0.8H1271.5z M1271.5,932.2h6.1c-0.1-2.3-1-3.8-3-3.8
		C1272.5,928.4,1271.5,929.9,1271.5,932.2z"/>
	<path d="M1287.8,935.2c0-1.4-0.8-1.8-2.9-2c-2.9-0.2-3.7-1.2-3.7-2.8v-0.1c0-1.8,1.5-3,3.9-3c2.9,0,4,1.5,4,3.6v0.1h-1.4
		c0-1.5-0.6-2.5-2.6-2.5c-1.6,0-2.5,0.7-2.5,1.8c0,1.1,0.5,1.7,2.8,1.9c2.7,0.2,3.8,1,3.8,2.9v0.1c0,1.8-1.5,3.1-4.1,3.1
		c-3,0-4.1-1.8-4.1-3.4v-0.1h1.4c0,1.2,0.6,2.3,2.7,2.3C1286.9,937.1,1287.8,936.4,1287.8,935.2z"/>
	<path d="M853.5,950.5c2.6,0,4.7,1.1,4.7,3.9v0.4c0,1.8-1,2.7-2.3,3.2c1.6,0.5,2.7,1.5,2.7,3.5v0.4c0,3-2.2,4.1-4.8,4.1h-4.3v-15.6
		H853.5z M851,951.8v5.6h2.6c1.7,0,3.2-0.7,3.2-2.7v-0.3c0-1.9-1.5-2.7-3.2-2.7H851z M851,958.7v6.1h2.9c1.8,0,3.2-0.8,3.2-2.9v-0.3
		c0-2-1.5-2.9-3.2-2.9H851z"/>
	<path d="M865.6,955.3v1.3h-0.3c-1.6,0-2.4,0.9-2.8,1.6v7.9h-1.4v-7.6l-0.1-3h1.2l0.2,1.4c0.6-0.9,1.5-1.6,3-1.6
		C865.5,955.3,865.6,955.3,865.6,955.3z"/>
	<path d="M873.7,964.6c-0.7,0.9-1.9,1.7-3.7,1.7c-1.9,0-3.1-1.2-3.1-2.9v-0.2c0-2.3,1.7-3,3.5-3.2l3.2-0.5v-0.3
		c0-1.8-0.6-2.8-2.5-2.8c-2,0-2.5,1.2-2.5,2.5h-1.3v-0.2c0-1.6,0.7-3.5,3.8-3.5c2.9,0,3.8,1.6,3.8,3.9v3.9l0.1,3h-1.2L873.7,964.6z
		 M873.6,963.4v-2.9l-3.1,0.5c-1.4,0.2-2.2,0.9-2.2,2.1v0.2c0,0.9,0.6,1.8,2,1.8C872.3,965.1,873.2,964,873.6,963.4z"/>
	<path d="M884.2,966.1v-7.2c0-1.6-0.9-2.3-2.3-2.3c-1.7,0-2.5,0.9-2.9,1.6v7.9h-1.4v-7.6l-0.1-3h1.2l0.2,1.5
		c0.6-0.9,1.7-1.7,3.6-1.7c2.1,0,3.2,1.4,3.2,3.4v7.4H884.2z"/>
	<path d="M894.9,956.7v-6.6h1.4v13l0.1,3h-1.2l-0.2-1.4c-0.5,0.9-1.5,1.6-3.1,1.6c-2.9,0-4.1-2.3-4.1-5.3v-0.5
		c0-2.9,1.2-5.3,4.1-5.3C893.4,955.3,894.3,955.9,894.9,956.7z M894.9,963.4v-5.2c-0.4-0.7-1.3-1.6-2.7-1.6c-2,0-2.9,1.6-2.9,4v0.5
		c0,2.5,0.9,4,2.9,4C893.6,965,894.4,964.1,894.9,963.4z"/>
	<path d="M905.5,963.2c0-1.4-0.8-1.8-2.9-2c-2.9-0.2-3.7-1.2-3.7-2.8v-0.1c0-1.8,1.5-3,3.9-3c2.9,0,4,1.5,4,3.6v0.1h-1.4
		c0-1.5-0.6-2.5-2.6-2.5c-1.6,0-2.5,0.7-2.5,1.8c0,1.1,0.5,1.7,2.8,1.9c2.7,0.2,3.8,1,3.8,2.9v0.1c0,1.8-1.5,3.1-4.1,3.1
		c-3,0-4.1-1.8-4.1-3.4v-0.1h1.4c0,1.2,0.6,2.3,2.7,2.3C904.5,965.1,905.5,964.4,905.5,963.2z"/>
	<path d="M917.1,957l-3,2.3l3,2.3v1.4l-4.1-3.1v-1.2l4.1-3.1V957z M921.4,957l-3,2.3l3,2.3v1.4l-4.1-3.1v-1.2l4.1-3.1V957z"/>
	<path d="M928.8,965h0.1c2.3,0,3.3-1.4,3.3-4h1.5v0.2c0,3.3-1.6,5.1-4.9,5.1c-3.6,0-5.3-2.2-5.3-7.6v-0.8c0-5.4,1.7-7.6,5.3-7.6
		c3.3,0,4.9,1.8,4.9,5.3v0.6h-1.5c0-3.2-1-4.6-3.3-4.6h-0.1c-2.6,0-3.8,1.9-3.8,6.3v0.8C925,963.1,926.2,965,928.8,965z"/>
	<path d="M935.7,961v-0.5c0-2.9,1.3-5.3,4.5-5.3c3.1,0,4.5,2.3,4.5,5.3v0.5c0,2.9-1.3,5.3-4.5,5.3C937,966.3,935.7,964,935.7,961z
		 M943.2,961v-0.5c0-2.4-0.9-4-3-4s-3,1.6-3,4v0.5c0,2.4,0.9,4,3,4S943.2,963.4,943.2,961z"/>
	<path d="M946.6,961v-0.5c0-2.9,1.3-5.3,4.5-5.3s4.5,2.3,4.5,5.3v0.5c0,2.9-1.3,5.3-4.5,5.3S946.6,964,946.6,961z M954.1,961v-0.5
		c0-2.4-0.9-4-3-4c-2.1,0-3,1.6-3,4v0.5c0,2.4,0.9,4,3,4C953.2,965,954.1,963.4,954.1,961z"/>
	<path d="M959.2,964.9v5.2h-1.4v-11.6l-0.1-3h1.2l0.2,1.4c0.6-0.9,1.5-1.7,3.2-1.7c2.9,0,4.1,2.3,4.1,5.3v0.5c0,2.9-1.2,5.3-4.1,5.3
		C960.7,966.3,959.8,965.7,959.2,964.9z M959.2,963.4c0.4,0.7,1.2,1.6,2.7,1.6c2,0,2.9-1.6,2.9-4v-0.5c0-2.5-0.9-4-2.9-4
		c-1.4,0-2.3,0.9-2.7,1.6V963.4z"/>
	<path d="M969.6,961.4c0.1,2.3,1,3.8,3.2,3.8c2.1,0,3-1.3,3-2.4h1.3v0.1c0,1.6-1.4,3.5-4.3,3.5c-3.2,0-4.6-2.4-4.6-5.3v-0.4
		c0-2.9,1.4-5.3,4.5-5.3s4.4,2.4,4.4,5.3v0.8H969.6z M969.6,960.2h6.1c-0.1-2.3-1-3.8-3-3.8C970.7,956.4,969.7,957.9,969.6,960.2z"
		/>
	<path d="M983.9,955.3v1.3h-0.3c-1.6,0-2.4,0.9-2.8,1.6v7.9h-1.4v-7.6l-0.1-3h1.2l0.2,1.4c0.6-0.9,1.5-1.6,3-1.6
		C983.8,955.3,983.9,955.3,983.9,955.3z"/>
	<path d="M999.9,950.5v15.6h-1.4v-7.3h-6.9v7.3H990v-15.6h1.4v7h6.9v-7H999.9z"/>
	<path d="M1003.7,961.4c0.1,2.3,1,3.8,3.2,3.8c2.1,0,3-1.3,3-2.4h1.3v0.1c0,1.6-1.4,3.5-4.3,3.5c-3.2,0-4.6-2.4-4.6-5.3v-0.4
		c0-2.9,1.4-5.3,4.5-5.3s4.4,2.4,4.4,5.3v0.8H1003.7z M1003.7,960.2h6.1c-0.1-2.3-1-3.8-3-3.8
		C1004.8,956.4,1003.8,957.9,1003.7,960.2z"/>
	<path d="M1016.7,966.1h-1.8l-2.3-10.6h1.4l1.8,9.1l2.5-9.1h1.7l2.5,9.1l1.8-9.1h1.4l-2.3,10.6h-1.9l-2.4-9L1016.7,966.1z"/>
	<path d="M1029.4,953h-1.8v-1.8h1.8V953z M1027.8,955.5h1.4v10.6h-1.4V955.5z"/>
	<path d="M1037.7,955.5v1.3h-3.4v6.2c0,1.7,0.7,2.1,2,2.1c0.4,0,1-0.1,1.1-0.2v1.2c-0.2,0.1-0.6,0.2-1.5,0.2c-1.8,0-3.1-0.9-3.1-3.2
		v-6.4h-1.7v-1.3h1.7v-3h1.4v3H1037.7z"/>
	<path d="M1045.7,955.5v1.3h-3.4v6.2c0,1.7,0.7,2.1,2,2.1c0.4,0,1-0.1,1.1-0.2v1.2c-0.2,0.1-0.6,0.2-1.5,0.2c-1.8,0-3.1-0.9-3.1-3.2
		v-6.4h-1.7v-1.3h1.7v-3h1.4v3H1045.7z"/>
	<path d="M1047.6,955.6l4.1,3.1v1.2l-4.1,3.1v-1.4l3-2.3l-3-2.3V955.6z M1051.9,955.6l4.1,3.1v1.2l-4.1,3.1v-1.4l3-2.3l-3-2.3V955.6
		z"/>
	<path d="M1067.5,956.7l-2.4,0h-3.3v-1.3h7.4v1l-5.8,8.4l2.4,0h3.7v1.3h-7.8v-1L1067.5,956.7z"/>
	<path d="M1072.8,955.5v7.2c0,1.6,0.9,2.3,2.3,2.3c1.7,0,2.5-0.9,2.9-1.6v-7.9h1.4v7.6l0.1,3h-1.2l-0.2-1.5
		c-0.6,0.9-1.7,1.7-3.5,1.7c-2.1,0-3.2-1.4-3.2-3.4v-7.4H1072.8z"/>
	<path d="M1087.4,955.5v7.2c0,1.6,0.9,2.3,2.3,2.3c1.7,0,2.5-0.9,2.9-1.6v-7.9h1.4v7.6l0.1,3h-1.2l-0.2-1.5
		c-0.6,0.9-1.7,1.7-3.5,1.7c-2.1,0-3.2-1.4-3.2-3.4v-7.4H1087.4z"/>
	<path d="M1103.3,966.1v-7.2c0-1.6-0.9-2.3-2.3-2.3c-1.7,0-2.5,0.9-2.9,1.6v7.9h-1.4v-7.6l-0.1-3h1.2l0.2,1.5
		c0.6-0.9,1.7-1.7,3.6-1.7c2.1,0,3.2,1.4,3.2,3.4v7.4H1103.3z"/>
	<path d="M1112.8,955.5v1.3h-3.4v6.2c0,1.7,0.7,2.1,2,2.1c0.4,0,1-0.1,1.1-0.2v1.2c-0.2,0.1-0.6,0.2-1.5,0.2c-1.8,0-3.1-0.9-3.1-3.2
		v-6.4h-1.7v-1.3h1.7v-3h1.4v3H1112.8z"/>
	<path d="M1116.1,961.4c0.1,2.3,1,3.8,3.2,3.8c2.1,0,3-1.3,3-2.4h1.3v0.1c0,1.6-1.4,3.5-4.3,3.5c-3.2,0-4.6-2.4-4.6-5.3v-0.4
		c0-2.9,1.4-5.3,4.5-5.3s4.4,2.4,4.4,5.3v0.8H1116.1z M1116.1,960.2h6.1c-0.1-2.3-1-3.8-3-3.8
		C1117.1,956.4,1116.1,957.9,1116.1,960.2z"/>
	<path d="M1130.4,955.3v1.3h-0.3c-1.6,0-2.4,0.9-2.8,1.6v7.9h-1.4v-7.6l-0.1-3h1.2l0.2,1.4c0.6-0.9,1.5-1.6,3-1.6
		C1130.2,955.3,1130.4,955.3,1130.4,955.3z"/>
	<path d="M1138.6,963.2c0-1.4-0.8-1.8-2.9-2c-2.9-0.2-3.7-1.2-3.7-2.8v-0.1c0-1.8,1.5-3,3.9-3c2.9,0,4,1.5,4,3.6v0.1h-1.4
		c0-1.5-0.6-2.5-2.6-2.5c-1.6,0-2.5,0.7-2.5,1.8c0,1.1,0.5,1.7,2.8,1.9c2.7,0.2,3.8,1,3.8,2.9v0.1c0,1.8-1.5,3.1-4.1,3.1
		c-3,0-4.1-1.8-4.1-3.4v-0.1h1.4c0,1.2,0.6,2.3,2.7,2.3C1137.7,965.1,1138.6,964.4,1138.6,963.2z"/>
	<path d="M1148,955.5v1.3h-3.4v6.2c0,1.7,0.7,2.1,2,2.1c0.4,0,1-0.1,1.1-0.2v1.2c-0.2,0.1-0.6,0.2-1.5,0.2c-1.8,0-3.1-0.9-3.1-3.2
		v-6.4h-1.7v-1.3h1.7v-3h1.4v3H1148z"/>
	<path d="M1154.8,955.3v1.3h-0.3c-1.6,0-2.4,0.9-2.8,1.6v7.9h-1.4v-7.6l-0.1-3h1.2l0.2,1.4c0.6-0.9,1.5-1.6,3-1.6
		C1154.6,955.3,1154.8,955.3,1154.8,955.3z"/>
	<path d="M1157.5,961.4c0.1,2.3,1,3.8,3.2,3.8c2.1,0,3-1.3,3-2.4h1.3v0.1c0,1.6-1.4,3.5-4.3,3.5c-3.2,0-4.6-2.4-4.6-5.3v-0.4
		c0-2.9,1.4-5.3,4.5-5.3s4.4,2.4,4.4,5.3v0.8H1157.5z M1157.5,960.2h6.1c-0.1-2.3-1-3.8-3-3.8
		C1158.6,956.4,1157.6,957.9,1157.5,960.2z"/>
	<path d="M1169.1,953h-1.8v-1.8h1.8V953z M1167.5,955.5h1.4v10.6h-1.4V955.5z"/>
	<path d="M1175.7,965c2,0,2.7-1.3,2.7-2.6h1.3v0.3c0,1.7-1.1,3.6-4.1,3.6c-3.1,0-4.4-2.3-4.4-5.3v-0.5c0-2.9,1.3-5.3,4.4-5.3
		c2.9,0,4.1,2,4.1,3.7v0.4h-1.3c0-1.6-0.8-2.8-2.7-2.8c-2.1,0-3,1.6-3,4v0.5C1172.7,963.4,1173.6,965,1175.7,965z"/>
	<path d="M1183.5,956.8c0.6-0.8,1.7-1.5,3.4-1.5c2.1,0,3.2,1.4,3.2,3.4v7.4h-1.4v-7.2c0-1.6-0.9-2.3-2.3-2.3c-1.7,0-2.5,0.9-2.9,1.6
		v7.9h-1.4v-16h1.4V956.8z"/>
	<path d="M1193.7,961.4c0.1,2.3,1,3.8,3.2,3.8c2.1,0,3-1.3,3-2.4h1.3v0.1c0,1.6-1.4,3.5-4.3,3.5c-3.2,0-4.6-2.4-4.6-5.3v-0.4
		c0-2.9,1.4-5.3,4.5-5.3s4.4,2.4,4.4,5.3v0.8H1193.7z M1193.7,960.2h6.1c-0.1-2.3-1-3.8-3-3.8
		C1194.8,956.4,1193.8,957.9,1193.7,960.2z"/>
	<path d="M1210.1,966.1v-7.2c0-1.6-0.9-2.3-2.3-2.3c-1.7,0-2.5,0.9-2.9,1.6v7.9h-1.4v-7.6l-0.1-3h1.2l0.2,1.5
		c0.6-0.9,1.7-1.7,3.6-1.7c2.1,0,3.2,1.4,3.2,3.4v7.4H1210.1z"/>
	<path d="M1215.8,966.1h-1.8v-1.8h1.8V966.1z"/>
</g>
</svg>
